G04 #@! TF.FileFunction,Legend,Top*
%FSLAX46Y46*%
G04 Gerber Fmt 4.6, Leading zero omitted, Abs format (unit mm)*
G04 Created by KiCad (PCBNEW 4.0.7-e0-6372~58~ubuntu16.04.1) date Fri Aug 17 11:57:39 2018*
%MOMM*%
%LPD*%
G01*
G04 APERTURE LIST*
%ADD10C,0.100000*%
%ADD11C,0.120000*%
%ADD12C,0.010000*%
%ADD13C,0.150000*%
G04 APERTURE END LIST*
D10*
D11*
X103826000Y-44716500D02*
X99176000Y-44716500D01*
X103826000Y-41516500D02*
X99176000Y-41516500D01*
X99176000Y-41516500D02*
X99176000Y-42316500D01*
X63726500Y-41453000D02*
X68376500Y-41453000D01*
X63726500Y-44653000D02*
X68376500Y-44653000D01*
X68376500Y-44653000D02*
X68376500Y-43853000D01*
X97028000Y-91694000D02*
X91948000Y-91694000D01*
X91948000Y-87122000D02*
X97028000Y-87122000D01*
X91948000Y-87122000D02*
X91948000Y-91694000D01*
X97028000Y-87122000D02*
X97028000Y-91694000D01*
D12*
G36*
X70433183Y-128097772D02*
X70464017Y-128119902D01*
X70468832Y-128126536D01*
X70475087Y-128138158D01*
X70480143Y-128153788D01*
X70484162Y-128176185D01*
X70487306Y-128208104D01*
X70489738Y-128252304D01*
X70491620Y-128311540D01*
X70493116Y-128388570D01*
X70494386Y-128486151D01*
X70495301Y-128575607D01*
X70499252Y-128990340D01*
X70731170Y-128996696D01*
X70828989Y-129000163D01*
X70904261Y-129004958D01*
X70959830Y-129011721D01*
X70998541Y-129021090D01*
X71023238Y-129033705D01*
X71036765Y-129050203D01*
X71041422Y-129066388D01*
X71036304Y-129108962D01*
X71007654Y-129145629D01*
X70955080Y-129176657D01*
X70878193Y-129202317D01*
X70827267Y-129213868D01*
X70761340Y-129224800D01*
X70687460Y-129233557D01*
X70613545Y-129239525D01*
X70547510Y-129242087D01*
X70497274Y-129240627D01*
X70491350Y-129239993D01*
X70412920Y-129227264D01*
X70351364Y-129210834D01*
X70310148Y-129191740D01*
X70299109Y-129182498D01*
X70291299Y-129171776D01*
X70285293Y-129156811D01*
X70280783Y-129134215D01*
X70277461Y-129100598D01*
X70275017Y-129052570D01*
X70273144Y-128986741D01*
X70271533Y-128899723D01*
X70271149Y-128875113D01*
X70270511Y-128757674D01*
X70272021Y-128640905D01*
X70275470Y-128528715D01*
X70280650Y-128425012D01*
X70287352Y-128333707D01*
X70295368Y-128258708D01*
X70304488Y-128203925D01*
X70307634Y-128191202D01*
X70329121Y-128144657D01*
X70360619Y-128112201D01*
X70397011Y-128095889D01*
X70433183Y-128097772D01*
X70433183Y-128097772D01*
G37*
X70433183Y-128097772D02*
X70464017Y-128119902D01*
X70468832Y-128126536D01*
X70475087Y-128138158D01*
X70480143Y-128153788D01*
X70484162Y-128176185D01*
X70487306Y-128208104D01*
X70489738Y-128252304D01*
X70491620Y-128311540D01*
X70493116Y-128388570D01*
X70494386Y-128486151D01*
X70495301Y-128575607D01*
X70499252Y-128990340D01*
X70731170Y-128996696D01*
X70828989Y-129000163D01*
X70904261Y-129004958D01*
X70959830Y-129011721D01*
X70998541Y-129021090D01*
X71023238Y-129033705D01*
X71036765Y-129050203D01*
X71041422Y-129066388D01*
X71036304Y-129108962D01*
X71007654Y-129145629D01*
X70955080Y-129176657D01*
X70878193Y-129202317D01*
X70827267Y-129213868D01*
X70761340Y-129224800D01*
X70687460Y-129233557D01*
X70613545Y-129239525D01*
X70547510Y-129242087D01*
X70497274Y-129240627D01*
X70491350Y-129239993D01*
X70412920Y-129227264D01*
X70351364Y-129210834D01*
X70310148Y-129191740D01*
X70299109Y-129182498D01*
X70291299Y-129171776D01*
X70285293Y-129156811D01*
X70280783Y-129134215D01*
X70277461Y-129100598D01*
X70275017Y-129052570D01*
X70273144Y-128986741D01*
X70271533Y-128899723D01*
X70271149Y-128875113D01*
X70270511Y-128757674D01*
X70272021Y-128640905D01*
X70275470Y-128528715D01*
X70280650Y-128425012D01*
X70287352Y-128333707D01*
X70295368Y-128258708D01*
X70304488Y-128203925D01*
X70307634Y-128191202D01*
X70329121Y-128144657D01*
X70360619Y-128112201D01*
X70397011Y-128095889D01*
X70433183Y-128097772D01*
G36*
X74647004Y-128095013D02*
X74753666Y-128096299D01*
X74851606Y-128098362D01*
X74933014Y-128101105D01*
X74942253Y-128101520D01*
X75151356Y-128111250D01*
X75312580Y-128369142D01*
X75358106Y-128441387D01*
X75399529Y-128506025D01*
X75434872Y-128560059D01*
X75462155Y-128600487D01*
X75479399Y-128624312D01*
X75484352Y-128629492D01*
X75488870Y-128618408D01*
X75494463Y-128586211D01*
X75500572Y-128537134D01*
X75506641Y-128475411D01*
X75509952Y-128435100D01*
X75518753Y-128335362D01*
X75528796Y-128258298D01*
X75541234Y-128201182D01*
X75557216Y-128161288D01*
X75577894Y-128135890D01*
X75604418Y-128122261D01*
X75637940Y-128117676D01*
X75644003Y-128117600D01*
X75675411Y-128118606D01*
X75701268Y-128123118D01*
X75722104Y-128133379D01*
X75738450Y-128151627D01*
X75750837Y-128180106D01*
X75759796Y-128221054D01*
X75765857Y-128276714D01*
X75769552Y-128349327D01*
X75771410Y-128441133D01*
X75771963Y-128554373D01*
X75771833Y-128657350D01*
X75771195Y-128786195D01*
X75769784Y-128892169D01*
X75767292Y-128977798D01*
X75763409Y-129045607D01*
X75757824Y-129098120D01*
X75750229Y-129137863D01*
X75740315Y-129167362D01*
X75727770Y-129189140D01*
X75712286Y-129205724D01*
X75703768Y-129212544D01*
X75669795Y-129227623D01*
X75631829Y-129224378D01*
X75588964Y-129201985D01*
X75540294Y-129159618D01*
X75484913Y-129096455D01*
X75421916Y-129011669D01*
X75350395Y-128904436D01*
X75330050Y-128872392D01*
X75203050Y-128670600D01*
X75195884Y-128873525D01*
X75192015Y-128961144D01*
X75187144Y-129027329D01*
X75180813Y-129076039D01*
X75172569Y-129111233D01*
X75166703Y-129127076D01*
X75132328Y-129188086D01*
X75092477Y-129224380D01*
X75046235Y-129236211D01*
X74992689Y-129223831D01*
X74935451Y-129190750D01*
X74889114Y-129160962D01*
X74855944Y-129148436D01*
X74831336Y-129152282D01*
X74814080Y-129167317D01*
X74788157Y-129189218D01*
X74748928Y-129206367D01*
X74693073Y-129219646D01*
X74617268Y-129229937D01*
X74558108Y-129235256D01*
X74498050Y-129239778D01*
X74447734Y-129243284D01*
X74412267Y-129245439D01*
X74396757Y-129245907D01*
X74396600Y-129245881D01*
X74381845Y-129244066D01*
X74348239Y-129240517D01*
X74302217Y-129235907D01*
X74287453Y-129234466D01*
X74218954Y-129226511D01*
X74165112Y-129215522D01*
X74124013Y-129198562D01*
X74093743Y-129172693D01*
X74072386Y-129134976D01*
X74058028Y-129082474D01*
X74048755Y-129012248D01*
X74042651Y-128921360D01*
X74040652Y-128876551D01*
X74345800Y-128876551D01*
X74357142Y-128927560D01*
X74390089Y-128966251D01*
X74434700Y-128988194D01*
X74456800Y-128992775D01*
X74498449Y-128999504D01*
X74553960Y-129007623D01*
X74617649Y-129016380D01*
X74683830Y-129025018D01*
X74746817Y-129032783D01*
X74800924Y-129038919D01*
X74840467Y-129042672D01*
X74849439Y-129043264D01*
X74862209Y-129042234D01*
X74870837Y-129034460D01*
X74876719Y-129015323D01*
X74881255Y-128980205D01*
X74885842Y-128924486D01*
X74885993Y-128922470D01*
X74888625Y-128863667D01*
X74889547Y-128786028D01*
X74888918Y-128696049D01*
X74886896Y-128600226D01*
X74883642Y-128505055D01*
X74879313Y-128417030D01*
X74874070Y-128342648D01*
X74871030Y-128311483D01*
X74863625Y-128245017D01*
X74831654Y-128270165D01*
X74802741Y-128288652D01*
X74766256Y-128302970D01*
X74717965Y-128314039D01*
X74653632Y-128322775D01*
X74569021Y-128330096D01*
X74548387Y-128331532D01*
X74482010Y-128336420D01*
X74436170Y-128341239D01*
X74406028Y-128347052D01*
X74386747Y-128354923D01*
X74373490Y-128365915D01*
X74369191Y-128370926D01*
X74354569Y-128402163D01*
X74346630Y-128444745D01*
X74346433Y-128487229D01*
X74355034Y-128518172D01*
X74355519Y-128518923D01*
X74377032Y-128538748D01*
X74413619Y-128553724D01*
X74468490Y-128564702D01*
X74544856Y-128572537D01*
X74561909Y-128573730D01*
X74641408Y-128580925D01*
X74698422Y-128591298D01*
X74735797Y-128606182D01*
X74756380Y-128626910D01*
X74763019Y-128654816D01*
X74762471Y-128667656D01*
X74746884Y-128706435D01*
X74708836Y-128733508D01*
X74648433Y-128748825D01*
X74584550Y-128752580D01*
X74509473Y-128755840D01*
X74444708Y-128764914D01*
X74394707Y-128778796D01*
X74363921Y-128796482D01*
X74358368Y-128803645D01*
X74350042Y-128831681D01*
X74345901Y-128870078D01*
X74345800Y-128876551D01*
X74040652Y-128876551D01*
X74039654Y-128854200D01*
X74036603Y-128779868D01*
X74033858Y-128714869D01*
X74031594Y-128663222D01*
X74029988Y-128628948D01*
X74029219Y-128616075D01*
X74017856Y-128610735D01*
X73996414Y-128620888D01*
X73971407Y-128642797D01*
X73960881Y-128655291D01*
X73922879Y-128691585D01*
X73865668Y-128729087D01*
X73795082Y-128764769D01*
X73716956Y-128795603D01*
X73654414Y-128814370D01*
X73587226Y-128833141D01*
X73540856Y-128851811D01*
X73511069Y-128874488D01*
X73493635Y-128905281D01*
X73484321Y-128948299D01*
X73480764Y-128982953D01*
X73470173Y-129059021D01*
X73451005Y-129116728D01*
X73420552Y-129162425D01*
X73392777Y-129189240D01*
X73341425Y-129222519D01*
X73295497Y-129231057D01*
X73254486Y-129214815D01*
X73218674Y-129174963D01*
X73212033Y-129162617D01*
X73206867Y-129146260D01*
X73203007Y-129122845D01*
X73200284Y-129089322D01*
X73198530Y-129042644D01*
X73197574Y-128979763D01*
X73197248Y-128897631D01*
X73197384Y-128793200D01*
X73197389Y-128791234D01*
X73198027Y-128688885D01*
X73199325Y-128585351D01*
X73201166Y-128486197D01*
X73201779Y-128462060D01*
X73461242Y-128462060D01*
X73462110Y-128500929D01*
X73471230Y-128519735D01*
X73511278Y-128550903D01*
X73562869Y-128567921D01*
X73618083Y-128570412D01*
X73668997Y-128558002D01*
X73707205Y-128530891D01*
X73730032Y-128497706D01*
X73734123Y-128467014D01*
X73720372Y-128428781D01*
X73716935Y-128421984D01*
X73684207Y-128381800D01*
X73639252Y-128356093D01*
X73589053Y-128346235D01*
X73540597Y-128353601D01*
X73500928Y-128379496D01*
X73474784Y-128418739D01*
X73461242Y-128462060D01*
X73201779Y-128462060D01*
X73203433Y-128396988D01*
X73206009Y-128323289D01*
X73208149Y-128280284D01*
X73217969Y-128119119D01*
X73288658Y-128110287D01*
X73325192Y-128107251D01*
X73381171Y-128104485D01*
X73450641Y-128102199D01*
X73527647Y-128100600D01*
X73582698Y-128100002D01*
X73672722Y-128099831D01*
X73741772Y-128101735D01*
X73794274Y-128107355D01*
X73834650Y-128118328D01*
X73867325Y-128136294D01*
X73896722Y-128162892D01*
X73927264Y-128199760D01*
X73955861Y-128238250D01*
X74020853Y-128327150D01*
X74047376Y-128239191D01*
X74060198Y-128197862D01*
X74072872Y-128165557D01*
X74088529Y-128141125D01*
X74110296Y-128123414D01*
X74141305Y-128111274D01*
X74184684Y-128103552D01*
X74243562Y-128099097D01*
X74321069Y-128096757D01*
X74420334Y-128095381D01*
X74438772Y-128095170D01*
X74539436Y-128094604D01*
X74647004Y-128095013D01*
X74647004Y-128095013D01*
G37*
X74647004Y-128095013D02*
X74753666Y-128096299D01*
X74851606Y-128098362D01*
X74933014Y-128101105D01*
X74942253Y-128101520D01*
X75151356Y-128111250D01*
X75312580Y-128369142D01*
X75358106Y-128441387D01*
X75399529Y-128506025D01*
X75434872Y-128560059D01*
X75462155Y-128600487D01*
X75479399Y-128624312D01*
X75484352Y-128629492D01*
X75488870Y-128618408D01*
X75494463Y-128586211D01*
X75500572Y-128537134D01*
X75506641Y-128475411D01*
X75509952Y-128435100D01*
X75518753Y-128335362D01*
X75528796Y-128258298D01*
X75541234Y-128201182D01*
X75557216Y-128161288D01*
X75577894Y-128135890D01*
X75604418Y-128122261D01*
X75637940Y-128117676D01*
X75644003Y-128117600D01*
X75675411Y-128118606D01*
X75701268Y-128123118D01*
X75722104Y-128133379D01*
X75738450Y-128151627D01*
X75750837Y-128180106D01*
X75759796Y-128221054D01*
X75765857Y-128276714D01*
X75769552Y-128349327D01*
X75771410Y-128441133D01*
X75771963Y-128554373D01*
X75771833Y-128657350D01*
X75771195Y-128786195D01*
X75769784Y-128892169D01*
X75767292Y-128977798D01*
X75763409Y-129045607D01*
X75757824Y-129098120D01*
X75750229Y-129137863D01*
X75740315Y-129167362D01*
X75727770Y-129189140D01*
X75712286Y-129205724D01*
X75703768Y-129212544D01*
X75669795Y-129227623D01*
X75631829Y-129224378D01*
X75588964Y-129201985D01*
X75540294Y-129159618D01*
X75484913Y-129096455D01*
X75421916Y-129011669D01*
X75350395Y-128904436D01*
X75330050Y-128872392D01*
X75203050Y-128670600D01*
X75195884Y-128873525D01*
X75192015Y-128961144D01*
X75187144Y-129027329D01*
X75180813Y-129076039D01*
X75172569Y-129111233D01*
X75166703Y-129127076D01*
X75132328Y-129188086D01*
X75092477Y-129224380D01*
X75046235Y-129236211D01*
X74992689Y-129223831D01*
X74935451Y-129190750D01*
X74889114Y-129160962D01*
X74855944Y-129148436D01*
X74831336Y-129152282D01*
X74814080Y-129167317D01*
X74788157Y-129189218D01*
X74748928Y-129206367D01*
X74693073Y-129219646D01*
X74617268Y-129229937D01*
X74558108Y-129235256D01*
X74498050Y-129239778D01*
X74447734Y-129243284D01*
X74412267Y-129245439D01*
X74396757Y-129245907D01*
X74396600Y-129245881D01*
X74381845Y-129244066D01*
X74348239Y-129240517D01*
X74302217Y-129235907D01*
X74287453Y-129234466D01*
X74218954Y-129226511D01*
X74165112Y-129215522D01*
X74124013Y-129198562D01*
X74093743Y-129172693D01*
X74072386Y-129134976D01*
X74058028Y-129082474D01*
X74048755Y-129012248D01*
X74042651Y-128921360D01*
X74040652Y-128876551D01*
X74345800Y-128876551D01*
X74357142Y-128927560D01*
X74390089Y-128966251D01*
X74434700Y-128988194D01*
X74456800Y-128992775D01*
X74498449Y-128999504D01*
X74553960Y-129007623D01*
X74617649Y-129016380D01*
X74683830Y-129025018D01*
X74746817Y-129032783D01*
X74800924Y-129038919D01*
X74840467Y-129042672D01*
X74849439Y-129043264D01*
X74862209Y-129042234D01*
X74870837Y-129034460D01*
X74876719Y-129015323D01*
X74881255Y-128980205D01*
X74885842Y-128924486D01*
X74885993Y-128922470D01*
X74888625Y-128863667D01*
X74889547Y-128786028D01*
X74888918Y-128696049D01*
X74886896Y-128600226D01*
X74883642Y-128505055D01*
X74879313Y-128417030D01*
X74874070Y-128342648D01*
X74871030Y-128311483D01*
X74863625Y-128245017D01*
X74831654Y-128270165D01*
X74802741Y-128288652D01*
X74766256Y-128302970D01*
X74717965Y-128314039D01*
X74653632Y-128322775D01*
X74569021Y-128330096D01*
X74548387Y-128331532D01*
X74482010Y-128336420D01*
X74436170Y-128341239D01*
X74406028Y-128347052D01*
X74386747Y-128354923D01*
X74373490Y-128365915D01*
X74369191Y-128370926D01*
X74354569Y-128402163D01*
X74346630Y-128444745D01*
X74346433Y-128487229D01*
X74355034Y-128518172D01*
X74355519Y-128518923D01*
X74377032Y-128538748D01*
X74413619Y-128553724D01*
X74468490Y-128564702D01*
X74544856Y-128572537D01*
X74561909Y-128573730D01*
X74641408Y-128580925D01*
X74698422Y-128591298D01*
X74735797Y-128606182D01*
X74756380Y-128626910D01*
X74763019Y-128654816D01*
X74762471Y-128667656D01*
X74746884Y-128706435D01*
X74708836Y-128733508D01*
X74648433Y-128748825D01*
X74584550Y-128752580D01*
X74509473Y-128755840D01*
X74444708Y-128764914D01*
X74394707Y-128778796D01*
X74363921Y-128796482D01*
X74358368Y-128803645D01*
X74350042Y-128831681D01*
X74345901Y-128870078D01*
X74345800Y-128876551D01*
X74040652Y-128876551D01*
X74039654Y-128854200D01*
X74036603Y-128779868D01*
X74033858Y-128714869D01*
X74031594Y-128663222D01*
X74029988Y-128628948D01*
X74029219Y-128616075D01*
X74017856Y-128610735D01*
X73996414Y-128620888D01*
X73971407Y-128642797D01*
X73960881Y-128655291D01*
X73922879Y-128691585D01*
X73865668Y-128729087D01*
X73795082Y-128764769D01*
X73716956Y-128795603D01*
X73654414Y-128814370D01*
X73587226Y-128833141D01*
X73540856Y-128851811D01*
X73511069Y-128874488D01*
X73493635Y-128905281D01*
X73484321Y-128948299D01*
X73480764Y-128982953D01*
X73470173Y-129059021D01*
X73451005Y-129116728D01*
X73420552Y-129162425D01*
X73392777Y-129189240D01*
X73341425Y-129222519D01*
X73295497Y-129231057D01*
X73254486Y-129214815D01*
X73218674Y-129174963D01*
X73212033Y-129162617D01*
X73206867Y-129146260D01*
X73203007Y-129122845D01*
X73200284Y-129089322D01*
X73198530Y-129042644D01*
X73197574Y-128979763D01*
X73197248Y-128897631D01*
X73197384Y-128793200D01*
X73197389Y-128791234D01*
X73198027Y-128688885D01*
X73199325Y-128585351D01*
X73201166Y-128486197D01*
X73201779Y-128462060D01*
X73461242Y-128462060D01*
X73462110Y-128500929D01*
X73471230Y-128519735D01*
X73511278Y-128550903D01*
X73562869Y-128567921D01*
X73618083Y-128570412D01*
X73668997Y-128558002D01*
X73707205Y-128530891D01*
X73730032Y-128497706D01*
X73734123Y-128467014D01*
X73720372Y-128428781D01*
X73716935Y-128421984D01*
X73684207Y-128381800D01*
X73639252Y-128356093D01*
X73589053Y-128346235D01*
X73540597Y-128353601D01*
X73500928Y-128379496D01*
X73474784Y-128418739D01*
X73461242Y-128462060D01*
X73201779Y-128462060D01*
X73203433Y-128396988D01*
X73206009Y-128323289D01*
X73208149Y-128280284D01*
X73217969Y-128119119D01*
X73288658Y-128110287D01*
X73325192Y-128107251D01*
X73381171Y-128104485D01*
X73450641Y-128102199D01*
X73527647Y-128100600D01*
X73582698Y-128100002D01*
X73672722Y-128099831D01*
X73741772Y-128101735D01*
X73794274Y-128107355D01*
X73834650Y-128118328D01*
X73867325Y-128136294D01*
X73896722Y-128162892D01*
X73927264Y-128199760D01*
X73955861Y-128238250D01*
X74020853Y-128327150D01*
X74047376Y-128239191D01*
X74060198Y-128197862D01*
X74072872Y-128165557D01*
X74088529Y-128141125D01*
X74110296Y-128123414D01*
X74141305Y-128111274D01*
X74184684Y-128103552D01*
X74243562Y-128099097D01*
X74321069Y-128096757D01*
X74420334Y-128095381D01*
X74438772Y-128095170D01*
X74539436Y-128094604D01*
X74647004Y-128095013D01*
G36*
X77658712Y-128097990D02*
X77738407Y-128127886D01*
X77804534Y-128178163D01*
X77857294Y-128249136D01*
X77896889Y-128341122D01*
X77923517Y-128454434D01*
X77937379Y-128589389D01*
X77939648Y-128677242D01*
X77934694Y-128800298D01*
X77919415Y-128902692D01*
X77894015Y-128983191D01*
X77886952Y-128998109D01*
X77845991Y-129058255D01*
X77787450Y-129117615D01*
X77718502Y-129169700D01*
X77663065Y-129200658D01*
X77586784Y-129227850D01*
X77513179Y-129235319D01*
X77439662Y-129222301D01*
X77363646Y-129188036D01*
X77282546Y-129131761D01*
X77208436Y-129066770D01*
X77100717Y-128964805D01*
X77013225Y-129059756D01*
X76939700Y-129130403D01*
X76865776Y-129180590D01*
X76784182Y-129214310D01*
X76695300Y-129234350D01*
X76647497Y-129241775D01*
X76613422Y-129245223D01*
X76582823Y-129244648D01*
X76545447Y-129240003D01*
X76504800Y-129233493D01*
X76416686Y-129210999D01*
X76343458Y-129175923D01*
X76287621Y-129130343D01*
X76251681Y-129076340D01*
X76238145Y-129015992D01*
X76238100Y-129012215D01*
X76247108Y-128960453D01*
X76274267Y-128925813D01*
X76319774Y-128908233D01*
X76383828Y-128907649D01*
X76466629Y-128924001D01*
X76494171Y-128931900D01*
X76565993Y-128948335D01*
X76630375Y-128953266D01*
X76685112Y-128948300D01*
X76728000Y-128935043D01*
X76756836Y-128915102D01*
X76769416Y-128890083D01*
X76763537Y-128861594D01*
X76736993Y-128831239D01*
X76687583Y-128800627D01*
X76679519Y-128796784D01*
X76630282Y-128777539D01*
X76579095Y-128762911D01*
X76555687Y-128758571D01*
X76500569Y-128750591D01*
X76462741Y-128741650D01*
X76434187Y-128728621D01*
X76406889Y-128708379D01*
X76390936Y-128694333D01*
X76343856Y-128636623D01*
X76313392Y-128562779D01*
X76298951Y-128471075D01*
X76297526Y-128422400D01*
X76303311Y-128322060D01*
X76321145Y-128242684D01*
X76352996Y-128182345D01*
X76400829Y-128139119D01*
X76466612Y-128111082D01*
X76552310Y-128096309D01*
X76634349Y-128092755D01*
X76742661Y-128096357D01*
X76829323Y-128108849D01*
X76896796Y-128131137D01*
X76947543Y-128164129D01*
X76984027Y-128208730D01*
X76992630Y-128224655D01*
X77007124Y-128258054D01*
X77009501Y-128280611D01*
X77000548Y-128303357D01*
X76998518Y-128307037D01*
X76977260Y-128335414D01*
X76947688Y-128355384D01*
X76905615Y-128368206D01*
X76846855Y-128375142D01*
X76767221Y-128377451D01*
X76764591Y-128377462D01*
X76697694Y-128378539D01*
X76650794Y-128381697D01*
X76618523Y-128387641D01*
X76595516Y-128397078D01*
X76589966Y-128400467D01*
X76566165Y-128419702D01*
X76555628Y-128435419D01*
X76555600Y-128435970D01*
X76567113Y-128460618D01*
X76598290Y-128487677D01*
X76644088Y-128513664D01*
X76699069Y-128534979D01*
X76802236Y-128572551D01*
X76886067Y-128616954D01*
X76956460Y-128672094D01*
X77019308Y-128741880D01*
X77027509Y-128752600D01*
X77049759Y-128777224D01*
X77067116Y-128787775D01*
X77071586Y-128786674D01*
X77076251Y-128770683D01*
X77081311Y-128734497D01*
X77086188Y-128683304D01*
X77087938Y-128657350D01*
X77400150Y-128657350D01*
X77401003Y-128733904D01*
X77403967Y-128790893D01*
X77409646Y-128834104D01*
X77418644Y-128869325D01*
X77423780Y-128883704D01*
X77451872Y-128935204D01*
X77487106Y-128962339D01*
X77529643Y-128965164D01*
X77579644Y-128943735D01*
X77585596Y-128939906D01*
X77618130Y-128909894D01*
X77649335Y-128867439D01*
X77660093Y-128848057D01*
X77682469Y-128781202D01*
X77692944Y-128700973D01*
X77691479Y-128616458D01*
X77678037Y-128536742D01*
X77661622Y-128488982D01*
X77626086Y-128426462D01*
X77585025Y-128381630D01*
X77541687Y-128355069D01*
X77499321Y-128347362D01*
X77461175Y-128359092D01*
X77430498Y-128390840D01*
X77410538Y-128443191D01*
X77410383Y-128443916D01*
X77406456Y-128475178D01*
X77403226Y-128525094D01*
X77401017Y-128586923D01*
X77400152Y-128653922D01*
X77400150Y-128657350D01*
X77087938Y-128657350D01*
X77090304Y-128622292D01*
X77090684Y-128615224D01*
X77095877Y-128532635D01*
X77102553Y-128469321D01*
X77112196Y-128419159D01*
X77126291Y-128376024D01*
X77146322Y-128333792D01*
X77168143Y-128295666D01*
X77230382Y-128215536D01*
X77309029Y-128154085D01*
X77402337Y-128112224D01*
X77508559Y-128090865D01*
X77565250Y-128088160D01*
X77658712Y-128097990D01*
X77658712Y-128097990D01*
G37*
X77658712Y-128097990D02*
X77738407Y-128127886D01*
X77804534Y-128178163D01*
X77857294Y-128249136D01*
X77896889Y-128341122D01*
X77923517Y-128454434D01*
X77937379Y-128589389D01*
X77939648Y-128677242D01*
X77934694Y-128800298D01*
X77919415Y-128902692D01*
X77894015Y-128983191D01*
X77886952Y-128998109D01*
X77845991Y-129058255D01*
X77787450Y-129117615D01*
X77718502Y-129169700D01*
X77663065Y-129200658D01*
X77586784Y-129227850D01*
X77513179Y-129235319D01*
X77439662Y-129222301D01*
X77363646Y-129188036D01*
X77282546Y-129131761D01*
X77208436Y-129066770D01*
X77100717Y-128964805D01*
X77013225Y-129059756D01*
X76939700Y-129130403D01*
X76865776Y-129180590D01*
X76784182Y-129214310D01*
X76695300Y-129234350D01*
X76647497Y-129241775D01*
X76613422Y-129245223D01*
X76582823Y-129244648D01*
X76545447Y-129240003D01*
X76504800Y-129233493D01*
X76416686Y-129210999D01*
X76343458Y-129175923D01*
X76287621Y-129130343D01*
X76251681Y-129076340D01*
X76238145Y-129015992D01*
X76238100Y-129012215D01*
X76247108Y-128960453D01*
X76274267Y-128925813D01*
X76319774Y-128908233D01*
X76383828Y-128907649D01*
X76466629Y-128924001D01*
X76494171Y-128931900D01*
X76565993Y-128948335D01*
X76630375Y-128953266D01*
X76685112Y-128948300D01*
X76728000Y-128935043D01*
X76756836Y-128915102D01*
X76769416Y-128890083D01*
X76763537Y-128861594D01*
X76736993Y-128831239D01*
X76687583Y-128800627D01*
X76679519Y-128796784D01*
X76630282Y-128777539D01*
X76579095Y-128762911D01*
X76555687Y-128758571D01*
X76500569Y-128750591D01*
X76462741Y-128741650D01*
X76434187Y-128728621D01*
X76406889Y-128708379D01*
X76390936Y-128694333D01*
X76343856Y-128636623D01*
X76313392Y-128562779D01*
X76298951Y-128471075D01*
X76297526Y-128422400D01*
X76303311Y-128322060D01*
X76321145Y-128242684D01*
X76352996Y-128182345D01*
X76400829Y-128139119D01*
X76466612Y-128111082D01*
X76552310Y-128096309D01*
X76634349Y-128092755D01*
X76742661Y-128096357D01*
X76829323Y-128108849D01*
X76896796Y-128131137D01*
X76947543Y-128164129D01*
X76984027Y-128208730D01*
X76992630Y-128224655D01*
X77007124Y-128258054D01*
X77009501Y-128280611D01*
X77000548Y-128303357D01*
X76998518Y-128307037D01*
X76977260Y-128335414D01*
X76947688Y-128355384D01*
X76905615Y-128368206D01*
X76846855Y-128375142D01*
X76767221Y-128377451D01*
X76764591Y-128377462D01*
X76697694Y-128378539D01*
X76650794Y-128381697D01*
X76618523Y-128387641D01*
X76595516Y-128397078D01*
X76589966Y-128400467D01*
X76566165Y-128419702D01*
X76555628Y-128435419D01*
X76555600Y-128435970D01*
X76567113Y-128460618D01*
X76598290Y-128487677D01*
X76644088Y-128513664D01*
X76699069Y-128534979D01*
X76802236Y-128572551D01*
X76886067Y-128616954D01*
X76956460Y-128672094D01*
X77019308Y-128741880D01*
X77027509Y-128752600D01*
X77049759Y-128777224D01*
X77067116Y-128787775D01*
X77071586Y-128786674D01*
X77076251Y-128770683D01*
X77081311Y-128734497D01*
X77086188Y-128683304D01*
X77087938Y-128657350D01*
X77400150Y-128657350D01*
X77401003Y-128733904D01*
X77403967Y-128790893D01*
X77409646Y-128834104D01*
X77418644Y-128869325D01*
X77423780Y-128883704D01*
X77451872Y-128935204D01*
X77487106Y-128962339D01*
X77529643Y-128965164D01*
X77579644Y-128943735D01*
X77585596Y-128939906D01*
X77618130Y-128909894D01*
X77649335Y-128867439D01*
X77660093Y-128848057D01*
X77682469Y-128781202D01*
X77692944Y-128700973D01*
X77691479Y-128616458D01*
X77678037Y-128536742D01*
X77661622Y-128488982D01*
X77626086Y-128426462D01*
X77585025Y-128381630D01*
X77541687Y-128355069D01*
X77499321Y-128347362D01*
X77461175Y-128359092D01*
X77430498Y-128390840D01*
X77410538Y-128443191D01*
X77410383Y-128443916D01*
X77406456Y-128475178D01*
X77403226Y-128525094D01*
X77401017Y-128586923D01*
X77400152Y-128653922D01*
X77400150Y-128657350D01*
X77087938Y-128657350D01*
X77090304Y-128622292D01*
X77090684Y-128615224D01*
X77095877Y-128532635D01*
X77102553Y-128469321D01*
X77112196Y-128419159D01*
X77126291Y-128376024D01*
X77146322Y-128333792D01*
X77168143Y-128295666D01*
X77230382Y-128215536D01*
X77309029Y-128154085D01*
X77402337Y-128112224D01*
X77508559Y-128090865D01*
X77565250Y-128088160D01*
X77658712Y-128097990D01*
G36*
X80431761Y-128101082D02*
X80514709Y-128143382D01*
X80562141Y-128181931D01*
X80596702Y-128212825D01*
X80625357Y-128235208D01*
X80642268Y-128244551D01*
X80642892Y-128244600D01*
X80657638Y-128234699D01*
X80678729Y-128209546D01*
X80690062Y-128192829D01*
X80726992Y-128149310D01*
X80768507Y-128121937D01*
X80811615Y-128109669D01*
X80874436Y-128099326D01*
X80951332Y-128091281D01*
X81036662Y-128085902D01*
X81124788Y-128083561D01*
X81210071Y-128084628D01*
X81276788Y-128088549D01*
X81351343Y-128096275D01*
X81404131Y-128105934D01*
X81438788Y-128119716D01*
X81458944Y-128139814D01*
X81468235Y-128168420D01*
X81470305Y-128205293D01*
X81468273Y-128243467D01*
X81463378Y-128271441D01*
X81460780Y-128277623D01*
X81442122Y-128295602D01*
X81411190Y-128309104D01*
X81364523Y-128318915D01*
X81298663Y-128325823D01*
X81231693Y-128329703D01*
X81149140Y-128334602D01*
X81088435Y-128341604D01*
X81046044Y-128351990D01*
X81018427Y-128367041D01*
X81002049Y-128388038D01*
X80993421Y-128415998D01*
X80988103Y-128465701D01*
X80994938Y-128503551D01*
X81016461Y-128531383D01*
X81055205Y-128551034D01*
X81113705Y-128564338D01*
X81194494Y-128573131D01*
X81212105Y-128574412D01*
X81276357Y-128579172D01*
X81320417Y-128583863D01*
X81349454Y-128589763D01*
X81368642Y-128598152D01*
X81383150Y-128610307D01*
X81390559Y-128618537D01*
X81410125Y-128644225D01*
X81419548Y-128662373D01*
X81419700Y-128663700D01*
X81412106Y-128680103D01*
X81393529Y-128705350D01*
X81390559Y-128708862D01*
X81376334Y-128723569D01*
X81360088Y-128733788D01*
X81336599Y-128740820D01*
X81300647Y-128745967D01*
X81247012Y-128750530D01*
X81214110Y-128752850D01*
X81137939Y-128759189D01*
X81082984Y-128766925D01*
X81045063Y-128777287D01*
X81019992Y-128791506D01*
X81003588Y-128810812D01*
X81000891Y-128815556D01*
X80988954Y-128856963D01*
X80990113Y-128903251D01*
X81003407Y-128942938D01*
X81012591Y-128955091D01*
X81028105Y-128967805D01*
X81048347Y-128977415D01*
X81077379Y-128984629D01*
X81119260Y-128990157D01*
X81178054Y-128994710D01*
X81257820Y-128998996D01*
X81266070Y-128999388D01*
X81349475Y-129005521D01*
X81409614Y-129015751D01*
X81448464Y-129031385D01*
X81468005Y-129053727D01*
X81470215Y-129084085D01*
X81457073Y-129123764D01*
X81456492Y-129125048D01*
X81427457Y-129160299D01*
X81377635Y-129189860D01*
X81311100Y-129213239D01*
X81231927Y-129229941D01*
X81144192Y-129239472D01*
X81051970Y-129241338D01*
X80959336Y-129235045D01*
X80870365Y-129220099D01*
X80810020Y-129203423D01*
X80755186Y-129177305D01*
X80711817Y-129141435D01*
X80685583Y-129101071D01*
X80681004Y-129083794D01*
X80673386Y-129058481D01*
X80658217Y-129050800D01*
X80632939Y-129061319D01*
X80594995Y-129090606D01*
X80576447Y-129107025D01*
X80532871Y-129143478D01*
X80487581Y-129176624D01*
X80452043Y-129198353D01*
X80391721Y-129219640D01*
X80319231Y-129231390D01*
X80246394Y-129232414D01*
X80194150Y-129224268D01*
X80106032Y-129188181D01*
X80023228Y-129131269D01*
X79950654Y-129058106D01*
X79893223Y-128973265D01*
X79869392Y-128922064D01*
X79856566Y-128884435D01*
X79847282Y-128843670D01*
X79840676Y-128793767D01*
X79835881Y-128728721D01*
X79833109Y-128670233D01*
X79832531Y-128656068D01*
X80137250Y-128656068D01*
X80140761Y-128737706D01*
X80151346Y-128814192D01*
X80168938Y-128879636D01*
X80193473Y-128928148D01*
X80201226Y-128937522D01*
X80240741Y-128963304D01*
X80285401Y-128965721D01*
X80328962Y-128944993D01*
X80367512Y-128918302D01*
X80406000Y-128900545D01*
X80452757Y-128888896D01*
X80516115Y-128880530D01*
X80520316Y-128880102D01*
X80582248Y-128872189D01*
X80625175Y-128860209D01*
X80652810Y-128839815D01*
X80668869Y-128806663D01*
X80677065Y-128756410D01*
X80680813Y-128692375D01*
X80681835Y-128617364D01*
X80677723Y-128563071D01*
X80668153Y-128525273D01*
X80667886Y-128524613D01*
X80655737Y-128498643D01*
X80641502Y-128486188D01*
X80616687Y-128483013D01*
X80586724Y-128484135D01*
X80552916Y-128484042D01*
X80521198Y-128478324D01*
X80484485Y-128464747D01*
X80435692Y-128441076D01*
X80413603Y-128429546D01*
X80339463Y-128394173D01*
X80281644Y-128375495D01*
X80237665Y-128373127D01*
X80205045Y-128386687D01*
X80195236Y-128395799D01*
X80169805Y-128439143D01*
X80151707Y-128500897D01*
X80140877Y-128575168D01*
X80137250Y-128656068D01*
X79832531Y-128656068D01*
X79825850Y-128492616D01*
X79767335Y-128574983D01*
X79720719Y-128642716D01*
X79689399Y-128696504D01*
X79672782Y-128742221D01*
X79670274Y-128785739D01*
X79681282Y-128832931D01*
X79705214Y-128889669D01*
X79730434Y-128940354D01*
X79757732Y-128997596D01*
X79780755Y-129053079D01*
X79796495Y-129099156D01*
X79801488Y-129121091D01*
X79804438Y-129159281D01*
X79798217Y-129183564D01*
X79780023Y-129204623D01*
X79779429Y-129205165D01*
X79736717Y-129234181D01*
X79694679Y-129239978D01*
X79660145Y-129229942D01*
X79618502Y-129202373D01*
X79571449Y-129155117D01*
X79522455Y-129092282D01*
X79474989Y-129017980D01*
X79462504Y-128995789D01*
X79410187Y-128904248D01*
X79365737Y-128836384D01*
X79328333Y-128792006D01*
X79297154Y-128770922D01*
X79271377Y-128772941D01*
X79250182Y-128797873D01*
X79232746Y-128845527D01*
X79218249Y-128915710D01*
X79214778Y-128938185D01*
X79198346Y-129035001D01*
X79180349Y-129109190D01*
X79159902Y-129163518D01*
X79136121Y-129200748D01*
X79128178Y-129209022D01*
X79091640Y-129231694D01*
X79057721Y-129229247D01*
X79027220Y-129201895D01*
X79013050Y-129178050D01*
X79005153Y-129160593D01*
X78999099Y-129141506D01*
X78994659Y-129117349D01*
X78991606Y-129084688D01*
X78989713Y-129040084D01*
X78988752Y-128980101D01*
X78988496Y-128901302D01*
X78988686Y-128809750D01*
X78989417Y-128708811D01*
X78990883Y-128603857D01*
X78992941Y-128501547D01*
X78994245Y-128453181D01*
X79222019Y-128453181D01*
X79228078Y-128503190D01*
X79242370Y-128533874D01*
X79271932Y-128555300D01*
X79316628Y-128562202D01*
X79370721Y-128554531D01*
X79422136Y-128535399D01*
X79469273Y-128503233D01*
X79500594Y-128462806D01*
X79514029Y-128419291D01*
X79507506Y-128377856D01*
X79493681Y-128356725D01*
X79476632Y-128344010D01*
X79450037Y-128336797D01*
X79407583Y-128333808D01*
X79378804Y-128333500D01*
X79328307Y-128334503D01*
X79295666Y-128338760D01*
X79273374Y-128348142D01*
X79253922Y-128364522D01*
X79253772Y-128364672D01*
X79230822Y-128403464D01*
X79222019Y-128453181D01*
X78994245Y-128453181D01*
X78995449Y-128408541D01*
X78998264Y-128331499D01*
X78999494Y-128305678D01*
X79009265Y-128119107D01*
X79078122Y-128110503D01*
X79113902Y-128107546D01*
X79169221Y-128104823D01*
X79238219Y-128102537D01*
X79315035Y-128100895D01*
X79372115Y-128100225D01*
X79463493Y-128099914D01*
X79533851Y-128101768D01*
X79587568Y-128107662D01*
X79629023Y-128119469D01*
X79662592Y-128139063D01*
X79692657Y-128168318D01*
X79723593Y-128209108D01*
X79759781Y-128263306D01*
X79762350Y-128267231D01*
X79793646Y-128314236D01*
X79819928Y-128352163D01*
X79838123Y-128376676D01*
X79844900Y-128383729D01*
X79854940Y-128374291D01*
X79875711Y-128349295D01*
X79903070Y-128313774D01*
X79908400Y-128306617D01*
X79974131Y-128227197D01*
X80038986Y-128169047D01*
X80107258Y-128128565D01*
X80134200Y-128117362D01*
X80241083Y-128088008D01*
X80340411Y-128082602D01*
X80431761Y-128101082D01*
X80431761Y-128101082D01*
G37*
X80431761Y-128101082D02*
X80514709Y-128143382D01*
X80562141Y-128181931D01*
X80596702Y-128212825D01*
X80625357Y-128235208D01*
X80642268Y-128244551D01*
X80642892Y-128244600D01*
X80657638Y-128234699D01*
X80678729Y-128209546D01*
X80690062Y-128192829D01*
X80726992Y-128149310D01*
X80768507Y-128121937D01*
X80811615Y-128109669D01*
X80874436Y-128099326D01*
X80951332Y-128091281D01*
X81036662Y-128085902D01*
X81124788Y-128083561D01*
X81210071Y-128084628D01*
X81276788Y-128088549D01*
X81351343Y-128096275D01*
X81404131Y-128105934D01*
X81438788Y-128119716D01*
X81458944Y-128139814D01*
X81468235Y-128168420D01*
X81470305Y-128205293D01*
X81468273Y-128243467D01*
X81463378Y-128271441D01*
X81460780Y-128277623D01*
X81442122Y-128295602D01*
X81411190Y-128309104D01*
X81364523Y-128318915D01*
X81298663Y-128325823D01*
X81231693Y-128329703D01*
X81149140Y-128334602D01*
X81088435Y-128341604D01*
X81046044Y-128351990D01*
X81018427Y-128367041D01*
X81002049Y-128388038D01*
X80993421Y-128415998D01*
X80988103Y-128465701D01*
X80994938Y-128503551D01*
X81016461Y-128531383D01*
X81055205Y-128551034D01*
X81113705Y-128564338D01*
X81194494Y-128573131D01*
X81212105Y-128574412D01*
X81276357Y-128579172D01*
X81320417Y-128583863D01*
X81349454Y-128589763D01*
X81368642Y-128598152D01*
X81383150Y-128610307D01*
X81390559Y-128618537D01*
X81410125Y-128644225D01*
X81419548Y-128662373D01*
X81419700Y-128663700D01*
X81412106Y-128680103D01*
X81393529Y-128705350D01*
X81390559Y-128708862D01*
X81376334Y-128723569D01*
X81360088Y-128733788D01*
X81336599Y-128740820D01*
X81300647Y-128745967D01*
X81247012Y-128750530D01*
X81214110Y-128752850D01*
X81137939Y-128759189D01*
X81082984Y-128766925D01*
X81045063Y-128777287D01*
X81019992Y-128791506D01*
X81003588Y-128810812D01*
X81000891Y-128815556D01*
X80988954Y-128856963D01*
X80990113Y-128903251D01*
X81003407Y-128942938D01*
X81012591Y-128955091D01*
X81028105Y-128967805D01*
X81048347Y-128977415D01*
X81077379Y-128984629D01*
X81119260Y-128990157D01*
X81178054Y-128994710D01*
X81257820Y-128998996D01*
X81266070Y-128999388D01*
X81349475Y-129005521D01*
X81409614Y-129015751D01*
X81448464Y-129031385D01*
X81468005Y-129053727D01*
X81470215Y-129084085D01*
X81457073Y-129123764D01*
X81456492Y-129125048D01*
X81427457Y-129160299D01*
X81377635Y-129189860D01*
X81311100Y-129213239D01*
X81231927Y-129229941D01*
X81144192Y-129239472D01*
X81051970Y-129241338D01*
X80959336Y-129235045D01*
X80870365Y-129220099D01*
X80810020Y-129203423D01*
X80755186Y-129177305D01*
X80711817Y-129141435D01*
X80685583Y-129101071D01*
X80681004Y-129083794D01*
X80673386Y-129058481D01*
X80658217Y-129050800D01*
X80632939Y-129061319D01*
X80594995Y-129090606D01*
X80576447Y-129107025D01*
X80532871Y-129143478D01*
X80487581Y-129176624D01*
X80452043Y-129198353D01*
X80391721Y-129219640D01*
X80319231Y-129231390D01*
X80246394Y-129232414D01*
X80194150Y-129224268D01*
X80106032Y-129188181D01*
X80023228Y-129131269D01*
X79950654Y-129058106D01*
X79893223Y-128973265D01*
X79869392Y-128922064D01*
X79856566Y-128884435D01*
X79847282Y-128843670D01*
X79840676Y-128793767D01*
X79835881Y-128728721D01*
X79833109Y-128670233D01*
X79832531Y-128656068D01*
X80137250Y-128656068D01*
X80140761Y-128737706D01*
X80151346Y-128814192D01*
X80168938Y-128879636D01*
X80193473Y-128928148D01*
X80201226Y-128937522D01*
X80240741Y-128963304D01*
X80285401Y-128965721D01*
X80328962Y-128944993D01*
X80367512Y-128918302D01*
X80406000Y-128900545D01*
X80452757Y-128888896D01*
X80516115Y-128880530D01*
X80520316Y-128880102D01*
X80582248Y-128872189D01*
X80625175Y-128860209D01*
X80652810Y-128839815D01*
X80668869Y-128806663D01*
X80677065Y-128756410D01*
X80680813Y-128692375D01*
X80681835Y-128617364D01*
X80677723Y-128563071D01*
X80668153Y-128525273D01*
X80667886Y-128524613D01*
X80655737Y-128498643D01*
X80641502Y-128486188D01*
X80616687Y-128483013D01*
X80586724Y-128484135D01*
X80552916Y-128484042D01*
X80521198Y-128478324D01*
X80484485Y-128464747D01*
X80435692Y-128441076D01*
X80413603Y-128429546D01*
X80339463Y-128394173D01*
X80281644Y-128375495D01*
X80237665Y-128373127D01*
X80205045Y-128386687D01*
X80195236Y-128395799D01*
X80169805Y-128439143D01*
X80151707Y-128500897D01*
X80140877Y-128575168D01*
X80137250Y-128656068D01*
X79832531Y-128656068D01*
X79825850Y-128492616D01*
X79767335Y-128574983D01*
X79720719Y-128642716D01*
X79689399Y-128696504D01*
X79672782Y-128742221D01*
X79670274Y-128785739D01*
X79681282Y-128832931D01*
X79705214Y-128889669D01*
X79730434Y-128940354D01*
X79757732Y-128997596D01*
X79780755Y-129053079D01*
X79796495Y-129099156D01*
X79801488Y-129121091D01*
X79804438Y-129159281D01*
X79798217Y-129183564D01*
X79780023Y-129204623D01*
X79779429Y-129205165D01*
X79736717Y-129234181D01*
X79694679Y-129239978D01*
X79660145Y-129229942D01*
X79618502Y-129202373D01*
X79571449Y-129155117D01*
X79522455Y-129092282D01*
X79474989Y-129017980D01*
X79462504Y-128995789D01*
X79410187Y-128904248D01*
X79365737Y-128836384D01*
X79328333Y-128792006D01*
X79297154Y-128770922D01*
X79271377Y-128772941D01*
X79250182Y-128797873D01*
X79232746Y-128845527D01*
X79218249Y-128915710D01*
X79214778Y-128938185D01*
X79198346Y-129035001D01*
X79180349Y-129109190D01*
X79159902Y-129163518D01*
X79136121Y-129200748D01*
X79128178Y-129209022D01*
X79091640Y-129231694D01*
X79057721Y-129229247D01*
X79027220Y-129201895D01*
X79013050Y-129178050D01*
X79005153Y-129160593D01*
X78999099Y-129141506D01*
X78994659Y-129117349D01*
X78991606Y-129084688D01*
X78989713Y-129040084D01*
X78988752Y-128980101D01*
X78988496Y-128901302D01*
X78988686Y-128809750D01*
X78989417Y-128708811D01*
X78990883Y-128603857D01*
X78992941Y-128501547D01*
X78994245Y-128453181D01*
X79222019Y-128453181D01*
X79228078Y-128503190D01*
X79242370Y-128533874D01*
X79271932Y-128555300D01*
X79316628Y-128562202D01*
X79370721Y-128554531D01*
X79422136Y-128535399D01*
X79469273Y-128503233D01*
X79500594Y-128462806D01*
X79514029Y-128419291D01*
X79507506Y-128377856D01*
X79493681Y-128356725D01*
X79476632Y-128344010D01*
X79450037Y-128336797D01*
X79407583Y-128333808D01*
X79378804Y-128333500D01*
X79328307Y-128334503D01*
X79295666Y-128338760D01*
X79273374Y-128348142D01*
X79253922Y-128364522D01*
X79253772Y-128364672D01*
X79230822Y-128403464D01*
X79222019Y-128453181D01*
X78994245Y-128453181D01*
X78995449Y-128408541D01*
X78998264Y-128331499D01*
X78999494Y-128305678D01*
X79009265Y-128119107D01*
X79078122Y-128110503D01*
X79113902Y-128107546D01*
X79169221Y-128104823D01*
X79238219Y-128102537D01*
X79315035Y-128100895D01*
X79372115Y-128100225D01*
X79463493Y-128099914D01*
X79533851Y-128101768D01*
X79587568Y-128107662D01*
X79629023Y-128119469D01*
X79662592Y-128139063D01*
X79692657Y-128168318D01*
X79723593Y-128209108D01*
X79759781Y-128263306D01*
X79762350Y-128267231D01*
X79793646Y-128314236D01*
X79819928Y-128352163D01*
X79838123Y-128376676D01*
X79844900Y-128383729D01*
X79854940Y-128374291D01*
X79875711Y-128349295D01*
X79903070Y-128313774D01*
X79908400Y-128306617D01*
X79974131Y-128227197D01*
X80038986Y-128169047D01*
X80107258Y-128128565D01*
X80134200Y-128117362D01*
X80241083Y-128088008D01*
X80340411Y-128082602D01*
X80431761Y-128101082D01*
G36*
X82684002Y-128120033D02*
X82722861Y-128145053D01*
X82762863Y-128193958D01*
X82804989Y-128266943D01*
X82850220Y-128364205D01*
X82899538Y-128485940D01*
X82928281Y-128562100D01*
X82983839Y-128718087D01*
X83026848Y-128852019D01*
X83057317Y-128963922D01*
X83075251Y-129053820D01*
X83079485Y-129090094D01*
X83082723Y-129137395D01*
X83081818Y-129166678D01*
X83075045Y-129185209D01*
X83060679Y-129200254D01*
X83051601Y-129207569D01*
X83022710Y-129226351D01*
X82999353Y-129235115D01*
X82997783Y-129235200D01*
X82981177Y-129226795D01*
X82951579Y-129204170D01*
X82913815Y-129171205D01*
X82888118Y-129146987D01*
X82819566Y-129085797D01*
X82758413Y-129043984D01*
X82699400Y-129018907D01*
X82637264Y-129007924D01*
X82609109Y-129006878D01*
X82543396Y-129012373D01*
X82493928Y-129031981D01*
X82454564Y-129069537D01*
X82421694Y-129123816D01*
X82397734Y-129165264D01*
X82372990Y-129199001D01*
X82356272Y-129215031D01*
X82314086Y-129234670D01*
X82271382Y-129242609D01*
X82245200Y-129239154D01*
X82205732Y-129213585D01*
X82184185Y-129176868D01*
X82181700Y-129158452D01*
X82186656Y-129118424D01*
X82200715Y-129058742D01*
X82222664Y-128982962D01*
X82251288Y-128894641D01*
X82285375Y-128797336D01*
X82323710Y-128694602D01*
X82330375Y-128677749D01*
X82581604Y-128677749D01*
X82583376Y-128713418D01*
X82604317Y-128739304D01*
X82639070Y-128752237D01*
X82682281Y-128749046D01*
X82695011Y-128744891D01*
X82708760Y-128727640D01*
X82714690Y-128694622D01*
X82713764Y-128653241D01*
X82706943Y-128610899D01*
X82695191Y-128575000D01*
X82679470Y-128552946D01*
X82669587Y-128549400D01*
X82651713Y-128559864D01*
X82628805Y-128586420D01*
X82605837Y-128621814D01*
X82587780Y-128658792D01*
X82581604Y-128677749D01*
X82330375Y-128677749D01*
X82365080Y-128589997D01*
X82408271Y-128487076D01*
X82419883Y-128460500D01*
X82472497Y-128346332D01*
X82520364Y-128254873D01*
X82564467Y-128186317D01*
X82605787Y-128140861D01*
X82645305Y-128118701D01*
X82684002Y-128120033D01*
X82684002Y-128120033D01*
G37*
X82684002Y-128120033D02*
X82722861Y-128145053D01*
X82762863Y-128193958D01*
X82804989Y-128266943D01*
X82850220Y-128364205D01*
X82899538Y-128485940D01*
X82928281Y-128562100D01*
X82983839Y-128718087D01*
X83026848Y-128852019D01*
X83057317Y-128963922D01*
X83075251Y-129053820D01*
X83079485Y-129090094D01*
X83082723Y-129137395D01*
X83081818Y-129166678D01*
X83075045Y-129185209D01*
X83060679Y-129200254D01*
X83051601Y-129207569D01*
X83022710Y-129226351D01*
X82999353Y-129235115D01*
X82997783Y-129235200D01*
X82981177Y-129226795D01*
X82951579Y-129204170D01*
X82913815Y-129171205D01*
X82888118Y-129146987D01*
X82819566Y-129085797D01*
X82758413Y-129043984D01*
X82699400Y-129018907D01*
X82637264Y-129007924D01*
X82609109Y-129006878D01*
X82543396Y-129012373D01*
X82493928Y-129031981D01*
X82454564Y-129069537D01*
X82421694Y-129123816D01*
X82397734Y-129165264D01*
X82372990Y-129199001D01*
X82356272Y-129215031D01*
X82314086Y-129234670D01*
X82271382Y-129242609D01*
X82245200Y-129239154D01*
X82205732Y-129213585D01*
X82184185Y-129176868D01*
X82181700Y-129158452D01*
X82186656Y-129118424D01*
X82200715Y-129058742D01*
X82222664Y-128982962D01*
X82251288Y-128894641D01*
X82285375Y-128797336D01*
X82323710Y-128694602D01*
X82330375Y-128677749D01*
X82581604Y-128677749D01*
X82583376Y-128713418D01*
X82604317Y-128739304D01*
X82639070Y-128752237D01*
X82682281Y-128749046D01*
X82695011Y-128744891D01*
X82708760Y-128727640D01*
X82714690Y-128694622D01*
X82713764Y-128653241D01*
X82706943Y-128610899D01*
X82695191Y-128575000D01*
X82679470Y-128552946D01*
X82669587Y-128549400D01*
X82651713Y-128559864D01*
X82628805Y-128586420D01*
X82605837Y-128621814D01*
X82587780Y-128658792D01*
X82581604Y-128677749D01*
X82330375Y-128677749D01*
X82365080Y-128589997D01*
X82408271Y-128487076D01*
X82419883Y-128460500D01*
X82472497Y-128346332D01*
X82520364Y-128254873D01*
X82564467Y-128186317D01*
X82605787Y-128140861D01*
X82645305Y-128118701D01*
X82684002Y-128120033D01*
G36*
X84590036Y-128101034D02*
X84641723Y-128105208D01*
X84680709Y-128114173D01*
X84711228Y-128129516D01*
X84737511Y-128152823D01*
X84763792Y-128185682D01*
X84794305Y-128229678D01*
X84800659Y-128239030D01*
X84872223Y-128362562D01*
X84919805Y-128486791D01*
X84943077Y-128610378D01*
X84941710Y-128731988D01*
X84933814Y-128781640D01*
X84901873Y-128898926D01*
X84857845Y-128995174D01*
X84800877Y-129072127D01*
X84782958Y-129090017D01*
X84709681Y-129145586D01*
X84620668Y-129192649D01*
X84525291Y-129226520D01*
X84495649Y-129233661D01*
X84443416Y-129241312D01*
X84380764Y-129245538D01*
X84316346Y-129246268D01*
X84258818Y-129243429D01*
X84216834Y-129236947D01*
X84213617Y-129236033D01*
X84175199Y-129223125D01*
X84142900Y-129208294D01*
X84116260Y-129189392D01*
X84094819Y-129164271D01*
X84078115Y-129130781D01*
X84065687Y-129086774D01*
X84057075Y-129030100D01*
X84051817Y-128958611D01*
X84049452Y-128870159D01*
X84049521Y-128762594D01*
X84050870Y-128677379D01*
X84343253Y-128677379D01*
X84343708Y-128756525D01*
X84347165Y-128824285D01*
X84351159Y-128858878D01*
X84364320Y-128922023D01*
X84381850Y-128962905D01*
X84406369Y-128984601D01*
X84440496Y-128990189D01*
X84461113Y-128988045D01*
X84505211Y-128976810D01*
X84545754Y-128960097D01*
X84549735Y-128957878D01*
X84582411Y-128935116D01*
X84606256Y-128907888D01*
X84622562Y-128872039D01*
X84632619Y-128823413D01*
X84637718Y-128757857D01*
X84639149Y-128671214D01*
X84639150Y-128670050D01*
X84638852Y-128598327D01*
X84637480Y-128546673D01*
X84634310Y-128509758D01*
X84628621Y-128482251D01*
X84619692Y-128458824D01*
X84607331Y-128435100D01*
X84563471Y-128379555D01*
X84506177Y-128345490D01*
X84436512Y-128333530D01*
X84434282Y-128333519D01*
X84402681Y-128334695D01*
X84385253Y-128342545D01*
X84374769Y-128363508D01*
X84366582Y-128393825D01*
X84357464Y-128445069D01*
X84350375Y-128514306D01*
X84345556Y-128594191D01*
X84343253Y-128677379D01*
X84050870Y-128677379D01*
X84051561Y-128633767D01*
X84054763Y-128495427D01*
X84064172Y-128119068D01*
X84129411Y-128110975D01*
X84163326Y-128108240D01*
X84217123Y-128105649D01*
X84285283Y-128103392D01*
X84362289Y-128101654D01*
X84431626Y-128100716D01*
X84521415Y-128100066D01*
X84590036Y-128101034D01*
X84590036Y-128101034D01*
G37*
X84590036Y-128101034D02*
X84641723Y-128105208D01*
X84680709Y-128114173D01*
X84711228Y-128129516D01*
X84737511Y-128152823D01*
X84763792Y-128185682D01*
X84794305Y-128229678D01*
X84800659Y-128239030D01*
X84872223Y-128362562D01*
X84919805Y-128486791D01*
X84943077Y-128610378D01*
X84941710Y-128731988D01*
X84933814Y-128781640D01*
X84901873Y-128898926D01*
X84857845Y-128995174D01*
X84800877Y-129072127D01*
X84782958Y-129090017D01*
X84709681Y-129145586D01*
X84620668Y-129192649D01*
X84525291Y-129226520D01*
X84495649Y-129233661D01*
X84443416Y-129241312D01*
X84380764Y-129245538D01*
X84316346Y-129246268D01*
X84258818Y-129243429D01*
X84216834Y-129236947D01*
X84213617Y-129236033D01*
X84175199Y-129223125D01*
X84142900Y-129208294D01*
X84116260Y-129189392D01*
X84094819Y-129164271D01*
X84078115Y-129130781D01*
X84065687Y-129086774D01*
X84057075Y-129030100D01*
X84051817Y-128958611D01*
X84049452Y-128870159D01*
X84049521Y-128762594D01*
X84050870Y-128677379D01*
X84343253Y-128677379D01*
X84343708Y-128756525D01*
X84347165Y-128824285D01*
X84351159Y-128858878D01*
X84364320Y-128922023D01*
X84381850Y-128962905D01*
X84406369Y-128984601D01*
X84440496Y-128990189D01*
X84461113Y-128988045D01*
X84505211Y-128976810D01*
X84545754Y-128960097D01*
X84549735Y-128957878D01*
X84582411Y-128935116D01*
X84606256Y-128907888D01*
X84622562Y-128872039D01*
X84632619Y-128823413D01*
X84637718Y-128757857D01*
X84639149Y-128671214D01*
X84639150Y-128670050D01*
X84638852Y-128598327D01*
X84637480Y-128546673D01*
X84634310Y-128509758D01*
X84628621Y-128482251D01*
X84619692Y-128458824D01*
X84607331Y-128435100D01*
X84563471Y-128379555D01*
X84506177Y-128345490D01*
X84436512Y-128333530D01*
X84434282Y-128333519D01*
X84402681Y-128334695D01*
X84385253Y-128342545D01*
X84374769Y-128363508D01*
X84366582Y-128393825D01*
X84357464Y-128445069D01*
X84350375Y-128514306D01*
X84345556Y-128594191D01*
X84343253Y-128677379D01*
X84050870Y-128677379D01*
X84051561Y-128633767D01*
X84054763Y-128495427D01*
X84064172Y-128119068D01*
X84129411Y-128110975D01*
X84163326Y-128108240D01*
X84217123Y-128105649D01*
X84285283Y-128103392D01*
X84362289Y-128101654D01*
X84431626Y-128100716D01*
X84521415Y-128100066D01*
X84590036Y-128101034D01*
G36*
X85874827Y-128099154D02*
X85969497Y-128131335D01*
X86050413Y-128184765D01*
X86117391Y-128259277D01*
X86170249Y-128354701D01*
X86208804Y-128470870D01*
X86215688Y-128500781D01*
X86227815Y-128590813D01*
X86229443Y-128689704D01*
X86221059Y-128787510D01*
X86203147Y-128874286D01*
X86196419Y-128895458D01*
X86150684Y-128995981D01*
X86090327Y-129081919D01*
X86018147Y-129151344D01*
X85936943Y-129202329D01*
X85849515Y-129232946D01*
X85758660Y-129241267D01*
X85703745Y-129234772D01*
X85630158Y-129211943D01*
X85562845Y-129172278D01*
X85521765Y-129138407D01*
X85458149Y-129067136D01*
X85412317Y-128983270D01*
X85383399Y-128884428D01*
X85370525Y-128768226D01*
X85369651Y-128721719D01*
X85369983Y-128712768D01*
X85625414Y-128712768D01*
X85635422Y-128795190D01*
X85657320Y-128860708D01*
X85691852Y-128912455D01*
X85700441Y-128921529D01*
X85732417Y-128950606D01*
X85758150Y-128964214D01*
X85787196Y-128966770D01*
X85796929Y-128966132D01*
X85835677Y-128957188D01*
X85863508Y-128933415D01*
X85872311Y-128921230D01*
X85898035Y-128865991D01*
X85915930Y-128790827D01*
X85925296Y-128700188D01*
X85925437Y-128598528D01*
X85924822Y-128586184D01*
X85915555Y-128493987D01*
X85898678Y-128425196D01*
X85873347Y-128378734D01*
X85838716Y-128353526D01*
X85793939Y-128348494D01*
X85746748Y-128359455D01*
X85700573Y-128385618D01*
X85666189Y-128429179D01*
X85642669Y-128492076D01*
X85629086Y-128576241D01*
X85626552Y-128610306D01*
X85625414Y-128712768D01*
X85369983Y-128712768D01*
X85375198Y-128572307D01*
X85391477Y-128445002D01*
X85418894Y-128338703D01*
X85457852Y-128252311D01*
X85508757Y-128184727D01*
X85572015Y-128134850D01*
X85589416Y-128125220D01*
X85630355Y-128106032D01*
X85666808Y-128094870D01*
X85708679Y-128089676D01*
X85765876Y-128088390D01*
X85766585Y-128088389D01*
X85874827Y-128099154D01*
X85874827Y-128099154D01*
G37*
X85874827Y-128099154D02*
X85969497Y-128131335D01*
X86050413Y-128184765D01*
X86117391Y-128259277D01*
X86170249Y-128354701D01*
X86208804Y-128470870D01*
X86215688Y-128500781D01*
X86227815Y-128590813D01*
X86229443Y-128689704D01*
X86221059Y-128787510D01*
X86203147Y-128874286D01*
X86196419Y-128895458D01*
X86150684Y-128995981D01*
X86090327Y-129081919D01*
X86018147Y-129151344D01*
X85936943Y-129202329D01*
X85849515Y-129232946D01*
X85758660Y-129241267D01*
X85703745Y-129234772D01*
X85630158Y-129211943D01*
X85562845Y-129172278D01*
X85521765Y-129138407D01*
X85458149Y-129067136D01*
X85412317Y-128983270D01*
X85383399Y-128884428D01*
X85370525Y-128768226D01*
X85369651Y-128721719D01*
X85369983Y-128712768D01*
X85625414Y-128712768D01*
X85635422Y-128795190D01*
X85657320Y-128860708D01*
X85691852Y-128912455D01*
X85700441Y-128921529D01*
X85732417Y-128950606D01*
X85758150Y-128964214D01*
X85787196Y-128966770D01*
X85796929Y-128966132D01*
X85835677Y-128957188D01*
X85863508Y-128933415D01*
X85872311Y-128921230D01*
X85898035Y-128865991D01*
X85915930Y-128790827D01*
X85925296Y-128700188D01*
X85925437Y-128598528D01*
X85924822Y-128586184D01*
X85915555Y-128493987D01*
X85898678Y-128425196D01*
X85873347Y-128378734D01*
X85838716Y-128353526D01*
X85793939Y-128348494D01*
X85746748Y-128359455D01*
X85700573Y-128385618D01*
X85666189Y-128429179D01*
X85642669Y-128492076D01*
X85629086Y-128576241D01*
X85626552Y-128610306D01*
X85625414Y-128712768D01*
X85369983Y-128712768D01*
X85375198Y-128572307D01*
X85391477Y-128445002D01*
X85418894Y-128338703D01*
X85457852Y-128252311D01*
X85508757Y-128184727D01*
X85572015Y-128134850D01*
X85589416Y-128125220D01*
X85630355Y-128106032D01*
X85666808Y-128094870D01*
X85708679Y-128089676D01*
X85765876Y-128088390D01*
X85766585Y-128088389D01*
X85874827Y-128099154D01*
G36*
X93430984Y-128094836D02*
X93474776Y-128098761D01*
X93504309Y-128106029D01*
X93522359Y-128117207D01*
X93531707Y-128132861D01*
X93535132Y-128153560D01*
X93535500Y-128168692D01*
X93528737Y-128212804D01*
X93506965Y-128247583D01*
X93467960Y-128274273D01*
X93409496Y-128294117D01*
X93329349Y-128308359D01*
X93275150Y-128314262D01*
X93181663Y-128324758D01*
X93110951Y-128337803D01*
X93060414Y-128354806D01*
X93027451Y-128377174D01*
X93009464Y-128406316D01*
X93003853Y-128443641D01*
X93004471Y-128460904D01*
X93009664Y-128496413D01*
X93021574Y-128522946D01*
X93043614Y-128542094D01*
X93079203Y-128555446D01*
X93131756Y-128564594D01*
X93204690Y-128571127D01*
X93246873Y-128573741D01*
X93331953Y-128579806D01*
X93394734Y-128587713D01*
X93438305Y-128598632D01*
X93465759Y-128613732D01*
X93480186Y-128634181D01*
X93484677Y-128661149D01*
X93484700Y-128663700D01*
X93480889Y-128691257D01*
X93467399Y-128712200D01*
X93441136Y-128727696D01*
X93399010Y-128738915D01*
X93337930Y-128747027D01*
X93254806Y-128753199D01*
X93246873Y-128753658D01*
X93162557Y-128759729D01*
X93100291Y-128767886D01*
X93056732Y-128779514D01*
X93028539Y-128795995D01*
X93012372Y-128818712D01*
X93004889Y-128849048D01*
X93004339Y-128854037D01*
X93002676Y-128896871D01*
X93009041Y-128929817D01*
X93026225Y-128954320D01*
X93057013Y-128971820D01*
X93104195Y-128983760D01*
X93170559Y-128991582D01*
X93258892Y-128996729D01*
X93282020Y-128997663D01*
X93369498Y-129001860D01*
X93434686Y-129007485D01*
X93480691Y-129015522D01*
X93510620Y-129026957D01*
X93527579Y-129042773D01*
X93534675Y-129063955D01*
X93535500Y-129077993D01*
X93527423Y-129117530D01*
X93501428Y-129149714D01*
X93454863Y-129176866D01*
X93399666Y-129196943D01*
X93360046Y-129206793D01*
X93305395Y-129217279D01*
X93242544Y-129227443D01*
X93178321Y-129236330D01*
X93119558Y-129242981D01*
X93073083Y-129246441D01*
X93048379Y-129246162D01*
X93028645Y-129243808D01*
X92992416Y-129239491D01*
X92957650Y-129235350D01*
X92906719Y-129226784D01*
X92858182Y-129214589D01*
X92834581Y-129206302D01*
X92801142Y-129187316D01*
X92783790Y-129161044D01*
X92777431Y-129137739D01*
X92774092Y-129108010D01*
X92771547Y-129056689D01*
X92769789Y-128987569D01*
X92768809Y-128904444D01*
X92768600Y-128811109D01*
X92769154Y-128711358D01*
X92770463Y-128608986D01*
X92772521Y-128507786D01*
X92775318Y-128411553D01*
X92778849Y-128324081D01*
X92779088Y-128319092D01*
X92788736Y-128120535D01*
X92847793Y-128113031D01*
X92878016Y-128110435D01*
X92928914Y-128107445D01*
X92995769Y-128104278D01*
X93073863Y-128101152D01*
X93158478Y-128098284D01*
X93186250Y-128097454D01*
X93289499Y-128094750D01*
X93370151Y-128093688D01*
X93430984Y-128094836D01*
X93430984Y-128094836D01*
G37*
X93430984Y-128094836D02*
X93474776Y-128098761D01*
X93504309Y-128106029D01*
X93522359Y-128117207D01*
X93531707Y-128132861D01*
X93535132Y-128153560D01*
X93535500Y-128168692D01*
X93528737Y-128212804D01*
X93506965Y-128247583D01*
X93467960Y-128274273D01*
X93409496Y-128294117D01*
X93329349Y-128308359D01*
X93275150Y-128314262D01*
X93181663Y-128324758D01*
X93110951Y-128337803D01*
X93060414Y-128354806D01*
X93027451Y-128377174D01*
X93009464Y-128406316D01*
X93003853Y-128443641D01*
X93004471Y-128460904D01*
X93009664Y-128496413D01*
X93021574Y-128522946D01*
X93043614Y-128542094D01*
X93079203Y-128555446D01*
X93131756Y-128564594D01*
X93204690Y-128571127D01*
X93246873Y-128573741D01*
X93331953Y-128579806D01*
X93394734Y-128587713D01*
X93438305Y-128598632D01*
X93465759Y-128613732D01*
X93480186Y-128634181D01*
X93484677Y-128661149D01*
X93484700Y-128663700D01*
X93480889Y-128691257D01*
X93467399Y-128712200D01*
X93441136Y-128727696D01*
X93399010Y-128738915D01*
X93337930Y-128747027D01*
X93254806Y-128753199D01*
X93246873Y-128753658D01*
X93162557Y-128759729D01*
X93100291Y-128767886D01*
X93056732Y-128779514D01*
X93028539Y-128795995D01*
X93012372Y-128818712D01*
X93004889Y-128849048D01*
X93004339Y-128854037D01*
X93002676Y-128896871D01*
X93009041Y-128929817D01*
X93026225Y-128954320D01*
X93057013Y-128971820D01*
X93104195Y-128983760D01*
X93170559Y-128991582D01*
X93258892Y-128996729D01*
X93282020Y-128997663D01*
X93369498Y-129001860D01*
X93434686Y-129007485D01*
X93480691Y-129015522D01*
X93510620Y-129026957D01*
X93527579Y-129042773D01*
X93534675Y-129063955D01*
X93535500Y-129077993D01*
X93527423Y-129117530D01*
X93501428Y-129149714D01*
X93454863Y-129176866D01*
X93399666Y-129196943D01*
X93360046Y-129206793D01*
X93305395Y-129217279D01*
X93242544Y-129227443D01*
X93178321Y-129236330D01*
X93119558Y-129242981D01*
X93073083Y-129246441D01*
X93048379Y-129246162D01*
X93028645Y-129243808D01*
X92992416Y-129239491D01*
X92957650Y-129235350D01*
X92906719Y-129226784D01*
X92858182Y-129214589D01*
X92834581Y-129206302D01*
X92801142Y-129187316D01*
X92783790Y-129161044D01*
X92777431Y-129137739D01*
X92774092Y-129108010D01*
X92771547Y-129056689D01*
X92769789Y-128987569D01*
X92768809Y-128904444D01*
X92768600Y-128811109D01*
X92769154Y-128711358D01*
X92770463Y-128608986D01*
X92772521Y-128507786D01*
X92775318Y-128411553D01*
X92778849Y-128324081D01*
X92779088Y-128319092D01*
X92788736Y-128120535D01*
X92847793Y-128113031D01*
X92878016Y-128110435D01*
X92928914Y-128107445D01*
X92995769Y-128104278D01*
X93073863Y-128101152D01*
X93158478Y-128098284D01*
X93186250Y-128097454D01*
X93289499Y-128094750D01*
X93370151Y-128093688D01*
X93430984Y-128094836D01*
G36*
X95680395Y-128116155D02*
X95721241Y-128150160D01*
X95764752Y-128207271D01*
X95811120Y-128287843D01*
X95860535Y-128392234D01*
X95913187Y-128520798D01*
X95969269Y-128673893D01*
X96008323Y-128788758D01*
X96045950Y-128906261D01*
X96073488Y-129002349D01*
X96090965Y-129078907D01*
X96098408Y-129137821D01*
X96095844Y-129180975D01*
X96083299Y-129210254D01*
X96060801Y-129227542D01*
X96028376Y-129234724D01*
X96014710Y-129235200D01*
X95984250Y-129231107D01*
X95956185Y-129215782D01*
X95922497Y-129184655D01*
X95918253Y-129180228D01*
X95884873Y-129143379D01*
X95855307Y-129107771D01*
X95842026Y-129089863D01*
X95801292Y-129050567D01*
X95741869Y-129021717D01*
X95669041Y-129005368D01*
X95617038Y-129002417D01*
X95543086Y-129009314D01*
X95488334Y-129030041D01*
X95449762Y-129066118D01*
X95433496Y-129094941D01*
X95410541Y-129144964D01*
X95393621Y-129177209D01*
X95379118Y-129197392D01*
X95363412Y-129211228D01*
X95357171Y-129215492D01*
X95305668Y-129238335D01*
X95256524Y-129239968D01*
X95240854Y-129235218D01*
X95215744Y-129214558D01*
X95202987Y-129176911D01*
X95202002Y-129119851D01*
X95205266Y-129087024D01*
X95217810Y-129016485D01*
X95239342Y-128928074D01*
X95268152Y-128826958D01*
X95302535Y-128718305D01*
X95309269Y-128698754D01*
X95592900Y-128698754D01*
X95603371Y-128731116D01*
X95632378Y-128748389D01*
X95662687Y-128749997D01*
X95690910Y-128742743D01*
X95702830Y-128723084D01*
X95705059Y-128709342D01*
X95703051Y-128679411D01*
X95693686Y-128642701D01*
X95680080Y-128607547D01*
X95665354Y-128582286D01*
X95654729Y-128574800D01*
X95642401Y-128585405D01*
X95625899Y-128611656D01*
X95609388Y-128645205D01*
X95597031Y-128677707D01*
X95592900Y-128698754D01*
X95309269Y-128698754D01*
X95340780Y-128607281D01*
X95381182Y-128499053D01*
X95422031Y-128398788D01*
X95461404Y-128312096D01*
X95500877Y-128240046D01*
X95542422Y-128180216D01*
X95583234Y-128135825D01*
X95620503Y-128110095D01*
X95642023Y-128104900D01*
X95680395Y-128116155D01*
X95680395Y-128116155D01*
G37*
X95680395Y-128116155D02*
X95721241Y-128150160D01*
X95764752Y-128207271D01*
X95811120Y-128287843D01*
X95860535Y-128392234D01*
X95913187Y-128520798D01*
X95969269Y-128673893D01*
X96008323Y-128788758D01*
X96045950Y-128906261D01*
X96073488Y-129002349D01*
X96090965Y-129078907D01*
X96098408Y-129137821D01*
X96095844Y-129180975D01*
X96083299Y-129210254D01*
X96060801Y-129227542D01*
X96028376Y-129234724D01*
X96014710Y-129235200D01*
X95984250Y-129231107D01*
X95956185Y-129215782D01*
X95922497Y-129184655D01*
X95918253Y-129180228D01*
X95884873Y-129143379D01*
X95855307Y-129107771D01*
X95842026Y-129089863D01*
X95801292Y-129050567D01*
X95741869Y-129021717D01*
X95669041Y-129005368D01*
X95617038Y-129002417D01*
X95543086Y-129009314D01*
X95488334Y-129030041D01*
X95449762Y-129066118D01*
X95433496Y-129094941D01*
X95410541Y-129144964D01*
X95393621Y-129177209D01*
X95379118Y-129197392D01*
X95363412Y-129211228D01*
X95357171Y-129215492D01*
X95305668Y-129238335D01*
X95256524Y-129239968D01*
X95240854Y-129235218D01*
X95215744Y-129214558D01*
X95202987Y-129176911D01*
X95202002Y-129119851D01*
X95205266Y-129087024D01*
X95217810Y-129016485D01*
X95239342Y-128928074D01*
X95268152Y-128826958D01*
X95302535Y-128718305D01*
X95309269Y-128698754D01*
X95592900Y-128698754D01*
X95603371Y-128731116D01*
X95632378Y-128748389D01*
X95662687Y-128749997D01*
X95690910Y-128742743D01*
X95702830Y-128723084D01*
X95705059Y-128709342D01*
X95703051Y-128679411D01*
X95693686Y-128642701D01*
X95680080Y-128607547D01*
X95665354Y-128582286D01*
X95654729Y-128574800D01*
X95642401Y-128585405D01*
X95625899Y-128611656D01*
X95609388Y-128645205D01*
X95597031Y-128677707D01*
X95592900Y-128698754D01*
X95309269Y-128698754D01*
X95340780Y-128607281D01*
X95381182Y-128499053D01*
X95422031Y-128398788D01*
X95461404Y-128312096D01*
X95500877Y-128240046D01*
X95542422Y-128180216D01*
X95583234Y-128135825D01*
X95620503Y-128110095D01*
X95642023Y-128104900D01*
X95680395Y-128116155D01*
G36*
X97655080Y-128095973D02*
X97726961Y-128111403D01*
X97802719Y-128149592D01*
X97867595Y-128208921D01*
X97920334Y-128287023D01*
X97959683Y-128381536D01*
X97984388Y-128490092D01*
X97993194Y-128610328D01*
X97993200Y-128613536D01*
X97985511Y-128730375D01*
X97963578Y-128840458D01*
X97929099Y-128941600D01*
X97883775Y-129031616D01*
X97829305Y-129108320D01*
X97767387Y-129169527D01*
X97699722Y-129213052D01*
X97628009Y-129236710D01*
X97553946Y-129238315D01*
X97514232Y-129229449D01*
X97438725Y-129198539D01*
X97362310Y-129154494D01*
X97291641Y-129102162D01*
X97233375Y-129046387D01*
X97198246Y-128999341D01*
X97177954Y-128949259D01*
X97162338Y-128879703D01*
X97151594Y-128796199D01*
X97146879Y-128719801D01*
X97429846Y-128719801D01*
X97436781Y-128786976D01*
X97438080Y-128793501D01*
X97458733Y-128846923D01*
X97493489Y-128893487D01*
X97536477Y-128927217D01*
X97581828Y-128942139D01*
X97584255Y-128942294D01*
X97606241Y-128937348D01*
X97637185Y-128924250D01*
X97639346Y-128923146D01*
X97675198Y-128892216D01*
X97707968Y-128837519D01*
X97710090Y-128832950D01*
X97726556Y-128793469D01*
X97735483Y-128759057D01*
X97738333Y-128719978D01*
X97736565Y-128666497D01*
X97736146Y-128659228D01*
X97723570Y-128563409D01*
X97698774Y-128475644D01*
X97663880Y-128402374D01*
X97641264Y-128370723D01*
X97604485Y-128340438D01*
X97567123Y-128334489D01*
X97530646Y-128351898D01*
X97496520Y-128391683D01*
X97466214Y-128452866D01*
X97450955Y-128497802D01*
X97437440Y-128563582D01*
X97430235Y-128641459D01*
X97429846Y-128719801D01*
X97146879Y-128719801D01*
X97145920Y-128704275D01*
X97145514Y-128609458D01*
X97150572Y-128517277D01*
X97161291Y-128433258D01*
X97175777Y-128369743D01*
X97204582Y-128307855D01*
X97251838Y-128245076D01*
X97311659Y-128187777D01*
X97378157Y-128142328D01*
X97393148Y-128134528D01*
X97473398Y-128106656D01*
X97564127Y-128093568D01*
X97655080Y-128095973D01*
X97655080Y-128095973D01*
G37*
X97655080Y-128095973D02*
X97726961Y-128111403D01*
X97802719Y-128149592D01*
X97867595Y-128208921D01*
X97920334Y-128287023D01*
X97959683Y-128381536D01*
X97984388Y-128490092D01*
X97993194Y-128610328D01*
X97993200Y-128613536D01*
X97985511Y-128730375D01*
X97963578Y-128840458D01*
X97929099Y-128941600D01*
X97883775Y-129031616D01*
X97829305Y-129108320D01*
X97767387Y-129169527D01*
X97699722Y-129213052D01*
X97628009Y-129236710D01*
X97553946Y-129238315D01*
X97514232Y-129229449D01*
X97438725Y-129198539D01*
X97362310Y-129154494D01*
X97291641Y-129102162D01*
X97233375Y-129046387D01*
X97198246Y-128999341D01*
X97177954Y-128949259D01*
X97162338Y-128879703D01*
X97151594Y-128796199D01*
X97146879Y-128719801D01*
X97429846Y-128719801D01*
X97436781Y-128786976D01*
X97438080Y-128793501D01*
X97458733Y-128846923D01*
X97493489Y-128893487D01*
X97536477Y-128927217D01*
X97581828Y-128942139D01*
X97584255Y-128942294D01*
X97606241Y-128937348D01*
X97637185Y-128924250D01*
X97639346Y-128923146D01*
X97675198Y-128892216D01*
X97707968Y-128837519D01*
X97710090Y-128832950D01*
X97726556Y-128793469D01*
X97735483Y-128759057D01*
X97738333Y-128719978D01*
X97736565Y-128666497D01*
X97736146Y-128659228D01*
X97723570Y-128563409D01*
X97698774Y-128475644D01*
X97663880Y-128402374D01*
X97641264Y-128370723D01*
X97604485Y-128340438D01*
X97567123Y-128334489D01*
X97530646Y-128351898D01*
X97496520Y-128391683D01*
X97466214Y-128452866D01*
X97450955Y-128497802D01*
X97437440Y-128563582D01*
X97430235Y-128641459D01*
X97429846Y-128719801D01*
X97146879Y-128719801D01*
X97145920Y-128704275D01*
X97145514Y-128609458D01*
X97150572Y-128517277D01*
X97161291Y-128433258D01*
X97175777Y-128369743D01*
X97204582Y-128307855D01*
X97251838Y-128245076D01*
X97311659Y-128187777D01*
X97378157Y-128142328D01*
X97393148Y-128134528D01*
X97473398Y-128106656D01*
X97564127Y-128093568D01*
X97655080Y-128095973D01*
G36*
X100066475Y-128083112D02*
X100195022Y-128089745D01*
X100301115Y-128101561D01*
X100387406Y-128119900D01*
X100456547Y-128146098D01*
X100511190Y-128181493D01*
X100553988Y-128227424D01*
X100587593Y-128285228D01*
X100614658Y-128356242D01*
X100615909Y-128360232D01*
X100626588Y-128409282D01*
X100635180Y-128477137D01*
X100641436Y-128557264D01*
X100645110Y-128643136D01*
X100645955Y-128728223D01*
X100643725Y-128805994D01*
X100638173Y-128869921D01*
X100635761Y-128885778D01*
X100608754Y-128985278D01*
X100565374Y-129065794D01*
X100504974Y-129128287D01*
X100449019Y-129163455D01*
X100382753Y-129189901D01*
X100300940Y-129212111D01*
X100210825Y-129229078D01*
X100119655Y-129239794D01*
X100034677Y-129243253D01*
X99963136Y-129238446D01*
X99940593Y-129234149D01*
X99904213Y-129222343D01*
X99877920Y-129208379D01*
X99873521Y-129204319D01*
X99863629Y-129182680D01*
X99855306Y-129142820D01*
X99848489Y-129083664D01*
X99843118Y-129004133D01*
X99839130Y-128903150D01*
X99836465Y-128779639D01*
X99835903Y-128720673D01*
X100077458Y-128720673D01*
X100081658Y-128811152D01*
X100091202Y-128881703D01*
X100106434Y-128934845D01*
X100127701Y-128973101D01*
X100128461Y-128974078D01*
X100153289Y-128998820D01*
X100179726Y-129005353D01*
X100217191Y-128995726D01*
X100221125Y-128994251D01*
X100257975Y-128972906D01*
X100301496Y-128937160D01*
X100344553Y-128893935D01*
X100380011Y-128850150D01*
X100395271Y-128825327D01*
X100420909Y-128753369D01*
X100429204Y-128676886D01*
X100421924Y-128599742D01*
X100400840Y-128525798D01*
X100367720Y-128458916D01*
X100324335Y-128402959D01*
X100272453Y-128361789D01*
X100213844Y-128339268D01*
X100171344Y-128336557D01*
X100142188Y-128341005D01*
X100120119Y-128352169D01*
X100104048Y-128373225D01*
X100092886Y-128407347D01*
X100085544Y-128457709D01*
X100080930Y-128527486D01*
X100078256Y-128607745D01*
X100077458Y-128720673D01*
X99835903Y-128720673D01*
X99835061Y-128632522D01*
X99834796Y-128525285D01*
X99834700Y-128075720D01*
X100066475Y-128083112D01*
X100066475Y-128083112D01*
G37*
X100066475Y-128083112D02*
X100195022Y-128089745D01*
X100301115Y-128101561D01*
X100387406Y-128119900D01*
X100456547Y-128146098D01*
X100511190Y-128181493D01*
X100553988Y-128227424D01*
X100587593Y-128285228D01*
X100614658Y-128356242D01*
X100615909Y-128360232D01*
X100626588Y-128409282D01*
X100635180Y-128477137D01*
X100641436Y-128557264D01*
X100645110Y-128643136D01*
X100645955Y-128728223D01*
X100643725Y-128805994D01*
X100638173Y-128869921D01*
X100635761Y-128885778D01*
X100608754Y-128985278D01*
X100565374Y-129065794D01*
X100504974Y-129128287D01*
X100449019Y-129163455D01*
X100382753Y-129189901D01*
X100300940Y-129212111D01*
X100210825Y-129229078D01*
X100119655Y-129239794D01*
X100034677Y-129243253D01*
X99963136Y-129238446D01*
X99940593Y-129234149D01*
X99904213Y-129222343D01*
X99877920Y-129208379D01*
X99873521Y-129204319D01*
X99863629Y-129182680D01*
X99855306Y-129142820D01*
X99848489Y-129083664D01*
X99843118Y-129004133D01*
X99839130Y-128903150D01*
X99836465Y-128779639D01*
X99835903Y-128720673D01*
X100077458Y-128720673D01*
X100081658Y-128811152D01*
X100091202Y-128881703D01*
X100106434Y-128934845D01*
X100127701Y-128973101D01*
X100128461Y-128974078D01*
X100153289Y-128998820D01*
X100179726Y-129005353D01*
X100217191Y-128995726D01*
X100221125Y-128994251D01*
X100257975Y-128972906D01*
X100301496Y-128937160D01*
X100344553Y-128893935D01*
X100380011Y-128850150D01*
X100395271Y-128825327D01*
X100420909Y-128753369D01*
X100429204Y-128676886D01*
X100421924Y-128599742D01*
X100400840Y-128525798D01*
X100367720Y-128458916D01*
X100324335Y-128402959D01*
X100272453Y-128361789D01*
X100213844Y-128339268D01*
X100171344Y-128336557D01*
X100142188Y-128341005D01*
X100120119Y-128352169D01*
X100104048Y-128373225D01*
X100092886Y-128407347D01*
X100085544Y-128457709D01*
X100080930Y-128527486D01*
X100078256Y-128607745D01*
X100077458Y-128720673D01*
X99835903Y-128720673D01*
X99835061Y-128632522D01*
X99834796Y-128525285D01*
X99834700Y-128075720D01*
X100066475Y-128083112D01*
G36*
X102664774Y-128609725D02*
X102663509Y-128735257D01*
X102662245Y-128837997D01*
X102660841Y-128920555D01*
X102659151Y-128985538D01*
X102657033Y-129035554D01*
X102654341Y-129073212D01*
X102650934Y-129101119D01*
X102646666Y-129121885D01*
X102641395Y-129138117D01*
X102634977Y-129152423D01*
X102634865Y-129152650D01*
X102617130Y-129184021D01*
X102598347Y-129199606D01*
X102568472Y-129205871D01*
X102549993Y-129207293D01*
X102500501Y-129204380D01*
X102465736Y-129185933D01*
X102441950Y-129148623D01*
X102427276Y-129098249D01*
X102421337Y-129060600D01*
X102414299Y-128998148D01*
X102406211Y-128911462D01*
X102397119Y-128801113D01*
X102387071Y-128667671D01*
X102376116Y-128511707D01*
X102367758Y-128386778D01*
X102363856Y-128333152D01*
X102360059Y-128290960D01*
X102356870Y-128265271D01*
X102355187Y-128259879D01*
X102350405Y-128272538D01*
X102338941Y-128306211D01*
X102321845Y-128357714D01*
X102300166Y-128423865D01*
X102274952Y-128501482D01*
X102247252Y-128587383D01*
X102247182Y-128587601D01*
X102200572Y-128730211D01*
X102159640Y-128849955D01*
X102123681Y-128948552D01*
X102091990Y-129027721D01*
X102063864Y-129089181D01*
X102038597Y-129134651D01*
X102015485Y-129165849D01*
X102006514Y-129174875D01*
X101960264Y-129204295D01*
X101914881Y-129208650D01*
X101870889Y-129188275D01*
X101828816Y-129143500D01*
X101789185Y-129074661D01*
X101767314Y-129023286D01*
X101751667Y-128979939D01*
X101730534Y-128917513D01*
X101705633Y-128841289D01*
X101678678Y-128756546D01*
X101651385Y-128668564D01*
X101642007Y-128637770D01*
X101556704Y-128356217D01*
X101327527Y-128361278D01*
X101231397Y-128364103D01*
X101157438Y-128368419D01*
X101102429Y-128375163D01*
X101063146Y-128385271D01*
X101036368Y-128399678D01*
X101018871Y-128419321D01*
X101007433Y-128445135D01*
X101004453Y-128455117D01*
X100997039Y-128490845D01*
X100998980Y-128517980D01*
X101013007Y-128537947D01*
X101041848Y-128552170D01*
X101088234Y-128562072D01*
X101154894Y-128569078D01*
X101232248Y-128573966D01*
X101317860Y-128579740D01*
X101381165Y-128587371D01*
X101425242Y-128598009D01*
X101453176Y-128612802D01*
X101468046Y-128632898D01*
X101472936Y-128659447D01*
X101473000Y-128663700D01*
X101469011Y-128691762D01*
X101454990Y-128712987D01*
X101427847Y-128728554D01*
X101384498Y-128739643D01*
X101321856Y-128747434D01*
X101239491Y-128752970D01*
X101153902Y-128758863D01*
X101090334Y-128766870D01*
X101045445Y-128777765D01*
X101015891Y-128792325D01*
X101000119Y-128808476D01*
X100994434Y-128828903D01*
X100991016Y-128864052D01*
X100990594Y-128880806D01*
X100991825Y-128915107D01*
X100997910Y-128941017D01*
X101012049Y-128959940D01*
X101037443Y-128973280D01*
X101077290Y-128982439D01*
X101134792Y-128988821D01*
X101213147Y-128993831D01*
X101252890Y-128995855D01*
X101343503Y-129001052D01*
X101411750Y-129007167D01*
X101460669Y-129015153D01*
X101493293Y-129025962D01*
X101512658Y-129040548D01*
X101521800Y-129059863D01*
X101523800Y-129080878D01*
X101511444Y-129122004D01*
X101474635Y-129157647D01*
X101413755Y-129187636D01*
X101329190Y-129211799D01*
X101221325Y-129229964D01*
X101180122Y-129234670D01*
X101124535Y-129240080D01*
X101077899Y-129244070D01*
X101046330Y-129246149D01*
X101036679Y-129246230D01*
X101017268Y-129243977D01*
X100980770Y-129239723D01*
X100938145Y-129234746D01*
X100859770Y-129220258D01*
X100804837Y-129197660D01*
X100772599Y-129166581D01*
X100765158Y-129149244D01*
X100762303Y-129125864D01*
X100760056Y-129080813D01*
X100758408Y-129017810D01*
X100757349Y-128940577D01*
X100756869Y-128852833D01*
X100756960Y-128758300D01*
X100757610Y-128660697D01*
X100758811Y-128563746D01*
X100760552Y-128471166D01*
X100762825Y-128386679D01*
X100765618Y-128314005D01*
X100767427Y-128279525D01*
X100777057Y-128117600D01*
X101261553Y-128117661D01*
X101746050Y-128117722D01*
X101936242Y-128780292D01*
X101956160Y-128712471D01*
X101965435Y-128679572D01*
X101979800Y-128626974D01*
X101997944Y-128559559D01*
X102018555Y-128482207D01*
X102040321Y-128399800D01*
X102045214Y-128381171D01*
X102114350Y-128117693D01*
X102391908Y-128117646D01*
X102669467Y-128117600D01*
X102664774Y-128609725D01*
X102664774Y-128609725D01*
G37*
X102664774Y-128609725D02*
X102663509Y-128735257D01*
X102662245Y-128837997D01*
X102660841Y-128920555D01*
X102659151Y-128985538D01*
X102657033Y-129035554D01*
X102654341Y-129073212D01*
X102650934Y-129101119D01*
X102646666Y-129121885D01*
X102641395Y-129138117D01*
X102634977Y-129152423D01*
X102634865Y-129152650D01*
X102617130Y-129184021D01*
X102598347Y-129199606D01*
X102568472Y-129205871D01*
X102549993Y-129207293D01*
X102500501Y-129204380D01*
X102465736Y-129185933D01*
X102441950Y-129148623D01*
X102427276Y-129098249D01*
X102421337Y-129060600D01*
X102414299Y-128998148D01*
X102406211Y-128911462D01*
X102397119Y-128801113D01*
X102387071Y-128667671D01*
X102376116Y-128511707D01*
X102367758Y-128386778D01*
X102363856Y-128333152D01*
X102360059Y-128290960D01*
X102356870Y-128265271D01*
X102355187Y-128259879D01*
X102350405Y-128272538D01*
X102338941Y-128306211D01*
X102321845Y-128357714D01*
X102300166Y-128423865D01*
X102274952Y-128501482D01*
X102247252Y-128587383D01*
X102247182Y-128587601D01*
X102200572Y-128730211D01*
X102159640Y-128849955D01*
X102123681Y-128948552D01*
X102091990Y-129027721D01*
X102063864Y-129089181D01*
X102038597Y-129134651D01*
X102015485Y-129165849D01*
X102006514Y-129174875D01*
X101960264Y-129204295D01*
X101914881Y-129208650D01*
X101870889Y-129188275D01*
X101828816Y-129143500D01*
X101789185Y-129074661D01*
X101767314Y-129023286D01*
X101751667Y-128979939D01*
X101730534Y-128917513D01*
X101705633Y-128841289D01*
X101678678Y-128756546D01*
X101651385Y-128668564D01*
X101642007Y-128637770D01*
X101556704Y-128356217D01*
X101327527Y-128361278D01*
X101231397Y-128364103D01*
X101157438Y-128368419D01*
X101102429Y-128375163D01*
X101063146Y-128385271D01*
X101036368Y-128399678D01*
X101018871Y-128419321D01*
X101007433Y-128445135D01*
X101004453Y-128455117D01*
X100997039Y-128490845D01*
X100998980Y-128517980D01*
X101013007Y-128537947D01*
X101041848Y-128552170D01*
X101088234Y-128562072D01*
X101154894Y-128569078D01*
X101232248Y-128573966D01*
X101317860Y-128579740D01*
X101381165Y-128587371D01*
X101425242Y-128598009D01*
X101453176Y-128612802D01*
X101468046Y-128632898D01*
X101472936Y-128659447D01*
X101473000Y-128663700D01*
X101469011Y-128691762D01*
X101454990Y-128712987D01*
X101427847Y-128728554D01*
X101384498Y-128739643D01*
X101321856Y-128747434D01*
X101239491Y-128752970D01*
X101153902Y-128758863D01*
X101090334Y-128766870D01*
X101045445Y-128777765D01*
X101015891Y-128792325D01*
X101000119Y-128808476D01*
X100994434Y-128828903D01*
X100991016Y-128864052D01*
X100990594Y-128880806D01*
X100991825Y-128915107D01*
X100997910Y-128941017D01*
X101012049Y-128959940D01*
X101037443Y-128973280D01*
X101077290Y-128982439D01*
X101134792Y-128988821D01*
X101213147Y-128993831D01*
X101252890Y-128995855D01*
X101343503Y-129001052D01*
X101411750Y-129007167D01*
X101460669Y-129015153D01*
X101493293Y-129025962D01*
X101512658Y-129040548D01*
X101521800Y-129059863D01*
X101523800Y-129080878D01*
X101511444Y-129122004D01*
X101474635Y-129157647D01*
X101413755Y-129187636D01*
X101329190Y-129211799D01*
X101221325Y-129229964D01*
X101180122Y-129234670D01*
X101124535Y-129240080D01*
X101077899Y-129244070D01*
X101046330Y-129246149D01*
X101036679Y-129246230D01*
X101017268Y-129243977D01*
X100980770Y-129239723D01*
X100938145Y-129234746D01*
X100859770Y-129220258D01*
X100804837Y-129197660D01*
X100772599Y-129166581D01*
X100765158Y-129149244D01*
X100762303Y-129125864D01*
X100760056Y-129080813D01*
X100758408Y-129017810D01*
X100757349Y-128940577D01*
X100756869Y-128852833D01*
X100756960Y-128758300D01*
X100757610Y-128660697D01*
X100758811Y-128563746D01*
X100760552Y-128471166D01*
X100762825Y-128386679D01*
X100765618Y-128314005D01*
X100767427Y-128279525D01*
X100777057Y-128117600D01*
X101261553Y-128117661D01*
X101746050Y-128117722D01*
X101936242Y-128780292D01*
X101956160Y-128712471D01*
X101965435Y-128679572D01*
X101979800Y-128626974D01*
X101997944Y-128559559D01*
X102018555Y-128482207D01*
X102040321Y-128399800D01*
X102045214Y-128381171D01*
X102114350Y-128117693D01*
X102391908Y-128117646D01*
X102669467Y-128117600D01*
X102664774Y-128609725D01*
G36*
X63635409Y-128090967D02*
X63671570Y-128123359D01*
X63711302Y-128173661D01*
X63752147Y-128238857D01*
X63782772Y-128297231D01*
X63823136Y-128385315D01*
X63864519Y-128484645D01*
X63905405Y-128590730D01*
X63944278Y-128699082D01*
X63979622Y-128805210D01*
X64009921Y-128904624D01*
X64033659Y-128992834D01*
X64049321Y-129065350D01*
X64054443Y-129101850D01*
X64057459Y-129145596D01*
X64054895Y-129172818D01*
X64044682Y-129192146D01*
X64028921Y-129208371D01*
X64003813Y-129228065D01*
X63982364Y-129231089D01*
X63959817Y-129223584D01*
X63932878Y-129206993D01*
X63896593Y-129177683D01*
X63858582Y-129141839D01*
X63856729Y-129139940D01*
X63785422Y-129077139D01*
X63711142Y-129034912D01*
X63626015Y-129008912D01*
X63615735Y-129006872D01*
X63542699Y-129000083D01*
X63487621Y-129011002D01*
X63450073Y-129039814D01*
X63429623Y-129086705D01*
X63429498Y-129087291D01*
X63405230Y-129141849D01*
X63358108Y-129187269D01*
X63315850Y-129211196D01*
X63260544Y-129230385D01*
X63215425Y-129233371D01*
X63185040Y-129219960D01*
X63173221Y-129196121D01*
X63169816Y-129172335D01*
X63174052Y-129134542D01*
X63185958Y-129076676D01*
X63204369Y-129002480D01*
X63228122Y-128915693D01*
X63256054Y-128820059D01*
X63287001Y-128719319D01*
X63297138Y-128687759D01*
X63555512Y-128687759D01*
X63555580Y-128723168D01*
X63575568Y-128745499D01*
X63611138Y-128752600D01*
X63635214Y-128745363D01*
X63654065Y-128720077D01*
X63660462Y-128706011D01*
X63671290Y-128661629D01*
X63666190Y-128627206D01*
X63649323Y-128605925D01*
X63624852Y-128600970D01*
X63596941Y-128615524D01*
X63576060Y-128641475D01*
X63555512Y-128687759D01*
X63297138Y-128687759D01*
X63319798Y-128617214D01*
X63353283Y-128517487D01*
X63386292Y-128423879D01*
X63417661Y-128340131D01*
X63446226Y-128269986D01*
X63460030Y-128239178D01*
X63501324Y-128162931D01*
X63542230Y-128111000D01*
X63582379Y-128083792D01*
X63605279Y-128079500D01*
X63635409Y-128090967D01*
X63635409Y-128090967D01*
G37*
X63635409Y-128090967D02*
X63671570Y-128123359D01*
X63711302Y-128173661D01*
X63752147Y-128238857D01*
X63782772Y-128297231D01*
X63823136Y-128385315D01*
X63864519Y-128484645D01*
X63905405Y-128590730D01*
X63944278Y-128699082D01*
X63979622Y-128805210D01*
X64009921Y-128904624D01*
X64033659Y-128992834D01*
X64049321Y-129065350D01*
X64054443Y-129101850D01*
X64057459Y-129145596D01*
X64054895Y-129172818D01*
X64044682Y-129192146D01*
X64028921Y-129208371D01*
X64003813Y-129228065D01*
X63982364Y-129231089D01*
X63959817Y-129223584D01*
X63932878Y-129206993D01*
X63896593Y-129177683D01*
X63858582Y-129141839D01*
X63856729Y-129139940D01*
X63785422Y-129077139D01*
X63711142Y-129034912D01*
X63626015Y-129008912D01*
X63615735Y-129006872D01*
X63542699Y-129000083D01*
X63487621Y-129011002D01*
X63450073Y-129039814D01*
X63429623Y-129086705D01*
X63429498Y-129087291D01*
X63405230Y-129141849D01*
X63358108Y-129187269D01*
X63315850Y-129211196D01*
X63260544Y-129230385D01*
X63215425Y-129233371D01*
X63185040Y-129219960D01*
X63173221Y-129196121D01*
X63169816Y-129172335D01*
X63174052Y-129134542D01*
X63185958Y-129076676D01*
X63204369Y-129002480D01*
X63228122Y-128915693D01*
X63256054Y-128820059D01*
X63287001Y-128719319D01*
X63297138Y-128687759D01*
X63555512Y-128687759D01*
X63555580Y-128723168D01*
X63575568Y-128745499D01*
X63611138Y-128752600D01*
X63635214Y-128745363D01*
X63654065Y-128720077D01*
X63660462Y-128706011D01*
X63671290Y-128661629D01*
X63666190Y-128627206D01*
X63649323Y-128605925D01*
X63624852Y-128600970D01*
X63596941Y-128615524D01*
X63576060Y-128641475D01*
X63555512Y-128687759D01*
X63297138Y-128687759D01*
X63319798Y-128617214D01*
X63353283Y-128517487D01*
X63386292Y-128423879D01*
X63417661Y-128340131D01*
X63446226Y-128269986D01*
X63460030Y-128239178D01*
X63501324Y-128162931D01*
X63542230Y-128111000D01*
X63582379Y-128083792D01*
X63605279Y-128079500D01*
X63635409Y-128090967D01*
G36*
X64371415Y-128079844D02*
X64508713Y-128081648D01*
X64626130Y-128086517D01*
X64722420Y-128094339D01*
X64796335Y-128105002D01*
X64846626Y-128118395D01*
X64857491Y-128123221D01*
X64887872Y-128146298D01*
X64906953Y-128182141D01*
X64912290Y-128199803D01*
X64925219Y-128236329D01*
X64936572Y-128247682D01*
X64944661Y-128234090D01*
X64947799Y-128195780D01*
X64947800Y-128195018D01*
X64956308Y-128147944D01*
X64974632Y-128122743D01*
X64985885Y-128114302D01*
X65000667Y-128108120D01*
X65022710Y-128103884D01*
X65055741Y-128101278D01*
X65103492Y-128099990D01*
X65169691Y-128099705D01*
X65244507Y-128100024D01*
X65366401Y-128102069D01*
X65465693Y-128106771D01*
X65545069Y-128114421D01*
X65607216Y-128125310D01*
X65654822Y-128139730D01*
X65669414Y-128146079D01*
X65694010Y-128163917D01*
X65702916Y-128191511D01*
X65703450Y-128205959D01*
X65698698Y-128236083D01*
X65682501Y-128259814D01*
X65651945Y-128278493D01*
X65604116Y-128293462D01*
X65536100Y-128306064D01*
X65466243Y-128315220D01*
X65379152Y-128326375D01*
X65314162Y-128337259D01*
X65268004Y-128348770D01*
X65237405Y-128361808D01*
X65219094Y-128377273D01*
X65214402Y-128384482D01*
X65204347Y-128419900D01*
X65202533Y-128464650D01*
X65208620Y-128506566D01*
X65218427Y-128529184D01*
X65246644Y-128548793D01*
X65297452Y-128563163D01*
X65368491Y-128571809D01*
X65436750Y-128574266D01*
X65511993Y-128579950D01*
X65567006Y-128595554D01*
X65570100Y-128597044D01*
X65599941Y-128615542D01*
X65612409Y-128637180D01*
X65614550Y-128663700D01*
X65606137Y-128700544D01*
X65579709Y-128726935D01*
X65533477Y-128743706D01*
X65465653Y-128751691D01*
X65424050Y-128752651D01*
X65339779Y-128756289D01*
X65275573Y-128766774D01*
X65233122Y-128783715D01*
X65216390Y-128800780D01*
X65211230Y-128821787D01*
X65205800Y-128862026D01*
X65200806Y-128915347D01*
X65197508Y-128964973D01*
X65192683Y-129027480D01*
X65185723Y-129084931D01*
X65177658Y-129129951D01*
X65171442Y-129151275D01*
X65141632Y-129196152D01*
X65099260Y-129219169D01*
X65045046Y-129220114D01*
X64991385Y-129203907D01*
X64968551Y-129193089D01*
X64950055Y-129179903D01*
X64935401Y-129161705D01*
X64924097Y-129135850D01*
X64915648Y-129099694D01*
X64909561Y-129050594D01*
X64905342Y-128985904D01*
X64902497Y-128902981D01*
X64900532Y-128799180D01*
X64899401Y-128711325D01*
X64895013Y-128333500D01*
X64698748Y-128333500D01*
X64606035Y-128334498D01*
X64535520Y-128338034D01*
X64484060Y-128344920D01*
X64448511Y-128355968D01*
X64425730Y-128371990D01*
X64412574Y-128393797D01*
X64408308Y-128408522D01*
X64404953Y-128463057D01*
X64417889Y-128510540D01*
X64445009Y-128543448D01*
X64446303Y-128544318D01*
X64476227Y-128555392D01*
X64528742Y-128565099D01*
X64601055Y-128572952D01*
X64618174Y-128574296D01*
X64700654Y-128582890D01*
X64760623Y-128595366D01*
X64800813Y-128612776D01*
X64823958Y-128636173D01*
X64831438Y-128656465D01*
X64829136Y-128684917D01*
X64808941Y-128709359D01*
X64769050Y-128730711D01*
X64707659Y-128749886D01*
X64622967Y-128767803D01*
X64606789Y-128770674D01*
X64541242Y-128784090D01*
X64494117Y-128800872D01*
X64461193Y-128825499D01*
X64438247Y-128862448D01*
X64421059Y-128916195D01*
X64407045Y-128982513D01*
X64387952Y-129069190D01*
X64367279Y-129133798D01*
X64343693Y-129179664D01*
X64315963Y-129210037D01*
X64275733Y-129232134D01*
X64239518Y-129230335D01*
X64220069Y-129219325D01*
X64208972Y-129207510D01*
X64199573Y-129188493D01*
X64191690Y-129160176D01*
X64185141Y-129120460D01*
X64179744Y-129067247D01*
X64175317Y-128998438D01*
X64171678Y-128911934D01*
X64168645Y-128805638D01*
X64166035Y-128677450D01*
X64164428Y-128577975D01*
X64156980Y-128079500D01*
X64371415Y-128079844D01*
X64371415Y-128079844D01*
G37*
X64371415Y-128079844D02*
X64508713Y-128081648D01*
X64626130Y-128086517D01*
X64722420Y-128094339D01*
X64796335Y-128105002D01*
X64846626Y-128118395D01*
X64857491Y-128123221D01*
X64887872Y-128146298D01*
X64906953Y-128182141D01*
X64912290Y-128199803D01*
X64925219Y-128236329D01*
X64936572Y-128247682D01*
X64944661Y-128234090D01*
X64947799Y-128195780D01*
X64947800Y-128195018D01*
X64956308Y-128147944D01*
X64974632Y-128122743D01*
X64985885Y-128114302D01*
X65000667Y-128108120D01*
X65022710Y-128103884D01*
X65055741Y-128101278D01*
X65103492Y-128099990D01*
X65169691Y-128099705D01*
X65244507Y-128100024D01*
X65366401Y-128102069D01*
X65465693Y-128106771D01*
X65545069Y-128114421D01*
X65607216Y-128125310D01*
X65654822Y-128139730D01*
X65669414Y-128146079D01*
X65694010Y-128163917D01*
X65702916Y-128191511D01*
X65703450Y-128205959D01*
X65698698Y-128236083D01*
X65682501Y-128259814D01*
X65651945Y-128278493D01*
X65604116Y-128293462D01*
X65536100Y-128306064D01*
X65466243Y-128315220D01*
X65379152Y-128326375D01*
X65314162Y-128337259D01*
X65268004Y-128348770D01*
X65237405Y-128361808D01*
X65219094Y-128377273D01*
X65214402Y-128384482D01*
X65204347Y-128419900D01*
X65202533Y-128464650D01*
X65208620Y-128506566D01*
X65218427Y-128529184D01*
X65246644Y-128548793D01*
X65297452Y-128563163D01*
X65368491Y-128571809D01*
X65436750Y-128574266D01*
X65511993Y-128579950D01*
X65567006Y-128595554D01*
X65570100Y-128597044D01*
X65599941Y-128615542D01*
X65612409Y-128637180D01*
X65614550Y-128663700D01*
X65606137Y-128700544D01*
X65579709Y-128726935D01*
X65533477Y-128743706D01*
X65465653Y-128751691D01*
X65424050Y-128752651D01*
X65339779Y-128756289D01*
X65275573Y-128766774D01*
X65233122Y-128783715D01*
X65216390Y-128800780D01*
X65211230Y-128821787D01*
X65205800Y-128862026D01*
X65200806Y-128915347D01*
X65197508Y-128964973D01*
X65192683Y-129027480D01*
X65185723Y-129084931D01*
X65177658Y-129129951D01*
X65171442Y-129151275D01*
X65141632Y-129196152D01*
X65099260Y-129219169D01*
X65045046Y-129220114D01*
X64991385Y-129203907D01*
X64968551Y-129193089D01*
X64950055Y-129179903D01*
X64935401Y-129161705D01*
X64924097Y-129135850D01*
X64915648Y-129099694D01*
X64909561Y-129050594D01*
X64905342Y-128985904D01*
X64902497Y-128902981D01*
X64900532Y-128799180D01*
X64899401Y-128711325D01*
X64895013Y-128333500D01*
X64698748Y-128333500D01*
X64606035Y-128334498D01*
X64535520Y-128338034D01*
X64484060Y-128344920D01*
X64448511Y-128355968D01*
X64425730Y-128371990D01*
X64412574Y-128393797D01*
X64408308Y-128408522D01*
X64404953Y-128463057D01*
X64417889Y-128510540D01*
X64445009Y-128543448D01*
X64446303Y-128544318D01*
X64476227Y-128555392D01*
X64528742Y-128565099D01*
X64601055Y-128572952D01*
X64618174Y-128574296D01*
X64700654Y-128582890D01*
X64760623Y-128595366D01*
X64800813Y-128612776D01*
X64823958Y-128636173D01*
X64831438Y-128656465D01*
X64829136Y-128684917D01*
X64808941Y-128709359D01*
X64769050Y-128730711D01*
X64707659Y-128749886D01*
X64622967Y-128767803D01*
X64606789Y-128770674D01*
X64541242Y-128784090D01*
X64494117Y-128800872D01*
X64461193Y-128825499D01*
X64438247Y-128862448D01*
X64421059Y-128916195D01*
X64407045Y-128982513D01*
X64387952Y-129069190D01*
X64367279Y-129133798D01*
X64343693Y-129179664D01*
X64315963Y-129210037D01*
X64275733Y-129232134D01*
X64239518Y-129230335D01*
X64220069Y-129219325D01*
X64208972Y-129207510D01*
X64199573Y-129188493D01*
X64191690Y-129160176D01*
X64185141Y-129120460D01*
X64179744Y-129067247D01*
X64175317Y-128998438D01*
X64171678Y-128911934D01*
X64168645Y-128805638D01*
X64166035Y-128677450D01*
X64164428Y-128577975D01*
X64156980Y-128079500D01*
X64371415Y-128079844D01*
G36*
X66207477Y-128093445D02*
X66282170Y-128113929D01*
X66288343Y-128116558D01*
X66363319Y-128159816D01*
X66423873Y-128217763D01*
X66470564Y-128291814D01*
X66503953Y-128383384D01*
X66524597Y-128493889D01*
X66533058Y-128624745D01*
X66531909Y-128732649D01*
X66526707Y-128830970D01*
X66518197Y-128908702D01*
X66505088Y-128970575D01*
X66486087Y-129021320D01*
X66459902Y-129065667D01*
X66431096Y-129101793D01*
X66358252Y-129166610D01*
X66274340Y-129210362D01*
X66183323Y-129231910D01*
X66089164Y-129230111D01*
X66031417Y-129216918D01*
X65942795Y-129176501D01*
X65861556Y-129114813D01*
X65791104Y-129035670D01*
X65734843Y-128942888D01*
X65696507Y-128841500D01*
X65685938Y-128780519D01*
X65681563Y-128704339D01*
X65682656Y-128650907D01*
X65930254Y-128650907D01*
X65937535Y-128734776D01*
X65956364Y-128814096D01*
X65983663Y-128872937D01*
X66021666Y-128915442D01*
X66043058Y-128930468D01*
X66100091Y-128953319D01*
X66154858Y-128952698D01*
X66203479Y-128928872D01*
X66214910Y-128918635D01*
X66247641Y-128873816D01*
X66270188Y-128813577D01*
X66283281Y-128735048D01*
X66287646Y-128635360D01*
X66287650Y-128631950D01*
X66286721Y-128568713D01*
X66283133Y-128523279D01*
X66275683Y-128488092D01*
X66263169Y-128455595D01*
X66257774Y-128444278D01*
X66219685Y-128389385D01*
X66172300Y-128357250D01*
X66118409Y-128348616D01*
X66060801Y-128364226D01*
X66028745Y-128383271D01*
X65987164Y-128427289D01*
X65956012Y-128489947D01*
X65936604Y-128566176D01*
X65930254Y-128650907D01*
X65682656Y-128650907D01*
X65683240Y-128622358D01*
X65690830Y-128543976D01*
X65701792Y-128487333D01*
X65739245Y-128380099D01*
X65791753Y-128284073D01*
X65856475Y-128203134D01*
X65930573Y-128141161D01*
X65972577Y-128117378D01*
X66042873Y-128095195D01*
X66124442Y-128087209D01*
X66207477Y-128093445D01*
X66207477Y-128093445D01*
G37*
X66207477Y-128093445D02*
X66282170Y-128113929D01*
X66288343Y-128116558D01*
X66363319Y-128159816D01*
X66423873Y-128217763D01*
X66470564Y-128291814D01*
X66503953Y-128383384D01*
X66524597Y-128493889D01*
X66533058Y-128624745D01*
X66531909Y-128732649D01*
X66526707Y-128830970D01*
X66518197Y-128908702D01*
X66505088Y-128970575D01*
X66486087Y-129021320D01*
X66459902Y-129065667D01*
X66431096Y-129101793D01*
X66358252Y-129166610D01*
X66274340Y-129210362D01*
X66183323Y-129231910D01*
X66089164Y-129230111D01*
X66031417Y-129216918D01*
X65942795Y-129176501D01*
X65861556Y-129114813D01*
X65791104Y-129035670D01*
X65734843Y-128942888D01*
X65696507Y-128841500D01*
X65685938Y-128780519D01*
X65681563Y-128704339D01*
X65682656Y-128650907D01*
X65930254Y-128650907D01*
X65937535Y-128734776D01*
X65956364Y-128814096D01*
X65983663Y-128872937D01*
X66021666Y-128915442D01*
X66043058Y-128930468D01*
X66100091Y-128953319D01*
X66154858Y-128952698D01*
X66203479Y-128928872D01*
X66214910Y-128918635D01*
X66247641Y-128873816D01*
X66270188Y-128813577D01*
X66283281Y-128735048D01*
X66287646Y-128635360D01*
X66287650Y-128631950D01*
X66286721Y-128568713D01*
X66283133Y-128523279D01*
X66275683Y-128488092D01*
X66263169Y-128455595D01*
X66257774Y-128444278D01*
X66219685Y-128389385D01*
X66172300Y-128357250D01*
X66118409Y-128348616D01*
X66060801Y-128364226D01*
X66028745Y-128383271D01*
X65987164Y-128427289D01*
X65956012Y-128489947D01*
X65936604Y-128566176D01*
X65930254Y-128650907D01*
X65682656Y-128650907D01*
X65683240Y-128622358D01*
X65690830Y-128543976D01*
X65701792Y-128487333D01*
X65739245Y-128380099D01*
X65791753Y-128284073D01*
X65856475Y-128203134D01*
X65930573Y-128141161D01*
X65972577Y-128117378D01*
X66042873Y-128095195D01*
X66124442Y-128087209D01*
X66207477Y-128093445D01*
G36*
X66886145Y-128083163D02*
X67015840Y-128089958D01*
X67123074Y-128101428D01*
X67210491Y-128118391D01*
X67280739Y-128141668D01*
X67336460Y-128172079D01*
X67380300Y-128210444D01*
X67406710Y-128244529D01*
X67442029Y-128316511D01*
X67455536Y-128394217D01*
X67447208Y-128479799D01*
X67417019Y-128575406D01*
X67402453Y-128609090D01*
X67373722Y-128679089D01*
X67358849Y-128736503D01*
X67356480Y-128789087D01*
X67363058Y-128834709D01*
X67374667Y-128877377D01*
X67391988Y-128927023D01*
X67412208Y-128977017D01*
X67432516Y-129020723D01*
X67450099Y-129051510D01*
X67459377Y-129061881D01*
X67465747Y-129063682D01*
X67471344Y-129059185D01*
X67476417Y-129046222D01*
X67481215Y-129022625D01*
X67485986Y-128986228D01*
X67490979Y-128934860D01*
X67496443Y-128866356D01*
X67502626Y-128778547D01*
X67508140Y-128694290D01*
X67818216Y-128694290D01*
X67820495Y-128794167D01*
X67828402Y-128871943D01*
X67842301Y-128929031D01*
X67862553Y-128966841D01*
X67889521Y-128986784D01*
X67923568Y-128990272D01*
X67928711Y-128989562D01*
X67970075Y-128978777D01*
X68013630Y-128961763D01*
X68018008Y-128959646D01*
X68053708Y-128937313D01*
X68079995Y-128908378D01*
X68098141Y-128869025D01*
X68109414Y-128815435D01*
X68115085Y-128743794D01*
X68116450Y-128663700D01*
X68115984Y-128591641D01*
X68114160Y-128539604D01*
X68110334Y-128502220D01*
X68103861Y-128474120D01*
X68094099Y-128449935D01*
X68089811Y-128441450D01*
X68048460Y-128387491D01*
X67992433Y-128354054D01*
X67931742Y-128342336D01*
X67893814Y-128343783D01*
X67869234Y-128355658D01*
X67853299Y-128373357D01*
X67842314Y-128391405D01*
X67834416Y-128415123D01*
X67828807Y-128449422D01*
X67824689Y-128499211D01*
X67821265Y-128569399D01*
X67821204Y-128570903D01*
X67818216Y-128694290D01*
X67508140Y-128694290D01*
X67509778Y-128669266D01*
X67516308Y-128565835D01*
X67544260Y-128118720D01*
X67609372Y-128110585D01*
X67668342Y-128105250D01*
X67740646Y-128101807D01*
X67820716Y-128100191D01*
X67902983Y-128100336D01*
X67981879Y-128102176D01*
X68051837Y-128105646D01*
X68107287Y-128110681D01*
X68141431Y-128116847D01*
X68212560Y-128150282D01*
X68272358Y-128204395D01*
X68317513Y-128275766D01*
X68332835Y-128314601D01*
X68341429Y-128343869D01*
X68347828Y-128374711D01*
X68352341Y-128411382D01*
X68355277Y-128458137D01*
X68356945Y-128519228D01*
X68357655Y-128598911D01*
X68357750Y-128657350D01*
X68357311Y-128757679D01*
X68355569Y-128836675D01*
X68351884Y-128898394D01*
X68345617Y-128946893D01*
X68336127Y-128986228D01*
X68322775Y-129020459D01*
X68304921Y-129053640D01*
X68291996Y-129074401D01*
X68247623Y-129121123D01*
X68181596Y-129158720D01*
X68096393Y-129185992D01*
X68039855Y-129196506D01*
X68003447Y-129199909D01*
X67946009Y-129202973D01*
X67871913Y-129205571D01*
X67785529Y-129207578D01*
X67691227Y-129208866D01*
X67595750Y-129209310D01*
X67240150Y-129209324D01*
X67152949Y-129051916D01*
X67098390Y-128956785D01*
X67052921Y-128884857D01*
X67016250Y-128835729D01*
X66988086Y-128809001D01*
X66972972Y-128803400D01*
X66956767Y-128809618D01*
X66942416Y-128830192D01*
X66928829Y-128868000D01*
X66914917Y-128925920D01*
X66902793Y-128988825D01*
X66886395Y-129069773D01*
X66869617Y-129129494D01*
X66850797Y-129172128D01*
X66828276Y-129201813D01*
X66811946Y-129215379D01*
X66772101Y-129233516D01*
X66735562Y-129227711D01*
X66720615Y-129218572D01*
X66709770Y-129207877D01*
X66700627Y-129191537D01*
X66693000Y-129167381D01*
X66686703Y-129133236D01*
X66681550Y-129086930D01*
X66677356Y-129026291D01*
X66673936Y-128949148D01*
X66671103Y-128853328D01*
X66668673Y-128736659D01*
X66666459Y-128596969D01*
X66666252Y-128582370D01*
X66664882Y-128484722D01*
X66907293Y-128484722D01*
X66925164Y-128528414D01*
X66959173Y-128555223D01*
X67006942Y-128563930D01*
X67066095Y-128553318D01*
X67116205Y-128532100D01*
X67150637Y-128508369D01*
X67177301Y-128480313D01*
X67178040Y-128479210D01*
X67190908Y-128440814D01*
X67181687Y-128404040D01*
X67153639Y-128372035D01*
X67110028Y-128347945D01*
X67054118Y-128334917D01*
X67026912Y-128333500D01*
X66970379Y-128341879D01*
X66932031Y-128367615D01*
X66910711Y-128411601D01*
X66907936Y-128425365D01*
X66907293Y-128484722D01*
X66664882Y-128484722D01*
X66659141Y-128075590D01*
X66886145Y-128083163D01*
X66886145Y-128083163D01*
G37*
X66886145Y-128083163D02*
X67015840Y-128089958D01*
X67123074Y-128101428D01*
X67210491Y-128118391D01*
X67280739Y-128141668D01*
X67336460Y-128172079D01*
X67380300Y-128210444D01*
X67406710Y-128244529D01*
X67442029Y-128316511D01*
X67455536Y-128394217D01*
X67447208Y-128479799D01*
X67417019Y-128575406D01*
X67402453Y-128609090D01*
X67373722Y-128679089D01*
X67358849Y-128736503D01*
X67356480Y-128789087D01*
X67363058Y-128834709D01*
X67374667Y-128877377D01*
X67391988Y-128927023D01*
X67412208Y-128977017D01*
X67432516Y-129020723D01*
X67450099Y-129051510D01*
X67459377Y-129061881D01*
X67465747Y-129063682D01*
X67471344Y-129059185D01*
X67476417Y-129046222D01*
X67481215Y-129022625D01*
X67485986Y-128986228D01*
X67490979Y-128934860D01*
X67496443Y-128866356D01*
X67502626Y-128778547D01*
X67508140Y-128694290D01*
X67818216Y-128694290D01*
X67820495Y-128794167D01*
X67828402Y-128871943D01*
X67842301Y-128929031D01*
X67862553Y-128966841D01*
X67889521Y-128986784D01*
X67923568Y-128990272D01*
X67928711Y-128989562D01*
X67970075Y-128978777D01*
X68013630Y-128961763D01*
X68018008Y-128959646D01*
X68053708Y-128937313D01*
X68079995Y-128908378D01*
X68098141Y-128869025D01*
X68109414Y-128815435D01*
X68115085Y-128743794D01*
X68116450Y-128663700D01*
X68115984Y-128591641D01*
X68114160Y-128539604D01*
X68110334Y-128502220D01*
X68103861Y-128474120D01*
X68094099Y-128449935D01*
X68089811Y-128441450D01*
X68048460Y-128387491D01*
X67992433Y-128354054D01*
X67931742Y-128342336D01*
X67893814Y-128343783D01*
X67869234Y-128355658D01*
X67853299Y-128373357D01*
X67842314Y-128391405D01*
X67834416Y-128415123D01*
X67828807Y-128449422D01*
X67824689Y-128499211D01*
X67821265Y-128569399D01*
X67821204Y-128570903D01*
X67818216Y-128694290D01*
X67508140Y-128694290D01*
X67509778Y-128669266D01*
X67516308Y-128565835D01*
X67544260Y-128118720D01*
X67609372Y-128110585D01*
X67668342Y-128105250D01*
X67740646Y-128101807D01*
X67820716Y-128100191D01*
X67902983Y-128100336D01*
X67981879Y-128102176D01*
X68051837Y-128105646D01*
X68107287Y-128110681D01*
X68141431Y-128116847D01*
X68212560Y-128150282D01*
X68272358Y-128204395D01*
X68317513Y-128275766D01*
X68332835Y-128314601D01*
X68341429Y-128343869D01*
X68347828Y-128374711D01*
X68352341Y-128411382D01*
X68355277Y-128458137D01*
X68356945Y-128519228D01*
X68357655Y-128598911D01*
X68357750Y-128657350D01*
X68357311Y-128757679D01*
X68355569Y-128836675D01*
X68351884Y-128898394D01*
X68345617Y-128946893D01*
X68336127Y-128986228D01*
X68322775Y-129020459D01*
X68304921Y-129053640D01*
X68291996Y-129074401D01*
X68247623Y-129121123D01*
X68181596Y-129158720D01*
X68096393Y-129185992D01*
X68039855Y-129196506D01*
X68003447Y-129199909D01*
X67946009Y-129202973D01*
X67871913Y-129205571D01*
X67785529Y-129207578D01*
X67691227Y-129208866D01*
X67595750Y-129209310D01*
X67240150Y-129209324D01*
X67152949Y-129051916D01*
X67098390Y-128956785D01*
X67052921Y-128884857D01*
X67016250Y-128835729D01*
X66988086Y-128809001D01*
X66972972Y-128803400D01*
X66956767Y-128809618D01*
X66942416Y-128830192D01*
X66928829Y-128868000D01*
X66914917Y-128925920D01*
X66902793Y-128988825D01*
X66886395Y-129069773D01*
X66869617Y-129129494D01*
X66850797Y-129172128D01*
X66828276Y-129201813D01*
X66811946Y-129215379D01*
X66772101Y-129233516D01*
X66735562Y-129227711D01*
X66720615Y-129218572D01*
X66709770Y-129207877D01*
X66700627Y-129191537D01*
X66693000Y-129167381D01*
X66686703Y-129133236D01*
X66681550Y-129086930D01*
X66677356Y-129026291D01*
X66673936Y-128949148D01*
X66671103Y-128853328D01*
X66668673Y-128736659D01*
X66666459Y-128596969D01*
X66666252Y-128582370D01*
X66664882Y-128484722D01*
X66907293Y-128484722D01*
X66925164Y-128528414D01*
X66959173Y-128555223D01*
X67006942Y-128563930D01*
X67066095Y-128553318D01*
X67116205Y-128532100D01*
X67150637Y-128508369D01*
X67177301Y-128480313D01*
X67178040Y-128479210D01*
X67190908Y-128440814D01*
X67181687Y-128404040D01*
X67153639Y-128372035D01*
X67110028Y-128347945D01*
X67054118Y-128334917D01*
X67026912Y-128333500D01*
X66970379Y-128341879D01*
X66932031Y-128367615D01*
X66910711Y-128411601D01*
X66907936Y-128425365D01*
X66907293Y-128484722D01*
X66664882Y-128484722D01*
X66659141Y-128075590D01*
X66886145Y-128083163D01*
G36*
X68877836Y-128096319D02*
X68913253Y-128117275D01*
X68944289Y-128151911D01*
X68980671Y-128211076D01*
X69022280Y-128294494D01*
X69068997Y-128401891D01*
X69120700Y-128532990D01*
X69177272Y-128687516D01*
X69238592Y-128865193D01*
X69241300Y-128873250D01*
X69309539Y-129076450D01*
X69317761Y-128987550D01*
X69320608Y-128952183D01*
X69324650Y-128895522D01*
X69326050Y-128874702D01*
X69589650Y-128874702D01*
X69592873Y-128915669D01*
X69605671Y-128943374D01*
X69625283Y-128963249D01*
X69673481Y-128988522D01*
X69733752Y-128994037D01*
X69802265Y-128979842D01*
X69848528Y-128960504D01*
X69887659Y-128937146D01*
X69917858Y-128912151D01*
X69929260Y-128897004D01*
X69935925Y-128857177D01*
X69920009Y-128821722D01*
X69884209Y-128792529D01*
X69831223Y-128771489D01*
X69763748Y-128760493D01*
X69732877Y-128759329D01*
X69669012Y-128763811D01*
X69625966Y-128779537D01*
X69600742Y-128808920D01*
X69590342Y-128854374D01*
X69589650Y-128874702D01*
X69326050Y-128874702D01*
X69329620Y-128821631D01*
X69335253Y-128734573D01*
X69341282Y-128638412D01*
X69347440Y-128537212D01*
X69349139Y-128508732D01*
X69355746Y-128397482D01*
X69589496Y-128397482D01*
X69590845Y-128430129D01*
X69609180Y-128465044D01*
X69638886Y-128492899D01*
X69650715Y-128499164D01*
X69688651Y-128507047D01*
X69739658Y-128507533D01*
X69792971Y-128501543D01*
X69837827Y-128489994D01*
X69854799Y-128481734D01*
X69882394Y-128451114D01*
X69888124Y-128414078D01*
X69871999Y-128377121D01*
X69854637Y-128359821D01*
X69814955Y-128340486D01*
X69764567Y-128332275D01*
X69710274Y-128334223D01*
X69658875Y-128345365D01*
X69617171Y-128364734D01*
X69591962Y-128391365D01*
X69589496Y-128397482D01*
X69355746Y-128397482D01*
X69372297Y-128118815D01*
X69440162Y-128110336D01*
X69476298Y-128107332D01*
X69531705Y-128104579D01*
X69600251Y-128102300D01*
X69675806Y-128100715D01*
X69720288Y-128100203D01*
X69800213Y-128099855D01*
X69859473Y-128100541D01*
X69902799Y-128102711D01*
X69934920Y-128106812D01*
X69960564Y-128113296D01*
X69984461Y-128122610D01*
X69991952Y-128126002D01*
X70037068Y-128152739D01*
X70073891Y-128188881D01*
X70103394Y-128237072D01*
X70126553Y-128299959D01*
X70144339Y-128380188D01*
X70157728Y-128480403D01*
X70167693Y-128603251D01*
X70167705Y-128603434D01*
X70173779Y-128743571D01*
X70172258Y-128861327D01*
X70162476Y-128958754D01*
X70143768Y-129037906D01*
X70115467Y-129100838D01*
X70076909Y-129149604D01*
X70027426Y-129186257D01*
X69970650Y-129211403D01*
X69940167Y-129217168D01*
X69888741Y-129221734D01*
X69820799Y-129225100D01*
X69740769Y-129227264D01*
X69653080Y-129228227D01*
X69562158Y-129227988D01*
X69472432Y-129226546D01*
X69388330Y-129223901D01*
X69314281Y-129220053D01*
X69254710Y-129215000D01*
X69228381Y-129211492D01*
X69159201Y-129198424D01*
X69110359Y-129183129D01*
X69076836Y-129161892D01*
X69053612Y-129131003D01*
X69035668Y-129086749D01*
X69028634Y-129063750D01*
X69005847Y-129028042D01*
X68963868Y-129006030D01*
X68905436Y-128998592D01*
X68844131Y-129004518D01*
X68778827Y-129019659D01*
X68725952Y-129041464D01*
X68678024Y-129074408D01*
X68627560Y-129122965D01*
X68605412Y-129147285D01*
X68566178Y-129189992D01*
X68537716Y-129216411D01*
X68515062Y-129230188D01*
X68493250Y-129234972D01*
X68485757Y-129235200D01*
X68444020Y-129226084D01*
X68421444Y-129210014D01*
X68408157Y-129189599D01*
X68403543Y-129162523D01*
X68406266Y-129120143D01*
X68406815Y-129115371D01*
X68417504Y-129055344D01*
X68436983Y-128976640D01*
X68463715Y-128883790D01*
X68496158Y-128781322D01*
X68532775Y-128673766D01*
X68537307Y-128661280D01*
X68796279Y-128661280D01*
X68803178Y-128699527D01*
X68820661Y-128730355D01*
X68845081Y-128749093D01*
X68872792Y-128751067D01*
X68894960Y-128737360D01*
X68908925Y-128707207D01*
X68905411Y-128669209D01*
X68885509Y-128632851D01*
X68882586Y-128629593D01*
X68851664Y-128606212D01*
X68823955Y-128601759D01*
X68805096Y-128616898D01*
X68803608Y-128620288D01*
X68796279Y-128661280D01*
X68537307Y-128661280D01*
X68572026Y-128565650D01*
X68612372Y-128461503D01*
X68652274Y-128365854D01*
X68688291Y-128287141D01*
X68731627Y-128204353D01*
X68770663Y-128145075D01*
X68806985Y-128108109D01*
X68842180Y-128092256D01*
X68877836Y-128096319D01*
X68877836Y-128096319D01*
G37*
X68877836Y-128096319D02*
X68913253Y-128117275D01*
X68944289Y-128151911D01*
X68980671Y-128211076D01*
X69022280Y-128294494D01*
X69068997Y-128401891D01*
X69120700Y-128532990D01*
X69177272Y-128687516D01*
X69238592Y-128865193D01*
X69241300Y-128873250D01*
X69309539Y-129076450D01*
X69317761Y-128987550D01*
X69320608Y-128952183D01*
X69324650Y-128895522D01*
X69326050Y-128874702D01*
X69589650Y-128874702D01*
X69592873Y-128915669D01*
X69605671Y-128943374D01*
X69625283Y-128963249D01*
X69673481Y-128988522D01*
X69733752Y-128994037D01*
X69802265Y-128979842D01*
X69848528Y-128960504D01*
X69887659Y-128937146D01*
X69917858Y-128912151D01*
X69929260Y-128897004D01*
X69935925Y-128857177D01*
X69920009Y-128821722D01*
X69884209Y-128792529D01*
X69831223Y-128771489D01*
X69763748Y-128760493D01*
X69732877Y-128759329D01*
X69669012Y-128763811D01*
X69625966Y-128779537D01*
X69600742Y-128808920D01*
X69590342Y-128854374D01*
X69589650Y-128874702D01*
X69326050Y-128874702D01*
X69329620Y-128821631D01*
X69335253Y-128734573D01*
X69341282Y-128638412D01*
X69347440Y-128537212D01*
X69349139Y-128508732D01*
X69355746Y-128397482D01*
X69589496Y-128397482D01*
X69590845Y-128430129D01*
X69609180Y-128465044D01*
X69638886Y-128492899D01*
X69650715Y-128499164D01*
X69688651Y-128507047D01*
X69739658Y-128507533D01*
X69792971Y-128501543D01*
X69837827Y-128489994D01*
X69854799Y-128481734D01*
X69882394Y-128451114D01*
X69888124Y-128414078D01*
X69871999Y-128377121D01*
X69854637Y-128359821D01*
X69814955Y-128340486D01*
X69764567Y-128332275D01*
X69710274Y-128334223D01*
X69658875Y-128345365D01*
X69617171Y-128364734D01*
X69591962Y-128391365D01*
X69589496Y-128397482D01*
X69355746Y-128397482D01*
X69372297Y-128118815D01*
X69440162Y-128110336D01*
X69476298Y-128107332D01*
X69531705Y-128104579D01*
X69600251Y-128102300D01*
X69675806Y-128100715D01*
X69720288Y-128100203D01*
X69800213Y-128099855D01*
X69859473Y-128100541D01*
X69902799Y-128102711D01*
X69934920Y-128106812D01*
X69960564Y-128113296D01*
X69984461Y-128122610D01*
X69991952Y-128126002D01*
X70037068Y-128152739D01*
X70073891Y-128188881D01*
X70103394Y-128237072D01*
X70126553Y-128299959D01*
X70144339Y-128380188D01*
X70157728Y-128480403D01*
X70167693Y-128603251D01*
X70167705Y-128603434D01*
X70173779Y-128743571D01*
X70172258Y-128861327D01*
X70162476Y-128958754D01*
X70143768Y-129037906D01*
X70115467Y-129100838D01*
X70076909Y-129149604D01*
X70027426Y-129186257D01*
X69970650Y-129211403D01*
X69940167Y-129217168D01*
X69888741Y-129221734D01*
X69820799Y-129225100D01*
X69740769Y-129227264D01*
X69653080Y-129228227D01*
X69562158Y-129227988D01*
X69472432Y-129226546D01*
X69388330Y-129223901D01*
X69314281Y-129220053D01*
X69254710Y-129215000D01*
X69228381Y-129211492D01*
X69159201Y-129198424D01*
X69110359Y-129183129D01*
X69076836Y-129161892D01*
X69053612Y-129131003D01*
X69035668Y-129086749D01*
X69028634Y-129063750D01*
X69005847Y-129028042D01*
X68963868Y-129006030D01*
X68905436Y-128998592D01*
X68844131Y-129004518D01*
X68778827Y-129019659D01*
X68725952Y-129041464D01*
X68678024Y-129074408D01*
X68627560Y-129122965D01*
X68605412Y-129147285D01*
X68566178Y-129189992D01*
X68537716Y-129216411D01*
X68515062Y-129230188D01*
X68493250Y-129234972D01*
X68485757Y-129235200D01*
X68444020Y-129226084D01*
X68421444Y-129210014D01*
X68408157Y-129189599D01*
X68403543Y-129162523D01*
X68406266Y-129120143D01*
X68406815Y-129115371D01*
X68417504Y-129055344D01*
X68436983Y-128976640D01*
X68463715Y-128883790D01*
X68496158Y-128781322D01*
X68532775Y-128673766D01*
X68537307Y-128661280D01*
X68796279Y-128661280D01*
X68803178Y-128699527D01*
X68820661Y-128730355D01*
X68845081Y-128749093D01*
X68872792Y-128751067D01*
X68894960Y-128737360D01*
X68908925Y-128707207D01*
X68905411Y-128669209D01*
X68885509Y-128632851D01*
X68882586Y-128629593D01*
X68851664Y-128606212D01*
X68823955Y-128601759D01*
X68805096Y-128616898D01*
X68803608Y-128620288D01*
X68796279Y-128661280D01*
X68537307Y-128661280D01*
X68572026Y-128565650D01*
X68612372Y-128461503D01*
X68652274Y-128365854D01*
X68688291Y-128287141D01*
X68731627Y-128204353D01*
X68770663Y-128145075D01*
X68806985Y-128108109D01*
X68842180Y-128092256D01*
X68877836Y-128096319D01*
G36*
X71279910Y-128085456D02*
X71426898Y-128093146D01*
X71549905Y-128101511D01*
X71650342Y-128110741D01*
X71729622Y-128121028D01*
X71789159Y-128132561D01*
X71830365Y-128145532D01*
X71854654Y-128160130D01*
X71857668Y-128163337D01*
X71866362Y-128187358D01*
X71867042Y-128214635D01*
X71857867Y-128242563D01*
X71835733Y-128264959D01*
X71797846Y-128282971D01*
X71741415Y-128297744D01*
X71663646Y-128310425D01*
X71620591Y-128315795D01*
X71530905Y-128327430D01*
X71463704Y-128339806D01*
X71416094Y-128354697D01*
X71385182Y-128373876D01*
X71368073Y-128399117D01*
X71361874Y-128432195D01*
X71363539Y-128473362D01*
X71371565Y-128505861D01*
X71390652Y-128530806D01*
X71424201Y-128549996D01*
X71475611Y-128565227D01*
X71548284Y-128578297D01*
X71567199Y-128581023D01*
X71664400Y-128597219D01*
X71736335Y-128615124D01*
X71782982Y-128634729D01*
X71804316Y-128656026D01*
X71805800Y-128663700D01*
X71793131Y-128685574D01*
X71755142Y-128705759D01*
X71691857Y-128724246D01*
X71603298Y-128741027D01*
X71567199Y-128746376D01*
X71489462Y-128759214D01*
X71433725Y-128773823D01*
X71396588Y-128792000D01*
X71374651Y-128815544D01*
X71364513Y-128846250D01*
X71363539Y-128854037D01*
X71361932Y-128896393D01*
X71368433Y-128929194D01*
X71385936Y-128954216D01*
X71417334Y-128973232D01*
X71465521Y-128988015D01*
X71533392Y-129000340D01*
X71620591Y-129011604D01*
X71708142Y-129023495D01*
X71773221Y-129036780D01*
X71818756Y-129052705D01*
X71847673Y-129072513D01*
X71862901Y-129097449D01*
X71866773Y-129116249D01*
X71864942Y-129147307D01*
X71849686Y-129170165D01*
X71817136Y-129187987D01*
X71763420Y-129203943D01*
X71757987Y-129205259D01*
X71716017Y-129212221D01*
X71655207Y-129218347D01*
X71581612Y-129223422D01*
X71501289Y-129227232D01*
X71420293Y-129229562D01*
X71344680Y-129230199D01*
X71280506Y-129228927D01*
X71233826Y-129225533D01*
X71224522Y-129224138D01*
X71188249Y-129215454D01*
X71162667Y-129205457D01*
X71158206Y-129202286D01*
X71148982Y-129184794D01*
X71140904Y-129151092D01*
X71133878Y-129099855D01*
X71127810Y-129029761D01*
X71122605Y-128939484D01*
X71118168Y-128827701D01*
X71114407Y-128693087D01*
X71111412Y-128545096D01*
X71103270Y-128077242D01*
X71279910Y-128085456D01*
X71279910Y-128085456D01*
G37*
X71279910Y-128085456D02*
X71426898Y-128093146D01*
X71549905Y-128101511D01*
X71650342Y-128110741D01*
X71729622Y-128121028D01*
X71789159Y-128132561D01*
X71830365Y-128145532D01*
X71854654Y-128160130D01*
X71857668Y-128163337D01*
X71866362Y-128187358D01*
X71867042Y-128214635D01*
X71857867Y-128242563D01*
X71835733Y-128264959D01*
X71797846Y-128282971D01*
X71741415Y-128297744D01*
X71663646Y-128310425D01*
X71620591Y-128315795D01*
X71530905Y-128327430D01*
X71463704Y-128339806D01*
X71416094Y-128354697D01*
X71385182Y-128373876D01*
X71368073Y-128399117D01*
X71361874Y-128432195D01*
X71363539Y-128473362D01*
X71371565Y-128505861D01*
X71390652Y-128530806D01*
X71424201Y-128549996D01*
X71475611Y-128565227D01*
X71548284Y-128578297D01*
X71567199Y-128581023D01*
X71664400Y-128597219D01*
X71736335Y-128615124D01*
X71782982Y-128634729D01*
X71804316Y-128656026D01*
X71805800Y-128663700D01*
X71793131Y-128685574D01*
X71755142Y-128705759D01*
X71691857Y-128724246D01*
X71603298Y-128741027D01*
X71567199Y-128746376D01*
X71489462Y-128759214D01*
X71433725Y-128773823D01*
X71396588Y-128792000D01*
X71374651Y-128815544D01*
X71364513Y-128846250D01*
X71363539Y-128854037D01*
X71361932Y-128896393D01*
X71368433Y-128929194D01*
X71385936Y-128954216D01*
X71417334Y-128973232D01*
X71465521Y-128988015D01*
X71533392Y-129000340D01*
X71620591Y-129011604D01*
X71708142Y-129023495D01*
X71773221Y-129036780D01*
X71818756Y-129052705D01*
X71847673Y-129072513D01*
X71862901Y-129097449D01*
X71866773Y-129116249D01*
X71864942Y-129147307D01*
X71849686Y-129170165D01*
X71817136Y-129187987D01*
X71763420Y-129203943D01*
X71757987Y-129205259D01*
X71716017Y-129212221D01*
X71655207Y-129218347D01*
X71581612Y-129223422D01*
X71501289Y-129227232D01*
X71420293Y-129229562D01*
X71344680Y-129230199D01*
X71280506Y-129228927D01*
X71233826Y-129225533D01*
X71224522Y-129224138D01*
X71188249Y-129215454D01*
X71162667Y-129205457D01*
X71158206Y-129202286D01*
X71148982Y-129184794D01*
X71140904Y-129151092D01*
X71133878Y-129099855D01*
X71127810Y-129029761D01*
X71122605Y-128939484D01*
X71118168Y-128827701D01*
X71114407Y-128693087D01*
X71111412Y-128545096D01*
X71103270Y-128077242D01*
X71279910Y-128085456D01*
G36*
X72724722Y-128092277D02*
X72814767Y-128118151D01*
X72897168Y-128159149D01*
X72960379Y-128208554D01*
X73030786Y-128293897D01*
X73082053Y-128390814D01*
X73114682Y-128495883D01*
X73129173Y-128605685D01*
X73126026Y-128716798D01*
X73105743Y-128825801D01*
X73068824Y-128929274D01*
X73015771Y-129023795D01*
X72947082Y-129105945D01*
X72863260Y-129172302D01*
X72815450Y-129198673D01*
X72734648Y-129225846D01*
X72647358Y-129235681D01*
X72563119Y-129227550D01*
X72527888Y-129217557D01*
X72445819Y-129177331D01*
X72379067Y-129120180D01*
X72327025Y-129045015D01*
X72289082Y-128950746D01*
X72264631Y-128836282D01*
X72254255Y-128727200D01*
X72254310Y-128657350D01*
X72523350Y-128657350D01*
X72523956Y-128725648D01*
X72526331Y-128774743D01*
X72531303Y-128810813D01*
X72539705Y-128840038D01*
X72551525Y-128866900D01*
X72586446Y-128919157D01*
X72628414Y-128953176D01*
X72673313Y-128967533D01*
X72717027Y-128960803D01*
X72751447Y-128936091D01*
X72780257Y-128890252D01*
X72800239Y-128823818D01*
X72811638Y-128735612D01*
X72814741Y-128630715D01*
X72810012Y-128528902D01*
X72797060Y-128449438D01*
X72776042Y-128392915D01*
X72747113Y-128359921D01*
X72743041Y-128357530D01*
X72705689Y-128349044D01*
X72658955Y-128353040D01*
X72614197Y-128367337D01*
X72584281Y-128387994D01*
X72559221Y-128421794D01*
X72541726Y-128461126D01*
X72530667Y-128510968D01*
X72524918Y-128576302D01*
X72523350Y-128657350D01*
X72254310Y-128657350D01*
X72254352Y-128604904D01*
X72267131Y-128488632D01*
X72291462Y-128381604D01*
X72326218Y-128287040D01*
X72370269Y-128208160D01*
X72422487Y-128148185D01*
X72468285Y-128116536D01*
X72545524Y-128090356D01*
X72632989Y-128082641D01*
X72724722Y-128092277D01*
X72724722Y-128092277D01*
G37*
X72724722Y-128092277D02*
X72814767Y-128118151D01*
X72897168Y-128159149D01*
X72960379Y-128208554D01*
X73030786Y-128293897D01*
X73082053Y-128390814D01*
X73114682Y-128495883D01*
X73129173Y-128605685D01*
X73126026Y-128716798D01*
X73105743Y-128825801D01*
X73068824Y-128929274D01*
X73015771Y-129023795D01*
X72947082Y-129105945D01*
X72863260Y-129172302D01*
X72815450Y-129198673D01*
X72734648Y-129225846D01*
X72647358Y-129235681D01*
X72563119Y-129227550D01*
X72527888Y-129217557D01*
X72445819Y-129177331D01*
X72379067Y-129120180D01*
X72327025Y-129045015D01*
X72289082Y-128950746D01*
X72264631Y-128836282D01*
X72254255Y-128727200D01*
X72254310Y-128657350D01*
X72523350Y-128657350D01*
X72523956Y-128725648D01*
X72526331Y-128774743D01*
X72531303Y-128810813D01*
X72539705Y-128840038D01*
X72551525Y-128866900D01*
X72586446Y-128919157D01*
X72628414Y-128953176D01*
X72673313Y-128967533D01*
X72717027Y-128960803D01*
X72751447Y-128936091D01*
X72780257Y-128890252D01*
X72800239Y-128823818D01*
X72811638Y-128735612D01*
X72814741Y-128630715D01*
X72810012Y-128528902D01*
X72797060Y-128449438D01*
X72776042Y-128392915D01*
X72747113Y-128359921D01*
X72743041Y-128357530D01*
X72705689Y-128349044D01*
X72658955Y-128353040D01*
X72614197Y-128367337D01*
X72584281Y-128387994D01*
X72559221Y-128421794D01*
X72541726Y-128461126D01*
X72530667Y-128510968D01*
X72524918Y-128576302D01*
X72523350Y-128657350D01*
X72254310Y-128657350D01*
X72254352Y-128604904D01*
X72267131Y-128488632D01*
X72291462Y-128381604D01*
X72326218Y-128287040D01*
X72370269Y-128208160D01*
X72422487Y-128148185D01*
X72468285Y-128116536D01*
X72545524Y-128090356D01*
X72632989Y-128082641D01*
X72724722Y-128092277D01*
G36*
X78791493Y-128119325D02*
X78818506Y-128126217D01*
X78839364Y-128140847D01*
X78854848Y-128165788D01*
X78865738Y-128203614D01*
X78872817Y-128256896D01*
X78876864Y-128328206D01*
X78878662Y-128420118D01*
X78879004Y-128517650D01*
X78878145Y-128646262D01*
X78875242Y-128752494D01*
X78869671Y-128839325D01*
X78860803Y-128909734D01*
X78848014Y-128966702D01*
X78830675Y-129013208D01*
X78808161Y-129052231D01*
X78779845Y-129086752D01*
X78754075Y-129111796D01*
X78672831Y-129171300D01*
X78584303Y-129211606D01*
X78492990Y-129231664D01*
X78403394Y-129230422D01*
X78329629Y-129210911D01*
X78254267Y-129171836D01*
X78181821Y-129118619D01*
X78117505Y-129056389D01*
X78066531Y-128990274D01*
X78034112Y-128925404D01*
X78031642Y-128917700D01*
X78020605Y-128871637D01*
X78013337Y-128817838D01*
X78009702Y-128752525D01*
X78009563Y-128671925D01*
X78012784Y-128572261D01*
X78016457Y-128498342D01*
X78023209Y-128388757D01*
X78030745Y-128302009D01*
X78039938Y-128235537D01*
X78051658Y-128186779D01*
X78066775Y-128153172D01*
X78086162Y-128132156D01*
X78110688Y-128121166D01*
X78141226Y-128117643D01*
X78145903Y-128117600D01*
X78184387Y-128119903D01*
X78214103Y-128128818D01*
X78236497Y-128147349D01*
X78253021Y-128178503D01*
X78265124Y-128225284D01*
X78274254Y-128290698D01*
X78281862Y-128377750D01*
X78283703Y-128403350D01*
X78292970Y-128532598D01*
X78301098Y-128638502D01*
X78308290Y-128723081D01*
X78314754Y-128788352D01*
X78320693Y-128836337D01*
X78326314Y-128869054D01*
X78331822Y-128888522D01*
X78333410Y-128891945D01*
X78359619Y-128916400D01*
X78400035Y-128927772D01*
X78447218Y-128926264D01*
X78493726Y-128912079D01*
X78530986Y-128886568D01*
X78547638Y-128866499D01*
X78561203Y-128840862D01*
X78572467Y-128806135D01*
X78582215Y-128758798D01*
X78591233Y-128695330D01*
X78600306Y-128612211D01*
X78606334Y-128548938D01*
X78617700Y-128431941D01*
X78628602Y-128337880D01*
X78639891Y-128264327D01*
X78652419Y-128208853D01*
X78667036Y-128169029D01*
X78684596Y-128142427D01*
X78705949Y-128126616D01*
X78731946Y-128119169D01*
X78757544Y-128117600D01*
X78791493Y-128119325D01*
X78791493Y-128119325D01*
G37*
X78791493Y-128119325D02*
X78818506Y-128126217D01*
X78839364Y-128140847D01*
X78854848Y-128165788D01*
X78865738Y-128203614D01*
X78872817Y-128256896D01*
X78876864Y-128328206D01*
X78878662Y-128420118D01*
X78879004Y-128517650D01*
X78878145Y-128646262D01*
X78875242Y-128752494D01*
X78869671Y-128839325D01*
X78860803Y-128909734D01*
X78848014Y-128966702D01*
X78830675Y-129013208D01*
X78808161Y-129052231D01*
X78779845Y-129086752D01*
X78754075Y-129111796D01*
X78672831Y-129171300D01*
X78584303Y-129211606D01*
X78492990Y-129231664D01*
X78403394Y-129230422D01*
X78329629Y-129210911D01*
X78254267Y-129171836D01*
X78181821Y-129118619D01*
X78117505Y-129056389D01*
X78066531Y-128990274D01*
X78034112Y-128925404D01*
X78031642Y-128917700D01*
X78020605Y-128871637D01*
X78013337Y-128817838D01*
X78009702Y-128752525D01*
X78009563Y-128671925D01*
X78012784Y-128572261D01*
X78016457Y-128498342D01*
X78023209Y-128388757D01*
X78030745Y-128302009D01*
X78039938Y-128235537D01*
X78051658Y-128186779D01*
X78066775Y-128153172D01*
X78086162Y-128132156D01*
X78110688Y-128121166D01*
X78141226Y-128117643D01*
X78145903Y-128117600D01*
X78184387Y-128119903D01*
X78214103Y-128128818D01*
X78236497Y-128147349D01*
X78253021Y-128178503D01*
X78265124Y-128225284D01*
X78274254Y-128290698D01*
X78281862Y-128377750D01*
X78283703Y-128403350D01*
X78292970Y-128532598D01*
X78301098Y-128638502D01*
X78308290Y-128723081D01*
X78314754Y-128788352D01*
X78320693Y-128836337D01*
X78326314Y-128869054D01*
X78331822Y-128888522D01*
X78333410Y-128891945D01*
X78359619Y-128916400D01*
X78400035Y-128927772D01*
X78447218Y-128926264D01*
X78493726Y-128912079D01*
X78530986Y-128886568D01*
X78547638Y-128866499D01*
X78561203Y-128840862D01*
X78572467Y-128806135D01*
X78582215Y-128758798D01*
X78591233Y-128695330D01*
X78600306Y-128612211D01*
X78606334Y-128548938D01*
X78617700Y-128431941D01*
X78628602Y-128337880D01*
X78639891Y-128264327D01*
X78652419Y-128208853D01*
X78667036Y-128169029D01*
X78684596Y-128142427D01*
X78705949Y-128126616D01*
X78731946Y-128119169D01*
X78757544Y-128117600D01*
X78791493Y-128119325D01*
G36*
X83287840Y-128090267D02*
X83288729Y-128090595D01*
X83309150Y-128099406D01*
X83324986Y-128110520D01*
X83336968Y-128127140D01*
X83345828Y-128152472D01*
X83352298Y-128189721D01*
X83357108Y-128242090D01*
X83360991Y-128312785D01*
X83364678Y-128405011D01*
X83365474Y-128426821D01*
X83370622Y-128545781D01*
X83376911Y-128642271D01*
X83384877Y-128719212D01*
X83395050Y-128779527D01*
X83407964Y-128826138D01*
X83424153Y-128861965D01*
X83444148Y-128889933D01*
X83451330Y-128897591D01*
X83483868Y-128923471D01*
X83519964Y-128933659D01*
X83543015Y-128934633D01*
X83602226Y-128927679D01*
X83644714Y-128904992D01*
X83675580Y-128863835D01*
X83675833Y-128863348D01*
X83688836Y-128835799D01*
X83699182Y-128806650D01*
X83707338Y-128772295D01*
X83713769Y-128729128D01*
X83718940Y-128673543D01*
X83723317Y-128601934D01*
X83727366Y-128510695D01*
X83729828Y-128445134D01*
X83734026Y-128340622D01*
X83738647Y-128258795D01*
X83744343Y-128196939D01*
X83751765Y-128152340D01*
X83761565Y-128122282D01*
X83774395Y-128104053D01*
X83790906Y-128094939D01*
X83811749Y-128092224D01*
X83814549Y-128092200D01*
X83855753Y-128104346D01*
X83889728Y-128140633D01*
X83916405Y-128200829D01*
X83935715Y-128284706D01*
X83947588Y-128392032D01*
X83951956Y-128522579D01*
X83951935Y-128549400D01*
X83945803Y-128707366D01*
X83929383Y-128844434D01*
X83902817Y-128959791D01*
X83866249Y-129052621D01*
X83862416Y-129059947D01*
X83811405Y-129129636D01*
X83744227Y-129182731D01*
X83664976Y-129217960D01*
X83577744Y-129234052D01*
X83486625Y-129229734D01*
X83397453Y-129204455D01*
X83330062Y-129172623D01*
X83273866Y-129135829D01*
X83228022Y-129091734D01*
X83191686Y-129038001D01*
X83164015Y-128972291D01*
X83144165Y-128892267D01*
X83131293Y-128795591D01*
X83124555Y-128679925D01*
X83123108Y-128542930D01*
X83124465Y-128447800D01*
X83127244Y-128343938D01*
X83131117Y-128262600D01*
X83136795Y-128200911D01*
X83144991Y-128155999D01*
X83156417Y-128124988D01*
X83171786Y-128105005D01*
X83191809Y-128093177D01*
X83213838Y-128087234D01*
X83253377Y-128084768D01*
X83287840Y-128090267D01*
X83287840Y-128090267D01*
G37*
X83287840Y-128090267D02*
X83288729Y-128090595D01*
X83309150Y-128099406D01*
X83324986Y-128110520D01*
X83336968Y-128127140D01*
X83345828Y-128152472D01*
X83352298Y-128189721D01*
X83357108Y-128242090D01*
X83360991Y-128312785D01*
X83364678Y-128405011D01*
X83365474Y-128426821D01*
X83370622Y-128545781D01*
X83376911Y-128642271D01*
X83384877Y-128719212D01*
X83395050Y-128779527D01*
X83407964Y-128826138D01*
X83424153Y-128861965D01*
X83444148Y-128889933D01*
X83451330Y-128897591D01*
X83483868Y-128923471D01*
X83519964Y-128933659D01*
X83543015Y-128934633D01*
X83602226Y-128927679D01*
X83644714Y-128904992D01*
X83675580Y-128863835D01*
X83675833Y-128863348D01*
X83688836Y-128835799D01*
X83699182Y-128806650D01*
X83707338Y-128772295D01*
X83713769Y-128729128D01*
X83718940Y-128673543D01*
X83723317Y-128601934D01*
X83727366Y-128510695D01*
X83729828Y-128445134D01*
X83734026Y-128340622D01*
X83738647Y-128258795D01*
X83744343Y-128196939D01*
X83751765Y-128152340D01*
X83761565Y-128122282D01*
X83774395Y-128104053D01*
X83790906Y-128094939D01*
X83811749Y-128092224D01*
X83814549Y-128092200D01*
X83855753Y-128104346D01*
X83889728Y-128140633D01*
X83916405Y-128200829D01*
X83935715Y-128284706D01*
X83947588Y-128392032D01*
X83951956Y-128522579D01*
X83951935Y-128549400D01*
X83945803Y-128707366D01*
X83929383Y-128844434D01*
X83902817Y-128959791D01*
X83866249Y-129052621D01*
X83862416Y-129059947D01*
X83811405Y-129129636D01*
X83744227Y-129182731D01*
X83664976Y-129217960D01*
X83577744Y-129234052D01*
X83486625Y-129229734D01*
X83397453Y-129204455D01*
X83330062Y-129172623D01*
X83273866Y-129135829D01*
X83228022Y-129091734D01*
X83191686Y-129038001D01*
X83164015Y-128972291D01*
X83144165Y-128892267D01*
X83131293Y-128795591D01*
X83124555Y-128679925D01*
X83123108Y-128542930D01*
X83124465Y-128447800D01*
X83127244Y-128343938D01*
X83131117Y-128262600D01*
X83136795Y-128200911D01*
X83144991Y-128155999D01*
X83156417Y-128124988D01*
X83171786Y-128105005D01*
X83191809Y-128093177D01*
X83213838Y-128087234D01*
X83253377Y-128084768D01*
X83287840Y-128090267D01*
G36*
X85195388Y-128099904D02*
X85225056Y-128124878D01*
X85226232Y-128126629D01*
X85233517Y-128140043D01*
X85238980Y-128157291D01*
X85242828Y-128181791D01*
X85245266Y-128216959D01*
X85246501Y-128266215D01*
X85246739Y-128332975D01*
X85246186Y-128420657D01*
X85245887Y-128452485D01*
X85242603Y-128633225D01*
X85236550Y-128790224D01*
X85227756Y-128923231D01*
X85216246Y-129031992D01*
X85202050Y-129116254D01*
X85185192Y-129175767D01*
X85165701Y-129210275D01*
X85164860Y-129211139D01*
X85143288Y-129229755D01*
X85124367Y-129233062D01*
X85096826Y-129222215D01*
X85090000Y-129218806D01*
X85072295Y-129207364D01*
X85058253Y-129191019D01*
X85047457Y-129166963D01*
X85039492Y-129132387D01*
X85033941Y-129084484D01*
X85030389Y-129020446D01*
X85028420Y-128937465D01*
X85027619Y-128832733D01*
X85027544Y-128797050D01*
X85028572Y-128639306D01*
X85032023Y-128501834D01*
X85037831Y-128385694D01*
X85045931Y-128291946D01*
X85056256Y-128221651D01*
X85065457Y-128184852D01*
X85089049Y-128139720D01*
X85122095Y-128109241D01*
X85159304Y-128095331D01*
X85195388Y-128099904D01*
X85195388Y-128099904D01*
G37*
X85195388Y-128099904D02*
X85225056Y-128124878D01*
X85226232Y-128126629D01*
X85233517Y-128140043D01*
X85238980Y-128157291D01*
X85242828Y-128181791D01*
X85245266Y-128216959D01*
X85246501Y-128266215D01*
X85246739Y-128332975D01*
X85246186Y-128420657D01*
X85245887Y-128452485D01*
X85242603Y-128633225D01*
X85236550Y-128790224D01*
X85227756Y-128923231D01*
X85216246Y-129031992D01*
X85202050Y-129116254D01*
X85185192Y-129175767D01*
X85165701Y-129210275D01*
X85164860Y-129211139D01*
X85143288Y-129229755D01*
X85124367Y-129233062D01*
X85096826Y-129222215D01*
X85090000Y-129218806D01*
X85072295Y-129207364D01*
X85058253Y-129191019D01*
X85047457Y-129166963D01*
X85039492Y-129132387D01*
X85033941Y-129084484D01*
X85030389Y-129020446D01*
X85028420Y-128937465D01*
X85027619Y-128832733D01*
X85027544Y-128797050D01*
X85028572Y-128639306D01*
X85032023Y-128501834D01*
X85037831Y-128385694D01*
X85045931Y-128291946D01*
X85056256Y-128221651D01*
X85065457Y-128184852D01*
X85089049Y-128139720D01*
X85122095Y-128109241D01*
X85159304Y-128095331D01*
X85195388Y-128099904D01*
G36*
X87593652Y-128083700D02*
X87713292Y-128088284D01*
X87814430Y-128095300D01*
X87895244Y-128104631D01*
X87953913Y-128116157D01*
X87982114Y-128126087D01*
X88021315Y-128153211D01*
X88068081Y-128200190D01*
X88123597Y-128268294D01*
X88158090Y-128314939D01*
X88184531Y-128351666D01*
X88244220Y-128269635D01*
X88278301Y-128226007D01*
X88312766Y-128190456D01*
X88350593Y-128162168D01*
X88394760Y-128140331D01*
X88448246Y-128124131D01*
X88514029Y-128112754D01*
X88595087Y-128105387D01*
X88694398Y-128101216D01*
X88814940Y-128099429D01*
X88868250Y-128099203D01*
X88967611Y-128099288D01*
X89045380Y-128100188D01*
X89105357Y-128102126D01*
X89151341Y-128105323D01*
X89187133Y-128110002D01*
X89216532Y-128116384D01*
X89230200Y-128120338D01*
X89313175Y-128158434D01*
X89379428Y-128214325D01*
X89426913Y-128285251D01*
X89453587Y-128368454D01*
X89458800Y-128428981D01*
X89450968Y-128519141D01*
X89425546Y-128595553D01*
X89379646Y-128665183D01*
X89345441Y-128702303D01*
X89269962Y-128763265D01*
X89188641Y-128800499D01*
X89097716Y-128815593D01*
X89075710Y-128816100D01*
X89022139Y-128819230D01*
X88981963Y-128830862D01*
X88952448Y-128854358D01*
X88930861Y-128893081D01*
X88914468Y-128950392D01*
X88900535Y-129029653D01*
X88900190Y-129031976D01*
X88886714Y-129101421D01*
X88869004Y-129149658D01*
X88844977Y-129180787D01*
X88815959Y-129197666D01*
X88790601Y-129202575D01*
X88746475Y-129206531D01*
X88690205Y-129209079D01*
X88639299Y-129209800D01*
X88530850Y-129204740D01*
X88442327Y-129188359D01*
X88370108Y-129158850D01*
X88310570Y-129114409D01*
X88260090Y-129053229D01*
X88232207Y-129006936D01*
X88210955Y-128972248D01*
X88192207Y-128949063D01*
X88182783Y-128943100D01*
X88168519Y-128953539D01*
X88151045Y-128979544D01*
X88146172Y-128989092D01*
X88099197Y-129067747D01*
X88040583Y-129127632D01*
X87966369Y-129171841D01*
X87872594Y-129203465D01*
X87871128Y-129203832D01*
X87832326Y-129210289D01*
X87773028Y-129216145D01*
X87698133Y-129221262D01*
X87612539Y-129225504D01*
X87521147Y-129228731D01*
X87428854Y-129230808D01*
X87340562Y-129231596D01*
X87261168Y-129230958D01*
X87195572Y-129228756D01*
X87148672Y-129224854D01*
X87144282Y-129224226D01*
X87106049Y-129216290D01*
X87078230Y-129206760D01*
X87071519Y-129202499D01*
X87061100Y-129181111D01*
X87052219Y-129138874D01*
X87044830Y-129075072D01*
X87038887Y-128988986D01*
X87034343Y-128879898D01*
X87031154Y-128747092D01*
X87029273Y-128589850D01*
X87028956Y-128537774D01*
X87028517Y-128447683D01*
X87274400Y-128447683D01*
X87276032Y-128486374D01*
X87283135Y-128515320D01*
X87299021Y-128536233D01*
X87326999Y-128550828D01*
X87370381Y-128560818D01*
X87432477Y-128567918D01*
X87516598Y-128573842D01*
X87518294Y-128573946D01*
X87606492Y-128581376D01*
X87671192Y-128591763D01*
X87714185Y-128605703D01*
X87737265Y-128623797D01*
X87742222Y-128646641D01*
X87741901Y-128648626D01*
X87725458Y-128671713D01*
X87686569Y-128694293D01*
X87628179Y-128715261D01*
X87553235Y-128733513D01*
X87483950Y-128745329D01*
X87407210Y-128757755D01*
X87352194Y-128771169D01*
X87315255Y-128787807D01*
X87292746Y-128809906D01*
X87281022Y-128839702D01*
X87276838Y-128872339D01*
X87279049Y-128924098D01*
X87295514Y-128958529D01*
X87328829Y-128980871D01*
X87331109Y-128981815D01*
X87359556Y-128987587D01*
X87407156Y-128991325D01*
X87467753Y-128993110D01*
X87535188Y-128993024D01*
X87603303Y-128991148D01*
X87665941Y-128987564D01*
X87716943Y-128982353D01*
X87747970Y-128976291D01*
X87804852Y-128953589D01*
X87852165Y-128920363D01*
X87896397Y-128871300D01*
X87924112Y-128832118D01*
X87967292Y-128755459D01*
X87988978Y-128685742D01*
X87989425Y-128661060D01*
X88381340Y-128661060D01*
X88391950Y-128709189D01*
X88414091Y-128765696D01*
X88448154Y-128835571D01*
X88481327Y-128898935D01*
X88575394Y-129076450D01*
X88585857Y-129012950D01*
X88589212Y-128980617D01*
X88592392Y-128927962D01*
X88595191Y-128860065D01*
X88597406Y-128782003D01*
X88598830Y-128698855D01*
X88598934Y-128689100D01*
X88599206Y-128601301D01*
X88598387Y-128513844D01*
X88596789Y-128440900D01*
X88916266Y-128440900D01*
X88918904Y-128491348D01*
X88931703Y-128532936D01*
X88939040Y-128544183D01*
X88963552Y-128556886D01*
X89003585Y-128561581D01*
X89050606Y-128558417D01*
X89096080Y-128547544D01*
X89111756Y-128541151D01*
X89155331Y-128512327D01*
X89181722Y-128477595D01*
X89187424Y-128441967D01*
X89185811Y-128435292D01*
X89160858Y-128395239D01*
X89117937Y-128363232D01*
X89064031Y-128342549D01*
X89006119Y-128336472D01*
X88981375Y-128339232D01*
X88950474Y-128350081D01*
X88932176Y-128373286D01*
X88924808Y-128392441D01*
X88916266Y-128440900D01*
X88596789Y-128440900D01*
X88596615Y-128432990D01*
X88594027Y-128364999D01*
X88590761Y-128316130D01*
X88590754Y-128316060D01*
X88579959Y-128203371D01*
X88548179Y-128258910D01*
X88529550Y-128292797D01*
X88503252Y-128342363D01*
X88472984Y-128400572D01*
X88446408Y-128452552D01*
X88414795Y-128517055D01*
X88393153Y-128569982D01*
X88381871Y-128616320D01*
X88381340Y-128661060D01*
X87989425Y-128661060D01*
X87990204Y-128618178D01*
X87980270Y-128572313D01*
X87955322Y-128510180D01*
X87919601Y-128447686D01*
X87878169Y-128392183D01*
X87836091Y-128351022D01*
X87820500Y-128340386D01*
X87795275Y-128328092D01*
X87766679Y-128320530D01*
X87728176Y-128316782D01*
X87673233Y-128315932D01*
X87647953Y-128316161D01*
X87549061Y-128320140D01*
X87461113Y-128329008D01*
X87387919Y-128342122D01*
X87333291Y-128358843D01*
X87306473Y-128373614D01*
X87282838Y-128400632D01*
X87274627Y-128437384D01*
X87274400Y-128447683D01*
X87028517Y-128447683D01*
X87026750Y-128085850D01*
X87306150Y-128082300D01*
X87457330Y-128081666D01*
X87593652Y-128083700D01*
X87593652Y-128083700D01*
G37*
X87593652Y-128083700D02*
X87713292Y-128088284D01*
X87814430Y-128095300D01*
X87895244Y-128104631D01*
X87953913Y-128116157D01*
X87982114Y-128126087D01*
X88021315Y-128153211D01*
X88068081Y-128200190D01*
X88123597Y-128268294D01*
X88158090Y-128314939D01*
X88184531Y-128351666D01*
X88244220Y-128269635D01*
X88278301Y-128226007D01*
X88312766Y-128190456D01*
X88350593Y-128162168D01*
X88394760Y-128140331D01*
X88448246Y-128124131D01*
X88514029Y-128112754D01*
X88595087Y-128105387D01*
X88694398Y-128101216D01*
X88814940Y-128099429D01*
X88868250Y-128099203D01*
X88967611Y-128099288D01*
X89045380Y-128100188D01*
X89105357Y-128102126D01*
X89151341Y-128105323D01*
X89187133Y-128110002D01*
X89216532Y-128116384D01*
X89230200Y-128120338D01*
X89313175Y-128158434D01*
X89379428Y-128214325D01*
X89426913Y-128285251D01*
X89453587Y-128368454D01*
X89458800Y-128428981D01*
X89450968Y-128519141D01*
X89425546Y-128595553D01*
X89379646Y-128665183D01*
X89345441Y-128702303D01*
X89269962Y-128763265D01*
X89188641Y-128800499D01*
X89097716Y-128815593D01*
X89075710Y-128816100D01*
X89022139Y-128819230D01*
X88981963Y-128830862D01*
X88952448Y-128854358D01*
X88930861Y-128893081D01*
X88914468Y-128950392D01*
X88900535Y-129029653D01*
X88900190Y-129031976D01*
X88886714Y-129101421D01*
X88869004Y-129149658D01*
X88844977Y-129180787D01*
X88815959Y-129197666D01*
X88790601Y-129202575D01*
X88746475Y-129206531D01*
X88690205Y-129209079D01*
X88639299Y-129209800D01*
X88530850Y-129204740D01*
X88442327Y-129188359D01*
X88370108Y-129158850D01*
X88310570Y-129114409D01*
X88260090Y-129053229D01*
X88232207Y-129006936D01*
X88210955Y-128972248D01*
X88192207Y-128949063D01*
X88182783Y-128943100D01*
X88168519Y-128953539D01*
X88151045Y-128979544D01*
X88146172Y-128989092D01*
X88099197Y-129067747D01*
X88040583Y-129127632D01*
X87966369Y-129171841D01*
X87872594Y-129203465D01*
X87871128Y-129203832D01*
X87832326Y-129210289D01*
X87773028Y-129216145D01*
X87698133Y-129221262D01*
X87612539Y-129225504D01*
X87521147Y-129228731D01*
X87428854Y-129230808D01*
X87340562Y-129231596D01*
X87261168Y-129230958D01*
X87195572Y-129228756D01*
X87148672Y-129224854D01*
X87144282Y-129224226D01*
X87106049Y-129216290D01*
X87078230Y-129206760D01*
X87071519Y-129202499D01*
X87061100Y-129181111D01*
X87052219Y-129138874D01*
X87044830Y-129075072D01*
X87038887Y-128988986D01*
X87034343Y-128879898D01*
X87031154Y-128747092D01*
X87029273Y-128589850D01*
X87028956Y-128537774D01*
X87028517Y-128447683D01*
X87274400Y-128447683D01*
X87276032Y-128486374D01*
X87283135Y-128515320D01*
X87299021Y-128536233D01*
X87326999Y-128550828D01*
X87370381Y-128560818D01*
X87432477Y-128567918D01*
X87516598Y-128573842D01*
X87518294Y-128573946D01*
X87606492Y-128581376D01*
X87671192Y-128591763D01*
X87714185Y-128605703D01*
X87737265Y-128623797D01*
X87742222Y-128646641D01*
X87741901Y-128648626D01*
X87725458Y-128671713D01*
X87686569Y-128694293D01*
X87628179Y-128715261D01*
X87553235Y-128733513D01*
X87483950Y-128745329D01*
X87407210Y-128757755D01*
X87352194Y-128771169D01*
X87315255Y-128787807D01*
X87292746Y-128809906D01*
X87281022Y-128839702D01*
X87276838Y-128872339D01*
X87279049Y-128924098D01*
X87295514Y-128958529D01*
X87328829Y-128980871D01*
X87331109Y-128981815D01*
X87359556Y-128987587D01*
X87407156Y-128991325D01*
X87467753Y-128993110D01*
X87535188Y-128993024D01*
X87603303Y-128991148D01*
X87665941Y-128987564D01*
X87716943Y-128982353D01*
X87747970Y-128976291D01*
X87804852Y-128953589D01*
X87852165Y-128920363D01*
X87896397Y-128871300D01*
X87924112Y-128832118D01*
X87967292Y-128755459D01*
X87988978Y-128685742D01*
X87989425Y-128661060D01*
X88381340Y-128661060D01*
X88391950Y-128709189D01*
X88414091Y-128765696D01*
X88448154Y-128835571D01*
X88481327Y-128898935D01*
X88575394Y-129076450D01*
X88585857Y-129012950D01*
X88589212Y-128980617D01*
X88592392Y-128927962D01*
X88595191Y-128860065D01*
X88597406Y-128782003D01*
X88598830Y-128698855D01*
X88598934Y-128689100D01*
X88599206Y-128601301D01*
X88598387Y-128513844D01*
X88596789Y-128440900D01*
X88916266Y-128440900D01*
X88918904Y-128491348D01*
X88931703Y-128532936D01*
X88939040Y-128544183D01*
X88963552Y-128556886D01*
X89003585Y-128561581D01*
X89050606Y-128558417D01*
X89096080Y-128547544D01*
X89111756Y-128541151D01*
X89155331Y-128512327D01*
X89181722Y-128477595D01*
X89187424Y-128441967D01*
X89185811Y-128435292D01*
X89160858Y-128395239D01*
X89117937Y-128363232D01*
X89064031Y-128342549D01*
X89006119Y-128336472D01*
X88981375Y-128339232D01*
X88950474Y-128350081D01*
X88932176Y-128373286D01*
X88924808Y-128392441D01*
X88916266Y-128440900D01*
X88596789Y-128440900D01*
X88596615Y-128432990D01*
X88594027Y-128364999D01*
X88590761Y-128316130D01*
X88590754Y-128316060D01*
X88579959Y-128203371D01*
X88548179Y-128258910D01*
X88529550Y-128292797D01*
X88503252Y-128342363D01*
X88472984Y-128400572D01*
X88446408Y-128452552D01*
X88414795Y-128517055D01*
X88393153Y-128569982D01*
X88381871Y-128616320D01*
X88381340Y-128661060D01*
X87989425Y-128661060D01*
X87990204Y-128618178D01*
X87980270Y-128572313D01*
X87955322Y-128510180D01*
X87919601Y-128447686D01*
X87878169Y-128392183D01*
X87836091Y-128351022D01*
X87820500Y-128340386D01*
X87795275Y-128328092D01*
X87766679Y-128320530D01*
X87728176Y-128316782D01*
X87673233Y-128315932D01*
X87647953Y-128316161D01*
X87549061Y-128320140D01*
X87461113Y-128329008D01*
X87387919Y-128342122D01*
X87333291Y-128358843D01*
X87306473Y-128373614D01*
X87282838Y-128400632D01*
X87274627Y-128437384D01*
X87274400Y-128447683D01*
X87028517Y-128447683D01*
X87026750Y-128085850D01*
X87306150Y-128082300D01*
X87457330Y-128081666D01*
X87593652Y-128083700D01*
G36*
X89549069Y-128079565D02*
X89571020Y-128080247D01*
X89613759Y-128082107D01*
X89672715Y-128084924D01*
X89743316Y-128088481D01*
X89820750Y-128092546D01*
X89947068Y-128100280D01*
X90049942Y-128108935D01*
X90131321Y-128118966D01*
X90193158Y-128130827D01*
X90237402Y-128144973D01*
X90266005Y-128161857D01*
X90280916Y-128181934D01*
X90284300Y-128200476D01*
X90277913Y-128230977D01*
X90257230Y-128257197D01*
X90219967Y-128280256D01*
X90163840Y-128301273D01*
X90086564Y-128321368D01*
X90002548Y-128338559D01*
X89913589Y-128359609D01*
X89849386Y-128384681D01*
X89809595Y-128413930D01*
X89798496Y-128430709D01*
X89794912Y-128464312D01*
X89815899Y-128494332D01*
X89860838Y-128520433D01*
X89929109Y-128542281D01*
X90020093Y-128559541D01*
X90043000Y-128562677D01*
X90126606Y-128577765D01*
X90185719Y-128598419D01*
X90220658Y-128624788D01*
X90231248Y-128648773D01*
X90223412Y-128673313D01*
X90192085Y-128695483D01*
X90136763Y-128715481D01*
X90056944Y-128733505D01*
X89986984Y-128744944D01*
X89912443Y-128757237D01*
X89860153Y-128770198D01*
X89826989Y-128785703D01*
X89809831Y-128805628D01*
X89805557Y-128831851D01*
X89808081Y-128852482D01*
X89821473Y-128898589D01*
X89844404Y-128934447D01*
X89880210Y-128962074D01*
X89932233Y-128983489D01*
X90003811Y-129000710D01*
X90072105Y-129012053D01*
X90154725Y-129026923D01*
X90214518Y-129044557D01*
X90254013Y-129066213D01*
X90275739Y-129093146D01*
X90281773Y-129116249D01*
X90280931Y-129145022D01*
X90268881Y-129165982D01*
X90241402Y-129182591D01*
X90194274Y-129198317D01*
X90175622Y-129203393D01*
X90133863Y-129211054D01*
X90073422Y-129217789D01*
X90000188Y-129223376D01*
X89920047Y-129227594D01*
X89838888Y-129230220D01*
X89762599Y-129231032D01*
X89697067Y-129229808D01*
X89648181Y-129226326D01*
X89632779Y-129223878D01*
X89598135Y-129214015D01*
X89574164Y-129202787D01*
X89571585Y-129200665D01*
X89562994Y-129186250D01*
X89555573Y-129160242D01*
X89549197Y-129120837D01*
X89543739Y-129066233D01*
X89539075Y-128994627D01*
X89535077Y-128904216D01*
X89531620Y-128793197D01*
X89528578Y-128659767D01*
X89526743Y-128558925D01*
X89518689Y-128079500D01*
X89549069Y-128079565D01*
X89549069Y-128079565D01*
G37*
X89549069Y-128079565D02*
X89571020Y-128080247D01*
X89613759Y-128082107D01*
X89672715Y-128084924D01*
X89743316Y-128088481D01*
X89820750Y-128092546D01*
X89947068Y-128100280D01*
X90049942Y-128108935D01*
X90131321Y-128118966D01*
X90193158Y-128130827D01*
X90237402Y-128144973D01*
X90266005Y-128161857D01*
X90280916Y-128181934D01*
X90284300Y-128200476D01*
X90277913Y-128230977D01*
X90257230Y-128257197D01*
X90219967Y-128280256D01*
X90163840Y-128301273D01*
X90086564Y-128321368D01*
X90002548Y-128338559D01*
X89913589Y-128359609D01*
X89849386Y-128384681D01*
X89809595Y-128413930D01*
X89798496Y-128430709D01*
X89794912Y-128464312D01*
X89815899Y-128494332D01*
X89860838Y-128520433D01*
X89929109Y-128542281D01*
X90020093Y-128559541D01*
X90043000Y-128562677D01*
X90126606Y-128577765D01*
X90185719Y-128598419D01*
X90220658Y-128624788D01*
X90231248Y-128648773D01*
X90223412Y-128673313D01*
X90192085Y-128695483D01*
X90136763Y-128715481D01*
X90056944Y-128733505D01*
X89986984Y-128744944D01*
X89912443Y-128757237D01*
X89860153Y-128770198D01*
X89826989Y-128785703D01*
X89809831Y-128805628D01*
X89805557Y-128831851D01*
X89808081Y-128852482D01*
X89821473Y-128898589D01*
X89844404Y-128934447D01*
X89880210Y-128962074D01*
X89932233Y-128983489D01*
X90003811Y-129000710D01*
X90072105Y-129012053D01*
X90154725Y-129026923D01*
X90214518Y-129044557D01*
X90254013Y-129066213D01*
X90275739Y-129093146D01*
X90281773Y-129116249D01*
X90280931Y-129145022D01*
X90268881Y-129165982D01*
X90241402Y-129182591D01*
X90194274Y-129198317D01*
X90175622Y-129203393D01*
X90133863Y-129211054D01*
X90073422Y-129217789D01*
X90000188Y-129223376D01*
X89920047Y-129227594D01*
X89838888Y-129230220D01*
X89762599Y-129231032D01*
X89697067Y-129229808D01*
X89648181Y-129226326D01*
X89632779Y-129223878D01*
X89598135Y-129214015D01*
X89574164Y-129202787D01*
X89571585Y-129200665D01*
X89562994Y-129186250D01*
X89555573Y-129160242D01*
X89549197Y-129120837D01*
X89543739Y-129066233D01*
X89539075Y-128994627D01*
X89535077Y-128904216D01*
X89531620Y-128793197D01*
X89528578Y-128659767D01*
X89526743Y-128558925D01*
X89518689Y-128079500D01*
X89549069Y-128079565D01*
G36*
X90642940Y-128082173D02*
X90754474Y-128088385D01*
X90855138Y-128100117D01*
X90939869Y-128116813D01*
X90993284Y-128133567D01*
X91042462Y-128157015D01*
X91077503Y-128185643D01*
X91105199Y-128221718D01*
X91145192Y-128303704D01*
X91164291Y-128396208D01*
X91162452Y-128495241D01*
X91139628Y-128596813D01*
X91110269Y-128669086D01*
X91087528Y-128721473D01*
X91075695Y-128767520D01*
X91075144Y-128813408D01*
X91086251Y-128865320D01*
X91109390Y-128929438D01*
X91128850Y-128975525D01*
X91160981Y-129054978D01*
X91179550Y-129115952D01*
X91184893Y-129161226D01*
X91177345Y-129193581D01*
X91157774Y-129215429D01*
X91109478Y-129235369D01*
X91057470Y-129230792D01*
X91002459Y-129202196D01*
X90945150Y-129150076D01*
X90886250Y-129074930D01*
X90831390Y-128986111D01*
X90788477Y-128912018D01*
X90754301Y-128858922D01*
X90727204Y-128824647D01*
X90705526Y-128807014D01*
X90692092Y-128803400D01*
X90673851Y-128809882D01*
X90658260Y-128831190D01*
X90644246Y-128870112D01*
X90630738Y-128929439D01*
X90619911Y-128991391D01*
X90603631Y-129076822D01*
X90585358Y-129140151D01*
X90563836Y-129184662D01*
X90537807Y-129213644D01*
X90533818Y-129216589D01*
X90494483Y-129233718D01*
X90457344Y-129226200D01*
X90437953Y-129212975D01*
X90425799Y-129198339D01*
X90415529Y-129174800D01*
X90406982Y-129140393D01*
X90399997Y-129093151D01*
X90394413Y-129031109D01*
X90390069Y-128952300D01*
X90386805Y-128854760D01*
X90384459Y-128736520D01*
X90382872Y-128595617D01*
X90382424Y-128534287D01*
X90381823Y-128440437D01*
X90625537Y-128440437D01*
X90629877Y-128486547D01*
X90645723Y-128527479D01*
X90671770Y-128556127D01*
X90693986Y-128564864D01*
X90742065Y-128563034D01*
X90799469Y-128546496D01*
X90850072Y-128521949D01*
X90890190Y-128487570D01*
X90906629Y-128448268D01*
X90899219Y-128407926D01*
X90867791Y-128370429D01*
X90857008Y-128362521D01*
X90807815Y-128340379D01*
X90752625Y-128332324D01*
X90700191Y-128338419D01*
X90659267Y-128358724D01*
X90656593Y-128361113D01*
X90634008Y-128396257D01*
X90625537Y-128440437D01*
X90381823Y-128440437D01*
X90379550Y-128085850D01*
X90525600Y-128082040D01*
X90642940Y-128082173D01*
X90642940Y-128082173D01*
G37*
X90642940Y-128082173D02*
X90754474Y-128088385D01*
X90855138Y-128100117D01*
X90939869Y-128116813D01*
X90993284Y-128133567D01*
X91042462Y-128157015D01*
X91077503Y-128185643D01*
X91105199Y-128221718D01*
X91145192Y-128303704D01*
X91164291Y-128396208D01*
X91162452Y-128495241D01*
X91139628Y-128596813D01*
X91110269Y-128669086D01*
X91087528Y-128721473D01*
X91075695Y-128767520D01*
X91075144Y-128813408D01*
X91086251Y-128865320D01*
X91109390Y-128929438D01*
X91128850Y-128975525D01*
X91160981Y-129054978D01*
X91179550Y-129115952D01*
X91184893Y-129161226D01*
X91177345Y-129193581D01*
X91157774Y-129215429D01*
X91109478Y-129235369D01*
X91057470Y-129230792D01*
X91002459Y-129202196D01*
X90945150Y-129150076D01*
X90886250Y-129074930D01*
X90831390Y-128986111D01*
X90788477Y-128912018D01*
X90754301Y-128858922D01*
X90727204Y-128824647D01*
X90705526Y-128807014D01*
X90692092Y-128803400D01*
X90673851Y-128809882D01*
X90658260Y-128831190D01*
X90644246Y-128870112D01*
X90630738Y-128929439D01*
X90619911Y-128991391D01*
X90603631Y-129076822D01*
X90585358Y-129140151D01*
X90563836Y-129184662D01*
X90537807Y-129213644D01*
X90533818Y-129216589D01*
X90494483Y-129233718D01*
X90457344Y-129226200D01*
X90437953Y-129212975D01*
X90425799Y-129198339D01*
X90415529Y-129174800D01*
X90406982Y-129140393D01*
X90399997Y-129093151D01*
X90394413Y-129031109D01*
X90390069Y-128952300D01*
X90386805Y-128854760D01*
X90384459Y-128736520D01*
X90382872Y-128595617D01*
X90382424Y-128534287D01*
X90381823Y-128440437D01*
X90625537Y-128440437D01*
X90629877Y-128486547D01*
X90645723Y-128527479D01*
X90671770Y-128556127D01*
X90693986Y-128564864D01*
X90742065Y-128563034D01*
X90799469Y-128546496D01*
X90850072Y-128521949D01*
X90890190Y-128487570D01*
X90906629Y-128448268D01*
X90899219Y-128407926D01*
X90867791Y-128370429D01*
X90857008Y-128362521D01*
X90807815Y-128340379D01*
X90752625Y-128332324D01*
X90700191Y-128338419D01*
X90659267Y-128358724D01*
X90656593Y-128361113D01*
X90634008Y-128396257D01*
X90625537Y-128440437D01*
X90381823Y-128440437D01*
X90379550Y-128085850D01*
X90525600Y-128082040D01*
X90642940Y-128082173D01*
G36*
X91423831Y-128106135D02*
X91456949Y-128137951D01*
X91471750Y-128162115D01*
X91478520Y-128176878D01*
X91483970Y-128193145D01*
X91488243Y-128213692D01*
X91491481Y-128241295D01*
X91493826Y-128278730D01*
X91495421Y-128328772D01*
X91496408Y-128394198D01*
X91496929Y-128477782D01*
X91497127Y-128582300D01*
X91497150Y-128657350D01*
X91496899Y-128785920D01*
X91496098Y-128891284D01*
X91494672Y-128975633D01*
X91492545Y-129041157D01*
X91489642Y-129090047D01*
X91485889Y-129124491D01*
X91481211Y-129146680D01*
X91480303Y-129149435D01*
X91455740Y-129195077D01*
X91423097Y-129224115D01*
X91387251Y-129234829D01*
X91353081Y-129225501D01*
X91330149Y-129202331D01*
X91319601Y-129172946D01*
X91310532Y-129120929D01*
X91303076Y-129049015D01*
X91297366Y-128959934D01*
X91293535Y-128856422D01*
X91291717Y-128741211D01*
X91292046Y-128617033D01*
X91294653Y-128486622D01*
X91294859Y-128479550D01*
X91298658Y-128371479D01*
X91303237Y-128286026D01*
X91309027Y-128220409D01*
X91316458Y-128171848D01*
X91325962Y-128137563D01*
X91337968Y-128114772D01*
X91352909Y-128100696D01*
X91353604Y-128100255D01*
X91387524Y-128092596D01*
X91423831Y-128106135D01*
X91423831Y-128106135D01*
G37*
X91423831Y-128106135D02*
X91456949Y-128137951D01*
X91471750Y-128162115D01*
X91478520Y-128176878D01*
X91483970Y-128193145D01*
X91488243Y-128213692D01*
X91491481Y-128241295D01*
X91493826Y-128278730D01*
X91495421Y-128328772D01*
X91496408Y-128394198D01*
X91496929Y-128477782D01*
X91497127Y-128582300D01*
X91497150Y-128657350D01*
X91496899Y-128785920D01*
X91496098Y-128891284D01*
X91494672Y-128975633D01*
X91492545Y-129041157D01*
X91489642Y-129090047D01*
X91485889Y-129124491D01*
X91481211Y-129146680D01*
X91480303Y-129149435D01*
X91455740Y-129195077D01*
X91423097Y-129224115D01*
X91387251Y-129234829D01*
X91353081Y-129225501D01*
X91330149Y-129202331D01*
X91319601Y-129172946D01*
X91310532Y-129120929D01*
X91303076Y-129049015D01*
X91297366Y-128959934D01*
X91293535Y-128856422D01*
X91291717Y-128741211D01*
X91292046Y-128617033D01*
X91294653Y-128486622D01*
X91294859Y-128479550D01*
X91298658Y-128371479D01*
X91303237Y-128286026D01*
X91309027Y-128220409D01*
X91316458Y-128171848D01*
X91325962Y-128137563D01*
X91337968Y-128114772D01*
X91352909Y-128100696D01*
X91353604Y-128100255D01*
X91387524Y-128092596D01*
X91423831Y-128106135D01*
G36*
X91788147Y-128084958D02*
X91819941Y-128096060D01*
X91851067Y-128117946D01*
X91883335Y-128153027D01*
X91918552Y-128203717D01*
X91958526Y-128272430D01*
X92005066Y-128361579D01*
X92024200Y-128399998D01*
X92058475Y-128468266D01*
X92089743Y-128528241D01*
X92116039Y-128576337D01*
X92135400Y-128608969D01*
X92145859Y-128622550D01*
X92146213Y-128622696D01*
X92159299Y-128613572D01*
X92180378Y-128582935D01*
X92208280Y-128532961D01*
X92241834Y-128465826D01*
X92279868Y-128383705D01*
X92302810Y-128331700D01*
X92351011Y-128234055D01*
X92400240Y-128160556D01*
X92450177Y-128111499D01*
X92500503Y-128087181D01*
X92550897Y-128087898D01*
X92562348Y-128091591D01*
X92580752Y-128100665D01*
X92595117Y-128114192D01*
X92605910Y-128135104D01*
X92613597Y-128166330D01*
X92618644Y-128210800D01*
X92621518Y-128271446D01*
X92622685Y-128351198D01*
X92622611Y-128452985D01*
X92622526Y-128469695D01*
X92620190Y-128642111D01*
X92615233Y-128792590D01*
X92607706Y-128920563D01*
X92597664Y-129025461D01*
X92585160Y-129106715D01*
X92570246Y-129163755D01*
X92554803Y-129193925D01*
X92528686Y-129209417D01*
X92496895Y-129204690D01*
X92463737Y-129182881D01*
X92433519Y-129147126D01*
X92410547Y-129100564D01*
X92405832Y-129085402D01*
X92394563Y-129043306D01*
X92381440Y-128993631D01*
X92376919Y-128976354D01*
X92362737Y-128933997D01*
X92348317Y-128916515D01*
X92332840Y-128923389D01*
X92321522Y-128941262D01*
X92280237Y-128998866D01*
X92228268Y-129036846D01*
X92170184Y-129055054D01*
X92110551Y-129053344D01*
X92053937Y-129031568D01*
X92004909Y-128989580D01*
X91979750Y-128952269D01*
X91958431Y-128919716D01*
X91941788Y-128911851D01*
X91928429Y-128928920D01*
X91918640Y-128963126D01*
X91898214Y-129047653D01*
X91877618Y-129111314D01*
X91855144Y-129158597D01*
X91832046Y-129190693D01*
X91796272Y-129223648D01*
X91764432Y-129233629D01*
X91731866Y-129221564D01*
X91720255Y-129212975D01*
X91701394Y-129188412D01*
X91687817Y-129147238D01*
X91680760Y-129108200D01*
X91675043Y-129055149D01*
X91670063Y-128981756D01*
X91665907Y-128893069D01*
X91662663Y-128794138D01*
X91660418Y-128690011D01*
X91659259Y-128585737D01*
X91659274Y-128486365D01*
X91660549Y-128396945D01*
X91663173Y-128322525D01*
X91666381Y-128276350D01*
X91672810Y-128214179D01*
X91678925Y-128171901D01*
X91686265Y-128144079D01*
X91696371Y-128125272D01*
X91710782Y-128110044D01*
X91714371Y-128106901D01*
X91747054Y-128086034D01*
X91780774Y-128083678D01*
X91788147Y-128084958D01*
X91788147Y-128084958D01*
G37*
X91788147Y-128084958D02*
X91819941Y-128096060D01*
X91851067Y-128117946D01*
X91883335Y-128153027D01*
X91918552Y-128203717D01*
X91958526Y-128272430D01*
X92005066Y-128361579D01*
X92024200Y-128399998D01*
X92058475Y-128468266D01*
X92089743Y-128528241D01*
X92116039Y-128576337D01*
X92135400Y-128608969D01*
X92145859Y-128622550D01*
X92146213Y-128622696D01*
X92159299Y-128613572D01*
X92180378Y-128582935D01*
X92208280Y-128532961D01*
X92241834Y-128465826D01*
X92279868Y-128383705D01*
X92302810Y-128331700D01*
X92351011Y-128234055D01*
X92400240Y-128160556D01*
X92450177Y-128111499D01*
X92500503Y-128087181D01*
X92550897Y-128087898D01*
X92562348Y-128091591D01*
X92580752Y-128100665D01*
X92595117Y-128114192D01*
X92605910Y-128135104D01*
X92613597Y-128166330D01*
X92618644Y-128210800D01*
X92621518Y-128271446D01*
X92622685Y-128351198D01*
X92622611Y-128452985D01*
X92622526Y-128469695D01*
X92620190Y-128642111D01*
X92615233Y-128792590D01*
X92607706Y-128920563D01*
X92597664Y-129025461D01*
X92585160Y-129106715D01*
X92570246Y-129163755D01*
X92554803Y-129193925D01*
X92528686Y-129209417D01*
X92496895Y-129204690D01*
X92463737Y-129182881D01*
X92433519Y-129147126D01*
X92410547Y-129100564D01*
X92405832Y-129085402D01*
X92394563Y-129043306D01*
X92381440Y-128993631D01*
X92376919Y-128976354D01*
X92362737Y-128933997D01*
X92348317Y-128916515D01*
X92332840Y-128923389D01*
X92321522Y-128941262D01*
X92280237Y-128998866D01*
X92228268Y-129036846D01*
X92170184Y-129055054D01*
X92110551Y-129053344D01*
X92053937Y-129031568D01*
X92004909Y-128989580D01*
X91979750Y-128952269D01*
X91958431Y-128919716D01*
X91941788Y-128911851D01*
X91928429Y-128928920D01*
X91918640Y-128963126D01*
X91898214Y-129047653D01*
X91877618Y-129111314D01*
X91855144Y-129158597D01*
X91832046Y-129190693D01*
X91796272Y-129223648D01*
X91764432Y-129233629D01*
X91731866Y-129221564D01*
X91720255Y-129212975D01*
X91701394Y-129188412D01*
X91687817Y-129147238D01*
X91680760Y-129108200D01*
X91675043Y-129055149D01*
X91670063Y-128981756D01*
X91665907Y-128893069D01*
X91662663Y-128794138D01*
X91660418Y-128690011D01*
X91659259Y-128585737D01*
X91659274Y-128486365D01*
X91660549Y-128396945D01*
X91663173Y-128322525D01*
X91666381Y-128276350D01*
X91672810Y-128214179D01*
X91678925Y-128171901D01*
X91686265Y-128144079D01*
X91696371Y-128125272D01*
X91710782Y-128110044D01*
X91714371Y-128106901D01*
X91747054Y-128086034D01*
X91780774Y-128083678D01*
X91788147Y-128084958D01*
G36*
X93749913Y-128089754D02*
X93801093Y-128119552D01*
X93860009Y-128172164D01*
X93926958Y-128247818D01*
X94002235Y-128346745D01*
X94086136Y-128469172D01*
X94100050Y-128490449D01*
X94151117Y-128567544D01*
X94192173Y-128626465D01*
X94222464Y-128666208D01*
X94241239Y-128685770D01*
X94247257Y-128686694D01*
X94251002Y-128668474D01*
X94255206Y-128629994D01*
X94259423Y-128576379D01*
X94263206Y-128512751D01*
X94264201Y-128492250D01*
X94267968Y-128415167D01*
X94272250Y-128335445D01*
X94276527Y-128262313D01*
X94280284Y-128204998D01*
X94280403Y-128203345D01*
X94288441Y-128092240D01*
X94626345Y-128099508D01*
X94786709Y-128103460D01*
X94923241Y-128108094D01*
X95037509Y-128113728D01*
X95131079Y-128120682D01*
X95205518Y-128129273D01*
X95262392Y-128139822D01*
X95303268Y-128152646D01*
X95329712Y-128168064D01*
X95343290Y-128186396D01*
X95345570Y-128207959D01*
X95338118Y-128233072D01*
X95333205Y-128243331D01*
X95302193Y-128276870D01*
X95247101Y-128304865D01*
X95170785Y-128326470D01*
X95146712Y-128334781D01*
X95126844Y-128350073D01*
X95110592Y-128374801D01*
X95097365Y-128411419D01*
X95086574Y-128462381D01*
X95077630Y-128530142D01*
X95069941Y-128617155D01*
X95062918Y-128725876D01*
X95059443Y-128789700D01*
X95052870Y-128904916D01*
X95045926Y-128997214D01*
X95037845Y-129069070D01*
X95027862Y-129122964D01*
X95015212Y-129161373D01*
X94999129Y-129186775D01*
X94978848Y-129201649D01*
X94953603Y-129208472D01*
X94929696Y-129209800D01*
X94890936Y-129207437D01*
X94861086Y-129198328D01*
X94838654Y-129179438D01*
X94822144Y-129147731D01*
X94810062Y-129100173D01*
X94800915Y-129033731D01*
X94793207Y-128945369D01*
X94792109Y-128930400D01*
X94782825Y-128803026D01*
X94774964Y-128698489D01*
X94768273Y-128614281D01*
X94762497Y-128547894D01*
X94757384Y-128496820D01*
X94752678Y-128458551D01*
X94748127Y-128430579D01*
X94743476Y-128410396D01*
X94738473Y-128395495D01*
X94737825Y-128393916D01*
X94713146Y-128350359D01*
X94679647Y-128324906D01*
X94629958Y-128312278D01*
X94622598Y-128311378D01*
X94598364Y-128309343D01*
X94579009Y-128310993D01*
X94563900Y-128318873D01*
X94552402Y-128335527D01*
X94543881Y-128363497D01*
X94537704Y-128405329D01*
X94533235Y-128463565D01*
X94529841Y-128540750D01*
X94526888Y-128639427D01*
X94525272Y-128701800D01*
X94522111Y-128804448D01*
X94518174Y-128897433D01*
X94513672Y-128977291D01*
X94508816Y-129040559D01*
X94503818Y-129083774D01*
X94501114Y-129097630D01*
X94477063Y-129157402D01*
X94441223Y-129195398D01*
X94391862Y-129213168D01*
X94369884Y-129214925D01*
X94327627Y-129210854D01*
X94286392Y-129195539D01*
X94244560Y-129167208D01*
X94200514Y-129124090D01*
X94152637Y-129064413D01*
X94099310Y-128986405D01*
X94038915Y-128888295D01*
X93982472Y-128790700D01*
X93885339Y-128619250D01*
X93863869Y-128809750D01*
X93855209Y-128882341D01*
X93846132Y-128951220D01*
X93837545Y-129009948D01*
X93830356Y-129052087D01*
X93828351Y-129061665D01*
X93806121Y-129135642D01*
X93778510Y-129190103D01*
X93746984Y-129223720D01*
X93713009Y-129235167D01*
X93678050Y-129223114D01*
X93663632Y-129210932D01*
X93652407Y-129195504D01*
X93643096Y-129172245D01*
X93635539Y-129138985D01*
X93629576Y-129093553D01*
X93625046Y-129033780D01*
X93621789Y-128957494D01*
X93619644Y-128862526D01*
X93618452Y-128746706D01*
X93618052Y-128607864D01*
X93618050Y-128593850D01*
X93618169Y-128477812D01*
X93618613Y-128384402D01*
X93619516Y-128310850D01*
X93621007Y-128254383D01*
X93623218Y-128212231D01*
X93626281Y-128181622D01*
X93630328Y-128159785D01*
X93635490Y-128143950D01*
X93639831Y-128134963D01*
X93669578Y-128097688D01*
X93706173Y-128082543D01*
X93749913Y-128089754D01*
X93749913Y-128089754D01*
G37*
X93749913Y-128089754D02*
X93801093Y-128119552D01*
X93860009Y-128172164D01*
X93926958Y-128247818D01*
X94002235Y-128346745D01*
X94086136Y-128469172D01*
X94100050Y-128490449D01*
X94151117Y-128567544D01*
X94192173Y-128626465D01*
X94222464Y-128666208D01*
X94241239Y-128685770D01*
X94247257Y-128686694D01*
X94251002Y-128668474D01*
X94255206Y-128629994D01*
X94259423Y-128576379D01*
X94263206Y-128512751D01*
X94264201Y-128492250D01*
X94267968Y-128415167D01*
X94272250Y-128335445D01*
X94276527Y-128262313D01*
X94280284Y-128204998D01*
X94280403Y-128203345D01*
X94288441Y-128092240D01*
X94626345Y-128099508D01*
X94786709Y-128103460D01*
X94923241Y-128108094D01*
X95037509Y-128113728D01*
X95131079Y-128120682D01*
X95205518Y-128129273D01*
X95262392Y-128139822D01*
X95303268Y-128152646D01*
X95329712Y-128168064D01*
X95343290Y-128186396D01*
X95345570Y-128207959D01*
X95338118Y-128233072D01*
X95333205Y-128243331D01*
X95302193Y-128276870D01*
X95247101Y-128304865D01*
X95170785Y-128326470D01*
X95146712Y-128334781D01*
X95126844Y-128350073D01*
X95110592Y-128374801D01*
X95097365Y-128411419D01*
X95086574Y-128462381D01*
X95077630Y-128530142D01*
X95069941Y-128617155D01*
X95062918Y-128725876D01*
X95059443Y-128789700D01*
X95052870Y-128904916D01*
X95045926Y-128997214D01*
X95037845Y-129069070D01*
X95027862Y-129122964D01*
X95015212Y-129161373D01*
X94999129Y-129186775D01*
X94978848Y-129201649D01*
X94953603Y-129208472D01*
X94929696Y-129209800D01*
X94890936Y-129207437D01*
X94861086Y-129198328D01*
X94838654Y-129179438D01*
X94822144Y-129147731D01*
X94810062Y-129100173D01*
X94800915Y-129033731D01*
X94793207Y-128945369D01*
X94792109Y-128930400D01*
X94782825Y-128803026D01*
X94774964Y-128698489D01*
X94768273Y-128614281D01*
X94762497Y-128547894D01*
X94757384Y-128496820D01*
X94752678Y-128458551D01*
X94748127Y-128430579D01*
X94743476Y-128410396D01*
X94738473Y-128395495D01*
X94737825Y-128393916D01*
X94713146Y-128350359D01*
X94679647Y-128324906D01*
X94629958Y-128312278D01*
X94622598Y-128311378D01*
X94598364Y-128309343D01*
X94579009Y-128310993D01*
X94563900Y-128318873D01*
X94552402Y-128335527D01*
X94543881Y-128363497D01*
X94537704Y-128405329D01*
X94533235Y-128463565D01*
X94529841Y-128540750D01*
X94526888Y-128639427D01*
X94525272Y-128701800D01*
X94522111Y-128804448D01*
X94518174Y-128897433D01*
X94513672Y-128977291D01*
X94508816Y-129040559D01*
X94503818Y-129083774D01*
X94501114Y-129097630D01*
X94477063Y-129157402D01*
X94441223Y-129195398D01*
X94391862Y-129213168D01*
X94369884Y-129214925D01*
X94327627Y-129210854D01*
X94286392Y-129195539D01*
X94244560Y-129167208D01*
X94200514Y-129124090D01*
X94152637Y-129064413D01*
X94099310Y-128986405D01*
X94038915Y-128888295D01*
X93982472Y-128790700D01*
X93885339Y-128619250D01*
X93863869Y-128809750D01*
X93855209Y-128882341D01*
X93846132Y-128951220D01*
X93837545Y-129009948D01*
X93830356Y-129052087D01*
X93828351Y-129061665D01*
X93806121Y-129135642D01*
X93778510Y-129190103D01*
X93746984Y-129223720D01*
X93713009Y-129235167D01*
X93678050Y-129223114D01*
X93663632Y-129210932D01*
X93652407Y-129195504D01*
X93643096Y-129172245D01*
X93635539Y-129138985D01*
X93629576Y-129093553D01*
X93625046Y-129033780D01*
X93621789Y-128957494D01*
X93619644Y-128862526D01*
X93618452Y-128746706D01*
X93618052Y-128607864D01*
X93618050Y-128593850D01*
X93618169Y-128477812D01*
X93618613Y-128384402D01*
X93619516Y-128310850D01*
X93621007Y-128254383D01*
X93623218Y-128212231D01*
X93626281Y-128181622D01*
X93630328Y-128159785D01*
X93635490Y-128143950D01*
X93639831Y-128134963D01*
X93669578Y-128097688D01*
X93706173Y-128082543D01*
X93749913Y-128089754D01*
G36*
X97027572Y-128507361D02*
X97026829Y-128669762D01*
X97024900Y-128808140D01*
X97021697Y-128923847D01*
X97017134Y-129018238D01*
X97011121Y-129092665D01*
X97003573Y-129148482D01*
X96994400Y-129187042D01*
X96983515Y-129209697D01*
X96981963Y-129211552D01*
X96947958Y-129232347D01*
X96907488Y-129230280D01*
X96878777Y-129215675D01*
X96861452Y-129199027D01*
X96846836Y-129173804D01*
X96834491Y-129137536D01*
X96823982Y-129087751D01*
X96814870Y-129021980D01*
X96806720Y-128937751D01*
X96799094Y-128832593D01*
X96793009Y-128730515D01*
X96785517Y-128607141D01*
X96778128Y-128508422D01*
X96770770Y-128433613D01*
X96763368Y-128381969D01*
X96755851Y-128352747D01*
X96755827Y-128352690D01*
X96741749Y-128324535D01*
X96724628Y-128311836D01*
X96694709Y-128308751D01*
X96682573Y-128308816D01*
X96612061Y-128317312D01*
X96555032Y-128339526D01*
X96517942Y-128371600D01*
X96507451Y-128391026D01*
X96498151Y-128420683D01*
X96489707Y-128463055D01*
X96481782Y-128520628D01*
X96474039Y-128595885D01*
X96466142Y-128691311D01*
X96457754Y-128809392D01*
X96456881Y-128822450D01*
X96446852Y-128945778D01*
X96434548Y-129045204D01*
X96419557Y-129122156D01*
X96401464Y-129178065D01*
X96379857Y-129214359D01*
X96354322Y-129232466D01*
X96337525Y-129235200D01*
X96305861Y-129226059D01*
X96286981Y-129211934D01*
X96274481Y-129192835D01*
X96263999Y-129163981D01*
X96255245Y-129122939D01*
X96247927Y-129067270D01*
X96241755Y-128994540D01*
X96236438Y-128902313D01*
X96231685Y-128788153D01*
X96229774Y-128732676D01*
X96225210Y-128613098D01*
X96220172Y-128518482D01*
X96214627Y-128448394D01*
X96208541Y-128402401D01*
X96202945Y-128381983D01*
X96180461Y-128352893D01*
X96142507Y-128331547D01*
X96084376Y-128315382D01*
X96078370Y-128314168D01*
X96029777Y-128296023D01*
X95990247Y-128265616D01*
X95965934Y-128228694D01*
X95961200Y-128204723D01*
X95965910Y-128176715D01*
X95984683Y-128158503D01*
X96004574Y-128148980D01*
X96041840Y-128138301D01*
X96100062Y-128128826D01*
X96180017Y-128120496D01*
X96282476Y-128113255D01*
X96408213Y-128107044D01*
X96558001Y-128101806D01*
X96681925Y-128098588D01*
X97028000Y-128090673D01*
X97027572Y-128507361D01*
X97027572Y-128507361D01*
G37*
X97027572Y-128507361D02*
X97026829Y-128669762D01*
X97024900Y-128808140D01*
X97021697Y-128923847D01*
X97017134Y-129018238D01*
X97011121Y-129092665D01*
X97003573Y-129148482D01*
X96994400Y-129187042D01*
X96983515Y-129209697D01*
X96981963Y-129211552D01*
X96947958Y-129232347D01*
X96907488Y-129230280D01*
X96878777Y-129215675D01*
X96861452Y-129199027D01*
X96846836Y-129173804D01*
X96834491Y-129137536D01*
X96823982Y-129087751D01*
X96814870Y-129021980D01*
X96806720Y-128937751D01*
X96799094Y-128832593D01*
X96793009Y-128730515D01*
X96785517Y-128607141D01*
X96778128Y-128508422D01*
X96770770Y-128433613D01*
X96763368Y-128381969D01*
X96755851Y-128352747D01*
X96755827Y-128352690D01*
X96741749Y-128324535D01*
X96724628Y-128311836D01*
X96694709Y-128308751D01*
X96682573Y-128308816D01*
X96612061Y-128317312D01*
X96555032Y-128339526D01*
X96517942Y-128371600D01*
X96507451Y-128391026D01*
X96498151Y-128420683D01*
X96489707Y-128463055D01*
X96481782Y-128520628D01*
X96474039Y-128595885D01*
X96466142Y-128691311D01*
X96457754Y-128809392D01*
X96456881Y-128822450D01*
X96446852Y-128945778D01*
X96434548Y-129045204D01*
X96419557Y-129122156D01*
X96401464Y-129178065D01*
X96379857Y-129214359D01*
X96354322Y-129232466D01*
X96337525Y-129235200D01*
X96305861Y-129226059D01*
X96286981Y-129211934D01*
X96274481Y-129192835D01*
X96263999Y-129163981D01*
X96255245Y-129122939D01*
X96247927Y-129067270D01*
X96241755Y-128994540D01*
X96236438Y-128902313D01*
X96231685Y-128788153D01*
X96229774Y-128732676D01*
X96225210Y-128613098D01*
X96220172Y-128518482D01*
X96214627Y-128448394D01*
X96208541Y-128402401D01*
X96202945Y-128381983D01*
X96180461Y-128352893D01*
X96142507Y-128331547D01*
X96084376Y-128315382D01*
X96078370Y-128314168D01*
X96029777Y-128296023D01*
X95990247Y-128265616D01*
X95965934Y-128228694D01*
X95961200Y-128204723D01*
X95965910Y-128176715D01*
X95984683Y-128158503D01*
X96004574Y-128148980D01*
X96041840Y-128138301D01*
X96100062Y-128128826D01*
X96180017Y-128120496D01*
X96282476Y-128113255D01*
X96408213Y-128107044D01*
X96558001Y-128101806D01*
X96681925Y-128098588D01*
X97028000Y-128090673D01*
X97027572Y-128507361D01*
G36*
X98853434Y-128101236D02*
X98887857Y-128124172D01*
X98913477Y-128162910D01*
X98917108Y-128172696D01*
X98932257Y-128236238D01*
X98944234Y-128324424D01*
X98952996Y-128436694D01*
X98958499Y-128572485D01*
X98960685Y-128727200D01*
X98960297Y-128841718D01*
X98957957Y-128934490D01*
X98953269Y-129009119D01*
X98945837Y-129069212D01*
X98935266Y-129118373D01*
X98921161Y-129160207D01*
X98910631Y-129183714D01*
X98882181Y-129221094D01*
X98845630Y-129235015D01*
X98801977Y-129225735D01*
X98752219Y-129193508D01*
X98697354Y-129138591D01*
X98687018Y-129126322D01*
X98656711Y-129086673D01*
X98617697Y-129031482D01*
X98574266Y-128967030D01*
X98530707Y-128899598D01*
X98514826Y-128874196D01*
X98478283Y-128816513D01*
X98446042Y-128768216D01*
X98420498Y-128732690D01*
X98404049Y-128713321D01*
X98399337Y-128711033D01*
X98394776Y-128726638D01*
X98388191Y-128762543D01*
X98380379Y-128813810D01*
X98372138Y-128875495D01*
X98370064Y-128892300D01*
X98358311Y-128982291D01*
X98347079Y-129051126D01*
X98335284Y-129102997D01*
X98321841Y-129142097D01*
X98305664Y-129172619D01*
X98293049Y-129189996D01*
X98256137Y-129217756D01*
X98207876Y-129230742D01*
X98159154Y-129226454D01*
X98149515Y-129222969D01*
X98125656Y-129210411D01*
X98107428Y-129193335D01*
X98093997Y-129168353D01*
X98084530Y-129132078D01*
X98078195Y-129081121D01*
X98074157Y-129012095D01*
X98071584Y-128921611D01*
X98071248Y-128904675D01*
X98070030Y-128753507D01*
X98072205Y-128614090D01*
X98077583Y-128488317D01*
X98085975Y-128378078D01*
X98097190Y-128285266D01*
X98111038Y-128211773D01*
X98127329Y-128159491D01*
X98145874Y-128130310D01*
X98149267Y-128127764D01*
X98186354Y-128117879D01*
X98234564Y-128124472D01*
X98286802Y-128146321D01*
X98298863Y-128153517D01*
X98337972Y-128181787D01*
X98377941Y-128218411D01*
X98421200Y-128266244D01*
X98470174Y-128328136D01*
X98527291Y-128406940D01*
X98581458Y-128485516D01*
X98698050Y-128657350D01*
X98707551Y-128530350D01*
X98717425Y-128407371D01*
X98726880Y-128308521D01*
X98736074Y-128232535D01*
X98745166Y-128178147D01*
X98754311Y-128144094D01*
X98756243Y-128139431D01*
X98781738Y-128107648D01*
X98816098Y-128095323D01*
X98853434Y-128101236D01*
X98853434Y-128101236D01*
G37*
X98853434Y-128101236D02*
X98887857Y-128124172D01*
X98913477Y-128162910D01*
X98917108Y-128172696D01*
X98932257Y-128236238D01*
X98944234Y-128324424D01*
X98952996Y-128436694D01*
X98958499Y-128572485D01*
X98960685Y-128727200D01*
X98960297Y-128841718D01*
X98957957Y-128934490D01*
X98953269Y-129009119D01*
X98945837Y-129069212D01*
X98935266Y-129118373D01*
X98921161Y-129160207D01*
X98910631Y-129183714D01*
X98882181Y-129221094D01*
X98845630Y-129235015D01*
X98801977Y-129225735D01*
X98752219Y-129193508D01*
X98697354Y-129138591D01*
X98687018Y-129126322D01*
X98656711Y-129086673D01*
X98617697Y-129031482D01*
X98574266Y-128967030D01*
X98530707Y-128899598D01*
X98514826Y-128874196D01*
X98478283Y-128816513D01*
X98446042Y-128768216D01*
X98420498Y-128732690D01*
X98404049Y-128713321D01*
X98399337Y-128711033D01*
X98394776Y-128726638D01*
X98388191Y-128762543D01*
X98380379Y-128813810D01*
X98372138Y-128875495D01*
X98370064Y-128892300D01*
X98358311Y-128982291D01*
X98347079Y-129051126D01*
X98335284Y-129102997D01*
X98321841Y-129142097D01*
X98305664Y-129172619D01*
X98293049Y-129189996D01*
X98256137Y-129217756D01*
X98207876Y-129230742D01*
X98159154Y-129226454D01*
X98149515Y-129222969D01*
X98125656Y-129210411D01*
X98107428Y-129193335D01*
X98093997Y-129168353D01*
X98084530Y-129132078D01*
X98078195Y-129081121D01*
X98074157Y-129012095D01*
X98071584Y-128921611D01*
X98071248Y-128904675D01*
X98070030Y-128753507D01*
X98072205Y-128614090D01*
X98077583Y-128488317D01*
X98085975Y-128378078D01*
X98097190Y-128285266D01*
X98111038Y-128211773D01*
X98127329Y-128159491D01*
X98145874Y-128130310D01*
X98149267Y-128127764D01*
X98186354Y-128117879D01*
X98234564Y-128124472D01*
X98286802Y-128146321D01*
X98298863Y-128153517D01*
X98337972Y-128181787D01*
X98377941Y-128218411D01*
X98421200Y-128266244D01*
X98470174Y-128328136D01*
X98527291Y-128406940D01*
X98581458Y-128485516D01*
X98698050Y-128657350D01*
X98707551Y-128530350D01*
X98717425Y-128407371D01*
X98726880Y-128308521D01*
X98736074Y-128232535D01*
X98745166Y-128178147D01*
X98754311Y-128144094D01*
X98756243Y-128139431D01*
X98781738Y-128107648D01*
X98816098Y-128095323D01*
X98853434Y-128101236D01*
G36*
X103223991Y-128094904D02*
X103304374Y-128105304D01*
X103373059Y-128128241D01*
X103437818Y-128167249D01*
X103501064Y-128220791D01*
X103536217Y-128251523D01*
X103566199Y-128273679D01*
X103584776Y-128282677D01*
X103585293Y-128282700D01*
X103599874Y-128270967D01*
X103616679Y-128238729D01*
X103627328Y-128209675D01*
X103641681Y-128170290D01*
X103658084Y-128140603D01*
X103680046Y-128119415D01*
X103711079Y-128105531D01*
X103754691Y-128097753D01*
X103814392Y-128094884D01*
X103893693Y-128095728D01*
X103955850Y-128097646D01*
X104072256Y-128102797D01*
X104165549Y-128109725D01*
X104237986Y-128119004D01*
X104291824Y-128131210D01*
X104329321Y-128146918D01*
X104352735Y-128166703D01*
X104364323Y-128191141D01*
X104366138Y-128202193D01*
X104363361Y-128233310D01*
X104346712Y-128258495D01*
X104313772Y-128278891D01*
X104262123Y-128295646D01*
X104189348Y-128309905D01*
X104117852Y-128319848D01*
X104034447Y-128334473D01*
X103974221Y-128355675D01*
X103935493Y-128384822D01*
X103916582Y-128423278D01*
X103915807Y-128472411D01*
X103917500Y-128482688D01*
X103927616Y-128513931D01*
X103946953Y-128536811D01*
X103979243Y-128552961D01*
X104028214Y-128564009D01*
X104097598Y-128571588D01*
X104125461Y-128573595D01*
X104212066Y-128582282D01*
X104274447Y-128595465D01*
X104313427Y-128613421D01*
X104329830Y-128636429D01*
X104330500Y-128642974D01*
X104318264Y-128670837D01*
X104283371Y-128696475D01*
X104228541Y-128718706D01*
X104156497Y-128736347D01*
X104093993Y-128745718D01*
X104018543Y-128761537D01*
X103962537Y-128788531D01*
X103927360Y-128825417D01*
X103914397Y-128870914D01*
X103919335Y-128907382D01*
X103933957Y-128938515D01*
X103960008Y-128962782D01*
X104000967Y-128981791D01*
X104060315Y-128997148D01*
X104141530Y-129010462D01*
X104142854Y-129010643D01*
X104226967Y-129024463D01*
X104288508Y-129040457D01*
X104330291Y-129059986D01*
X104355130Y-129084411D01*
X104365840Y-129115093D01*
X104366255Y-129118689D01*
X104366460Y-129144632D01*
X104356791Y-129161496D01*
X104331473Y-129176627D01*
X104314713Y-129184264D01*
X104267128Y-129199594D01*
X104202650Y-129212297D01*
X104126221Y-129222202D01*
X104042778Y-129229135D01*
X103957261Y-129232924D01*
X103874610Y-129233395D01*
X103799764Y-129230377D01*
X103737662Y-129223695D01*
X103693244Y-129213177D01*
X103679321Y-129206499D01*
X103651616Y-129176205D01*
X103623006Y-129120924D01*
X103610589Y-129089942D01*
X103574850Y-128995002D01*
X103478955Y-129093995D01*
X103426778Y-129145386D01*
X103384689Y-129180476D01*
X103347471Y-129203235D01*
X103321117Y-129214094D01*
X103229359Y-129232702D01*
X103136956Y-129227638D01*
X103086904Y-129214332D01*
X103007736Y-129177630D01*
X102934028Y-129126893D01*
X102872164Y-129067406D01*
X102828528Y-129004451D01*
X102825244Y-128997813D01*
X102810621Y-128952358D01*
X102799085Y-128887364D01*
X102791051Y-128808551D01*
X102786934Y-128721640D01*
X102787080Y-128660582D01*
X103017062Y-128660582D01*
X103018264Y-128737802D01*
X103029472Y-128807840D01*
X103050883Y-128865631D01*
X103082691Y-128906113D01*
X103087924Y-128910068D01*
X103104529Y-128920420D01*
X103122067Y-128926653D01*
X103145122Y-128928663D01*
X103178279Y-128926343D01*
X103226125Y-128919588D01*
X103293244Y-128908290D01*
X103312860Y-128904868D01*
X103375008Y-128894634D01*
X103432031Y-128886389D01*
X103476895Y-128881086D01*
X103499691Y-128879600D01*
X103545593Y-128868478D01*
X103578964Y-128835719D01*
X103598968Y-128782233D01*
X103601329Y-128768878D01*
X103605064Y-128725895D01*
X103605780Y-128673191D01*
X103603883Y-128617487D01*
X103599784Y-128565503D01*
X103593889Y-128523959D01*
X103586607Y-128499574D01*
X103584827Y-128497147D01*
X103565421Y-128489148D01*
X103529940Y-128482921D01*
X103503096Y-128480731D01*
X103456928Y-128474544D01*
X103403121Y-128458908D01*
X103335936Y-128432009D01*
X103305179Y-128418216D01*
X103239164Y-128388809D01*
X103191541Y-128370287D01*
X103158144Y-128361867D01*
X103134803Y-128362761D01*
X103117353Y-128372184D01*
X103108398Y-128381125D01*
X103071534Y-128436449D01*
X103043893Y-128504842D01*
X103025670Y-128581241D01*
X103017062Y-128660582D01*
X102787080Y-128660582D01*
X102787148Y-128632349D01*
X102792109Y-128546400D01*
X102792339Y-128543893D01*
X102802754Y-128452564D01*
X102816221Y-128381107D01*
X102834817Y-128324015D01*
X102860619Y-128275779D01*
X102895704Y-128230891D01*
X102919984Y-128205358D01*
X102984486Y-128149847D01*
X103049865Y-128114460D01*
X103122909Y-128096733D01*
X103210404Y-128094199D01*
X103223991Y-128094904D01*
X103223991Y-128094904D01*
G37*
X103223991Y-128094904D02*
X103304374Y-128105304D01*
X103373059Y-128128241D01*
X103437818Y-128167249D01*
X103501064Y-128220791D01*
X103536217Y-128251523D01*
X103566199Y-128273679D01*
X103584776Y-128282677D01*
X103585293Y-128282700D01*
X103599874Y-128270967D01*
X103616679Y-128238729D01*
X103627328Y-128209675D01*
X103641681Y-128170290D01*
X103658084Y-128140603D01*
X103680046Y-128119415D01*
X103711079Y-128105531D01*
X103754691Y-128097753D01*
X103814392Y-128094884D01*
X103893693Y-128095728D01*
X103955850Y-128097646D01*
X104072256Y-128102797D01*
X104165549Y-128109725D01*
X104237986Y-128119004D01*
X104291824Y-128131210D01*
X104329321Y-128146918D01*
X104352735Y-128166703D01*
X104364323Y-128191141D01*
X104366138Y-128202193D01*
X104363361Y-128233310D01*
X104346712Y-128258495D01*
X104313772Y-128278891D01*
X104262123Y-128295646D01*
X104189348Y-128309905D01*
X104117852Y-128319848D01*
X104034447Y-128334473D01*
X103974221Y-128355675D01*
X103935493Y-128384822D01*
X103916582Y-128423278D01*
X103915807Y-128472411D01*
X103917500Y-128482688D01*
X103927616Y-128513931D01*
X103946953Y-128536811D01*
X103979243Y-128552961D01*
X104028214Y-128564009D01*
X104097598Y-128571588D01*
X104125461Y-128573595D01*
X104212066Y-128582282D01*
X104274447Y-128595465D01*
X104313427Y-128613421D01*
X104329830Y-128636429D01*
X104330500Y-128642974D01*
X104318264Y-128670837D01*
X104283371Y-128696475D01*
X104228541Y-128718706D01*
X104156497Y-128736347D01*
X104093993Y-128745718D01*
X104018543Y-128761537D01*
X103962537Y-128788531D01*
X103927360Y-128825417D01*
X103914397Y-128870914D01*
X103919335Y-128907382D01*
X103933957Y-128938515D01*
X103960008Y-128962782D01*
X104000967Y-128981791D01*
X104060315Y-128997148D01*
X104141530Y-129010462D01*
X104142854Y-129010643D01*
X104226967Y-129024463D01*
X104288508Y-129040457D01*
X104330291Y-129059986D01*
X104355130Y-129084411D01*
X104365840Y-129115093D01*
X104366255Y-129118689D01*
X104366460Y-129144632D01*
X104356791Y-129161496D01*
X104331473Y-129176627D01*
X104314713Y-129184264D01*
X104267128Y-129199594D01*
X104202650Y-129212297D01*
X104126221Y-129222202D01*
X104042778Y-129229135D01*
X103957261Y-129232924D01*
X103874610Y-129233395D01*
X103799764Y-129230377D01*
X103737662Y-129223695D01*
X103693244Y-129213177D01*
X103679321Y-129206499D01*
X103651616Y-129176205D01*
X103623006Y-129120924D01*
X103610589Y-129089942D01*
X103574850Y-128995002D01*
X103478955Y-129093995D01*
X103426778Y-129145386D01*
X103384689Y-129180476D01*
X103347471Y-129203235D01*
X103321117Y-129214094D01*
X103229359Y-129232702D01*
X103136956Y-129227638D01*
X103086904Y-129214332D01*
X103007736Y-129177630D01*
X102934028Y-129126893D01*
X102872164Y-129067406D01*
X102828528Y-129004451D01*
X102825244Y-128997813D01*
X102810621Y-128952358D01*
X102799085Y-128887364D01*
X102791051Y-128808551D01*
X102786934Y-128721640D01*
X102787080Y-128660582D01*
X103017062Y-128660582D01*
X103018264Y-128737802D01*
X103029472Y-128807840D01*
X103050883Y-128865631D01*
X103082691Y-128906113D01*
X103087924Y-128910068D01*
X103104529Y-128920420D01*
X103122067Y-128926653D01*
X103145122Y-128928663D01*
X103178279Y-128926343D01*
X103226125Y-128919588D01*
X103293244Y-128908290D01*
X103312860Y-128904868D01*
X103375008Y-128894634D01*
X103432031Y-128886389D01*
X103476895Y-128881086D01*
X103499691Y-128879600D01*
X103545593Y-128868478D01*
X103578964Y-128835719D01*
X103598968Y-128782233D01*
X103601329Y-128768878D01*
X103605064Y-128725895D01*
X103605780Y-128673191D01*
X103603883Y-128617487D01*
X103599784Y-128565503D01*
X103593889Y-128523959D01*
X103586607Y-128499574D01*
X103584827Y-128497147D01*
X103565421Y-128489148D01*
X103529940Y-128482921D01*
X103503096Y-128480731D01*
X103456928Y-128474544D01*
X103403121Y-128458908D01*
X103335936Y-128432009D01*
X103305179Y-128418216D01*
X103239164Y-128388809D01*
X103191541Y-128370287D01*
X103158144Y-128361867D01*
X103134803Y-128362761D01*
X103117353Y-128372184D01*
X103108398Y-128381125D01*
X103071534Y-128436449D01*
X103043893Y-128504842D01*
X103025670Y-128581241D01*
X103017062Y-128660582D01*
X102787080Y-128660582D01*
X102787148Y-128632349D01*
X102792109Y-128546400D01*
X102792339Y-128543893D01*
X102802754Y-128452564D01*
X102816221Y-128381107D01*
X102834817Y-128324015D01*
X102860619Y-128275779D01*
X102895704Y-128230891D01*
X102919984Y-128205358D01*
X102984486Y-128149847D01*
X103049865Y-128114460D01*
X103122909Y-128096733D01*
X103210404Y-128094199D01*
X103223991Y-128094904D01*
D11*
X95002619Y-106834251D02*
X95002619Y-94534251D01*
X99582619Y-94534251D02*
X102722619Y-94534251D01*
X107302619Y-94534251D02*
X107302619Y-106834251D01*
X97722619Y-106834251D02*
X95002619Y-106834251D01*
X105771669Y-100584251D02*
G75*
G03X105771669Y-100584251I-4579050J0D01*
G01*
X107302619Y-106834251D02*
X104582619Y-106834251D01*
X102722619Y-106834251D02*
X99582619Y-106834251D01*
X104582619Y-94534251D02*
X107302619Y-94534251D01*
X95002619Y-94534251D02*
X97722619Y-94534251D01*
X72937564Y-94525326D02*
X72937564Y-106825326D01*
X68357564Y-106825326D02*
X65217564Y-106825326D01*
X60637564Y-106825326D02*
X60637564Y-94525326D01*
X70217564Y-94525326D02*
X72937564Y-94525326D01*
X71326614Y-100775326D02*
G75*
G03X71326614Y-100775326I-4579050J0D01*
G01*
X60637564Y-94525326D02*
X63357564Y-94525326D01*
X65217564Y-94525326D02*
X68357564Y-94525326D01*
X63357564Y-106825326D02*
X60637564Y-106825326D01*
X72937564Y-106825326D02*
X70217564Y-106825326D01*
X81102568Y-44683018D02*
G75*
G02X86627000Y-44682000I2762432J-1171982D01*
G01*
X86162753Y-47783295D02*
G75*
G02X81567000Y-47783000I-2297753J1928295D01*
G01*
X78904000Y-52415000D02*
X78904000Y-48549000D01*
X78904000Y-44160000D02*
X78904000Y-40295000D01*
X88825000Y-52415000D02*
X88825000Y-48549000D01*
X88825000Y-44160000D02*
X88825000Y-40295000D01*
X78904000Y-52415000D02*
X80540000Y-52415000D01*
X82190000Y-52415000D02*
X83040000Y-52415000D01*
X84690000Y-52415000D02*
X85540000Y-52415000D01*
X87190000Y-52415000D02*
X88825000Y-52415000D01*
X78904000Y-40295000D02*
X88825000Y-40295000D01*
X102057568Y-52938018D02*
G75*
G02X107582000Y-52937000I2762432J-1171982D01*
G01*
X107117753Y-56038295D02*
G75*
G02X102522000Y-56038000I-2297753J1928295D01*
G01*
X99859000Y-60670000D02*
X99859000Y-56804000D01*
X99859000Y-52415000D02*
X99859000Y-48550000D01*
X109780000Y-60670000D02*
X109780000Y-56804000D01*
X109780000Y-52415000D02*
X109780000Y-48550000D01*
X99859000Y-60670000D02*
X101495000Y-60670000D01*
X103145000Y-60670000D02*
X103995000Y-60670000D01*
X105645000Y-60670000D02*
X106495000Y-60670000D01*
X108145000Y-60670000D02*
X109780000Y-60670000D01*
X99859000Y-48550000D02*
X109780000Y-48550000D01*
X60184568Y-52938018D02*
G75*
G02X65709000Y-52937000I2762432J-1171982D01*
G01*
X65244753Y-56038295D02*
G75*
G02X60649000Y-56038000I-2297753J1928295D01*
G01*
X57986000Y-60670000D02*
X57986000Y-56804000D01*
X57986000Y-52415000D02*
X57986000Y-48550000D01*
X67907000Y-60670000D02*
X67907000Y-56804000D01*
X67907000Y-52415000D02*
X67907000Y-48550000D01*
X57986000Y-60670000D02*
X59622000Y-60670000D01*
X61272000Y-60670000D02*
X62122000Y-60670000D01*
X63772000Y-60670000D02*
X64622000Y-60670000D01*
X66272000Y-60670000D02*
X67907000Y-60670000D01*
X57986000Y-48550000D02*
X67907000Y-48550000D01*
X81203068Y-81322518D02*
G75*
G02X86727500Y-81321500I2762432J-1171982D01*
G01*
X86263253Y-84422795D02*
G75*
G02X81667500Y-84422500I-2297753J1928295D01*
G01*
X79004500Y-89054500D02*
X79004500Y-85188500D01*
X79004500Y-80799500D02*
X79004500Y-76934500D01*
X88925500Y-89054500D02*
X88925500Y-85188500D01*
X88925500Y-80799500D02*
X88925500Y-76934500D01*
X79004500Y-89054500D02*
X80640500Y-89054500D01*
X82290500Y-89054500D02*
X83140500Y-89054500D01*
X84790500Y-89054500D02*
X85640500Y-89054500D01*
X87290500Y-89054500D02*
X88925500Y-89054500D01*
X79004500Y-76934500D02*
X88925500Y-76934500D01*
D13*
X89174000Y-67057000D02*
X89174000Y-71357000D01*
X89174000Y-71357000D02*
X78974000Y-71357000D01*
X78974000Y-71357000D02*
X78974000Y-66057000D01*
X78974000Y-66057000D02*
X88174000Y-66057000D01*
X88174000Y-66057000D02*
X89174000Y-67057000D01*
X85703210Y-60388500D02*
G75*
G03X85703210Y-60388500I-359210J0D01*
G01*
X86149000Y-61122000D02*
X86149000Y-61072000D01*
X81999000Y-61122000D02*
X81999000Y-60977000D01*
X81999000Y-55972000D02*
X81999000Y-56117000D01*
X86149000Y-55972000D02*
X86149000Y-56117000D01*
X86149000Y-61122000D02*
X81999000Y-61122000D01*
X86149000Y-55972000D02*
X81999000Y-55972000D01*
D11*
X102568500Y-47679000D02*
X100568500Y-47679000D01*
X100568500Y-45539000D02*
X102568500Y-45539000D01*
X66786000Y-47615500D02*
X64786000Y-47615500D01*
X64786000Y-45475500D02*
X66786000Y-45475500D01*
X65779564Y-89799326D02*
X67779564Y-89799326D01*
X67779564Y-91939326D02*
X65779564Y-91939326D01*
X102334619Y-88700251D02*
X100334619Y-88700251D01*
X100334619Y-86560251D02*
X102334619Y-86560251D01*
X102334619Y-92002251D02*
X100334619Y-92002251D01*
X100334619Y-89862251D02*
X102334619Y-89862251D01*
X65779064Y-86306826D02*
X67779064Y-86306826D01*
X67779064Y-88446826D02*
X65779064Y-88446826D01*
D13*
X100837905Y-41068881D02*
X100837905Y-40068881D01*
X101076000Y-40068881D01*
X101218858Y-40116500D01*
X101314096Y-40211738D01*
X101361715Y-40306976D01*
X101409334Y-40497452D01*
X101409334Y-40640310D01*
X101361715Y-40830786D01*
X101314096Y-40926024D01*
X101218858Y-41021262D01*
X101076000Y-41068881D01*
X100837905Y-41068881D01*
X102361715Y-41068881D02*
X101790286Y-41068881D01*
X102076000Y-41068881D02*
X102076000Y-40068881D01*
X101980762Y-40211738D01*
X101885524Y-40306976D01*
X101790286Y-40354595D01*
X65238405Y-41092381D02*
X65238405Y-40092381D01*
X65476500Y-40092381D01*
X65619358Y-40140000D01*
X65714596Y-40235238D01*
X65762215Y-40330476D01*
X65809834Y-40520952D01*
X65809834Y-40663810D01*
X65762215Y-40854286D01*
X65714596Y-40949524D01*
X65619358Y-41044762D01*
X65476500Y-41092381D01*
X65238405Y-41092381D01*
X66190786Y-40187619D02*
X66238405Y-40140000D01*
X66333643Y-40092381D01*
X66571739Y-40092381D01*
X66666977Y-40140000D01*
X66714596Y-40187619D01*
X66762215Y-40282857D01*
X66762215Y-40378095D01*
X66714596Y-40520952D01*
X66143167Y-41092381D01*
X66762215Y-41092381D01*
X95377048Y-91003429D02*
X96138953Y-91003429D01*
X95758001Y-91384381D02*
X95758001Y-90622476D01*
X92837048Y-91003429D02*
X93598953Y-91003429D01*
X96670762Y-106235333D02*
X96718381Y-106092476D01*
X96718381Y-105854380D01*
X96670762Y-105759142D01*
X96623143Y-105711523D01*
X96527905Y-105663904D01*
X96432667Y-105663904D01*
X96337429Y-105711523D01*
X96289810Y-105759142D01*
X96242190Y-105854380D01*
X96194571Y-106044857D01*
X96146952Y-106140095D01*
X96099333Y-106187714D01*
X96004095Y-106235333D01*
X95908857Y-106235333D01*
X95813619Y-106187714D01*
X95766000Y-106140095D01*
X95718381Y-106044857D01*
X95718381Y-105806761D01*
X95766000Y-105663904D01*
X95718381Y-105330571D02*
X96718381Y-105092476D01*
X96004095Y-104901999D01*
X96718381Y-104711523D01*
X95718381Y-104473428D01*
X95813619Y-104140095D02*
X95766000Y-104092476D01*
X95718381Y-103997238D01*
X95718381Y-103759142D01*
X95766000Y-103663904D01*
X95813619Y-103616285D01*
X95908857Y-103568666D01*
X96004095Y-103568666D01*
X96146952Y-103616285D01*
X96718381Y-104187714D01*
X96718381Y-103568666D01*
X72286762Y-106235333D02*
X72334381Y-106092476D01*
X72334381Y-105854380D01*
X72286762Y-105759142D01*
X72239143Y-105711523D01*
X72143905Y-105663904D01*
X72048667Y-105663904D01*
X71953429Y-105711523D01*
X71905810Y-105759142D01*
X71858190Y-105854380D01*
X71810571Y-106044857D01*
X71762952Y-106140095D01*
X71715333Y-106187714D01*
X71620095Y-106235333D01*
X71524857Y-106235333D01*
X71429619Y-106187714D01*
X71382000Y-106140095D01*
X71334381Y-106044857D01*
X71334381Y-105806761D01*
X71382000Y-105663904D01*
X71334381Y-105330571D02*
X72334381Y-105092476D01*
X71620095Y-104901999D01*
X72334381Y-104711523D01*
X71334381Y-104473428D01*
X71334381Y-104187714D02*
X71334381Y-103568666D01*
X71715333Y-103902000D01*
X71715333Y-103759142D01*
X71762952Y-103663904D01*
X71810571Y-103616285D01*
X71905810Y-103568666D01*
X72143905Y-103568666D01*
X72239143Y-103616285D01*
X72286762Y-103663904D01*
X72334381Y-103759142D01*
X72334381Y-104044857D01*
X72286762Y-104140095D01*
X72239143Y-104187714D01*
X80403881Y-51783191D02*
X79403881Y-51783191D01*
X79403881Y-51402238D01*
X79451500Y-51307000D01*
X79499119Y-51259381D01*
X79594357Y-51211762D01*
X79737214Y-51211762D01*
X79832452Y-51259381D01*
X79880071Y-51307000D01*
X79927690Y-51402238D01*
X79927690Y-51783191D01*
X80403881Y-50640334D02*
X80356262Y-50735572D01*
X80308643Y-50783191D01*
X80213405Y-50830810D01*
X79927690Y-50830810D01*
X79832452Y-50783191D01*
X79784833Y-50735572D01*
X79737214Y-50640334D01*
X79737214Y-50497476D01*
X79784833Y-50402238D01*
X79832452Y-50354619D01*
X79927690Y-50307000D01*
X80213405Y-50307000D01*
X80308643Y-50354619D01*
X80356262Y-50402238D01*
X80403881Y-50497476D01*
X80403881Y-50640334D01*
X79737214Y-50021286D02*
X79737214Y-49640334D01*
X79403881Y-49878429D02*
X80261024Y-49878429D01*
X80356262Y-49830810D01*
X80403881Y-49735572D01*
X80403881Y-49640334D01*
X79499119Y-49354619D02*
X79451500Y-49307000D01*
X79403881Y-49211762D01*
X79403881Y-48973666D01*
X79451500Y-48878428D01*
X79499119Y-48830809D01*
X79594357Y-48783190D01*
X79689595Y-48783190D01*
X79832452Y-48830809D01*
X80403881Y-49402238D01*
X80403881Y-48783190D01*
X101358881Y-60038191D02*
X100358881Y-60038191D01*
X100358881Y-59657238D01*
X100406500Y-59562000D01*
X100454119Y-59514381D01*
X100549357Y-59466762D01*
X100692214Y-59466762D01*
X100787452Y-59514381D01*
X100835071Y-59562000D01*
X100882690Y-59657238D01*
X100882690Y-60038191D01*
X101358881Y-58895334D02*
X101311262Y-58990572D01*
X101263643Y-59038191D01*
X101168405Y-59085810D01*
X100882690Y-59085810D01*
X100787452Y-59038191D01*
X100739833Y-58990572D01*
X100692214Y-58895334D01*
X100692214Y-58752476D01*
X100739833Y-58657238D01*
X100787452Y-58609619D01*
X100882690Y-58562000D01*
X101168405Y-58562000D01*
X101263643Y-58609619D01*
X101311262Y-58657238D01*
X101358881Y-58752476D01*
X101358881Y-58895334D01*
X100692214Y-58276286D02*
X100692214Y-57895334D01*
X100358881Y-58133429D02*
X101216024Y-58133429D01*
X101311262Y-58085810D01*
X101358881Y-57990572D01*
X101358881Y-57895334D01*
X100358881Y-57657238D02*
X100358881Y-57038190D01*
X100739833Y-57371524D01*
X100739833Y-57228666D01*
X100787452Y-57133428D01*
X100835071Y-57085809D01*
X100930310Y-57038190D01*
X101168405Y-57038190D01*
X101263643Y-57085809D01*
X101311262Y-57133428D01*
X101358881Y-57228666D01*
X101358881Y-57514381D01*
X101311262Y-57609619D01*
X101263643Y-57657238D01*
X59485881Y-60038191D02*
X58485881Y-60038191D01*
X58485881Y-59657238D01*
X58533500Y-59562000D01*
X58581119Y-59514381D01*
X58676357Y-59466762D01*
X58819214Y-59466762D01*
X58914452Y-59514381D01*
X58962071Y-59562000D01*
X59009690Y-59657238D01*
X59009690Y-60038191D01*
X59485881Y-58895334D02*
X59438262Y-58990572D01*
X59390643Y-59038191D01*
X59295405Y-59085810D01*
X59009690Y-59085810D01*
X58914452Y-59038191D01*
X58866833Y-58990572D01*
X58819214Y-58895334D01*
X58819214Y-58752476D01*
X58866833Y-58657238D01*
X58914452Y-58609619D01*
X59009690Y-58562000D01*
X59295405Y-58562000D01*
X59390643Y-58609619D01*
X59438262Y-58657238D01*
X59485881Y-58752476D01*
X59485881Y-58895334D01*
X58819214Y-58276286D02*
X58819214Y-57895334D01*
X58485881Y-58133429D02*
X59343024Y-58133429D01*
X59438262Y-58085810D01*
X59485881Y-57990572D01*
X59485881Y-57895334D01*
X59485881Y-57038190D02*
X59485881Y-57609619D01*
X59485881Y-57323905D02*
X58485881Y-57323905D01*
X58628738Y-57419143D01*
X58723976Y-57514381D01*
X58771595Y-57609619D01*
X80504381Y-88422691D02*
X79504381Y-88422691D01*
X79504381Y-88041738D01*
X79552000Y-87946500D01*
X79599619Y-87898881D01*
X79694857Y-87851262D01*
X79837714Y-87851262D01*
X79932952Y-87898881D01*
X79980571Y-87946500D01*
X80028190Y-88041738D01*
X80028190Y-88422691D01*
X80504381Y-87279834D02*
X80456762Y-87375072D01*
X80409143Y-87422691D01*
X80313905Y-87470310D01*
X80028190Y-87470310D01*
X79932952Y-87422691D01*
X79885333Y-87375072D01*
X79837714Y-87279834D01*
X79837714Y-87136976D01*
X79885333Y-87041738D01*
X79932952Y-86994119D01*
X80028190Y-86946500D01*
X80313905Y-86946500D01*
X80409143Y-86994119D01*
X80456762Y-87041738D01*
X80504381Y-87136976D01*
X80504381Y-87279834D01*
X79837714Y-86660786D02*
X79837714Y-86279834D01*
X79504381Y-86517929D02*
X80361524Y-86517929D01*
X80456762Y-86470310D01*
X80504381Y-86375072D01*
X80504381Y-86279834D01*
X79837714Y-85517928D02*
X80504381Y-85517928D01*
X79456762Y-85756024D02*
X80171048Y-85994119D01*
X80171048Y-85375071D01*
X88336381Y-69746690D02*
X87336381Y-69746690D01*
X88241143Y-68699071D02*
X88288762Y-68746690D01*
X88336381Y-68889547D01*
X88336381Y-68984785D01*
X88288762Y-69127643D01*
X88193524Y-69222881D01*
X88098286Y-69270500D01*
X87907810Y-69318119D01*
X87764952Y-69318119D01*
X87574476Y-69270500D01*
X87479238Y-69222881D01*
X87384000Y-69127643D01*
X87336381Y-68984785D01*
X87336381Y-68889547D01*
X87384000Y-68746690D01*
X87431619Y-68699071D01*
X88336381Y-67746690D02*
X88336381Y-68318119D01*
X88336381Y-68032405D02*
X87336381Y-68032405D01*
X87479238Y-68127643D01*
X87574476Y-68222881D01*
X87622095Y-68318119D01*
X83097810Y-58999381D02*
X83097810Y-57999381D01*
X84145429Y-58904143D02*
X84097810Y-58951762D01*
X83954953Y-58999381D01*
X83859715Y-58999381D01*
X83716857Y-58951762D01*
X83621619Y-58856524D01*
X83574000Y-58761286D01*
X83526381Y-58570810D01*
X83526381Y-58427952D01*
X83574000Y-58237476D01*
X83621619Y-58142238D01*
X83716857Y-58047000D01*
X83859715Y-57999381D01*
X83954953Y-57999381D01*
X84097810Y-58047000D01*
X84145429Y-58094619D01*
X84526381Y-58094619D02*
X84574000Y-58047000D01*
X84669238Y-57999381D01*
X84907334Y-57999381D01*
X85002572Y-58047000D01*
X85050191Y-58094619D01*
X85097810Y-58189857D01*
X85097810Y-58285095D01*
X85050191Y-58427952D01*
X84478762Y-58999381D01*
X85097810Y-58999381D01*
X101435167Y-47061381D02*
X101168500Y-46585190D01*
X100978024Y-47061381D02*
X100978024Y-46061381D01*
X101282786Y-46061381D01*
X101358977Y-46109000D01*
X101397072Y-46156619D01*
X101435167Y-46251857D01*
X101435167Y-46394714D01*
X101397072Y-46489952D01*
X101358977Y-46537571D01*
X101282786Y-46585190D01*
X100978024Y-46585190D01*
X102197072Y-47061381D02*
X101739929Y-47061381D01*
X101968500Y-47061381D02*
X101968500Y-46061381D01*
X101892310Y-46204238D01*
X101816119Y-46299476D01*
X101739929Y-46347095D01*
X65652667Y-46997881D02*
X65386000Y-46521690D01*
X65195524Y-46997881D02*
X65195524Y-45997881D01*
X65500286Y-45997881D01*
X65576477Y-46045500D01*
X65614572Y-46093119D01*
X65652667Y-46188357D01*
X65652667Y-46331214D01*
X65614572Y-46426452D01*
X65576477Y-46474071D01*
X65500286Y-46521690D01*
X65195524Y-46521690D01*
X65957429Y-46093119D02*
X65995524Y-46045500D01*
X66071715Y-45997881D01*
X66262191Y-45997881D01*
X66338381Y-46045500D01*
X66376477Y-46093119D01*
X66414572Y-46188357D01*
X66414572Y-46283595D01*
X66376477Y-46426452D01*
X65919334Y-46997881D01*
X66414572Y-46997881D01*
X66646231Y-91321707D02*
X66379564Y-90845516D01*
X66189088Y-91321707D02*
X66189088Y-90321707D01*
X66493850Y-90321707D01*
X66570041Y-90369326D01*
X66608136Y-90416945D01*
X66646231Y-90512183D01*
X66646231Y-90655040D01*
X66608136Y-90750278D01*
X66570041Y-90797897D01*
X66493850Y-90845516D01*
X66189088Y-90845516D01*
X66912898Y-90321707D02*
X67408136Y-90321707D01*
X67141469Y-90702659D01*
X67255755Y-90702659D01*
X67331945Y-90750278D01*
X67370041Y-90797897D01*
X67408136Y-90893136D01*
X67408136Y-91131231D01*
X67370041Y-91226469D01*
X67331945Y-91274088D01*
X67255755Y-91321707D01*
X67027183Y-91321707D01*
X66950993Y-91274088D01*
X66912898Y-91226469D01*
X101201286Y-88082632D02*
X100934619Y-87606441D01*
X100744143Y-88082632D02*
X100744143Y-87082632D01*
X101048905Y-87082632D01*
X101125096Y-87130251D01*
X101163191Y-87177870D01*
X101201286Y-87273108D01*
X101201286Y-87415965D01*
X101163191Y-87511203D01*
X101125096Y-87558822D01*
X101048905Y-87606441D01*
X100744143Y-87606441D01*
X101887000Y-87415965D02*
X101887000Y-88082632D01*
X101696524Y-87035013D02*
X101506048Y-87749299D01*
X102001286Y-87749299D01*
X101201286Y-91384632D02*
X100934619Y-90908441D01*
X100744143Y-91384632D02*
X100744143Y-90384632D01*
X101048905Y-90384632D01*
X101125096Y-90432251D01*
X101163191Y-90479870D01*
X101201286Y-90575108D01*
X101201286Y-90717965D01*
X101163191Y-90813203D01*
X101125096Y-90860822D01*
X101048905Y-90908441D01*
X100744143Y-90908441D01*
X101925096Y-90384632D02*
X101544143Y-90384632D01*
X101506048Y-90860822D01*
X101544143Y-90813203D01*
X101620334Y-90765584D01*
X101810810Y-90765584D01*
X101887000Y-90813203D01*
X101925096Y-90860822D01*
X101963191Y-90956061D01*
X101963191Y-91194156D01*
X101925096Y-91289394D01*
X101887000Y-91337013D01*
X101810810Y-91384632D01*
X101620334Y-91384632D01*
X101544143Y-91337013D01*
X101506048Y-91289394D01*
X66645731Y-87829207D02*
X66379064Y-87353016D01*
X66188588Y-87829207D02*
X66188588Y-86829207D01*
X66493350Y-86829207D01*
X66569541Y-86876826D01*
X66607636Y-86924445D01*
X66645731Y-87019683D01*
X66645731Y-87162540D01*
X66607636Y-87257778D01*
X66569541Y-87305397D01*
X66493350Y-87353016D01*
X66188588Y-87353016D01*
X66912398Y-86829207D02*
X67407636Y-86829207D01*
X67140969Y-87210159D01*
X67255255Y-87210159D01*
X67331445Y-87257778D01*
X67369541Y-87305397D01*
X67407636Y-87400636D01*
X67407636Y-87638731D01*
X67369541Y-87733969D01*
X67331445Y-87781588D01*
X67255255Y-87829207D01*
X67026683Y-87829207D01*
X66950493Y-87781588D01*
X66912398Y-87733969D01*
M02*
