G04 #@! TF.FileFunction,Copper,L2,Bot,Signal*
%FSLAX46Y46*%
G04 Gerber Fmt 4.6, Leading zero omitted, Abs format (unit mm)*
G04 Created by KiCad (PCBNEW 4.0.7-e0-6372~58~ubuntu16.04.1) date Fri Aug 17 11:57:39 2018*
%MOMM*%
%LPD*%
G01*
G04 APERTURE LIST*
%ADD10C,0.100000*%
%ADD11R,1.510000X3.010000*%
%ADD12O,1.510000X3.010000*%
%ADD13C,2.181860*%
%ADD14C,1.200000*%
%ADD15C,1.800000*%
%ADD16O,1.727200X3.048000*%
%ADD17C,2.200000*%
%ADD18O,2.000000X4.000000*%
%ADD19R,1.198880X2.499360*%
%ADD20R,2.500000X4.500000*%
%ADD21C,7.400000*%
%ADD22C,0.600000*%
%ADD23C,0.400000*%
%ADD24C,0.254000*%
G04 APERTURE END LIST*
D10*
D11*
X93218000Y-88900000D03*
D12*
X95758000Y-88900000D03*
D13*
X99204780Y-71038720D03*
X99204780Y-73637140D03*
X104203500Y-76136500D03*
X99204780Y-81234280D03*
X99204780Y-78635860D03*
D14*
X99187000Y-76136500D03*
X106680000Y-71120000D03*
X104203500Y-81153000D03*
X104203500Y-71120000D03*
X106680000Y-81153000D03*
D13*
X68580000Y-81338420D03*
X68580000Y-78740000D03*
X63581280Y-76240640D03*
X68580000Y-71142860D03*
X68580000Y-73741280D03*
D14*
X68597780Y-76240640D03*
X61104780Y-81257140D03*
X63581280Y-71224140D03*
X63581280Y-81257140D03*
X61104780Y-71224140D03*
D15*
X72644000Y-66167000D03*
X72644000Y-63627000D03*
X72644000Y-61087000D03*
X72644000Y-58547000D03*
X72644000Y-56007000D03*
X72644000Y-53467000D03*
X72644000Y-50927000D03*
X72644000Y-48387000D03*
X95504000Y-48387000D03*
X95504000Y-50927000D03*
X95504000Y-53467000D03*
X95504000Y-56007000D03*
X95504000Y-58547000D03*
X95504000Y-61087000D03*
X95504000Y-63627000D03*
X95504000Y-66167000D03*
D16*
X98652619Y-94434251D03*
X103652619Y-94434251D03*
X98652619Y-106934251D03*
X103652619Y-106934251D03*
X69287564Y-106925326D03*
X64287564Y-106925326D03*
X69287564Y-94425326D03*
X64287564Y-94425326D03*
D17*
X81365000Y-53355000D03*
X83865000Y-53355000D03*
X86365000Y-53355000D03*
D18*
X79465000Y-46355000D03*
X88265000Y-46355000D03*
D17*
X102320000Y-61610000D03*
X104820000Y-61610000D03*
X107320000Y-61610000D03*
D18*
X100420000Y-54610000D03*
X109220000Y-54610000D03*
D17*
X60447000Y-61610000D03*
X62947000Y-61610000D03*
X65447000Y-61610000D03*
D18*
X58547000Y-54610000D03*
X67347000Y-54610000D03*
D17*
X81465500Y-89994500D03*
X83965500Y-89994500D03*
X86465500Y-89994500D03*
D18*
X79565500Y-82994500D03*
X88365500Y-82994500D03*
D19*
X106616500Y-111760000D03*
X103060500Y-111760000D03*
X99504500Y-111760000D03*
X103060500Y-119380000D03*
X106616500Y-119380000D03*
X99504500Y-119380000D03*
D14*
X99758500Y-115570000D03*
D19*
X60960000Y-119380000D03*
X64516000Y-119380000D03*
X68072000Y-119380000D03*
X64516000Y-111760000D03*
X60960000Y-111760000D03*
X68072000Y-111760000D03*
D14*
X67818000Y-115570000D03*
D20*
X90170000Y-99060000D03*
X77470000Y-99060000D03*
D21*
X83820000Y-99060000D03*
D22*
X91694000Y-86106000D03*
X88900000Y-78740000D03*
X73025000Y-45720000D03*
X88519000Y-73660000D03*
X88265000Y-56642000D03*
X92964000Y-67056000D03*
X84328000Y-66548000D03*
X90170000Y-69850000D03*
X71120000Y-50419000D03*
X71120000Y-47244000D03*
X65913000Y-48260000D03*
X80899000Y-63500000D03*
X77978000Y-55626000D03*
X69977000Y-68640000D03*
X83820000Y-69913500D03*
X84772500Y-68897500D03*
X77978000Y-57912000D03*
X73406000Y-69153000D03*
X74676000Y-69153000D03*
X77978000Y-60452000D03*
X101600000Y-48768000D03*
X98933000Y-67460500D03*
X93853000Y-69024500D03*
X98806000Y-63754000D03*
X96012000Y-75692000D03*
X64897000Y-84772500D03*
X103314500Y-85153500D03*
X86677500Y-66992500D03*
X67056000Y-63500000D03*
D23*
X90170000Y-80434264D02*
X90170000Y-86106000D01*
X90170000Y-86106000D02*
X90170000Y-86290000D01*
X91694000Y-86106000D02*
X90170000Y-86106000D01*
X90170000Y-86290000D02*
X86465500Y-89994500D01*
X88900000Y-78740000D02*
X88900000Y-79164264D01*
X88900000Y-79164264D02*
X90170000Y-80434264D01*
X73025000Y-45720000D02*
X77551001Y-50246001D01*
X87457001Y-50246001D02*
X89281000Y-52070000D01*
X77551001Y-50246001D02*
X87457001Y-50246001D01*
X90424000Y-73660000D02*
X88519000Y-73660000D01*
X91948000Y-72136000D02*
X90424000Y-73660000D01*
X91948000Y-62230000D02*
X91948000Y-72136000D01*
X89281000Y-59563000D02*
X91948000Y-62230000D01*
X89281000Y-56642000D02*
X89281000Y-59563000D01*
X89281000Y-56642000D02*
X88265000Y-56642000D01*
X89281000Y-52070000D02*
X89281000Y-56642000D01*
X92964000Y-48387000D02*
X89281000Y-52070000D01*
X94231208Y-48387000D02*
X92964000Y-48387000D01*
X95504000Y-48387000D02*
X94231208Y-48387000D01*
X92964000Y-76536308D02*
X92964000Y-67056000D01*
X99204780Y-81234280D02*
X97661972Y-81234280D01*
X97661972Y-81234280D02*
X92964000Y-76536308D01*
X90170000Y-69342000D02*
X87122000Y-66294000D01*
X84328000Y-66548000D02*
X84583501Y-66292499D01*
X84583501Y-66292499D02*
X87120499Y-66292499D01*
X87120499Y-66292499D02*
X87122000Y-66294000D01*
X90170000Y-69850000D02*
X90170000Y-69342000D01*
X70866000Y-46990000D02*
X71120000Y-47244000D01*
X70104000Y-46990000D02*
X70866000Y-46990000D01*
X68534001Y-48559999D02*
X70104000Y-46990000D01*
X65913000Y-48260000D02*
X66212999Y-48559999D01*
X66212999Y-48559999D02*
X68534001Y-48559999D01*
X69977000Y-69913500D02*
X69977000Y-68640000D01*
X83820000Y-69913500D02*
X69977000Y-69913500D01*
X84772500Y-68897500D02*
X84348236Y-68897500D01*
X84348236Y-68897500D02*
X82938501Y-67487765D01*
X82938501Y-67487765D02*
X82938501Y-54254999D01*
X82938501Y-54254999D02*
X83838500Y-53355000D01*
X75946000Y-66613000D02*
X75946000Y-59944000D01*
X75946000Y-59944000D02*
X77978000Y-57912000D01*
X73406000Y-69153000D02*
X75946000Y-66613000D01*
X76962000Y-67027490D02*
X74836490Y-69153000D01*
X74836490Y-69153000D02*
X74676000Y-69153000D01*
X76962000Y-61468000D02*
X76962000Y-67027490D01*
X77978000Y-60452000D02*
X76962000Y-61468000D01*
X97790000Y-52153736D02*
X97790000Y-53721000D01*
X97790000Y-53721000D02*
X95504000Y-56007000D01*
X101600000Y-48768000D02*
X101175736Y-48768000D01*
X101175736Y-48768000D02*
X97790000Y-52153736D01*
X90170000Y-99060000D02*
X91820000Y-99060000D01*
X91820000Y-99060000D02*
X95758000Y-95122000D01*
X95758000Y-95122000D02*
X95758000Y-90805000D01*
X95758000Y-90805000D02*
X95758000Y-88900000D01*
X98933000Y-69024500D02*
X98933000Y-67460500D01*
X93853000Y-69024500D02*
X98933000Y-69024500D01*
X96012000Y-75692000D02*
X96575929Y-75128071D01*
X99920428Y-75128071D02*
X100695711Y-74352788D01*
X96575929Y-75128071D02*
X99920428Y-75128071D01*
X100695711Y-74352788D02*
X100695711Y-65643711D01*
X100695711Y-65643711D02*
X98806000Y-63754000D01*
X77216000Y-93472000D02*
X73152000Y-89408000D01*
X77470000Y-99060000D02*
X77470000Y-93726000D01*
X77470000Y-93726000D02*
X77216000Y-93472000D01*
X62484000Y-84582000D02*
X63754000Y-83312000D01*
X64262000Y-89408000D02*
X62484000Y-87630000D01*
X66040000Y-66294000D02*
X69850000Y-62484000D01*
X73152000Y-89408000D02*
X64262000Y-89408000D01*
X69850000Y-62484000D02*
X69850000Y-49022000D01*
X62484000Y-87630000D02*
X62484000Y-84582000D01*
X65278000Y-83312000D02*
X66040000Y-82550000D01*
X70485000Y-48387000D02*
X72644000Y-48387000D01*
X63754000Y-83312000D02*
X65278000Y-83312000D01*
X66040000Y-82550000D02*
X66040000Y-66294000D01*
X69850000Y-49022000D02*
X70485000Y-48387000D01*
X70231000Y-84772500D02*
X64897000Y-84772500D01*
X81579999Y-73423501D02*
X70231000Y-84772500D01*
X86377501Y-73423501D02*
X81579999Y-73423501D01*
X98107500Y-85153500D02*
X103314500Y-85153500D01*
X86377501Y-73423501D02*
X98107500Y-85153500D01*
X86677500Y-66992500D02*
X86377501Y-67292499D01*
X86377501Y-67292499D02*
X86377501Y-73423501D01*
X68072000Y-111760000D02*
X69071440Y-111760000D01*
X69071440Y-111760000D02*
X69342000Y-112030560D01*
X69342000Y-112030560D02*
X69342000Y-119380000D01*
X69342000Y-119380000D02*
X68072000Y-119380000D01*
X67580559Y-102124559D02*
X67580559Y-109618879D01*
X67580559Y-109618879D02*
X68072000Y-110110320D01*
X68072000Y-110110320D02*
X68072000Y-111760000D01*
X61883990Y-96427990D02*
X67580559Y-102124559D01*
X65439990Y-82301468D02*
X65029468Y-82711990D01*
X65029468Y-82711990D02*
X63505467Y-82711991D01*
X63505467Y-82711991D02*
X61883990Y-84333468D01*
X61883990Y-84333468D02*
X61883990Y-96427990D01*
X67056000Y-63500000D02*
X65439990Y-65116010D01*
X65439990Y-65116010D02*
X65439990Y-82301468D01*
X99504500Y-111760000D02*
X98425000Y-111760000D01*
X97790000Y-118999000D02*
X97917000Y-118999000D01*
X98425000Y-111760000D02*
X97790000Y-112395000D01*
X97790000Y-112395000D02*
X97790000Y-118999000D01*
X97917000Y-118999000D02*
X98298000Y-119380000D01*
X98171000Y-119253000D02*
X98298000Y-119380000D01*
X98298000Y-119380000D02*
X99504500Y-119380000D01*
X95504000Y-58547000D02*
X101600000Y-64643000D01*
X104124760Y-109855000D02*
X100314760Y-109855000D01*
X101600000Y-64643000D02*
X101600000Y-82402998D01*
X101600000Y-82402998D02*
X103017002Y-83820000D01*
X103017002Y-83820000D02*
X105410000Y-83820000D01*
X105410000Y-83820000D02*
X106045000Y-84455000D01*
X106045000Y-84455000D02*
X106045000Y-107934760D01*
X106045000Y-107934760D02*
X104124760Y-109855000D01*
X100314760Y-109855000D02*
X99060000Y-111109760D01*
X99060000Y-111109760D02*
X99060000Y-111760000D01*
D24*
G36*
X104713562Y-40790675D02*
X104715087Y-40796942D01*
X104714216Y-40803333D01*
X104751056Y-41407773D01*
X104755423Y-41424375D01*
X104753947Y-41441480D01*
X104812137Y-41967056D01*
X104819452Y-41990161D01*
X104819059Y-42014394D01*
X104902489Y-42472557D01*
X104914295Y-42502421D01*
X104916750Y-42534440D01*
X105029304Y-42936642D01*
X105047067Y-42971680D01*
X105054493Y-43010258D01*
X105200067Y-43367949D01*
X105223940Y-43404160D01*
X105237408Y-43445388D01*
X105419890Y-43770022D01*
X105447518Y-43802266D01*
X105465553Y-43840707D01*
X105688835Y-44143734D01*
X105715924Y-44168440D01*
X105734922Y-44199800D01*
X106002892Y-44492672D01*
X106027487Y-44510733D01*
X106045532Y-44535340D01*
X106366282Y-44829203D01*
X106396901Y-44847780D01*
X106420952Y-44874317D01*
X106749841Y-45118250D01*
X106787578Y-45136099D01*
X106819140Y-45163430D01*
X107165955Y-45360769D01*
X107207575Y-45374606D01*
X107244101Y-45398886D01*
X107618627Y-45552970D01*
X107659310Y-45560961D01*
X107696337Y-45579614D01*
X108108359Y-45693780D01*
X108143882Y-45696412D01*
X108177172Y-45709083D01*
X108636478Y-45786673D01*
X108664776Y-45785852D01*
X108691973Y-45793732D01*
X109208345Y-45838071D01*
X109229361Y-45835735D01*
X109249994Y-45840373D01*
X109833221Y-45854813D01*
X109841385Y-45853398D01*
X109849512Y-45855023D01*
X110611564Y-45855761D01*
X110611564Y-52754625D01*
X110376120Y-52402257D01*
X109845687Y-52047834D01*
X109220000Y-51923377D01*
X108594313Y-52047834D01*
X108063880Y-52402257D01*
X107709457Y-52932690D01*
X107585000Y-53558377D01*
X107585000Y-55661623D01*
X107709457Y-56287310D01*
X108063880Y-56817743D01*
X108594313Y-57172166D01*
X109220000Y-57296623D01*
X109845687Y-57172166D01*
X110376120Y-56817743D01*
X110611564Y-56465375D01*
X110611564Y-139035919D01*
X109845108Y-139041589D01*
X109841219Y-139042393D01*
X109837309Y-139041691D01*
X109289016Y-139051991D01*
X109276709Y-139054680D01*
X109264235Y-139052905D01*
X108804586Y-139078205D01*
X108784110Y-139083463D01*
X108763038Y-139081763D01*
X108372980Y-139127163D01*
X108343688Y-139136618D01*
X108312907Y-139136876D01*
X107973387Y-139207376D01*
X107938066Y-139222355D01*
X107899976Y-139226922D01*
X107591941Y-139327532D01*
X107557324Y-139346988D01*
X107518698Y-139356205D01*
X107223091Y-139491985D01*
X107195982Y-139511624D01*
X107164325Y-139522500D01*
X106862099Y-139698480D01*
X106844876Y-139713697D01*
X106823682Y-139722587D01*
X106495780Y-139943807D01*
X106475374Y-139964396D01*
X106449674Y-139977802D01*
X106102562Y-140256872D01*
X106079992Y-140283816D01*
X106050637Y-140303149D01*
X105896965Y-140454789D01*
X105882770Y-140475730D01*
X105862712Y-140491148D01*
X105721774Y-140652128D01*
X105708784Y-140674672D01*
X105689401Y-140692030D01*
X105560807Y-140863280D01*
X105549492Y-140886840D01*
X105531392Y-140905691D01*
X105414751Y-141088181D01*
X105405445Y-141112006D01*
X105389138Y-141131711D01*
X105284057Y-141326381D01*
X105276860Y-141349761D01*
X105262629Y-141369661D01*
X105168719Y-141577461D01*
X105161132Y-141610145D01*
X105144348Y-141639197D01*
X104988474Y-142097978D01*
X104983529Y-142135464D01*
X104968300Y-142170072D01*
X104852414Y-142692771D01*
X104851764Y-142722543D01*
X104842154Y-142750731D01*
X104763124Y-143344940D01*
X104764571Y-143367471D01*
X104758690Y-143389267D01*
X104713390Y-144062567D01*
X104714523Y-144071286D01*
X104712415Y-144079992D01*
X104676275Y-144957180D01*
X63164978Y-144957180D01*
X63123463Y-144092393D01*
X63122307Y-144087757D01*
X63122949Y-144083020D01*
X63086140Y-143486940D01*
X63082465Y-143473013D01*
X63083806Y-143458671D01*
X63031749Y-142955490D01*
X63024972Y-142933539D01*
X63025594Y-142910570D01*
X62952477Y-142482799D01*
X62940745Y-142452156D01*
X62938525Y-142419422D01*
X62838532Y-142049592D01*
X62820277Y-142012784D01*
X62812653Y-141972408D01*
X62679965Y-141643048D01*
X62656031Y-141606463D01*
X62642562Y-141564877D01*
X62471365Y-141258507D01*
X62446236Y-141229028D01*
X62430254Y-141193741D01*
X62214733Y-140892881D01*
X62193886Y-140873350D01*
X62179998Y-140848386D01*
X61914335Y-140535556D01*
X61894716Y-140520000D01*
X61880997Y-140499055D01*
X61557084Y-140169145D01*
X61527145Y-140148741D01*
X61504231Y-140120671D01*
X61174298Y-139848461D01*
X61135429Y-139827555D01*
X61103391Y-139797204D01*
X60756001Y-139578433D01*
X60711345Y-139561335D01*
X60672420Y-139533560D01*
X60296136Y-139363981D01*
X60251511Y-139353671D01*
X60211036Y-139332234D01*
X59794417Y-139207584D01*
X59755438Y-139203895D01*
X59718987Y-139189597D01*
X59250596Y-139105597D01*
X59220067Y-139106174D01*
X59190770Y-139097570D01*
X58659170Y-139049970D01*
X58637115Y-139052340D01*
X58615474Y-139047461D01*
X58009224Y-139032061D01*
X58000743Y-139033525D01*
X57992302Y-139031840D01*
X57230440Y-139031313D01*
X57230440Y-119665750D01*
X59725560Y-119665750D01*
X59725560Y-120755990D01*
X59822233Y-120989379D01*
X60000862Y-121168007D01*
X60234251Y-121264680D01*
X60674250Y-121264680D01*
X60833000Y-121105930D01*
X60833000Y-119507000D01*
X61087000Y-119507000D01*
X61087000Y-121105930D01*
X61245750Y-121264680D01*
X61685749Y-121264680D01*
X61919138Y-121168007D01*
X62097767Y-120989379D01*
X62194440Y-120755990D01*
X62194440Y-119665750D01*
X62035690Y-119507000D01*
X61087000Y-119507000D01*
X60833000Y-119507000D01*
X59884310Y-119507000D01*
X59725560Y-119665750D01*
X57230440Y-119665750D01*
X57230440Y-118004010D01*
X59725560Y-118004010D01*
X59725560Y-119094250D01*
X59884310Y-119253000D01*
X60833000Y-119253000D01*
X60833000Y-117654070D01*
X61087000Y-117654070D01*
X61087000Y-119253000D01*
X62035690Y-119253000D01*
X62194440Y-119094250D01*
X62194440Y-118130320D01*
X63269120Y-118130320D01*
X63269120Y-120629680D01*
X63313398Y-120864997D01*
X63452470Y-121081121D01*
X63664670Y-121226111D01*
X63916560Y-121277120D01*
X65115440Y-121277120D01*
X65350757Y-121232842D01*
X65566881Y-121093770D01*
X65711871Y-120881570D01*
X65762880Y-120629680D01*
X65762880Y-118130320D01*
X65718602Y-117895003D01*
X65579530Y-117678879D01*
X65367330Y-117533889D01*
X65115440Y-117482880D01*
X63916560Y-117482880D01*
X63681243Y-117527158D01*
X63465119Y-117666230D01*
X63320129Y-117878430D01*
X63269120Y-118130320D01*
X62194440Y-118130320D01*
X62194440Y-118004010D01*
X62097767Y-117770621D01*
X61919138Y-117591993D01*
X61685749Y-117495320D01*
X61245750Y-117495320D01*
X61087000Y-117654070D01*
X60833000Y-117654070D01*
X60674250Y-117495320D01*
X60234251Y-117495320D01*
X60000862Y-117591993D01*
X59822233Y-117770621D01*
X59725560Y-118004010D01*
X57230440Y-118004010D01*
X57230440Y-115814579D01*
X60740786Y-115814579D01*
X60928408Y-116268657D01*
X61275515Y-116616371D01*
X61729266Y-116804785D01*
X62220579Y-116805214D01*
X62674657Y-116617592D01*
X63022371Y-116270485D01*
X63210785Y-115816734D01*
X63211214Y-115325421D01*
X63023592Y-114871343D01*
X62676485Y-114523629D01*
X62222734Y-114335215D01*
X61731421Y-114334786D01*
X61277343Y-114522408D01*
X60929629Y-114869515D01*
X60741215Y-115323266D01*
X60740786Y-115814579D01*
X57230440Y-115814579D01*
X57230440Y-112045750D01*
X59725560Y-112045750D01*
X59725560Y-113135990D01*
X59822233Y-113369379D01*
X60000862Y-113548007D01*
X60234251Y-113644680D01*
X60674250Y-113644680D01*
X60833000Y-113485930D01*
X60833000Y-111887000D01*
X61087000Y-111887000D01*
X61087000Y-113485930D01*
X61245750Y-113644680D01*
X61685749Y-113644680D01*
X61919138Y-113548007D01*
X62097767Y-113369379D01*
X62194440Y-113135990D01*
X62194440Y-112045750D01*
X62035690Y-111887000D01*
X61087000Y-111887000D01*
X60833000Y-111887000D01*
X59884310Y-111887000D01*
X59725560Y-112045750D01*
X57230440Y-112045750D01*
X57230440Y-110384010D01*
X59725560Y-110384010D01*
X59725560Y-111474250D01*
X59884310Y-111633000D01*
X60833000Y-111633000D01*
X60833000Y-110034070D01*
X61087000Y-110034070D01*
X61087000Y-111633000D01*
X62035690Y-111633000D01*
X62194440Y-111474250D01*
X62194440Y-110510320D01*
X63269120Y-110510320D01*
X63269120Y-113009680D01*
X63313398Y-113244997D01*
X63452470Y-113461121D01*
X63664670Y-113606111D01*
X63916560Y-113657120D01*
X65115440Y-113657120D01*
X65350757Y-113612842D01*
X65566881Y-113473770D01*
X65711871Y-113261570D01*
X65762880Y-113009680D01*
X65762880Y-110510320D01*
X65718602Y-110275003D01*
X65579530Y-110058879D01*
X65367330Y-109913889D01*
X65115440Y-109862880D01*
X63916560Y-109862880D01*
X63681243Y-109907158D01*
X63465119Y-110046230D01*
X63320129Y-110258430D01*
X63269120Y-110510320D01*
X62194440Y-110510320D01*
X62194440Y-110384010D01*
X62097767Y-110150621D01*
X61919138Y-109971993D01*
X61685749Y-109875320D01*
X61245750Y-109875320D01*
X61087000Y-110034070D01*
X60833000Y-110034070D01*
X60674250Y-109875320D01*
X60234251Y-109875320D01*
X60000862Y-109971993D01*
X59822233Y-110150621D01*
X59725560Y-110384010D01*
X57230440Y-110384010D01*
X57230440Y-107052326D01*
X62788964Y-107052326D01*
X62788964Y-107712726D01*
X62951639Y-108276548D01*
X63317696Y-108735199D01*
X63831407Y-109018853D01*
X63928538Y-109040684D01*
X64160564Y-108919543D01*
X64160564Y-107052326D01*
X64414564Y-107052326D01*
X64414564Y-108919543D01*
X64646590Y-109040684D01*
X64743721Y-109018853D01*
X65257432Y-108735199D01*
X65623489Y-108276548D01*
X65786164Y-107712726D01*
X65786164Y-107052326D01*
X64414564Y-107052326D01*
X64160564Y-107052326D01*
X62788964Y-107052326D01*
X57230440Y-107052326D01*
X57230440Y-106137926D01*
X62788964Y-106137926D01*
X62788964Y-106798326D01*
X64160564Y-106798326D01*
X64160564Y-104931109D01*
X64414564Y-104931109D01*
X64414564Y-106798326D01*
X65786164Y-106798326D01*
X65786164Y-106137926D01*
X65623489Y-105574104D01*
X65257432Y-105115453D01*
X64743721Y-104831799D01*
X64646590Y-104809968D01*
X64414564Y-104931109D01*
X64160564Y-104931109D01*
X63928538Y-104809968D01*
X63831407Y-104831799D01*
X63317696Y-105115453D01*
X62951639Y-105574104D01*
X62788964Y-106137926D01*
X57230440Y-106137926D01*
X57230440Y-81501719D01*
X59869566Y-81501719D01*
X60057188Y-81955797D01*
X60404295Y-82303511D01*
X60858046Y-82491925D01*
X61349359Y-82492354D01*
X61803437Y-82304732D01*
X62151151Y-81957625D01*
X62339565Y-81503874D01*
X62339994Y-81012561D01*
X62152372Y-80558483D01*
X61805265Y-80210769D01*
X61351514Y-80022355D01*
X60860201Y-80021926D01*
X60406123Y-80209548D01*
X60058409Y-80556655D01*
X59869995Y-81010406D01*
X59869566Y-81501719D01*
X57230440Y-81501719D01*
X57230440Y-75954398D01*
X61844973Y-75954398D01*
X61867601Y-76640643D01*
X62086682Y-77169549D01*
X62362972Y-77279343D01*
X63401675Y-76240640D01*
X62362972Y-75201937D01*
X62086682Y-75311731D01*
X61844973Y-75954398D01*
X57230440Y-75954398D01*
X57230440Y-71468719D01*
X59869566Y-71468719D01*
X60057188Y-71922797D01*
X60404295Y-72270511D01*
X60858046Y-72458925D01*
X61349359Y-72459354D01*
X61803437Y-72271732D01*
X62151151Y-71924625D01*
X62339565Y-71470874D01*
X62339994Y-70979561D01*
X62152372Y-70525483D01*
X61805265Y-70177769D01*
X61351514Y-69989355D01*
X60860201Y-69988926D01*
X60406123Y-70176548D01*
X60058409Y-70523655D01*
X59869995Y-70977406D01*
X59869566Y-71468719D01*
X57230440Y-71468719D01*
X57230440Y-62834868D01*
X59401737Y-62834868D01*
X59512641Y-63112099D01*
X60158593Y-63355323D01*
X60848453Y-63332836D01*
X61381359Y-63112099D01*
X61492263Y-62834868D01*
X60447000Y-61789605D01*
X59401737Y-62834868D01*
X57230440Y-62834868D01*
X57230440Y-61321593D01*
X58701677Y-61321593D01*
X58724164Y-62011453D01*
X58944901Y-62544359D01*
X59222132Y-62655263D01*
X60267395Y-61610000D01*
X60626605Y-61610000D01*
X61381744Y-62365139D01*
X61475281Y-62591515D01*
X61962918Y-63080004D01*
X62600373Y-63344699D01*
X63290599Y-63345301D01*
X63928515Y-63081719D01*
X64197040Y-62813662D01*
X64462918Y-63080004D01*
X65100373Y-63344699D01*
X65790599Y-63345301D01*
X66173534Y-63187075D01*
X66163222Y-63211910D01*
X64849556Y-64525576D01*
X64668551Y-64796469D01*
X64604990Y-65116010D01*
X64604990Y-70501559D01*
X64281765Y-70177769D01*
X63828014Y-69989355D01*
X63336701Y-69988926D01*
X62882623Y-70176548D01*
X62534909Y-70523655D01*
X62346495Y-70977406D01*
X62346066Y-71468719D01*
X62533688Y-71922797D01*
X62880795Y-72270511D01*
X63334546Y-72458925D01*
X63825859Y-72459354D01*
X64279937Y-72271732D01*
X64604990Y-71947246D01*
X64604990Y-74984603D01*
X64510189Y-74746042D01*
X63867522Y-74504333D01*
X63181277Y-74526961D01*
X62652371Y-74746042D01*
X62542577Y-75022332D01*
X63581280Y-76061035D01*
X63595423Y-76046893D01*
X63775028Y-76226498D01*
X63760885Y-76240640D01*
X63775028Y-76254783D01*
X63595423Y-76434388D01*
X63581280Y-76420245D01*
X62542577Y-77458948D01*
X62652371Y-77735238D01*
X63295038Y-77976947D01*
X63981283Y-77954319D01*
X64510189Y-77735238D01*
X64604990Y-77496677D01*
X64604990Y-80534559D01*
X64281765Y-80210769D01*
X63828014Y-80022355D01*
X63336701Y-80021926D01*
X62882623Y-80209548D01*
X62534909Y-80556655D01*
X62346495Y-81010406D01*
X62346066Y-81501719D01*
X62533688Y-81955797D01*
X62807002Y-82229588D01*
X61293556Y-83743034D01*
X61112551Y-84013927D01*
X61048990Y-84333468D01*
X61048990Y-96427990D01*
X61112551Y-96747531D01*
X61293556Y-97018424D01*
X66745559Y-102470427D01*
X66745559Y-109618879D01*
X66809120Y-109938420D01*
X66941400Y-110136391D01*
X66950356Y-110149795D01*
X66876129Y-110258430D01*
X66825120Y-110510320D01*
X66825120Y-113009680D01*
X66869398Y-113244997D01*
X67008470Y-113461121D01*
X67220670Y-113606111D01*
X67472560Y-113657120D01*
X68507000Y-113657120D01*
X68507000Y-114518860D01*
X68064734Y-114335215D01*
X67573421Y-114334786D01*
X67119343Y-114522408D01*
X66771629Y-114869515D01*
X66583215Y-115323266D01*
X66582786Y-115814579D01*
X66770408Y-116268657D01*
X67117515Y-116616371D01*
X67571266Y-116804785D01*
X68062579Y-116805214D01*
X68507000Y-116621582D01*
X68507000Y-117482880D01*
X67472560Y-117482880D01*
X67237243Y-117527158D01*
X67021119Y-117666230D01*
X66876129Y-117878430D01*
X66825120Y-118130320D01*
X66825120Y-120629680D01*
X66869398Y-120864997D01*
X67008470Y-121081121D01*
X67220670Y-121226111D01*
X67472560Y-121277120D01*
X68671440Y-121277120D01*
X68906757Y-121232842D01*
X69122881Y-121093770D01*
X69267871Y-120881570D01*
X69318880Y-120629680D01*
X69318880Y-120215000D01*
X69342000Y-120215000D01*
X69661541Y-120151439D01*
X69932434Y-119970434D01*
X70113439Y-119699541D01*
X70177000Y-119380000D01*
X70177000Y-112030560D01*
X70171000Y-112000394D01*
X70113440Y-111711020D01*
X69932434Y-111440126D01*
X69661874Y-111169566D01*
X69600907Y-111128829D01*
X69390981Y-110988561D01*
X69318880Y-110974219D01*
X69318880Y-110615639D01*
X77097563Y-110615639D01*
X77100504Y-110632610D01*
X77097563Y-110649581D01*
X77105099Y-110953659D01*
X77108872Y-110970441D01*
X77106777Y-110987514D01*
X77129248Y-111289528D01*
X77136096Y-111314212D01*
X77134861Y-111339799D01*
X77223771Y-111935625D01*
X77235236Y-111967580D01*
X77236928Y-112001485D01*
X77383076Y-112583025D01*
X77397559Y-112613585D01*
X77402531Y-112647034D01*
X77604252Y-113210266D01*
X77621621Y-113239225D01*
X77629817Y-113271986D01*
X77885444Y-113812889D01*
X77905580Y-113840057D01*
X77916948Y-113871906D01*
X78224817Y-114386459D01*
X78247594Y-114411629D01*
X78262083Y-114442332D01*
X78620528Y-114926514D01*
X78639493Y-114943733D01*
X78652106Y-114966031D01*
X78849774Y-115195477D01*
X78863325Y-115206066D01*
X78872523Y-115220599D01*
X79082209Y-115440944D01*
X79096291Y-115450867D01*
X79106214Y-115464949D01*
X79326559Y-115674634D01*
X79341091Y-115683831D01*
X79351682Y-115697385D01*
X79581127Y-115895052D01*
X79603424Y-115907664D01*
X79620644Y-115926631D01*
X80104826Y-116285075D01*
X80135527Y-116299563D01*
X80160699Y-116322342D01*
X80675252Y-116630210D01*
X80707101Y-116641578D01*
X80734269Y-116661714D01*
X81275172Y-116917341D01*
X81307934Y-116925537D01*
X81336893Y-116942906D01*
X81900124Y-117144627D01*
X81933573Y-117149599D01*
X81964133Y-117164082D01*
X82545673Y-117310230D01*
X82579578Y-117311922D01*
X82611533Y-117323387D01*
X83207359Y-117412297D01*
X83232946Y-117411062D01*
X83257630Y-117417910D01*
X83559644Y-117440381D01*
X83576717Y-117438286D01*
X83593499Y-117442059D01*
X83897576Y-117449595D01*
X83914548Y-117446654D01*
X83931519Y-117449595D01*
X84235597Y-117442059D01*
X84252379Y-117438286D01*
X84269452Y-117440381D01*
X84571466Y-117417910D01*
X84596150Y-117411062D01*
X84621737Y-117412297D01*
X85217563Y-117323387D01*
X85249518Y-117311922D01*
X85283423Y-117310230D01*
X85864963Y-117164082D01*
X85895523Y-117149599D01*
X85928972Y-117144627D01*
X86492204Y-116942906D01*
X86521163Y-116925537D01*
X86553924Y-116917341D01*
X87094827Y-116661714D01*
X87121995Y-116641578D01*
X87153844Y-116630210D01*
X87668397Y-116322341D01*
X87693567Y-116299564D01*
X87724270Y-116285075D01*
X88208452Y-115926630D01*
X88225671Y-115907665D01*
X88247969Y-115895052D01*
X88477415Y-115697384D01*
X88488004Y-115683833D01*
X88502537Y-115674635D01*
X88722882Y-115464949D01*
X88732805Y-115450867D01*
X88746887Y-115440944D01*
X88956572Y-115220599D01*
X88965769Y-115206067D01*
X88979323Y-115195476D01*
X89176990Y-114966031D01*
X89189602Y-114943734D01*
X89208569Y-114926514D01*
X89567013Y-114442332D01*
X89581501Y-114411631D01*
X89604280Y-114386459D01*
X89912148Y-113871906D01*
X89923516Y-113840057D01*
X89943652Y-113812889D01*
X90199279Y-113271986D01*
X90207475Y-113239224D01*
X90224844Y-113210265D01*
X90426565Y-112647034D01*
X90431537Y-112613585D01*
X90446020Y-112583025D01*
X90592168Y-112001485D01*
X90593860Y-111967580D01*
X90605325Y-111935625D01*
X90694235Y-111339799D01*
X90693000Y-111314212D01*
X90699848Y-111289528D01*
X90722319Y-110987514D01*
X90720224Y-110970441D01*
X90723997Y-110953659D01*
X90731533Y-110649582D01*
X90730059Y-110641076D01*
X90731743Y-110632610D01*
X90730059Y-110624144D01*
X90731533Y-110615638D01*
X90723997Y-110311561D01*
X90720224Y-110294779D01*
X90722319Y-110277706D01*
X90699848Y-109975692D01*
X90693000Y-109951008D01*
X90694235Y-109925421D01*
X90605325Y-109329595D01*
X90593860Y-109297640D01*
X90592168Y-109263735D01*
X90446020Y-108682195D01*
X90431537Y-108651635D01*
X90426565Y-108618186D01*
X90224844Y-108054955D01*
X90207475Y-108025996D01*
X90199279Y-107993234D01*
X89943652Y-107452331D01*
X89923516Y-107425163D01*
X89912148Y-107393314D01*
X89604280Y-106878761D01*
X89581501Y-106853589D01*
X89567013Y-106822888D01*
X89208569Y-106338706D01*
X89189602Y-106321486D01*
X89176990Y-106299189D01*
X89118723Y-106231554D01*
X97154019Y-106231554D01*
X97154019Y-107636948D01*
X97268093Y-108210437D01*
X97592949Y-108696618D01*
X98079130Y-109021474D01*
X98652619Y-109135548D01*
X99226108Y-109021474D01*
X99712289Y-108696618D01*
X100037145Y-108210437D01*
X100151219Y-107636948D01*
X100151219Y-106231554D01*
X100134371Y-106146851D01*
X102154019Y-106146851D01*
X102154019Y-106807251D01*
X103525619Y-106807251D01*
X103525619Y-104940034D01*
X103779619Y-104940034D01*
X103779619Y-106807251D01*
X105151219Y-106807251D01*
X105151219Y-106146851D01*
X104988544Y-105583029D01*
X104622487Y-105124378D01*
X104108776Y-104840724D01*
X104011645Y-104818893D01*
X103779619Y-104940034D01*
X103525619Y-104940034D01*
X103293593Y-104818893D01*
X103196462Y-104840724D01*
X102682751Y-105124378D01*
X102316694Y-105583029D01*
X102154019Y-106146851D01*
X100134371Y-106146851D01*
X100037145Y-105658065D01*
X99712289Y-105171884D01*
X99226108Y-104847028D01*
X98652619Y-104732954D01*
X98079130Y-104847028D01*
X97592949Y-105171884D01*
X97268093Y-105658065D01*
X97154019Y-106231554D01*
X89118723Y-106231554D01*
X88979323Y-106069744D01*
X88965769Y-106059153D01*
X88956572Y-106044621D01*
X88746887Y-105824276D01*
X88732805Y-105814353D01*
X88722882Y-105800271D01*
X88502537Y-105590585D01*
X88488004Y-105581387D01*
X88477415Y-105567836D01*
X88247969Y-105370168D01*
X88225671Y-105357555D01*
X88208452Y-105338590D01*
X87724270Y-104980145D01*
X87693567Y-104965656D01*
X87668397Y-104942879D01*
X87153844Y-104635010D01*
X87121995Y-104623642D01*
X87094827Y-104603506D01*
X86553924Y-104347879D01*
X86521163Y-104339683D01*
X86492204Y-104322314D01*
X85928972Y-104120593D01*
X85895523Y-104115621D01*
X85864963Y-104101138D01*
X85283423Y-103954990D01*
X85249518Y-103953298D01*
X85217563Y-103941833D01*
X84621737Y-103852923D01*
X84596150Y-103854158D01*
X84571466Y-103847310D01*
X84269452Y-103824839D01*
X84252379Y-103826934D01*
X84235597Y-103823161D01*
X83931519Y-103815625D01*
X83914548Y-103818566D01*
X83897576Y-103815625D01*
X83593499Y-103823161D01*
X83576717Y-103826934D01*
X83559644Y-103824839D01*
X83257630Y-103847310D01*
X83232946Y-103854158D01*
X83207359Y-103852923D01*
X82611533Y-103941833D01*
X82579578Y-103953298D01*
X82545673Y-103954990D01*
X81964133Y-104101138D01*
X81933573Y-104115621D01*
X81900124Y-104120593D01*
X81336893Y-104322314D01*
X81307934Y-104339683D01*
X81275172Y-104347879D01*
X80734269Y-104603506D01*
X80707101Y-104623642D01*
X80675252Y-104635010D01*
X80160699Y-104942878D01*
X80135527Y-104965657D01*
X80104826Y-104980145D01*
X79620644Y-105338589D01*
X79603424Y-105357556D01*
X79581127Y-105370168D01*
X79351682Y-105567835D01*
X79341091Y-105581389D01*
X79326559Y-105590586D01*
X79106214Y-105800271D01*
X79096291Y-105814353D01*
X79082209Y-105824276D01*
X78872523Y-106044621D01*
X78863325Y-106059154D01*
X78849774Y-106069743D01*
X78652106Y-106299189D01*
X78639493Y-106321487D01*
X78620528Y-106338706D01*
X78262083Y-106822888D01*
X78247594Y-106853591D01*
X78224817Y-106878761D01*
X77916948Y-107393314D01*
X77905580Y-107425163D01*
X77885444Y-107452331D01*
X77629817Y-107993234D01*
X77621621Y-108025995D01*
X77604252Y-108054954D01*
X77402531Y-108618186D01*
X77397559Y-108651635D01*
X77383076Y-108682195D01*
X77236928Y-109263735D01*
X77235236Y-109297640D01*
X77223771Y-109329595D01*
X77134861Y-109925421D01*
X77136096Y-109951008D01*
X77129248Y-109975692D01*
X77106777Y-110277706D01*
X77108872Y-110294779D01*
X77105099Y-110311561D01*
X77097563Y-110615639D01*
X69318880Y-110615639D01*
X69318880Y-110510320D01*
X69274602Y-110275003D01*
X69135530Y-110058879D01*
X68923330Y-109913889D01*
X68865602Y-109902199D01*
X68843440Y-109790780D01*
X68662434Y-109519886D01*
X68415559Y-109273011D01*
X68415559Y-108813087D01*
X68714075Y-109012549D01*
X69287564Y-109126623D01*
X69861053Y-109012549D01*
X70347234Y-108687693D01*
X70672090Y-108201512D01*
X70786164Y-107628023D01*
X70786164Y-106222629D01*
X70672090Y-105649140D01*
X70347234Y-105162959D01*
X69861053Y-104838103D01*
X69287564Y-104724029D01*
X68714075Y-104838103D01*
X68415559Y-105037565D01*
X68415559Y-102124559D01*
X68351998Y-101805018D01*
X68170993Y-101534125D01*
X62718990Y-96082122D01*
X62718990Y-94552326D01*
X62788964Y-94552326D01*
X62788964Y-95212726D01*
X62951639Y-95776548D01*
X63317696Y-96235199D01*
X63831407Y-96518853D01*
X63928538Y-96540684D01*
X64160564Y-96419543D01*
X64160564Y-94552326D01*
X64414564Y-94552326D01*
X64414564Y-96419543D01*
X64646590Y-96540684D01*
X64743721Y-96518853D01*
X65257432Y-96235199D01*
X65623489Y-95776548D01*
X65786164Y-95212726D01*
X65786164Y-94552326D01*
X64414564Y-94552326D01*
X64160564Y-94552326D01*
X62788964Y-94552326D01*
X62718990Y-94552326D01*
X62718990Y-93637926D01*
X62788964Y-93637926D01*
X62788964Y-94298326D01*
X64160564Y-94298326D01*
X64160564Y-92431109D01*
X64414564Y-92431109D01*
X64414564Y-94298326D01*
X65786164Y-94298326D01*
X65786164Y-93722629D01*
X67788964Y-93722629D01*
X67788964Y-95128023D01*
X67903038Y-95701512D01*
X68227894Y-96187693D01*
X68714075Y-96512549D01*
X69287564Y-96626623D01*
X69861053Y-96512549D01*
X70347234Y-96187693D01*
X70672090Y-95701512D01*
X70786164Y-95128023D01*
X70786164Y-93722629D01*
X70672090Y-93149140D01*
X70347234Y-92662959D01*
X69861053Y-92338103D01*
X69287564Y-92224029D01*
X68714075Y-92338103D01*
X68227894Y-92662959D01*
X67903038Y-93149140D01*
X67788964Y-93722629D01*
X65786164Y-93722629D01*
X65786164Y-93637926D01*
X65623489Y-93074104D01*
X65257432Y-92615453D01*
X64743721Y-92331799D01*
X64646590Y-92309968D01*
X64414564Y-92431109D01*
X64160564Y-92431109D01*
X63928538Y-92309968D01*
X63831407Y-92331799D01*
X63317696Y-92615453D01*
X62951639Y-93074104D01*
X62788964Y-93637926D01*
X62718990Y-93637926D01*
X62718990Y-89045858D01*
X63671566Y-89998434D01*
X63942460Y-90179440D01*
X64262000Y-90243000D01*
X72806132Y-90243000D01*
X76635000Y-94071868D01*
X76635000Y-96162560D01*
X76220000Y-96162560D01*
X75984683Y-96206838D01*
X75768559Y-96345910D01*
X75623569Y-96558110D01*
X75572560Y-96810000D01*
X75572560Y-101310000D01*
X75616838Y-101545317D01*
X75755910Y-101761441D01*
X75968110Y-101906431D01*
X76220000Y-101957440D01*
X78720000Y-101957440D01*
X78955317Y-101913162D01*
X79171441Y-101774090D01*
X79316431Y-101561890D01*
X79367440Y-101310000D01*
X79367440Y-99918502D01*
X79484249Y-99918502D01*
X80142823Y-101512372D01*
X81361213Y-102732892D01*
X82953932Y-103394246D01*
X84678502Y-103395751D01*
X86272372Y-102737177D01*
X87492892Y-101518787D01*
X88154246Y-99926068D01*
X88155751Y-98201498D01*
X87580796Y-96810000D01*
X88272560Y-96810000D01*
X88272560Y-101310000D01*
X88316838Y-101545317D01*
X88455910Y-101761441D01*
X88668110Y-101906431D01*
X88920000Y-101957440D01*
X91420000Y-101957440D01*
X91655317Y-101913162D01*
X91871441Y-101774090D01*
X92016431Y-101561890D01*
X92067440Y-101310000D01*
X92067440Y-99845781D01*
X92139541Y-99831439D01*
X92410434Y-99650434D01*
X96348434Y-95712434D01*
X96428244Y-95592990D01*
X96529439Y-95441541D01*
X96593000Y-95122000D01*
X96593000Y-93731554D01*
X97154019Y-93731554D01*
X97154019Y-95136948D01*
X97268093Y-95710437D01*
X97592949Y-96196618D01*
X98079130Y-96521474D01*
X98652619Y-96635548D01*
X99226108Y-96521474D01*
X99712289Y-96196618D01*
X100037145Y-95710437D01*
X100151219Y-95136948D01*
X100151219Y-94561251D01*
X102154019Y-94561251D01*
X102154019Y-95221651D01*
X102316694Y-95785473D01*
X102682751Y-96244124D01*
X103196462Y-96527778D01*
X103293593Y-96549609D01*
X103525619Y-96428468D01*
X103525619Y-94561251D01*
X103779619Y-94561251D01*
X103779619Y-96428468D01*
X104011645Y-96549609D01*
X104108776Y-96527778D01*
X104622487Y-96244124D01*
X104988544Y-95785473D01*
X105151219Y-95221651D01*
X105151219Y-94561251D01*
X103779619Y-94561251D01*
X103525619Y-94561251D01*
X102154019Y-94561251D01*
X100151219Y-94561251D01*
X100151219Y-93731554D01*
X100134371Y-93646851D01*
X102154019Y-93646851D01*
X102154019Y-94307251D01*
X103525619Y-94307251D01*
X103525619Y-92440034D01*
X103779619Y-92440034D01*
X103779619Y-94307251D01*
X105151219Y-94307251D01*
X105151219Y-93646851D01*
X104988544Y-93083029D01*
X104622487Y-92624378D01*
X104108776Y-92340724D01*
X104011645Y-92318893D01*
X103779619Y-92440034D01*
X103525619Y-92440034D01*
X103293593Y-92318893D01*
X103196462Y-92340724D01*
X102682751Y-92624378D01*
X102316694Y-93083029D01*
X102154019Y-93646851D01*
X100134371Y-93646851D01*
X100037145Y-93158065D01*
X99712289Y-92671884D01*
X99226108Y-92347028D01*
X98652619Y-92232954D01*
X98079130Y-92347028D01*
X97592949Y-92671884D01*
X97268093Y-93158065D01*
X97154019Y-93731554D01*
X96593000Y-93731554D01*
X96593000Y-90773612D01*
X96740878Y-90674803D01*
X97042193Y-90223855D01*
X97148000Y-89691925D01*
X97148000Y-88108075D01*
X97042193Y-87576145D01*
X96740878Y-87125197D01*
X96289930Y-86823882D01*
X95758000Y-86718075D01*
X95226070Y-86823882D01*
X94775122Y-87125197D01*
X94608000Y-87375312D01*
X94608000Y-87268690D01*
X94511327Y-87035301D01*
X94332698Y-86856673D01*
X94099309Y-86760000D01*
X93503750Y-86760000D01*
X93345000Y-86918750D01*
X93345000Y-88773000D01*
X93365000Y-88773000D01*
X93365000Y-89027000D01*
X93345000Y-89027000D01*
X93345000Y-90881250D01*
X93503750Y-91040000D01*
X94099309Y-91040000D01*
X94332698Y-90943327D01*
X94511327Y-90764699D01*
X94608000Y-90531310D01*
X94608000Y-90424688D01*
X94775122Y-90674803D01*
X94923000Y-90773612D01*
X94923000Y-94776132D01*
X92067440Y-97631692D01*
X92067440Y-96810000D01*
X92023162Y-96574683D01*
X91884090Y-96358559D01*
X91671890Y-96213569D01*
X91420000Y-96162560D01*
X88920000Y-96162560D01*
X88684683Y-96206838D01*
X88468559Y-96345910D01*
X88323569Y-96558110D01*
X88272560Y-96810000D01*
X87580796Y-96810000D01*
X87497177Y-96607628D01*
X86278787Y-95387108D01*
X84686068Y-94725754D01*
X82961498Y-94724249D01*
X81367628Y-95382823D01*
X80147108Y-96601213D01*
X79485754Y-98193932D01*
X79484249Y-99918502D01*
X79367440Y-99918502D01*
X79367440Y-96810000D01*
X79323162Y-96574683D01*
X79184090Y-96358559D01*
X78971890Y-96213569D01*
X78720000Y-96162560D01*
X78305000Y-96162560D01*
X78305000Y-93726000D01*
X78241439Y-93406459D01*
X78060434Y-93135566D01*
X76144236Y-91219368D01*
X80420237Y-91219368D01*
X80531141Y-91496599D01*
X81177093Y-91739823D01*
X81866953Y-91717336D01*
X82399859Y-91496599D01*
X82510763Y-91219368D01*
X81465500Y-90174105D01*
X80420237Y-91219368D01*
X76144236Y-91219368D01*
X74630961Y-89706093D01*
X79720177Y-89706093D01*
X79742664Y-90395953D01*
X79963401Y-90928859D01*
X80240632Y-91039763D01*
X81285895Y-89994500D01*
X81645105Y-89994500D01*
X82400244Y-90749639D01*
X82493781Y-90976015D01*
X82981418Y-91464504D01*
X83618873Y-91729199D01*
X84309099Y-91729801D01*
X84947015Y-91466219D01*
X85215540Y-91198162D01*
X85481418Y-91464504D01*
X86118873Y-91729199D01*
X86809099Y-91729801D01*
X87447015Y-91466219D01*
X87935504Y-90978582D01*
X88200199Y-90341127D01*
X88200801Y-89650901D01*
X88139157Y-89501711D01*
X88455118Y-89185750D01*
X91828000Y-89185750D01*
X91828000Y-90531310D01*
X91924673Y-90764699D01*
X92103302Y-90943327D01*
X92336691Y-91040000D01*
X92932250Y-91040000D01*
X93091000Y-90881250D01*
X93091000Y-89027000D01*
X91986750Y-89027000D01*
X91828000Y-89185750D01*
X88455118Y-89185750D01*
X90699868Y-86941000D01*
X91266766Y-86941000D01*
X91507201Y-87040838D01*
X91879167Y-87041162D01*
X91946727Y-87013247D01*
X91924673Y-87035301D01*
X91828000Y-87268690D01*
X91828000Y-88614250D01*
X91986750Y-88773000D01*
X93091000Y-88773000D01*
X93091000Y-86918750D01*
X92932250Y-86760000D01*
X92362303Y-86760000D01*
X92486192Y-86636327D01*
X92628838Y-86292799D01*
X92629162Y-85920833D01*
X92487117Y-85577057D01*
X92224327Y-85313808D01*
X91880799Y-85171162D01*
X91508833Y-85170838D01*
X91266422Y-85271000D01*
X91005000Y-85271000D01*
X91005000Y-80434264D01*
X90941439Y-80114723D01*
X90760434Y-79843830D01*
X89834845Y-78918241D01*
X89835162Y-78554833D01*
X89693117Y-78211057D01*
X89430327Y-77947808D01*
X89086799Y-77805162D01*
X88714833Y-77804838D01*
X88371057Y-77946883D01*
X88107808Y-78209673D01*
X87965162Y-78553201D01*
X87964838Y-78925167D01*
X88066271Y-79170655D01*
X88128561Y-79483805D01*
X88256205Y-79674838D01*
X88309566Y-79754698D01*
X88986213Y-80431345D01*
X88365500Y-80307877D01*
X87739813Y-80432334D01*
X87209380Y-80786757D01*
X86854957Y-81317190D01*
X86730500Y-81942877D01*
X86730500Y-84046123D01*
X86854957Y-84671810D01*
X87209380Y-85202243D01*
X87739813Y-85556666D01*
X88365500Y-85681123D01*
X88991187Y-85556666D01*
X89335000Y-85326938D01*
X89335000Y-85944132D01*
X86958536Y-88320596D01*
X86812127Y-88259801D01*
X86121901Y-88259199D01*
X85483985Y-88522781D01*
X85215460Y-88790838D01*
X84949582Y-88524496D01*
X84312127Y-88259801D01*
X83621901Y-88259199D01*
X82983985Y-88522781D01*
X82495496Y-89010418D01*
X82400563Y-89239042D01*
X81645105Y-89994500D01*
X81285895Y-89994500D01*
X80240632Y-88949237D01*
X79963401Y-89060141D01*
X79720177Y-89706093D01*
X74630961Y-89706093D01*
X73742434Y-88817566D01*
X73675736Y-88773000D01*
X73670696Y-88769632D01*
X80420237Y-88769632D01*
X81465500Y-89814895D01*
X82510763Y-88769632D01*
X82399859Y-88492401D01*
X81753907Y-88249177D01*
X81064047Y-88271664D01*
X80531141Y-88492401D01*
X80420237Y-88769632D01*
X73670696Y-88769632D01*
X73471541Y-88636561D01*
X73152000Y-88573000D01*
X64607868Y-88573000D01*
X63319000Y-87284132D01*
X63319000Y-84927868D01*
X64099868Y-84147000D01*
X64200147Y-84147000D01*
X64104808Y-84242173D01*
X63962162Y-84585701D01*
X63961838Y-84957667D01*
X64103883Y-85301443D01*
X64366673Y-85564692D01*
X64710201Y-85707338D01*
X65082167Y-85707662D01*
X65324578Y-85607500D01*
X70231000Y-85607500D01*
X70550541Y-85543939D01*
X70821434Y-85362934D01*
X74241491Y-81942877D01*
X77930500Y-81942877D01*
X77930500Y-84046123D01*
X78054957Y-84671810D01*
X78409380Y-85202243D01*
X78939813Y-85556666D01*
X79565500Y-85681123D01*
X80191187Y-85556666D01*
X80721620Y-85202243D01*
X81076043Y-84671810D01*
X81200500Y-84046123D01*
X81200500Y-81942877D01*
X81076043Y-81317190D01*
X80721620Y-80786757D01*
X80191187Y-80432334D01*
X79565500Y-80307877D01*
X78939813Y-80432334D01*
X78409380Y-80786757D01*
X78054957Y-81317190D01*
X77930500Y-81942877D01*
X74241491Y-81942877D01*
X81925867Y-74258501D01*
X86031633Y-74258501D01*
X97517066Y-85743934D01*
X97787960Y-85924940D01*
X98107500Y-85988500D01*
X102887266Y-85988500D01*
X103127701Y-86088338D01*
X103499667Y-86088662D01*
X103843443Y-85946617D01*
X104106692Y-85683827D01*
X104249338Y-85340299D01*
X104249662Y-84968333D01*
X104120196Y-84655000D01*
X105064132Y-84655000D01*
X105210000Y-84800868D01*
X105210000Y-107588892D01*
X105151219Y-107647673D01*
X105151219Y-107061251D01*
X103779619Y-107061251D01*
X103779619Y-107081251D01*
X103525619Y-107081251D01*
X103525619Y-107061251D01*
X102154019Y-107061251D01*
X102154019Y-107721651D01*
X102316694Y-108285473D01*
X102682751Y-108744124D01*
X103182376Y-109020000D01*
X100314760Y-109020000D01*
X99995220Y-109083560D01*
X99724326Y-109264566D01*
X99126012Y-109862880D01*
X98905060Y-109862880D01*
X98669743Y-109907158D01*
X98453619Y-110046230D01*
X98308629Y-110258430D01*
X98257620Y-110510320D01*
X98257620Y-110945769D01*
X98255026Y-110958810D01*
X98105460Y-110988560D01*
X97834566Y-111169566D01*
X97199566Y-111804566D01*
X97018561Y-112075459D01*
X96955000Y-112395000D01*
X96955000Y-118999000D01*
X97018561Y-119318541D01*
X97199566Y-119589434D01*
X97470459Y-119770439D01*
X97516786Y-119779654D01*
X97707566Y-119970434D01*
X97978459Y-120151439D01*
X98257620Y-120206968D01*
X98257620Y-120629680D01*
X98301898Y-120864997D01*
X98440970Y-121081121D01*
X98653170Y-121226111D01*
X98905060Y-121277120D01*
X100103940Y-121277120D01*
X100339257Y-121232842D01*
X100555381Y-121093770D01*
X100700371Y-120881570D01*
X100751380Y-120629680D01*
X100751380Y-118130320D01*
X101813620Y-118130320D01*
X101813620Y-120629680D01*
X101857898Y-120864997D01*
X101996970Y-121081121D01*
X102209170Y-121226111D01*
X102461060Y-121277120D01*
X103659940Y-121277120D01*
X103895257Y-121232842D01*
X104111381Y-121093770D01*
X104256371Y-120881570D01*
X104307380Y-120629680D01*
X104307380Y-119665750D01*
X105382060Y-119665750D01*
X105382060Y-120755990D01*
X105478733Y-120989379D01*
X105657362Y-121168007D01*
X105890751Y-121264680D01*
X106330750Y-121264680D01*
X106489500Y-121105930D01*
X106489500Y-119507000D01*
X106743500Y-119507000D01*
X106743500Y-121105930D01*
X106902250Y-121264680D01*
X107342249Y-121264680D01*
X107575638Y-121168007D01*
X107754267Y-120989379D01*
X107850940Y-120755990D01*
X107850940Y-119665750D01*
X107692190Y-119507000D01*
X106743500Y-119507000D01*
X106489500Y-119507000D01*
X105540810Y-119507000D01*
X105382060Y-119665750D01*
X104307380Y-119665750D01*
X104307380Y-118130320D01*
X104283614Y-118004010D01*
X105382060Y-118004010D01*
X105382060Y-119094250D01*
X105540810Y-119253000D01*
X106489500Y-119253000D01*
X106489500Y-117654070D01*
X106743500Y-117654070D01*
X106743500Y-119253000D01*
X107692190Y-119253000D01*
X107850940Y-119094250D01*
X107850940Y-118004010D01*
X107754267Y-117770621D01*
X107575638Y-117591993D01*
X107342249Y-117495320D01*
X106902250Y-117495320D01*
X106743500Y-117654070D01*
X106489500Y-117654070D01*
X106330750Y-117495320D01*
X105890751Y-117495320D01*
X105657362Y-117591993D01*
X105478733Y-117770621D01*
X105382060Y-118004010D01*
X104283614Y-118004010D01*
X104263102Y-117895003D01*
X104124030Y-117678879D01*
X103911830Y-117533889D01*
X103659940Y-117482880D01*
X102461060Y-117482880D01*
X102225743Y-117527158D01*
X102009619Y-117666230D01*
X101864629Y-117878430D01*
X101813620Y-118130320D01*
X100751380Y-118130320D01*
X100707102Y-117895003D01*
X100568030Y-117678879D01*
X100355830Y-117533889D01*
X100103940Y-117482880D01*
X98905060Y-117482880D01*
X98669743Y-117527158D01*
X98625000Y-117555949D01*
X98625000Y-116060745D01*
X98710908Y-116268657D01*
X99058015Y-116616371D01*
X99511766Y-116804785D01*
X100003079Y-116805214D01*
X100457157Y-116617592D01*
X100804871Y-116270485D01*
X100993285Y-115816734D01*
X100993286Y-115814579D01*
X104365286Y-115814579D01*
X104552908Y-116268657D01*
X104900015Y-116616371D01*
X105353766Y-116804785D01*
X105845079Y-116805214D01*
X106299157Y-116617592D01*
X106646871Y-116270485D01*
X106835285Y-115816734D01*
X106835714Y-115325421D01*
X106648092Y-114871343D01*
X106300985Y-114523629D01*
X105847234Y-114335215D01*
X105355921Y-114334786D01*
X104901843Y-114522408D01*
X104554129Y-114869515D01*
X104365715Y-115323266D01*
X104365286Y-115814579D01*
X100993286Y-115814579D01*
X100993714Y-115325421D01*
X100806092Y-114871343D01*
X100458985Y-114523629D01*
X100005234Y-114335215D01*
X99513921Y-114334786D01*
X99059843Y-114522408D01*
X98712129Y-114869515D01*
X98625000Y-115079345D01*
X98625000Y-113586863D01*
X98653170Y-113606111D01*
X98905060Y-113657120D01*
X100103940Y-113657120D01*
X100339257Y-113612842D01*
X100555381Y-113473770D01*
X100700371Y-113261570D01*
X100751380Y-113009680D01*
X100751380Y-110690000D01*
X101813620Y-110690000D01*
X101813620Y-113009680D01*
X101857898Y-113244997D01*
X101996970Y-113461121D01*
X102209170Y-113606111D01*
X102461060Y-113657120D01*
X103659940Y-113657120D01*
X103895257Y-113612842D01*
X104111381Y-113473770D01*
X104256371Y-113261570D01*
X104307380Y-113009680D01*
X104307380Y-112045750D01*
X105382060Y-112045750D01*
X105382060Y-113135990D01*
X105478733Y-113369379D01*
X105657362Y-113548007D01*
X105890751Y-113644680D01*
X106330750Y-113644680D01*
X106489500Y-113485930D01*
X106489500Y-111887000D01*
X106743500Y-111887000D01*
X106743500Y-113485930D01*
X106902250Y-113644680D01*
X107342249Y-113644680D01*
X107575638Y-113548007D01*
X107754267Y-113369379D01*
X107850940Y-113135990D01*
X107850940Y-112045750D01*
X107692190Y-111887000D01*
X106743500Y-111887000D01*
X106489500Y-111887000D01*
X105540810Y-111887000D01*
X105382060Y-112045750D01*
X104307380Y-112045750D01*
X104307380Y-110653674D01*
X104444301Y-110626439D01*
X104715194Y-110445434D01*
X104776618Y-110384010D01*
X105382060Y-110384010D01*
X105382060Y-111474250D01*
X105540810Y-111633000D01*
X106489500Y-111633000D01*
X106489500Y-110034070D01*
X106743500Y-110034070D01*
X106743500Y-111633000D01*
X107692190Y-111633000D01*
X107850940Y-111474250D01*
X107850940Y-110384010D01*
X107754267Y-110150621D01*
X107575638Y-109971993D01*
X107342249Y-109875320D01*
X106902250Y-109875320D01*
X106743500Y-110034070D01*
X106489500Y-110034070D01*
X106330750Y-109875320D01*
X105890751Y-109875320D01*
X105657362Y-109971993D01*
X105478733Y-110150621D01*
X105382060Y-110384010D01*
X104776618Y-110384010D01*
X106635434Y-108525194D01*
X106712832Y-108409360D01*
X106816439Y-108254301D01*
X106880000Y-107934760D01*
X106880000Y-84455000D01*
X106871135Y-84410434D01*
X106816440Y-84135460D01*
X106635434Y-83864566D01*
X106000434Y-83229566D01*
X105729541Y-83048561D01*
X105410000Y-82985000D01*
X103362870Y-82985000D01*
X102435000Y-82057130D01*
X102435000Y-81397579D01*
X102968286Y-81397579D01*
X103155908Y-81851657D01*
X103503015Y-82199371D01*
X103956766Y-82387785D01*
X104448079Y-82388214D01*
X104902157Y-82200592D01*
X105249871Y-81853485D01*
X105438285Y-81399734D01*
X105438286Y-81397579D01*
X105444786Y-81397579D01*
X105632408Y-81851657D01*
X105979515Y-82199371D01*
X106433266Y-82387785D01*
X106924579Y-82388214D01*
X107378657Y-82200592D01*
X107726371Y-81853485D01*
X107914785Y-81399734D01*
X107915214Y-80908421D01*
X107727592Y-80454343D01*
X107380485Y-80106629D01*
X106926734Y-79918215D01*
X106435421Y-79917786D01*
X105981343Y-80105408D01*
X105633629Y-80452515D01*
X105445215Y-80906266D01*
X105444786Y-81397579D01*
X105438286Y-81397579D01*
X105438714Y-80908421D01*
X105251092Y-80454343D01*
X104903985Y-80106629D01*
X104450234Y-79918215D01*
X103958921Y-79917786D01*
X103504843Y-80105408D01*
X103157129Y-80452515D01*
X102968715Y-80906266D01*
X102968286Y-81397579D01*
X102435000Y-81397579D01*
X102435000Y-77354808D01*
X103164797Y-77354808D01*
X103274591Y-77631098D01*
X103917258Y-77872807D01*
X104603503Y-77850179D01*
X105132409Y-77631098D01*
X105242203Y-77354808D01*
X104203500Y-76316105D01*
X103164797Y-77354808D01*
X102435000Y-77354808D01*
X102435000Y-75850258D01*
X102467193Y-75850258D01*
X102489821Y-76536503D01*
X102708902Y-77065409D01*
X102985192Y-77175203D01*
X104023895Y-76136500D01*
X104383105Y-76136500D01*
X105421808Y-77175203D01*
X105698098Y-77065409D01*
X105939807Y-76422742D01*
X105917179Y-75736497D01*
X105698098Y-75207591D01*
X105421808Y-75097797D01*
X104383105Y-76136500D01*
X104023895Y-76136500D01*
X102985192Y-75097797D01*
X102708902Y-75207591D01*
X102467193Y-75850258D01*
X102435000Y-75850258D01*
X102435000Y-74918192D01*
X103164797Y-74918192D01*
X104203500Y-75956895D01*
X105242203Y-74918192D01*
X105132409Y-74641902D01*
X104489742Y-74400193D01*
X103803497Y-74422821D01*
X103274591Y-74641902D01*
X103164797Y-74918192D01*
X102435000Y-74918192D01*
X102435000Y-71364579D01*
X102968286Y-71364579D01*
X103155908Y-71818657D01*
X103503015Y-72166371D01*
X103956766Y-72354785D01*
X104448079Y-72355214D01*
X104902157Y-72167592D01*
X105249871Y-71820485D01*
X105438285Y-71366734D01*
X105438286Y-71364579D01*
X105444786Y-71364579D01*
X105632408Y-71818657D01*
X105979515Y-72166371D01*
X106433266Y-72354785D01*
X106924579Y-72355214D01*
X107378657Y-72167592D01*
X107726371Y-71820485D01*
X107914785Y-71366734D01*
X107915214Y-70875421D01*
X107727592Y-70421343D01*
X107380485Y-70073629D01*
X106926734Y-69885215D01*
X106435421Y-69884786D01*
X105981343Y-70072408D01*
X105633629Y-70419515D01*
X105445215Y-70873266D01*
X105444786Y-71364579D01*
X105438286Y-71364579D01*
X105438714Y-70875421D01*
X105251092Y-70421343D01*
X104903985Y-70073629D01*
X104450234Y-69885215D01*
X103958921Y-69884786D01*
X103504843Y-70072408D01*
X103157129Y-70419515D01*
X102968715Y-70873266D01*
X102968286Y-71364579D01*
X102435000Y-71364579D01*
X102435000Y-64643000D01*
X102371439Y-64323459D01*
X102190434Y-64052566D01*
X100972736Y-62834868D01*
X101274737Y-62834868D01*
X101385641Y-63112099D01*
X102031593Y-63355323D01*
X102721453Y-63332836D01*
X103254359Y-63112099D01*
X103365263Y-62834868D01*
X102320000Y-61789605D01*
X101274737Y-62834868D01*
X100972736Y-62834868D01*
X99459461Y-61321593D01*
X100574677Y-61321593D01*
X100597164Y-62011453D01*
X100817901Y-62544359D01*
X101095132Y-62655263D01*
X102140395Y-61610000D01*
X102499605Y-61610000D01*
X103254744Y-62365139D01*
X103348281Y-62591515D01*
X103835918Y-63080004D01*
X104473373Y-63344699D01*
X105163599Y-63345301D01*
X105801515Y-63081719D01*
X106070040Y-62813662D01*
X106335918Y-63080004D01*
X106973373Y-63344699D01*
X107663599Y-63345301D01*
X108301515Y-63081719D01*
X108790004Y-62594082D01*
X109054699Y-61956627D01*
X109055301Y-61266401D01*
X108791719Y-60628485D01*
X108304082Y-60139996D01*
X107666627Y-59875301D01*
X106976401Y-59874699D01*
X106338485Y-60138281D01*
X106069960Y-60406338D01*
X105804082Y-60139996D01*
X105166627Y-59875301D01*
X104476401Y-59874699D01*
X103838485Y-60138281D01*
X103349996Y-60625918D01*
X103255063Y-60854542D01*
X102499605Y-61610000D01*
X102140395Y-61610000D01*
X101095132Y-60564737D01*
X100817901Y-60675641D01*
X100574677Y-61321593D01*
X99459461Y-61321593D01*
X98523000Y-60385132D01*
X101274737Y-60385132D01*
X102320000Y-61430395D01*
X103365263Y-60385132D01*
X103254359Y-60107901D01*
X102608407Y-59864677D01*
X101918547Y-59887164D01*
X101385641Y-60107901D01*
X101274737Y-60385132D01*
X98523000Y-60385132D01*
X97024886Y-58887018D01*
X97038733Y-58853670D01*
X97039265Y-58243009D01*
X96806068Y-57678629D01*
X96404818Y-57276677D01*
X96804551Y-56877643D01*
X97038733Y-56313670D01*
X97039265Y-55703009D01*
X97024527Y-55667341D01*
X98380434Y-54311434D01*
X98418143Y-54254999D01*
X98561439Y-54040541D01*
X98625000Y-53721000D01*
X98625000Y-53558377D01*
X98785000Y-53558377D01*
X98785000Y-55661623D01*
X98909457Y-56287310D01*
X99263880Y-56817743D01*
X99794313Y-57172166D01*
X100420000Y-57296623D01*
X101045687Y-57172166D01*
X101576120Y-56817743D01*
X101930543Y-56287310D01*
X102055000Y-55661623D01*
X102055000Y-53558377D01*
X101930543Y-52932690D01*
X101576120Y-52402257D01*
X101045687Y-52047834D01*
X100420000Y-51923377D01*
X99794313Y-52047834D01*
X99263880Y-52402257D01*
X98909457Y-52932690D01*
X98785000Y-53558377D01*
X98625000Y-53558377D01*
X98625000Y-52499604D01*
X101421759Y-49702845D01*
X101785167Y-49703162D01*
X102128943Y-49561117D01*
X102392192Y-49298327D01*
X102534838Y-48954799D01*
X102535162Y-48582833D01*
X102393117Y-48239057D01*
X102130327Y-47975808D01*
X101786799Y-47833162D01*
X101414833Y-47832838D01*
X101169345Y-47934271D01*
X100856196Y-47996560D01*
X100585302Y-48177566D01*
X97199566Y-51563302D01*
X97018561Y-51834195D01*
X96955000Y-52153736D01*
X96955000Y-52959072D01*
X96806068Y-52598629D01*
X96404818Y-52196677D01*
X96804551Y-51797643D01*
X97038733Y-51233670D01*
X97039265Y-50623009D01*
X96806068Y-50058629D01*
X96404818Y-49656677D01*
X96804551Y-49257643D01*
X97038733Y-48693670D01*
X97039265Y-48083009D01*
X96806068Y-47518629D01*
X96374643Y-47086449D01*
X95810670Y-46852267D01*
X95200009Y-46851735D01*
X94635629Y-47084932D01*
X94203449Y-47516357D01*
X94188649Y-47552000D01*
X92964000Y-47552000D01*
X92644460Y-47615560D01*
X92373566Y-47796566D01*
X89281000Y-50889132D01*
X88047435Y-49655567D01*
X88003857Y-49626449D01*
X87776542Y-49474562D01*
X87457001Y-49411001D01*
X77896869Y-49411001D01*
X73917535Y-45431667D01*
X73864527Y-45303377D01*
X77830000Y-45303377D01*
X77830000Y-47406623D01*
X77954457Y-48032310D01*
X78308880Y-48562743D01*
X78839313Y-48917166D01*
X79465000Y-49041623D01*
X80090687Y-48917166D01*
X80621120Y-48562743D01*
X80975543Y-48032310D01*
X81100000Y-47406623D01*
X81100000Y-45303377D01*
X86630000Y-45303377D01*
X86630000Y-47406623D01*
X86754457Y-48032310D01*
X87108880Y-48562743D01*
X87639313Y-48917166D01*
X88265000Y-49041623D01*
X88890687Y-48917166D01*
X89421120Y-48562743D01*
X89775543Y-48032310D01*
X89900000Y-47406623D01*
X89900000Y-45303377D01*
X89775543Y-44677690D01*
X89421120Y-44147257D01*
X88890687Y-43792834D01*
X88265000Y-43668377D01*
X87639313Y-43792834D01*
X87108880Y-44147257D01*
X86754457Y-44677690D01*
X86630000Y-45303377D01*
X81100000Y-45303377D01*
X80975543Y-44677690D01*
X80621120Y-44147257D01*
X80090687Y-43792834D01*
X79465000Y-43668377D01*
X78839313Y-43792834D01*
X78308880Y-44147257D01*
X77954457Y-44677690D01*
X77830000Y-45303377D01*
X73864527Y-45303377D01*
X73818117Y-45191057D01*
X73555327Y-44927808D01*
X73211799Y-44785162D01*
X72839833Y-44784838D01*
X72496057Y-44926883D01*
X72232808Y-45189673D01*
X72090162Y-45533201D01*
X72089838Y-45905167D01*
X72231883Y-46248943D01*
X72494673Y-46512192D01*
X72736910Y-46612778D01*
X72994669Y-46870537D01*
X72950670Y-46852267D01*
X72340009Y-46851735D01*
X71775629Y-47084932D01*
X71343449Y-47516357D01*
X71328649Y-47552000D01*
X70485000Y-47552000D01*
X70165460Y-47615560D01*
X69894566Y-47796566D01*
X69259566Y-48431566D01*
X69078561Y-48702459D01*
X69015000Y-49022000D01*
X69015000Y-62138132D01*
X67946468Y-63206664D01*
X67849117Y-62971057D01*
X67586327Y-62707808D01*
X67242799Y-62565162D01*
X66929126Y-62564889D01*
X67181699Y-61956627D01*
X67182301Y-61266401D01*
X66918719Y-60628485D01*
X66431082Y-60139996D01*
X65793627Y-59875301D01*
X65103401Y-59874699D01*
X64465485Y-60138281D01*
X64196960Y-60406338D01*
X63931082Y-60139996D01*
X63293627Y-59875301D01*
X62603401Y-59874699D01*
X61965485Y-60138281D01*
X61476996Y-60625918D01*
X61382063Y-60854542D01*
X60626605Y-61610000D01*
X60267395Y-61610000D01*
X59222132Y-60564737D01*
X58944901Y-60675641D01*
X58701677Y-61321593D01*
X57230440Y-61321593D01*
X57230440Y-60385132D01*
X59401737Y-60385132D01*
X60447000Y-61430395D01*
X61492263Y-60385132D01*
X61381359Y-60107901D01*
X60735407Y-59864677D01*
X60045547Y-59887164D01*
X59512641Y-60107901D01*
X59401737Y-60385132D01*
X57230440Y-60385132D01*
X57230440Y-56577627D01*
X57390880Y-56817743D01*
X57921313Y-57172166D01*
X58547000Y-57296623D01*
X59172687Y-57172166D01*
X59703120Y-56817743D01*
X60057543Y-56287310D01*
X60182000Y-55661623D01*
X60182000Y-53558377D01*
X65712000Y-53558377D01*
X65712000Y-55661623D01*
X65836457Y-56287310D01*
X66190880Y-56817743D01*
X66721313Y-57172166D01*
X67347000Y-57296623D01*
X67972687Y-57172166D01*
X68503120Y-56817743D01*
X68857543Y-56287310D01*
X68982000Y-55661623D01*
X68982000Y-53558377D01*
X68857543Y-52932690D01*
X68503120Y-52402257D01*
X67972687Y-52047834D01*
X67347000Y-51923377D01*
X66721313Y-52047834D01*
X66190880Y-52402257D01*
X65836457Y-52932690D01*
X65712000Y-53558377D01*
X60182000Y-53558377D01*
X60057543Y-52932690D01*
X59703120Y-52402257D01*
X59172687Y-52047834D01*
X58547000Y-51923377D01*
X57921313Y-52047834D01*
X57390880Y-52402257D01*
X57230440Y-52642373D01*
X57230440Y-45855736D01*
X57992492Y-45854998D01*
X58000681Y-45853361D01*
X58008908Y-45854785D01*
X58592281Y-45840235D01*
X58612986Y-45835577D01*
X58634082Y-45837913D01*
X59150797Y-45793333D01*
X59177978Y-45785446D01*
X59206266Y-45786256D01*
X59665542Y-45708496D01*
X59698847Y-45695805D01*
X59734391Y-45693156D01*
X60145450Y-45579065D01*
X60182690Y-45560285D01*
X60223604Y-45552199D01*
X60595662Y-45398627D01*
X60632737Y-45373921D01*
X60674971Y-45359730D01*
X61017251Y-45163525D01*
X61049639Y-45135298D01*
X61088349Y-45116669D01*
X61410070Y-44874680D01*
X61435002Y-44846796D01*
X61466758Y-44827032D01*
X61777141Y-44536108D01*
X61794150Y-44512353D01*
X61817568Y-44494880D01*
X62093864Y-44188264D01*
X62110817Y-44159793D01*
X62135357Y-44137533D01*
X62363735Y-43829329D01*
X62381088Y-43792600D01*
X62407767Y-43761966D01*
X62592901Y-43438744D01*
X62606669Y-43397721D01*
X62630788Y-43361794D01*
X62777347Y-43010126D01*
X62785257Y-42970803D01*
X62803607Y-42935136D01*
X62916264Y-42541594D01*
X62918974Y-42508803D01*
X62931182Y-42478249D01*
X63014607Y-42029403D01*
X63014299Y-42004937D01*
X63021753Y-41981635D01*
X63080618Y-41464056D01*
X63079223Y-41447307D01*
X63083563Y-41431073D01*
X63122538Y-40831334D01*
X63121737Y-40825275D01*
X63123212Y-40819343D01*
X63165379Y-39929716D01*
X104677062Y-39929716D01*
X104713562Y-40790675D01*
X104713562Y-40790675D01*
G37*
X104713562Y-40790675D02*
X104715087Y-40796942D01*
X104714216Y-40803333D01*
X104751056Y-41407773D01*
X104755423Y-41424375D01*
X104753947Y-41441480D01*
X104812137Y-41967056D01*
X104819452Y-41990161D01*
X104819059Y-42014394D01*
X104902489Y-42472557D01*
X104914295Y-42502421D01*
X104916750Y-42534440D01*
X105029304Y-42936642D01*
X105047067Y-42971680D01*
X105054493Y-43010258D01*
X105200067Y-43367949D01*
X105223940Y-43404160D01*
X105237408Y-43445388D01*
X105419890Y-43770022D01*
X105447518Y-43802266D01*
X105465553Y-43840707D01*
X105688835Y-44143734D01*
X105715924Y-44168440D01*
X105734922Y-44199800D01*
X106002892Y-44492672D01*
X106027487Y-44510733D01*
X106045532Y-44535340D01*
X106366282Y-44829203D01*
X106396901Y-44847780D01*
X106420952Y-44874317D01*
X106749841Y-45118250D01*
X106787578Y-45136099D01*
X106819140Y-45163430D01*
X107165955Y-45360769D01*
X107207575Y-45374606D01*
X107244101Y-45398886D01*
X107618627Y-45552970D01*
X107659310Y-45560961D01*
X107696337Y-45579614D01*
X108108359Y-45693780D01*
X108143882Y-45696412D01*
X108177172Y-45709083D01*
X108636478Y-45786673D01*
X108664776Y-45785852D01*
X108691973Y-45793732D01*
X109208345Y-45838071D01*
X109229361Y-45835735D01*
X109249994Y-45840373D01*
X109833221Y-45854813D01*
X109841385Y-45853398D01*
X109849512Y-45855023D01*
X110611564Y-45855761D01*
X110611564Y-52754625D01*
X110376120Y-52402257D01*
X109845687Y-52047834D01*
X109220000Y-51923377D01*
X108594313Y-52047834D01*
X108063880Y-52402257D01*
X107709457Y-52932690D01*
X107585000Y-53558377D01*
X107585000Y-55661623D01*
X107709457Y-56287310D01*
X108063880Y-56817743D01*
X108594313Y-57172166D01*
X109220000Y-57296623D01*
X109845687Y-57172166D01*
X110376120Y-56817743D01*
X110611564Y-56465375D01*
X110611564Y-139035919D01*
X109845108Y-139041589D01*
X109841219Y-139042393D01*
X109837309Y-139041691D01*
X109289016Y-139051991D01*
X109276709Y-139054680D01*
X109264235Y-139052905D01*
X108804586Y-139078205D01*
X108784110Y-139083463D01*
X108763038Y-139081763D01*
X108372980Y-139127163D01*
X108343688Y-139136618D01*
X108312907Y-139136876D01*
X107973387Y-139207376D01*
X107938066Y-139222355D01*
X107899976Y-139226922D01*
X107591941Y-139327532D01*
X107557324Y-139346988D01*
X107518698Y-139356205D01*
X107223091Y-139491985D01*
X107195982Y-139511624D01*
X107164325Y-139522500D01*
X106862099Y-139698480D01*
X106844876Y-139713697D01*
X106823682Y-139722587D01*
X106495780Y-139943807D01*
X106475374Y-139964396D01*
X106449674Y-139977802D01*
X106102562Y-140256872D01*
X106079992Y-140283816D01*
X106050637Y-140303149D01*
X105896965Y-140454789D01*
X105882770Y-140475730D01*
X105862712Y-140491148D01*
X105721774Y-140652128D01*
X105708784Y-140674672D01*
X105689401Y-140692030D01*
X105560807Y-140863280D01*
X105549492Y-140886840D01*
X105531392Y-140905691D01*
X105414751Y-141088181D01*
X105405445Y-141112006D01*
X105389138Y-141131711D01*
X105284057Y-141326381D01*
X105276860Y-141349761D01*
X105262629Y-141369661D01*
X105168719Y-141577461D01*
X105161132Y-141610145D01*
X105144348Y-141639197D01*
X104988474Y-142097978D01*
X104983529Y-142135464D01*
X104968300Y-142170072D01*
X104852414Y-142692771D01*
X104851764Y-142722543D01*
X104842154Y-142750731D01*
X104763124Y-143344940D01*
X104764571Y-143367471D01*
X104758690Y-143389267D01*
X104713390Y-144062567D01*
X104714523Y-144071286D01*
X104712415Y-144079992D01*
X104676275Y-144957180D01*
X63164978Y-144957180D01*
X63123463Y-144092393D01*
X63122307Y-144087757D01*
X63122949Y-144083020D01*
X63086140Y-143486940D01*
X63082465Y-143473013D01*
X63083806Y-143458671D01*
X63031749Y-142955490D01*
X63024972Y-142933539D01*
X63025594Y-142910570D01*
X62952477Y-142482799D01*
X62940745Y-142452156D01*
X62938525Y-142419422D01*
X62838532Y-142049592D01*
X62820277Y-142012784D01*
X62812653Y-141972408D01*
X62679965Y-141643048D01*
X62656031Y-141606463D01*
X62642562Y-141564877D01*
X62471365Y-141258507D01*
X62446236Y-141229028D01*
X62430254Y-141193741D01*
X62214733Y-140892881D01*
X62193886Y-140873350D01*
X62179998Y-140848386D01*
X61914335Y-140535556D01*
X61894716Y-140520000D01*
X61880997Y-140499055D01*
X61557084Y-140169145D01*
X61527145Y-140148741D01*
X61504231Y-140120671D01*
X61174298Y-139848461D01*
X61135429Y-139827555D01*
X61103391Y-139797204D01*
X60756001Y-139578433D01*
X60711345Y-139561335D01*
X60672420Y-139533560D01*
X60296136Y-139363981D01*
X60251511Y-139353671D01*
X60211036Y-139332234D01*
X59794417Y-139207584D01*
X59755438Y-139203895D01*
X59718987Y-139189597D01*
X59250596Y-139105597D01*
X59220067Y-139106174D01*
X59190770Y-139097570D01*
X58659170Y-139049970D01*
X58637115Y-139052340D01*
X58615474Y-139047461D01*
X58009224Y-139032061D01*
X58000743Y-139033525D01*
X57992302Y-139031840D01*
X57230440Y-139031313D01*
X57230440Y-119665750D01*
X59725560Y-119665750D01*
X59725560Y-120755990D01*
X59822233Y-120989379D01*
X60000862Y-121168007D01*
X60234251Y-121264680D01*
X60674250Y-121264680D01*
X60833000Y-121105930D01*
X60833000Y-119507000D01*
X61087000Y-119507000D01*
X61087000Y-121105930D01*
X61245750Y-121264680D01*
X61685749Y-121264680D01*
X61919138Y-121168007D01*
X62097767Y-120989379D01*
X62194440Y-120755990D01*
X62194440Y-119665750D01*
X62035690Y-119507000D01*
X61087000Y-119507000D01*
X60833000Y-119507000D01*
X59884310Y-119507000D01*
X59725560Y-119665750D01*
X57230440Y-119665750D01*
X57230440Y-118004010D01*
X59725560Y-118004010D01*
X59725560Y-119094250D01*
X59884310Y-119253000D01*
X60833000Y-119253000D01*
X60833000Y-117654070D01*
X61087000Y-117654070D01*
X61087000Y-119253000D01*
X62035690Y-119253000D01*
X62194440Y-119094250D01*
X62194440Y-118130320D01*
X63269120Y-118130320D01*
X63269120Y-120629680D01*
X63313398Y-120864997D01*
X63452470Y-121081121D01*
X63664670Y-121226111D01*
X63916560Y-121277120D01*
X65115440Y-121277120D01*
X65350757Y-121232842D01*
X65566881Y-121093770D01*
X65711871Y-120881570D01*
X65762880Y-120629680D01*
X65762880Y-118130320D01*
X65718602Y-117895003D01*
X65579530Y-117678879D01*
X65367330Y-117533889D01*
X65115440Y-117482880D01*
X63916560Y-117482880D01*
X63681243Y-117527158D01*
X63465119Y-117666230D01*
X63320129Y-117878430D01*
X63269120Y-118130320D01*
X62194440Y-118130320D01*
X62194440Y-118004010D01*
X62097767Y-117770621D01*
X61919138Y-117591993D01*
X61685749Y-117495320D01*
X61245750Y-117495320D01*
X61087000Y-117654070D01*
X60833000Y-117654070D01*
X60674250Y-117495320D01*
X60234251Y-117495320D01*
X60000862Y-117591993D01*
X59822233Y-117770621D01*
X59725560Y-118004010D01*
X57230440Y-118004010D01*
X57230440Y-115814579D01*
X60740786Y-115814579D01*
X60928408Y-116268657D01*
X61275515Y-116616371D01*
X61729266Y-116804785D01*
X62220579Y-116805214D01*
X62674657Y-116617592D01*
X63022371Y-116270485D01*
X63210785Y-115816734D01*
X63211214Y-115325421D01*
X63023592Y-114871343D01*
X62676485Y-114523629D01*
X62222734Y-114335215D01*
X61731421Y-114334786D01*
X61277343Y-114522408D01*
X60929629Y-114869515D01*
X60741215Y-115323266D01*
X60740786Y-115814579D01*
X57230440Y-115814579D01*
X57230440Y-112045750D01*
X59725560Y-112045750D01*
X59725560Y-113135990D01*
X59822233Y-113369379D01*
X60000862Y-113548007D01*
X60234251Y-113644680D01*
X60674250Y-113644680D01*
X60833000Y-113485930D01*
X60833000Y-111887000D01*
X61087000Y-111887000D01*
X61087000Y-113485930D01*
X61245750Y-113644680D01*
X61685749Y-113644680D01*
X61919138Y-113548007D01*
X62097767Y-113369379D01*
X62194440Y-113135990D01*
X62194440Y-112045750D01*
X62035690Y-111887000D01*
X61087000Y-111887000D01*
X60833000Y-111887000D01*
X59884310Y-111887000D01*
X59725560Y-112045750D01*
X57230440Y-112045750D01*
X57230440Y-110384010D01*
X59725560Y-110384010D01*
X59725560Y-111474250D01*
X59884310Y-111633000D01*
X60833000Y-111633000D01*
X60833000Y-110034070D01*
X61087000Y-110034070D01*
X61087000Y-111633000D01*
X62035690Y-111633000D01*
X62194440Y-111474250D01*
X62194440Y-110510320D01*
X63269120Y-110510320D01*
X63269120Y-113009680D01*
X63313398Y-113244997D01*
X63452470Y-113461121D01*
X63664670Y-113606111D01*
X63916560Y-113657120D01*
X65115440Y-113657120D01*
X65350757Y-113612842D01*
X65566881Y-113473770D01*
X65711871Y-113261570D01*
X65762880Y-113009680D01*
X65762880Y-110510320D01*
X65718602Y-110275003D01*
X65579530Y-110058879D01*
X65367330Y-109913889D01*
X65115440Y-109862880D01*
X63916560Y-109862880D01*
X63681243Y-109907158D01*
X63465119Y-110046230D01*
X63320129Y-110258430D01*
X63269120Y-110510320D01*
X62194440Y-110510320D01*
X62194440Y-110384010D01*
X62097767Y-110150621D01*
X61919138Y-109971993D01*
X61685749Y-109875320D01*
X61245750Y-109875320D01*
X61087000Y-110034070D01*
X60833000Y-110034070D01*
X60674250Y-109875320D01*
X60234251Y-109875320D01*
X60000862Y-109971993D01*
X59822233Y-110150621D01*
X59725560Y-110384010D01*
X57230440Y-110384010D01*
X57230440Y-107052326D01*
X62788964Y-107052326D01*
X62788964Y-107712726D01*
X62951639Y-108276548D01*
X63317696Y-108735199D01*
X63831407Y-109018853D01*
X63928538Y-109040684D01*
X64160564Y-108919543D01*
X64160564Y-107052326D01*
X64414564Y-107052326D01*
X64414564Y-108919543D01*
X64646590Y-109040684D01*
X64743721Y-109018853D01*
X65257432Y-108735199D01*
X65623489Y-108276548D01*
X65786164Y-107712726D01*
X65786164Y-107052326D01*
X64414564Y-107052326D01*
X64160564Y-107052326D01*
X62788964Y-107052326D01*
X57230440Y-107052326D01*
X57230440Y-106137926D01*
X62788964Y-106137926D01*
X62788964Y-106798326D01*
X64160564Y-106798326D01*
X64160564Y-104931109D01*
X64414564Y-104931109D01*
X64414564Y-106798326D01*
X65786164Y-106798326D01*
X65786164Y-106137926D01*
X65623489Y-105574104D01*
X65257432Y-105115453D01*
X64743721Y-104831799D01*
X64646590Y-104809968D01*
X64414564Y-104931109D01*
X64160564Y-104931109D01*
X63928538Y-104809968D01*
X63831407Y-104831799D01*
X63317696Y-105115453D01*
X62951639Y-105574104D01*
X62788964Y-106137926D01*
X57230440Y-106137926D01*
X57230440Y-81501719D01*
X59869566Y-81501719D01*
X60057188Y-81955797D01*
X60404295Y-82303511D01*
X60858046Y-82491925D01*
X61349359Y-82492354D01*
X61803437Y-82304732D01*
X62151151Y-81957625D01*
X62339565Y-81503874D01*
X62339994Y-81012561D01*
X62152372Y-80558483D01*
X61805265Y-80210769D01*
X61351514Y-80022355D01*
X60860201Y-80021926D01*
X60406123Y-80209548D01*
X60058409Y-80556655D01*
X59869995Y-81010406D01*
X59869566Y-81501719D01*
X57230440Y-81501719D01*
X57230440Y-75954398D01*
X61844973Y-75954398D01*
X61867601Y-76640643D01*
X62086682Y-77169549D01*
X62362972Y-77279343D01*
X63401675Y-76240640D01*
X62362972Y-75201937D01*
X62086682Y-75311731D01*
X61844973Y-75954398D01*
X57230440Y-75954398D01*
X57230440Y-71468719D01*
X59869566Y-71468719D01*
X60057188Y-71922797D01*
X60404295Y-72270511D01*
X60858046Y-72458925D01*
X61349359Y-72459354D01*
X61803437Y-72271732D01*
X62151151Y-71924625D01*
X62339565Y-71470874D01*
X62339994Y-70979561D01*
X62152372Y-70525483D01*
X61805265Y-70177769D01*
X61351514Y-69989355D01*
X60860201Y-69988926D01*
X60406123Y-70176548D01*
X60058409Y-70523655D01*
X59869995Y-70977406D01*
X59869566Y-71468719D01*
X57230440Y-71468719D01*
X57230440Y-62834868D01*
X59401737Y-62834868D01*
X59512641Y-63112099D01*
X60158593Y-63355323D01*
X60848453Y-63332836D01*
X61381359Y-63112099D01*
X61492263Y-62834868D01*
X60447000Y-61789605D01*
X59401737Y-62834868D01*
X57230440Y-62834868D01*
X57230440Y-61321593D01*
X58701677Y-61321593D01*
X58724164Y-62011453D01*
X58944901Y-62544359D01*
X59222132Y-62655263D01*
X60267395Y-61610000D01*
X60626605Y-61610000D01*
X61381744Y-62365139D01*
X61475281Y-62591515D01*
X61962918Y-63080004D01*
X62600373Y-63344699D01*
X63290599Y-63345301D01*
X63928515Y-63081719D01*
X64197040Y-62813662D01*
X64462918Y-63080004D01*
X65100373Y-63344699D01*
X65790599Y-63345301D01*
X66173534Y-63187075D01*
X66163222Y-63211910D01*
X64849556Y-64525576D01*
X64668551Y-64796469D01*
X64604990Y-65116010D01*
X64604990Y-70501559D01*
X64281765Y-70177769D01*
X63828014Y-69989355D01*
X63336701Y-69988926D01*
X62882623Y-70176548D01*
X62534909Y-70523655D01*
X62346495Y-70977406D01*
X62346066Y-71468719D01*
X62533688Y-71922797D01*
X62880795Y-72270511D01*
X63334546Y-72458925D01*
X63825859Y-72459354D01*
X64279937Y-72271732D01*
X64604990Y-71947246D01*
X64604990Y-74984603D01*
X64510189Y-74746042D01*
X63867522Y-74504333D01*
X63181277Y-74526961D01*
X62652371Y-74746042D01*
X62542577Y-75022332D01*
X63581280Y-76061035D01*
X63595423Y-76046893D01*
X63775028Y-76226498D01*
X63760885Y-76240640D01*
X63775028Y-76254783D01*
X63595423Y-76434388D01*
X63581280Y-76420245D01*
X62542577Y-77458948D01*
X62652371Y-77735238D01*
X63295038Y-77976947D01*
X63981283Y-77954319D01*
X64510189Y-77735238D01*
X64604990Y-77496677D01*
X64604990Y-80534559D01*
X64281765Y-80210769D01*
X63828014Y-80022355D01*
X63336701Y-80021926D01*
X62882623Y-80209548D01*
X62534909Y-80556655D01*
X62346495Y-81010406D01*
X62346066Y-81501719D01*
X62533688Y-81955797D01*
X62807002Y-82229588D01*
X61293556Y-83743034D01*
X61112551Y-84013927D01*
X61048990Y-84333468D01*
X61048990Y-96427990D01*
X61112551Y-96747531D01*
X61293556Y-97018424D01*
X66745559Y-102470427D01*
X66745559Y-109618879D01*
X66809120Y-109938420D01*
X66941400Y-110136391D01*
X66950356Y-110149795D01*
X66876129Y-110258430D01*
X66825120Y-110510320D01*
X66825120Y-113009680D01*
X66869398Y-113244997D01*
X67008470Y-113461121D01*
X67220670Y-113606111D01*
X67472560Y-113657120D01*
X68507000Y-113657120D01*
X68507000Y-114518860D01*
X68064734Y-114335215D01*
X67573421Y-114334786D01*
X67119343Y-114522408D01*
X66771629Y-114869515D01*
X66583215Y-115323266D01*
X66582786Y-115814579D01*
X66770408Y-116268657D01*
X67117515Y-116616371D01*
X67571266Y-116804785D01*
X68062579Y-116805214D01*
X68507000Y-116621582D01*
X68507000Y-117482880D01*
X67472560Y-117482880D01*
X67237243Y-117527158D01*
X67021119Y-117666230D01*
X66876129Y-117878430D01*
X66825120Y-118130320D01*
X66825120Y-120629680D01*
X66869398Y-120864997D01*
X67008470Y-121081121D01*
X67220670Y-121226111D01*
X67472560Y-121277120D01*
X68671440Y-121277120D01*
X68906757Y-121232842D01*
X69122881Y-121093770D01*
X69267871Y-120881570D01*
X69318880Y-120629680D01*
X69318880Y-120215000D01*
X69342000Y-120215000D01*
X69661541Y-120151439D01*
X69932434Y-119970434D01*
X70113439Y-119699541D01*
X70177000Y-119380000D01*
X70177000Y-112030560D01*
X70171000Y-112000394D01*
X70113440Y-111711020D01*
X69932434Y-111440126D01*
X69661874Y-111169566D01*
X69600907Y-111128829D01*
X69390981Y-110988561D01*
X69318880Y-110974219D01*
X69318880Y-110615639D01*
X77097563Y-110615639D01*
X77100504Y-110632610D01*
X77097563Y-110649581D01*
X77105099Y-110953659D01*
X77108872Y-110970441D01*
X77106777Y-110987514D01*
X77129248Y-111289528D01*
X77136096Y-111314212D01*
X77134861Y-111339799D01*
X77223771Y-111935625D01*
X77235236Y-111967580D01*
X77236928Y-112001485D01*
X77383076Y-112583025D01*
X77397559Y-112613585D01*
X77402531Y-112647034D01*
X77604252Y-113210266D01*
X77621621Y-113239225D01*
X77629817Y-113271986D01*
X77885444Y-113812889D01*
X77905580Y-113840057D01*
X77916948Y-113871906D01*
X78224817Y-114386459D01*
X78247594Y-114411629D01*
X78262083Y-114442332D01*
X78620528Y-114926514D01*
X78639493Y-114943733D01*
X78652106Y-114966031D01*
X78849774Y-115195477D01*
X78863325Y-115206066D01*
X78872523Y-115220599D01*
X79082209Y-115440944D01*
X79096291Y-115450867D01*
X79106214Y-115464949D01*
X79326559Y-115674634D01*
X79341091Y-115683831D01*
X79351682Y-115697385D01*
X79581127Y-115895052D01*
X79603424Y-115907664D01*
X79620644Y-115926631D01*
X80104826Y-116285075D01*
X80135527Y-116299563D01*
X80160699Y-116322342D01*
X80675252Y-116630210D01*
X80707101Y-116641578D01*
X80734269Y-116661714D01*
X81275172Y-116917341D01*
X81307934Y-116925537D01*
X81336893Y-116942906D01*
X81900124Y-117144627D01*
X81933573Y-117149599D01*
X81964133Y-117164082D01*
X82545673Y-117310230D01*
X82579578Y-117311922D01*
X82611533Y-117323387D01*
X83207359Y-117412297D01*
X83232946Y-117411062D01*
X83257630Y-117417910D01*
X83559644Y-117440381D01*
X83576717Y-117438286D01*
X83593499Y-117442059D01*
X83897576Y-117449595D01*
X83914548Y-117446654D01*
X83931519Y-117449595D01*
X84235597Y-117442059D01*
X84252379Y-117438286D01*
X84269452Y-117440381D01*
X84571466Y-117417910D01*
X84596150Y-117411062D01*
X84621737Y-117412297D01*
X85217563Y-117323387D01*
X85249518Y-117311922D01*
X85283423Y-117310230D01*
X85864963Y-117164082D01*
X85895523Y-117149599D01*
X85928972Y-117144627D01*
X86492204Y-116942906D01*
X86521163Y-116925537D01*
X86553924Y-116917341D01*
X87094827Y-116661714D01*
X87121995Y-116641578D01*
X87153844Y-116630210D01*
X87668397Y-116322341D01*
X87693567Y-116299564D01*
X87724270Y-116285075D01*
X88208452Y-115926630D01*
X88225671Y-115907665D01*
X88247969Y-115895052D01*
X88477415Y-115697384D01*
X88488004Y-115683833D01*
X88502537Y-115674635D01*
X88722882Y-115464949D01*
X88732805Y-115450867D01*
X88746887Y-115440944D01*
X88956572Y-115220599D01*
X88965769Y-115206067D01*
X88979323Y-115195476D01*
X89176990Y-114966031D01*
X89189602Y-114943734D01*
X89208569Y-114926514D01*
X89567013Y-114442332D01*
X89581501Y-114411631D01*
X89604280Y-114386459D01*
X89912148Y-113871906D01*
X89923516Y-113840057D01*
X89943652Y-113812889D01*
X90199279Y-113271986D01*
X90207475Y-113239224D01*
X90224844Y-113210265D01*
X90426565Y-112647034D01*
X90431537Y-112613585D01*
X90446020Y-112583025D01*
X90592168Y-112001485D01*
X90593860Y-111967580D01*
X90605325Y-111935625D01*
X90694235Y-111339799D01*
X90693000Y-111314212D01*
X90699848Y-111289528D01*
X90722319Y-110987514D01*
X90720224Y-110970441D01*
X90723997Y-110953659D01*
X90731533Y-110649582D01*
X90730059Y-110641076D01*
X90731743Y-110632610D01*
X90730059Y-110624144D01*
X90731533Y-110615638D01*
X90723997Y-110311561D01*
X90720224Y-110294779D01*
X90722319Y-110277706D01*
X90699848Y-109975692D01*
X90693000Y-109951008D01*
X90694235Y-109925421D01*
X90605325Y-109329595D01*
X90593860Y-109297640D01*
X90592168Y-109263735D01*
X90446020Y-108682195D01*
X90431537Y-108651635D01*
X90426565Y-108618186D01*
X90224844Y-108054955D01*
X90207475Y-108025996D01*
X90199279Y-107993234D01*
X89943652Y-107452331D01*
X89923516Y-107425163D01*
X89912148Y-107393314D01*
X89604280Y-106878761D01*
X89581501Y-106853589D01*
X89567013Y-106822888D01*
X89208569Y-106338706D01*
X89189602Y-106321486D01*
X89176990Y-106299189D01*
X89118723Y-106231554D01*
X97154019Y-106231554D01*
X97154019Y-107636948D01*
X97268093Y-108210437D01*
X97592949Y-108696618D01*
X98079130Y-109021474D01*
X98652619Y-109135548D01*
X99226108Y-109021474D01*
X99712289Y-108696618D01*
X100037145Y-108210437D01*
X100151219Y-107636948D01*
X100151219Y-106231554D01*
X100134371Y-106146851D01*
X102154019Y-106146851D01*
X102154019Y-106807251D01*
X103525619Y-106807251D01*
X103525619Y-104940034D01*
X103779619Y-104940034D01*
X103779619Y-106807251D01*
X105151219Y-106807251D01*
X105151219Y-106146851D01*
X104988544Y-105583029D01*
X104622487Y-105124378D01*
X104108776Y-104840724D01*
X104011645Y-104818893D01*
X103779619Y-104940034D01*
X103525619Y-104940034D01*
X103293593Y-104818893D01*
X103196462Y-104840724D01*
X102682751Y-105124378D01*
X102316694Y-105583029D01*
X102154019Y-106146851D01*
X100134371Y-106146851D01*
X100037145Y-105658065D01*
X99712289Y-105171884D01*
X99226108Y-104847028D01*
X98652619Y-104732954D01*
X98079130Y-104847028D01*
X97592949Y-105171884D01*
X97268093Y-105658065D01*
X97154019Y-106231554D01*
X89118723Y-106231554D01*
X88979323Y-106069744D01*
X88965769Y-106059153D01*
X88956572Y-106044621D01*
X88746887Y-105824276D01*
X88732805Y-105814353D01*
X88722882Y-105800271D01*
X88502537Y-105590585D01*
X88488004Y-105581387D01*
X88477415Y-105567836D01*
X88247969Y-105370168D01*
X88225671Y-105357555D01*
X88208452Y-105338590D01*
X87724270Y-104980145D01*
X87693567Y-104965656D01*
X87668397Y-104942879D01*
X87153844Y-104635010D01*
X87121995Y-104623642D01*
X87094827Y-104603506D01*
X86553924Y-104347879D01*
X86521163Y-104339683D01*
X86492204Y-104322314D01*
X85928972Y-104120593D01*
X85895523Y-104115621D01*
X85864963Y-104101138D01*
X85283423Y-103954990D01*
X85249518Y-103953298D01*
X85217563Y-103941833D01*
X84621737Y-103852923D01*
X84596150Y-103854158D01*
X84571466Y-103847310D01*
X84269452Y-103824839D01*
X84252379Y-103826934D01*
X84235597Y-103823161D01*
X83931519Y-103815625D01*
X83914548Y-103818566D01*
X83897576Y-103815625D01*
X83593499Y-103823161D01*
X83576717Y-103826934D01*
X83559644Y-103824839D01*
X83257630Y-103847310D01*
X83232946Y-103854158D01*
X83207359Y-103852923D01*
X82611533Y-103941833D01*
X82579578Y-103953298D01*
X82545673Y-103954990D01*
X81964133Y-104101138D01*
X81933573Y-104115621D01*
X81900124Y-104120593D01*
X81336893Y-104322314D01*
X81307934Y-104339683D01*
X81275172Y-104347879D01*
X80734269Y-104603506D01*
X80707101Y-104623642D01*
X80675252Y-104635010D01*
X80160699Y-104942878D01*
X80135527Y-104965657D01*
X80104826Y-104980145D01*
X79620644Y-105338589D01*
X79603424Y-105357556D01*
X79581127Y-105370168D01*
X79351682Y-105567835D01*
X79341091Y-105581389D01*
X79326559Y-105590586D01*
X79106214Y-105800271D01*
X79096291Y-105814353D01*
X79082209Y-105824276D01*
X78872523Y-106044621D01*
X78863325Y-106059154D01*
X78849774Y-106069743D01*
X78652106Y-106299189D01*
X78639493Y-106321487D01*
X78620528Y-106338706D01*
X78262083Y-106822888D01*
X78247594Y-106853591D01*
X78224817Y-106878761D01*
X77916948Y-107393314D01*
X77905580Y-107425163D01*
X77885444Y-107452331D01*
X77629817Y-107993234D01*
X77621621Y-108025995D01*
X77604252Y-108054954D01*
X77402531Y-108618186D01*
X77397559Y-108651635D01*
X77383076Y-108682195D01*
X77236928Y-109263735D01*
X77235236Y-109297640D01*
X77223771Y-109329595D01*
X77134861Y-109925421D01*
X77136096Y-109951008D01*
X77129248Y-109975692D01*
X77106777Y-110277706D01*
X77108872Y-110294779D01*
X77105099Y-110311561D01*
X77097563Y-110615639D01*
X69318880Y-110615639D01*
X69318880Y-110510320D01*
X69274602Y-110275003D01*
X69135530Y-110058879D01*
X68923330Y-109913889D01*
X68865602Y-109902199D01*
X68843440Y-109790780D01*
X68662434Y-109519886D01*
X68415559Y-109273011D01*
X68415559Y-108813087D01*
X68714075Y-109012549D01*
X69287564Y-109126623D01*
X69861053Y-109012549D01*
X70347234Y-108687693D01*
X70672090Y-108201512D01*
X70786164Y-107628023D01*
X70786164Y-106222629D01*
X70672090Y-105649140D01*
X70347234Y-105162959D01*
X69861053Y-104838103D01*
X69287564Y-104724029D01*
X68714075Y-104838103D01*
X68415559Y-105037565D01*
X68415559Y-102124559D01*
X68351998Y-101805018D01*
X68170993Y-101534125D01*
X62718990Y-96082122D01*
X62718990Y-94552326D01*
X62788964Y-94552326D01*
X62788964Y-95212726D01*
X62951639Y-95776548D01*
X63317696Y-96235199D01*
X63831407Y-96518853D01*
X63928538Y-96540684D01*
X64160564Y-96419543D01*
X64160564Y-94552326D01*
X64414564Y-94552326D01*
X64414564Y-96419543D01*
X64646590Y-96540684D01*
X64743721Y-96518853D01*
X65257432Y-96235199D01*
X65623489Y-95776548D01*
X65786164Y-95212726D01*
X65786164Y-94552326D01*
X64414564Y-94552326D01*
X64160564Y-94552326D01*
X62788964Y-94552326D01*
X62718990Y-94552326D01*
X62718990Y-93637926D01*
X62788964Y-93637926D01*
X62788964Y-94298326D01*
X64160564Y-94298326D01*
X64160564Y-92431109D01*
X64414564Y-92431109D01*
X64414564Y-94298326D01*
X65786164Y-94298326D01*
X65786164Y-93722629D01*
X67788964Y-93722629D01*
X67788964Y-95128023D01*
X67903038Y-95701512D01*
X68227894Y-96187693D01*
X68714075Y-96512549D01*
X69287564Y-96626623D01*
X69861053Y-96512549D01*
X70347234Y-96187693D01*
X70672090Y-95701512D01*
X70786164Y-95128023D01*
X70786164Y-93722629D01*
X70672090Y-93149140D01*
X70347234Y-92662959D01*
X69861053Y-92338103D01*
X69287564Y-92224029D01*
X68714075Y-92338103D01*
X68227894Y-92662959D01*
X67903038Y-93149140D01*
X67788964Y-93722629D01*
X65786164Y-93722629D01*
X65786164Y-93637926D01*
X65623489Y-93074104D01*
X65257432Y-92615453D01*
X64743721Y-92331799D01*
X64646590Y-92309968D01*
X64414564Y-92431109D01*
X64160564Y-92431109D01*
X63928538Y-92309968D01*
X63831407Y-92331799D01*
X63317696Y-92615453D01*
X62951639Y-93074104D01*
X62788964Y-93637926D01*
X62718990Y-93637926D01*
X62718990Y-89045858D01*
X63671566Y-89998434D01*
X63942460Y-90179440D01*
X64262000Y-90243000D01*
X72806132Y-90243000D01*
X76635000Y-94071868D01*
X76635000Y-96162560D01*
X76220000Y-96162560D01*
X75984683Y-96206838D01*
X75768559Y-96345910D01*
X75623569Y-96558110D01*
X75572560Y-96810000D01*
X75572560Y-101310000D01*
X75616838Y-101545317D01*
X75755910Y-101761441D01*
X75968110Y-101906431D01*
X76220000Y-101957440D01*
X78720000Y-101957440D01*
X78955317Y-101913162D01*
X79171441Y-101774090D01*
X79316431Y-101561890D01*
X79367440Y-101310000D01*
X79367440Y-99918502D01*
X79484249Y-99918502D01*
X80142823Y-101512372D01*
X81361213Y-102732892D01*
X82953932Y-103394246D01*
X84678502Y-103395751D01*
X86272372Y-102737177D01*
X87492892Y-101518787D01*
X88154246Y-99926068D01*
X88155751Y-98201498D01*
X87580796Y-96810000D01*
X88272560Y-96810000D01*
X88272560Y-101310000D01*
X88316838Y-101545317D01*
X88455910Y-101761441D01*
X88668110Y-101906431D01*
X88920000Y-101957440D01*
X91420000Y-101957440D01*
X91655317Y-101913162D01*
X91871441Y-101774090D01*
X92016431Y-101561890D01*
X92067440Y-101310000D01*
X92067440Y-99845781D01*
X92139541Y-99831439D01*
X92410434Y-99650434D01*
X96348434Y-95712434D01*
X96428244Y-95592990D01*
X96529439Y-95441541D01*
X96593000Y-95122000D01*
X96593000Y-93731554D01*
X97154019Y-93731554D01*
X97154019Y-95136948D01*
X97268093Y-95710437D01*
X97592949Y-96196618D01*
X98079130Y-96521474D01*
X98652619Y-96635548D01*
X99226108Y-96521474D01*
X99712289Y-96196618D01*
X100037145Y-95710437D01*
X100151219Y-95136948D01*
X100151219Y-94561251D01*
X102154019Y-94561251D01*
X102154019Y-95221651D01*
X102316694Y-95785473D01*
X102682751Y-96244124D01*
X103196462Y-96527778D01*
X103293593Y-96549609D01*
X103525619Y-96428468D01*
X103525619Y-94561251D01*
X103779619Y-94561251D01*
X103779619Y-96428468D01*
X104011645Y-96549609D01*
X104108776Y-96527778D01*
X104622487Y-96244124D01*
X104988544Y-95785473D01*
X105151219Y-95221651D01*
X105151219Y-94561251D01*
X103779619Y-94561251D01*
X103525619Y-94561251D01*
X102154019Y-94561251D01*
X100151219Y-94561251D01*
X100151219Y-93731554D01*
X100134371Y-93646851D01*
X102154019Y-93646851D01*
X102154019Y-94307251D01*
X103525619Y-94307251D01*
X103525619Y-92440034D01*
X103779619Y-92440034D01*
X103779619Y-94307251D01*
X105151219Y-94307251D01*
X105151219Y-93646851D01*
X104988544Y-93083029D01*
X104622487Y-92624378D01*
X104108776Y-92340724D01*
X104011645Y-92318893D01*
X103779619Y-92440034D01*
X103525619Y-92440034D01*
X103293593Y-92318893D01*
X103196462Y-92340724D01*
X102682751Y-92624378D01*
X102316694Y-93083029D01*
X102154019Y-93646851D01*
X100134371Y-93646851D01*
X100037145Y-93158065D01*
X99712289Y-92671884D01*
X99226108Y-92347028D01*
X98652619Y-92232954D01*
X98079130Y-92347028D01*
X97592949Y-92671884D01*
X97268093Y-93158065D01*
X97154019Y-93731554D01*
X96593000Y-93731554D01*
X96593000Y-90773612D01*
X96740878Y-90674803D01*
X97042193Y-90223855D01*
X97148000Y-89691925D01*
X97148000Y-88108075D01*
X97042193Y-87576145D01*
X96740878Y-87125197D01*
X96289930Y-86823882D01*
X95758000Y-86718075D01*
X95226070Y-86823882D01*
X94775122Y-87125197D01*
X94608000Y-87375312D01*
X94608000Y-87268690D01*
X94511327Y-87035301D01*
X94332698Y-86856673D01*
X94099309Y-86760000D01*
X93503750Y-86760000D01*
X93345000Y-86918750D01*
X93345000Y-88773000D01*
X93365000Y-88773000D01*
X93365000Y-89027000D01*
X93345000Y-89027000D01*
X93345000Y-90881250D01*
X93503750Y-91040000D01*
X94099309Y-91040000D01*
X94332698Y-90943327D01*
X94511327Y-90764699D01*
X94608000Y-90531310D01*
X94608000Y-90424688D01*
X94775122Y-90674803D01*
X94923000Y-90773612D01*
X94923000Y-94776132D01*
X92067440Y-97631692D01*
X92067440Y-96810000D01*
X92023162Y-96574683D01*
X91884090Y-96358559D01*
X91671890Y-96213569D01*
X91420000Y-96162560D01*
X88920000Y-96162560D01*
X88684683Y-96206838D01*
X88468559Y-96345910D01*
X88323569Y-96558110D01*
X88272560Y-96810000D01*
X87580796Y-96810000D01*
X87497177Y-96607628D01*
X86278787Y-95387108D01*
X84686068Y-94725754D01*
X82961498Y-94724249D01*
X81367628Y-95382823D01*
X80147108Y-96601213D01*
X79485754Y-98193932D01*
X79484249Y-99918502D01*
X79367440Y-99918502D01*
X79367440Y-96810000D01*
X79323162Y-96574683D01*
X79184090Y-96358559D01*
X78971890Y-96213569D01*
X78720000Y-96162560D01*
X78305000Y-96162560D01*
X78305000Y-93726000D01*
X78241439Y-93406459D01*
X78060434Y-93135566D01*
X76144236Y-91219368D01*
X80420237Y-91219368D01*
X80531141Y-91496599D01*
X81177093Y-91739823D01*
X81866953Y-91717336D01*
X82399859Y-91496599D01*
X82510763Y-91219368D01*
X81465500Y-90174105D01*
X80420237Y-91219368D01*
X76144236Y-91219368D01*
X74630961Y-89706093D01*
X79720177Y-89706093D01*
X79742664Y-90395953D01*
X79963401Y-90928859D01*
X80240632Y-91039763D01*
X81285895Y-89994500D01*
X81645105Y-89994500D01*
X82400244Y-90749639D01*
X82493781Y-90976015D01*
X82981418Y-91464504D01*
X83618873Y-91729199D01*
X84309099Y-91729801D01*
X84947015Y-91466219D01*
X85215540Y-91198162D01*
X85481418Y-91464504D01*
X86118873Y-91729199D01*
X86809099Y-91729801D01*
X87447015Y-91466219D01*
X87935504Y-90978582D01*
X88200199Y-90341127D01*
X88200801Y-89650901D01*
X88139157Y-89501711D01*
X88455118Y-89185750D01*
X91828000Y-89185750D01*
X91828000Y-90531310D01*
X91924673Y-90764699D01*
X92103302Y-90943327D01*
X92336691Y-91040000D01*
X92932250Y-91040000D01*
X93091000Y-90881250D01*
X93091000Y-89027000D01*
X91986750Y-89027000D01*
X91828000Y-89185750D01*
X88455118Y-89185750D01*
X90699868Y-86941000D01*
X91266766Y-86941000D01*
X91507201Y-87040838D01*
X91879167Y-87041162D01*
X91946727Y-87013247D01*
X91924673Y-87035301D01*
X91828000Y-87268690D01*
X91828000Y-88614250D01*
X91986750Y-88773000D01*
X93091000Y-88773000D01*
X93091000Y-86918750D01*
X92932250Y-86760000D01*
X92362303Y-86760000D01*
X92486192Y-86636327D01*
X92628838Y-86292799D01*
X92629162Y-85920833D01*
X92487117Y-85577057D01*
X92224327Y-85313808D01*
X91880799Y-85171162D01*
X91508833Y-85170838D01*
X91266422Y-85271000D01*
X91005000Y-85271000D01*
X91005000Y-80434264D01*
X90941439Y-80114723D01*
X90760434Y-79843830D01*
X89834845Y-78918241D01*
X89835162Y-78554833D01*
X89693117Y-78211057D01*
X89430327Y-77947808D01*
X89086799Y-77805162D01*
X88714833Y-77804838D01*
X88371057Y-77946883D01*
X88107808Y-78209673D01*
X87965162Y-78553201D01*
X87964838Y-78925167D01*
X88066271Y-79170655D01*
X88128561Y-79483805D01*
X88256205Y-79674838D01*
X88309566Y-79754698D01*
X88986213Y-80431345D01*
X88365500Y-80307877D01*
X87739813Y-80432334D01*
X87209380Y-80786757D01*
X86854957Y-81317190D01*
X86730500Y-81942877D01*
X86730500Y-84046123D01*
X86854957Y-84671810D01*
X87209380Y-85202243D01*
X87739813Y-85556666D01*
X88365500Y-85681123D01*
X88991187Y-85556666D01*
X89335000Y-85326938D01*
X89335000Y-85944132D01*
X86958536Y-88320596D01*
X86812127Y-88259801D01*
X86121901Y-88259199D01*
X85483985Y-88522781D01*
X85215460Y-88790838D01*
X84949582Y-88524496D01*
X84312127Y-88259801D01*
X83621901Y-88259199D01*
X82983985Y-88522781D01*
X82495496Y-89010418D01*
X82400563Y-89239042D01*
X81645105Y-89994500D01*
X81285895Y-89994500D01*
X80240632Y-88949237D01*
X79963401Y-89060141D01*
X79720177Y-89706093D01*
X74630961Y-89706093D01*
X73742434Y-88817566D01*
X73675736Y-88773000D01*
X73670696Y-88769632D01*
X80420237Y-88769632D01*
X81465500Y-89814895D01*
X82510763Y-88769632D01*
X82399859Y-88492401D01*
X81753907Y-88249177D01*
X81064047Y-88271664D01*
X80531141Y-88492401D01*
X80420237Y-88769632D01*
X73670696Y-88769632D01*
X73471541Y-88636561D01*
X73152000Y-88573000D01*
X64607868Y-88573000D01*
X63319000Y-87284132D01*
X63319000Y-84927868D01*
X64099868Y-84147000D01*
X64200147Y-84147000D01*
X64104808Y-84242173D01*
X63962162Y-84585701D01*
X63961838Y-84957667D01*
X64103883Y-85301443D01*
X64366673Y-85564692D01*
X64710201Y-85707338D01*
X65082167Y-85707662D01*
X65324578Y-85607500D01*
X70231000Y-85607500D01*
X70550541Y-85543939D01*
X70821434Y-85362934D01*
X74241491Y-81942877D01*
X77930500Y-81942877D01*
X77930500Y-84046123D01*
X78054957Y-84671810D01*
X78409380Y-85202243D01*
X78939813Y-85556666D01*
X79565500Y-85681123D01*
X80191187Y-85556666D01*
X80721620Y-85202243D01*
X81076043Y-84671810D01*
X81200500Y-84046123D01*
X81200500Y-81942877D01*
X81076043Y-81317190D01*
X80721620Y-80786757D01*
X80191187Y-80432334D01*
X79565500Y-80307877D01*
X78939813Y-80432334D01*
X78409380Y-80786757D01*
X78054957Y-81317190D01*
X77930500Y-81942877D01*
X74241491Y-81942877D01*
X81925867Y-74258501D01*
X86031633Y-74258501D01*
X97517066Y-85743934D01*
X97787960Y-85924940D01*
X98107500Y-85988500D01*
X102887266Y-85988500D01*
X103127701Y-86088338D01*
X103499667Y-86088662D01*
X103843443Y-85946617D01*
X104106692Y-85683827D01*
X104249338Y-85340299D01*
X104249662Y-84968333D01*
X104120196Y-84655000D01*
X105064132Y-84655000D01*
X105210000Y-84800868D01*
X105210000Y-107588892D01*
X105151219Y-107647673D01*
X105151219Y-107061251D01*
X103779619Y-107061251D01*
X103779619Y-107081251D01*
X103525619Y-107081251D01*
X103525619Y-107061251D01*
X102154019Y-107061251D01*
X102154019Y-107721651D01*
X102316694Y-108285473D01*
X102682751Y-108744124D01*
X103182376Y-109020000D01*
X100314760Y-109020000D01*
X99995220Y-109083560D01*
X99724326Y-109264566D01*
X99126012Y-109862880D01*
X98905060Y-109862880D01*
X98669743Y-109907158D01*
X98453619Y-110046230D01*
X98308629Y-110258430D01*
X98257620Y-110510320D01*
X98257620Y-110945769D01*
X98255026Y-110958810D01*
X98105460Y-110988560D01*
X97834566Y-111169566D01*
X97199566Y-111804566D01*
X97018561Y-112075459D01*
X96955000Y-112395000D01*
X96955000Y-118999000D01*
X97018561Y-119318541D01*
X97199566Y-119589434D01*
X97470459Y-119770439D01*
X97516786Y-119779654D01*
X97707566Y-119970434D01*
X97978459Y-120151439D01*
X98257620Y-120206968D01*
X98257620Y-120629680D01*
X98301898Y-120864997D01*
X98440970Y-121081121D01*
X98653170Y-121226111D01*
X98905060Y-121277120D01*
X100103940Y-121277120D01*
X100339257Y-121232842D01*
X100555381Y-121093770D01*
X100700371Y-120881570D01*
X100751380Y-120629680D01*
X100751380Y-118130320D01*
X101813620Y-118130320D01*
X101813620Y-120629680D01*
X101857898Y-120864997D01*
X101996970Y-121081121D01*
X102209170Y-121226111D01*
X102461060Y-121277120D01*
X103659940Y-121277120D01*
X103895257Y-121232842D01*
X104111381Y-121093770D01*
X104256371Y-120881570D01*
X104307380Y-120629680D01*
X104307380Y-119665750D01*
X105382060Y-119665750D01*
X105382060Y-120755990D01*
X105478733Y-120989379D01*
X105657362Y-121168007D01*
X105890751Y-121264680D01*
X106330750Y-121264680D01*
X106489500Y-121105930D01*
X106489500Y-119507000D01*
X106743500Y-119507000D01*
X106743500Y-121105930D01*
X106902250Y-121264680D01*
X107342249Y-121264680D01*
X107575638Y-121168007D01*
X107754267Y-120989379D01*
X107850940Y-120755990D01*
X107850940Y-119665750D01*
X107692190Y-119507000D01*
X106743500Y-119507000D01*
X106489500Y-119507000D01*
X105540810Y-119507000D01*
X105382060Y-119665750D01*
X104307380Y-119665750D01*
X104307380Y-118130320D01*
X104283614Y-118004010D01*
X105382060Y-118004010D01*
X105382060Y-119094250D01*
X105540810Y-119253000D01*
X106489500Y-119253000D01*
X106489500Y-117654070D01*
X106743500Y-117654070D01*
X106743500Y-119253000D01*
X107692190Y-119253000D01*
X107850940Y-119094250D01*
X107850940Y-118004010D01*
X107754267Y-117770621D01*
X107575638Y-117591993D01*
X107342249Y-117495320D01*
X106902250Y-117495320D01*
X106743500Y-117654070D01*
X106489500Y-117654070D01*
X106330750Y-117495320D01*
X105890751Y-117495320D01*
X105657362Y-117591993D01*
X105478733Y-117770621D01*
X105382060Y-118004010D01*
X104283614Y-118004010D01*
X104263102Y-117895003D01*
X104124030Y-117678879D01*
X103911830Y-117533889D01*
X103659940Y-117482880D01*
X102461060Y-117482880D01*
X102225743Y-117527158D01*
X102009619Y-117666230D01*
X101864629Y-117878430D01*
X101813620Y-118130320D01*
X100751380Y-118130320D01*
X100707102Y-117895003D01*
X100568030Y-117678879D01*
X100355830Y-117533889D01*
X100103940Y-117482880D01*
X98905060Y-117482880D01*
X98669743Y-117527158D01*
X98625000Y-117555949D01*
X98625000Y-116060745D01*
X98710908Y-116268657D01*
X99058015Y-116616371D01*
X99511766Y-116804785D01*
X100003079Y-116805214D01*
X100457157Y-116617592D01*
X100804871Y-116270485D01*
X100993285Y-115816734D01*
X100993286Y-115814579D01*
X104365286Y-115814579D01*
X104552908Y-116268657D01*
X104900015Y-116616371D01*
X105353766Y-116804785D01*
X105845079Y-116805214D01*
X106299157Y-116617592D01*
X106646871Y-116270485D01*
X106835285Y-115816734D01*
X106835714Y-115325421D01*
X106648092Y-114871343D01*
X106300985Y-114523629D01*
X105847234Y-114335215D01*
X105355921Y-114334786D01*
X104901843Y-114522408D01*
X104554129Y-114869515D01*
X104365715Y-115323266D01*
X104365286Y-115814579D01*
X100993286Y-115814579D01*
X100993714Y-115325421D01*
X100806092Y-114871343D01*
X100458985Y-114523629D01*
X100005234Y-114335215D01*
X99513921Y-114334786D01*
X99059843Y-114522408D01*
X98712129Y-114869515D01*
X98625000Y-115079345D01*
X98625000Y-113586863D01*
X98653170Y-113606111D01*
X98905060Y-113657120D01*
X100103940Y-113657120D01*
X100339257Y-113612842D01*
X100555381Y-113473770D01*
X100700371Y-113261570D01*
X100751380Y-113009680D01*
X100751380Y-110690000D01*
X101813620Y-110690000D01*
X101813620Y-113009680D01*
X101857898Y-113244997D01*
X101996970Y-113461121D01*
X102209170Y-113606111D01*
X102461060Y-113657120D01*
X103659940Y-113657120D01*
X103895257Y-113612842D01*
X104111381Y-113473770D01*
X104256371Y-113261570D01*
X104307380Y-113009680D01*
X104307380Y-112045750D01*
X105382060Y-112045750D01*
X105382060Y-113135990D01*
X105478733Y-113369379D01*
X105657362Y-113548007D01*
X105890751Y-113644680D01*
X106330750Y-113644680D01*
X106489500Y-113485930D01*
X106489500Y-111887000D01*
X106743500Y-111887000D01*
X106743500Y-113485930D01*
X106902250Y-113644680D01*
X107342249Y-113644680D01*
X107575638Y-113548007D01*
X107754267Y-113369379D01*
X107850940Y-113135990D01*
X107850940Y-112045750D01*
X107692190Y-111887000D01*
X106743500Y-111887000D01*
X106489500Y-111887000D01*
X105540810Y-111887000D01*
X105382060Y-112045750D01*
X104307380Y-112045750D01*
X104307380Y-110653674D01*
X104444301Y-110626439D01*
X104715194Y-110445434D01*
X104776618Y-110384010D01*
X105382060Y-110384010D01*
X105382060Y-111474250D01*
X105540810Y-111633000D01*
X106489500Y-111633000D01*
X106489500Y-110034070D01*
X106743500Y-110034070D01*
X106743500Y-111633000D01*
X107692190Y-111633000D01*
X107850940Y-111474250D01*
X107850940Y-110384010D01*
X107754267Y-110150621D01*
X107575638Y-109971993D01*
X107342249Y-109875320D01*
X106902250Y-109875320D01*
X106743500Y-110034070D01*
X106489500Y-110034070D01*
X106330750Y-109875320D01*
X105890751Y-109875320D01*
X105657362Y-109971993D01*
X105478733Y-110150621D01*
X105382060Y-110384010D01*
X104776618Y-110384010D01*
X106635434Y-108525194D01*
X106712832Y-108409360D01*
X106816439Y-108254301D01*
X106880000Y-107934760D01*
X106880000Y-84455000D01*
X106871135Y-84410434D01*
X106816440Y-84135460D01*
X106635434Y-83864566D01*
X106000434Y-83229566D01*
X105729541Y-83048561D01*
X105410000Y-82985000D01*
X103362870Y-82985000D01*
X102435000Y-82057130D01*
X102435000Y-81397579D01*
X102968286Y-81397579D01*
X103155908Y-81851657D01*
X103503015Y-82199371D01*
X103956766Y-82387785D01*
X104448079Y-82388214D01*
X104902157Y-82200592D01*
X105249871Y-81853485D01*
X105438285Y-81399734D01*
X105438286Y-81397579D01*
X105444786Y-81397579D01*
X105632408Y-81851657D01*
X105979515Y-82199371D01*
X106433266Y-82387785D01*
X106924579Y-82388214D01*
X107378657Y-82200592D01*
X107726371Y-81853485D01*
X107914785Y-81399734D01*
X107915214Y-80908421D01*
X107727592Y-80454343D01*
X107380485Y-80106629D01*
X106926734Y-79918215D01*
X106435421Y-79917786D01*
X105981343Y-80105408D01*
X105633629Y-80452515D01*
X105445215Y-80906266D01*
X105444786Y-81397579D01*
X105438286Y-81397579D01*
X105438714Y-80908421D01*
X105251092Y-80454343D01*
X104903985Y-80106629D01*
X104450234Y-79918215D01*
X103958921Y-79917786D01*
X103504843Y-80105408D01*
X103157129Y-80452515D01*
X102968715Y-80906266D01*
X102968286Y-81397579D01*
X102435000Y-81397579D01*
X102435000Y-77354808D01*
X103164797Y-77354808D01*
X103274591Y-77631098D01*
X103917258Y-77872807D01*
X104603503Y-77850179D01*
X105132409Y-77631098D01*
X105242203Y-77354808D01*
X104203500Y-76316105D01*
X103164797Y-77354808D01*
X102435000Y-77354808D01*
X102435000Y-75850258D01*
X102467193Y-75850258D01*
X102489821Y-76536503D01*
X102708902Y-77065409D01*
X102985192Y-77175203D01*
X104023895Y-76136500D01*
X104383105Y-76136500D01*
X105421808Y-77175203D01*
X105698098Y-77065409D01*
X105939807Y-76422742D01*
X105917179Y-75736497D01*
X105698098Y-75207591D01*
X105421808Y-75097797D01*
X104383105Y-76136500D01*
X104023895Y-76136500D01*
X102985192Y-75097797D01*
X102708902Y-75207591D01*
X102467193Y-75850258D01*
X102435000Y-75850258D01*
X102435000Y-74918192D01*
X103164797Y-74918192D01*
X104203500Y-75956895D01*
X105242203Y-74918192D01*
X105132409Y-74641902D01*
X104489742Y-74400193D01*
X103803497Y-74422821D01*
X103274591Y-74641902D01*
X103164797Y-74918192D01*
X102435000Y-74918192D01*
X102435000Y-71364579D01*
X102968286Y-71364579D01*
X103155908Y-71818657D01*
X103503015Y-72166371D01*
X103956766Y-72354785D01*
X104448079Y-72355214D01*
X104902157Y-72167592D01*
X105249871Y-71820485D01*
X105438285Y-71366734D01*
X105438286Y-71364579D01*
X105444786Y-71364579D01*
X105632408Y-71818657D01*
X105979515Y-72166371D01*
X106433266Y-72354785D01*
X106924579Y-72355214D01*
X107378657Y-72167592D01*
X107726371Y-71820485D01*
X107914785Y-71366734D01*
X107915214Y-70875421D01*
X107727592Y-70421343D01*
X107380485Y-70073629D01*
X106926734Y-69885215D01*
X106435421Y-69884786D01*
X105981343Y-70072408D01*
X105633629Y-70419515D01*
X105445215Y-70873266D01*
X105444786Y-71364579D01*
X105438286Y-71364579D01*
X105438714Y-70875421D01*
X105251092Y-70421343D01*
X104903985Y-70073629D01*
X104450234Y-69885215D01*
X103958921Y-69884786D01*
X103504843Y-70072408D01*
X103157129Y-70419515D01*
X102968715Y-70873266D01*
X102968286Y-71364579D01*
X102435000Y-71364579D01*
X102435000Y-64643000D01*
X102371439Y-64323459D01*
X102190434Y-64052566D01*
X100972736Y-62834868D01*
X101274737Y-62834868D01*
X101385641Y-63112099D01*
X102031593Y-63355323D01*
X102721453Y-63332836D01*
X103254359Y-63112099D01*
X103365263Y-62834868D01*
X102320000Y-61789605D01*
X101274737Y-62834868D01*
X100972736Y-62834868D01*
X99459461Y-61321593D01*
X100574677Y-61321593D01*
X100597164Y-62011453D01*
X100817901Y-62544359D01*
X101095132Y-62655263D01*
X102140395Y-61610000D01*
X102499605Y-61610000D01*
X103254744Y-62365139D01*
X103348281Y-62591515D01*
X103835918Y-63080004D01*
X104473373Y-63344699D01*
X105163599Y-63345301D01*
X105801515Y-63081719D01*
X106070040Y-62813662D01*
X106335918Y-63080004D01*
X106973373Y-63344699D01*
X107663599Y-63345301D01*
X108301515Y-63081719D01*
X108790004Y-62594082D01*
X109054699Y-61956627D01*
X109055301Y-61266401D01*
X108791719Y-60628485D01*
X108304082Y-60139996D01*
X107666627Y-59875301D01*
X106976401Y-59874699D01*
X106338485Y-60138281D01*
X106069960Y-60406338D01*
X105804082Y-60139996D01*
X105166627Y-59875301D01*
X104476401Y-59874699D01*
X103838485Y-60138281D01*
X103349996Y-60625918D01*
X103255063Y-60854542D01*
X102499605Y-61610000D01*
X102140395Y-61610000D01*
X101095132Y-60564737D01*
X100817901Y-60675641D01*
X100574677Y-61321593D01*
X99459461Y-61321593D01*
X98523000Y-60385132D01*
X101274737Y-60385132D01*
X102320000Y-61430395D01*
X103365263Y-60385132D01*
X103254359Y-60107901D01*
X102608407Y-59864677D01*
X101918547Y-59887164D01*
X101385641Y-60107901D01*
X101274737Y-60385132D01*
X98523000Y-60385132D01*
X97024886Y-58887018D01*
X97038733Y-58853670D01*
X97039265Y-58243009D01*
X96806068Y-57678629D01*
X96404818Y-57276677D01*
X96804551Y-56877643D01*
X97038733Y-56313670D01*
X97039265Y-55703009D01*
X97024527Y-55667341D01*
X98380434Y-54311434D01*
X98418143Y-54254999D01*
X98561439Y-54040541D01*
X98625000Y-53721000D01*
X98625000Y-53558377D01*
X98785000Y-53558377D01*
X98785000Y-55661623D01*
X98909457Y-56287310D01*
X99263880Y-56817743D01*
X99794313Y-57172166D01*
X100420000Y-57296623D01*
X101045687Y-57172166D01*
X101576120Y-56817743D01*
X101930543Y-56287310D01*
X102055000Y-55661623D01*
X102055000Y-53558377D01*
X101930543Y-52932690D01*
X101576120Y-52402257D01*
X101045687Y-52047834D01*
X100420000Y-51923377D01*
X99794313Y-52047834D01*
X99263880Y-52402257D01*
X98909457Y-52932690D01*
X98785000Y-53558377D01*
X98625000Y-53558377D01*
X98625000Y-52499604D01*
X101421759Y-49702845D01*
X101785167Y-49703162D01*
X102128943Y-49561117D01*
X102392192Y-49298327D01*
X102534838Y-48954799D01*
X102535162Y-48582833D01*
X102393117Y-48239057D01*
X102130327Y-47975808D01*
X101786799Y-47833162D01*
X101414833Y-47832838D01*
X101169345Y-47934271D01*
X100856196Y-47996560D01*
X100585302Y-48177566D01*
X97199566Y-51563302D01*
X97018561Y-51834195D01*
X96955000Y-52153736D01*
X96955000Y-52959072D01*
X96806068Y-52598629D01*
X96404818Y-52196677D01*
X96804551Y-51797643D01*
X97038733Y-51233670D01*
X97039265Y-50623009D01*
X96806068Y-50058629D01*
X96404818Y-49656677D01*
X96804551Y-49257643D01*
X97038733Y-48693670D01*
X97039265Y-48083009D01*
X96806068Y-47518629D01*
X96374643Y-47086449D01*
X95810670Y-46852267D01*
X95200009Y-46851735D01*
X94635629Y-47084932D01*
X94203449Y-47516357D01*
X94188649Y-47552000D01*
X92964000Y-47552000D01*
X92644460Y-47615560D01*
X92373566Y-47796566D01*
X89281000Y-50889132D01*
X88047435Y-49655567D01*
X88003857Y-49626449D01*
X87776542Y-49474562D01*
X87457001Y-49411001D01*
X77896869Y-49411001D01*
X73917535Y-45431667D01*
X73864527Y-45303377D01*
X77830000Y-45303377D01*
X77830000Y-47406623D01*
X77954457Y-48032310D01*
X78308880Y-48562743D01*
X78839313Y-48917166D01*
X79465000Y-49041623D01*
X80090687Y-48917166D01*
X80621120Y-48562743D01*
X80975543Y-48032310D01*
X81100000Y-47406623D01*
X81100000Y-45303377D01*
X86630000Y-45303377D01*
X86630000Y-47406623D01*
X86754457Y-48032310D01*
X87108880Y-48562743D01*
X87639313Y-48917166D01*
X88265000Y-49041623D01*
X88890687Y-48917166D01*
X89421120Y-48562743D01*
X89775543Y-48032310D01*
X89900000Y-47406623D01*
X89900000Y-45303377D01*
X89775543Y-44677690D01*
X89421120Y-44147257D01*
X88890687Y-43792834D01*
X88265000Y-43668377D01*
X87639313Y-43792834D01*
X87108880Y-44147257D01*
X86754457Y-44677690D01*
X86630000Y-45303377D01*
X81100000Y-45303377D01*
X80975543Y-44677690D01*
X80621120Y-44147257D01*
X80090687Y-43792834D01*
X79465000Y-43668377D01*
X78839313Y-43792834D01*
X78308880Y-44147257D01*
X77954457Y-44677690D01*
X77830000Y-45303377D01*
X73864527Y-45303377D01*
X73818117Y-45191057D01*
X73555327Y-44927808D01*
X73211799Y-44785162D01*
X72839833Y-44784838D01*
X72496057Y-44926883D01*
X72232808Y-45189673D01*
X72090162Y-45533201D01*
X72089838Y-45905167D01*
X72231883Y-46248943D01*
X72494673Y-46512192D01*
X72736910Y-46612778D01*
X72994669Y-46870537D01*
X72950670Y-46852267D01*
X72340009Y-46851735D01*
X71775629Y-47084932D01*
X71343449Y-47516357D01*
X71328649Y-47552000D01*
X70485000Y-47552000D01*
X70165460Y-47615560D01*
X69894566Y-47796566D01*
X69259566Y-48431566D01*
X69078561Y-48702459D01*
X69015000Y-49022000D01*
X69015000Y-62138132D01*
X67946468Y-63206664D01*
X67849117Y-62971057D01*
X67586327Y-62707808D01*
X67242799Y-62565162D01*
X66929126Y-62564889D01*
X67181699Y-61956627D01*
X67182301Y-61266401D01*
X66918719Y-60628485D01*
X66431082Y-60139996D01*
X65793627Y-59875301D01*
X65103401Y-59874699D01*
X64465485Y-60138281D01*
X64196960Y-60406338D01*
X63931082Y-60139996D01*
X63293627Y-59875301D01*
X62603401Y-59874699D01*
X61965485Y-60138281D01*
X61476996Y-60625918D01*
X61382063Y-60854542D01*
X60626605Y-61610000D01*
X60267395Y-61610000D01*
X59222132Y-60564737D01*
X58944901Y-60675641D01*
X58701677Y-61321593D01*
X57230440Y-61321593D01*
X57230440Y-60385132D01*
X59401737Y-60385132D01*
X60447000Y-61430395D01*
X61492263Y-60385132D01*
X61381359Y-60107901D01*
X60735407Y-59864677D01*
X60045547Y-59887164D01*
X59512641Y-60107901D01*
X59401737Y-60385132D01*
X57230440Y-60385132D01*
X57230440Y-56577627D01*
X57390880Y-56817743D01*
X57921313Y-57172166D01*
X58547000Y-57296623D01*
X59172687Y-57172166D01*
X59703120Y-56817743D01*
X60057543Y-56287310D01*
X60182000Y-55661623D01*
X60182000Y-53558377D01*
X65712000Y-53558377D01*
X65712000Y-55661623D01*
X65836457Y-56287310D01*
X66190880Y-56817743D01*
X66721313Y-57172166D01*
X67347000Y-57296623D01*
X67972687Y-57172166D01*
X68503120Y-56817743D01*
X68857543Y-56287310D01*
X68982000Y-55661623D01*
X68982000Y-53558377D01*
X68857543Y-52932690D01*
X68503120Y-52402257D01*
X67972687Y-52047834D01*
X67347000Y-51923377D01*
X66721313Y-52047834D01*
X66190880Y-52402257D01*
X65836457Y-52932690D01*
X65712000Y-53558377D01*
X60182000Y-53558377D01*
X60057543Y-52932690D01*
X59703120Y-52402257D01*
X59172687Y-52047834D01*
X58547000Y-51923377D01*
X57921313Y-52047834D01*
X57390880Y-52402257D01*
X57230440Y-52642373D01*
X57230440Y-45855736D01*
X57992492Y-45854998D01*
X58000681Y-45853361D01*
X58008908Y-45854785D01*
X58592281Y-45840235D01*
X58612986Y-45835577D01*
X58634082Y-45837913D01*
X59150797Y-45793333D01*
X59177978Y-45785446D01*
X59206266Y-45786256D01*
X59665542Y-45708496D01*
X59698847Y-45695805D01*
X59734391Y-45693156D01*
X60145450Y-45579065D01*
X60182690Y-45560285D01*
X60223604Y-45552199D01*
X60595662Y-45398627D01*
X60632737Y-45373921D01*
X60674971Y-45359730D01*
X61017251Y-45163525D01*
X61049639Y-45135298D01*
X61088349Y-45116669D01*
X61410070Y-44874680D01*
X61435002Y-44846796D01*
X61466758Y-44827032D01*
X61777141Y-44536108D01*
X61794150Y-44512353D01*
X61817568Y-44494880D01*
X62093864Y-44188264D01*
X62110817Y-44159793D01*
X62135357Y-44137533D01*
X62363735Y-43829329D01*
X62381088Y-43792600D01*
X62407767Y-43761966D01*
X62592901Y-43438744D01*
X62606669Y-43397721D01*
X62630788Y-43361794D01*
X62777347Y-43010126D01*
X62785257Y-42970803D01*
X62803607Y-42935136D01*
X62916264Y-42541594D01*
X62918974Y-42508803D01*
X62931182Y-42478249D01*
X63014607Y-42029403D01*
X63014299Y-42004937D01*
X63021753Y-41981635D01*
X63080618Y-41464056D01*
X63079223Y-41447307D01*
X63083563Y-41431073D01*
X63122538Y-40831334D01*
X63121737Y-40825275D01*
X63123212Y-40819343D01*
X63165379Y-39929716D01*
X104677062Y-39929716D01*
X104713562Y-40790675D01*
G36*
X76960567Y-50836435D02*
X77231460Y-51017440D01*
X77551001Y-51081001D01*
X87111133Y-51081001D01*
X88446000Y-52415868D01*
X88446000Y-55707157D01*
X88079833Y-55706838D01*
X87736057Y-55848883D01*
X87472808Y-56111673D01*
X87330162Y-56455201D01*
X87329838Y-56827167D01*
X87471883Y-57170943D01*
X87734673Y-57434192D01*
X88078201Y-57576838D01*
X88446000Y-57577158D01*
X88446000Y-59563000D01*
X88509561Y-59882541D01*
X88660142Y-60107901D01*
X88690566Y-60153434D01*
X91113000Y-62575868D01*
X91113000Y-71790132D01*
X90078132Y-72825000D01*
X88946234Y-72825000D01*
X88705799Y-72725162D01*
X88333833Y-72724838D01*
X87990057Y-72866883D01*
X87726808Y-73129673D01*
X87591176Y-73456308D01*
X87212501Y-73077633D01*
X87212501Y-67779570D01*
X87319695Y-67672563D01*
X89257218Y-69610086D01*
X89235162Y-69663201D01*
X89234838Y-70035167D01*
X89376883Y-70378943D01*
X89639673Y-70642192D01*
X89983201Y-70784838D01*
X90355167Y-70785162D01*
X90698943Y-70643117D01*
X90962192Y-70380327D01*
X91104838Y-70036799D01*
X91105162Y-69664833D01*
X91005000Y-69422422D01*
X91005000Y-69342000D01*
X90941439Y-69022459D01*
X90760434Y-68751566D01*
X87710933Y-65702065D01*
X87577395Y-65612838D01*
X87440040Y-65521060D01*
X87120499Y-65457499D01*
X84583501Y-65457499D01*
X84263960Y-65521060D01*
X84126605Y-65612838D01*
X84100309Y-65630409D01*
X83799057Y-65754883D01*
X83773501Y-65780394D01*
X83773501Y-55089922D01*
X84208599Y-55090301D01*
X84846515Y-54826719D01*
X85115040Y-54558662D01*
X85380918Y-54825004D01*
X86018373Y-55089699D01*
X86708599Y-55090301D01*
X87346515Y-54826719D01*
X87835004Y-54339082D01*
X88099699Y-53701627D01*
X88100301Y-53011401D01*
X87836719Y-52373485D01*
X87349082Y-51884996D01*
X86711627Y-51620301D01*
X86021401Y-51619699D01*
X85383485Y-51883281D01*
X85114960Y-52151338D01*
X84849082Y-51884996D01*
X84211627Y-51620301D01*
X83521401Y-51619699D01*
X82883485Y-51883281D01*
X82394996Y-52370918D01*
X82300063Y-52599542D01*
X81544605Y-53355000D01*
X81558748Y-53369143D01*
X81379143Y-53548748D01*
X81365000Y-53534605D01*
X80319737Y-54579868D01*
X80430641Y-54857099D01*
X81076593Y-55100323D01*
X81766453Y-55077836D01*
X82103501Y-54938226D01*
X82103501Y-67487765D01*
X82167062Y-67807306D01*
X82270651Y-67962338D01*
X82348067Y-68078199D01*
X83348368Y-69078500D01*
X76091858Y-69078500D01*
X77552434Y-67617924D01*
X77574471Y-67584943D01*
X77733439Y-67347031D01*
X77797000Y-67027490D01*
X77797000Y-61813868D01*
X78266333Y-61344535D01*
X78506943Y-61245117D01*
X78770192Y-60982327D01*
X78912838Y-60638799D01*
X78913162Y-60266833D01*
X78771117Y-59923057D01*
X78508327Y-59659808D01*
X78164799Y-59517162D01*
X77792833Y-59516838D01*
X77449057Y-59658883D01*
X77185808Y-59921673D01*
X77085222Y-60163910D01*
X76781000Y-60468132D01*
X76781000Y-60289868D01*
X78266333Y-58804535D01*
X78506943Y-58705117D01*
X78770192Y-58442327D01*
X78912838Y-58098799D01*
X78913162Y-57726833D01*
X78771117Y-57383057D01*
X78508327Y-57119808D01*
X78164799Y-56977162D01*
X77792833Y-56976838D01*
X77449057Y-57118883D01*
X77185808Y-57381673D01*
X77085222Y-57623910D01*
X75355566Y-59353566D01*
X75174561Y-59624459D01*
X75111000Y-59944000D01*
X75111000Y-66267132D01*
X73117667Y-68260465D01*
X72877057Y-68359883D01*
X72613808Y-68622673D01*
X72471162Y-68966201D01*
X72471064Y-69078500D01*
X70812000Y-69078500D01*
X70812000Y-69067234D01*
X70911838Y-68826799D01*
X70912162Y-68454833D01*
X70770117Y-68111057D01*
X70507327Y-67847808D01*
X70163799Y-67705162D01*
X69791833Y-67704838D01*
X69448057Y-67846883D01*
X69184808Y-68109673D01*
X69042162Y-68453201D01*
X69041838Y-68825167D01*
X69142000Y-69067578D01*
X69142000Y-69507413D01*
X68924815Y-69417230D01*
X68238197Y-69416631D01*
X67603616Y-69678835D01*
X67117681Y-70163923D01*
X66875000Y-70748363D01*
X66875000Y-66639868D01*
X70440434Y-63074434D01*
X70621440Y-62803540D01*
X70685000Y-62484000D01*
X70685000Y-53770991D01*
X71108735Y-53770991D01*
X71341932Y-54335371D01*
X71743182Y-54737323D01*
X71343449Y-55136357D01*
X71109267Y-55700330D01*
X71108735Y-56310991D01*
X71341932Y-56875371D01*
X71743182Y-57277323D01*
X71343449Y-57676357D01*
X71109267Y-58240330D01*
X71108735Y-58850991D01*
X71341932Y-59415371D01*
X71743182Y-59817323D01*
X71343449Y-60216357D01*
X71109267Y-60780330D01*
X71108735Y-61390991D01*
X71341932Y-61955371D01*
X71743182Y-62357323D01*
X71343449Y-62756357D01*
X71109267Y-63320330D01*
X71108735Y-63930991D01*
X71341932Y-64495371D01*
X71743182Y-64897323D01*
X71343449Y-65296357D01*
X71109267Y-65860330D01*
X71108735Y-66470991D01*
X71341932Y-67035371D01*
X71773357Y-67467551D01*
X72337330Y-67701733D01*
X72947991Y-67702265D01*
X73512371Y-67469068D01*
X73944551Y-67037643D01*
X74178733Y-66473670D01*
X74179265Y-65863009D01*
X73946068Y-65298629D01*
X73544818Y-64896677D01*
X73944551Y-64497643D01*
X74178733Y-63933670D01*
X74179265Y-63323009D01*
X73946068Y-62758629D01*
X73544818Y-62356677D01*
X73944551Y-61957643D01*
X74178733Y-61393670D01*
X74179265Y-60783009D01*
X73946068Y-60218629D01*
X73544818Y-59816677D01*
X73944551Y-59417643D01*
X74178733Y-58853670D01*
X74179265Y-58243009D01*
X73946068Y-57678629D01*
X73544818Y-57276677D01*
X73944551Y-56877643D01*
X74178733Y-56313670D01*
X74179265Y-55703009D01*
X73946068Y-55138629D01*
X73544818Y-54736677D01*
X73944551Y-54337643D01*
X74178733Y-53773670D01*
X74179265Y-53163009D01*
X74139427Y-53066593D01*
X79619677Y-53066593D01*
X79642164Y-53756453D01*
X79862901Y-54289359D01*
X80140132Y-54400263D01*
X81185395Y-53355000D01*
X80140132Y-52309737D01*
X79862901Y-52420641D01*
X79619677Y-53066593D01*
X74139427Y-53066593D01*
X73946068Y-52598629D01*
X73514643Y-52166449D01*
X73493806Y-52157797D01*
X73503125Y-52130132D01*
X80319737Y-52130132D01*
X81365000Y-53175395D01*
X82410263Y-52130132D01*
X82299359Y-51852901D01*
X81653407Y-51609677D01*
X80963547Y-51632164D01*
X80430641Y-51852901D01*
X80319737Y-52130132D01*
X73503125Y-52130132D01*
X73544554Y-52007159D01*
X72644000Y-51106605D01*
X71743446Y-52007159D01*
X71794035Y-52157327D01*
X71775629Y-52164932D01*
X71343449Y-52596357D01*
X71109267Y-53160330D01*
X71108735Y-53770991D01*
X70685000Y-53770991D01*
X70685000Y-50686336D01*
X71097542Y-50686336D01*
X71123161Y-51296460D01*
X71307357Y-51741148D01*
X71563841Y-51827554D01*
X72464395Y-50927000D01*
X72823605Y-50927000D01*
X73724159Y-51827554D01*
X73980643Y-51741148D01*
X74190458Y-51167664D01*
X74164839Y-50557540D01*
X73980643Y-50112852D01*
X73724159Y-50026446D01*
X72823605Y-50927000D01*
X72464395Y-50927000D01*
X71563841Y-50026446D01*
X71307357Y-50112852D01*
X71097542Y-50686336D01*
X70685000Y-50686336D01*
X70685000Y-49367868D01*
X70830868Y-49222000D01*
X71328143Y-49222000D01*
X71341932Y-49255371D01*
X71773357Y-49687551D01*
X71794194Y-49696203D01*
X71743446Y-49846841D01*
X72644000Y-50747395D01*
X73544554Y-49846841D01*
X73493965Y-49696673D01*
X73512371Y-49689068D01*
X73944551Y-49257643D01*
X74178733Y-48693670D01*
X74179265Y-48083009D01*
X74159637Y-48035505D01*
X76960567Y-50836435D01*
X76960567Y-50836435D01*
G37*
X76960567Y-50836435D02*
X77231460Y-51017440D01*
X77551001Y-51081001D01*
X87111133Y-51081001D01*
X88446000Y-52415868D01*
X88446000Y-55707157D01*
X88079833Y-55706838D01*
X87736057Y-55848883D01*
X87472808Y-56111673D01*
X87330162Y-56455201D01*
X87329838Y-56827167D01*
X87471883Y-57170943D01*
X87734673Y-57434192D01*
X88078201Y-57576838D01*
X88446000Y-57577158D01*
X88446000Y-59563000D01*
X88509561Y-59882541D01*
X88660142Y-60107901D01*
X88690566Y-60153434D01*
X91113000Y-62575868D01*
X91113000Y-71790132D01*
X90078132Y-72825000D01*
X88946234Y-72825000D01*
X88705799Y-72725162D01*
X88333833Y-72724838D01*
X87990057Y-72866883D01*
X87726808Y-73129673D01*
X87591176Y-73456308D01*
X87212501Y-73077633D01*
X87212501Y-67779570D01*
X87319695Y-67672563D01*
X89257218Y-69610086D01*
X89235162Y-69663201D01*
X89234838Y-70035167D01*
X89376883Y-70378943D01*
X89639673Y-70642192D01*
X89983201Y-70784838D01*
X90355167Y-70785162D01*
X90698943Y-70643117D01*
X90962192Y-70380327D01*
X91104838Y-70036799D01*
X91105162Y-69664833D01*
X91005000Y-69422422D01*
X91005000Y-69342000D01*
X90941439Y-69022459D01*
X90760434Y-68751566D01*
X87710933Y-65702065D01*
X87577395Y-65612838D01*
X87440040Y-65521060D01*
X87120499Y-65457499D01*
X84583501Y-65457499D01*
X84263960Y-65521060D01*
X84126605Y-65612838D01*
X84100309Y-65630409D01*
X83799057Y-65754883D01*
X83773501Y-65780394D01*
X83773501Y-55089922D01*
X84208599Y-55090301D01*
X84846515Y-54826719D01*
X85115040Y-54558662D01*
X85380918Y-54825004D01*
X86018373Y-55089699D01*
X86708599Y-55090301D01*
X87346515Y-54826719D01*
X87835004Y-54339082D01*
X88099699Y-53701627D01*
X88100301Y-53011401D01*
X87836719Y-52373485D01*
X87349082Y-51884996D01*
X86711627Y-51620301D01*
X86021401Y-51619699D01*
X85383485Y-51883281D01*
X85114960Y-52151338D01*
X84849082Y-51884996D01*
X84211627Y-51620301D01*
X83521401Y-51619699D01*
X82883485Y-51883281D01*
X82394996Y-52370918D01*
X82300063Y-52599542D01*
X81544605Y-53355000D01*
X81558748Y-53369143D01*
X81379143Y-53548748D01*
X81365000Y-53534605D01*
X80319737Y-54579868D01*
X80430641Y-54857099D01*
X81076593Y-55100323D01*
X81766453Y-55077836D01*
X82103501Y-54938226D01*
X82103501Y-67487765D01*
X82167062Y-67807306D01*
X82270651Y-67962338D01*
X82348067Y-68078199D01*
X83348368Y-69078500D01*
X76091858Y-69078500D01*
X77552434Y-67617924D01*
X77574471Y-67584943D01*
X77733439Y-67347031D01*
X77797000Y-67027490D01*
X77797000Y-61813868D01*
X78266333Y-61344535D01*
X78506943Y-61245117D01*
X78770192Y-60982327D01*
X78912838Y-60638799D01*
X78913162Y-60266833D01*
X78771117Y-59923057D01*
X78508327Y-59659808D01*
X78164799Y-59517162D01*
X77792833Y-59516838D01*
X77449057Y-59658883D01*
X77185808Y-59921673D01*
X77085222Y-60163910D01*
X76781000Y-60468132D01*
X76781000Y-60289868D01*
X78266333Y-58804535D01*
X78506943Y-58705117D01*
X78770192Y-58442327D01*
X78912838Y-58098799D01*
X78913162Y-57726833D01*
X78771117Y-57383057D01*
X78508327Y-57119808D01*
X78164799Y-56977162D01*
X77792833Y-56976838D01*
X77449057Y-57118883D01*
X77185808Y-57381673D01*
X77085222Y-57623910D01*
X75355566Y-59353566D01*
X75174561Y-59624459D01*
X75111000Y-59944000D01*
X75111000Y-66267132D01*
X73117667Y-68260465D01*
X72877057Y-68359883D01*
X72613808Y-68622673D01*
X72471162Y-68966201D01*
X72471064Y-69078500D01*
X70812000Y-69078500D01*
X70812000Y-69067234D01*
X70911838Y-68826799D01*
X70912162Y-68454833D01*
X70770117Y-68111057D01*
X70507327Y-67847808D01*
X70163799Y-67705162D01*
X69791833Y-67704838D01*
X69448057Y-67846883D01*
X69184808Y-68109673D01*
X69042162Y-68453201D01*
X69041838Y-68825167D01*
X69142000Y-69067578D01*
X69142000Y-69507413D01*
X68924815Y-69417230D01*
X68238197Y-69416631D01*
X67603616Y-69678835D01*
X67117681Y-70163923D01*
X66875000Y-70748363D01*
X66875000Y-66639868D01*
X70440434Y-63074434D01*
X70621440Y-62803540D01*
X70685000Y-62484000D01*
X70685000Y-53770991D01*
X71108735Y-53770991D01*
X71341932Y-54335371D01*
X71743182Y-54737323D01*
X71343449Y-55136357D01*
X71109267Y-55700330D01*
X71108735Y-56310991D01*
X71341932Y-56875371D01*
X71743182Y-57277323D01*
X71343449Y-57676357D01*
X71109267Y-58240330D01*
X71108735Y-58850991D01*
X71341932Y-59415371D01*
X71743182Y-59817323D01*
X71343449Y-60216357D01*
X71109267Y-60780330D01*
X71108735Y-61390991D01*
X71341932Y-61955371D01*
X71743182Y-62357323D01*
X71343449Y-62756357D01*
X71109267Y-63320330D01*
X71108735Y-63930991D01*
X71341932Y-64495371D01*
X71743182Y-64897323D01*
X71343449Y-65296357D01*
X71109267Y-65860330D01*
X71108735Y-66470991D01*
X71341932Y-67035371D01*
X71773357Y-67467551D01*
X72337330Y-67701733D01*
X72947991Y-67702265D01*
X73512371Y-67469068D01*
X73944551Y-67037643D01*
X74178733Y-66473670D01*
X74179265Y-65863009D01*
X73946068Y-65298629D01*
X73544818Y-64896677D01*
X73944551Y-64497643D01*
X74178733Y-63933670D01*
X74179265Y-63323009D01*
X73946068Y-62758629D01*
X73544818Y-62356677D01*
X73944551Y-61957643D01*
X74178733Y-61393670D01*
X74179265Y-60783009D01*
X73946068Y-60218629D01*
X73544818Y-59816677D01*
X73944551Y-59417643D01*
X74178733Y-58853670D01*
X74179265Y-58243009D01*
X73946068Y-57678629D01*
X73544818Y-57276677D01*
X73944551Y-56877643D01*
X74178733Y-56313670D01*
X74179265Y-55703009D01*
X73946068Y-55138629D01*
X73544818Y-54736677D01*
X73944551Y-54337643D01*
X74178733Y-53773670D01*
X74179265Y-53163009D01*
X74139427Y-53066593D01*
X79619677Y-53066593D01*
X79642164Y-53756453D01*
X79862901Y-54289359D01*
X80140132Y-54400263D01*
X81185395Y-53355000D01*
X80140132Y-52309737D01*
X79862901Y-52420641D01*
X79619677Y-53066593D01*
X74139427Y-53066593D01*
X73946068Y-52598629D01*
X73514643Y-52166449D01*
X73493806Y-52157797D01*
X73503125Y-52130132D01*
X80319737Y-52130132D01*
X81365000Y-53175395D01*
X82410263Y-52130132D01*
X82299359Y-51852901D01*
X81653407Y-51609677D01*
X80963547Y-51632164D01*
X80430641Y-51852901D01*
X80319737Y-52130132D01*
X73503125Y-52130132D01*
X73544554Y-52007159D01*
X72644000Y-51106605D01*
X71743446Y-52007159D01*
X71794035Y-52157327D01*
X71775629Y-52164932D01*
X71343449Y-52596357D01*
X71109267Y-53160330D01*
X71108735Y-53770991D01*
X70685000Y-53770991D01*
X70685000Y-50686336D01*
X71097542Y-50686336D01*
X71123161Y-51296460D01*
X71307357Y-51741148D01*
X71563841Y-51827554D01*
X72464395Y-50927000D01*
X72823605Y-50927000D01*
X73724159Y-51827554D01*
X73980643Y-51741148D01*
X74190458Y-51167664D01*
X74164839Y-50557540D01*
X73980643Y-50112852D01*
X73724159Y-50026446D01*
X72823605Y-50927000D01*
X72464395Y-50927000D01*
X71563841Y-50026446D01*
X71307357Y-50112852D01*
X71097542Y-50686336D01*
X70685000Y-50686336D01*
X70685000Y-49367868D01*
X70830868Y-49222000D01*
X71328143Y-49222000D01*
X71341932Y-49255371D01*
X71773357Y-49687551D01*
X71794194Y-49696203D01*
X71743446Y-49846841D01*
X72644000Y-50747395D01*
X73544554Y-49846841D01*
X73493965Y-49696673D01*
X73512371Y-49689068D01*
X73944551Y-49257643D01*
X74178733Y-48693670D01*
X74179265Y-48083009D01*
X74159637Y-48035505D01*
X76960567Y-50836435D01*
M02*
