M48
;DRILL file {KiCad 4.0.7-e0-6372~58~ubuntu16.04.1} date Fri Aug 17 11:57:42 2018
;FORMAT={-:-/ absolute / metric / decimal}
FMAT,2
METRIC,TZ
T1C0.400
T2C0.813
T3C1.000
T4C1.016
T5C1.200
T6C1.298
T7C7.000
%
G90
G05
M71
T1
X64.897Y-84.772
X65.913Y-48.26
X67.056Y-63.5
X69.977Y-68.64
X71.12Y-47.244
X71.12Y-50.419
X73.025Y-45.72
X73.406Y-69.153
X74.676Y-69.153
X77.978Y-55.626
X77.978Y-57.912
X77.978Y-60.452
X80.899Y-63.5
X83.82Y-69.913
X84.328Y-66.548
X84.772Y-68.897
X86.677Y-66.992
X88.265Y-56.642
X88.519Y-73.66
X88.9Y-78.74
X90.17Y-69.85
X91.694Y-86.106
X92.964Y-67.056
X93.853Y-69.025
X96.012Y-75.692
X98.806Y-63.754
X98.933Y-67.46
X101.6Y-48.768
X103.314Y-85.153
T2
X64.288Y-94.425
X64.288Y-106.925
X69.288Y-94.425
X69.288Y-106.925
X98.653Y-94.434
X98.653Y-106.934
X103.653Y-94.434
X103.653Y-106.934
T3
X60.447Y-61.61
X62.947Y-61.61
X65.447Y-61.61
X81.365Y-53.355
X81.465Y-89.995
X83.865Y-53.355
X83.965Y-89.995
X86.365Y-53.355
X86.465Y-89.995
X93.218Y-88.9
X95.758Y-88.9
X102.32Y-61.61
X104.82Y-61.61
X107.32Y-61.61
T4
X72.644Y-48.387
X72.644Y-50.927
X72.644Y-53.467
X72.644Y-56.007
X72.644Y-58.547
X72.644Y-61.087
X72.644Y-63.627
X72.644Y-66.167
X95.504Y-48.387
X95.504Y-50.927
X95.504Y-53.467
X95.504Y-56.007
X95.504Y-58.547
X95.504Y-61.087
X95.504Y-63.627
X95.504Y-66.167
T5
X61.105Y-71.224
X61.105Y-81.257
X63.581Y-71.224
X63.581Y-81.257
X67.818Y-115.57
X68.598Y-76.241
X99.187Y-76.136
X99.758Y-115.57
X104.203Y-71.12
X104.203Y-81.153
X106.68Y-71.12
X106.68Y-81.153
T6
X63.581Y-76.241
X68.58Y-71.143
X68.58Y-73.741
X68.58Y-78.74
X68.58Y-81.338
X99.205Y-71.039
X99.205Y-73.637
X99.205Y-78.636
X99.205Y-81.234
X104.203Y-76.136
T7
X83.82Y-99.06
T5
X77.47Y-99.96G85X77.47Y-98.16
G05
X90.17Y-99.96G85X90.17Y-98.16
G05
T0
M30
