<?xml version="1.0" encoding="UTF-8" standalone="no"?>
<!-- Created with Inkscape (http://www.inkscape.org/) -->

<svg
   xmlns:dc="http://purl.org/dc/elements/1.1/"
   xmlns:cc="http://creativecommons.org/ns#"
   xmlns:rdf="http://www.w3.org/1999/02/22-rdf-syntax-ns#"
   xmlns:svg="http://www.w3.org/2000/svg"
   xmlns="http://www.w3.org/2000/svg"
   xmlns:sodipodi="http://sodipodi.sourceforge.net/DTD/sodipodi-0.dtd"
   xmlns:inkscape="http://www.inkscape.org/namespaces/inkscape"
   width="210mm"
   height="297mm"
   viewBox="0 0 744.09448819 1052.3622047"
   id="svg6404"
   version="1.1"
   inkscape:version="0.91 r13725"
   sodipodi:docname="case_StompBox.svg">
  <defs
     id="defs6406" />
  <sodipodi:namedview
     id="base"
     pagecolor="#ffffff"
     bordercolor="#666666"
     borderopacity="1.0"
     inkscape:pageopacity="0.0"
     inkscape:pageshadow="2"
     inkscape:zoom="0.9899495"
     inkscape:cx="288.35123"
     inkscape:cy="722.00336"
     inkscape:document-units="px"
     inkscape:current-layer="layer1"
     showgrid="false"
     inkscape:window-width="1855"
     inkscape:window-height="1056"
     inkscape:window-x="65"
     inkscape:window-y="24"
     inkscape:window-maximized="1" />
  <metadata
     id="metadata6409">
    <rdf:RDF>
      <cc:Work
         rdf:about="">
        <dc:format>image/svg+xml</dc:format>
        <dc:type
           rdf:resource="http://purl.org/dc/dcmitype/StillImage" />
        <dc:title></dc:title>
      </cc:Work>
    </rdf:RDF>
  </metadata>
  <g
     inkscape:label="Layer 1"
     inkscape:groupmode="layer"
     id="layer1">
    <path
       sodipodi:nodetypes="ccccc"
       inkscape:connector-curvature="0"
       id="path6278-3"
       d="m 265.87538,154.19774 194.49598,0 0,378.74794 -194.49598,0 z"
       style="display:inline;opacity:1;fill:none;fill-opacity:1;stroke:#000000;stroke-width:0.38591945;stroke-miterlimit:10;stroke-dasharray:none;stroke-opacity:1" />
    <path
       style="display:inline;opacity:1;fill:none;fill-opacity:1;stroke:#000000;stroke-width:0.19023137;stroke-miterlimit:10;stroke-dasharray:none;stroke-opacity:1"
       d="m 271.17116,41.946581 194.69165,0 0,91.935749 -194.69165,0 z"
       id="path7727-5"
       inkscape:connector-curvature="0"
       sodipodi:nodetypes="ccccc" />
    <path
       sodipodi:nodetypes="ccccc"
       inkscape:connector-curvature="0"
       id="path7733-4"
       d="m 495.54385,149.44395 91.86071,0 0,378.8686 -91.86071,0 z"
       style="display:inline;opacity:1;fill:none;fill-opacity:1;stroke:#000000;stroke-width:0.26526231;stroke-miterlimit:10;stroke-dasharray:none;stroke-opacity:1" />
    <path
       style="display:inline;opacity:1;fill:none;fill-opacity:1;stroke:#000000;stroke-width:0.35433069;stroke-miterlimit:10;stroke-dasharray:none;stroke-opacity:1"
       d="m 397.30414,84.119948 -52.71995,0 0,-37.41357 52.71995,0 z"
       id="rect7862-8"
       inkscape:connector-curvature="0" />
    <path
       inkscape:connector-curvature="0"
       style="display:inline;opacity:1;fill:none;fill-opacity:1;stroke:#000000;stroke-width:0.35433069;stroke-miterlimit:10;stroke-dasharray:none;stroke-opacity:1"
       d="m 376.78406,181.75667 a 15.535714,15.535714 0 0 1 -15.53572,15.53571 15.535714,15.535714 0 0 1 -15.53571,-15.53571 15.535714,15.535714 0 0 1 15.53571,-15.53572 15.535714,15.535714 0 0 1 15.53572,15.53572 z"
       id="path6286-2-3-0-3" />
    <path
       id="path4171"
       d="m 444.46428,215.0917 a 15.535714,15.535714 0 0 1 -15.53572,15.53571 15.535714,15.535714 0 0 1 -15.53571,-15.53571 15.535714,15.535714 0 0 1 15.53571,-15.53572 15.535714,15.535714 0 0 1 15.53572,15.53572 z"
       style="display:inline;opacity:1;fill:none;fill-opacity:1;stroke:#000000;stroke-width:0.35433069;stroke-miterlimit:10;stroke-dasharray:none;stroke-opacity:1"
       inkscape:connector-curvature="0" />
    <path
       inkscape:connector-curvature="0"
       style="display:inline;opacity:1;fill:none;fill-opacity:1;stroke:#000000;stroke-width:0.35433069;stroke-miterlimit:10;stroke-dasharray:none;stroke-opacity:1"
       d="m 313.64953,207.51556 a 15.535714,15.535714 0 0 1 -15.53572,15.53571 15.535714,15.535714 0 0 1 -15.53571,-15.53571 15.535714,15.535714 0 0 1 15.53571,-15.53572 15.535714,15.535714 0 0 1 15.53572,15.53572 z"
       id="path4173" />
    <path
       id="path4175"
       d="m 375.77391,282.77193 a 15.535714,15.535714 0 0 1 -15.53572,15.53571 15.535714,15.535714 0 0 1 -15.53571,-15.53571 15.535714,15.535714 0 0 1 15.53571,-15.53572 15.535714,15.535714 0 0 1 15.53572,15.53572 z"
       style="display:inline;opacity:1;fill:none;fill-opacity:1;stroke:#000000;stroke-width:0.35433069;stroke-miterlimit:10;stroke-dasharray:none;stroke-opacity:1"
       inkscape:connector-curvature="0" />
    <path
       inkscape:connector-curvature="0"
       style="display:inline;opacity:1;fill:none;fill-opacity:1;stroke:#000000;stroke-width:0.35433069;stroke-miterlimit:10;stroke-dasharray:none;stroke-opacity:1"
       d="m 437.89829,341.86585 a 15.535714,15.535714 0 0 1 -15.53572,15.53571 15.535714,15.535714 0 0 1 -15.53571,-15.53571 15.535714,15.535714 0 0 1 15.53571,-15.53572 15.535714,15.535714 0 0 1 15.53572,15.53572 z"
       id="path4177" />
    <path
       id="path4179"
       d="m 321.22567,343.38108 a 15.535714,15.535714 0 0 1 -15.53572,15.53571 15.535714,15.535714 0 0 1 -15.53571,-15.53571 15.535714,15.535714 0 0 1 15.53571,-15.53572 15.535714,15.535714 0 0 1 15.53572,15.53572 z"
       style="display:inline;opacity:1;fill:none;fill-opacity:1;stroke:#000000;stroke-width:0.35433069;stroke-miterlimit:10;stroke-dasharray:none;stroke-opacity:1"
       inkscape:connector-curvature="0" />
    <path
       inkscape:connector-curvature="0"
       style="display:inline;opacity:1;fill:none;fill-opacity:1;stroke:#000000;stroke-width:0.27460322;stroke-miterlimit:10;stroke-dasharray:none;stroke-opacity:1"
       d="m 372.27824,339.34047 a 12.040044,12.040044 0 0 1 -12.04005,12.04004 12.040044,12.040044 0 0 1 -12.04004,-12.04004 12.040044,12.040044 0 0 1 12.04004,-12.04005 12.040044,12.040044 0 0 1 12.04005,12.04005 z"
       id="path4181" />
    <path
       inkscape:connector-curvature="0"
       style="display:inline;opacity:1;fill:none;fill-opacity:1;stroke:#000000;stroke-width:0.69601983;stroke-miterlimit:10;stroke-dasharray:none;stroke-opacity:1"
       d="m 391.7655,459.04355 a 30.517157,30.517157 0 0 1 -30.51716,30.51715 30.517157,30.517157 0 0 1 -30.51715,-30.51715 30.517157,30.517157 0 0 1 30.51715,-30.51716 30.517157,30.517157 0 0 1 30.51716,30.51716 z"
       id="path4183" />
    <path
       inkscape:connector-curvature="0"
       style="display:inline;opacity:1;fill:none;fill-opacity:1;stroke:#000000;stroke-width:0.35433069;stroke-miterlimit:10;stroke-dasharray:none;stroke-opacity:1"
       d="m 559.62167,264.58918 a 15.535714,15.535714 0 0 1 -15.53572,15.53571 15.535714,15.535714 0 0 1 -15.53571,-15.53571 15.535714,15.535714 0 0 1 15.53571,-15.53572 15.535714,15.535714 0 0 1 15.53572,15.53572 z"
       id="path4185" />
    <path
       style="display:inline;opacity:1;fill:none;fill-opacity:1;stroke:#000000;stroke-width:0.26526231;stroke-miterlimit:10;stroke-dasharray:none;stroke-opacity:1"
       d="m 135.92955,149.44395 91.86071,0 0,378.8686 -91.86071,0 z"
       id="path4187"
       inkscape:connector-curvature="0"
       sodipodi:nodetypes="ccccc" />
    <path
       id="path4189"
       d="m 200.00737,264.58918 a 15.535714,15.535714 0 0 1 -15.53572,15.53571 15.535714,15.535714 0 0 1 -15.53571,-15.53571 15.535714,15.535714 0 0 1 15.53571,-15.53572 15.535714,15.535714 0 0 1 15.53572,15.53572 z"
       style="display:inline;opacity:1;fill:none;fill-opacity:1;stroke:#000000;stroke-width:0.35433069;stroke-miterlimit:10;stroke-dasharray:none;stroke-opacity:1"
       inkscape:connector-curvature="0" />
    <path
       sodipodi:nodetypes="ccccc"
       inkscape:connector-curvature="0"
       id="path4191"
       d="m 271.17116,545.00254 194.69165,0 0,91.93575 -194.69165,0 z"
       style="display:inline;opacity:1;fill:none;fill-opacity:1;stroke:#000000;stroke-width:0.19023137;stroke-miterlimit:10;stroke-dasharray:none;stroke-opacity:1" />
  </g>
</svg>
