  0
SECTION
  2
HEADER
  9
$ACADVER
  1
AC1014
  9
$HANDSEED
  5
FFFF
  9
$MEASUREMENT
 70
     1
  0
ENDSEC
  0
SECTION
  2
TABLES
  0
TABLE
  2
VPORT
  5
8
330
0
100
AcDbSymbolTable
 70
     4
  0
VPORT
  5
2E
330
8
100
AcDbSymbolTableRecord
100
AcDbViewportTableRecord
  2
*ACTIVE
 70
     0
 10
0.0
 20
0.0
 11
1.0
 21
1.0
 12
210.0
 22
148.5
 13
0.0
 23
0.0
 14
10.0
 24
10.0
 15
10.0
 25
10.0
 16
0.0
 26
0.0
 36
1.0
 17
0.0
 27
0.0
 37
0.0
 40
341.0
 41
1.24
 42
50.0
 43
0.0
 44
0.0
 50
0.0
 51
0.0
 71
     0
 72
   100
 73
     1
 74
     3
 75
     0
 76
     0
 77
     0
 78
     0
  0
ENDTAB
  0
TABLE
  2
LTYPE
  5
5
330
0
100
AcDbSymbolTable
 70
     1
  0
LTYPE
  5
14
330
5
100
AcDbSymbolTableRecord
100
AcDbLinetypeTableRecord
  2
BYBLOCK
 70
     0
  3

 72
    65
 73
     0
 40
0.0
  0
LTYPE
  5
15
330
5
100
AcDbSymbolTableRecord
100
AcDbLinetypeTableRecord
  2
BYLAYER
 70
     0
  3

 72
    65
 73
     0
 40
0.0
  0
LTYPE
  5
16
330
5
100
AcDbSymbolTableRecord
100
AcDbLinetypeTableRecord
  2
CONTINUOUS
 70
     0
  3
Solid line
 72
    65
 73
     0
 40
0.0
  0
ENDTAB
  0
TABLE
  2
LAYER
  5
2
100
AcDbSymbolTable
 70
3
  0
LAYER
  5
50
100
AcDbSymbolTableRecord
100
AcDbLayerTableRecord
  2
0
 70
0
  6
CONTINUOUS
  0
LAYER
  5
51
100
AcDbSymbolTableRecord
100
AcDbLayerTableRecord
  2
pcb
 70
0
  6
CONTINUOUS
  0
LAYER
  5
52
100
AcDbSymbolTableRecord
100
AcDbLayerTableRecord
  2
Layer_1
 70
0
  6
CONTINUOUS
  0
ENDTAB
  0
TABLE
  2
STYLE
  5
3
330
0
100
AcDbSymbolTable
 70
     1
  0
STYLE
  5
11
330
3
100
AcDbSymbolTableRecord
100
AcDbTextStyleTableRecord
  2
STANDARD
 70
     0
 40
0.0
 41
1.0
 50
0.0
 71
     0
 42
2.5
  3
txt
  4

  0
ENDTAB
  0
TABLE
  2
VIEW
  5
6
330
0
100
AcDbSymbolTable
 70
     0
  0
ENDTAB
  0
TABLE
  2
UCS
  5
7
330
0
100
AcDbSymbolTable
 70
     0
  0
ENDTAB
  0
TABLE
  2
APPID
  5
9
330
0
100
AcDbSymbolTable
 70
     2
  0
APPID
  5
12
330
9
100
AcDbSymbolTableRecord
100
AcDbRegAppTableRecord
  2
ACAD
 70
     0
  0
ENDTAB
  0
TABLE
  2
DIMSTYLE
  5
A
330
0
100
AcDbSymbolTable
 70
     1
  0
DIMSTYLE
105
27
330
A
100
AcDbSymbolTableRecord
100
AcDbDimStyleTableRecord
  2
ISO-25
 70
     0
  3

  4

  5

  6

  7

 40
1.0
 41
2.5
 42
0.625
 43
3.75
 44
1.25
 45
0.0
 46
0.0
 47
0.0
 48
0.0
140
2.5
141
2.5
142
0.0
143
0.03937007874016
144
1.0
145
0.0
146
1.0
147
0.625
 71
     0
 72
     0
 73
     0
 74
     0
 75
     0
 76
     0
 77
     1
 78
     8
170
     0
171
     3
172
     1
173
     0
174
     0
175
     0
176
     0
177
     0
178
     0
270
     2
271
     2
272
     2
273
     2
274
     3
340
11
275
     0
280
     0
281
     0
282
     0
283
     0
284
     8
285
     0
286
     0
287
     3
288
     0
  0
ENDTAB
  0
TABLE
  2
BLOCK_RECORD
  5
1
330
0
100
AcDbSymbolTable
 70
     1
  0
BLOCK_RECORD
  5
1F
330
1
100
AcDbSymbolTableRecord
100
AcDbBlockTableRecord
  2
*MODEL_SPACE
  0
BLOCK_RECORD
  5
1B
330
1
100
AcDbSymbolTableRecord
100
AcDbBlockTableRecord
  2
*PAPER_SPACE
  0
ENDTAB
  0
ENDSEC
  0
SECTION
  2
BLOCKS
  0
BLOCK
  5
20
330
1F
100
AcDbEntity
  8
0
100
AcDbBlockBegin
  2
*MODEL_SPACE
 70
     0
 10
0.0
 20
0.0
 30
0.0
  3
*MODEL_SPACE
  1

  0
ENDBLK
  5
21
330
1F
100
AcDbEntity
  8
0
100
AcDbBlockEnd
  0
BLOCK
  5
1C
330
1B
100
AcDbEntity
 67
     1
  8
0
100
AcDbBlockBegin
  2
*PAPER_SPACE
  1

  0
ENDBLK
  5
1D
330
1B
100
AcDbEntity
 67
     1
  8
0
100
AcDbBlockEnd
  0
ENDSEC
  0
SECTION
  2
ENTITIES
  0
LWPOLYLINE
  5
100
100
AcDbEntity
  8
0
 62
7
100
AcDbPolyline
 90
43
 70
1
 10
19.029077
 20
70.232136
 30
0.0
 10
18.950554
 20
69.453248
 30
0.0
 10
18.725358
 20
68.727804
 30
0.0
 10
18.369029
 20
68.071307
 30
0.0
 10
17.897106
 20
67.499333
 30
0.0
 10
17.325129
 20
67.027418
 30
0.0
 10
16.668640
 20
66.671073
 30
0.0
 10
15.943182
 20
66.445882
 30
0.0
 10
15.164296
 20
66.367331
 30
0.0
 10
14.385409
 20
66.445882
 30
0.0
 10
13.659951
 20
66.671073
 30
0.0
 10
13.003465
 20
67.027418
 30
0.0
 10
12.431490
 20
67.499333
 30
0.0
 10
11.959567
 20
68.071307
 30
0.0
 10
11.603233
 20
68.727804
 30
0.0
 10
11.378040
 20
69.453248
 30
0.0
 10
11.299517
 20
70.232136
 30
0.0
 10
11.378040
 20
71.011038
 30
0.0
 10
11.603233
 20
71.736482
 30
0.0
 10
11.959565
 20
72.392979
 30
0.0
 10
12.431486
 20
72.964953
 30
0.0
 10
13.003463
 20
73.436868
 30
0.0
 10
13.659951
 20
73.793213
 30
0.0
 10
14.385409
 20
74.018404
 30
0.0
 10
15.164296
 20
74.096955
 30
0.0
 10
15.943182
 20
74.018404
 30
0.0
 10
16.668640
 20
73.793213
 30
0.0
 10
17.325129
 20
73.436868
 30
0.0
 10
17.897106
 20
72.964953
 30
0.0
 10
18.369029
 20
72.392979
 30
0.0
 10
18.725360
 20
71.736482
 30
0.0
 10
18.950554
 20
71.011038
 30
0.0
 10
19.029077
 20
70.232136
 30
0.0
 10
19.029077
 20
70.232136
 30
0.0
 10
19.029077
 20
70.232136
 30
0.0
 10
19.029077
 20
70.232136
 30
0.0
 10
19.029077
 20
70.232136
 30
0.0
 10
19.029077
 20
70.232136
 30
0.0
 10
19.029077
 20
70.232136
 30
0.0
 10
19.029077
 20
70.232136
 30
0.0
 10
19.029077
 20
70.232136
 30
0.0
 10
19.029077
 20
70.232136
 30
0.0
 10
19.029077
 20
70.232136
 30
0.0
  0
LWPOLYLINE
  5
101
100
AcDbEntity
  8
0
 62
7
100
AcDbPolyline
 90
43
 70
1
 10
14.439491
 20
30.566344
 30
0.0
 10
14.370500
 20
29.881995
 30
0.0
 10
14.172638
 20
29.244605
 30
0.0
 10
13.859559
 20
28.667790
 30
0.0
 10
13.444917
 20
28.165243
 30
0.0
 10
12.942365
 20
27.750610
 30
0.0
 10
12.365559
 20
27.437519
 30
0.0
 10
11.728156
 20
27.239656
 30
0.0
 10
11.043809
 20
27.170641
 30
0.0
 10
10.359462
 20
27.239656
 30
0.0
 10
9.722059
 20
27.437519
 30
0.0
 10
9.145255
 20
27.750610
 30
0.0
 10
8.642706
 20
28.165243
 30
0.0
 10
8.228063
 20
28.667790
 30
0.0
 10
7.914981
 20
29.244605
 30
0.0
 10
7.717121
 20
29.881995
 30
0.0
 10
7.648129
 20
30.566344
 30
0.0
 10
7.717121
 20
31.250705
 30
0.0
 10
7.914981
 20
31.888095
 30
0.0
 10
8.228061
 20
32.464910
 30
0.0
 10
8.642702
 20
32.967457
 30
0.0
 10
9.145253
 20
33.382092
 30
0.0
 10
9.722059
 20
33.695181
 30
0.0
 10
10.359462
 20
33.893044
 30
0.0
 10
11.043809
 20
33.962059
 30
0.0
 10
11.728156
 20
33.893044
 30
0.0
 10
12.365559
 20
33.695181
 30
0.0
 10
12.942365
 20
33.382092
 30
0.0
 10
13.444917
 20
32.967457
 30
0.0
 10
13.859559
 20
32.464910
 30
0.0
 10
14.172640
 20
31.888095
 30
0.0
 10
14.370500
 20
31.250705
 30
0.0
 10
14.439491
 20
30.566344
 30
0.0
 10
14.439491
 20
30.566344
 30
0.0
 10
14.439491
 20
30.566344
 30
0.0
 10
14.439491
 20
30.566344
 30
0.0
 10
14.439491
 20
30.566344
 30
0.0
 10
14.439491
 20
30.566344
 30
0.0
 10
14.439491
 20
30.566344
 30
0.0
 10
14.439491
 20
30.566344
 30
0.0
 10
14.439491
 20
30.566344
 30
0.0
 10
14.439491
 20
30.566344
 30
0.0
 10
14.439491
 20
30.566344
 30
0.0
  0
LWPOLYLINE
  5
102
100
AcDbEntity
  8
Layer_1
 62
7
100
AcDbPolyline
 90
15
 70
1
 10
0.141111
 20
107.066248
 30
0.0
 10
26.066245
 20
107.066248
 30
0.0
 10
26.066245
 20
0.141112
 30
0.0
 10
0.141111
 20
0.141112
 30
0.0
 10
0.141111
 20
107.066248
 30
0.0
 10
0.141111
 20
107.066248
 30
0.0
 10
0.141111
 20
107.066248
 30
0.0
 10
0.141111
 20
107.066248
 30
0.0
 10
0.141111
 20
107.066248
 30
0.0
 10
0.141111
 20
107.066248
 30
0.0
 10
0.141111
 20
107.066248
 30
0.0
 10
0.141111
 20
107.066248
 30
0.0
 10
0.141111
 20
107.066248
 30
0.0
 10
0.141111
 20
107.066248
 30
0.0
 10
0.141111
 20
107.066248
 30
0.0
  0
LWPOLYLINE
  5
103
100
AcDbEntity
  8
Layer_1
 62
7
100
AcDbPolyline
 90
15
 70
1
 10
2.757026
 20
104.752714
 30
0.0
 10
23.450330
 20
104.752714
 30
0.0
 10
23.450330
 20
2.454657
 30
0.0
 10
2.757026
 20
2.454657
 30
0.0
 10
2.757026
 20
104.752714
 30
0.0
 10
2.757026
 20
104.752714
 30
0.0
 10
2.757026
 20
104.752714
 30
0.0
 10
2.757026
 20
104.752714
 30
0.0
 10
2.757026
 20
104.752714
 30
0.0
 10
2.757026
 20
104.752714
 30
0.0
 10
2.757026
 20
104.752714
 30
0.0
 10
2.757026
 20
104.752714
 30
0.0
 10
2.757026
 20
104.752714
 30
0.0
 10
2.757026
 20
104.752714
 30
0.0
 10
2.757026
 20
104.752714
 30
0.0
  0
ENDSEC
  0
SECTION
  2
OBJECTS
  0
DICTIONARY
  5
C
330
0
100
AcDbDictionary
  3
ACAD_GROUP
350
D
  3
ACAD_MLINESTYLE
350
17
  0
DICTIONARY
  5
D
330
C
100
AcDbDictionary
  0
DICTIONARY
  5
1A
330
C
100
AcDbDictionary
  0
DICTIONARY
  5
17
330
C
100
AcDbDictionary
  3
STANDARD
350
18
  0
DICTIONARY
  5
19
330
C
100
AcDbDictionary
  0
ENDSEC
  0
EOF
