  0
SECTION
  2
BLOCKS
  0
ENDSEC
  0
SECTION
  2
ENTITIES
  0
LINE
  8
0
 10
14.5
 20
-53.5
 11
18.5
 21
-53.5
  0
LINE
  8
0
 10
18.5
 20
-53.5
 11
18.5
 21
-56.5
  0
LINE
  8
0
 10
18.5
 20
-56.5
 11
30.5
 21
-56.5
  0
LINE
  8
0
 10
30.5
 20
-56.5
 11
30.5
 21
-41.5
  0
LINE
  8
0
 10
30.5
 20
-41.5
 11
27.5
 21
-41.5
  0
LINE
  8
0
 10
27.5
 20
-41.5
 11
27.5
 21
-37.5
  0
LINE
  8
0
 10
27.5
 20
-37.5
 11
30.5
 21
-37.5
  0
LINE
  8
0
 10
30.5
 20
-37.5
 11
30.5
 21
-2
  0
LINE
  8
0
 10
30.5
 20
-2
 11
27.5
 21
-2
  0
LINE
  8
0
 10
27.5
 20
-2
 11
27.5
 21
1.99998
  0
LINE
  8
0
 10
27.5
 20
1.99998
 11
30.5
 21
1.99998
  0
LINE
  8
0
 10
30.5
 20
1.99998
 11
30.5
 21
37.5
  0
LINE
  8
0
 10
30.5
 20
37.5
 11
27.5
 21
37.5
  0
LINE
  8
0
 10
27.5
 20
37.5
 11
27.5
 21
41.5
  0
LINE
  8
0
 10
27.5
 20
41.5
 11
30.5
 21
41.5
  0
LINE
  8
0
 10
30.5
 20
41.5
 11
30.5
 21
56.5
  0
LINE
  8
0
 10
30.5
 20
56.5
 11
18.5
 21
56.5
  0
LINE
  8
0
 10
18.5
 20
56.5
 11
18.5
 21
53.5
  0
LINE
  8
0
 10
18.5
 20
53.5
 11
14.5
 21
53.5
  0
LINE
  8
0
 10
14.5
 20
53.5
 11
14.5
 21
56.5
  0
LINE
  8
0
 10
14.5
 20
56.5
 11
-14.5
 21
56.5
  0
LINE
  8
0
 10
-14.5
 20
56.5
 11
-14.5
 21
53.5
  0
LINE
  8
0
 10
-14.5
 20
53.5
 11
-18.5
 21
53.5
  0
LINE
  8
0
 10
-18.5
 20
53.5
 11
-18.5
 21
56.5
  0
LINE
  8
0
 10
-18.5
 20
56.5
 11
-30.5
 21
56.5
  0
LINE
  8
0
 10
-30.5
 20
56.5
 11
-30.5
 21
41.5
  0
LINE
  8
0
 10
-30.5
 20
41.5
 11
-27.5
 21
41.5
  0
LINE
  8
0
 10
-27.5
 20
41.5
 11
-27.5
 21
37.5
  0
LINE
  8
0
 10
-27.5
 20
37.5
 11
-30.5
 21
37.5
  0
LINE
  8
0
 10
-30.5
 20
37.5
 11
-30.5
 21
2
  0
LINE
  8
0
 10
-30.5
 20
2
 11
-27.5
 21
2
  0
LINE
  8
0
 10
-27.5
 20
2
 11
-27.5
 21
-1.99998
  0
LINE
  8
0
 10
-27.5
 20
-1.99998
 11
-30.5
 21
-1.99998
  0
LINE
  8
0
 10
-30.5
 20
-1.99998
 11
-30.5
 21
-37.5
  0
LINE
  8
0
 10
-30.5
 20
-37.5
 11
-27.5
 21
-37.5
  0
LINE
  8
0
 10
-27.5
 20
-37.5
 11
-27.5
 21
-41.5
  0
LINE
  8
0
 10
-27.5
 20
-41.5
 11
-30.5
 21
-41.5
  0
LINE
  8
0
 10
-30.5
 20
-41.5
 11
-30.5
 21
-56.5
  0
LINE
  8
0
 10
-30.5
 20
-56.5
 11
-18.5
 21
-56.5
  0
LINE
  8
0
 10
-18.5
 20
-56.5
 11
-18.5
 21
-53.5
  0
LINE
  8
0
 10
-18.5
 20
-53.5
 11
-14.5
 21
-53.5
  0
LINE
  8
0
 10
-14.5
 20
-53.5
 11
-14.5
 21
-56.5
  0
LINE
  8
0
 10
-14.5
 20
-56.5
 11
14.5
 21
-56.5
  0
LINE
  8
0
 10
14.5
 20
-56.5
 11
14.5
 21
-53.5
  0
LINE
  8
0
 10
-17.8457
 20
3.8125
 11
-18.2812
 21
3.87891
  0
LINE
  8
0
 10
-18.2812
 20
3.87891
 11
-18.7012
 21
3.98633
  0
LINE
  8
0
 10
-18.7012
 20
3.98633
 11
-19.1035
 21
4.13379
  0
LINE
  8
0
 10
-19.1035
 20
4.13379
 11
-19.4873
 21
4.31934
  0
LINE
  8
0
 10
-19.4873
 20
4.31934
 11
-19.8486
 21
4.53809
  0
LINE
  8
0
 10
-19.8486
 20
4.53809
 11
-20.1865
 21
4.79102
  0
LINE
  8
0
 10
-20.1865
 20
4.79102
 11
-20.498
 21
5.07422
  0
LINE
  8
0
 10
-20.498
 20
5.07422
 11
-20.7803
 21
5.38477
  0
LINE
  8
0
 10
-20.7803
 20
5.38477
 11
-21.0332
 21
5.72266
  0
LINE
  8
0
 10
-21.0332
 20
5.72266
 11
-21.2529
 21
6.08398
  0
LINE
  8
0
 10
-21.2529
 20
6.08398
 11
-21.4375
 21
6.46777
  0
LINE
  8
0
 10
-21.4375
 20
6.46777
 11
-21.585
 21
6.87012
  0
LINE
  8
0
 10
-21.585
 20
6.87012
 11
-21.6924
 21
7.29102
  0
LINE
  8
0
 10
-21.6924
 20
7.29102
 11
-21.7588
 21
7.72559
  0
LINE
  8
0
 10
-21.7588
 20
7.72559
 11
-21.7822
 21
8.17383
  0
LINE
  8
0
 10
-21.7822
 20
8.17383
 11
-21.7588
 21
8.62207
  0
LINE
  8
0
 10
-21.7588
 20
8.62207
 11
-21.6924
 21
9.05762
  0
LINE
  8
0
 10
-21.6924
 20
9.05762
 11
-21.585
 21
9.47754
  0
LINE
  8
0
 10
-21.585
 20
9.47754
 11
-21.4375
 21
9.88086
  0
LINE
  8
0
 10
-21.4375
 20
9.88086
 11
-21.2529
 21
10.2637
  0
LINE
  8
0
 10
-21.2529
 20
10.2637
 11
-21.0332
 21
10.626
  0
LINE
  8
0
 10
-21.0332
 20
10.626
 11
-20.7803
 21
10.9629
  0
LINE
  8
0
 10
-20.7803
 20
10.9629
 11
-20.498
 21
11.2744
  0
LINE
  8
0
 10
-20.498
 20
11.2744
 11
-20.1865
 21
11.5576
  0
LINE
  8
0
 10
-20.1865
 20
11.5576
 11
-19.8486
 21
11.8096
  0
LINE
  8
0
 10
-19.8486
 20
11.8096
 11
-19.4873
 21
12.0293
  0
LINE
  8
0
 10
-19.4873
 20
12.0293
 11
-19.1035
 21
12.2139
  0
LINE
  8
0
 10
-19.1035
 20
12.2139
 11
-18.7012
 21
12.3613
  0
LINE
  8
0
 10
-18.7012
 20
12.3613
 11
-18.2812
 21
12.4697
  0
LINE
  8
0
 10
-18.2812
 20
12.4697
 11
-17.8457
 21
12.5361
  0
LINE
  8
0
 10
-17.8457
 20
12.5361
 11
-17.3975
 21
12.5586
  0
LINE
  8
0
 10
-17.3975
 20
12.5586
 11
-16.9492
 21
12.5361
  0
LINE
  8
0
 10
-16.9492
 20
12.5361
 11
-16.5137
 21
12.4697
  0
LINE
  8
0
 10
-16.5137
 20
12.4697
 11
-16.0938
 21
12.3613
  0
LINE
  8
0
 10
-16.0938
 20
12.3613
 11
-15.6904
 21
12.2139
  0
LINE
  8
0
 10
-15.6904
 20
12.2139
 11
-15.3076
 21
12.0293
  0
LINE
  8
0
 10
-15.3076
 20
12.0293
 11
-14.9463
 21
11.8096
  0
LINE
  8
0
 10
-14.9463
 20
11.8096
 11
-14.6084
 21
11.5576
  0
LINE
  8
0
 10
-14.6084
 20
11.5576
 11
-14.2969
 21
11.2744
  0
LINE
  8
0
 10
-14.2969
 20
11.2744
 11
-14.0137
 21
10.9629
  0
LINE
  8
0
 10
-14.0137
 20
10.9629
 11
-13.7617
 21
10.626
  0
LINE
  8
0
 10
-13.7617
 20
10.626
 11
-13.542
 21
10.2637
  0
LINE
  8
0
 10
-13.542
 20
10.2637
 11
-13.3574
 21
9.88086
  0
LINE
  8
0
 10
-13.3574
 20
9.88086
 11
-13.2099
 21
9.47754
  0
LINE
  8
0
 10
-13.2099
 20
9.47754
 11
-13.1015
 21
9.05762
  0
LINE
  8
0
 10
-13.1015
 20
9.05762
 11
-13.0351
 21
8.62207
  0
LINE
  8
0
 10
-13.0351
 20
8.62207
 11
-13.0127
 21
8.17383
  0
LINE
  8
0
 10
-13.0127
 20
8.17383
 11
-13.0351
 21
7.72559
  0
LINE
  8
0
 10
-13.0351
 20
7.72559
 11
-13.1015
 21
7.29102
  0
LINE
  8
0
 10
-13.1015
 20
7.29102
 11
-13.21
 21
6.87012
  0
LINE
  8
0
 10
-13.21
 20
6.87012
 11
-13.3574
 21
6.46777
  0
LINE
  8
0
 10
-13.3574
 20
6.46777
 11
-13.542
 21
6.08398
  0
LINE
  8
0
 10
-13.542
 20
6.08398
 11
-13.7617
 21
5.72266
  0
LINE
  8
0
 10
-13.7617
 20
5.72266
 11
-14.0137
 21
5.38477
  0
LINE
  8
0
 10
-14.0137
 20
5.38477
 11
-14.2969
 21
5.07422
  0
LINE
  8
0
 10
-14.2969
 20
5.07422
 11
-14.6084
 21
4.79102
  0
LINE
  8
0
 10
-14.6084
 20
4.79102
 11
-14.9463
 21
4.53809
  0
LINE
  8
0
 10
-14.9463
 20
4.53809
 11
-15.3076
 21
4.31934
  0
LINE
  8
0
 10
-15.3076
 20
4.31934
 11
-15.6904
 21
4.13379
  0
LINE
  8
0
 10
-15.6904
 20
4.13379
 11
-16.0938
 21
3.98633
  0
LINE
  8
0
 10
-16.0938
 20
3.98633
 11
-16.5137
 21
3.87891
  0
LINE
  8
0
 10
-16.5137
 20
3.87891
 11
-16.9492
 21
3.8125
  0
LINE
  8
0
 10
-16.9492
 20
3.8125
 11
-17.3975
 21
3.79004
  0
LINE
  8
0
 10
-17.3975
 20
3.79004
 11
-17.8457
 21
3.8125
  0
LINE
  8
0
 10
16.7627
 20
3.81248
 11
16.3281
 21
3.87889
  0
LINE
  8
0
 10
16.3281
 20
3.87889
 11
15.9072
 21
3.98631
  0
LINE
  8
0
 10
15.9072
 20
3.98631
 11
15.5049
 21
4.13377
  0
LINE
  8
0
 10
15.5049
 20
4.13377
 11
15.1211
 21
4.31932
  0
LINE
  8
0
 10
15.1211
 20
4.31932
 11
14.7598
 21
4.53807
  0
LINE
  8
0
 10
14.7598
 20
4.53807
 11
14.4229
 21
4.791
  0
LINE
  8
0
 10
14.4229
 20
4.791
 11
14.1113
 21
5.0742
  0
LINE
  8
0
 10
14.1113
 20
5.0742
 11
13.8281
 21
5.38475
  0
LINE
  8
0
 10
13.8281
 20
5.38475
 11
13.5762
 21
5.72264
  0
LINE
  8
0
 10
13.5762
 20
5.72264
 11
13.3564
 21
6.08397
  0
LINE
  8
0
 10
13.3564
 20
6.08397
 11
13.1719
 21
6.46776
  0
LINE
  8
0
 10
13.1719
 20
6.46776
 11
13.0244
 21
6.8701
  0
LINE
  8
0
 10
13.0244
 20
6.8701
 11
12.916
 21
7.291
  0
LINE
  8
0
 10
12.916
 20
7.291
 11
12.8496
 21
7.72557
  0
LINE
  8
0
 10
12.8496
 20
7.72557
 11
12.8271
 21
8.17381
  0
LINE
  8
0
 10
12.8271
 20
8.17381
 11
12.8496
 21
8.62206
  0
LINE
  8
0
 10
12.8496
 20
8.62206
 11
12.916
 21
9.0576
  0
LINE
  8
0
 10
12.916
 20
9.0576
 11
13.0244
 21
9.47752
  0
LINE
  8
0
 10
13.0244
 20
9.47752
 11
13.1719
 21
9.88084
  0
LINE
  8
0
 10
13.1719
 20
9.88084
 11
13.3564
 21
10.2637
  0
LINE
  8
0
 10
13.3564
 20
10.2637
 11
13.5762
 21
10.626
  0
LINE
  8
0
 10
13.5762
 20
10.626
 11
13.8281
 21
10.9629
  0
LINE
  8
0
 10
13.8281
 20
10.9629
 11
14.1113
 21
11.2744
  0
LINE
  8
0
 10
14.1113
 20
11.2744
 11
14.4229
 21
11.5576
  0
LINE
  8
0
 10
14.4229
 20
11.5576
 11
14.7598
 21
11.8096
  0
LINE
  8
0
 10
14.7598
 20
11.8096
 11
15.1211
 21
12.0293
  0
LINE
  8
0
 10
15.1211
 20
12.0293
 11
15.5049
 21
12.2139
  0
LINE
  8
0
 10
15.5049
 20
12.2139
 11
15.9072
 21
12.3613
  0
LINE
  8
0
 10
15.9072
 20
12.3613
 11
16.3281
 21
12.4697
  0
LINE
  8
0
 10
16.3281
 20
12.4697
 11
16.7627
 21
12.5361
  0
LINE
  8
0
 10
16.7627
 20
12.5361
 11
17.2119
 21
12.5586
  0
LINE
  8
0
 10
17.2119
 20
12.5586
 11
17.6602
 21
12.5361
  0
LINE
  8
0
 10
17.6602
 20
12.5361
 11
18.0947
 21
12.4697
  0
LINE
  8
0
 10
18.0947
 20
12.4697
 11
18.5156
 21
12.3613
  0
LINE
  8
0
 10
18.5156
 20
12.3613
 11
18.918
 21
12.2139
  0
LINE
  8
0
 10
18.918
 20
12.2139
 11
19.3018
 21
12.0293
  0
LINE
  8
0
 10
19.3018
 20
12.0293
 11
19.6631
 21
11.8096
  0
LINE
  8
0
 10
19.6631
 20
11.8096
 11
20
 21
11.5576
  0
LINE
  8
0
 10
20
 20
11.5576
 11
20.3115
 21
11.2744
  0
LINE
  8
0
 10
20.3115
 20
11.2744
 11
20.5947
 21
10.9629
  0
LINE
  8
0
 10
20.5947
 20
10.9629
 11
20.8477
 21
10.626
  0
LINE
  8
0
 10
20.8477
 20
10.626
 11
21.0664
 21
10.2637
  0
LINE
  8
0
 10
21.0664
 20
10.2637
 11
21.251
 21
9.88084
  0
LINE
  8
0
 10
21.251
 20
9.88084
 11
21.3984
 21
9.47752
  0
LINE
  8
0
 10
21.3984
 20
9.47752
 11
21.5068
 21
9.0576
  0
LINE
  8
0
 10
21.5068
 20
9.0576
 11
21.5732
 21
8.62206
  0
LINE
  8
0
 10
21.5732
 20
8.62206
 11
21.5957
 21
8.17381
  0
LINE
  8
0
 10
21.5957
 20
8.17381
 11
21.5732
 21
7.72557
  0
LINE
  8
0
 10
21.5732
 20
7.72557
 11
21.5068
 21
7.291
  0
LINE
  8
0
 10
21.5068
 20
7.291
 11
21.3984
 21
6.8701
  0
LINE
  8
0
 10
21.3984
 20
6.8701
 11
21.251
 21
6.46776
  0
LINE
  8
0
 10
21.251
 20
6.46776
 11
21.0664
 21
6.08397
  0
LINE
  8
0
 10
21.0664
 20
6.08397
 11
20.8477
 21
5.72264
  0
LINE
  8
0
 10
20.8477
 20
5.72264
 11
20.5947
 21
5.38475
  0
LINE
  8
0
 10
20.5947
 20
5.38475
 11
20.3115
 21
5.0742
  0
LINE
  8
0
 10
20.3115
 20
5.0742
 11
20
 21
4.791
  0
LINE
  8
0
 10
20
 20
4.791
 11
19.6631
 21
4.53807
  0
LINE
  8
0
 10
19.6631
 20
4.53807
 11
19.3018
 21
4.31932
  0
LINE
  8
0
 10
19.3018
 20
4.31932
 11
18.918
 21
4.13377
  0
LINE
  8
0
 10
18.918
 20
4.13377
 11
18.5156
 21
3.98631
  0
LINE
  8
0
 10
18.5156
 20
3.98631
 11
18.0947
 21
3.87889
  0
LINE
  8
0
 10
18.0947
 20
3.87889
 11
17.6602
 21
3.81248
  0
LINE
  8
0
 10
17.6602
 20
3.81248
 11
17.2119
 21
3.79002
  0
LINE
  8
0
 10
17.2119
 20
3.79002
 11
16.7627
 21
3.81248
  0
LINE
  8
0
 10
-0.377914
 20
2.68164
 11
-0.715805
 21
2.73242
  0
LINE
  8
0
 10
-0.715805
 20
2.73242
 11
-1.041
 21
2.81641
  0
LINE
  8
0
 10
-1.041
 20
2.81641
 11
-1.3535
 21
2.93066
  0
LINE
  8
0
 10
-1.3535
 20
2.93066
 11
-1.65038
 21
3.07422
  0
LINE
  8
0
 10
-1.65038
 20
3.07422
 11
-1.93065
 21
3.24414
  0
LINE
  8
0
 10
-1.93065
 20
3.24414
 11
-2.19237
 21
3.43945
  0
LINE
  8
0
 10
-2.19237
 20
3.43945
 11
-2.43358
 21
3.65918
  0
LINE
  8
0
 10
-2.43358
 20
3.65918
 11
-2.65331
 21
3.90039
  0
LINE
  8
0
 10
-2.65331
 20
3.90039
 11
-2.84862
 21
4.16211
  0
LINE
  8
0
 10
-2.84862
 20
4.16211
 11
-3.01854
 21
4.44238
  0
LINE
  8
0
 10
-3.01854
 20
4.44238
 11
-3.16209
 21
4.73926
  0
LINE
  8
0
 10
-3.16209
 20
4.73926
 11
-3.27635
 21
5.05176
  0
LINE
  8
0
 10
-3.27635
 20
5.05176
 11
-3.35936
 21
5.37695
  0
LINE
  8
0
 10
-3.35936
 20
5.37695
 11
-3.41112
 21
5.71387
  0
LINE
  8
0
 10
-3.41112
 20
5.71387
 11
-3.4287
 21
6.06152
  0
LINE
  8
0
 10
-3.4287
 20
6.06152
 11
-3.41112
 21
6.40918
  0
LINE
  8
0
 10
-3.41112
 20
6.40918
 11
-3.35936
 21
6.74609
  0
LINE
  8
0
 10
-3.35936
 20
6.74609
 11
-3.27635
 21
7.07227
  0
LINE
  8
0
 10
-3.27635
 20
7.07227
 11
-3.16209
 21
7.38477
  0
LINE
  8
0
 10
-3.16209
 20
7.38477
 11
-3.01854
 21
7.68164
  0
LINE
  8
0
 10
-3.01854
 20
7.68164
 11
-2.84862
 21
7.96191
  0
LINE
  8
0
 10
-2.84862
 20
7.96191
 11
-2.65331
 21
8.22363
  0
LINE
  8
0
 10
-2.65331
 20
8.22363
 11
-2.43358
 21
8.46484
  0
LINE
  8
0
 10
-2.43358
 20
8.46484
 11
-2.19237
 21
8.68359
  0
LINE
  8
0
 10
-2.19237
 20
8.68359
 11
-1.93065
 21
8.87891
  0
LINE
  8
0
 10
-1.93065
 20
8.87891
 11
-1.65038
 21
9.0498
  0
LINE
  8
0
 10
-1.65038
 20
9.0498
 11
-1.3535
 21
9.19238
  0
LINE
  8
0
 10
-1.3535
 20
9.19238
 11
-1.041
 21
9.30664
  0
LINE
  8
0
 10
-1.041
 20
9.30664
 11
-0.715805
 21
9.39062
  0
LINE
  8
0
 10
-0.715805
 20
9.39062
 11
-0.377914
 21
9.44238
  0
LINE
  8
0
 10
-0.377914
 20
9.44238
 11
-0.0312347
 21
9.45996
  0
LINE
  8
0
 10
-0.0312347
 20
9.45996
 11
0.316406
 21
9.44238
  0
LINE
  8
0
 10
0.316406
 20
9.44238
 11
0.654297
 21
9.39062
  0
LINE
  8
0
 10
0.654297
 20
9.39062
 11
0.979492
 21
9.30664
  0
LINE
  8
0
 10
0.979492
 20
9.30664
 11
1.29199
 21
9.19238
  0
LINE
  8
0
 10
1.29199
 20
9.19238
 11
1.58887
 21
9.0498
  0
LINE
  8
0
 10
1.58887
 20
9.0498
 11
1.86914
 21
8.87891
  0
LINE
  8
0
 10
1.86914
 20
8.87891
 11
2.13086
 21
8.68359
  0
LINE
  8
0
 10
2.13086
 20
8.68359
 11
2.37207
 21
8.46484
  0
LINE
  8
0
 10
2.37207
 20
8.46484
 11
2.59082
 21
8.22363
  0
LINE
  8
0
 10
2.59082
 20
8.22363
 11
2.78711
 21
7.96191
  0
LINE
  8
0
 10
2.78711
 20
7.96191
 11
2.95703
 21
7.68164
  0
LINE
  8
0
 10
2.95703
 20
7.68164
 11
3.09961
 21
7.38477
  0
LINE
  8
0
 10
3.09961
 20
7.38477
 11
3.21387
 21
7.07227
  0
LINE
  8
0
 10
3.21387
 20
7.07227
 11
3.29785
 21
6.74609
  0
LINE
  8
0
 10
3.29785
 20
6.74609
 11
3.34961
 21
6.40918
  0
LINE
  8
0
 10
3.34961
 20
6.40918
 11
3.36719
 21
6.06152
  0
LINE
  8
0
 10
3.36719
 20
6.06152
 11
3.34961
 21
5.71387
  0
LINE
  8
0
 10
3.34961
 20
5.71387
 11
3.29785
 21
5.37695
  0
LINE
  8
0
 10
3.29785
 20
5.37695
 11
3.21387
 21
5.05176
  0
LINE
  8
0
 10
3.21387
 20
5.05176
 11
3.09961
 21
4.73926
  0
LINE
  8
0
 10
3.09961
 20
4.73926
 11
2.95703
 21
4.44238
  0
LINE
  8
0
 10
2.95703
 20
4.44238
 11
2.78711
 21
4.16211
  0
LINE
  8
0
 10
2.78711
 20
4.16211
 11
2.59082
 21
3.90038
  0
LINE
  8
0
 10
2.59082
 20
3.90038
 11
2.37207
 21
3.65916
  0
LINE
  8
0
 10
2.37207
 20
3.65916
 11
2.13086
 21
3.43944
  0
LINE
  8
0
 10
2.13086
 20
3.43944
 11
1.86914
 21
3.24413
  0
LINE
  8
0
 10
1.86914
 20
3.24413
 11
1.58887
 21
3.07422
  0
LINE
  8
0
 10
1.58887
 20
3.07422
 11
1.29199
 21
2.93066
  0
LINE
  8
0
 10
1.29199
 20
2.93066
 11
0.979492
 21
2.81641
  0
LINE
  8
0
 10
0.979492
 20
2.81641
 11
0.654297
 21
2.73242
  0
LINE
  8
0
 10
0.654297
 20
2.73242
 11
0.316406
 21
2.68164
  0
LINE
  8
0
 10
0.316406
 20
2.68164
 11
-0.0312347
 21
2.66406
  0
LINE
  8
0
 10
-0.0312347
 20
2.66406
 11
-0.377914
 21
2.68164
  0
LINE
  8
0
 10
-0.405273
 20
-13.6377
 11
-0.768555
 21
-13.582
  0
LINE
  8
0
 10
-0.768555
 20
-13.582
 11
-1.11816
 21
-13.4922
  0
LINE
  8
0
 10
-1.11816
 20
-13.4922
 11
-1.4541
 21
-13.3691
  0
LINE
  8
0
 10
-1.4541
 20
-13.3691
 11
-1.77344
 21
-13.2158
  0
LINE
  8
0
 10
-1.77344
 20
-13.2158
 11
-2.0752
 21
-13.0322
  0
LINE
  8
0
 10
-2.0752
 20
-13.0322
 11
-2.35645
 21
-12.8223
  0
LINE
  8
0
 10
-2.35645
 20
-12.8223
 11
-2.61621
 21
-12.5859
  0
LINE
  8
0
 10
-2.61621
 20
-12.5859
 11
-2.85156
 21
-12.3262
  0
LINE
  8
0
 10
-2.85156
 20
-12.3262
 11
-3.0625
 21
-12.0449
  0
LINE
  8
0
 10
-3.0625
 20
-12.0449
 11
-3.24512
 21
-11.7441
  0
LINE
  8
0
 10
-3.24512
 20
-11.7441
 11
-3.39941
 21
-11.4238
  0
LINE
  8
0
 10
-3.39941
 20
-11.4238
 11
-3.52246
 21
-11.0889
  0
LINE
  8
0
 10
-3.52246
 20
-11.0889
 11
-3.6123
 21
-10.7383
  0
LINE
  8
0
 10
-3.6123
 20
-10.7383
 11
-3.66797
 21
-10.375
  0
LINE
  8
0
 10
-3.66797
 20
-10.375
 11
-3.68652
 21
-10.002
  0
LINE
  8
0
 10
-3.68652
 20
-10.002
 11
-3.66797
 21
-9.62793
  0
LINE
  8
0
 10
-3.66797
 20
-9.62793
 11
-3.6123
 21
-9.26465
  0
LINE
  8
0
 10
-3.6123
 20
-9.26465
 11
-3.52246
 21
-8.91504
  0
LINE
  8
0
 10
-3.52246
 20
-8.91504
 11
-3.39941
 21
-8.5791
  0
LINE
  8
0
 10
-3.39941
 20
-8.5791
 11
-3.24512
 21
-8.25977
  0
LINE
  8
0
 10
-3.24512
 20
-8.25977
 11
-3.0625
 21
-7.95801
  0
LINE
  8
0
 10
-3.0625
 20
-7.95801
 11
-2.85156
 21
-7.67676
  0
LINE
  8
0
 10
-2.85156
 20
-7.67676
 11
-2.61621
 21
-7.41699
  0
LINE
  8
0
 10
-2.61621
 20
-7.41699
 11
-2.35645
 21
-7.18164
  0
LINE
  8
0
 10
-2.35645
 20
-7.18164
 11
-2.0752
 21
-6.9707
  0
LINE
  8
0
 10
-2.0752
 20
-6.9707
 11
-1.77344
 21
-6.78809
  0
LINE
  8
0
 10
-1.77344
 20
-6.78809
 11
-1.4541
 21
-6.63379
  0
LINE
  8
0
 10
-1.4541
 20
-6.63379
 11
-1.11816
 21
-6.51074
  0
LINE
  8
0
 10
-1.11816
 20
-6.51074
 11
-0.768555
 21
-6.4209
  0
LINE
  8
0
 10
-0.768555
 20
-6.4209
 11
-0.405273
 21
-6.36523
  0
LINE
  8
0
 10
-0.405273
 20
-6.36523
 11
-0.03125
 21
-6.34668
  0
LINE
  8
0
 10
-0.03125
 20
-6.34668
 11
0.341782
 21
-6.36523
  0
LINE
  8
0
 10
0.341782
 20
-6.36523
 11
0.705063
 21
-6.4209
  0
LINE
  8
0
 10
0.705063
 20
-6.4209
 11
1.05565
 21
-6.51074
  0
LINE
  8
0
 10
1.05565
 20
-6.51074
 11
1.39159
 21
-6.63379
  0
LINE
  8
0
 10
1.39159
 20
-6.63379
 11
1.71092
 21
-6.78809
  0
LINE
  8
0
 10
1.71092
 20
-6.78809
 11
2.0117
 21
-6.9707
  0
LINE
  8
0
 10
2.0117
 20
-6.9707
 11
2.29393
 21
-7.18164
  0
LINE
  8
0
 10
2.29393
 20
-7.18164
 11
2.55272
 21
-7.41699
  0
LINE
  8
0
 10
2.55272
 20
-7.41699
 11
2.78905
 21
-7.67676
  0
LINE
  8
0
 10
2.78905
 20
-7.67676
 11
2.99901
 21
-7.95801
  0
LINE
  8
0
 10
2.99901
 20
-7.95801
 11
3.1826
 21
-8.25977
  0
LINE
  8
0
 10
3.1826
 20
-8.25977
 11
3.33592
 21
-8.5791
  0
LINE
  8
0
 10
3.33592
 20
-8.5791
 11
3.45897
 21
-8.91504
  0
LINE
  8
0
 10
3.45897
 20
-8.91504
 11
3.54881
 21
-9.26465
  0
LINE
  8
0
 10
3.54881
 20
-9.26465
 11
3.60448
 21
-9.62793
  0
LINE
  8
0
 10
3.60448
 20
-9.62793
 11
3.62401
 21
-10.002
  0
LINE
  8
0
 10
3.62401
 20
-10.002
 11
3.60448
 21
-10.375
  0
LINE
  8
0
 10
3.60448
 20
-10.375
 11
3.54881
 21
-10.7383
  0
LINE
  8
0
 10
3.54881
 20
-10.7383
 11
3.45897
 21
-11.0889
  0
LINE
  8
0
 10
3.45897
 20
-11.0889
 11
3.33592
 21
-11.4238
  0
LINE
  8
0
 10
3.33592
 20
-11.4238
 11
3.1826
 21
-11.7441
  0
LINE
  8
0
 10
3.1826
 20
-11.7441
 11
2.99901
 21
-12.0449
  0
LINE
  8
0
 10
2.99901
 20
-12.0449
 11
2.78905
 21
-12.3262
  0
LINE
  8
0
 10
2.78905
 20
-12.3262
 11
2.55272
 21
-12.5859
  0
LINE
  8
0
 10
2.55272
 20
-12.5859
 11
2.29393
 21
-12.8223
  0
LINE
  8
0
 10
2.29393
 20
-12.8223
 11
2.0117
 21
-13.0322
  0
LINE
  8
0
 10
2.0117
 20
-13.0322
 11
1.71092
 21
-13.2158
  0
LINE
  8
0
 10
1.71092
 20
-13.2158
 11
1.39159
 21
-13.3691
  0
LINE
  8
0
 10
1.39159
 20
-13.3691
 11
1.05565
 21
-13.4922
  0
LINE
  8
0
 10
1.05565
 20
-13.4922
 11
0.705063
 21
-13.582
  0
LINE
  8
0
 10
0.705063
 20
-13.582
 11
0.341782
 21
-13.6377
  0
LINE
  8
0
 10
0.341782
 20
-13.6377
 11
-0.03125
 21
-13.6562
  0
LINE
  8
0
 10
-0.03125
 20
-13.6562
 11
-0.405273
 21
-13.6377
  0
LINE
  8
0
 10
20.5625
 20
-42.1104
 11
20.1992
 21
-42.0547
  0
LINE
  8
0
 10
20.1992
 20
-42.0547
 11
19.8496
 21
-41.9648
  0
LINE
  8
0
 10
19.8496
 20
-41.9648
 11
19.5137
 21
-41.8418
  0
LINE
  8
0
 10
19.5137
 20
-41.8418
 11
19.1943
 21
-41.6885
  0
LINE
  8
0
 10
19.1943
 20
-41.6885
 11
18.8926
 21
-41.5049
  0
LINE
  8
0
 10
18.8926
 20
-41.5049
 11
18.6113
 21
-41.2949
  0
LINE
  8
0
 10
18.6113
 20
-41.2949
 11
18.3515
 21
-41.0586
  0
LINE
  8
0
 10
18.3515
 20
-41.0586
 11
18.1162
 21
-40.7988
  0
LINE
  8
0
 10
18.1162
 20
-40.7988
 11
17.9053
 21
-40.5176
  0
LINE
  8
0
 10
17.9053
 20
-40.5176
 11
17.7226
 21
-40.2168
  0
LINE
  8
0
 10
17.7226
 20
-40.2168
 11
17.5683
 21
-39.8975
  0
LINE
  8
0
 10
17.5683
 20
-39.8975
 11
17.4463
 21
-39.5615
  0
LINE
  8
0
 10
17.4463
 20
-39.5615
 11
17.3555
 21
-39.2109
  0
LINE
  8
0
 10
17.3555
 20
-39.2109
 11
17.3008
 21
-38.8486
  0
LINE
  8
0
 10
17.3008
 20
-38.8486
 11
17.2812
 21
-38.4746
  0
LINE
  8
0
 10
17.2812
 20
-38.4746
 11
17.3008
 21
-38.1006
  0
LINE
  8
0
 10
17.3008
 20
-38.1006
 11
17.3555
 21
-37.7383
  0
LINE
  8
0
 10
17.3555
 20
-37.7383
 11
17.4463
 21
-37.3877
  0
LINE
  8
0
 10
17.4463
 20
-37.3877
 11
17.5683
 21
-37.0518
  0
LINE
  8
0
 10
17.5683
 20
-37.0518
 11
17.7226
 21
-36.7324
  0
LINE
  8
0
 10
17.7226
 20
-36.7324
 11
17.9053
 21
-36.4307
  0
LINE
  8
0
 10
17.9053
 20
-36.4307
 11
18.1162
 21
-36.1494
  0
LINE
  8
0
 10
18.1162
 20
-36.1494
 11
18.3515
 21
-35.8906
  0
LINE
  8
0
 10
18.3515
 20
-35.8906
 11
18.6113
 21
-35.6543
  0
LINE
  8
0
 10
18.6113
 20
-35.6543
 11
18.8926
 21
-35.4443
  0
LINE
  8
0
 10
18.8926
 20
-35.4443
 11
19.1943
 21
-35.2607
  0
LINE
  8
0
 10
19.1943
 20
-35.2607
 11
19.5137
 21
-35.1074
  0
LINE
  8
0
 10
19.5137
 20
-35.1074
 11
19.8496
 21
-34.9844
  0
LINE
  8
0
 10
19.8496
 20
-34.9844
 11
20.1992
 21
-34.8945
  0
LINE
  8
0
 10
20.1992
 20
-34.8945
 11
20.5625
 21
-34.8389
  0
LINE
  8
0
 10
20.5625
 20
-34.8389
 11
20.9365
 21
-34.8193
  0
LINE
  8
0
 10
20.9365
 20
-34.8193
 11
21.3096
 21
-34.8389
  0
LINE
  8
0
 10
21.3096
 20
-34.8389
 11
21.6728
 21
-34.8945
  0
LINE
  8
0
 10
21.6728
 20
-34.8945
 11
22.0234
 21
-34.9844
  0
LINE
  8
0
 10
22.0234
 20
-34.9844
 11
22.3584
 21
-35.1074
  0
LINE
  8
0
 10
22.3584
 20
-35.1074
 11
22.6787
 21
-35.2607
  0
LINE
  8
0
 10
22.6787
 20
-35.2607
 11
22.9795
 21
-35.4443
  0
LINE
  8
0
 10
22.9795
 20
-35.4443
 11
23.2607
 21
-35.6543
  0
LINE
  8
0
 10
23.2607
 20
-35.6543
 11
23.5205
 21
-35.8906
  0
LINE
  8
0
 10
23.5205
 20
-35.8906
 11
23.7568
 21
-36.1494
  0
LINE
  8
0
 10
23.7568
 20
-36.1494
 11
23.9668
 21
-36.4307
  0
LINE
  8
0
 10
23.9668
 20
-36.4307
 11
24.1494
 21
-36.7324
  0
LINE
  8
0
 10
24.1494
 20
-36.7324
 11
24.3037
 21
-37.0518
  0
LINE
  8
0
 10
24.3037
 20
-37.0518
 11
24.4267
 21
-37.3877
  0
LINE
  8
0
 10
24.4267
 20
-37.3877
 11
24.5166
 21
-37.7383
  0
LINE
  8
0
 10
24.5166
 20
-37.7383
 11
24.5723
 21
-38.1006
  0
LINE
  8
0
 10
24.5723
 20
-38.1006
 11
24.5908
 21
-38.4746
  0
LINE
  8
0
 10
24.5908
 20
-38.4746
 11
24.5723
 21
-38.8486
  0
LINE
  8
0
 10
24.5723
 20
-38.8486
 11
24.5166
 21
-39.2109
  0
LINE
  8
0
 10
24.5166
 20
-39.2109
 11
24.4267
 21
-39.5615
  0
LINE
  8
0
 10
24.4267
 20
-39.5615
 11
24.3037
 21
-39.8975
  0
LINE
  8
0
 10
24.3037
 20
-39.8975
 11
24.1494
 21
-40.2168
  0
LINE
  8
0
 10
24.1494
 20
-40.2168
 11
23.9668
 21
-40.5176
  0
LINE
  8
0
 10
23.9668
 20
-40.5176
 11
23.7568
 21
-40.7988
  0
LINE
  8
0
 10
23.7568
 20
-40.7988
 11
23.5205
 21
-41.0586
  0
LINE
  8
0
 10
23.5205
 20
-41.0586
 11
23.2607
 21
-41.2949
  0
LINE
  8
0
 10
23.2607
 20
-41.2949
 11
22.9795
 21
-41.5049
  0
LINE
  8
0
 10
22.9795
 20
-41.5049
 11
22.6787
 21
-41.6885
  0
LINE
  8
0
 10
22.6787
 20
-41.6885
 11
22.3584
 21
-41.8418
  0
LINE
  8
0
 10
22.3584
 20
-41.8418
 11
22.0234
 21
-41.9648
  0
LINE
  8
0
 10
22.0234
 20
-41.9648
 11
21.6728
 21
-42.0547
  0
LINE
  8
0
 10
21.6728
 20
-42.0547
 11
21.3096
 21
-42.1104
  0
LINE
  8
0
 10
21.3096
 20
-42.1104
 11
20.9365
 21
-42.1289
  0
LINE
  8
0
 10
20.9365
 20
-42.1289
 11
20.5625
 21
-42.1104
  0
LINE
  8
0
 10
-21.3984
 20
-42.0869
 11
-21.7588
 21
-42.0312
  0
LINE
  8
0
 10
-21.7588
 20
-42.0312
 11
-22.1064
 21
-41.9424
  0
LINE
  8
0
 10
-22.1064
 20
-41.9424
 11
-22.4404
 21
-41.8203
  0
LINE
  8
0
 10
-22.4404
 20
-41.8203
 11
-22.7578
 21
-41.667
  0
LINE
  8
0
 10
-22.7578
 20
-41.667
 11
-23.0566
 21
-41.4854
  0
LINE
  8
0
 10
-23.0566
 20
-41.4854
 11
-23.3369
 21
-41.2764
  0
LINE
  8
0
 10
-23.3369
 20
-41.2764
 11
-23.5947
 21
-41.042
  0
LINE
  8
0
 10
-23.5947
 20
-41.042
 11
-23.8291
 21
-40.7842
  0
LINE
  8
0
 10
-23.8291
 20
-40.7842
 11
-24.0381
 21
-40.5049
  0
LINE
  8
0
 10
-24.0381
 20
-40.5049
 11
-24.2197
 21
-40.2051
  0
LINE
  8
0
 10
-24.2197
 20
-40.2051
 11
-24.3721
 21
-39.8877
  0
LINE
  8
0
 10
-24.3721
 20
-39.8877
 11
-24.4941
 21
-39.5547
  0
LINE
  8
0
 10
-24.4941
 20
-39.5547
 11
-24.584
 21
-39.2061
  0
LINE
  8
0
 10
-24.584
 20
-39.2061
 11
-24.6387
 21
-38.8457
  0
LINE
  8
0
 10
-24.6387
 20
-38.8457
 11
-24.6582
 21
-38.4746
  0
LINE
  8
0
 10
-24.6582
 20
-38.4746
 11
-24.6387
 21
-38.1035
  0
LINE
  8
0
 10
-24.6387
 20
-38.1035
 11
-24.584
 21
-37.7432
  0
LINE
  8
0
 10
-24.584
 20
-37.7432
 11
-24.4941
 21
-37.3945
  0
LINE
  8
0
 10
-24.4941
 20
-37.3945
 11
-24.3721
 21
-37.0615
  0
LINE
  8
0
 10
-24.3721
 20
-37.0615
 11
-24.2197
 21
-36.7441
  0
LINE
  8
0
 10
-24.2197
 20
-36.7441
 11
-24.0381
 21
-36.4443
  0
LINE
  8
0
 10
-24.0381
 20
-36.4443
 11
-23.8291
 21
-36.165
  0
LINE
  8
0
 10
-23.8291
 20
-36.165
 11
-23.5947
 21
-35.9072
  0
LINE
  8
0
 10
-23.5947
 20
-35.9072
 11
-23.3369
 21
-35.6729
  0
LINE
  8
0
 10
-23.3369
 20
-35.6729
 11
-23.0566
 21
-35.4639
  0
LINE
  8
0
 10
-23.0566
 20
-35.4639
 11
-22.7578
 21
-35.2822
  0
LINE
  8
0
 10
-22.7578
 20
-35.2822
 11
-22.4404
 21
-35.1289
  0
LINE
  8
0
 10
-22.4404
 20
-35.1289
 11
-22.1064
 21
-35.0068
  0
LINE
  8
0
 10
-22.1064
 20
-35.0068
 11
-21.7588
 21
-34.918
  0
LINE
  8
0
 10
-21.7588
 20
-34.918
 11
-21.3984
 21
-34.8623
  0
LINE
  8
0
 10
-21.3984
 20
-34.8623
 11
-21.0273
 21
-34.8438
  0
LINE
  8
0
 10
-21.0273
 20
-34.8438
 11
-20.6562
 21
-34.8623
  0
LINE
  8
0
 10
-20.6562
 20
-34.8623
 11
-20.2949
 21
-34.918
  0
LINE
  8
0
 10
-20.2949
 20
-34.918
 11
-19.9473
 21
-35.0068
  0
LINE
  8
0
 10
-19.9473
 20
-35.0068
 11
-19.6133
 21
-35.1289
  0
LINE
  8
0
 10
-19.6133
 20
-35.1289
 11
-19.2959
 21
-35.2822
  0
LINE
  8
0
 10
-19.2959
 20
-35.2822
 11
-18.9971
 21
-35.4639
  0
LINE
  8
0
 10
-18.9971
 20
-35.4639
 11
-18.7178
 21
-35.6729
  0
LINE
  8
0
 10
-18.7178
 20
-35.6729
 11
-18.46
 21
-35.9072
  0
LINE
  8
0
 10
-18.46
 20
-35.9072
 11
-18.2256
 21
-36.165
  0
LINE
  8
0
 10
-18.2256
 20
-36.165
 11
-18.0166
 21
-36.4443
  0
LINE
  8
0
 10
-18.0166
 20
-36.4443
 11
-17.834
 21
-36.7441
  0
LINE
  8
0
 10
-17.834
 20
-36.7441
 11
-17.6816
 21
-37.0615
  0
LINE
  8
0
 10
-17.6816
 20
-37.0615
 11
-17.5596
 21
-37.3945
  0
LINE
  8
0
 10
-17.5596
 20
-37.3945
 11
-17.4697
 21
-37.7432
  0
LINE
  8
0
 10
-17.4697
 20
-37.7432
 11
-17.415
 21
-38.1035
  0
LINE
  8
0
 10
-17.415
 20
-38.1035
 11
-17.3965
 21
-38.4746
  0
LINE
  8
0
 10
-17.3965
 20
-38.4746
 11
-17.415
 21
-38.8457
  0
LINE
  8
0
 10
-17.415
 20
-38.8457
 11
-17.4697
 21
-39.2061
  0
LINE
  8
0
 10
-17.4697
 20
-39.2061
 11
-17.5596
 21
-39.5547
  0
LINE
  8
0
 10
-17.5596
 20
-39.5547
 11
-17.6816
 21
-39.8877
  0
LINE
  8
0
 10
-17.6816
 20
-39.8877
 11
-17.834
 21
-40.2051
  0
LINE
  8
0
 10
-17.834
 20
-40.2051
 11
-18.0166
 21
-40.5049
  0
LINE
  8
0
 10
-18.0166
 20
-40.5049
 11
-18.2256
 21
-40.7842
  0
LINE
  8
0
 10
-18.2256
 20
-40.7842
 11
-18.46
 21
-41.042
  0
LINE
  8
0
 10
-18.46
 20
-41.042
 11
-18.7178
 21
-41.2764
  0
LINE
  8
0
 10
-18.7178
 20
-41.2764
 11
-18.9971
 21
-41.4854
  0
LINE
  8
0
 10
-18.9971
 20
-41.4854
 11
-19.2959
 21
-41.667
  0
LINE
  8
0
 10
-19.2959
 20
-41.667
 11
-19.6133
 21
-41.8203
  0
LINE
  8
0
 10
-19.6133
 20
-41.8203
 11
-19.9473
 21
-41.9424
  0
LINE
  8
0
 10
-19.9473
 20
-41.9424
 11
-20.2949
 21
-42.0312
  0
LINE
  8
0
 10
-20.2949
 20
-42.0312
 11
-20.6562
 21
-42.0869
  0
LINE
  8
0
 10
-20.6562
 20
-42.0869
 11
-21.0273
 21
-42.1055
  0
LINE
  8
0
 10
-21.0273
 20
-42.1055
 11
-21.3984
 21
-42.0869
  0
LINE
  8
0
 10
-0.404297
 20
-50.4014
 11
-0.765625
 21
-50.3467
  0
LINE
  8
0
 10
-0.765625
 20
-50.3467
 11
-1.11523
 21
-50.2568
  0
LINE
  8
0
 10
-1.11523
 20
-50.2568
 11
-1.4502
 21
-50.1338
  0
LINE
  8
0
 10
-1.4502
 20
-50.1338
 11
-1.76855
 21
-49.9805
  0
LINE
  8
0
 10
-1.76855
 20
-49.9805
 11
-2.06934
 21
-49.7979
  0
LINE
  8
0
 10
-2.06934
 20
-49.7979
 11
-2.34961
 21
-49.5879
  0
LINE
  8
0
 10
-2.34961
 20
-49.5879
 11
-2.60938
 21
-49.3525
  0
LINE
  8
0
 10
-2.60938
 20
-49.3525
 11
-2.84375
 21
-49.0938
  0
LINE
  8
0
 10
-2.84375
 20
-49.0938
 11
-3.05371
 21
-48.8135
  0
LINE
  8
0
 10
-3.05371
 20
-48.8135
 11
-3.23633
 21
-48.5127
  0
LINE
  8
0
 10
-3.23633
 20
-48.5127
 11
-3.38965
 21
-48.1943
  0
LINE
  8
0
 10
-3.38965
 20
-48.1943
 11
-3.5127
 21
-47.8594
  0
LINE
  8
0
 10
-3.5127
 20
-47.8594
 11
-3.60254
 21
-47.5098
  0
LINE
  8
0
 10
-3.60254
 20
-47.5098
 11
-3.6582
 21
-47.1484
  0
LINE
  8
0
 10
-3.6582
 20
-47.1484
 11
-3.67676
 21
-46.7754
  0
LINE
  8
0
 10
-3.67676
 20
-46.7754
 11
-3.6582
 21
-46.4023
  0
LINE
  8
0
 10
-3.6582
 20
-46.4023
 11
-3.60254
 21
-46.041
  0
LINE
  8
0
 10
-3.60254
 20
-46.041
 11
-3.5127
 21
-45.6914
  0
LINE
  8
0
 10
-3.5127
 20
-45.6914
 11
-3.38965
 21
-45.3564
  0
LINE
  8
0
 10
-3.38965
 20
-45.3564
 11
-3.23633
 21
-45.0381
  0
LINE
  8
0
 10
-3.23633
 20
-45.0381
 11
-3.05371
 21
-44.7373
  0
LINE
  8
0
 10
-3.05371
 20
-44.7373
 11
-2.84375
 21
-44.457
  0
LINE
  8
0
 10
-2.84375
 20
-44.457
 11
-2.60938
 21
-44.1982
  0
LINE
  8
0
 10
-2.60938
 20
-44.1982
 11
-2.34961
 21
-43.9629
  0
LINE
  8
0
 10
-2.34961
 20
-43.9629
 11
-2.06934
 21
-43.7529
  0
LINE
  8
0
 10
-2.06934
 20
-43.7529
 11
-1.76855
 21
-43.5703
  0
LINE
  8
0
 10
-1.76855
 20
-43.5703
 11
-1.4502
 21
-43.417
  0
LINE
  8
0
 10
-1.4502
 20
-43.417
 11
-1.11523
 21
-43.2939
  0
LINE
  8
0
 10
-1.11523
 20
-43.2939
 11
-0.765625
 21
-43.2041
  0
LINE
  8
0
 10
-0.765625
 20
-43.2041
 11
-0.404297
 21
-43.1494
  0
LINE
  8
0
 10
-0.404297
 20
-43.1494
 11
-0.03125
 21
-43.1299
  0
LINE
  8
0
 10
-0.03125
 20
-43.1299
 11
0.340805
 21
-43.1494
  0
LINE
  8
0
 10
0.340805
 20
-43.1494
 11
0.70311
 21
-43.2041
  0
LINE
  8
0
 10
0.70311
 20
-43.2041
 11
1.05272
 21
-43.2939
  0
LINE
  8
0
 10
1.05272
 20
-43.2939
 11
1.38768
 21
-43.417
  0
LINE
  8
0
 10
1.38768
 20
-43.417
 11
1.70604
 21
-43.5703
  0
LINE
  8
0
 10
1.70604
 20
-43.5703
 11
2.00682
 21
-43.7529
  0
LINE
  8
0
 10
2.00682
 20
-43.7529
 11
2.28709
 21
-43.9629
  0
LINE
  8
0
 10
2.28709
 20
-43.9629
 11
2.54588
 21
-44.1982
  0
LINE
  8
0
 10
2.54588
 20
-44.1982
 11
2.78123
 21
-44.457
  0
LINE
  8
0
 10
2.78123
 20
-44.457
 11
2.9912
 21
-44.7373
  0
LINE
  8
0
 10
2.9912
 20
-44.7373
 11
3.17381
 21
-45.0381
  0
LINE
  8
0
 10
3.17381
 20
-45.0381
 11
3.32713
 21
-45.3564
  0
LINE
  8
0
 10
3.32713
 20
-45.3564
 11
3.45018
 21
-45.6914
  0
LINE
  8
0
 10
3.45018
 20
-45.6914
 11
3.54002
 21
-46.041
  0
LINE
  8
0
 10
3.54002
 20
-46.041
 11
3.59471
 21
-46.4023
  0
LINE
  8
0
 10
3.59471
 20
-46.4023
 11
3.61327
 21
-46.7754
  0
LINE
  8
0
 10
3.61327
 20
-46.7754
 11
3.59471
 21
-47.1484
  0
LINE
  8
0
 10
3.59471
 20
-47.1484
 11
3.54002
 21
-47.5098
  0
LINE
  8
0
 10
3.54002
 20
-47.5098
 11
3.45018
 21
-47.8594
  0
LINE
  8
0
 10
3.45018
 20
-47.8594
 11
3.32713
 21
-48.1943
  0
LINE
  8
0
 10
3.32713
 20
-48.1943
 11
3.17381
 21
-48.5127
  0
LINE
  8
0
 10
3.17381
 20
-48.5127
 11
2.9912
 21
-48.8135
  0
LINE
  8
0
 10
2.9912
 20
-48.8135
 11
2.78123
 21
-49.0938
  0
LINE
  8
0
 10
2.78123
 20
-49.0938
 11
2.54588
 21
-49.3525
  0
LINE
  8
0
 10
2.54588
 20
-49.3525
 11
2.28709
 21
-49.5879
  0
LINE
  8
0
 10
2.28709
 20
-49.5879
 11
2.00682
 21
-49.7979
  0
LINE
  8
0
 10
2.00682
 20
-49.7979
 11
1.70604
 21
-49.9805
  0
LINE
  8
0
 10
1.70604
 20
-49.9805
 11
1.38768
 21
-50.1338
  0
LINE
  8
0
 10
1.38768
 20
-50.1338
 11
1.05272
 21
-50.2568
  0
LINE
  8
0
 10
1.05272
 20
-50.2568
 11
0.70311
 21
-50.3467
  0
LINE
  8
0
 10
0.70311
 20
-50.3467
 11
0.340805
 21
-50.4014
  0
LINE
  8
0
 10
0.340805
 20
-50.4014
 11
-0.03125
 21
-50.4209
  0
LINE
  8
0
 10
-0.03125
 20
-50.4209
 11
-0.404297
 21
-50.4014
  0
LINE
  8
0
 10
-18.0166
 20
-51.1895
 11
-18.1836
 21
-51.1641
  0
LINE
  8
0
 10
-18.1836
 20
-51.1641
 11
-18.3447
 21
-51.1221
  0
LINE
  8
0
 10
-18.3447
 20
-51.1221
 11
-18.499
 21
-51.0654
  0
LINE
  8
0
 10
-18.499
 20
-51.0654
 11
-18.6455
 21
-50.9951
  0
LINE
  8
0
 10
-18.6455
 20
-50.9951
 11
-18.7842
 21
-50.9111
  0
LINE
  8
0
 10
-18.7842
 20
-50.9111
 11
-18.9141
 21
-50.8145
  0
LINE
  8
0
 10
-18.9141
 20
-50.8145
 11
-19.0332
 21
-50.7051
  0
LINE
  8
0
 10
-19.0332
 20
-50.7051
 11
-19.1416
 21
-50.5859
  0
LINE
  8
0
 10
-19.1416
 20
-50.5859
 11
-19.2383
 21
-50.457
  0
LINE
  8
0
 10
-19.2383
 20
-50.457
 11
-19.3223
 21
-50.3184
  0
LINE
  8
0
 10
-19.3223
 20
-50.3184
 11
-19.3936
 21
-50.1709
  0
LINE
  8
0
 10
-19.3936
 20
-50.1709
 11
-19.4492
 21
-50.0166
  0
LINE
  8
0
 10
-19.4492
 20
-50.0166
 11
-19.4912
 21
-49.8555
  0
LINE
  8
0
 10
-19.4912
 20
-49.8555
 11
-19.5166
 21
-49.6895
  0
LINE
  8
0
 10
-19.5166
 20
-49.6895
 11
-19.5254
 21
-49.5176
  0
LINE
  8
0
 10
-19.5254
 20
-49.5176
 11
-19.5166
 21
-49.3457
  0
LINE
  8
0
 10
-19.5166
 20
-49.3457
 11
-19.4912
 21
-49.1787
  0
LINE
  8
0
 10
-19.4912
 20
-49.1787
 11
-19.4492
 21
-49.0176
  0
LINE
  8
0
 10
-19.4492
 20
-49.0176
 11
-19.3936
 21
-48.8633
  0
LINE
  8
0
 10
-19.3936
 20
-48.8633
 11
-19.3223
 21
-48.7158
  0
LINE
  8
0
 10
-19.3223
 20
-48.7158
 11
-19.2383
 21
-48.5771
  0
LINE
  8
0
 10
-19.2383
 20
-48.5771
 11
-19.1416
 21
-48.4482
  0
LINE
  8
0
 10
-19.1416
 20
-48.4482
 11
-19.0332
 21
-48.3291
  0
LINE
  8
0
 10
-19.0332
 20
-48.3291
 11
-18.9141
 21
-48.2207
  0
LINE
  8
0
 10
-18.9141
 20
-48.2207
 11
-18.7842
 21
-48.124
  0
LINE
  8
0
 10
-18.7842
 20
-48.124
 11
-18.6455
 21
-48.0391
  0
LINE
  8
0
 10
-18.6455
 20
-48.0391
 11
-18.499
 21
-47.9688
  0
LINE
  8
0
 10
-18.499
 20
-47.9688
 11
-18.3447
 21
-47.9121
  0
LINE
  8
0
 10
-18.3447
 20
-47.9121
 11
-18.1836
 21
-47.8711
  0
LINE
  8
0
 10
-18.1836
 20
-47.8711
 11
-18.0166
 21
-47.8457
  0
LINE
  8
0
 10
-18.0166
 20
-47.8457
 11
-17.8447
 21
-47.8369
  0
LINE
  8
0
 10
-17.8447
 20
-47.8369
 11
-17.6729
 21
-47.8457
  0
LINE
  8
0
 10
-17.6729
 20
-47.8457
 11
-17.5059
 21
-47.8711
  0
LINE
  8
0
 10
-17.5059
 20
-47.8711
 11
-17.3447
 21
-47.9121
  0
LINE
  8
0
 10
-17.3447
 20
-47.9121
 11
-17.1904
 21
-47.9688
  0
LINE
  8
0
 10
-17.1904
 20
-47.9688
 11
-17.0439
 21
-48.0391
  0
LINE
  8
0
 10
-17.0439
 20
-48.0391
 11
-16.9053
 21
-48.124
  0
LINE
  8
0
 10
-16.9053
 20
-48.124
 11
-16.7754
 21
-48.2207
  0
LINE
  8
0
 10
-16.7754
 20
-48.2207
 11
-16.6562
 21
-48.3291
  0
LINE
  8
0
 10
-16.6562
 20
-48.3291
 11
-16.5479
 21
-48.4482
  0
LINE
  8
0
 10
-16.5479
 20
-48.4482
 11
-16.4512
 21
-48.5771
  0
LINE
  8
0
 10
-16.4512
 20
-48.5771
 11
-16.3672
 21
-48.7158
  0
LINE
  8
0
 10
-16.3672
 20
-48.7158
 11
-16.2959
 21
-48.8633
  0
LINE
  8
0
 10
-16.2959
 20
-48.8633
 11
-16.2393
 21
-49.0176
  0
LINE
  8
0
 10
-16.2393
 20
-49.0176
 11
-16.1982
 21
-49.1787
  0
LINE
  8
0
 10
-16.1982
 20
-49.1787
 11
-16.1729
 21
-49.3457
  0
LINE
  8
0
 10
-16.1729
 20
-49.3457
 11
-16.1641
 21
-49.5176
  0
LINE
  8
0
 10
-16.1641
 20
-49.5176
 11
-16.1729
 21
-49.6895
  0
LINE
  8
0
 10
-16.1729
 20
-49.6895
 11
-16.1982
 21
-49.8555
  0
LINE
  8
0
 10
-16.1982
 20
-49.8555
 11
-16.2393
 21
-50.0166
  0
LINE
  8
0
 10
-16.2393
 20
-50.0166
 11
-16.2959
 21
-50.1709
  0
LINE
  8
0
 10
-16.2959
 20
-50.1709
 11
-16.3672
 21
-50.3184
  0
LINE
  8
0
 10
-16.3672
 20
-50.3184
 11
-16.4512
 21
-50.457
  0
LINE
  8
0
 10
-16.4512
 20
-50.457
 11
-16.5479
 21
-50.5859
  0
LINE
  8
0
 10
-16.5479
 20
-50.5859
 11
-16.6562
 21
-50.7051
  0
LINE
  8
0
 10
-16.6562
 20
-50.7051
 11
-16.7754
 21
-50.8145
  0
LINE
  8
0
 10
-16.7754
 20
-50.8145
 11
-16.9053
 21
-50.9111
  0
LINE
  8
0
 10
-16.9053
 20
-50.9111
 11
-17.0439
 21
-50.9951
  0
LINE
  8
0
 10
-17.0439
 20
-50.9951
 11
-17.1904
 21
-51.0654
  0
LINE
  8
0
 10
-17.1904
 20
-51.0654
 11
-17.3447
 21
-51.1221
  0
LINE
  8
0
 10
-17.3447
 20
-51.1221
 11
-17.5059
 21
-51.1641
  0
LINE
  8
0
 10
-17.5059
 20
-51.1641
 11
-17.6729
 21
-51.1895
  0
LINE
  8
0
 10
-17.6729
 20
-51.1895
 11
-17.8447
 21
-51.1973
  0
LINE
  8
0
 10
-17.8447
 20
-51.1973
 11
-18.0166
 21
-51.1895
  0
LINE
  8
0
 10
17.8486
 20
-51.1895
 11
17.6816
 21
-51.1641
  0
LINE
  8
0
 10
17.6816
 20
-51.1641
 11
17.5215
 21
-51.1221
  0
LINE
  8
0
 10
17.5215
 20
-51.1221
 11
17.3662
 21
-51.0654
  0
LINE
  8
0
 10
17.3662
 20
-51.0654
 11
17.2197
 21
-50.9951
  0
LINE
  8
0
 10
17.2197
 20
-50.9951
 11
17.081
 21
-50.9111
  0
LINE
  8
0
 10
17.081
 20
-50.9111
 11
16.9521
 21
-50.8145
  0
LINE
  8
0
 10
16.9521
 20
-50.8145
 11
16.832
 21
-50.7051
  0
LINE
  8
0
 10
16.832
 20
-50.7051
 11
16.7236
 21
-50.5859
  0
LINE
  8
0
 10
16.7236
 20
-50.5859
 11
16.6269
 21
-50.457
  0
LINE
  8
0
 10
16.6269
 20
-50.457
 11
16.543
 21
-50.3184
  0
LINE
  8
0
 10
16.543
 20
-50.3184
 11
16.4726
 21
-50.1709
  0
LINE
  8
0
 10
16.4726
 20
-50.1709
 11
16.416
 21
-50.0166
  0
LINE
  8
0
 10
16.416
 20
-50.0166
 11
16.374
 21
-49.8555
  0
LINE
  8
0
 10
16.374
 20
-49.8555
 11
16.3486
 21
-49.6895
  0
LINE
  8
0
 10
16.3486
 20
-49.6895
 11
16.3398
 21
-49.5176
  0
LINE
  8
0
 10
16.3398
 20
-49.5176
 11
16.3486
 21
-49.3457
  0
LINE
  8
0
 10
16.3486
 20
-49.3457
 11
16.374
 21
-49.1787
  0
LINE
  8
0
 10
16.374
 20
-49.1787
 11
16.416
 21
-49.0176
  0
LINE
  8
0
 10
16.416
 20
-49.0176
 11
16.4726
 21
-48.8633
  0
LINE
  8
0
 10
16.4726
 20
-48.8633
 11
16.543
 21
-48.7158
  0
LINE
  8
0
 10
16.543
 20
-48.7158
 11
16.6269
 21
-48.5771
  0
LINE
  8
0
 10
16.6269
 20
-48.5771
 11
16.7236
 21
-48.4482
  0
LINE
  8
0
 10
16.7236
 20
-48.4482
 11
16.832
 21
-48.3291
  0
LINE
  8
0
 10
16.832
 20
-48.3291
 11
16.9521
 21
-48.2207
  0
LINE
  8
0
 10
16.9521
 20
-48.2207
 11
17.081
 21
-48.124
  0
LINE
  8
0
 10
17.081
 20
-48.124
 11
17.2197
 21
-48.0391
  0
LINE
  8
0
 10
17.2197
 20
-48.0391
 11
17.3662
 21
-47.9688
  0
LINE
  8
0
 10
17.3662
 20
-47.9688
 11
17.5215
 21
-47.9121
  0
LINE
  8
0
 10
17.5215
 20
-47.9121
 11
17.6816
 21
-47.8711
  0
LINE
  8
0
 10
17.6816
 20
-47.8711
 11
17.8486
 21
-47.8457
  0
LINE
  8
0
 10
17.8486
 20
-47.8457
 11
18.0205
 21
-47.8369
  0
LINE
  8
0
 10
18.0205
 20
-47.8369
 11
18.1924
 21
-47.8457
  0
LINE
  8
0
 10
18.1924
 20
-47.8457
 11
18.3594
 21
-47.8711
  0
LINE
  8
0
 10
18.3594
 20
-47.8711
 11
18.5205
 21
-47.9121
  0
LINE
  8
0
 10
18.5205
 20
-47.9121
 11
18.6748
 21
-47.9688
  0
LINE
  8
0
 10
18.6748
 20
-47.9688
 11
18.8223
 21
-48.0391
  0
LINE
  8
0
 10
18.8223
 20
-48.0391
 11
18.9599
 21
-48.124
  0
LINE
  8
0
 10
18.9599
 20
-48.124
 11
19.0898
 21
-48.2207
  0
LINE
  8
0
 10
19.0898
 20
-48.2207
 11
19.209
 21
-48.3291
  0
LINE
  8
0
 10
19.209
 20
-48.3291
 11
19.3174
 21
-48.4482
  0
LINE
  8
0
 10
19.3174
 20
-48.4482
 11
19.414
 21
-48.5771
  0
LINE
  8
0
 10
19.414
 20
-48.5771
 11
19.498
 21
-48.7158
  0
LINE
  8
0
 10
19.498
 20
-48.7158
 11
19.5693
 21
-48.8633
  0
LINE
  8
0
 10
19.5693
 20
-48.8633
 11
19.626
 21
-49.0176
  0
LINE
  8
0
 10
19.626
 20
-49.0176
 11
19.667
 21
-49.1787
  0
LINE
  8
0
 10
19.667
 20
-49.1787
 11
19.6924
 21
-49.3457
  0
LINE
  8
0
 10
19.6924
 20
-49.3457
 11
19.7012
 21
-49.5176
  0
LINE
  8
0
 10
19.7012
 20
-49.5176
 11
19.6924
 21
-49.6895
  0
LINE
  8
0
 10
19.6924
 20
-49.6895
 11
19.667
 21
-49.8555
  0
LINE
  8
0
 10
19.667
 20
-49.8555
 11
19.626
 21
-50.0166
  0
LINE
  8
0
 10
19.626
 20
-50.0166
 11
19.5693
 21
-50.1709
  0
LINE
  8
0
 10
19.5693
 20
-50.1709
 11
19.498
 21
-50.3184
  0
LINE
  8
0
 10
19.498
 20
-50.3184
 11
19.414
 21
-50.457
  0
LINE
  8
0
 10
19.414
 20
-50.457
 11
19.3174
 21
-50.5859
  0
LINE
  8
0
 10
19.3174
 20
-50.5859
 11
19.209
 21
-50.7051
  0
LINE
  8
0
 10
19.209
 20
-50.7051
 11
19.0898
 21
-50.8145
  0
LINE
  8
0
 10
19.0898
 20
-50.8145
 11
18.9599
 21
-50.9111
  0
LINE
  8
0
 10
18.9599
 20
-50.9111
 11
18.8223
 21
-50.9951
  0
LINE
  8
0
 10
18.8223
 20
-50.9951
 11
18.6748
 21
-51.0654
  0
LINE
  8
0
 10
18.6748
 20
-51.0654
 11
18.5205
 21
-51.1221
  0
LINE
  8
0
 10
18.5205
 20
-51.1221
 11
18.3594
 21
-51.1641
  0
LINE
  8
0
 10
18.3594
 20
-51.1641
 11
18.1924
 21
-51.1895
  0
LINE
  8
0
 10
18.1924
 20
-51.1895
 11
18.0205
 21
-51.1973
  0
LINE
  8
0
 10
18.0205
 20
-51.1973
 11
17.8486
 21
-51.1895
  0
LINE
  8
0
 10
-18.5
 20
-171.5
 11
-14.5
 21
-171.5
  0
LINE
  8
0
 10
-14.5
 20
-171.5
 11
-14.5
 21
-174.5
  0
LINE
  8
0
 10
-14.5
 20
-174.5
 11
14.5
 21
-174.5
  0
LINE
  8
0
 10
14.5
 20
-174.5
 11
14.5
 21
-171.5
  0
LINE
  8
0
 10
14.5
 20
-171.5
 11
18.5
 21
-171.5
  0
LINE
  8
0
 10
18.5
 20
-171.5
 11
18.5
 21
-174.5
  0
LINE
  8
0
 10
18.5
 20
-174.5
 11
30.5
 21
-174.5
  0
LINE
  8
0
 10
30.5
 20
-174.5
 11
30.5
 21
-159.5
  0
LINE
  8
0
 10
30.5
 20
-159.5
 11
27.5
 21
-159.5
  0
LINE
  8
0
 10
27.5
 20
-159.5
 11
27.5
 21
-155.5
  0
LINE
  8
0
 10
27.5
 20
-155.5
 11
30.5
 21
-155.5
  0
LINE
  8
0
 10
30.5
 20
-155.5
 11
30.5
 21
-120
  0
LINE
  8
0
 10
30.5
 20
-120
 11
27.5
 21
-120
  0
LINE
  8
0
 10
27.5
 20
-120
 11
27.5
 21
-116
  0
LINE
  8
0
 10
27.5
 20
-116
 11
30.5
 21
-116
  0
LINE
  8
0
 10
30.5
 20
-116
 11
30.5
 21
-80.5
  0
LINE
  8
0
 10
30.5
 20
-80.5
 11
27.5
 21
-80.5
  0
LINE
  8
0
 10
27.5
 20
-80.5
 11
27.5
 21
-76.5
  0
LINE
  8
0
 10
27.5
 20
-76.5
 11
30.5
 21
-76.5
  0
LINE
  8
0
 10
30.5
 20
-76.5
 11
30.5
 21
-61.5
  0
LINE
  8
0
 10
30.5
 20
-61.5
 11
18.5
 21
-61.5
  0
LINE
  8
0
 10
18.5
 20
-61.5
 11
18.5
 21
-64.5
  0
LINE
  8
0
 10
18.5
 20
-64.5
 11
14.5
 21
-64.5
  0
LINE
  8
0
 10
14.5
 20
-64.5
 11
14.5
 21
-61.5
  0
LINE
  8
0
 10
14.5
 20
-61.5
 11
-14.5
 21
-61.5
  0
LINE
  8
0
 10
-14.5
 20
-61.5
 11
-14.5
 21
-64.5
  0
LINE
  8
0
 10
-14.5
 20
-64.5
 11
-18.5
 21
-64.5
  0
LINE
  8
0
 10
-18.5
 20
-64.5
 11
-18.5
 21
-61.5
  0
LINE
  8
0
 10
-18.5
 20
-61.5
 11
-30.5
 21
-61.5
  0
LINE
  8
0
 10
-30.5
 20
-61.5
 11
-30.5
 21
-76.5
  0
LINE
  8
0
 10
-30.5
 20
-76.5
 11
-27.5
 21
-76.5
  0
LINE
  8
0
 10
-27.5
 20
-76.5
 11
-27.5
 21
-80.5
  0
LINE
  8
0
 10
-27.5
 20
-80.5
 11
-30.5
 21
-80.5
  0
LINE
  8
0
 10
-30.5
 20
-80.5
 11
-30.5
 21
-116
  0
LINE
  8
0
 10
-30.5
 20
-116
 11
-27.5
 21
-116
  0
LINE
  8
0
 10
-27.5
 20
-116
 11
-27.5
 21
-120
  0
LINE
  8
0
 10
-27.5
 20
-120
 11
-30.5
 21
-120
  0
LINE
  8
0
 10
-30.5
 20
-120
 11
-30.5
 21
-155.5
  0
LINE
  8
0
 10
-30.5
 20
-155.5
 11
-27.5
 21
-155.5
  0
LINE
  8
0
 10
-27.5
 20
-155.5
 11
-27.5
 21
-159.5
  0
LINE
  8
0
 10
-27.5
 20
-159.5
 11
-30.5
 21
-159.5
  0
LINE
  8
0
 10
-30.5
 20
-159.5
 11
-30.5
 21
-174.5
  0
LINE
  8
0
 10
-30.5
 20
-174.5
 11
-18.5
 21
-174.5
  0
LINE
  8
0
 10
-18.5
 20
-174.5
 11
-18.5
 21
-171.5
  0
LINE
  8
0
 10
-14.5
 20
-208.5
 11
14.5
 21
-208.5
  0
LINE
  8
0
 10
14.5
 20
-208.5
 11
14.5
 21
-211.5
  0
LINE
  8
0
 10
14.5
 20
-211.5
 11
18.5
 21
-211.5
  0
LINE
  8
0
 10
18.5
 20
-211.5
 11
18.5
 21
-208.5
  0
LINE
  8
0
 10
18.5
 20
-208.5
 11
30.5
 21
-208.5
  0
LINE
  8
0
 10
30.5
 20
-208.5
 11
30.5
 21
-198.5
  0
LINE
  8
0
 10
30.5
 20
-198.5
 11
27.5
 21
-198.5
  0
LINE
  8
0
 10
27.5
 20
-198.5
 11
27.5
 21
-192.5
  0
LINE
  8
0
 10
27.5
 20
-192.5
 11
30.5
 21
-192.5
  0
LINE
  8
0
 10
30.5
 20
-192.5
 11
30.5
 21
-182.5
  0
LINE
  8
0
 10
30.5
 20
-182.5
 11
18.5
 21
-182.5
  0
LINE
  8
0
 10
18.5
 20
-182.5
 11
18.5
 21
-179.5
  0
LINE
  8
0
 10
18.5
 20
-179.5
 11
14.5
 21
-179.5
  0
LINE
  8
0
 10
14.5
 20
-179.5
 11
14.5
 21
-182.5
  0
LINE
  8
0
 10
14.5
 20
-182.5
 11
-14.5
 21
-182.5
  0
LINE
  8
0
 10
-14.5
 20
-182.5
 11
-14.5
 21
-179.5
  0
LINE
  8
0
 10
-14.5
 20
-179.5
 11
-18.5
 21
-179.5
  0
LINE
  8
0
 10
-18.5
 20
-179.5
 11
-18.5
 21
-182.5
  0
LINE
  8
0
 10
-18.5
 20
-182.5
 11
-30.5
 21
-182.5
  0
LINE
  8
0
 10
-30.5
 20
-182.5
 11
-30.5
 21
-192.5
  0
LINE
  8
0
 10
-30.5
 20
-192.5
 11
-27.5
 21
-192.5
  0
LINE
  8
0
 10
-27.5
 20
-192.5
 11
-27.5
 21
-198.5
  0
LINE
  8
0
 10
-27.5
 20
-198.5
 11
-30.5
 21
-198.5
  0
LINE
  8
0
 10
-30.5
 20
-198.5
 11
-30.5
 21
-208.5
  0
LINE
  8
0
 10
-30.5
 20
-208.5
 11
-18.5
 21
-208.5
  0
LINE
  8
0
 10
-18.5
 20
-208.5
 11
-18.5
 21
-211.5
  0
LINE
  8
0
 10
-18.5
 20
-211.5
 11
-14.5
 21
-211.5
  0
LINE
  8
0
 10
-14.5
 20
-211.5
 11
-14.5
 21
-208.5
  0
LINE
  8
0
 10
-14.5
 20
-245.5
 11
14.5
 21
-245.5
  0
LINE
  8
0
 10
14.5
 20
-245.5
 11
14.5
 21
-248.5
  0
LINE
  8
0
 10
14.5
 20
-248.5
 11
18.5
 21
-248.5
  0
LINE
  8
0
 10
18.5
 20
-248.5
 11
18.5
 21
-245.5
  0
LINE
  8
0
 10
18.5
 20
-245.5
 11
30.5
 21
-245.5
  0
LINE
  8
0
 10
30.5
 20
-245.5
 11
30.5
 21
-235.5
  0
LINE
  8
0
 10
30.5
 20
-235.5
 11
27.5
 21
-235.5
  0
LINE
  8
0
 10
27.5
 20
-235.5
 11
27.5
 21
-229.5
  0
LINE
  8
0
 10
27.5
 20
-229.5
 11
30.5
 21
-229.5
  0
LINE
  8
0
 10
30.5
 20
-229.5
 11
30.5
 21
-219.5
  0
LINE
  8
0
 10
30.5
 20
-219.5
 11
18.5
 21
-219.5
  0
LINE
  8
0
 10
18.5
 20
-219.5
 11
18.5
 21
-216.5
  0
LINE
  8
0
 10
18.5
 20
-216.5
 11
14.5
 21
-216.5
  0
LINE
  8
0
 10
14.5
 20
-216.5
 11
14.5
 21
-219.5
  0
LINE
  8
0
 10
14.5
 20
-219.5
 11
5.79948
 21
-219.5
  0
LINE
  8
0
 10
5.79948
 20
-219.5
 11
4.96484
 21
-224.974
  0
LINE
  8
0
 10
4.96484
 20
-224.974
 11
-4.6377
 21
-224.974
  0
LINE
  8
0
 10
-4.6377
 20
-224.974
 11
-5.77626
 21
-219.5
  0
LINE
  8
0
 10
-5.77626
 20
-219.5
 11
-14.5
 21
-219.5
  0
LINE
  8
0
 10
-14.5
 20
-219.5
 11
-14.5
 21
-216.5
  0
LINE
  8
0
 10
-14.5
 20
-216.5
 11
-18.5
 21
-216.5
  0
LINE
  8
0
 10
-18.5
 20
-216.5
 11
-18.5
 21
-219.5
  0
LINE
  8
0
 10
-18.5
 20
-219.5
 11
-30.5
 21
-219.5
  0
LINE
  8
0
 10
-30.5
 20
-219.5
 11
-30.5
 21
-229.5
  0
LINE
  8
0
 10
-30.5
 20
-229.5
 11
-27.5
 21
-229.5
  0
LINE
  8
0
 10
-27.5
 20
-229.5
 11
-27.5
 21
-235.5
  0
LINE
  8
0
 10
-27.5
 20
-235.5
 11
-30.5
 21
-235.5
  0
LINE
  8
0
 10
-30.5
 20
-235.5
 11
-30.5
 21
-245.5
  0
LINE
  8
0
 10
-30.5
 20
-245.5
 11
-18.5
 21
-245.5
  0
LINE
  8
0
 10
-18.5
 20
-245.5
 11
-18.5
 21
-248.5
  0
LINE
  8
0
 10
-18.5
 20
-248.5
 11
-14.5
 21
-248.5
  0
LINE
  8
0
 10
-14.5
 20
-248.5
 11
-14.5
 21
-245.5
  0
LINE
  8
0
 10
-37.5
 20
-282.5
 11
-2
 21
-282.5
  0
LINE
  8
0
 10
-2
 20
-282.5
 11
-2
 21
-285.5
  0
LINE
  8
0
 10
-2
 20
-285.5
 11
2
 21
-285.5
  0
LINE
  8
0
 10
2
 20
-285.5
 11
2
 21
-282.5
  0
LINE
  8
0
 10
2
 20
-282.5
 11
37.5
 21
-282.5
  0
LINE
  8
0
 10
37.5
 20
-282.5
 11
37.5
 21
-285.5
  0
LINE
  8
0
 10
37.5
 20
-285.5
 11
41.5
 21
-285.5
  0
LINE
  8
0
 10
41.5
 20
-285.5
 11
41.5
 21
-282.5
  0
LINE
  8
0
 10
41.5
 20
-282.5
 11
53.5
 21
-282.5
  0
LINE
  8
0
 10
53.5
 20
-282.5
 11
53.5
 21
-272.5
  0
LINE
  8
0
 10
53.5
 20
-272.5
 11
56.5
 21
-272.5
  0
LINE
  8
0
 10
56.5
 20
-272.5
 11
56.5
 21
-266.5
  0
LINE
  8
0
 10
56.5
 20
-266.5
 11
53.5
 21
-266.5
  0
LINE
  8
0
 10
53.5
 20
-266.5
 11
53.5
 21
-256.5
  0
LINE
  8
0
 10
53.5
 20
-256.5
 11
41.5
 21
-256.5
  0
LINE
  8
0
 10
41.5
 20
-256.5
 11
41.5
 21
-253.5
  0
LINE
  8
0
 10
41.5
 20
-253.5
 11
37.5
 21
-253.5
  0
LINE
  8
0
 10
37.5
 20
-253.5
 11
37.5
 21
-256.5
  0
LINE
  8
0
 10
37.5
 20
-256.5
 11
2
 21
-256.5
  0
LINE
  8
0
 10
2
 20
-256.5
 11
2
 21
-253.5
  0
LINE
  8
0
 10
2
 20
-253.5
 11
-2
 21
-253.5
  0
LINE
  8
0
 10
-2
 20
-253.5
 11
-2
 21
-256.5
  0
LINE
  8
0
 10
-2
 20
-256.5
 11
-37.5
 21
-256.5
  0
LINE
  8
0
 10
-37.5
 20
-256.5
 11
-37.5
 21
-253.5
  0
LINE
  8
0
 10
-37.5
 20
-253.5
 11
-41.5
 21
-253.5
  0
LINE
  8
0
 10
-41.5
 20
-253.5
 11
-41.5
 21
-256.5
  0
LINE
  8
0
 10
-41.5
 20
-256.5
 11
-53.5
 21
-256.5
  0
LINE
  8
0
 10
-53.5
 20
-256.5
 11
-53.5
 21
-266.5
  0
LINE
  8
0
 10
-53.5
 20
-266.5
 11
-56.5
 21
-266.5
  0
LINE
  8
0
 10
-56.5
 20
-266.5
 11
-56.5
 21
-272.5
  0
LINE
  8
0
 10
-56.5
 20
-272.5
 11
-53.5
 21
-272.5
  0
LINE
  8
0
 10
-53.5
 20
-272.5
 11
-53.5
 21
-282.5
  0
LINE
  8
0
 10
-53.5
 20
-282.5
 11
-41.5
 21
-282.5
  0
LINE
  8
0
 10
-41.5
 20
-282.5
 11
-41.5
 21
-285.5
  0
LINE
  8
0
 10
-41.5
 20
-285.5
 11
-37.5
 21
-285.5
  0
LINE
  8
0
 10
-37.5
 20
-285.5
 11
-37.5
 21
-282.5
  0
LINE
  8
0
 10
22.8486
 20
-270.455
 11
22.251
 21
-270.27
  0
LINE
  8
0
 10
22.251
 20
-270.27
 11
21.71
 21
-269.977
  0
LINE
  8
0
 10
21.71
 20
-269.977
 11
21.2393
 21
-269.588
  0
LINE
  8
0
 10
21.2393
 20
-269.588
 11
20.8506
 21
-269.116
  0
LINE
  8
0
 10
20.8506
 20
-269.116
 11
20.5566
 21
-268.576
  0
LINE
  8
0
 10
20.5566
 20
-268.576
 11
20.3711
 21
-267.979
  0
LINE
  8
0
 10
20.3711
 20
-267.979
 11
20.3066
 21
-267.337
  0
LINE
  8
0
 10
20.3066
 20
-267.337
 11
20.3711
 21
-266.695
  0
LINE
  8
0
 10
20.3711
 20
-266.695
 11
20.5566
 21
-266.098
  0
LINE
  8
0
 10
20.5566
 20
-266.098
 11
20.8506
 21
-265.558
  0
LINE
  8
0
 10
20.8506
 20
-265.558
 11
21.2393
 21
-265.086
  0
LINE
  8
0
 10
21.2393
 20
-265.086
 11
21.71
 21
-264.697
  0
LINE
  8
0
 10
21.71
 20
-264.697
 11
22.251
 21
-264.404
  0
LINE
  8
0
 10
22.251
 20
-264.404
 11
22.8486
 21
-264.219
  0
LINE
  8
0
 10
22.8486
 20
-264.219
 11
23.4902
 21
-264.153
  0
LINE
  8
0
 10
23.4902
 20
-264.153
 11
24.1309
 21
-264.219
  0
LINE
  8
0
 10
24.1309
 20
-264.219
 11
24.7285
 21
-264.404
  0
LINE
  8
0
 10
24.7285
 20
-264.404
 11
25.2695
 21
-264.697
  0
LINE
  8
0
 10
25.2695
 20
-264.697
 11
25.7402
 21
-265.086
  0
LINE
  8
0
 10
25.7402
 20
-265.086
 11
26.1289
 21
-265.558
  0
LINE
  8
0
 10
26.1289
 20
-265.558
 11
26.4229
 21
-266.098
  0
LINE
  8
0
 10
26.4229
 20
-266.098
 11
26.6084
 21
-266.695
  0
LINE
  8
0
 10
26.6084
 20
-266.695
 11
26.6729
 21
-267.337
  0
LINE
  8
0
 10
26.6729
 20
-267.337
 11
26.6084
 21
-267.979
  0
LINE
  8
0
 10
26.6084
 20
-267.979
 11
26.4229
 21
-268.576
  0
LINE
  8
0
 10
26.4229
 20
-268.576
 11
26.1289
 21
-269.116
  0
LINE
  8
0
 10
26.1289
 20
-269.116
 11
25.7402
 21
-269.588
  0
LINE
  8
0
 10
25.7402
 20
-269.588
 11
25.2695
 21
-269.977
  0
LINE
  8
0
 10
25.2695
 20
-269.977
 11
24.7285
 21
-270.27
  0
LINE
  8
0
 10
24.7285
 20
-270.27
 11
24.1309
 21
-270.455
  0
LINE
  8
0
 10
24.1309
 20
-270.455
 11
23.4902
 21
-270.521
  0
LINE
  8
0
 10
23.4902
 20
-270.521
 11
22.8486
 21
-270.455
  0
LINE
  8
0
 10
-17.5107
 20
-275.243
 11
-18.2363
 21
-275.018
  0
LINE
  8
0
 10
-18.2363
 20
-275.018
 11
-18.8926
 21
-274.662
  0
LINE
  8
0
 10
-18.8926
 20
-274.662
 11
-19.4648
 21
-274.189
  0
LINE
  8
0
 10
-19.4648
 20
-274.189
 11
-19.9365
 21
-273.618
  0
LINE
  8
0
 10
-19.9365
 20
-273.618
 11
-20.293
 21
-272.961
  0
LINE
  8
0
 10
-20.293
 20
-272.961
 11
-20.5186
 21
-272.235
  0
LINE
  8
0
 10
-20.5186
 20
-272.235
 11
-20.5967
 21
-271.457
  0
LINE
  8
0
 10
-20.5967
 20
-271.457
 11
-20.5186
 21
-270.678
  0
LINE
  8
0
 10
-20.5186
 20
-270.678
 11
-20.293
 21
-269.952
  0
LINE
  8
0
 10
-20.293
 20
-269.952
 11
-19.9365
 21
-269.296
  0
LINE
  8
0
 10
-19.9365
 20
-269.296
 11
-19.4648
 21
-268.725
  0
LINE
  8
0
 10
-19.4648
 20
-268.725
 11
-18.8926
 21
-268.252
  0
LINE
  8
0
 10
-18.8926
 20
-268.252
 11
-18.2363
 21
-267.896
  0
LINE
  8
0
 10
-18.2363
 20
-267.896
 11
-17.5107
 21
-267.671
  0
LINE
  8
0
 10
-17.5107
 20
-267.671
 11
-16.7324
 21
-267.592
  0
LINE
  8
0
 10
-16.7324
 20
-267.592
 11
-15.9531
 21
-267.671
  0
LINE
  8
0
 10
-15.9531
 20
-267.671
 11
-15.2275
 21
-267.896
  0
LINE
  8
0
 10
-15.2275
 20
-267.896
 11
-14.5713
 21
-268.252
  0
LINE
  8
0
 10
-14.5713
 20
-268.252
 11
-13.999
 21
-268.725
  0
LINE
  8
0
 10
-13.999
 20
-268.725
 11
-13.5273
 21
-269.296
  0
LINE
  8
0
 10
-13.5273
 20
-269.296
 11
-13.1709
 21
-269.952
  0
LINE
  8
0
 10
-13.1709
 20
-269.952
 11
-12.9463
 21
-270.678
  0
LINE
  8
0
 10
-12.9463
 20
-270.678
 11
-12.8672
 21
-271.457
  0
LINE
  8
0
 10
-12.8672
 20
-271.457
 11
-12.9463
 21
-272.235
  0
LINE
  8
0
 10
-12.9463
 20
-272.235
 11
-13.1709
 21
-272.961
  0
LINE
  8
0
 10
-13.1709
 20
-272.961
 11
-13.5273
 21
-273.618
  0
LINE
  8
0
 10
-13.5273
 20
-273.618
 11
-13.999
 21
-274.189
  0
LINE
  8
0
 10
-13.999
 20
-274.189
 11
-14.5713
 21
-274.662
  0
LINE
  8
0
 10
-14.5713
 20
-274.662
 11
-15.2275
 21
-275.018
  0
LINE
  8
0
 10
-15.2275
 20
-275.018
 11
-15.9531
 21
-275.243
  0
LINE
  8
0
 10
-15.9531
 20
-275.243
 11
-16.7324
 21
-275.321
  0
LINE
  8
0
 10
-16.7324
 20
-275.321
 11
-17.5107
 21
-275.243
  0
LINE
  8
0
 10
-37.5
 20
-319.5
 11
-2
 21
-319.5
  0
LINE
  8
0
 10
-2
 20
-319.5
 11
-2
 21
-322.5
  0
LINE
  8
0
 10
-2
 20
-322.5
 11
2
 21
-322.5
  0
LINE
  8
0
 10
2
 20
-322.5
 11
2
 21
-319.5
  0
LINE
  8
0
 10
2
 20
-319.5
 11
37.5
 21
-319.5
  0
LINE
  8
0
 10
37.5
 20
-319.5
 11
37.5
 21
-322.5
  0
LINE
  8
0
 10
37.5
 20
-322.5
 11
41.5
 21
-322.5
  0
LINE
  8
0
 10
41.5
 20
-322.5
 11
41.5
 21
-319.5
  0
LINE
  8
0
 10
41.5
 20
-319.5
 11
53.5
 21
-319.5
  0
LINE
  8
0
 10
53.5
 20
-319.5
 11
53.5
 21
-309.5
  0
LINE
  8
0
 10
53.5
 20
-309.5
 11
56.5
 21
-309.5
  0
LINE
  8
0
 10
56.5
 20
-309.5
 11
56.5
 21
-303.5
  0
LINE
  8
0
 10
56.5
 20
-303.5
 11
53.5
 21
-303.5
  0
LINE
  8
0
 10
53.5
 20
-303.5
 11
53.5
 21
-293.5
  0
LINE
  8
0
 10
53.5
 20
-293.5
 11
41.5
 21
-293.5
  0
LINE
  8
0
 10
41.5
 20
-293.5
 11
41.5
 21
-290.5
  0
LINE
  8
0
 10
41.5
 20
-290.5
 11
37.5
 21
-290.5
  0
LINE
  8
0
 10
37.5
 20
-290.5
 11
37.5
 21
-293.5
  0
LINE
  8
0
 10
37.5
 20
-293.5
 11
2
 21
-293.5
  0
LINE
  8
0
 10
2
 20
-293.5
 11
2
 21
-290.5
  0
LINE
  8
0
 10
2
 20
-290.5
 11
-2
 21
-290.5
  0
LINE
  8
0
 10
-2
 20
-290.5
 11
-2
 21
-293.5
  0
LINE
  8
0
 10
-2
 20
-293.5
 11
-37.5
 21
-293.5
  0
LINE
  8
0
 10
-37.5
 20
-293.5
 11
-37.5
 21
-290.5
  0
LINE
  8
0
 10
-37.5
 20
-290.5
 11
-41.5
 21
-290.5
  0
LINE
  8
0
 10
-41.5
 20
-290.5
 11
-41.5
 21
-293.5
  0
LINE
  8
0
 10
-41.5
 20
-293.5
 11
-53.5
 21
-293.5
  0
LINE
  8
0
 10
-53.5
 20
-293.5
 11
-53.5
 21
-303.5
  0
LINE
  8
0
 10
-53.5
 20
-303.5
 11
-56.5
 21
-303.5
  0
LINE
  8
0
 10
-56.5
 20
-303.5
 11
-56.5
 21
-309.5
  0
LINE
  8
0
 10
-56.5
 20
-309.5
 11
-53.5
 21
-309.5
  0
LINE
  8
0
 10
-53.5
 20
-309.5
 11
-53.5
 21
-319.5
  0
LINE
  8
0
 10
-53.5
 20
-319.5
 11
-41.5
 21
-319.5
  0
LINE
  8
0
 10
-41.5
 20
-319.5
 11
-41.5
 21
-322.5
  0
LINE
  8
0
 10
-41.5
 20
-322.5
 11
-37.5
 21
-322.5
  0
LINE
  8
0
 10
-37.5
 20
-322.5
 11
-37.5
 21
-319.5
  0
LINE
  8
0
 10
-17.5107
 20
-308.122
 11
-18.2363
 21
-307.896
  0
LINE
  8
0
 10
-18.2363
 20
-307.896
 11
-18.8926
 21
-307.54
  0
LINE
  8
0
 10
-18.8926
 20
-307.54
 11
-19.4648
 21
-307.068
  0
LINE
  8
0
 10
-19.4648
 20
-307.068
 11
-19.9365
 21
-306.496
  0
LINE
  8
0
 10
-19.9365
 20
-306.496
 11
-20.293
 21
-305.84
  0
LINE
  8
0
 10
-20.293
 20
-305.84
 11
-20.5186
 21
-305.114
  0
LINE
  8
0
 10
-20.5186
 20
-305.114
 11
-20.5967
 21
-304.336
  0
LINE
  8
0
 10
-20.5967
 20
-304.336
 11
-20.5186
 21
-303.557
  0
LINE
  8
0
 10
-20.5186
 20
-303.557
 11
-20.293
 21
-302.831
  0
LINE
  8
0
 10
-20.293
 20
-302.831
 11
-19.9365
 21
-302.175
  0
LINE
  8
0
 10
-19.9365
 20
-302.175
 11
-19.4648
 21
-301.603
  0
LINE
  8
0
 10
-19.4648
 20
-301.603
 11
-18.8926
 21
-301.131
  0
LINE
  8
0
 10
-18.8926
 20
-301.131
 11
-18.2363
 21
-300.774
  0
LINE
  8
0
 10
-18.2363
 20
-300.774
 11
-17.5107
 21
-300.55
  0
LINE
  8
0
 10
-17.5107
 20
-300.55
 11
-16.7324
 21
-300.471
  0
LINE
  8
0
 10
-16.7324
 20
-300.471
 11
-15.9531
 21
-300.55
  0
LINE
  8
0
 10
-15.9531
 20
-300.55
 11
-15.2275
 21
-300.774
  0
LINE
  8
0
 10
-15.2275
 20
-300.774
 11
-14.5713
 21
-301.131
  0
LINE
  8
0
 10
-14.5713
 20
-301.131
 11
-13.999
 21
-301.603
  0
LINE
  8
0
 10
-13.999
 20
-301.603
 11
-13.5273
 21
-302.175
  0
LINE
  8
0
 10
-13.5273
 20
-302.175
 11
-13.1709
 21
-302.831
  0
LINE
  8
0
 10
-13.1709
 20
-302.831
 11
-12.9463
 21
-303.557
  0
LINE
  8
0
 10
-12.9463
 20
-303.557
 11
-12.8672
 21
-304.336
  0
LINE
  8
0
 10
-12.8672
 20
-304.336
 11
-12.9463
 21
-305.114
  0
LINE
  8
0
 10
-12.9463
 20
-305.114
 11
-13.1709
 21
-305.84
  0
LINE
  8
0
 10
-13.1709
 20
-305.84
 11
-13.5273
 21
-306.496
  0
LINE
  8
0
 10
-13.5273
 20
-306.496
 11
-13.999
 21
-307.068
  0
LINE
  8
0
 10
-13.999
 20
-307.068
 11
-14.5713
 21
-307.54
  0
LINE
  8
0
 10
-14.5713
 20
-307.54
 11
-15.2275
 21
-307.896
  0
LINE
  8
0
 10
-15.2275
 20
-307.896
 11
-15.9531
 21
-308.122
  0
LINE
  8
0
 10
-15.9531
 20
-308.122
 11
-16.7324
 21
-308.2
  0
LINE
  8
0
 10
-16.7324
 20
-308.2
 11
-17.5107
 21
-308.122
  0
LINE
  8
0
 10
22.8486
 20
-311.574
 11
22.251
 21
-311.389
  0
LINE
  8
0
 10
22.251
 20
-311.389
 11
21.71
 21
-311.096
  0
LINE
  8
0
 10
21.71
 20
-311.096
 11
21.2393
 21
-310.707
  0
LINE
  8
0
 10
21.2393
 20
-310.707
 11
20.8506
 21
-310.235
  0
LINE
  8
0
 10
20.8506
 20
-310.235
 11
20.5566
 21
-309.694
  0
LINE
  8
0
 10
20.5566
 20
-309.694
 11
20.3711
 21
-309.098
  0
LINE
  8
0
 10
20.3711
 20
-309.098
 11
20.3066
 21
-308.456
  0
LINE
  8
0
 10
20.3066
 20
-308.456
 11
20.3711
 21
-307.814
  0
LINE
  8
0
 10
20.3711
 20
-307.814
 11
20.5566
 21
-307.217
  0
LINE
  8
0
 10
20.5566
 20
-307.217
 11
20.8506
 21
-306.676
  0
LINE
  8
0
 10
20.8506
 20
-306.676
 11
21.2393
 21
-306.205
  0
LINE
  8
0
 10
21.2393
 20
-306.205
 11
21.71
 21
-305.816
  0
LINE
  8
0
 10
21.71
 20
-305.816
 11
22.251
 21
-305.522
  0
LINE
  8
0
 10
22.251
 20
-305.522
 11
22.8486
 21
-305.337
  0
LINE
  8
0
 10
22.8486
 20
-305.337
 11
23.4902
 21
-305.272
  0
LINE
  8
0
 10
23.4902
 20
-305.272
 11
24.1309
 21
-305.337
  0
LINE
  8
0
 10
24.1309
 20
-305.337
 11
24.7285
 21
-305.522
  0
LINE
  8
0
 10
24.7285
 20
-305.522
 11
25.2695
 21
-305.816
  0
LINE
  8
0
 10
25.2695
 20
-305.816
 11
25.7402
 21
-306.205
  0
LINE
  8
0
 10
25.7402
 20
-306.205
 11
26.1289
 21
-306.676
  0
LINE
  8
0
 10
26.1289
 20
-306.676
 11
26.4229
 21
-307.217
  0
LINE
  8
0
 10
26.4229
 20
-307.217
 11
26.6084
 21
-307.814
  0
LINE
  8
0
 10
26.6084
 20
-307.814
 11
26.6729
 21
-308.456
  0
LINE
  8
0
 10
26.6729
 20
-308.456
 11
26.6084
 21
-309.098
  0
LINE
  8
0
 10
26.6084
 20
-309.098
 11
26.4229
 21
-309.694
  0
LINE
  8
0
 10
26.4229
 20
-309.694
 11
26.1289
 21
-310.235
  0
LINE
  8
0
 10
26.1289
 20
-310.235
 11
25.7402
 21
-310.706
  0
LINE
  8
0
 10
25.7402
 20
-310.706
 11
25.2695
 21
-311.096
  0
LINE
  8
0
 10
25.2695
 20
-311.096
 11
24.7285
 21
-311.389
  0
LINE
  8
0
 10
24.7285
 20
-311.389
 11
24.1309
 21
-311.574
  0
LINE
  8
0
 10
24.1309
 20
-311.574
 11
23.4902
 21
-311.639
  0
LINE
  8
0
 10
23.4902
 20
-311.639
 11
22.8486
 21
-311.574
  0
ENDSEC
  0
SECTION
  2
OBJECTS
  0
DICTIONARY
  0
ENDSEC
  0
EOF
