  0
SECTION
  2
BLOCKS
  0
ENDSEC
  0
SECTION
  2
ENTITIES
  0
LINE
  8
0
 10
14.5
 20
-53.5
 11
18.5
 21
-53.5
  0
LINE
  8
0
 10
18.5
 20
-53.5
 11
18.5
 21
-56.5
  0
LINE
  8
0
 10
18.5
 20
-56.5
 11
30.5
 21
-56.5
  0
LINE
  8
0
 10
30.5
 20
-56.5
 11
30.5
 21
-41.5
  0
LINE
  8
0
 10
30.5
 20
-41.5
 11
27.5
 21
-41.5
  0
LINE
  8
0
 10
27.5
 20
-41.5
 11
27.5
 21
-37.5
  0
LINE
  8
0
 10
27.5
 20
-37.5
 11
30.5
 21
-37.5
  0
LINE
  8
0
 10
30.5
 20
-37.5
 11
30.5
 21
-2
  0
LINE
  8
0
 10
30.5
 20
-2
 11
27.5
 21
-2
  0
LINE
  8
0
 10
27.5
 20
-2
 11
27.5
 21
1.99998
  0
LINE
  8
0
 10
27.5
 20
1.99998
 11
30.5
 21
1.99998
  0
LINE
  8
0
 10
30.5
 20
1.99998
 11
30.5
 21
37.5
  0
LINE
  8
0
 10
30.5
 20
37.5
 11
27.5
 21
37.5
  0
LINE
  8
0
 10
27.5
 20
37.5
 11
27.5
 21
41.5
  0
LINE
  8
0
 10
27.5
 20
41.5
 11
30.5
 21
41.5
  0
LINE
  8
0
 10
30.5
 20
41.5
 11
30.5
 21
56.5
  0
LINE
  8
0
 10
30.5
 20
56.5
 11
18.5
 21
56.5
  0
LINE
  8
0
 10
18.5
 20
56.5
 11
18.5
 21
53.5
  0
LINE
  8
0
 10
18.5
 20
53.5
 11
14.5
 21
53.5
  0
LINE
  8
0
 10
14.5
 20
53.5
 11
14.5
 21
56.5
  0
LINE
  8
0
 10
14.5
 20
56.5
 11
-14.5
 21
56.5
  0
LINE
  8
0
 10
-14.5
 20
56.5
 11
-14.5
 21
53.5
  0
LINE
  8
0
 10
-14.5
 20
53.5
 11
-18.5
 21
53.5
  0
LINE
  8
0
 10
-18.5
 20
53.5
 11
-18.5
 21
56.5
  0
LINE
  8
0
 10
-18.5
 20
56.5
 11
-30.5
 21
56.5
  0
LINE
  8
0
 10
-30.5
 20
56.5
 11
-30.5
 21
41.5
  0
LINE
  8
0
 10
-30.5
 20
41.5
 11
-27.5
 21
41.5
  0
LINE
  8
0
 10
-27.5
 20
41.5
 11
-27.5
 21
37.5
  0
LINE
  8
0
 10
-27.5
 20
37.5
 11
-30.5
 21
37.5
  0
LINE
  8
0
 10
-30.5
 20
37.5
 11
-30.5
 21
2
  0
LINE
  8
0
 10
-30.5
 20
2
 11
-27.5
 21
2
  0
LINE
  8
0
 10
-27.5
 20
2
 11
-27.5
 21
-1.99998
  0
LINE
  8
0
 10
-27.5
 20
-1.99998
 11
-30.5
 21
-1.99998
  0
LINE
  8
0
 10
-30.5
 20
-1.99998
 11
-30.5
 21
-37.5
  0
LINE
  8
0
 10
-30.5
 20
-37.5
 11
-27.5
 21
-37.5
  0
LINE
  8
0
 10
-27.5
 20
-37.5
 11
-27.5
 21
-41.5
  0
LINE
  8
0
 10
-27.5
 20
-41.5
 11
-30.5
 21
-41.5
  0
LINE
  8
0
 10
-30.5
 20
-41.5
 11
-30.5
 21
-56.5
  0
LINE
  8
0
 10
-30.5
 20
-56.5
 11
-18.5
 21
-56.5
  0
LINE
  8
0
 10
-18.5
 20
-56.5
 11
-18.5
 21
-53.5
  0
LINE
  8
0
 10
-18.5
 20
-53.5
 11
-14.5
 21
-53.5
  0
LINE
  8
0
 10
-14.5
 20
-53.5
 11
-14.5
 21
-56.5
  0
LINE
  8
0
 10
-14.5
 20
-56.5
 11
14.5
 21
-56.5
  0
LINE
  8
0
 10
14.5
 20
-56.5
 11
14.5
 21
-53.5
  0
LINE
  8
0
 10
-17.8457
 20
4.50391
 11
-18.2812
 21
4.57031
  0
LINE
  8
0
 10
-18.2812
 20
4.57031
 11
-18.7012
 21
4.67871
  0
LINE
  8
0
 10
-18.7012
 20
4.67871
 11
-19.1035
 21
4.82617
  0
LINE
  8
0
 10
-19.1035
 20
4.82617
 11
-19.4873
 21
5.01074
  0
LINE
  8
0
 10
-19.4873
 20
5.01074
 11
-19.8486
 21
5.23047
  0
LINE
  8
0
 10
-19.8486
 20
5.23047
 11
-20.1865
 21
5.48242
  0
LINE
  8
0
 10
-20.1865
 20
5.48242
 11
-20.498
 21
5.76562
  0
LINE
  8
0
 10
-20.498
 20
5.76562
 11
-20.7803
 21
6.07715
  0
LINE
  8
0
 10
-20.7803
 20
6.07715
 11
-21.0332
 21
6.41504
  0
LINE
  8
0
 10
-21.0332
 20
6.41504
 11
-21.2529
 21
6.77637
  0
LINE
  8
0
 10
-21.2529
 20
6.77637
 11
-21.4375
 21
7.15918
  0
LINE
  8
0
 10
-21.4375
 20
7.15918
 11
-21.585
 21
7.5625
  0
LINE
  8
0
 10
-21.585
 20
7.5625
 11
-21.6924
 21
7.98242
  0
LINE
  8
0
 10
-21.6924
 20
7.98242
 11
-21.7588
 21
8.41797
  0
LINE
  8
0
 10
-21.7588
 20
8.41797
 11
-21.7822
 21
8.86621
  0
LINE
  8
0
 10
-21.7822
 20
8.86621
 11
-21.7588
 21
9.31445
  0
LINE
  8
0
 10
-21.7588
 20
9.31445
 11
-21.6924
 21
9.75
  0
LINE
  8
0
 10
-21.6924
 20
9.75
 11
-21.585
 21
10.1699
  0
LINE
  8
0
 10
-21.585
 20
10.1699
 11
-21.4375
 21
10.5723
  0
LINE
  8
0
 10
-21.4375
 20
10.5723
 11
-21.2529
 21
10.9561
  0
LINE
  8
0
 10
-21.2529
 20
10.9561
 11
-21.0332
 21
11.3174
  0
LINE
  8
0
 10
-21.0332
 20
11.3174
 11
-20.7803
 21
11.6553
  0
LINE
  8
0
 10
-20.7803
 20
11.6553
 11
-20.498
 21
11.9668
  0
LINE
  8
0
 10
-20.498
 20
11.9668
 11
-20.1865
 21
12.249
  0
LINE
  8
0
 10
-20.1865
 20
12.249
 11
-19.8486
 21
12.502
  0
LINE
  8
0
 10
-19.8486
 20
12.502
 11
-19.4873
 21
12.7217
  0
LINE
  8
0
 10
-19.4873
 20
12.7217
 11
-19.1035
 21
12.9062
  0
LINE
  8
0
 10
-19.1035
 20
12.9062
 11
-18.7012
 21
13.0537
  0
LINE
  8
0
 10
-18.7012
 20
13.0537
 11
-18.2812
 21
13.1611
  0
LINE
  8
0
 10
-18.2812
 20
13.1611
 11
-17.8457
 21
13.2275
  0
LINE
  8
0
 10
-17.8457
 20
13.2275
 11
-17.3975
 21
13.251
  0
LINE
  8
0
 10
-17.3975
 20
13.251
 11
-16.9492
 21
13.2275
  0
LINE
  8
0
 10
-16.9492
 20
13.2275
 11
-16.5137
 21
13.1611
  0
LINE
  8
0
 10
-16.5137
 20
13.1611
 11
-16.0938
 21
13.0537
  0
LINE
  8
0
 10
-16.0938
 20
13.0537
 11
-15.6904
 21
12.9062
  0
LINE
  8
0
 10
-15.6904
 20
12.9062
 11
-15.3076
 21
12.7217
  0
LINE
  8
0
 10
-15.3076
 20
12.7217
 11
-14.9463
 21
12.502
  0
LINE
  8
0
 10
-14.9463
 20
12.502
 11
-14.6084
 21
12.249
  0
LINE
  8
0
 10
-14.6084
 20
12.249
 11
-14.2969
 21
11.9668
  0
LINE
  8
0
 10
-14.2969
 20
11.9668
 11
-14.0137
 21
11.6553
  0
LINE
  8
0
 10
-14.0137
 20
11.6553
 11
-13.7617
 21
11.3174
  0
LINE
  8
0
 10
-13.7617
 20
11.3174
 11
-13.542
 21
10.9561
  0
LINE
  8
0
 10
-13.542
 20
10.9561
 11
-13.3574
 21
10.5723
  0
LINE
  8
0
 10
-13.3574
 20
10.5723
 11
-13.2099
 21
10.1699
  0
LINE
  8
0
 10
-13.2099
 20
10.1699
 11
-13.1015
 21
9.75
  0
LINE
  8
0
 10
-13.1015
 20
9.75
 11
-13.0351
 21
9.31445
  0
LINE
  8
0
 10
-13.0351
 20
9.31445
 11
-13.0127
 21
8.86621
  0
LINE
  8
0
 10
-13.0127
 20
8.86621
 11
-13.0351
 21
8.41797
  0
LINE
  8
0
 10
-13.0351
 20
8.41797
 11
-13.1015
 21
7.98242
  0
LINE
  8
0
 10
-13.1015
 20
7.98242
 11
-13.2099
 21
7.5625
  0
LINE
  8
0
 10
-13.2099
 20
7.5625
 11
-13.3574
 21
7.15918
  0
LINE
  8
0
 10
-13.3574
 20
7.15918
 11
-13.542
 21
6.77637
  0
LINE
  8
0
 10
-13.542
 20
6.77637
 11
-13.7617
 21
6.41504
  0
LINE
  8
0
 10
-13.7617
 20
6.41504
 11
-14.0137
 21
6.07715
  0
LINE
  8
0
 10
-14.0137
 20
6.07715
 11
-14.2969
 21
5.76562
  0
LINE
  8
0
 10
-14.2969
 20
5.76562
 11
-14.6084
 21
5.48242
  0
LINE
  8
0
 10
-14.6084
 20
5.48242
 11
-14.9463
 21
5.23047
  0
LINE
  8
0
 10
-14.9463
 20
5.23047
 11
-15.3076
 21
5.01074
  0
LINE
  8
0
 10
-15.3076
 20
5.01074
 11
-15.6904
 21
4.82617
  0
LINE
  8
0
 10
-15.6904
 20
4.82617
 11
-16.0938
 21
4.67871
  0
LINE
  8
0
 10
-16.0938
 20
4.67871
 11
-16.5137
 21
4.57031
  0
LINE
  8
0
 10
-16.5137
 20
4.57031
 11
-16.9492
 21
4.50391
  0
LINE
  8
0
 10
-16.9492
 20
4.50391
 11
-17.3975
 21
4.48145
  0
LINE
  8
0
 10
-17.3975
 20
4.48145
 11
-17.8457
 21
4.50391
  0
LINE
  8
0
 10
16.7627
 20
4.50389
 11
16.3281
 21
4.5703
  0
LINE
  8
0
 10
16.3281
 20
4.5703
 11
15.9072
 21
4.6787
  0
LINE
  8
0
 10
15.9072
 20
4.6787
 11
15.5049
 21
4.82616
  0
LINE
  8
0
 10
15.5049
 20
4.82616
 11
15.1211
 21
5.01073
  0
LINE
  8
0
 10
15.1211
 20
5.01073
 11
14.7598
 21
5.23045
  0
LINE
  8
0
 10
14.7598
 20
5.23045
 11
14.4229
 21
5.48241
  0
LINE
  8
0
 10
14.4229
 20
5.48241
 11
14.1113
 21
5.76561
  0
LINE
  8
0
 10
14.1113
 20
5.76561
 11
13.8281
 21
6.07713
  0
LINE
  8
0
 10
13.8281
 20
6.07713
 11
13.5762
 21
6.41502
  0
LINE
  8
0
 10
13.5762
 20
6.41502
 11
13.3564
 21
6.77635
  0
LINE
  8
0
 10
13.3564
 20
6.77635
 11
13.1719
 21
7.15916
  0
LINE
  8
0
 10
13.1719
 20
7.15916
 11
13.0244
 21
7.56248
  0
LINE
  8
0
 10
13.0244
 20
7.56248
 11
12.916
 21
7.98241
  0
LINE
  8
0
 10
12.916
 20
7.98241
 11
12.8496
 21
8.41795
  0
LINE
  8
0
 10
12.8496
 20
8.41795
 11
12.8271
 21
8.8662
  0
LINE
  8
0
 10
12.8271
 20
8.8662
 11
12.8496
 21
9.31444
  0
LINE
  8
0
 10
12.8496
 20
9.31444
 11
12.916
 21
9.74998
  0
LINE
  8
0
 10
12.916
 20
9.74998
 11
13.0244
 21
10.1699
  0
LINE
  8
0
 10
13.0244
 20
10.1699
 11
13.1719
 21
10.5723
  0
LINE
  8
0
 10
13.1719
 20
10.5723
 11
13.3564
 21
10.956
  0
LINE
  8
0
 10
13.3564
 20
10.956
 11
13.5762
 21
11.3174
  0
LINE
  8
0
 10
13.5762
 20
11.3174
 11
13.8281
 21
11.6553
  0
LINE
  8
0
 10
13.8281
 20
11.6553
 11
14.1113
 21
11.9668
  0
LINE
  8
0
 10
14.1113
 20
11.9668
 11
14.4229
 21
12.249
  0
LINE
  8
0
 10
14.4229
 20
12.249
 11
14.7598
 21
12.5019
  0
LINE
  8
0
 10
14.7598
 20
12.5019
 11
15.1211
 21
12.7217
  0
LINE
  8
0
 10
15.1211
 20
12.7217
 11
15.5049
 21
12.9062
  0
LINE
  8
0
 10
15.5049
 20
12.9062
 11
15.9072
 21
13.0537
  0
LINE
  8
0
 10
15.9072
 20
13.0537
 11
16.3281
 21
13.1611
  0
LINE
  8
0
 10
16.3281
 20
13.1611
 11
16.7627
 21
13.2275
  0
LINE
  8
0
 10
16.7627
 20
13.2275
 11
17.2119
 21
13.251
  0
LINE
  8
0
 10
17.2119
 20
13.251
 11
17.6602
 21
13.2275
  0
LINE
  8
0
 10
17.6602
 20
13.2275
 11
18.0947
 21
13.1611
  0
LINE
  8
0
 10
18.0947
 20
13.1611
 11
18.5156
 21
13.0537
  0
LINE
  8
0
 10
18.5156
 20
13.0537
 11
18.918
 21
12.9062
  0
LINE
  8
0
 10
18.918
 20
12.9062
 11
19.3018
 21
12.7217
  0
LINE
  8
0
 10
19.3018
 20
12.7217
 11
19.6631
 21
12.5019
  0
LINE
  8
0
 10
19.6631
 20
12.5019
 11
20
 21
12.249
  0
LINE
  8
0
 10
20
 20
12.249
 11
20.3115
 21
11.9668
  0
LINE
  8
0
 10
20.3115
 20
11.9668
 11
20.5947
 21
11.6553
  0
LINE
  8
0
 10
20.5947
 20
11.6553
 11
20.8477
 21
11.3174
  0
LINE
  8
0
 10
20.8477
 20
11.3174
 11
21.0664
 21
10.956
  0
LINE
  8
0
 10
21.0664
 20
10.956
 11
21.251
 21
10.5723
  0
LINE
  8
0
 10
21.251
 20
10.5723
 11
21.3984
 21
10.1699
  0
LINE
  8
0
 10
21.3984
 20
10.1699
 11
21.5068
 21
9.74998
  0
LINE
  8
0
 10
21.5068
 20
9.74998
 11
21.5732
 21
9.31444
  0
LINE
  8
0
 10
21.5732
 20
9.31444
 11
21.5957
 21
8.8662
  0
LINE
  8
0
 10
21.5957
 20
8.8662
 11
21.5732
 21
8.41795
  0
LINE
  8
0
 10
21.5732
 20
8.41795
 11
21.5068
 21
7.98241
  0
LINE
  8
0
 10
21.5068
 20
7.98241
 11
21.3984
 21
7.56248
  0
LINE
  8
0
 10
21.3984
 20
7.56248
 11
21.251
 21
7.15916
  0
LINE
  8
0
 10
21.251
 20
7.15916
 11
21.0664
 21
6.77635
  0
LINE
  8
0
 10
21.0664
 20
6.77635
 11
20.8477
 21
6.41502
  0
LINE
  8
0
 10
20.8477
 20
6.41502
 11
20.5947
 21
6.07713
  0
LINE
  8
0
 10
20.5947
 20
6.07713
 11
20.3115
 21
5.76561
  0
LINE
  8
0
 10
20.3115
 20
5.76561
 11
20
 21
5.48241
  0
LINE
  8
0
 10
20
 20
5.48241
 11
19.6631
 21
5.23045
  0
LINE
  8
0
 10
19.6631
 20
5.23045
 11
19.3018
 21
5.01073
  0
LINE
  8
0
 10
19.3018
 20
5.01073
 11
18.918
 21
4.82616
  0
LINE
  8
0
 10
18.918
 20
4.82616
 11
18.5156
 21
4.6787
  0
LINE
  8
0
 10
18.5156
 20
4.6787
 11
18.0947
 21
4.5703
  0
LINE
  8
0
 10
18.0947
 20
4.5703
 11
17.6602
 21
4.50389
  0
LINE
  8
0
 10
17.6602
 20
4.50389
 11
17.2119
 21
4.48143
  0
LINE
  8
0
 10
17.2119
 20
4.48143
 11
16.7627
 21
4.50389
  0
LINE
  8
0
 10
-0.377914
 20
3.50391
 11
-0.715805
 21
3.55469
  0
LINE
  8
0
 10
-0.715805
 20
3.55469
 11
-1.041
 21
3.63867
  0
LINE
  8
0
 10
-1.041
 20
3.63867
 11
-1.3535
 21
3.75293
  0
LINE
  8
0
 10
-1.3535
 20
3.75293
 11
-1.65038
 21
3.89648
  0
LINE
  8
0
 10
-1.65038
 20
3.89648
 11
-1.93065
 21
4.06641
  0
LINE
  8
0
 10
-1.93065
 20
4.06641
 11
-2.19237
 21
4.26172
  0
LINE
  8
0
 10
-2.19237
 20
4.26172
 11
-2.43358
 21
4.48145
  0
LINE
  8
0
 10
-2.43358
 20
4.48145
 11
-2.65331
 21
4.72266
  0
LINE
  8
0
 10
-2.65331
 20
4.72266
 11
-2.84862
 21
4.98438
  0
LINE
  8
0
 10
-2.84862
 20
4.98438
 11
-3.01854
 21
5.26465
  0
LINE
  8
0
 10
-3.01854
 20
5.26465
 11
-3.16209
 21
5.56152
  0
LINE
  8
0
 10
-3.16209
 20
5.56152
 11
-3.27635
 21
5.87305
  0
LINE
  8
0
 10
-3.27635
 20
5.87305
 11
-3.35936
 21
6.19922
  0
LINE
  8
0
 10
-3.35936
 20
6.19922
 11
-3.41112
 21
6.53613
  0
LINE
  8
0
 10
-3.41112
 20
6.53613
 11
-3.4287
 21
6.88379
  0
LINE
  8
0
 10
-3.4287
 20
6.88379
 11
-3.41112
 21
7.23145
  0
LINE
  8
0
 10
-3.41112
 20
7.23145
 11
-3.35936
 21
7.56836
  0
LINE
  8
0
 10
-3.35936
 20
7.56836
 11
-3.27635
 21
7.89453
  0
LINE
  8
0
 10
-3.27635
 20
7.89453
 11
-3.16209
 21
8.20703
  0
LINE
  8
0
 10
-3.16209
 20
8.20703
 11
-3.01854
 21
8.50391
  0
LINE
  8
0
 10
-3.01854
 20
8.50391
 11
-2.84862
 21
8.78418
  0
LINE
  8
0
 10
-2.84862
 20
8.78418
 11
-2.65331
 21
9.04492
  0
LINE
  8
0
 10
-2.65331
 20
9.04492
 11
-2.43358
 21
9.28711
  0
LINE
  8
0
 10
-2.43358
 20
9.28711
 11
-2.19237
 21
9.50586
  0
LINE
  8
0
 10
-2.19237
 20
9.50586
 11
-1.93065
 21
9.70117
  0
LINE
  8
0
 10
-1.93065
 20
9.70117
 11
-1.65038
 21
9.87207
  0
LINE
  8
0
 10
-1.65038
 20
9.87207
 11
-1.3535
 21
10.0146
  0
LINE
  8
0
 10
-1.3535
 20
10.0146
 11
-1.041
 21
10.1289
  0
LINE
  8
0
 10
-1.041
 20
10.1289
 11
-0.715805
 21
10.2129
  0
LINE
  8
0
 10
-0.715805
 20
10.2129
 11
-0.377914
 21
10.2646
  0
LINE
  8
0
 10
-0.377914
 20
10.2646
 11
-0.0312347
 21
10.2822
  0
LINE
  8
0
 10
-0.0312347
 20
10.2822
 11
0.316406
 21
10.2646
  0
LINE
  8
0
 10
0.316406
 20
10.2646
 11
0.654297
 21
10.2129
  0
LINE
  8
0
 10
0.654297
 20
10.2129
 11
0.979492
 21
10.1289
  0
LINE
  8
0
 10
0.979492
 20
10.1289
 11
1.29199
 21
10.0146
  0
LINE
  8
0
 10
1.29199
 20
10.0146
 11
1.58887
 21
9.87207
  0
LINE
  8
0
 10
1.58887
 20
9.87207
 11
1.86914
 21
9.70117
  0
LINE
  8
0
 10
1.86914
 20
9.70117
 11
2.13086
 21
9.50586
  0
LINE
  8
0
 10
2.13086
 20
9.50586
 11
2.37207
 21
9.28711
  0
LINE
  8
0
 10
2.37207
 20
9.28711
 11
2.59082
 21
9.04492
  0
LINE
  8
0
 10
2.59082
 20
9.04492
 11
2.78711
 21
8.78418
  0
LINE
  8
0
 10
2.78711
 20
8.78418
 11
2.95703
 21
8.50391
  0
LINE
  8
0
 10
2.95703
 20
8.50391
 11
3.09961
 21
8.20703
  0
LINE
  8
0
 10
3.09961
 20
8.20703
 11
3.21387
 21
7.89453
  0
LINE
  8
0
 10
3.21387
 20
7.89453
 11
3.29785
 21
7.56836
  0
LINE
  8
0
 10
3.29785
 20
7.56836
 11
3.34961
 21
7.23145
  0
LINE
  8
0
 10
3.34961
 20
7.23145
 11
3.36719
 21
6.88379
  0
LINE
  8
0
 10
3.36719
 20
6.88379
 11
3.34961
 21
6.53613
  0
LINE
  8
0
 10
3.34961
 20
6.53613
 11
3.29785
 21
6.19922
  0
LINE
  8
0
 10
3.29785
 20
6.19922
 11
3.21387
 21
5.87305
  0
LINE
  8
0
 10
3.21387
 20
5.87305
 11
3.09961
 21
5.56152
  0
LINE
  8
0
 10
3.09961
 20
5.56152
 11
2.95703
 21
5.26465
  0
LINE
  8
0
 10
2.95703
 20
5.26465
 11
2.78711
 21
4.98438
  0
LINE
  8
0
 10
2.78711
 20
4.98438
 11
2.59082
 21
4.72266
  0
LINE
  8
0
 10
2.59082
 20
4.72266
 11
2.37207
 21
4.48145
  0
LINE
  8
0
 10
2.37207
 20
4.48145
 11
2.13086
 21
4.26172
  0
LINE
  8
0
 10
2.13086
 20
4.26172
 11
1.86914
 21
4.06641
  0
LINE
  8
0
 10
1.86914
 20
4.06641
 11
1.58887
 21
3.89648
  0
LINE
  8
0
 10
1.58887
 20
3.89648
 11
1.29199
 21
3.75293
  0
LINE
  8
0
 10
1.29199
 20
3.75293
 11
0.979492
 21
3.63867
  0
LINE
  8
0
 10
0.979492
 20
3.63867
 11
0.654297
 21
3.55469
  0
LINE
  8
0
 10
0.654297
 20
3.55469
 11
0.316406
 21
3.50391
  0
LINE
  8
0
 10
0.316406
 20
3.50391
 11
-0.0312347
 21
3.48633
  0
LINE
  8
0
 10
-0.0312347
 20
3.48633
 11
-0.377914
 21
3.50391
  0
LINE
  8
0
 10
-0.405273
 20
-13.6377
 11
-0.768555
 21
-13.582
  0
LINE
  8
0
 10
-0.768555
 20
-13.582
 11
-1.11816
 21
-13.4922
  0
LINE
  8
0
 10
-1.11816
 20
-13.4922
 11
-1.4541
 21
-13.3691
  0
LINE
  8
0
 10
-1.4541
 20
-13.3691
 11
-1.77344
 21
-13.2158
  0
LINE
  8
0
 10
-1.77344
 20
-13.2158
 11
-2.0752
 21
-13.0322
  0
LINE
  8
0
 10
-2.0752
 20
-13.0322
 11
-2.35645
 21
-12.8223
  0
LINE
  8
0
 10
-2.35645
 20
-12.8223
 11
-2.61621
 21
-12.5859
  0
LINE
  8
0
 10
-2.61621
 20
-12.5859
 11
-2.85156
 21
-12.3262
  0
LINE
  8
0
 10
-2.85156
 20
-12.3262
 11
-3.0625
 21
-12.0449
  0
LINE
  8
0
 10
-3.0625
 20
-12.0449
 11
-3.24512
 21
-11.7441
  0
LINE
  8
0
 10
-3.24512
 20
-11.7441
 11
-3.39941
 21
-11.4238
  0
LINE
  8
0
 10
-3.39941
 20
-11.4238
 11
-3.52246
 21
-11.0889
  0
LINE
  8
0
 10
-3.52246
 20
-11.0889
 11
-3.6123
 21
-10.7383
  0
LINE
  8
0
 10
-3.6123
 20
-10.7383
 11
-3.66797
 21
-10.375
  0
LINE
  8
0
 10
-3.66797
 20
-10.375
 11
-3.68652
 21
-10.002
  0
LINE
  8
0
 10
-3.68652
 20
-10.002
 11
-3.66797
 21
-9.62793
  0
LINE
  8
0
 10
-3.66797
 20
-9.62793
 11
-3.6123
 21
-9.26465
  0
LINE
  8
0
 10
-3.6123
 20
-9.26465
 11
-3.52246
 21
-8.91504
  0
LINE
  8
0
 10
-3.52246
 20
-8.91504
 11
-3.39941
 21
-8.5791
  0
LINE
  8
0
 10
-3.39941
 20
-8.5791
 11
-3.24512
 21
-8.25977
  0
LINE
  8
0
 10
-3.24512
 20
-8.25977
 11
-3.0625
 21
-7.95801
  0
LINE
  8
0
 10
-3.0625
 20
-7.95801
 11
-2.85156
 21
-7.67676
  0
LINE
  8
0
 10
-2.85156
 20
-7.67676
 11
-2.61621
 21
-7.41699
  0
LINE
  8
0
 10
-2.61621
 20
-7.41699
 11
-2.35645
 21
-7.18164
  0
LINE
  8
0
 10
-2.35645
 20
-7.18164
 11
-2.0752
 21
-6.9707
  0
LINE
  8
0
 10
-2.0752
 20
-6.9707
 11
-1.77344
 21
-6.78809
  0
LINE
  8
0
 10
-1.77344
 20
-6.78809
 11
-1.4541
 21
-6.63379
  0
LINE
  8
0
 10
-1.4541
 20
-6.63379
 11
-1.11816
 21
-6.51074
  0
LINE
  8
0
 10
-1.11816
 20
-6.51074
 11
-0.768555
 21
-6.4209
  0
LINE
  8
0
 10
-0.768555
 20
-6.4209
 11
-0.405273
 21
-6.36523
  0
LINE
  8
0
 10
-0.405273
 20
-6.36523
 11
-0.03125
 21
-6.34668
  0
LINE
  8
0
 10
-0.03125
 20
-6.34668
 11
0.341782
 21
-6.36523
  0
LINE
  8
0
 10
0.341782
 20
-6.36523
 11
0.705063
 21
-6.4209
  0
LINE
  8
0
 10
0.705063
 20
-6.4209
 11
1.05565
 21
-6.51074
  0
LINE
  8
0
 10
1.05565
 20
-6.51074
 11
1.39159
 21
-6.63379
  0
LINE
  8
0
 10
1.39159
 20
-6.63379
 11
1.71092
 21
-6.78809
  0
LINE
  8
0
 10
1.71092
 20
-6.78809
 11
2.0117
 21
-6.9707
  0
LINE
  8
0
 10
2.0117
 20
-6.9707
 11
2.29393
 21
-7.18164
  0
LINE
  8
0
 10
2.29393
 20
-7.18164
 11
2.55272
 21
-7.41699
  0
LINE
  8
0
 10
2.55272
 20
-7.41699
 11
2.78905
 21
-7.67676
  0
LINE
  8
0
 10
2.78905
 20
-7.67676
 11
2.99901
 21
-7.95801
  0
LINE
  8
0
 10
2.99901
 20
-7.95801
 11
3.1826
 21
-8.25977
  0
LINE
  8
0
 10
3.1826
 20
-8.25977
 11
3.33592
 21
-8.5791
  0
LINE
  8
0
 10
3.33592
 20
-8.5791
 11
3.45897
 21
-8.91504
  0
LINE
  8
0
 10
3.45897
 20
-8.91504
 11
3.54881
 21
-9.26465
  0
LINE
  8
0
 10
3.54881
 20
-9.26465
 11
3.60448
 21
-9.62793
  0
LINE
  8
0
 10
3.60448
 20
-9.62793
 11
3.62401
 21
-10.002
  0
LINE
  8
0
 10
3.62401
 20
-10.002
 11
3.60448
 21
-10.375
  0
LINE
  8
0
 10
3.60448
 20
-10.375
 11
3.54881
 21
-10.7383
  0
LINE
  8
0
 10
3.54881
 20
-10.7383
 11
3.45897
 21
-11.0889
  0
LINE
  8
0
 10
3.45897
 20
-11.0889
 11
3.33592
 21
-11.4238
  0
LINE
  8
0
 10
3.33592
 20
-11.4238
 11
3.1826
 21
-11.7441
  0
LINE
  8
0
 10
3.1826
 20
-11.7441
 11
2.99901
 21
-12.0449
  0
LINE
  8
0
 10
2.99901
 20
-12.0449
 11
2.78905
 21
-12.3262
  0
LINE
  8
0
 10
2.78905
 20
-12.3262
 11
2.55272
 21
-12.5859
  0
LINE
  8
0
 10
2.55272
 20
-12.5859
 11
2.29393
 21
-12.8223
  0
LINE
  8
0
 10
2.29393
 20
-12.8223
 11
2.0117
 21
-13.0322
  0
LINE
  8
0
 10
2.0117
 20
-13.0322
 11
1.71092
 21
-13.2158
  0
LINE
  8
0
 10
1.71092
 20
-13.2158
 11
1.39159
 21
-13.3691
  0
LINE
  8
0
 10
1.39159
 20
-13.3691
 11
1.05565
 21
-13.4922
  0
LINE
  8
0
 10
1.05565
 20
-13.4922
 11
0.705063
 21
-13.582
  0
LINE
  8
0
 10
0.705063
 20
-13.582
 11
0.341782
 21
-13.6377
  0
LINE
  8
0
 10
0.341782
 20
-13.6377
 11
-0.03125
 21
-13.6562
  0
LINE
  8
0
 10
-0.03125
 20
-13.6562
 11
-0.405273
 21
-13.6377
  0
LINE
  8
0
 10
20.5625
 20
-42.1104
 11
20.1992
 21
-42.0547
  0
LINE
  8
0
 10
20.1992
 20
-42.0547
 11
19.8496
 21
-41.9648
  0
LINE
  8
0
 10
19.8496
 20
-41.9648
 11
19.5137
 21
-41.8418
  0
LINE
  8
0
 10
19.5137
 20
-41.8418
 11
19.1943
 21
-41.6885
  0
LINE
  8
0
 10
19.1943
 20
-41.6885
 11
18.8926
 21
-41.5049
  0
LINE
  8
0
 10
18.8926
 20
-41.5049
 11
18.6113
 21
-41.2949
  0
LINE
  8
0
 10
18.6113
 20
-41.2949
 11
18.3515
 21
-41.0586
  0
LINE
  8
0
 10
18.3515
 20
-41.0586
 11
18.1162
 21
-40.7988
  0
LINE
  8
0
 10
18.1162
 20
-40.7988
 11
17.9053
 21
-40.5176
  0
LINE
  8
0
 10
17.9053
 20
-40.5176
 11
17.7226
 21
-40.2168
  0
LINE
  8
0
 10
17.7226
 20
-40.2168
 11
17.5683
 21
-39.8975
  0
LINE
  8
0
 10
17.5683
 20
-39.8975
 11
17.4463
 21
-39.5615
  0
LINE
  8
0
 10
17.4463
 20
-39.5615
 11
17.3555
 21
-39.2109
  0
LINE
  8
0
 10
17.3555
 20
-39.2109
 11
17.3008
 21
-38.8486
  0
LINE
  8
0
 10
17.3008
 20
-38.8486
 11
17.2812
 21
-38.4746
  0
LINE
  8
0
 10
17.2812
 20
-38.4746
 11
17.3008
 21
-38.1006
  0
LINE
  8
0
 10
17.3008
 20
-38.1006
 11
17.3555
 21
-37.7383
  0
LINE
  8
0
 10
17.3555
 20
-37.7383
 11
17.4463
 21
-37.3877
  0
LINE
  8
0
 10
17.4463
 20
-37.3877
 11
17.5683
 21
-37.0518
  0
LINE
  8
0
 10
17.5683
 20
-37.0518
 11
17.7226
 21
-36.7324
  0
LINE
  8
0
 10
17.7226
 20
-36.7324
 11
17.9053
 21
-36.4307
  0
LINE
  8
0
 10
17.9053
 20
-36.4307
 11
18.1162
 21
-36.1494
  0
LINE
  8
0
 10
18.1162
 20
-36.1494
 11
18.3515
 21
-35.8906
  0
LINE
  8
0
 10
18.3515
 20
-35.8906
 11
18.6113
 21
-35.6543
  0
LINE
  8
0
 10
18.6113
 20
-35.6543
 11
18.8926
 21
-35.4443
  0
LINE
  8
0
 10
18.8926
 20
-35.4443
 11
19.1943
 21
-35.2607
  0
LINE
  8
0
 10
19.1943
 20
-35.2607
 11
19.5137
 21
-35.1074
  0
LINE
  8
0
 10
19.5137
 20
-35.1074
 11
19.8496
 21
-34.9844
  0
LINE
  8
0
 10
19.8496
 20
-34.9844
 11
20.1992
 21
-34.8945
  0
LINE
  8
0
 10
20.1992
 20
-34.8945
 11
20.5625
 21
-34.8389
  0
LINE
  8
0
 10
20.5625
 20
-34.8389
 11
20.9365
 21
-34.8193
  0
LINE
  8
0
 10
20.9365
 20
-34.8193
 11
21.3096
 21
-34.8389
  0
LINE
  8
0
 10
21.3096
 20
-34.8389
 11
21.6728
 21
-34.8945
  0
LINE
  8
0
 10
21.6728
 20
-34.8945
 11
22.0234
 21
-34.9844
  0
LINE
  8
0
 10
22.0234
 20
-34.9844
 11
22.3584
 21
-35.1074
  0
LINE
  8
0
 10
22.3584
 20
-35.1074
 11
22.6787
 21
-35.2607
  0
LINE
  8
0
 10
22.6787
 20
-35.2607
 11
22.9795
 21
-35.4443
  0
LINE
  8
0
 10
22.9795
 20
-35.4443
 11
23.2607
 21
-35.6543
  0
LINE
  8
0
 10
23.2607
 20
-35.6543
 11
23.5205
 21
-35.8906
  0
LINE
  8
0
 10
23.5205
 20
-35.8906
 11
23.7568
 21
-36.1494
  0
LINE
  8
0
 10
23.7568
 20
-36.1494
 11
23.9668
 21
-36.4307
  0
LINE
  8
0
 10
23.9668
 20
-36.4307
 11
24.1494
 21
-36.7324
  0
LINE
  8
0
 10
24.1494
 20
-36.7324
 11
24.3037
 21
-37.0518
  0
LINE
  8
0
 10
24.3037
 20
-37.0518
 11
24.4267
 21
-37.3877
  0
LINE
  8
0
 10
24.4267
 20
-37.3877
 11
24.5166
 21
-37.7383
  0
LINE
  8
0
 10
24.5166
 20
-37.7383
 11
24.5723
 21
-38.1006
  0
LINE
  8
0
 10
24.5723
 20
-38.1006
 11
24.5908
 21
-38.4746
  0
LINE
  8
0
 10
24.5908
 20
-38.4746
 11
24.5723
 21
-38.8486
  0
LINE
  8
0
 10
24.5723
 20
-38.8486
 11
24.5166
 21
-39.2109
  0
LINE
  8
0
 10
24.5166
 20
-39.2109
 11
24.4267
 21
-39.5615
  0
LINE
  8
0
 10
24.4267
 20
-39.5615
 11
24.3037
 21
-39.8975
  0
LINE
  8
0
 10
24.3037
 20
-39.8975
 11
24.1494
 21
-40.2168
  0
LINE
  8
0
 10
24.1494
 20
-40.2168
 11
23.9668
 21
-40.5176
  0
LINE
  8
0
 10
23.9668
 20
-40.5176
 11
23.7568
 21
-40.7988
  0
LINE
  8
0
 10
23.7568
 20
-40.7988
 11
23.5205
 21
-41.0586
  0
LINE
  8
0
 10
23.5205
 20
-41.0586
 11
23.2607
 21
-41.2949
  0
LINE
  8
0
 10
23.2607
 20
-41.2949
 11
22.9795
 21
-41.5049
  0
LINE
  8
0
 10
22.9795
 20
-41.5049
 11
22.6787
 21
-41.6885
  0
LINE
  8
0
 10
22.6787
 20
-41.6885
 11
22.3584
 21
-41.8418
  0
LINE
  8
0
 10
22.3584
 20
-41.8418
 11
22.0234
 21
-41.9648
  0
LINE
  8
0
 10
22.0234
 20
-41.9648
 11
21.6728
 21
-42.0547
  0
LINE
  8
0
 10
21.6728
 20
-42.0547
 11
21.3096
 21
-42.1104
  0
LINE
  8
0
 10
21.3096
 20
-42.1104
 11
20.9365
 21
-42.1289
  0
LINE
  8
0
 10
20.9365
 20
-42.1289
 11
20.5625
 21
-42.1104
  0
LINE
  8
0
 10
-21.3984
 20
-42.0869
 11
-21.7588
 21
-42.0312
  0
LINE
  8
0
 10
-21.7588
 20
-42.0312
 11
-22.1064
 21
-41.9424
  0
LINE
  8
0
 10
-22.1064
 20
-41.9424
 11
-22.4404
 21
-41.8203
  0
LINE
  8
0
 10
-22.4404
 20
-41.8203
 11
-22.7578
 21
-41.667
  0
LINE
  8
0
 10
-22.7578
 20
-41.667
 11
-23.0566
 21
-41.4854
  0
LINE
  8
0
 10
-23.0566
 20
-41.4854
 11
-23.3369
 21
-41.2764
  0
LINE
  8
0
 10
-23.3369
 20
-41.2764
 11
-23.5947
 21
-41.042
  0
LINE
  8
0
 10
-23.5947
 20
-41.042
 11
-23.8291
 21
-40.7842
  0
LINE
  8
0
 10
-23.8291
 20
-40.7842
 11
-24.0381
 21
-40.5049
  0
LINE
  8
0
 10
-24.0381
 20
-40.5049
 11
-24.2197
 21
-40.2051
  0
LINE
  8
0
 10
-24.2197
 20
-40.2051
 11
-24.3721
 21
-39.8877
  0
LINE
  8
0
 10
-24.3721
 20
-39.8877
 11
-24.4941
 21
-39.5547
  0
LINE
  8
0
 10
-24.4941
 20
-39.5547
 11
-24.584
 21
-39.2061
  0
LINE
  8
0
 10
-24.584
 20
-39.2061
 11
-24.6387
 21
-38.8457
  0
LINE
  8
0
 10
-24.6387
 20
-38.8457
 11
-24.6582
 21
-38.4746
  0
LINE
  8
0
 10
-24.6582
 20
-38.4746
 11
-24.6387
 21
-38.1035
  0
LINE
  8
0
 10
-24.6387
 20
-38.1035
 11
-24.584
 21
-37.7432
  0
LINE
  8
0
 10
-24.584
 20
-37.7432
 11
-24.4941
 21
-37.3945
  0
LINE
  8
0
 10
-24.4941
 20
-37.3945
 11
-24.3721
 21
-37.0615
  0
LINE
  8
0
 10
-24.3721
 20
-37.0615
 11
-24.2197
 21
-36.7441
  0
LINE
  8
0
 10
-24.2197
 20
-36.7441
 11
-24.0381
 21
-36.4443
  0
LINE
  8
0
 10
-24.0381
 20
-36.4443
 11
-23.8291
 21
-36.165
  0
LINE
  8
0
 10
-23.8291
 20
-36.165
 11
-23.5947
 21
-35.9072
  0
LINE
  8
0
 10
-23.5947
 20
-35.9072
 11
-23.3369
 21
-35.6729
  0
LINE
  8
0
 10
-23.3369
 20
-35.6729
 11
-23.0566
 21
-35.4639
  0
LINE
  8
0
 10
-23.0566
 20
-35.4639
 11
-22.7578
 21
-35.2822
  0
LINE
  8
0
 10
-22.7578
 20
-35.2822
 11
-22.4404
 21
-35.1289
  0
LINE
  8
0
 10
-22.4404
 20
-35.1289
 11
-22.1064
 21
-35.0068
  0
LINE
  8
0
 10
-22.1064
 20
-35.0068
 11
-21.7588
 21
-34.918
  0
LINE
  8
0
 10
-21.7588
 20
-34.918
 11
-21.3984
 21
-34.8623
  0
LINE
  8
0
 10
-21.3984
 20
-34.8623
 11
-21.0273
 21
-34.8438
  0
LINE
  8
0
 10
-21.0273
 20
-34.8438
 11
-20.6562
 21
-34.8623
  0
LINE
  8
0
 10
-20.6562
 20
-34.8623
 11
-20.2949
 21
-34.918
  0
LINE
  8
0
 10
-20.2949
 20
-34.918
 11
-19.9473
 21
-35.0068
  0
LINE
  8
0
 10
-19.9473
 20
-35.0068
 11
-19.6133
 21
-35.1289
  0
LINE
  8
0
 10
-19.6133
 20
-35.1289
 11
-19.2959
 21
-35.2822
  0
LINE
  8
0
 10
-19.2959
 20
-35.2822
 11
-18.9971
 21
-35.4639
  0
LINE
  8
0
 10
-18.9971
 20
-35.4639
 11
-18.7178
 21
-35.6729
  0
LINE
  8
0
 10
-18.7178
 20
-35.6729
 11
-18.46
 21
-35.9072
  0
LINE
  8
0
 10
-18.46
 20
-35.9072
 11
-18.2256
 21
-36.165
  0
LINE
  8
0
 10
-18.2256
 20
-36.165
 11
-18.0166
 21
-36.4443
  0
LINE
  8
0
 10
-18.0166
 20
-36.4443
 11
-17.834
 21
-36.7441
  0
LINE
  8
0
 10
-17.834
 20
-36.7441
 11
-17.6816
 21
-37.0615
  0
LINE
  8
0
 10
-17.6816
 20
-37.0615
 11
-17.5596
 21
-37.3945
  0
LINE
  8
0
 10
-17.5596
 20
-37.3945
 11
-17.4697
 21
-37.7432
  0
LINE
  8
0
 10
-17.4697
 20
-37.7432
 11
-17.415
 21
-38.1035
  0
LINE
  8
0
 10
-17.415
 20
-38.1035
 11
-17.3965
 21
-38.4746
  0
LINE
  8
0
 10
-17.3965
 20
-38.4746
 11
-17.415
 21
-38.8457
  0
LINE
  8
0
 10
-17.415
 20
-38.8457
 11
-17.4697
 21
-39.2061
  0
LINE
  8
0
 10
-17.4697
 20
-39.2061
 11
-17.5596
 21
-39.5547
  0
LINE
  8
0
 10
-17.5596
 20
-39.5547
 11
-17.6816
 21
-39.8877
  0
LINE
  8
0
 10
-17.6816
 20
-39.8877
 11
-17.834
 21
-40.2051
  0
LINE
  8
0
 10
-17.834
 20
-40.2051
 11
-18.0166
 21
-40.5049
  0
LINE
  8
0
 10
-18.0166
 20
-40.5049
 11
-18.2256
 21
-40.7842
  0
LINE
  8
0
 10
-18.2256
 20
-40.7842
 11
-18.46
 21
-41.042
  0
LINE
  8
0
 10
-18.46
 20
-41.042
 11
-18.7178
 21
-41.2764
  0
LINE
  8
0
 10
-18.7178
 20
-41.2764
 11
-18.9971
 21
-41.4854
  0
LINE
  8
0
 10
-18.9971
 20
-41.4854
 11
-19.2959
 21
-41.667
  0
LINE
  8
0
 10
-19.2959
 20
-41.667
 11
-19.6133
 21
-41.8203
  0
LINE
  8
0
 10
-19.6133
 20
-41.8203
 11
-19.9473
 21
-41.9424
  0
LINE
  8
0
 10
-19.9473
 20
-41.9424
 11
-20.2949
 21
-42.0312
  0
LINE
  8
0
 10
-20.2949
 20
-42.0312
 11
-20.6562
 21
-42.0869
  0
LINE
  8
0
 10
-20.6562
 20
-42.0869
 11
-21.0273
 21
-42.1055
  0
LINE
  8
0
 10
-21.0273
 20
-42.1055
 11
-21.3984
 21
-42.0869
  0
LINE
  8
0
 10
-0.404297
 20
-50.4014
 11
-0.765625
 21
-50.3467
  0
LINE
  8
0
 10
-0.765625
 20
-50.3467
 11
-1.11523
 21
-50.2568
  0
LINE
  8
0
 10
-1.11523
 20
-50.2568
 11
-1.4502
 21
-50.1338
  0
LINE
  8
0
 10
-1.4502
 20
-50.1338
 11
-1.76855
 21
-49.9805
  0
LINE
  8
0
 10
-1.76855
 20
-49.9805
 11
-2.06934
 21
-49.7979
  0
LINE
  8
0
 10
-2.06934
 20
-49.7979
 11
-2.34961
 21
-49.5879
  0
LINE
  8
0
 10
-2.34961
 20
-49.5879
 11
-2.60938
 21
-49.3525
  0
LINE
  8
0
 10
-2.60938
 20
-49.3525
 11
-2.84375
 21
-49.0938
  0
LINE
  8
0
 10
-2.84375
 20
-49.0938
 11
-3.05371
 21
-48.8135
  0
LINE
  8
0
 10
-3.05371
 20
-48.8135
 11
-3.23633
 21
-48.5127
  0
LINE
  8
0
 10
-3.23633
 20
-48.5127
 11
-3.38965
 21
-48.1943
  0
LINE
  8
0
 10
-3.38965
 20
-48.1943
 11
-3.5127
 21
-47.8594
  0
LINE
  8
0
 10
-3.5127
 20
-47.8594
 11
-3.60254
 21
-47.5098
  0
LINE
  8
0
 10
-3.60254
 20
-47.5098
 11
-3.6582
 21
-47.1484
  0
LINE
  8
0
 10
-3.6582
 20
-47.1484
 11
-3.67676
 21
-46.7754
  0
LINE
  8
0
 10
-3.67676
 20
-46.7754
 11
-3.6582
 21
-46.4023
  0
LINE
  8
0
 10
-3.6582
 20
-46.4023
 11
-3.60254
 21
-46.041
  0
LINE
  8
0
 10
-3.60254
 20
-46.041
 11
-3.5127
 21
-45.6914
  0
LINE
  8
0
 10
-3.5127
 20
-45.6914
 11
-3.38965
 21
-45.3564
  0
LINE
  8
0
 10
-3.38965
 20
-45.3564
 11
-3.23633
 21
-45.0381
  0
LINE
  8
0
 10
-3.23633
 20
-45.0381
 11
-3.05371
 21
-44.7373
  0
LINE
  8
0
 10
-3.05371
 20
-44.7373
 11
-2.84375
 21
-44.457
  0
LINE
  8
0
 10
-2.84375
 20
-44.457
 11
-2.60938
 21
-44.1982
  0
LINE
  8
0
 10
-2.60938
 20
-44.1982
 11
-2.34961
 21
-43.9629
  0
LINE
  8
0
 10
-2.34961
 20
-43.9629
 11
-2.06934
 21
-43.7529
  0
LINE
  8
0
 10
-2.06934
 20
-43.7529
 11
-1.76855
 21
-43.5703
  0
LINE
  8
0
 10
-1.76855
 20
-43.5703
 11
-1.4502
 21
-43.417
  0
LINE
  8
0
 10
-1.4502
 20
-43.417
 11
-1.11523
 21
-43.2939
  0
LINE
  8
0
 10
-1.11523
 20
-43.2939
 11
-0.765625
 21
-43.2041
  0
LINE
  8
0
 10
-0.765625
 20
-43.2041
 11
-0.404297
 21
-43.1494
  0
LINE
  8
0
 10
-0.404297
 20
-43.1494
 11
-0.03125
 21
-43.1299
  0
LINE
  8
0
 10
-0.03125
 20
-43.1299
 11
0.340805
 21
-43.1494
  0
LINE
  8
0
 10
0.340805
 20
-43.1494
 11
0.70311
 21
-43.2041
  0
LINE
  8
0
 10
0.70311
 20
-43.2041
 11
1.05272
 21
-43.2939
  0
LINE
  8
0
 10
1.05272
 20
-43.2939
 11
1.38768
 21
-43.417
  0
LINE
  8
0
 10
1.38768
 20
-43.417
 11
1.70604
 21
-43.5703
  0
LINE
  8
0
 10
1.70604
 20
-43.5703
 11
2.00682
 21
-43.7529
  0
LINE
  8
0
 10
2.00682
 20
-43.7529
 11
2.28709
 21
-43.9629
  0
LINE
  8
0
 10
2.28709
 20
-43.9629
 11
2.54588
 21
-44.1982
  0
LINE
  8
0
 10
2.54588
 20
-44.1982
 11
2.78123
 21
-44.457
  0
LINE
  8
0
 10
2.78123
 20
-44.457
 11
2.9912
 21
-44.7373
  0
LINE
  8
0
 10
2.9912
 20
-44.7373
 11
3.17381
 21
-45.0381
  0
LINE
  8
0
 10
3.17381
 20
-45.0381
 11
3.32713
 21
-45.3564
  0
LINE
  8
0
 10
3.32713
 20
-45.3564
 11
3.45018
 21
-45.6914
  0
LINE
  8
0
 10
3.45018
 20
-45.6914
 11
3.54002
 21
-46.041
  0
LINE
  8
0
 10
3.54002
 20
-46.041
 11
3.59471
 21
-46.4023
  0
LINE
  8
0
 10
3.59471
 20
-46.4023
 11
3.61327
 21
-46.7754
  0
LINE
  8
0
 10
3.61327
 20
-46.7754
 11
3.59471
 21
-47.1484
  0
LINE
  8
0
 10
3.59471
 20
-47.1484
 11
3.54002
 21
-47.5098
  0
LINE
  8
0
 10
3.54002
 20
-47.5098
 11
3.45018
 21
-47.8594
  0
LINE
  8
0
 10
3.45018
 20
-47.8594
 11
3.32713
 21
-48.1943
  0
LINE
  8
0
 10
3.32713
 20
-48.1943
 11
3.17381
 21
-48.5127
  0
LINE
  8
0
 10
3.17381
 20
-48.5127
 11
2.9912
 21
-48.8135
  0
LINE
  8
0
 10
2.9912
 20
-48.8135
 11
2.78123
 21
-49.0938
  0
LINE
  8
0
 10
2.78123
 20
-49.0938
 11
2.54588
 21
-49.3525
  0
LINE
  8
0
 10
2.54588
 20
-49.3525
 11
2.28709
 21
-49.5879
  0
LINE
  8
0
 10
2.28709
 20
-49.5879
 11
2.00682
 21
-49.7979
  0
LINE
  8
0
 10
2.00682
 20
-49.7979
 11
1.70604
 21
-49.9805
  0
LINE
  8
0
 10
1.70604
 20
-49.9805
 11
1.38768
 21
-50.1338
  0
LINE
  8
0
 10
1.38768
 20
-50.1338
 11
1.05272
 21
-50.2568
  0
LINE
  8
0
 10
1.05272
 20
-50.2568
 11
0.70311
 21
-50.3467
  0
LINE
  8
0
 10
0.70311
 20
-50.3467
 11
0.340805
 21
-50.4014
  0
LINE
  8
0
 10
0.340805
 20
-50.4014
 11
-0.03125
 21
-50.4209
  0
LINE
  8
0
 10
-0.03125
 20
-50.4209
 11
-0.404297
 21
-50.4014
  0
LINE
  8
0
 10
17.8486
 20
-51.1895
 11
17.6816
 21
-51.1641
  0
LINE
  8
0
 10
17.6816
 20
-51.1641
 11
17.5215
 21
-51.1221
  0
LINE
  8
0
 10
17.5215
 20
-51.1221
 11
17.3662
 21
-51.0654
  0
LINE
  8
0
 10
17.3662
 20
-51.0654
 11
17.2197
 21
-50.9951
  0
LINE
  8
0
 10
17.2197
 20
-50.9951
 11
17.081
 21
-50.9111
  0
LINE
  8
0
 10
17.081
 20
-50.9111
 11
16.9521
 21
-50.8145
  0
LINE
  8
0
 10
16.9521
 20
-50.8145
 11
16.832
 21
-50.7051
  0
LINE
  8
0
 10
16.832
 20
-50.7051
 11
16.7236
 21
-50.5859
  0
LINE
  8
0
 10
16.7236
 20
-50.5859
 11
16.6269
 21
-50.457
  0
LINE
  8
0
 10
16.6269
 20
-50.457
 11
16.543
 21
-50.3184
  0
LINE
  8
0
 10
16.543
 20
-50.3184
 11
16.4726
 21
-50.1709
  0
LINE
  8
0
 10
16.4726
 20
-50.1709
 11
16.416
 21
-50.0166
  0
LINE
  8
0
 10
16.416
 20
-50.0166
 11
16.374
 21
-49.8555
  0
LINE
  8
0
 10
16.374
 20
-49.8555
 11
16.3486
 21
-49.6895
  0
LINE
  8
0
 10
16.3486
 20
-49.6895
 11
16.3398
 21
-49.5176
  0
LINE
  8
0
 10
16.3398
 20
-49.5176
 11
16.3486
 21
-49.3457
  0
LINE
  8
0
 10
16.3486
 20
-49.3457
 11
16.374
 21
-49.1787
  0
LINE
  8
0
 10
16.374
 20
-49.1787
 11
16.416
 21
-49.0176
  0
LINE
  8
0
 10
16.416
 20
-49.0176
 11
16.4726
 21
-48.8633
  0
LINE
  8
0
 10
16.4726
 20
-48.8633
 11
16.543
 21
-48.7158
  0
LINE
  8
0
 10
16.543
 20
-48.7158
 11
16.6269
 21
-48.5771
  0
LINE
  8
0
 10
16.6269
 20
-48.5771
 11
16.7236
 21
-48.4482
  0
LINE
  8
0
 10
16.7236
 20
-48.4482
 11
16.832
 21
-48.3291
  0
LINE
  8
0
 10
16.832
 20
-48.3291
 11
16.9521
 21
-48.2207
  0
LINE
  8
0
 10
16.9521
 20
-48.2207
 11
17.081
 21
-48.124
  0
LINE
  8
0
 10
17.081
 20
-48.124
 11
17.2197
 21
-48.0391
  0
LINE
  8
0
 10
17.2197
 20
-48.0391
 11
17.3662
 21
-47.9688
  0
LINE
  8
0
 10
17.3662
 20
-47.9688
 11
17.5215
 21
-47.9121
  0
LINE
  8
0
 10
17.5215
 20
-47.9121
 11
17.6816
 21
-47.8711
  0
LINE
  8
0
 10
17.6816
 20
-47.8711
 11
17.8486
 21
-47.8457
  0
LINE
  8
0
 10
17.8486
 20
-47.8457
 11
18.0205
 21
-47.8369
  0
LINE
  8
0
 10
18.0205
 20
-47.8369
 11
18.1924
 21
-47.8457
  0
LINE
  8
0
 10
18.1924
 20
-47.8457
 11
18.3594
 21
-47.8711
  0
LINE
  8
0
 10
18.3594
 20
-47.8711
 11
18.5205
 21
-47.9121
  0
LINE
  8
0
 10
18.5205
 20
-47.9121
 11
18.6748
 21
-47.9688
  0
LINE
  8
0
 10
18.6748
 20
-47.9688
 11
18.8223
 21
-48.0391
  0
LINE
  8
0
 10
18.8223
 20
-48.0391
 11
18.9599
 21
-48.124
  0
LINE
  8
0
 10
18.9599
 20
-48.124
 11
19.0898
 21
-48.2207
  0
LINE
  8
0
 10
19.0898
 20
-48.2207
 11
19.209
 21
-48.3291
  0
LINE
  8
0
 10
19.209
 20
-48.3291
 11
19.3174
 21
-48.4482
  0
LINE
  8
0
 10
19.3174
 20
-48.4482
 11
19.414
 21
-48.5771
  0
LINE
  8
0
 10
19.414
 20
-48.5771
 11
19.498
 21
-48.7158
  0
LINE
  8
0
 10
19.498
 20
-48.7158
 11
19.5693
 21
-48.8633
  0
LINE
  8
0
 10
19.5693
 20
-48.8633
 11
19.626
 21
-49.0176
  0
LINE
  8
0
 10
19.626
 20
-49.0176
 11
19.667
 21
-49.1787
  0
LINE
  8
0
 10
19.667
 20
-49.1787
 11
19.6924
 21
-49.3457
  0
LINE
  8
0
 10
19.6924
 20
-49.3457
 11
19.7012
 21
-49.5176
  0
LINE
  8
0
 10
19.7012
 20
-49.5176
 11
19.6924
 21
-49.6895
  0
LINE
  8
0
 10
19.6924
 20
-49.6895
 11
19.667
 21
-49.8555
  0
LINE
  8
0
 10
19.667
 20
-49.8555
 11
19.626
 21
-50.0166
  0
LINE
  8
0
 10
19.626
 20
-50.0166
 11
19.5693
 21
-50.1709
  0
LINE
  8
0
 10
19.5693
 20
-50.1709
 11
19.498
 21
-50.3184
  0
LINE
  8
0
 10
19.498
 20
-50.3184
 11
19.414
 21
-50.457
  0
LINE
  8
0
 10
19.414
 20
-50.457
 11
19.3174
 21
-50.5859
  0
LINE
  8
0
 10
19.3174
 20
-50.5859
 11
19.209
 21
-50.7051
  0
LINE
  8
0
 10
19.209
 20
-50.7051
 11
19.0898
 21
-50.8145
  0
LINE
  8
0
 10
19.0898
 20
-50.8145
 11
18.9599
 21
-50.9111
  0
LINE
  8
0
 10
18.9599
 20
-50.9111
 11
18.8223
 21
-50.9951
  0
LINE
  8
0
 10
18.8223
 20
-50.9951
 11
18.6748
 21
-51.0654
  0
LINE
  8
0
 10
18.6748
 20
-51.0654
 11
18.5205
 21
-51.1221
  0
LINE
  8
0
 10
18.5205
 20
-51.1221
 11
18.3594
 21
-51.1641
  0
LINE
  8
0
 10
18.3594
 20
-51.1641
 11
18.1924
 21
-51.1895
  0
LINE
  8
0
 10
18.1924
 20
-51.1895
 11
18.0205
 21
-51.1973
  0
LINE
  8
0
 10
18.0205
 20
-51.1973
 11
17.8486
 21
-51.1895
  0
LINE
  8
0
 10
-18.0166
 20
-51.1895
 11
-18.1836
 21
-51.1641
  0
LINE
  8
0
 10
-18.1836
 20
-51.1641
 11
-18.3447
 21
-51.1221
  0
LINE
  8
0
 10
-18.3447
 20
-51.1221
 11
-18.499
 21
-51.0654
  0
LINE
  8
0
 10
-18.499
 20
-51.0654
 11
-18.6455
 21
-50.9951
  0
LINE
  8
0
 10
-18.6455
 20
-50.9951
 11
-18.7842
 21
-50.9111
  0
LINE
  8
0
 10
-18.7842
 20
-50.9111
 11
-18.9141
 21
-50.8145
  0
LINE
  8
0
 10
-18.9141
 20
-50.8145
 11
-19.0332
 21
-50.7051
  0
LINE
  8
0
 10
-19.0332
 20
-50.7051
 11
-19.1416
 21
-50.5859
  0
LINE
  8
0
 10
-19.1416
 20
-50.5859
 11
-19.2383
 21
-50.457
  0
LINE
  8
0
 10
-19.2383
 20
-50.457
 11
-19.3223
 21
-50.3184
  0
LINE
  8
0
 10
-19.3223
 20
-50.3184
 11
-19.3936
 21
-50.1709
  0
LINE
  8
0
 10
-19.3936
 20
-50.1709
 11
-19.4492
 21
-50.0166
  0
LINE
  8
0
 10
-19.4492
 20
-50.0166
 11
-19.4912
 21
-49.8555
  0
LINE
  8
0
 10
-19.4912
 20
-49.8555
 11
-19.5166
 21
-49.6895
  0
LINE
  8
0
 10
-19.5166
 20
-49.6895
 11
-19.5254
 21
-49.5176
  0
LINE
  8
0
 10
-19.5254
 20
-49.5176
 11
-19.5166
 21
-49.3457
  0
LINE
  8
0
 10
-19.5166
 20
-49.3457
 11
-19.4912
 21
-49.1787
  0
LINE
  8
0
 10
-19.4912
 20
-49.1787
 11
-19.4492
 21
-49.0176
  0
LINE
  8
0
 10
-19.4492
 20
-49.0176
 11
-19.3936
 21
-48.8633
  0
LINE
  8
0
 10
-19.3936
 20
-48.8633
 11
-19.3223
 21
-48.7158
  0
LINE
  8
0
 10
-19.3223
 20
-48.7158
 11
-19.2383
 21
-48.5771
  0
LINE
  8
0
 10
-19.2383
 20
-48.5771
 11
-19.1416
 21
-48.4482
  0
LINE
  8
0
 10
-19.1416
 20
-48.4482
 11
-19.0332
 21
-48.3291
  0
LINE
  8
0
 10
-19.0332
 20
-48.3291
 11
-18.9141
 21
-48.2207
  0
LINE
  8
0
 10
-18.9141
 20
-48.2207
 11
-18.7842
 21
-48.124
  0
LINE
  8
0
 10
-18.7842
 20
-48.124
 11
-18.6455
 21
-48.0391
  0
LINE
  8
0
 10
-18.6455
 20
-48.0391
 11
-18.499
 21
-47.9688
  0
LINE
  8
0
 10
-18.499
 20
-47.9688
 11
-18.3447
 21
-47.9121
  0
LINE
  8
0
 10
-18.3447
 20
-47.9121
 11
-18.1836
 21
-47.8711
  0
LINE
  8
0
 10
-18.1836
 20
-47.8711
 11
-18.0166
 21
-47.8457
  0
LINE
  8
0
 10
-18.0166
 20
-47.8457
 11
-17.8447
 21
-47.8369
  0
LINE
  8
0
 10
-17.8447
 20
-47.8369
 11
-17.6729
 21
-47.8457
  0
LINE
  8
0
 10
-17.6729
 20
-47.8457
 11
-17.5059
 21
-47.8711
  0
LINE
  8
0
 10
-17.5059
 20
-47.8711
 11
-17.3447
 21
-47.9121
  0
LINE
  8
0
 10
-17.3447
 20
-47.9121
 11
-17.1904
 21
-47.9688
  0
LINE
  8
0
 10
-17.1904
 20
-47.9688
 11
-17.0439
 21
-48.0391
  0
LINE
  8
0
 10
-17.0439
 20
-48.0391
 11
-16.9053
 21
-48.124
  0
LINE
  8
0
 10
-16.9053
 20
-48.124
 11
-16.7754
 21
-48.2207
  0
LINE
  8
0
 10
-16.7754
 20
-48.2207
 11
-16.6562
 21
-48.3291
  0
LINE
  8
0
 10
-16.6562
 20
-48.3291
 11
-16.5479
 21
-48.4482
  0
LINE
  8
0
 10
-16.5479
 20
-48.4482
 11
-16.4512
 21
-48.5771
  0
LINE
  8
0
 10
-16.4512
 20
-48.5771
 11
-16.3672
 21
-48.7158
  0
LINE
  8
0
 10
-16.3672
 20
-48.7158
 11
-16.2959
 21
-48.8633
  0
LINE
  8
0
 10
-16.2959
 20
-48.8633
 11
-16.2393
 21
-49.0176
  0
LINE
  8
0
 10
-16.2393
 20
-49.0176
 11
-16.1982
 21
-49.1787
  0
LINE
  8
0
 10
-16.1982
 20
-49.1787
 11
-16.1729
 21
-49.3457
  0
LINE
  8
0
 10
-16.1729
 20
-49.3457
 11
-16.1641
 21
-49.5176
  0
LINE
  8
0
 10
-16.1641
 20
-49.5176
 11
-16.1729
 21
-49.6895
  0
LINE
  8
0
 10
-16.1729
 20
-49.6895
 11
-16.1982
 21
-49.8555
  0
LINE
  8
0
 10
-16.1982
 20
-49.8555
 11
-16.2393
 21
-50.0166
  0
LINE
  8
0
 10
-16.2393
 20
-50.0166
 11
-16.2959
 21
-50.1709
  0
LINE
  8
0
 10
-16.2959
 20
-50.1709
 11
-16.3672
 21
-50.3184
  0
LINE
  8
0
 10
-16.3672
 20
-50.3184
 11
-16.4512
 21
-50.457
  0
LINE
  8
0
 10
-16.4512
 20
-50.457
 11
-16.5479
 21
-50.5859
  0
LINE
  8
0
 10
-16.5479
 20
-50.5859
 11
-16.6562
 21
-50.7051
  0
LINE
  8
0
 10
-16.6562
 20
-50.7051
 11
-16.7754
 21
-50.8145
  0
LINE
  8
0
 10
-16.7754
 20
-50.8145
 11
-16.9053
 21
-50.9111
  0
LINE
  8
0
 10
-16.9053
 20
-50.9111
 11
-17.0439
 21
-50.9951
  0
LINE
  8
0
 10
-17.0439
 20
-50.9951
 11
-17.1904
 21
-51.0654
  0
LINE
  8
0
 10
-17.1904
 20
-51.0654
 11
-17.3447
 21
-51.1221
  0
LINE
  8
0
 10
-17.3447
 20
-51.1221
 11
-17.5059
 21
-51.1641
  0
LINE
  8
0
 10
-17.5059
 20
-51.1641
 11
-17.6729
 21
-51.1895
  0
LINE
  8
0
 10
-17.6729
 20
-51.1895
 11
-17.8447
 21
-51.1973
  0
LINE
  8
0
 10
-17.8447
 20
-51.1973
 11
-18.0166
 21
-51.1895
  0
LINE
  8
0
 10
-18.5
 20
-171.5
 11
-14.5
 21
-171.5
  0
LINE
  8
0
 10
-14.5
 20
-171.5
 11
-14.5
 21
-174.5
  0
LINE
  8
0
 10
-14.5
 20
-174.5
 11
14.5
 21
-174.5
  0
LINE
  8
0
 10
14.5
 20
-174.5
 11
14.5
 21
-171.5
  0
LINE
  8
0
 10
14.5
 20
-171.5
 11
18.5
 21
-171.5
  0
LINE
  8
0
 10
18.5
 20
-171.5
 11
18.5
 21
-174.5
  0
LINE
  8
0
 10
18.5
 20
-174.5
 11
30.5
 21
-174.5
  0
LINE
  8
0
 10
30.5
 20
-174.5
 11
30.5
 21
-159.5
  0
LINE
  8
0
 10
30.5
 20
-159.5
 11
27.5
 21
-159.5
  0
LINE
  8
0
 10
27.5
 20
-159.5
 11
27.5
 21
-155.5
  0
LINE
  8
0
 10
27.5
 20
-155.5
 11
30.5
 21
-155.5
  0
LINE
  8
0
 10
30.5
 20
-155.5
 11
30.5
 21
-120
  0
LINE
  8
0
 10
30.5
 20
-120
 11
27.5
 21
-120
  0
LINE
  8
0
 10
27.5
 20
-120
 11
27.5
 21
-116
  0
LINE
  8
0
 10
27.5
 20
-116
 11
30.5
 21
-116
  0
LINE
  8
0
 10
30.5
 20
-116
 11
30.5
 21
-80.5
  0
LINE
  8
0
 10
30.5
 20
-80.5
 11
27.5
 21
-80.5
  0
LINE
  8
0
 10
27.5
 20
-80.5
 11
27.5
 21
-76.5
  0
LINE
  8
0
 10
27.5
 20
-76.5
 11
30.5
 21
-76.5
  0
LINE
  8
0
 10
30.5
 20
-76.5
 11
30.5
 21
-61.5
  0
LINE
  8
0
 10
30.5
 20
-61.5
 11
18.5
 21
-61.5
  0
LINE
  8
0
 10
18.5
 20
-61.5
 11
18.5
 21
-64.5
  0
LINE
  8
0
 10
18.5
 20
-64.5
 11
14.5
 21
-64.5
  0
LINE
  8
0
 10
14.5
 20
-64.5
 11
14.5
 21
-61.5
  0
LINE
  8
0
 10
14.5
 20
-61.5
 11
-14.5
 21
-61.5
  0
LINE
  8
0
 10
-14.5
 20
-61.5
 11
-14.5
 21
-64.5
  0
LINE
  8
0
 10
-14.5
 20
-64.5
 11
-18.5
 21
-64.5
  0
LINE
  8
0
 10
-18.5
 20
-64.5
 11
-18.5
 21
-61.5
  0
LINE
  8
0
 10
-18.5
 20
-61.5
 11
-30.5
 21
-61.5
  0
LINE
  8
0
 10
-30.5
 20
-61.5
 11
-30.5
 21
-76.5
  0
LINE
  8
0
 10
-30.5
 20
-76.5
 11
-27.5
 21
-76.5
  0
LINE
  8
0
 10
-27.5
 20
-76.5
 11
-27.5
 21
-80.5
  0
LINE
  8
0
 10
-27.5
 20
-80.5
 11
-30.5
 21
-80.5
  0
LINE
  8
0
 10
-30.5
 20
-80.5
 11
-30.5
 21
-116
  0
LINE
  8
0
 10
-30.5
 20
-116
 11
-27.5
 21
-116
  0
LINE
  8
0
 10
-27.5
 20
-116
 11
-27.5
 21
-120
  0
LINE
  8
0
 10
-27.5
 20
-120
 11
-30.5
 21
-120
  0
LINE
  8
0
 10
-30.5
 20
-120
 11
-30.5
 21
-155.5
  0
LINE
  8
0
 10
-30.5
 20
-155.5
 11
-27.5
 21
-155.5
  0
LINE
  8
0
 10
-27.5
 20
-155.5
 11
-27.5
 21
-159.5
  0
LINE
  8
0
 10
-27.5
 20
-159.5
 11
-30.5
 21
-159.5
  0
LINE
  8
0
 10
-30.5
 20
-159.5
 11
-30.5
 21
-174.5
  0
LINE
  8
0
 10
-30.5
 20
-174.5
 11
-18.5
 21
-174.5
  0
LINE
  8
0
 10
-18.5
 20
-174.5
 11
-18.5
 21
-171.5
  0
LINE
  8
0
 10
-14.5
 20
-208.5
 11
14.5
 21
-208.5
  0
LINE
  8
0
 10
14.5
 20
-208.5
 11
14.5
 21
-211.5
  0
LINE
  8
0
 10
14.5
 20
-211.5
 11
18.5
 21
-211.5
  0
LINE
  8
0
 10
18.5
 20
-211.5
 11
18.5
 21
-208.5
  0
LINE
  8
0
 10
18.5
 20
-208.5
 11
30.5
 21
-208.5
  0
LINE
  8
0
 10
30.5
 20
-208.5
 11
30.5
 21
-198.5
  0
LINE
  8
0
 10
30.5
 20
-198.5
 11
27.5
 21
-198.5
  0
LINE
  8
0
 10
27.5
 20
-198.5
 11
27.5
 21
-192.5
  0
LINE
  8
0
 10
27.5
 20
-192.5
 11
30.5
 21
-192.5
  0
LINE
  8
0
 10
30.5
 20
-192.5
 11
30.5
 21
-182.5
  0
LINE
  8
0
 10
30.5
 20
-182.5
 11
18.5
 21
-182.5
  0
LINE
  8
0
 10
18.5
 20
-182.5
 11
18.5
 21
-179.5
  0
LINE
  8
0
 10
18.5
 20
-179.5
 11
14.5
 21
-179.5
  0
LINE
  8
0
 10
14.5
 20
-179.5
 11
14.5
 21
-182.5
  0
LINE
  8
0
 10
14.5
 20
-182.5
 11
-14.5
 21
-182.5
  0
LINE
  8
0
 10
-14.5
 20
-182.5
 11
-14.5
 21
-179.5
  0
LINE
  8
0
 10
-14.5
 20
-179.5
 11
-18.5
 21
-179.5
  0
LINE
  8
0
 10
-18.5
 20
-179.5
 11
-18.5
 21
-182.5
  0
LINE
  8
0
 10
-18.5
 20
-182.5
 11
-30.5
 21
-182.5
  0
LINE
  8
0
 10
-30.5
 20
-182.5
 11
-30.5
 21
-192.5
  0
LINE
  8
0
 10
-30.5
 20
-192.5
 11
-27.5
 21
-192.5
  0
LINE
  8
0
 10
-27.5
 20
-192.5
 11
-27.5
 21
-198.5
  0
LINE
  8
0
 10
-27.5
 20
-198.5
 11
-30.5
 21
-198.5
  0
LINE
  8
0
 10
-30.5
 20
-198.5
 11
-30.5
 21
-208.5
  0
LINE
  8
0
 10
-30.5
 20
-208.5
 11
-18.5
 21
-208.5
  0
LINE
  8
0
 10
-18.5
 20
-208.5
 11
-18.5
 21
-211.5
  0
LINE
  8
0
 10
-18.5
 20
-211.5
 11
-14.5
 21
-211.5
  0
LINE
  8
0
 10
-14.5
 20
-211.5
 11
-14.5
 21
-208.5
  0
LINE
  8
0
 10
-14.5
 20
-245.5
 11
14.5
 21
-245.5
  0
LINE
  8
0
 10
14.5
 20
-245.5
 11
14.5
 21
-248.5
  0
LINE
  8
0
 10
14.5
 20
-248.5
 11
18.5
 21
-248.5
  0
LINE
  8
0
 10
18.5
 20
-248.5
 11
18.5
 21
-245.5
  0
LINE
  8
0
 10
18.5
 20
-245.5
 11
30.5
 21
-245.5
  0
LINE
  8
0
 10
30.5
 20
-245.5
 11
30.5
 21
-235.5
  0
LINE
  8
0
 10
30.5
 20
-235.5
 11
27.5
 21
-235.5
  0
LINE
  8
0
 10
27.5
 20
-235.5
 11
27.5
 21
-229.5
  0
LINE
  8
0
 10
27.5
 20
-229.5
 11
30.5
 21
-229.5
  0
LINE
  8
0
 10
30.5
 20
-229.5
 11
30.5
 21
-219.5
  0
LINE
  8
0
 10
30.5
 20
-219.5
 11
18.5
 21
-219.5
  0
LINE
  8
0
 10
18.5
 20
-219.5
 11
18.5
 21
-216.5
  0
LINE
  8
0
 10
18.5
 20
-216.5
 11
14.5
 21
-216.5
  0
LINE
  8
0
 10
14.5
 20
-216.5
 11
14.5
 21
-219.5
  0
LINE
  8
0
 10
14.5
 20
-219.5
 11
5.79948
 21
-219.5
  0
LINE
  8
0
 10
5.79948
 20
-219.5
 11
4.96484
 21
-224.974
  0
LINE
  8
0
 10
4.96484
 20
-224.974
 11
-4.6377
 21
-224.974
  0
LINE
  8
0
 10
-4.6377
 20
-224.974
 11
-5.77626
 21
-219.5
  0
LINE
  8
0
 10
-5.77626
 20
-219.5
 11
-14.5
 21
-219.5
  0
LINE
  8
0
 10
-14.5
 20
-219.5
 11
-14.5
 21
-216.5
  0
LINE
  8
0
 10
-14.5
 20
-216.5
 11
-18.5
 21
-216.5
  0
LINE
  8
0
 10
-18.5
 20
-216.5
 11
-18.5
 21
-219.5
  0
LINE
  8
0
 10
-18.5
 20
-219.5
 11
-30.5
 21
-219.5
  0
LINE
  8
0
 10
-30.5
 20
-219.5
 11
-30.5
 21
-229.5
  0
LINE
  8
0
 10
-30.5
 20
-229.5
 11
-27.5
 21
-229.5
  0
LINE
  8
0
 10
-27.5
 20
-229.5
 11
-27.5
 21
-235.5
  0
LINE
  8
0
 10
-27.5
 20
-235.5
 11
-30.5
 21
-235.5
  0
LINE
  8
0
 10
-30.5
 20
-235.5
 11
-30.5
 21
-245.5
  0
LINE
  8
0
 10
-30.5
 20
-245.5
 11
-18.5
 21
-245.5
  0
LINE
  8
0
 10
-18.5
 20
-245.5
 11
-18.5
 21
-248.5
  0
LINE
  8
0
 10
-18.5
 20
-248.5
 11
-14.5
 21
-248.5
  0
LINE
  8
0
 10
-14.5
 20
-248.5
 11
-14.5
 21
-245.5
  0
LINE
  8
0
 10
-37.5
 20
-282.5
 11
-2
 21
-282.5
  0
LINE
  8
0
 10
-2
 20
-282.5
 11
-2
 21
-285.5
  0
LINE
  8
0
 10
-2
 20
-285.5
 11
2
 21
-285.5
  0
LINE
  8
0
 10
2
 20
-285.5
 11
2
 21
-282.5
  0
LINE
  8
0
 10
2
 20
-282.5
 11
37.5
 21
-282.5
  0
LINE
  8
0
 10
37.5
 20
-282.5
 11
37.5
 21
-285.5
  0
LINE
  8
0
 10
37.5
 20
-285.5
 11
41.5
 21
-285.5
  0
LINE
  8
0
 10
41.5
 20
-285.5
 11
41.5
 21
-282.5
  0
LINE
  8
0
 10
41.5
 20
-282.5
 11
53.5
 21
-282.5
  0
LINE
  8
0
 10
53.5
 20
-282.5
 11
53.5
 21
-272.5
  0
LINE
  8
0
 10
53.5
 20
-272.5
 11
56.5
 21
-272.5
  0
LINE
  8
0
 10
56.5
 20
-272.5
 11
56.5
 21
-266.5
  0
LINE
  8
0
 10
56.5
 20
-266.5
 11
53.5
 21
-266.5
  0
LINE
  8
0
 10
53.5
 20
-266.5
 11
53.5
 21
-256.5
  0
LINE
  8
0
 10
53.5
 20
-256.5
 11
41.5
 21
-256.5
  0
LINE
  8
0
 10
41.5
 20
-256.5
 11
41.5
 21
-253.5
  0
LINE
  8
0
 10
41.5
 20
-253.5
 11
37.5
 21
-253.5
  0
LINE
  8
0
 10
37.5
 20
-253.5
 11
37.5
 21
-256.5
  0
LINE
  8
0
 10
37.5
 20
-256.5
 11
2
 21
-256.5
  0
LINE
  8
0
 10
2
 20
-256.5
 11
2
 21
-253.5
  0
LINE
  8
0
 10
2
 20
-253.5
 11
-2
 21
-253.5
  0
LINE
  8
0
 10
-2
 20
-253.5
 11
-2
 21
-256.5
  0
LINE
  8
0
 10
-2
 20
-256.5
 11
-37.5
 21
-256.5
  0
LINE
  8
0
 10
-37.5
 20
-256.5
 11
-37.5
 21
-253.5
  0
LINE
  8
0
 10
-37.5
 20
-253.5
 11
-41.5
 21
-253.5
  0
LINE
  8
0
 10
-41.5
 20
-253.5
 11
-41.5
 21
-256.5
  0
LINE
  8
0
 10
-41.5
 20
-256.5
 11
-53.5
 21
-256.5
  0
LINE
  8
0
 10
-53.5
 20
-256.5
 11
-53.5
 21
-266.5
  0
LINE
  8
0
 10
-53.5
 20
-266.5
 11
-56.5
 21
-266.5
  0
LINE
  8
0
 10
-56.5
 20
-266.5
 11
-56.5
 21
-272.5
  0
LINE
  8
0
 10
-56.5
 20
-272.5
 11
-53.5
 21
-272.5
  0
LINE
  8
0
 10
-53.5
 20
-272.5
 11
-53.5
 21
-282.5
  0
LINE
  8
0
 10
-53.5
 20
-282.5
 11
-41.5
 21
-282.5
  0
LINE
  8
0
 10
-41.5
 20
-282.5
 11
-41.5
 21
-285.5
  0
LINE
  8
0
 10
-41.5
 20
-285.5
 11
-37.5
 21
-285.5
  0
LINE
  8
0
 10
-37.5
 20
-285.5
 11
-37.5
 21
-282.5
  0
LINE
  8
0
 10
-17.1963
 20
-276.4
 11
-17.9219
 21
-276.176
  0
LINE
  8
0
 10
-17.9219
 20
-276.176
 11
-18.5781
 21
-275.819
  0
LINE
  8
0
 10
-18.5781
 20
-275.819
 11
-19.1504
 21
-275.348
  0
LINE
  8
0
 10
-19.1504
 20
-275.348
 11
-19.6221
 21
-274.775
  0
LINE
  8
0
 10
-19.6221
 20
-274.775
 11
-19.9785
 21
-274.119
  0
LINE
  8
0
 10
-19.9785
 20
-274.119
 11
-20.2041
 21
-273.394
  0
LINE
  8
0
 10
-20.2041
 20
-273.394
 11
-20.2822
 21
-272.614
  0
LINE
  8
0
 10
-20.2822
 20
-272.614
 11
-20.2041
 21
-271.836
  0
LINE
  8
0
 10
-20.2041
 20
-271.836
 11
-19.9785
 21
-271.11
  0
LINE
  8
0
 10
-19.9785
 20
-271.11
 11
-19.6221
 21
-270.454
  0
LINE
  8
0
 10
-19.6221
 20
-270.454
 11
-19.1504
 21
-269.882
  0
LINE
  8
0
 10
-19.1504
 20
-269.882
 11
-18.5781
 21
-269.41
  0
LINE
  8
0
 10
-18.5781
 20
-269.41
 11
-17.9219
 21
-269.054
  0
LINE
  8
0
 10
-17.9219
 20
-269.054
 11
-17.1963
 21
-268.828
  0
LINE
  8
0
 10
-17.1963
 20
-268.828
 11
-16.418
 21
-268.75
  0
LINE
  8
0
 10
-16.418
 20
-268.75
 11
-15.6387
 21
-268.828
  0
LINE
  8
0
 10
-15.6387
 20
-268.828
 11
-14.9131
 21
-269.054
  0
LINE
  8
0
 10
-14.9131
 20
-269.054
 11
-14.2568
 21
-269.41
  0
LINE
  8
0
 10
-14.2568
 20
-269.41
 11
-13.6846
 21
-269.882
  0
LINE
  8
0
 10
-13.6846
 20
-269.882
 11
-13.2129
 21
-270.454
  0
LINE
  8
0
 10
-13.2129
 20
-270.454
 11
-12.8564
 21
-271.11
  0
LINE
  8
0
 10
-12.8564
 20
-271.11
 11
-12.6309
 21
-271.836
  0
LINE
  8
0
 10
-12.6309
 20
-271.836
 11
-12.5527
 21
-272.614
  0
LINE
  8
0
 10
-12.5527
 20
-272.614
 11
-12.6309
 21
-273.394
  0
LINE
  8
0
 10
-12.6309
 20
-273.394
 11
-12.8564
 21
-274.119
  0
LINE
  8
0
 10
-12.8564
 20
-274.119
 11
-13.2129
 21
-274.775
  0
LINE
  8
0
 10
-13.2129
 20
-274.775
 11
-13.6846
 21
-275.348
  0
LINE
  8
0
 10
-13.6846
 20
-275.348
 11
-14.2568
 21
-275.819
  0
LINE
  8
0
 10
-14.2568
 20
-275.819
 11
-14.9131
 21
-276.176
  0
LINE
  8
0
 10
-14.9131
 20
-276.176
 11
-15.6387
 21
-276.4
  0
LINE
  8
0
 10
-15.6387
 20
-276.4
 11
-16.418
 21
-276.479
  0
LINE
  8
0
 10
-16.418
 20
-276.479
 11
-17.1963
 21
-276.4
  0
LINE
  8
0
 10
-37.5
 20
-319.5
 11
-2
 21
-319.5
  0
LINE
  8
0
 10
-2
 20
-319.5
 11
-2
 21
-322.5
  0
LINE
  8
0
 10
-2
 20
-322.5
 11
2
 21
-322.5
  0
LINE
  8
0
 10
2
 20
-322.5
 11
2
 21
-319.5
  0
LINE
  8
0
 10
2
 20
-319.5
 11
37.5
 21
-319.5
  0
LINE
  8
0
 10
37.5
 20
-319.5
 11
37.5
 21
-322.5
  0
LINE
  8
0
 10
37.5
 20
-322.5
 11
41.5
 21
-322.5
  0
LINE
  8
0
 10
41.5
 20
-322.5
 11
41.5
 21
-319.5
  0
LINE
  8
0
 10
41.5
 20
-319.5
 11
53.5
 21
-319.5
  0
LINE
  8
0
 10
53.5
 20
-319.5
 11
53.5
 21
-309.5
  0
LINE
  8
0
 10
53.5
 20
-309.5
 11
56.5
 21
-309.5
  0
LINE
  8
0
 10
56.5
 20
-309.5
 11
56.5
 21
-303.5
  0
LINE
  8
0
 10
56.5
 20
-303.5
 11
53.5
 21
-303.5
  0
LINE
  8
0
 10
53.5
 20
-303.5
 11
53.5
 21
-293.5
  0
LINE
  8
0
 10
53.5
 20
-293.5
 11
41.5
 21
-293.5
  0
LINE
  8
0
 10
41.5
 20
-293.5
 11
41.5
 21
-290.5
  0
LINE
  8
0
 10
41.5
 20
-290.5
 11
37.5
 21
-290.5
  0
LINE
  8
0
 10
37.5
 20
-290.5
 11
37.5
 21
-293.5
  0
LINE
  8
0
 10
37.5
 20
-293.5
 11
2
 21
-293.5
  0
LINE
  8
0
 10
2
 20
-293.5
 11
2
 21
-290.5
  0
LINE
  8
0
 10
2
 20
-290.5
 11
-2
 21
-290.5
  0
LINE
  8
0
 10
-2
 20
-290.5
 11
-2
 21
-293.5
  0
LINE
  8
0
 10
-2
 20
-293.5
 11
-37.5
 21
-293.5
  0
LINE
  8
0
 10
-37.5
 20
-293.5
 11
-37.5
 21
-290.5
  0
LINE
  8
0
 10
-37.5
 20
-290.5
 11
-41.5
 21
-290.5
  0
LINE
  8
0
 10
-41.5
 20
-290.5
 11
-41.5
 21
-293.5
  0
LINE
  8
0
 10
-41.5
 20
-293.5
 11
-53.5
 21
-293.5
  0
LINE
  8
0
 10
-53.5
 20
-293.5
 11
-53.5
 21
-303.5
  0
LINE
  8
0
 10
-53.5
 20
-303.5
 11
-56.5
 21
-303.5
  0
LINE
  8
0
 10
-56.5
 20
-303.5
 11
-56.5
 21
-309.5
  0
LINE
  8
0
 10
-56.5
 20
-309.5
 11
-53.5
 21
-309.5
  0
LINE
  8
0
 10
-53.5
 20
-309.5
 11
-53.5
 21
-319.5
  0
LINE
  8
0
 10
-53.5
 20
-319.5
 11
-41.5
 21
-319.5
  0
LINE
  8
0
 10
-41.5
 20
-319.5
 11
-41.5
 21
-322.5
  0
LINE
  8
0
 10
-41.5
 20
-322.5
 11
-37.5
 21
-322.5
  0
LINE
  8
0
 10
-37.5
 20
-322.5
 11
-37.5
 21
-319.5
  0
LINE
  8
0
 10
-17.1963
 20
-306.965
 11
-17.9219
 21
-306.739
  0
LINE
  8
0
 10
-17.9219
 20
-306.739
 11
-18.5781
 21
-306.383
  0
LINE
  8
0
 10
-18.5781
 20
-306.383
 11
-19.1504
 21
-305.911
  0
LINE
  8
0
 10
-19.1504
 20
-305.911
 11
-19.6221
 21
-305.339
  0
LINE
  8
0
 10
-19.6221
 20
-305.339
 11
-19.9785
 21
-304.683
  0
LINE
  8
0
 10
-19.9785
 20
-304.683
 11
-20.2041
 21
-303.957
  0
LINE
  8
0
 10
-20.2041
 20
-303.957
 11
-20.2822
 21
-303.178
  0
LINE
  8
0
 10
-20.2822
 20
-303.178
 11
-20.2041
 21
-302.399
  0
LINE
  8
0
 10
-20.2041
 20
-302.399
 11
-19.9785
 21
-301.674
  0
LINE
  8
0
 10
-19.9785
 20
-301.674
 11
-19.6221
 21
-301.018
  0
LINE
  8
0
 10
-19.6221
 20
-301.018
 11
-19.1504
 21
-300.445
  0
LINE
  8
0
 10
-19.1504
 20
-300.445
 11
-18.5781
 21
-299.974
  0
LINE
  8
0
 10
-18.5781
 20
-299.974
 11
-17.9219
 21
-299.617
  0
LINE
  8
0
 10
-17.9219
 20
-299.617
 11
-17.1963
 21
-299.392
  0
LINE
  8
0
 10
-17.1963
 20
-299.392
 11
-16.418
 21
-299.313
  0
LINE
  8
0
 10
-16.418
 20
-299.313
 11
-15.6387
 21
-299.392
  0
LINE
  8
0
 10
-15.6387
 20
-299.392
 11
-14.9131
 21
-299.617
  0
LINE
  8
0
 10
-14.9131
 20
-299.617
 11
-14.2568
 21
-299.974
  0
LINE
  8
0
 10
-14.2568
 20
-299.974
 11
-13.6846
 21
-300.445
  0
LINE
  8
0
 10
-13.6846
 20
-300.445
 11
-13.2129
 21
-301.018
  0
LINE
  8
0
 10
-13.2129
 20
-301.018
 11
-12.8564
 21
-301.674
  0
LINE
  8
0
 10
-12.8564
 20
-301.674
 11
-12.6309
 21
-302.399
  0
LINE
  8
0
 10
-12.6309
 20
-302.399
 11
-12.5527
 21
-303.178
  0
LINE
  8
0
 10
-12.5527
 20
-303.178
 11
-12.6309
 21
-303.957
  0
LINE
  8
0
 10
-12.6309
 20
-303.957
 11
-12.8564
 21
-304.683
  0
LINE
  8
0
 10
-12.8564
 20
-304.683
 11
-13.2129
 21
-305.339
  0
LINE
  8
0
 10
-13.2129
 20
-305.339
 11
-13.6846
 21
-305.911
  0
LINE
  8
0
 10
-13.6846
 20
-305.911
 11
-14.2568
 21
-306.383
  0
LINE
  8
0
 10
-14.2568
 20
-306.383
 11
-14.9131
 21
-306.739
  0
LINE
  8
0
 10
-14.9131
 20
-306.739
 11
-15.6387
 21
-306.965
  0
LINE
  8
0
 10
-15.6387
 20
-306.965
 11
-16.418
 21
-307.043
  0
LINE
  8
0
 10
-16.418
 20
-307.043
 11
-17.1963
 21
-306.965
  0
ENDSEC
  0
SECTION
  2
OBJECTS
  0
DICTIONARY
  0
ENDSEC
  0
EOF
