  0
SECTION
  2
BLOCKS
  0
ENDSEC
  0
SECTION
  2
ENTITIES
  0
LINE
  8
0
 10
17.5
 20
-53.5
 11
22.5
 21
-53.5
  0
LINE
  8
0
 10
22.5
 20
-53.5
 11
22.5
 21
-56.5
  0
LINE
  8
0
 10
22.5
 20
-56.5
 11
30.5
 21
-56.5
  0
LINE
  8
0
 10
30.5
 20
-56.5
 11
30.5
 21
-43.5
  0
LINE
  8
0
 10
30.5
 20
-43.5
 11
27.5
 21
-43.5
  0
LINE
  8
0
 10
27.5
 20
-43.5
 11
27.5
 21
-38.5
  0
LINE
  8
0
 10
27.5
 20
-38.5
 11
30.5
 21
-38.5
  0
LINE
  8
0
 10
30.5
 20
-38.5
 11
30.5
 21
-2.5
  0
LINE
  8
0
 10
30.5
 20
-2.5
 11
27.5
 21
-2.5
  0
LINE
  8
0
 10
27.5
 20
-2.5
 11
27.5
 21
2.49998
  0
LINE
  8
0
 10
27.5
 20
2.49998
 11
30.5
 21
2.49998
  0
LINE
  8
0
 10
30.5
 20
2.49998
 11
30.5
 21
38.5
  0
LINE
  8
0
 10
30.5
 20
38.5
 11
27.5
 21
38.5
  0
LINE
  8
0
 10
27.5
 20
38.5
 11
27.5
 21
43.5
  0
LINE
  8
0
 10
27.5
 20
43.5
 11
30.5
 21
43.5
  0
LINE
  8
0
 10
30.5
 20
43.5
 11
30.5
 21
56.5
  0
LINE
  8
0
 10
30.5
 20
56.5
 11
22.5
 21
56.5
  0
LINE
  8
0
 10
22.5
 20
56.5
 11
22.5
 21
53.5
  0
LINE
  8
0
 10
22.5
 20
53.5
 11
17.5
 21
53.5
  0
LINE
  8
0
 10
17.5
 20
53.5
 11
17.5
 21
56.5
  0
LINE
  8
0
 10
17.5
 20
56.5
 11
-17.5
 21
56.5
  0
LINE
  8
0
 10
-17.5
 20
56.5
 11
-17.5
 21
53.5
  0
LINE
  8
0
 10
-17.5
 20
53.5
 11
-22.5
 21
53.5
  0
LINE
  8
0
 10
-22.5
 20
53.5
 11
-22.5
 21
56.5
  0
LINE
  8
0
 10
-22.5
 20
56.5
 11
-30.5
 21
56.5
  0
LINE
  8
0
 10
-30.5
 20
56.5
 11
-30.5
 21
43.5
  0
LINE
  8
0
 10
-30.5
 20
43.5
 11
-27.5
 21
43.5
  0
LINE
  8
0
 10
-27.5
 20
43.5
 11
-27.5
 21
38.5
  0
LINE
  8
0
 10
-27.5
 20
38.5
 11
-30.5
 21
38.5
  0
LINE
  8
0
 10
-30.5
 20
38.5
 11
-30.5
 21
2.5
  0
LINE
  8
0
 10
-30.5
 20
2.5
 11
-27.5
 21
2.5
  0
LINE
  8
0
 10
-27.5
 20
2.5
 11
-27.5
 21
-2.49998
  0
LINE
  8
0
 10
-27.5
 20
-2.49998
 11
-30.5
 21
-2.49998
  0
LINE
  8
0
 10
-30.5
 20
-2.49998
 11
-30.5
 21
-38.5
  0
LINE
  8
0
 10
-30.5
 20
-38.5
 11
-27.5
 21
-38.5
  0
LINE
  8
0
 10
-27.5
 20
-38.5
 11
-27.5
 21
-43.5
  0
LINE
  8
0
 10
-27.5
 20
-43.5
 11
-30.5
 21
-43.5
  0
LINE
  8
0
 10
-30.5
 20
-43.5
 11
-30.5
 21
-56.5
  0
LINE
  8
0
 10
-30.5
 20
-56.5
 11
-22.5
 21
-56.5
  0
LINE
  8
0
 10
-22.5
 20
-56.5
 11
-22.5
 21
-53.5
  0
LINE
  8
0
 10
-22.5
 20
-53.5
 11
-17.5
 21
-53.5
  0
LINE
  8
0
 10
-17.5
 20
-53.5
 11
-17.5
 21
-56.5
  0
LINE
  8
0
 10
-17.5
 20
-56.5
 11
17.5
 21
-56.5
  0
LINE
  8
0
 10
17.5
 20
-56.5
 11
17.5
 21
-53.5
  0
LINE
  8
0
 10
-17.4736
 20
3.3125
 11
-17.9092
 21
3.37891
  0
LINE
  8
0
 10
-17.9092
 20
3.37891
 11
-18.3301
 21
3.48633
  0
LINE
  8
0
 10
-18.3301
 20
3.48633
 11
-18.7324
 21
3.63379
  0
LINE
  8
0
 10
-18.7324
 20
3.63379
 11
-19.1162
 21
3.81934
  0
LINE
  8
0
 10
-19.1162
 20
3.81934
 11
-19.4775
 21
4.03809
  0
LINE
  8
0
 10
-19.4775
 20
4.03809
 11
-19.8145
 21
4.29102
  0
LINE
  8
0
 10
-19.8145
 20
4.29102
 11
-20.126
 21
4.57422
  0
LINE
  8
0
 10
-20.126
 20
4.57422
 11
-20.4092
 21
4.88477
  0
LINE
  8
0
 10
-20.4092
 20
4.88477
 11
-20.6611
 21
5.22266
  0
LINE
  8
0
 10
-20.6611
 20
5.22266
 11
-20.8809
 21
5.58398
  0
LINE
  8
0
 10
-20.8809
 20
5.58398
 11
-21.0654
 21
5.96777
  0
LINE
  8
0
 10
-21.0654
 20
5.96777
 11
-21.2129
 21
6.37012
  0
LINE
  8
0
 10
-21.2129
 20
6.37012
 11
-21.3213
 21
6.79102
  0
LINE
  8
0
 10
-21.3213
 20
6.79102
 11
-21.3877
 21
7.22559
  0
LINE
  8
0
 10
-21.3877
 20
7.22559
 11
-21.4102
 21
7.67383
  0
LINE
  8
0
 10
-21.4102
 20
7.67383
 11
-21.3877
 21
8.12207
  0
LINE
  8
0
 10
-21.3877
 20
8.12207
 11
-21.3213
 21
8.55762
  0
LINE
  8
0
 10
-21.3213
 20
8.55762
 11
-21.2129
 21
8.97754
  0
LINE
  8
0
 10
-21.2129
 20
8.97754
 11
-21.0654
 21
9.38086
  0
LINE
  8
0
 10
-21.0654
 20
9.38086
 11
-20.8809
 21
9.76367
  0
LINE
  8
0
 10
-20.8809
 20
9.76367
 11
-20.6611
 21
10.126
  0
LINE
  8
0
 10
-20.6611
 20
10.126
 11
-20.4092
 21
10.4629
  0
LINE
  8
0
 10
-20.4092
 20
10.4629
 11
-20.126
 21
10.7744
  0
LINE
  8
0
 10
-20.126
 20
10.7744
 11
-19.8145
 21
11.0576
  0
LINE
  8
0
 10
-19.8145
 20
11.0576
 11
-19.4775
 21
11.3096
  0
LINE
  8
0
 10
-19.4775
 20
11.3096
 11
-19.1162
 21
11.5293
  0
LINE
  8
0
 10
-19.1162
 20
11.5293
 11
-18.7324
 21
11.7139
  0
LINE
  8
0
 10
-18.7324
 20
11.7139
 11
-18.3301
 21
11.8613
  0
LINE
  8
0
 10
-18.3301
 20
11.8613
 11
-17.9092
 21
11.9697
  0
LINE
  8
0
 10
-17.9092
 20
11.9697
 11
-17.4736
 21
12.0361
  0
LINE
  8
0
 10
-17.4736
 20
12.0361
 11
-17.0254
 21
12.0586
  0
LINE
  8
0
 10
-17.0254
 20
12.0586
 11
-16.5771
 21
12.0361
  0
LINE
  8
0
 10
-16.5771
 20
12.0361
 11
-16.1426
 21
11.9697
  0
LINE
  8
0
 10
-16.1426
 20
11.9697
 11
-15.7217
 21
11.8613
  0
LINE
  8
0
 10
-15.7217
 20
11.8613
 11
-15.3193
 21
11.7139
  0
LINE
  8
0
 10
-15.3193
 20
11.7139
 11
-14.9355
 21
11.5293
  0
LINE
  8
0
 10
-14.9355
 20
11.5293
 11
-14.5742
 21
11.3096
  0
LINE
  8
0
 10
-14.5742
 20
11.3096
 11
-14.2373
 21
11.0576
  0
LINE
  8
0
 10
-14.2373
 20
11.0576
 11
-13.9258
 21
10.7744
  0
LINE
  8
0
 10
-13.9258
 20
10.7744
 11
-13.6426
 21
10.4629
  0
LINE
  8
0
 10
-13.6426
 20
10.4629
 11
-13.3896
 21
10.126
  0
LINE
  8
0
 10
-13.3896
 20
10.126
 11
-13.1709
 21
9.76367
  0
LINE
  8
0
 10
-13.1709
 20
9.76367
 11
-12.9863
 21
9.38086
  0
LINE
  8
0
 10
-12.9863
 20
9.38086
 11
-12.8389
 21
8.97754
  0
LINE
  8
0
 10
-12.8389
 20
8.97754
 11
-12.7305
 21
8.55762
  0
LINE
  8
0
 10
-12.7305
 20
8.55762
 11
-12.664
 21
8.12207
  0
LINE
  8
0
 10
-12.664
 20
8.12207
 11
-12.6416
 21
7.67383
  0
LINE
  8
0
 10
-12.6416
 20
7.67383
 11
-12.6641
 21
7.22559
  0
LINE
  8
0
 10
-12.6641
 20
7.22559
 11
-12.7305
 21
6.79102
  0
LINE
  8
0
 10
-12.7305
 20
6.79102
 11
-12.8389
 21
6.37012
  0
LINE
  8
0
 10
-12.8389
 20
6.37012
 11
-12.9863
 21
5.96777
  0
LINE
  8
0
 10
-12.9863
 20
5.96777
 11
-13.1709
 21
5.58398
  0
LINE
  8
0
 10
-13.1709
 20
5.58398
 11
-13.3896
 21
5.22266
  0
LINE
  8
0
 10
-13.3896
 20
5.22266
 11
-13.6426
 21
4.88477
  0
LINE
  8
0
 10
-13.6426
 20
4.88477
 11
-13.9258
 21
4.57422
  0
LINE
  8
0
 10
-13.9258
 20
4.57422
 11
-14.2373
 21
4.29102
  0
LINE
  8
0
 10
-14.2373
 20
4.29102
 11
-14.5742
 21
4.03809
  0
LINE
  8
0
 10
-14.5742
 20
4.03809
 11
-14.9355
 21
3.81934
  0
LINE
  8
0
 10
-14.9355
 20
3.81934
 11
-15.3193
 21
3.63379
  0
LINE
  8
0
 10
-15.3193
 20
3.63379
 11
-15.7217
 21
3.48633
  0
LINE
  8
0
 10
-15.7217
 20
3.48633
 11
-16.1426
 21
3.37891
  0
LINE
  8
0
 10
-16.1426
 20
3.37891
 11
-16.5771
 21
3.3125
  0
LINE
  8
0
 10
-16.5771
 20
3.3125
 11
-17.0254
 21
3.29004
  0
LINE
  8
0
 10
-17.0254
 20
3.29004
 11
-17.4736
 21
3.3125
  0
LINE
  8
0
 10
16.9629
 20
3.31248
 11
16.5273
 21
3.37889
  0
LINE
  8
0
 10
16.5273
 20
3.37889
 11
16.1074
 21
3.48631
  0
LINE
  8
0
 10
16.1074
 20
3.48631
 11
15.7041
 21
3.63377
  0
LINE
  8
0
 10
15.7041
 20
3.63377
 11
15.3213
 21
3.81932
  0
LINE
  8
0
 10
15.3213
 20
3.81932
 11
14.96
 21
4.03807
  0
LINE
  8
0
 10
14.96
 20
4.03807
 11
14.6221
 21
4.291
  0
LINE
  8
0
 10
14.6221
 20
4.291
 11
14.3105
 21
4.5742
  0
LINE
  8
0
 10
14.3105
 20
4.5742
 11
14.0283
 21
4.88475
  0
LINE
  8
0
 10
14.0283
 20
4.88475
 11
13.7754
 21
5.22264
  0
LINE
  8
0
 10
13.7754
 20
5.22264
 11
13.5557
 21
5.58397
  0
LINE
  8
0
 10
13.5557
 20
5.58397
 11
13.3711
 21
5.96776
  0
LINE
  8
0
 10
13.3711
 20
5.96776
 11
13.2236
 21
6.3701
  0
LINE
  8
0
 10
13.2236
 20
6.3701
 11
13.1162
 21
6.791
  0
LINE
  8
0
 10
13.1162
 20
6.791
 11
13.0488
 21
7.22557
  0
LINE
  8
0
 10
13.0488
 20
7.22557
 11
13.0264
 21
7.67381
  0
LINE
  8
0
 10
13.0264
 20
7.67381
 11
13.0488
 21
8.12206
  0
LINE
  8
0
 10
13.0488
 20
8.12206
 11
13.1162
 21
8.5576
  0
LINE
  8
0
 10
13.1162
 20
8.5576
 11
13.2236
 21
8.97752
  0
LINE
  8
0
 10
13.2236
 20
8.97752
 11
13.3711
 21
9.38084
  0
LINE
  8
0
 10
13.3711
 20
9.38084
 11
13.5557
 21
9.76366
  0
LINE
  8
0
 10
13.5557
 20
9.76366
 11
13.7754
 21
10.126
  0
LINE
  8
0
 10
13.7754
 20
10.126
 11
14.0283
 21
10.4629
  0
LINE
  8
0
 10
14.0283
 20
10.4629
 11
14.3105
 21
10.7744
  0
LINE
  8
0
 10
14.3105
 20
10.7744
 11
14.6221
 21
11.0576
  0
LINE
  8
0
 10
14.6221
 20
11.0576
 11
14.96
 21
11.3096
  0
LINE
  8
0
 10
14.96
 20
11.3096
 11
15.3213
 21
11.5293
  0
LINE
  8
0
 10
15.3213
 20
11.5293
 11
15.7041
 21
11.7139
  0
LINE
  8
0
 10
15.7041
 20
11.7139
 11
16.1074
 21
11.8613
  0
LINE
  8
0
 10
16.1074
 20
11.8613
 11
16.5273
 21
11.9697
  0
LINE
  8
0
 10
16.5273
 20
11.9697
 11
16.9629
 21
12.0361
  0
LINE
  8
0
 10
16.9629
 20
12.0361
 11
17.4111
 21
12.0586
  0
LINE
  8
0
 10
17.4111
 20
12.0586
 11
17.8594
 21
12.0361
  0
LINE
  8
0
 10
17.8594
 20
12.0361
 11
18.2949
 21
11.9697
  0
LINE
  8
0
 10
18.2949
 20
11.9697
 11
18.7148
 21
11.8613
  0
LINE
  8
0
 10
18.7148
 20
11.8613
 11
19.1182
 21
11.7139
  0
LINE
  8
0
 10
19.1182
 20
11.7139
 11
19.501
 21
11.5293
  0
LINE
  8
0
 10
19.501
 20
11.5293
 11
19.8623
 21
11.3096
  0
LINE
  8
0
 10
19.8623
 20
11.3096
 11
20.2002
 21
11.0576
  0
LINE
  8
0
 10
20.2002
 20
11.0576
 11
20.5117
 21
10.7744
  0
LINE
  8
0
 10
20.5117
 20
10.7744
 11
20.7949
 21
10.4629
  0
LINE
  8
0
 10
20.7949
 20
10.4629
 11
21.0469
 21
10.126
  0
LINE
  8
0
 10
21.0469
 20
10.126
 11
21.2666
 21
9.76366
  0
LINE
  8
0
 10
21.2666
 20
9.76366
 11
21.4512
 21
9.38084
  0
LINE
  8
0
 10
21.4512
 20
9.38084
 11
21.5986
 21
8.97752
  0
LINE
  8
0
 10
21.5986
 20
8.97752
 11
21.707
 21
8.5576
  0
LINE
  8
0
 10
21.707
 20
8.5576
 11
21.7734
 21
8.12206
  0
LINE
  8
0
 10
21.7734
 20
8.12206
 11
21.7959
 21
7.67381
  0
LINE
  8
0
 10
21.7959
 20
7.67381
 11
21.7734
 21
7.22557
  0
LINE
  8
0
 10
21.7734
 20
7.22557
 11
21.707
 21
6.791
  0
LINE
  8
0
 10
21.707
 20
6.791
 11
21.5986
 21
6.3701
  0
LINE
  8
0
 10
21.5986
 20
6.3701
 11
21.4512
 21
5.96776
  0
LINE
  8
0
 10
21.4512
 20
5.96776
 11
21.2666
 21
5.58397
  0
LINE
  8
0
 10
21.2666
 20
5.58397
 11
21.0469
 21
5.22264
  0
LINE
  8
0
 10
21.0469
 20
5.22264
 11
20.7949
 21
4.88475
  0
LINE
  8
0
 10
20.7949
 20
4.88475
 11
20.5117
 21
4.5742
  0
LINE
  8
0
 10
20.5117
 20
4.5742
 11
20.2002
 21
4.291
  0
LINE
  8
0
 10
20.2002
 20
4.291
 11
19.8623
 21
4.03807
  0
LINE
  8
0
 10
19.8623
 20
4.03807
 11
19.501
 21
3.81932
  0
LINE
  8
0
 10
19.501
 20
3.81932
 11
19.1182
 21
3.63377
  0
LINE
  8
0
 10
19.1182
 20
3.63377
 11
18.7148
 21
3.48631
  0
LINE
  8
0
 10
18.7148
 20
3.48631
 11
18.2949
 21
3.37889
  0
LINE
  8
0
 10
18.2949
 20
3.37889
 11
17.8594
 21
3.31248
  0
LINE
  8
0
 10
17.8594
 20
3.31248
 11
17.4111
 21
3.29002
  0
LINE
  8
0
 10
17.4111
 20
3.29002
 11
16.9629
 21
3.31248
  0
LINE
  8
0
 10
-0.377914
 20
2.68164
 11
-0.715805
 21
2.73242
  0
LINE
  8
0
 10
-0.715805
 20
2.73242
 11
-1.041
 21
2.81641
  0
LINE
  8
0
 10
-1.041
 20
2.81641
 11
-1.3535
 21
2.93066
  0
LINE
  8
0
 10
-1.3535
 20
2.93066
 11
-1.65038
 21
3.07422
  0
LINE
  8
0
 10
-1.65038
 20
3.07422
 11
-1.93065
 21
3.24414
  0
LINE
  8
0
 10
-1.93065
 20
3.24414
 11
-2.19237
 21
3.43945
  0
LINE
  8
0
 10
-2.19237
 20
3.43945
 11
-2.43358
 21
3.65918
  0
LINE
  8
0
 10
-2.43358
 20
3.65918
 11
-2.65331
 21
3.90039
  0
LINE
  8
0
 10
-2.65331
 20
3.90039
 11
-2.84862
 21
4.16211
  0
LINE
  8
0
 10
-2.84862
 20
4.16211
 11
-3.01854
 21
4.44238
  0
LINE
  8
0
 10
-3.01854
 20
4.44238
 11
-3.16209
 21
4.73926
  0
LINE
  8
0
 10
-3.16209
 20
4.73926
 11
-3.27635
 21
5.05176
  0
LINE
  8
0
 10
-3.27635
 20
5.05176
 11
-3.35936
 21
5.37695
  0
LINE
  8
0
 10
-3.35936
 20
5.37695
 11
-3.41112
 21
5.71387
  0
LINE
  8
0
 10
-3.41112
 20
5.71387
 11
-3.4287
 21
6.06152
  0
LINE
  8
0
 10
-3.4287
 20
6.06152
 11
-3.41112
 21
6.40918
  0
LINE
  8
0
 10
-3.41112
 20
6.40918
 11
-3.35936
 21
6.74609
  0
LINE
  8
0
 10
-3.35936
 20
6.74609
 11
-3.27635
 21
7.07227
  0
LINE
  8
0
 10
-3.27635
 20
7.07227
 11
-3.16209
 21
7.38477
  0
LINE
  8
0
 10
-3.16209
 20
7.38477
 11
-3.01854
 21
7.68164
  0
LINE
  8
0
 10
-3.01854
 20
7.68164
 11
-2.84862
 21
7.96191
  0
LINE
  8
0
 10
-2.84862
 20
7.96191
 11
-2.65331
 21
8.22363
  0
LINE
  8
0
 10
-2.65331
 20
8.22363
 11
-2.43358
 21
8.46484
  0
LINE
  8
0
 10
-2.43358
 20
8.46484
 11
-2.19237
 21
8.68359
  0
LINE
  8
0
 10
-2.19237
 20
8.68359
 11
-1.93065
 21
8.87891
  0
LINE
  8
0
 10
-1.93065
 20
8.87891
 11
-1.65038
 21
9.0498
  0
LINE
  8
0
 10
-1.65038
 20
9.0498
 11
-1.3535
 21
9.19238
  0
LINE
  8
0
 10
-1.3535
 20
9.19238
 11
-1.041
 21
9.30664
  0
LINE
  8
0
 10
-1.041
 20
9.30664
 11
-0.715805
 21
9.39062
  0
LINE
  8
0
 10
-0.715805
 20
9.39062
 11
-0.377914
 21
9.44238
  0
LINE
  8
0
 10
-0.377914
 20
9.44238
 11
-0.0312347
 21
9.45996
  0
LINE
  8
0
 10
-0.0312347
 20
9.45996
 11
0.316406
 21
9.44238
  0
LINE
  8
0
 10
0.316406
 20
9.44238
 11
0.654297
 21
9.39062
  0
LINE
  8
0
 10
0.654297
 20
9.39062
 11
0.979492
 21
9.30664
  0
LINE
  8
0
 10
0.979492
 20
9.30664
 11
1.29199
 21
9.19238
  0
LINE
  8
0
 10
1.29199
 20
9.19238
 11
1.58887
 21
9.0498
  0
LINE
  8
0
 10
1.58887
 20
9.0498
 11
1.86914
 21
8.87891
  0
LINE
  8
0
 10
1.86914
 20
8.87891
 11
2.13086
 21
8.68359
  0
LINE
  8
0
 10
2.13086
 20
8.68359
 11
2.37207
 21
8.46484
  0
LINE
  8
0
 10
2.37207
 20
8.46484
 11
2.59082
 21
8.22363
  0
LINE
  8
0
 10
2.59082
 20
8.22363
 11
2.78711
 21
7.96191
  0
LINE
  8
0
 10
2.78711
 20
7.96191
 11
2.95703
 21
7.68164
  0
LINE
  8
0
 10
2.95703
 20
7.68164
 11
3.09961
 21
7.38477
  0
LINE
  8
0
 10
3.09961
 20
7.38477
 11
3.21387
 21
7.07227
  0
LINE
  8
0
 10
3.21387
 20
7.07227
 11
3.29785
 21
6.74609
  0
LINE
  8
0
 10
3.29785
 20
6.74609
 11
3.34961
 21
6.40918
  0
LINE
  8
0
 10
3.34961
 20
6.40918
 11
3.36719
 21
6.06152
  0
LINE
  8
0
 10
3.36719
 20
6.06152
 11
3.34961
 21
5.71387
  0
LINE
  8
0
 10
3.34961
 20
5.71387
 11
3.29785
 21
5.37695
  0
LINE
  8
0
 10
3.29785
 20
5.37695
 11
3.21387
 21
5.05176
  0
LINE
  8
0
 10
3.21387
 20
5.05176
 11
3.09961
 21
4.73926
  0
LINE
  8
0
 10
3.09961
 20
4.73926
 11
2.95703
 21
4.44238
  0
LINE
  8
0
 10
2.95703
 20
4.44238
 11
2.78711
 21
4.16211
  0
LINE
  8
0
 10
2.78711
 20
4.16211
 11
2.59082
 21
3.90038
  0
LINE
  8
0
 10
2.59082
 20
3.90038
 11
2.37207
 21
3.65916
  0
LINE
  8
0
 10
2.37207
 20
3.65916
 11
2.13086
 21
3.43944
  0
LINE
  8
0
 10
2.13086
 20
3.43944
 11
1.86914
 21
3.24413
  0
LINE
  8
0
 10
1.86914
 20
3.24413
 11
1.58887
 21
3.07422
  0
LINE
  8
0
 10
1.58887
 20
3.07422
 11
1.29199
 21
2.93066
  0
LINE
  8
0
 10
1.29199
 20
2.93066
 11
0.979492
 21
2.81641
  0
LINE
  8
0
 10
0.979492
 20
2.81641
 11
0.654297
 21
2.73242
  0
LINE
  8
0
 10
0.654297
 20
2.73242
 11
0.316406
 21
2.68164
  0
LINE
  8
0
 10
0.316406
 20
2.68164
 11
-0.0312347
 21
2.66406
  0
LINE
  8
0
 10
-0.0312347
 20
2.66406
 11
-0.377914
 21
2.68164
  0
LINE
  8
0
 10
-0.405273
 20
-13.6377
 11
-0.768555
 21
-13.582
  0
LINE
  8
0
 10
-0.768555
 20
-13.582
 11
-1.11816
 21
-13.4922
  0
LINE
  8
0
 10
-1.11816
 20
-13.4922
 11
-1.4541
 21
-13.3691
  0
LINE
  8
0
 10
-1.4541
 20
-13.3691
 11
-1.77344
 21
-13.2158
  0
LINE
  8
0
 10
-1.77344
 20
-13.2158
 11
-2.0752
 21
-13.0322
  0
LINE
  8
0
 10
-2.0752
 20
-13.0322
 11
-2.35645
 21
-12.8223
  0
LINE
  8
0
 10
-2.35645
 20
-12.8223
 11
-2.61621
 21
-12.5859
  0
LINE
  8
0
 10
-2.61621
 20
-12.5859
 11
-2.85156
 21
-12.3262
  0
LINE
  8
0
 10
-2.85156
 20
-12.3262
 11
-3.0625
 21
-12.0449
  0
LINE
  8
0
 10
-3.0625
 20
-12.0449
 11
-3.24512
 21
-11.7441
  0
LINE
  8
0
 10
-3.24512
 20
-11.7441
 11
-3.39941
 21
-11.4238
  0
LINE
  8
0
 10
-3.39941
 20
-11.4238
 11
-3.52246
 21
-11.0889
  0
LINE
  8
0
 10
-3.52246
 20
-11.0889
 11
-3.6123
 21
-10.7383
  0
LINE
  8
0
 10
-3.6123
 20
-10.7383
 11
-3.66797
 21
-10.375
  0
LINE
  8
0
 10
-3.66797
 20
-10.375
 11
-3.68652
 21
-10.002
  0
LINE
  8
0
 10
-3.68652
 20
-10.002
 11
-3.66797
 21
-9.62793
  0
LINE
  8
0
 10
-3.66797
 20
-9.62793
 11
-3.6123
 21
-9.26465
  0
LINE
  8
0
 10
-3.6123
 20
-9.26465
 11
-3.52246
 21
-8.91504
  0
LINE
  8
0
 10
-3.52246
 20
-8.91504
 11
-3.39941
 21
-8.5791
  0
LINE
  8
0
 10
-3.39941
 20
-8.5791
 11
-3.24512
 21
-8.25977
  0
LINE
  8
0
 10
-3.24512
 20
-8.25977
 11
-3.0625
 21
-7.95801
  0
LINE
  8
0
 10
-3.0625
 20
-7.95801
 11
-2.85156
 21
-7.67676
  0
LINE
  8
0
 10
-2.85156
 20
-7.67676
 11
-2.61621
 21
-7.41699
  0
LINE
  8
0
 10
-2.61621
 20
-7.41699
 11
-2.35645
 21
-7.18164
  0
LINE
  8
0
 10
-2.35645
 20
-7.18164
 11
-2.0752
 21
-6.9707
  0
LINE
  8
0
 10
-2.0752
 20
-6.9707
 11
-1.77344
 21
-6.78809
  0
LINE
  8
0
 10
-1.77344
 20
-6.78809
 11
-1.4541
 21
-6.63379
  0
LINE
  8
0
 10
-1.4541
 20
-6.63379
 11
-1.11816
 21
-6.51074
  0
LINE
  8
0
 10
-1.11816
 20
-6.51074
 11
-0.768555
 21
-6.4209
  0
LINE
  8
0
 10
-0.768555
 20
-6.4209
 11
-0.405273
 21
-6.36523
  0
LINE
  8
0
 10
-0.405273
 20
-6.36523
 11
-0.03125
 21
-6.34668
  0
LINE
  8
0
 10
-0.03125
 20
-6.34668
 11
0.341782
 21
-6.36523
  0
LINE
  8
0
 10
0.341782
 20
-6.36523
 11
0.705063
 21
-6.4209
  0
LINE
  8
0
 10
0.705063
 20
-6.4209
 11
1.05565
 21
-6.51074
  0
LINE
  8
0
 10
1.05565
 20
-6.51074
 11
1.39159
 21
-6.63379
  0
LINE
  8
0
 10
1.39159
 20
-6.63379
 11
1.71092
 21
-6.78809
  0
LINE
  8
0
 10
1.71092
 20
-6.78809
 11
2.0117
 21
-6.9707
  0
LINE
  8
0
 10
2.0117
 20
-6.9707
 11
2.29393
 21
-7.18164
  0
LINE
  8
0
 10
2.29393
 20
-7.18164
 11
2.55272
 21
-7.41699
  0
LINE
  8
0
 10
2.55272
 20
-7.41699
 11
2.78905
 21
-7.67676
  0
LINE
  8
0
 10
2.78905
 20
-7.67676
 11
2.99901
 21
-7.95801
  0
LINE
  8
0
 10
2.99901
 20
-7.95801
 11
3.1826
 21
-8.25977
  0
LINE
  8
0
 10
3.1826
 20
-8.25977
 11
3.33592
 21
-8.5791
  0
LINE
  8
0
 10
3.33592
 20
-8.5791
 11
3.45897
 21
-8.91504
  0
LINE
  8
0
 10
3.45897
 20
-8.91504
 11
3.54881
 21
-9.26465
  0
LINE
  8
0
 10
3.54881
 20
-9.26465
 11
3.60448
 21
-9.62793
  0
LINE
  8
0
 10
3.60448
 20
-9.62793
 11
3.62401
 21
-10.002
  0
LINE
  8
0
 10
3.62401
 20
-10.002
 11
3.60448
 21
-10.375
  0
LINE
  8
0
 10
3.60448
 20
-10.375
 11
3.54881
 21
-10.7383
  0
LINE
  8
0
 10
3.54881
 20
-10.7383
 11
3.45897
 21
-11.0889
  0
LINE
  8
0
 10
3.45897
 20
-11.0889
 11
3.33592
 21
-11.4238
  0
LINE
  8
0
 10
3.33592
 20
-11.4238
 11
3.1826
 21
-11.7441
  0
LINE
  8
0
 10
3.1826
 20
-11.7441
 11
2.99901
 21
-12.0449
  0
LINE
  8
0
 10
2.99901
 20
-12.0449
 11
2.78905
 21
-12.3262
  0
LINE
  8
0
 10
2.78905
 20
-12.3262
 11
2.55272
 21
-12.5859
  0
LINE
  8
0
 10
2.55272
 20
-12.5859
 11
2.29393
 21
-12.8223
  0
LINE
  8
0
 10
2.29393
 20
-12.8223
 11
2.0117
 21
-13.0322
  0
LINE
  8
0
 10
2.0117
 20
-13.0322
 11
1.71092
 21
-13.2158
  0
LINE
  8
0
 10
1.71092
 20
-13.2158
 11
1.39159
 21
-13.3691
  0
LINE
  8
0
 10
1.39159
 20
-13.3691
 11
1.05565
 21
-13.4922
  0
LINE
  8
0
 10
1.05565
 20
-13.4922
 11
0.705063
 21
-13.582
  0
LINE
  8
0
 10
0.705063
 20
-13.582
 11
0.341782
 21
-13.6377
  0
LINE
  8
0
 10
0.341782
 20
-13.6377
 11
-0.03125
 21
-13.6562
  0
LINE
  8
0
 10
-0.03125
 20
-13.6562
 11
-0.405273
 21
-13.6377
  0
LINE
  8
0
 10
20.5625
 20
-42.1104
 11
20.1992
 21
-42.0547
  0
LINE
  8
0
 10
20.1992
 20
-42.0547
 11
19.8496
 21
-41.9648
  0
LINE
  8
0
 10
19.8496
 20
-41.9648
 11
19.5137
 21
-41.8418
  0
LINE
  8
0
 10
19.5137
 20
-41.8418
 11
19.1943
 21
-41.6885
  0
LINE
  8
0
 10
19.1943
 20
-41.6885
 11
18.8926
 21
-41.5049
  0
LINE
  8
0
 10
18.8926
 20
-41.5049
 11
18.6113
 21
-41.2949
  0
LINE
  8
0
 10
18.6113
 20
-41.2949
 11
18.3515
 21
-41.0586
  0
LINE
  8
0
 10
18.3515
 20
-41.0586
 11
18.1162
 21
-40.7988
  0
LINE
  8
0
 10
18.1162
 20
-40.7988
 11
17.9053
 21
-40.5176
  0
LINE
  8
0
 10
17.9053
 20
-40.5176
 11
17.7226
 21
-40.2168
  0
LINE
  8
0
 10
17.7226
 20
-40.2168
 11
17.5683
 21
-39.8975
  0
LINE
  8
0
 10
17.5683
 20
-39.8975
 11
17.4463
 21
-39.5615
  0
LINE
  8
0
 10
17.4463
 20
-39.5615
 11
17.3555
 21
-39.2109
  0
LINE
  8
0
 10
17.3555
 20
-39.2109
 11
17.3008
 21
-38.8486
  0
LINE
  8
0
 10
17.3008
 20
-38.8486
 11
17.2812
 21
-38.4746
  0
LINE
  8
0
 10
17.2812
 20
-38.4746
 11
17.3008
 21
-38.1006
  0
LINE
  8
0
 10
17.3008
 20
-38.1006
 11
17.3555
 21
-37.7383
  0
LINE
  8
0
 10
17.3555
 20
-37.7383
 11
17.4463
 21
-37.3877
  0
LINE
  8
0
 10
17.4463
 20
-37.3877
 11
17.5683
 21
-37.0518
  0
LINE
  8
0
 10
17.5683
 20
-37.0518
 11
17.7226
 21
-36.7324
  0
LINE
  8
0
 10
17.7226
 20
-36.7324
 11
17.9053
 21
-36.4307
  0
LINE
  8
0
 10
17.9053
 20
-36.4307
 11
18.1162
 21
-36.1494
  0
LINE
  8
0
 10
18.1162
 20
-36.1494
 11
18.3515
 21
-35.8906
  0
LINE
  8
0
 10
18.3515
 20
-35.8906
 11
18.6113
 21
-35.6543
  0
LINE
  8
0
 10
18.6113
 20
-35.6543
 11
18.8926
 21
-35.4443
  0
LINE
  8
0
 10
18.8926
 20
-35.4443
 11
19.1943
 21
-35.2607
  0
LINE
  8
0
 10
19.1943
 20
-35.2607
 11
19.5137
 21
-35.1074
  0
LINE
  8
0
 10
19.5137
 20
-35.1074
 11
19.8496
 21
-34.9844
  0
LINE
  8
0
 10
19.8496
 20
-34.9844
 11
20.1992
 21
-34.8945
  0
LINE
  8
0
 10
20.1992
 20
-34.8945
 11
20.5625
 21
-34.8389
  0
LINE
  8
0
 10
20.5625
 20
-34.8389
 11
20.9365
 21
-34.8193
  0
LINE
  8
0
 10
20.9365
 20
-34.8193
 11
21.3096
 21
-34.8389
  0
LINE
  8
0
 10
21.3096
 20
-34.8389
 11
21.6728
 21
-34.8945
  0
LINE
  8
0
 10
21.6728
 20
-34.8945
 11
22.0234
 21
-34.9844
  0
LINE
  8
0
 10
22.0234
 20
-34.9844
 11
22.3584
 21
-35.1074
  0
LINE
  8
0
 10
22.3584
 20
-35.1074
 11
22.6787
 21
-35.2607
  0
LINE
  8
0
 10
22.6787
 20
-35.2607
 11
22.9795
 21
-35.4443
  0
LINE
  8
0
 10
22.9795
 20
-35.4443
 11
23.2607
 21
-35.6543
  0
LINE
  8
0
 10
23.2607
 20
-35.6543
 11
23.5205
 21
-35.8906
  0
LINE
  8
0
 10
23.5205
 20
-35.8906
 11
23.7568
 21
-36.1494
  0
LINE
  8
0
 10
23.7568
 20
-36.1494
 11
23.9668
 21
-36.4307
  0
LINE
  8
0
 10
23.9668
 20
-36.4307
 11
24.1494
 21
-36.7324
  0
LINE
  8
0
 10
24.1494
 20
-36.7324
 11
24.3037
 21
-37.0518
  0
LINE
  8
0
 10
24.3037
 20
-37.0518
 11
24.4267
 21
-37.3877
  0
LINE
  8
0
 10
24.4267
 20
-37.3877
 11
24.5166
 21
-37.7383
  0
LINE
  8
0
 10
24.5166
 20
-37.7383
 11
24.5723
 21
-38.1006
  0
LINE
  8
0
 10
24.5723
 20
-38.1006
 11
24.5908
 21
-38.4746
  0
LINE
  8
0
 10
24.5908
 20
-38.4746
 11
24.5723
 21
-38.8486
  0
LINE
  8
0
 10
24.5723
 20
-38.8486
 11
24.5166
 21
-39.2109
  0
LINE
  8
0
 10
24.5166
 20
-39.2109
 11
24.4267
 21
-39.5615
  0
LINE
  8
0
 10
24.4267
 20
-39.5615
 11
24.3037
 21
-39.8975
  0
LINE
  8
0
 10
24.3037
 20
-39.8975
 11
24.1494
 21
-40.2168
  0
LINE
  8
0
 10
24.1494
 20
-40.2168
 11
23.9668
 21
-40.5176
  0
LINE
  8
0
 10
23.9668
 20
-40.5176
 11
23.7568
 21
-40.7988
  0
LINE
  8
0
 10
23.7568
 20
-40.7988
 11
23.5205
 21
-41.0586
  0
LINE
  8
0
 10
23.5205
 20
-41.0586
 11
23.2607
 21
-41.2949
  0
LINE
  8
0
 10
23.2607
 20
-41.2949
 11
22.9795
 21
-41.5049
  0
LINE
  8
0
 10
22.9795
 20
-41.5049
 11
22.6787
 21
-41.6885
  0
LINE
  8
0
 10
22.6787
 20
-41.6885
 11
22.3584
 21
-41.8418
  0
LINE
  8
0
 10
22.3584
 20
-41.8418
 11
22.0234
 21
-41.9648
  0
LINE
  8
0
 10
22.0234
 20
-41.9648
 11
21.6728
 21
-42.0547
  0
LINE
  8
0
 10
21.6728
 20
-42.0547
 11
21.3096
 21
-42.1104
  0
LINE
  8
0
 10
21.3096
 20
-42.1104
 11
20.9365
 21
-42.1289
  0
LINE
  8
0
 10
20.9365
 20
-42.1289
 11
20.5625
 21
-42.1104
  0
LINE
  8
0
 10
-21.3984
 20
-42.0869
 11
-21.7588
 21
-42.0312
  0
LINE
  8
0
 10
-21.7588
 20
-42.0312
 11
-22.1064
 21
-41.9424
  0
LINE
  8
0
 10
-22.1064
 20
-41.9424
 11
-22.4404
 21
-41.8203
  0
LINE
  8
0
 10
-22.4404
 20
-41.8203
 11
-22.7578
 21
-41.667
  0
LINE
  8
0
 10
-22.7578
 20
-41.667
 11
-23.0566
 21
-41.4854
  0
LINE
  8
0
 10
-23.0566
 20
-41.4854
 11
-23.3369
 21
-41.2764
  0
LINE
  8
0
 10
-23.3369
 20
-41.2764
 11
-23.5947
 21
-41.042
  0
LINE
  8
0
 10
-23.5947
 20
-41.042
 11
-23.8291
 21
-40.7842
  0
LINE
  8
0
 10
-23.8291
 20
-40.7842
 11
-24.0381
 21
-40.5049
  0
LINE
  8
0
 10
-24.0381
 20
-40.5049
 11
-24.2197
 21
-40.2051
  0
LINE
  8
0
 10
-24.2197
 20
-40.2051
 11
-24.3721
 21
-39.8877
  0
LINE
  8
0
 10
-24.3721
 20
-39.8877
 11
-24.4941
 21
-39.5547
  0
LINE
  8
0
 10
-24.4941
 20
-39.5547
 11
-24.584
 21
-39.2061
  0
LINE
  8
0
 10
-24.584
 20
-39.2061
 11
-24.6387
 21
-38.8457
  0
LINE
  8
0
 10
-24.6387
 20
-38.8457
 11
-24.6582
 21
-38.4746
  0
LINE
  8
0
 10
-24.6582
 20
-38.4746
 11
-24.6387
 21
-38.1035
  0
LINE
  8
0
 10
-24.6387
 20
-38.1035
 11
-24.584
 21
-37.7432
  0
LINE
  8
0
 10
-24.584
 20
-37.7432
 11
-24.4941
 21
-37.3945
  0
LINE
  8
0
 10
-24.4941
 20
-37.3945
 11
-24.3721
 21
-37.0615
  0
LINE
  8
0
 10
-24.3721
 20
-37.0615
 11
-24.2197
 21
-36.7441
  0
LINE
  8
0
 10
-24.2197
 20
-36.7441
 11
-24.0381
 21
-36.4443
  0
LINE
  8
0
 10
-24.0381
 20
-36.4443
 11
-23.8291
 21
-36.165
  0
LINE
  8
0
 10
-23.8291
 20
-36.165
 11
-23.5947
 21
-35.9072
  0
LINE
  8
0
 10
-23.5947
 20
-35.9072
 11
-23.3369
 21
-35.6729
  0
LINE
  8
0
 10
-23.3369
 20
-35.6729
 11
-23.0566
 21
-35.4639
  0
LINE
  8
0
 10
-23.0566
 20
-35.4639
 11
-22.7578
 21
-35.2822
  0
LINE
  8
0
 10
-22.7578
 20
-35.2822
 11
-22.4404
 21
-35.1289
  0
LINE
  8
0
 10
-22.4404
 20
-35.1289
 11
-22.1064
 21
-35.0068
  0
LINE
  8
0
 10
-22.1064
 20
-35.0068
 11
-21.7588
 21
-34.918
  0
LINE
  8
0
 10
-21.7588
 20
-34.918
 11
-21.3984
 21
-34.8623
  0
LINE
  8
0
 10
-21.3984
 20
-34.8623
 11
-21.0273
 21
-34.8438
  0
LINE
  8
0
 10
-21.0273
 20
-34.8438
 11
-20.6562
 21
-34.8623
  0
LINE
  8
0
 10
-20.6562
 20
-34.8623
 11
-20.2949
 21
-34.918
  0
LINE
  8
0
 10
-20.2949
 20
-34.918
 11
-19.9473
 21
-35.0068
  0
LINE
  8
0
 10
-19.9473
 20
-35.0068
 11
-19.6133
 21
-35.1289
  0
LINE
  8
0
 10
-19.6133
 20
-35.1289
 11
-19.2959
 21
-35.2822
  0
LINE
  8
0
 10
-19.2959
 20
-35.2822
 11
-18.9971
 21
-35.4639
  0
LINE
  8
0
 10
-18.9971
 20
-35.4639
 11
-18.7178
 21
-35.6729
  0
LINE
  8
0
 10
-18.7178
 20
-35.6729
 11
-18.46
 21
-35.9072
  0
LINE
  8
0
 10
-18.46
 20
-35.9072
 11
-18.2256
 21
-36.165
  0
LINE
  8
0
 10
-18.2256
 20
-36.165
 11
-18.0166
 21
-36.4443
  0
LINE
  8
0
 10
-18.0166
 20
-36.4443
 11
-17.834
 21
-36.7441
  0
LINE
  8
0
 10
-17.834
 20
-36.7441
 11
-17.6816
 21
-37.0615
  0
LINE
  8
0
 10
-17.6816
 20
-37.0615
 11
-17.5596
 21
-37.3945
  0
LINE
  8
0
 10
-17.5596
 20
-37.3945
 11
-17.4697
 21
-37.7432
  0
LINE
  8
0
 10
-17.4697
 20
-37.7432
 11
-17.415
 21
-38.1035
  0
LINE
  8
0
 10
-17.415
 20
-38.1035
 11
-17.3965
 21
-38.4746
  0
LINE
  8
0
 10
-17.3965
 20
-38.4746
 11
-17.415
 21
-38.8457
  0
LINE
  8
0
 10
-17.415
 20
-38.8457
 11
-17.4697
 21
-39.2061
  0
LINE
  8
0
 10
-17.4697
 20
-39.2061
 11
-17.5596
 21
-39.5547
  0
LINE
  8
0
 10
-17.5596
 20
-39.5547
 11
-17.6816
 21
-39.8877
  0
LINE
  8
0
 10
-17.6816
 20
-39.8877
 11
-17.834
 21
-40.2051
  0
LINE
  8
0
 10
-17.834
 20
-40.2051
 11
-18.0166
 21
-40.5049
  0
LINE
  8
0
 10
-18.0166
 20
-40.5049
 11
-18.2256
 21
-40.7842
  0
LINE
  8
0
 10
-18.2256
 20
-40.7842
 11
-18.46
 21
-41.042
  0
LINE
  8
0
 10
-18.46
 20
-41.042
 11
-18.7178
 21
-41.2764
  0
LINE
  8
0
 10
-18.7178
 20
-41.2764
 11
-18.9971
 21
-41.4854
  0
LINE
  8
0
 10
-18.9971
 20
-41.4854
 11
-19.2959
 21
-41.667
  0
LINE
  8
0
 10
-19.2959
 20
-41.667
 11
-19.6133
 21
-41.8203
  0
LINE
  8
0
 10
-19.6133
 20
-41.8203
 11
-19.9473
 21
-41.9424
  0
LINE
  8
0
 10
-19.9473
 20
-41.9424
 11
-20.2949
 21
-42.0312
  0
LINE
  8
0
 10
-20.2949
 20
-42.0312
 11
-20.6562
 21
-42.0869
  0
LINE
  8
0
 10
-20.6562
 20
-42.0869
 11
-21.0273
 21
-42.1055
  0
LINE
  8
0
 10
-21.0273
 20
-42.1055
 11
-21.3984
 21
-42.0869
  0
LINE
  8
0
 10
-0.404297
 20
-50.4014
 11
-0.765625
 21
-50.3467
  0
LINE
  8
0
 10
-0.765625
 20
-50.3467
 11
-1.11523
 21
-50.2568
  0
LINE
  8
0
 10
-1.11523
 20
-50.2568
 11
-1.4502
 21
-50.1338
  0
LINE
  8
0
 10
-1.4502
 20
-50.1338
 11
-1.76855
 21
-49.9805
  0
LINE
  8
0
 10
-1.76855
 20
-49.9805
 11
-2.06934
 21
-49.7979
  0
LINE
  8
0
 10
-2.06934
 20
-49.7979
 11
-2.34961
 21
-49.5879
  0
LINE
  8
0
 10
-2.34961
 20
-49.5879
 11
-2.60938
 21
-49.3525
  0
LINE
  8
0
 10
-2.60938
 20
-49.3525
 11
-2.84375
 21
-49.0938
  0
LINE
  8
0
 10
-2.84375
 20
-49.0938
 11
-3.05371
 21
-48.8135
  0
LINE
  8
0
 10
-3.05371
 20
-48.8135
 11
-3.23633
 21
-48.5127
  0
LINE
  8
0
 10
-3.23633
 20
-48.5127
 11
-3.38965
 21
-48.1943
  0
LINE
  8
0
 10
-3.38965
 20
-48.1943
 11
-3.5127
 21
-47.8594
  0
LINE
  8
0
 10
-3.5127
 20
-47.8594
 11
-3.60254
 21
-47.5098
  0
LINE
  8
0
 10
-3.60254
 20
-47.5098
 11
-3.6582
 21
-47.1484
  0
LINE
  8
0
 10
-3.6582
 20
-47.1484
 11
-3.67676
 21
-46.7754
  0
LINE
  8
0
 10
-3.67676
 20
-46.7754
 11
-3.6582
 21
-46.4023
  0
LINE
  8
0
 10
-3.6582
 20
-46.4023
 11
-3.60254
 21
-46.041
  0
LINE
  8
0
 10
-3.60254
 20
-46.041
 11
-3.5127
 21
-45.6914
  0
LINE
  8
0
 10
-3.5127
 20
-45.6914
 11
-3.38965
 21
-45.3564
  0
LINE
  8
0
 10
-3.38965
 20
-45.3564
 11
-3.23633
 21
-45.0381
  0
LINE
  8
0
 10
-3.23633
 20
-45.0381
 11
-3.05371
 21
-44.7373
  0
LINE
  8
0
 10
-3.05371
 20
-44.7373
 11
-2.84375
 21
-44.457
  0
LINE
  8
0
 10
-2.84375
 20
-44.457
 11
-2.60938
 21
-44.1982
  0
LINE
  8
0
 10
-2.60938
 20
-44.1982
 11
-2.34961
 21
-43.9629
  0
LINE
  8
0
 10
-2.34961
 20
-43.9629
 11
-2.06934
 21
-43.7529
  0
LINE
  8
0
 10
-2.06934
 20
-43.7529
 11
-1.76855
 21
-43.5703
  0
LINE
  8
0
 10
-1.76855
 20
-43.5703
 11
-1.4502
 21
-43.417
  0
LINE
  8
0
 10
-1.4502
 20
-43.417
 11
-1.11523
 21
-43.2939
  0
LINE
  8
0
 10
-1.11523
 20
-43.2939
 11
-0.765625
 21
-43.2041
  0
LINE
  8
0
 10
-0.765625
 20
-43.2041
 11
-0.404297
 21
-43.1494
  0
LINE
  8
0
 10
-0.404297
 20
-43.1494
 11
-0.03125
 21
-43.1299
  0
LINE
  8
0
 10
-0.03125
 20
-43.1299
 11
0.340805
 21
-43.1494
  0
LINE
  8
0
 10
0.340805
 20
-43.1494
 11
0.70311
 21
-43.2041
  0
LINE
  8
0
 10
0.70311
 20
-43.2041
 11
1.05272
 21
-43.2939
  0
LINE
  8
0
 10
1.05272
 20
-43.2939
 11
1.38768
 21
-43.417
  0
LINE
  8
0
 10
1.38768
 20
-43.417
 11
1.70604
 21
-43.5703
  0
LINE
  8
0
 10
1.70604
 20
-43.5703
 11
2.00682
 21
-43.7529
  0
LINE
  8
0
 10
2.00682
 20
-43.7529
 11
2.28709
 21
-43.9629
  0
LINE
  8
0
 10
2.28709
 20
-43.9629
 11
2.54588
 21
-44.1982
  0
LINE
  8
0
 10
2.54588
 20
-44.1982
 11
2.78123
 21
-44.457
  0
LINE
  8
0
 10
2.78123
 20
-44.457
 11
2.9912
 21
-44.7373
  0
LINE
  8
0
 10
2.9912
 20
-44.7373
 11
3.17381
 21
-45.0381
  0
LINE
  8
0
 10
3.17381
 20
-45.0381
 11
3.32713
 21
-45.3564
  0
LINE
  8
0
 10
3.32713
 20
-45.3564
 11
3.45018
 21
-45.6914
  0
LINE
  8
0
 10
3.45018
 20
-45.6914
 11
3.54002
 21
-46.041
  0
LINE
  8
0
 10
3.54002
 20
-46.041
 11
3.59471
 21
-46.4023
  0
LINE
  8
0
 10
3.59471
 20
-46.4023
 11
3.61327
 21
-46.7754
  0
LINE
  8
0
 10
3.61327
 20
-46.7754
 11
3.59471
 21
-47.1484
  0
LINE
  8
0
 10
3.59471
 20
-47.1484
 11
3.54002
 21
-47.5098
  0
LINE
  8
0
 10
3.54002
 20
-47.5098
 11
3.45018
 21
-47.8594
  0
LINE
  8
0
 10
3.45018
 20
-47.8594
 11
3.32713
 21
-48.1943
  0
LINE
  8
0
 10
3.32713
 20
-48.1943
 11
3.17381
 21
-48.5127
  0
LINE
  8
0
 10
3.17381
 20
-48.5127
 11
2.9912
 21
-48.8135
  0
LINE
  8
0
 10
2.9912
 20
-48.8135
 11
2.78123
 21
-49.0938
  0
LINE
  8
0
 10
2.78123
 20
-49.0938
 11
2.54588
 21
-49.3525
  0
LINE
  8
0
 10
2.54588
 20
-49.3525
 11
2.28709
 21
-49.5879
  0
LINE
  8
0
 10
2.28709
 20
-49.5879
 11
2.00682
 21
-49.7979
  0
LINE
  8
0
 10
2.00682
 20
-49.7979
 11
1.70604
 21
-49.9805
  0
LINE
  8
0
 10
1.70604
 20
-49.9805
 11
1.38768
 21
-50.1338
  0
LINE
  8
0
 10
1.38768
 20
-50.1338
 11
1.05272
 21
-50.2568
  0
LINE
  8
0
 10
1.05272
 20
-50.2568
 11
0.70311
 21
-50.3467
  0
LINE
  8
0
 10
0.70311
 20
-50.3467
 11
0.340805
 21
-50.4014
  0
LINE
  8
0
 10
0.340805
 20
-50.4014
 11
-0.03125
 21
-50.4209
  0
LINE
  8
0
 10
-0.03125
 20
-50.4209
 11
-0.404297
 21
-50.4014
  0
LINE
  8
0
 10
17.8486
 20
-51.1895
 11
17.6816
 21
-51.1641
  0
LINE
  8
0
 10
17.6816
 20
-51.1641
 11
17.5215
 21
-51.1221
  0
LINE
  8
0
 10
17.5215
 20
-51.1221
 11
17.3662
 21
-51.0654
  0
LINE
  8
0
 10
17.3662
 20
-51.0654
 11
17.2197
 21
-50.9951
  0
LINE
  8
0
 10
17.2197
 20
-50.9951
 11
17.081
 21
-50.9111
  0
LINE
  8
0
 10
17.081
 20
-50.9111
 11
16.9521
 21
-50.8145
  0
LINE
  8
0
 10
16.9521
 20
-50.8145
 11
16.832
 21
-50.7051
  0
LINE
  8
0
 10
16.832
 20
-50.7051
 11
16.7236
 21
-50.5859
  0
LINE
  8
0
 10
16.7236
 20
-50.5859
 11
16.6269
 21
-50.457
  0
LINE
  8
0
 10
16.6269
 20
-50.457
 11
16.543
 21
-50.3184
  0
LINE
  8
0
 10
16.543
 20
-50.3184
 11
16.4726
 21
-50.1709
  0
LINE
  8
0
 10
16.4726
 20
-50.1709
 11
16.416
 21
-50.0166
  0
LINE
  8
0
 10
16.416
 20
-50.0166
 11
16.374
 21
-49.8555
  0
LINE
  8
0
 10
16.374
 20
-49.8555
 11
16.3486
 21
-49.6895
  0
LINE
  8
0
 10
16.3486
 20
-49.6895
 11
16.3398
 21
-49.5176
  0
LINE
  8
0
 10
16.3398
 20
-49.5176
 11
16.3486
 21
-49.3457
  0
LINE
  8
0
 10
16.3486
 20
-49.3457
 11
16.374
 21
-49.1787
  0
LINE
  8
0
 10
16.374
 20
-49.1787
 11
16.416
 21
-49.0176
  0
LINE
  8
0
 10
16.416
 20
-49.0176
 11
16.4726
 21
-48.8633
  0
LINE
  8
0
 10
16.4726
 20
-48.8633
 11
16.543
 21
-48.7158
  0
LINE
  8
0
 10
16.543
 20
-48.7158
 11
16.6269
 21
-48.5771
  0
LINE
  8
0
 10
16.6269
 20
-48.5771
 11
16.7236
 21
-48.4482
  0
LINE
  8
0
 10
16.7236
 20
-48.4482
 11
16.832
 21
-48.3291
  0
LINE
  8
0
 10
16.832
 20
-48.3291
 11
16.9521
 21
-48.2207
  0
LINE
  8
0
 10
16.9521
 20
-48.2207
 11
17.081
 21
-48.124
  0
LINE
  8
0
 10
17.081
 20
-48.124
 11
17.2197
 21
-48.0391
  0
LINE
  8
0
 10
17.2197
 20
-48.0391
 11
17.3662
 21
-47.9688
  0
LINE
  8
0
 10
17.3662
 20
-47.9688
 11
17.5215
 21
-47.9121
  0
LINE
  8
0
 10
17.5215
 20
-47.9121
 11
17.6816
 21
-47.8711
  0
LINE
  8
0
 10
17.6816
 20
-47.8711
 11
17.8486
 21
-47.8457
  0
LINE
  8
0
 10
17.8486
 20
-47.8457
 11
18.0205
 21
-47.8369
  0
LINE
  8
0
 10
18.0205
 20
-47.8369
 11
18.1924
 21
-47.8457
  0
LINE
  8
0
 10
18.1924
 20
-47.8457
 11
18.3594
 21
-47.8711
  0
LINE
  8
0
 10
18.3594
 20
-47.8711
 11
18.5205
 21
-47.9121
  0
LINE
  8
0
 10
18.5205
 20
-47.9121
 11
18.6748
 21
-47.9688
  0
LINE
  8
0
 10
18.6748
 20
-47.9688
 11
18.8223
 21
-48.0391
  0
LINE
  8
0
 10
18.8223
 20
-48.0391
 11
18.9599
 21
-48.124
  0
LINE
  8
0
 10
18.9599
 20
-48.124
 11
19.0898
 21
-48.2207
  0
LINE
  8
0
 10
19.0898
 20
-48.2207
 11
19.209
 21
-48.3291
  0
LINE
  8
0
 10
19.209
 20
-48.3291
 11
19.3174
 21
-48.4482
  0
LINE
  8
0
 10
19.3174
 20
-48.4482
 11
19.414
 21
-48.5771
  0
LINE
  8
0
 10
19.414
 20
-48.5771
 11
19.498
 21
-48.7158
  0
LINE
  8
0
 10
19.498
 20
-48.7158
 11
19.5693
 21
-48.8633
  0
LINE
  8
0
 10
19.5693
 20
-48.8633
 11
19.626
 21
-49.0176
  0
LINE
  8
0
 10
19.626
 20
-49.0176
 11
19.667
 21
-49.1787
  0
LINE
  8
0
 10
19.667
 20
-49.1787
 11
19.6924
 21
-49.3457
  0
LINE
  8
0
 10
19.6924
 20
-49.3457
 11
19.7012
 21
-49.5176
  0
LINE
  8
0
 10
19.7012
 20
-49.5176
 11
19.6924
 21
-49.6895
  0
LINE
  8
0
 10
19.6924
 20
-49.6895
 11
19.667
 21
-49.8555
  0
LINE
  8
0
 10
19.667
 20
-49.8555
 11
19.626
 21
-50.0166
  0
LINE
  8
0
 10
19.626
 20
-50.0166
 11
19.5693
 21
-50.1709
  0
LINE
  8
0
 10
19.5693
 20
-50.1709
 11
19.498
 21
-50.3184
  0
LINE
  8
0
 10
19.498
 20
-50.3184
 11
19.414
 21
-50.457
  0
LINE
  8
0
 10
19.414
 20
-50.457
 11
19.3174
 21
-50.5859
  0
LINE
  8
0
 10
19.3174
 20
-50.5859
 11
19.209
 21
-50.7051
  0
LINE
  8
0
 10
19.209
 20
-50.7051
 11
19.0898
 21
-50.8145
  0
LINE
  8
0
 10
19.0898
 20
-50.8145
 11
18.9599
 21
-50.9111
  0
LINE
  8
0
 10
18.9599
 20
-50.9111
 11
18.8223
 21
-50.9951
  0
LINE
  8
0
 10
18.8223
 20
-50.9951
 11
18.6748
 21
-51.0654
  0
LINE
  8
0
 10
18.6748
 20
-51.0654
 11
18.5205
 21
-51.1221
  0
LINE
  8
0
 10
18.5205
 20
-51.1221
 11
18.3594
 21
-51.1641
  0
LINE
  8
0
 10
18.3594
 20
-51.1641
 11
18.1924
 21
-51.1895
  0
LINE
  8
0
 10
18.1924
 20
-51.1895
 11
18.0205
 21
-51.1973
  0
LINE
  8
0
 10
18.0205
 20
-51.1973
 11
17.8486
 21
-51.1895
  0
LINE
  8
0
 10
-18.0166
 20
-51.1895
 11
-18.1836
 21
-51.1641
  0
LINE
  8
0
 10
-18.1836
 20
-51.1641
 11
-18.3447
 21
-51.1221
  0
LINE
  8
0
 10
-18.3447
 20
-51.1221
 11
-18.499
 21
-51.0654
  0
LINE
  8
0
 10
-18.499
 20
-51.0654
 11
-18.6455
 21
-50.9951
  0
LINE
  8
0
 10
-18.6455
 20
-50.9951
 11
-18.7842
 21
-50.9111
  0
LINE
  8
0
 10
-18.7842
 20
-50.9111
 11
-18.9141
 21
-50.8145
  0
LINE
  8
0
 10
-18.9141
 20
-50.8145
 11
-19.0332
 21
-50.7051
  0
LINE
  8
0
 10
-19.0332
 20
-50.7051
 11
-19.1416
 21
-50.5859
  0
LINE
  8
0
 10
-19.1416
 20
-50.5859
 11
-19.2383
 21
-50.457
  0
LINE
  8
0
 10
-19.2383
 20
-50.457
 11
-19.3223
 21
-50.3184
  0
LINE
  8
0
 10
-19.3223
 20
-50.3184
 11
-19.3936
 21
-50.1709
  0
LINE
  8
0
 10
-19.3936
 20
-50.1709
 11
-19.4492
 21
-50.0166
  0
LINE
  8
0
 10
-19.4492
 20
-50.0166
 11
-19.4912
 21
-49.8555
  0
LINE
  8
0
 10
-19.4912
 20
-49.8555
 11
-19.5166
 21
-49.6895
  0
LINE
  8
0
 10
-19.5166
 20
-49.6895
 11
-19.5254
 21
-49.5176
  0
LINE
  8
0
 10
-19.5254
 20
-49.5176
 11
-19.5166
 21
-49.3457
  0
LINE
  8
0
 10
-19.5166
 20
-49.3457
 11
-19.4912
 21
-49.1787
  0
LINE
  8
0
 10
-19.4912
 20
-49.1787
 11
-19.4492
 21
-49.0176
  0
LINE
  8
0
 10
-19.4492
 20
-49.0176
 11
-19.3936
 21
-48.8633
  0
LINE
  8
0
 10
-19.3936
 20
-48.8633
 11
-19.3223
 21
-48.7158
  0
LINE
  8
0
 10
-19.3223
 20
-48.7158
 11
-19.2383
 21
-48.5771
  0
LINE
  8
0
 10
-19.2383
 20
-48.5771
 11
-19.1416
 21
-48.4482
  0
LINE
  8
0
 10
-19.1416
 20
-48.4482
 11
-19.0332
 21
-48.3291
  0
LINE
  8
0
 10
-19.0332
 20
-48.3291
 11
-18.9141
 21
-48.2207
  0
LINE
  8
0
 10
-18.9141
 20
-48.2207
 11
-18.7842
 21
-48.124
  0
LINE
  8
0
 10
-18.7842
 20
-48.124
 11
-18.6455
 21
-48.0391
  0
LINE
  8
0
 10
-18.6455
 20
-48.0391
 11
-18.499
 21
-47.9688
  0
LINE
  8
0
 10
-18.499
 20
-47.9688
 11
-18.3447
 21
-47.9121
  0
LINE
  8
0
 10
-18.3447
 20
-47.9121
 11
-18.1836
 21
-47.8711
  0
LINE
  8
0
 10
-18.1836
 20
-47.8711
 11
-18.0166
 21
-47.8457
  0
LINE
  8
0
 10
-18.0166
 20
-47.8457
 11
-17.8447
 21
-47.8369
  0
LINE
  8
0
 10
-17.8447
 20
-47.8369
 11
-17.6729
 21
-47.8457
  0
LINE
  8
0
 10
-17.6729
 20
-47.8457
 11
-17.5059
 21
-47.8711
  0
LINE
  8
0
 10
-17.5059
 20
-47.8711
 11
-17.3447
 21
-47.9121
  0
LINE
  8
0
 10
-17.3447
 20
-47.9121
 11
-17.1904
 21
-47.9688
  0
LINE
  8
0
 10
-17.1904
 20
-47.9688
 11
-17.0439
 21
-48.0391
  0
LINE
  8
0
 10
-17.0439
 20
-48.0391
 11
-16.9053
 21
-48.124
  0
LINE
  8
0
 10
-16.9053
 20
-48.124
 11
-16.7754
 21
-48.2207
  0
LINE
  8
0
 10
-16.7754
 20
-48.2207
 11
-16.6562
 21
-48.3291
  0
LINE
  8
0
 10
-16.6562
 20
-48.3291
 11
-16.5479
 21
-48.4482
  0
LINE
  8
0
 10
-16.5479
 20
-48.4482
 11
-16.4512
 21
-48.5771
  0
LINE
  8
0
 10
-16.4512
 20
-48.5771
 11
-16.3672
 21
-48.7158
  0
LINE
  8
0
 10
-16.3672
 20
-48.7158
 11
-16.2959
 21
-48.8633
  0
LINE
  8
0
 10
-16.2959
 20
-48.8633
 11
-16.2393
 21
-49.0176
  0
LINE
  8
0
 10
-16.2393
 20
-49.0176
 11
-16.1982
 21
-49.1787
  0
LINE
  8
0
 10
-16.1982
 20
-49.1787
 11
-16.1729
 21
-49.3457
  0
LINE
  8
0
 10
-16.1729
 20
-49.3457
 11
-16.1641
 21
-49.5176
  0
LINE
  8
0
 10
-16.1641
 20
-49.5176
 11
-16.1729
 21
-49.6895
  0
LINE
  8
0
 10
-16.1729
 20
-49.6895
 11
-16.1982
 21
-49.8555
  0
LINE
  8
0
 10
-16.1982
 20
-49.8555
 11
-16.2393
 21
-50.0166
  0
LINE
  8
0
 10
-16.2393
 20
-50.0166
 11
-16.2959
 21
-50.1709
  0
LINE
  8
0
 10
-16.2959
 20
-50.1709
 11
-16.3672
 21
-50.3184
  0
LINE
  8
0
 10
-16.3672
 20
-50.3184
 11
-16.4512
 21
-50.457
  0
LINE
  8
0
 10
-16.4512
 20
-50.457
 11
-16.5479
 21
-50.5859
  0
LINE
  8
0
 10
-16.5479
 20
-50.5859
 11
-16.6562
 21
-50.7051
  0
LINE
  8
0
 10
-16.6562
 20
-50.7051
 11
-16.7754
 21
-50.8145
  0
LINE
  8
0
 10
-16.7754
 20
-50.8145
 11
-16.9053
 21
-50.9111
  0
LINE
  8
0
 10
-16.9053
 20
-50.9111
 11
-17.0439
 21
-50.9951
  0
LINE
  8
0
 10
-17.0439
 20
-50.9951
 11
-17.1904
 21
-51.0654
  0
LINE
  8
0
 10
-17.1904
 20
-51.0654
 11
-17.3447
 21
-51.1221
  0
LINE
  8
0
 10
-17.3447
 20
-51.1221
 11
-17.5059
 21
-51.1641
  0
LINE
  8
0
 10
-17.5059
 20
-51.1641
 11
-17.6729
 21
-51.1895
  0
LINE
  8
0
 10
-17.6729
 20
-51.1895
 11
-17.8447
 21
-51.1973
  0
LINE
  8
0
 10
-17.8447
 20
-51.1973
 11
-18.0166
 21
-51.1895
  0
LINE
  8
0
 10
-22.5
 20
-171.5
 11
-17.5
 21
-171.5
  0
LINE
  8
0
 10
-17.5
 20
-171.5
 11
-17.5
 21
-174.5
  0
LINE
  8
0
 10
-17.5
 20
-174.5
 11
17.5
 21
-174.5
  0
LINE
  8
0
 10
17.5
 20
-174.5
 11
17.5
 21
-171.5
  0
LINE
  8
0
 10
17.5
 20
-171.5
 11
22.5
 21
-171.5
  0
LINE
  8
0
 10
22.5
 20
-171.5
 11
22.5
 21
-174.5
  0
LINE
  8
0
 10
22.5
 20
-174.5
 11
30.5
 21
-174.5
  0
LINE
  8
0
 10
30.5
 20
-174.5
 11
30.5
 21
-161.5
  0
LINE
  8
0
 10
30.5
 20
-161.5
 11
27.5
 21
-161.5
  0
LINE
  8
0
 10
27.5
 20
-161.5
 11
27.5
 21
-156.5
  0
LINE
  8
0
 10
27.5
 20
-156.5
 11
30.5
 21
-156.5
  0
LINE
  8
0
 10
30.5
 20
-156.5
 11
30.5
 21
-120.5
  0
LINE
  8
0
 10
30.5
 20
-120.5
 11
27.5
 21
-120.5
  0
LINE
  8
0
 10
27.5
 20
-120.5
 11
27.5
 21
-115.5
  0
LINE
  8
0
 10
27.5
 20
-115.5
 11
30.5
 21
-115.5
  0
LINE
  8
0
 10
30.5
 20
-115.5
 11
30.5
 21
-79.5
  0
LINE
  8
0
 10
30.5
 20
-79.5
 11
27.5
 21
-79.5
  0
LINE
  8
0
 10
27.5
 20
-79.5
 11
27.5
 21
-74.5
  0
LINE
  8
0
 10
27.5
 20
-74.5
 11
30.5
 21
-74.5
  0
LINE
  8
0
 10
30.5
 20
-74.5
 11
30.5
 21
-61.5
  0
LINE
  8
0
 10
30.5
 20
-61.5
 11
22.5
 21
-61.5
  0
LINE
  8
0
 10
22.5
 20
-61.5
 11
22.5
 21
-64.5
  0
LINE
  8
0
 10
22.5
 20
-64.5
 11
17.5
 21
-64.5
  0
LINE
  8
0
 10
17.5
 20
-64.5
 11
17.5
 21
-61.5
  0
LINE
  8
0
 10
17.5
 20
-61.5
 11
-17.5
 21
-61.5
  0
LINE
  8
0
 10
-17.5
 20
-61.5
 11
-17.5
 21
-64.5
  0
LINE
  8
0
 10
-17.5
 20
-64.5
 11
-22.5
 21
-64.5
  0
LINE
  8
0
 10
-22.5
 20
-64.5
 11
-22.5
 21
-61.5
  0
LINE
  8
0
 10
-22.5
 20
-61.5
 11
-30.5
 21
-61.5
  0
LINE
  8
0
 10
-30.5
 20
-61.5
 11
-30.5
 21
-74.5
  0
LINE
  8
0
 10
-30.5
 20
-74.5
 11
-27.5
 21
-74.5
  0
LINE
  8
0
 10
-27.5
 20
-74.5
 11
-27.5
 21
-79.5
  0
LINE
  8
0
 10
-27.5
 20
-79.5
 11
-30.5
 21
-79.5
  0
LINE
  8
0
 10
-30.5
 20
-79.5
 11
-30.5
 21
-115.5
  0
LINE
  8
0
 10
-30.5
 20
-115.5
 11
-27.5
 21
-115.5
  0
LINE
  8
0
 10
-27.5
 20
-115.5
 11
-27.5
 21
-120.5
  0
LINE
  8
0
 10
-27.5
 20
-120.5
 11
-30.5
 21
-120.5
  0
LINE
  8
0
 10
-30.5
 20
-120.5
 11
-30.5
 21
-156.5
  0
LINE
  8
0
 10
-30.5
 20
-156.5
 11
-27.5
 21
-156.5
  0
LINE
  8
0
 10
-27.5
 20
-156.5
 11
-27.5
 21
-161.5
  0
LINE
  8
0
 10
-27.5
 20
-161.5
 11
-30.5
 21
-161.5
  0
LINE
  8
0
 10
-30.5
 20
-161.5
 11
-30.5
 21
-174.5
  0
LINE
  8
0
 10
-30.5
 20
-174.5
 11
-22.5
 21
-174.5
  0
LINE
  8
0
 10
-22.5
 20
-174.5
 11
-22.5
 21
-171.5
  0
LINE
  8
0
 10
-17.5
 20
-208.5
 11
17.5
 21
-208.5
  0
LINE
  8
0
 10
17.5
 20
-208.5
 11
17.5
 21
-211.5
  0
LINE
  8
0
 10
17.5
 20
-211.5
 11
22.5
 21
-211.5
  0
LINE
  8
0
 10
22.5
 20
-211.5
 11
22.5
 21
-208.5
  0
LINE
  8
0
 10
22.5
 20
-208.5
 11
30.5
 21
-208.5
  0
LINE
  8
0
 10
30.5
 20
-208.5
 11
30.5
 21
-198.5
  0
LINE
  8
0
 10
30.5
 20
-198.5
 11
27.5
 21
-198.5
  0
LINE
  8
0
 10
27.5
 20
-198.5
 11
27.5
 21
-192.5
  0
LINE
  8
0
 10
27.5
 20
-192.5
 11
30.5
 21
-192.5
  0
LINE
  8
0
 10
30.5
 20
-192.5
 11
30.5
 21
-182.5
  0
LINE
  8
0
 10
30.5
 20
-182.5
 11
22.5
 21
-182.5
  0
LINE
  8
0
 10
22.5
 20
-182.5
 11
22.5
 21
-179.5
  0
LINE
  8
0
 10
22.5
 20
-179.5
 11
17.5
 21
-179.5
  0
LINE
  8
0
 10
17.5
 20
-179.5
 11
17.5
 21
-182.5
  0
LINE
  8
0
 10
17.5
 20
-182.5
 11
-17.5
 21
-182.5
  0
LINE
  8
0
 10
-17.5
 20
-182.5
 11
-17.5
 21
-179.5
  0
LINE
  8
0
 10
-17.5
 20
-179.5
 11
-22.5
 21
-179.5
  0
LINE
  8
0
 10
-22.5
 20
-179.5
 11
-22.5
 21
-182.5
  0
LINE
  8
0
 10
-22.5
 20
-182.5
 11
-30.5
 21
-182.5
  0
LINE
  8
0
 10
-30.5
 20
-182.5
 11
-30.5
 21
-192.5
  0
LINE
  8
0
 10
-30.5
 20
-192.5
 11
-27.5
 21
-192.5
  0
LINE
  8
0
 10
-27.5
 20
-192.5
 11
-27.5
 21
-198.5
  0
LINE
  8
0
 10
-27.5
 20
-198.5
 11
-30.5
 21
-198.5
  0
LINE
  8
0
 10
-30.5
 20
-198.5
 11
-30.5
 21
-208.5
  0
LINE
  8
0
 10
-30.5
 20
-208.5
 11
-22.5
 21
-208.5
  0
LINE
  8
0
 10
-22.5
 20
-208.5
 11
-22.5
 21
-211.5
  0
LINE
  8
0
 10
-22.5
 20
-211.5
 11
-17.5
 21
-211.5
  0
LINE
  8
0
 10
-17.5
 20
-211.5
 11
-17.5
 21
-208.5
  0
LINE
  8
0
 10
-17.5
 20
-245.5
 11
17.5
 21
-245.5
  0
LINE
  8
0
 10
17.5
 20
-245.5
 11
17.5
 21
-248.5
  0
LINE
  8
0
 10
17.5
 20
-248.5
 11
22.5
 21
-248.5
  0
LINE
  8
0
 10
22.5
 20
-248.5
 11
22.5
 21
-245.5
  0
LINE
  8
0
 10
22.5
 20
-245.5
 11
30.5
 21
-245.5
  0
LINE
  8
0
 10
30.5
 20
-245.5
 11
30.5
 21
-235.5
  0
LINE
  8
0
 10
30.5
 20
-235.5
 11
27.5
 21
-235.5
  0
LINE
  8
0
 10
27.5
 20
-235.5
 11
27.5
 21
-229.5
  0
LINE
  8
0
 10
27.5
 20
-229.5
 11
30.5
 21
-229.5
  0
LINE
  8
0
 10
30.5
 20
-229.5
 11
30.5
 21
-219.5
  0
LINE
  8
0
 10
30.5
 20
-219.5
 11
22.5
 21
-219.5
  0
LINE
  8
0
 10
22.5
 20
-219.5
 11
22.5
 21
-216.5
  0
LINE
  8
0
 10
22.5
 20
-216.5
 11
17.5
 21
-216.5
  0
LINE
  8
0
 10
17.5
 20
-216.5
 11
17.5
 21
-219.5
  0
LINE
  8
0
 10
17.5
 20
-219.5
 11
5.79433
 21
-219.5
  0
LINE
  8
0
 10
5.79433
 20
-219.5
 11
4.95703
 21
-225.688
  0
LINE
  8
0
 10
4.95703
 20
-225.688
 11
-4.63086
 21
-225.688
  0
LINE
  8
0
 10
-4.63086
 20
-225.688
 11
-5.77374
 21
-219.5
  0
LINE
  8
0
 10
-5.77374
 20
-219.5
 11
-17.5
 21
-219.5
  0
LINE
  8
0
 10
-17.5
 20
-219.5
 11
-17.5
 21
-216.5
  0
LINE
  8
0
 10
-17.5
 20
-216.5
 11
-22.5
 21
-216.5
  0
LINE
  8
0
 10
-22.5
 20
-216.5
 11
-22.5
 21
-219.5
  0
LINE
  8
0
 10
-22.5
 20
-219.5
 11
-30.5
 21
-219.5
  0
LINE
  8
0
 10
-30.5
 20
-219.5
 11
-30.5
 21
-229.5
  0
LINE
  8
0
 10
-30.5
 20
-229.5
 11
-27.5
 21
-229.5
  0
LINE
  8
0
 10
-27.5
 20
-229.5
 11
-27.5
 21
-235.5
  0
LINE
  8
0
 10
-27.5
 20
-235.5
 11
-30.5
 21
-235.5
  0
LINE
  8
0
 10
-30.5
 20
-235.5
 11
-30.5
 21
-245.5
  0
LINE
  8
0
 10
-30.5
 20
-245.5
 11
-22.5
 21
-245.5
  0
LINE
  8
0
 10
-22.5
 20
-245.5
 11
-22.5
 21
-248.5
  0
LINE
  8
0
 10
-22.5
 20
-248.5
 11
-17.5
 21
-248.5
  0
LINE
  8
0
 10
-17.5
 20
-248.5
 11
-17.5
 21
-245.5
  0
LINE
  8
0
 10
-38.5
 20
-282.5
 11
-2.5
 21
-282.5
  0
LINE
  8
0
 10
-2.5
 20
-282.5
 11
-2.5
 21
-285.5
  0
LINE
  8
0
 10
-2.5
 20
-285.5
 11
2.5
 21
-285.5
  0
LINE
  8
0
 10
2.5
 20
-285.5
 11
2.5
 21
-282.5
  0
LINE
  8
0
 10
2.5
 20
-282.5
 11
38.5
 21
-282.5
  0
LINE
  8
0
 10
38.5
 20
-282.5
 11
38.5
 21
-285.5
  0
LINE
  8
0
 10
38.5
 20
-285.5
 11
43.5
 21
-285.5
  0
LINE
  8
0
 10
43.5
 20
-285.5
 11
43.5
 21
-282.5
  0
LINE
  8
0
 10
43.5
 20
-282.5
 11
53.5
 21
-282.5
  0
LINE
  8
0
 10
53.5
 20
-282.5
 11
53.5
 21
-272.5
  0
LINE
  8
0
 10
53.5
 20
-272.5
 11
56.5
 21
-272.5
  0
LINE
  8
0
 10
56.5
 20
-272.5
 11
56.5
 21
-266.5
  0
LINE
  8
0
 10
56.5
 20
-266.5
 11
53.5
 21
-266.5
  0
LINE
  8
0
 10
53.5
 20
-266.5
 11
53.5
 21
-256.5
  0
LINE
  8
0
 10
53.5
 20
-256.5
 11
43.5
 21
-256.5
  0
LINE
  8
0
 10
43.5
 20
-256.5
 11
43.5
 21
-253.5
  0
LINE
  8
0
 10
43.5
 20
-253.5
 11
38.5
 21
-253.5
  0
LINE
  8
0
 10
38.5
 20
-253.5
 11
38.5
 21
-256.5
  0
LINE
  8
0
 10
38.5
 20
-256.5
 11
2.5
 21
-256.5
  0
LINE
  8
0
 10
2.5
 20
-256.5
 11
2.5
 21
-253.5
  0
LINE
  8
0
 10
2.5
 20
-253.5
 11
-2.5
 21
-253.5
  0
LINE
  8
0
 10
-2.5
 20
-253.5
 11
-2.5
 21
-256.5
  0
LINE
  8
0
 10
-2.5
 20
-256.5
 11
-38.5
 21
-256.5
  0
LINE
  8
0
 10
-38.5
 20
-256.5
 11
-38.5
 21
-253.5
  0
LINE
  8
0
 10
-38.5
 20
-253.5
 11
-43.5
 21
-253.5
  0
LINE
  8
0
 10
-43.5
 20
-253.5
 11
-43.5
 21
-256.5
  0
LINE
  8
0
 10
-43.5
 20
-256.5
 11
-53.5
 21
-256.5
  0
LINE
  8
0
 10
-53.5
 20
-256.5
 11
-53.5
 21
-266.5
  0
LINE
  8
0
 10
-53.5
 20
-266.5
 11
-56.5
 21
-266.5
  0
LINE
  8
0
 10
-56.5
 20
-266.5
 11
-56.5
 21
-272.5
  0
LINE
  8
0
 10
-56.5
 20
-272.5
 11
-53.5
 21
-272.5
  0
LINE
  8
0
 10
-53.5
 20
-272.5
 11
-53.5
 21
-282.5
  0
LINE
  8
0
 10
-53.5
 20
-282.5
 11
-43.5
 21
-282.5
  0
LINE
  8
0
 10
-43.5
 20
-282.5
 11
-43.5
 21
-285.5
  0
LINE
  8
0
 10
-43.5
 20
-285.5
 11
-38.5
 21
-285.5
  0
LINE
  8
0
 10
-38.5
 20
-285.5
 11
-38.5
 21
-282.5
  0
LINE
  8
0
 10
22.249
 20
-270.663
 11
21.6123
 21
-270.465
  0
LINE
  8
0
 10
21.6123
 20
-270.465
 11
21.0352
 21
-270.152
  0
LINE
  8
0
 10
21.0352
 20
-270.152
 11
20.5322
 21
-269.737
  0
LINE
  8
0
 10
20.5322
 20
-269.737
 11
20.1182
 21
-269.235
  0
LINE
  8
0
 10
20.1182
 20
-269.235
 11
19.8047
 21
-268.658
  0
LINE
  8
0
 10
19.8047
 20
-268.658
 11
19.6074
 21
-268.021
  0
LINE
  8
0
 10
19.6074
 20
-268.021
 11
19.5381
 21
-267.337
  0
LINE
  8
0
 10
19.5381
 20
-267.337
 11
19.6074
 21
-266.652
  0
LINE
  8
0
 10
19.6074
 20
-266.652
 11
19.8047
 21
-266.015
  0
LINE
  8
0
 10
19.8047
 20
-266.015
 11
20.1182
 21
-265.438
  0
LINE
  8
0
 10
20.1182
 20
-265.438
 11
20.5322
 21
-264.936
  0
LINE
  8
0
 10
20.5322
 20
-264.936
 11
21.0352
 21
-264.521
  0
LINE
  8
0
 10
21.0352
 20
-264.521
 11
21.6123
 21
-264.208
  0
LINE
  8
0
 10
21.6123
 20
-264.208
 11
22.249
 21
-264.01
  0
LINE
  8
0
 10
22.249
 20
-264.01
 11
22.9336
 21
-263.94
  0
LINE
  8
0
 10
22.9336
 20
-263.94
 11
23.6182
 21
-264.01
  0
LINE
  8
0
 10
23.6182
 20
-264.01
 11
24.2559
 21
-264.208
  0
LINE
  8
0
 10
24.2559
 20
-264.208
 11
24.832
 21
-264.521
  0
LINE
  8
0
 10
24.832
 20
-264.521
 11
25.335
 21
-264.936
  0
LINE
  8
0
 10
25.335
 20
-264.936
 11
25.749
 21
-265.438
  0
LINE
  8
0
 10
25.749
 20
-265.438
 11
26.0625
 21
-266.015
  0
LINE
  8
0
 10
26.0625
 20
-266.015
 11
26.2607
 21
-266.652
  0
LINE
  8
0
 10
26.2607
 20
-266.652
 11
26.3291
 21
-267.337
  0
LINE
  8
0
 10
26.3291
 20
-267.337
 11
26.2607
 21
-268.021
  0
LINE
  8
0
 10
26.2607
 20
-268.021
 11
26.0625
 21
-268.658
  0
LINE
  8
0
 10
26.0625
 20
-268.658
 11
25.749
 21
-269.235
  0
LINE
  8
0
 10
25.749
 20
-269.235
 11
25.335
 21
-269.737
  0
LINE
  8
0
 10
25.335
 20
-269.737
 11
24.832
 21
-270.152
  0
LINE
  8
0
 10
24.832
 20
-270.152
 11
24.2559
 21
-270.465
  0
LINE
  8
0
 10
24.2559
 20
-270.465
 11
23.6182
 21
-270.663
  0
LINE
  8
0
 10
23.6182
 20
-270.663
 11
22.9336
 21
-270.732
  0
LINE
  8
0
 10
22.9336
 20
-270.732
 11
22.249
 21
-270.663
  0
LINE
  8
0
 10
-17.5107
 20
-275.243
 11
-18.2363
 21
-275.018
  0
LINE
  8
0
 10
-18.2363
 20
-275.018
 11
-18.8926
 21
-274.662
  0
LINE
  8
0
 10
-18.8926
 20
-274.662
 11
-19.4648
 21
-274.189
  0
LINE
  8
0
 10
-19.4648
 20
-274.189
 11
-19.9365
 21
-273.618
  0
LINE
  8
0
 10
-19.9365
 20
-273.618
 11
-20.293
 21
-272.961
  0
LINE
  8
0
 10
-20.293
 20
-272.961
 11
-20.5186
 21
-272.235
  0
LINE
  8
0
 10
-20.5186
 20
-272.235
 11
-20.5967
 21
-271.457
  0
LINE
  8
0
 10
-20.5967
 20
-271.457
 11
-20.5186
 21
-270.678
  0
LINE
  8
0
 10
-20.5186
 20
-270.678
 11
-20.293
 21
-269.952
  0
LINE
  8
0
 10
-20.293
 20
-269.952
 11
-19.9365
 21
-269.296
  0
LINE
  8
0
 10
-19.9365
 20
-269.296
 11
-19.4648
 21
-268.725
  0
LINE
  8
0
 10
-19.4648
 20
-268.725
 11
-18.8926
 21
-268.252
  0
LINE
  8
0
 10
-18.8926
 20
-268.252
 11
-18.2363
 21
-267.896
  0
LINE
  8
0
 10
-18.2363
 20
-267.896
 11
-17.5107
 21
-267.671
  0
LINE
  8
0
 10
-17.5107
 20
-267.671
 11
-16.7324
 21
-267.592
  0
LINE
  8
0
 10
-16.7324
 20
-267.592
 11
-15.9531
 21
-267.671
  0
LINE
  8
0
 10
-15.9531
 20
-267.671
 11
-15.2275
 21
-267.896
  0
LINE
  8
0
 10
-15.2275
 20
-267.896
 11
-14.5713
 21
-268.252
  0
LINE
  8
0
 10
-14.5713
 20
-268.252
 11
-13.999
 21
-268.725
  0
LINE
  8
0
 10
-13.999
 20
-268.725
 11
-13.5273
 21
-269.296
  0
LINE
  8
0
 10
-13.5273
 20
-269.296
 11
-13.1709
 21
-269.952
  0
LINE
  8
0
 10
-13.1709
 20
-269.952
 11
-12.9463
 21
-270.678
  0
LINE
  8
0
 10
-12.9463
 20
-270.678
 11
-12.8672
 21
-271.457
  0
LINE
  8
0
 10
-12.8672
 20
-271.457
 11
-12.9463
 21
-272.235
  0
LINE
  8
0
 10
-12.9463
 20
-272.235
 11
-13.1709
 21
-272.961
  0
LINE
  8
0
 10
-13.1709
 20
-272.961
 11
-13.5273
 21
-273.618
  0
LINE
  8
0
 10
-13.5273
 20
-273.618
 11
-13.999
 21
-274.189
  0
LINE
  8
0
 10
-13.999
 20
-274.189
 11
-14.5713
 21
-274.662
  0
LINE
  8
0
 10
-14.5713
 20
-274.662
 11
-15.2275
 21
-275.018
  0
LINE
  8
0
 10
-15.2275
 20
-275.018
 11
-15.9531
 21
-275.243
  0
LINE
  8
0
 10
-15.9531
 20
-275.243
 11
-16.7324
 21
-275.321
  0
LINE
  8
0
 10
-16.7324
 20
-275.321
 11
-17.5107
 21
-275.243
  0
LINE
  8
0
 10
-38.5
 20
-319.5
 11
-2.5
 21
-319.5
  0
LINE
  8
0
 10
-2.5
 20
-319.5
 11
-2.5
 21
-322.5
  0
LINE
  8
0
 10
-2.5
 20
-322.5
 11
2.5
 21
-322.5
  0
LINE
  8
0
 10
2.5
 20
-322.5
 11
2.5
 21
-319.5
  0
LINE
  8
0
 10
2.5
 20
-319.5
 11
38.5
 21
-319.5
  0
LINE
  8
0
 10
38.5
 20
-319.5
 11
38.5
 21
-322.5
  0
LINE
  8
0
 10
38.5
 20
-322.5
 11
43.5
 21
-322.5
  0
LINE
  8
0
 10
43.5
 20
-322.5
 11
43.5
 21
-319.5
  0
LINE
  8
0
 10
43.5
 20
-319.5
 11
53.5
 21
-319.5
  0
LINE
  8
0
 10
53.5
 20
-319.5
 11
53.5
 21
-309.5
  0
LINE
  8
0
 10
53.5
 20
-309.5
 11
56.5
 21
-309.5
  0
LINE
  8
0
 10
56.5
 20
-309.5
 11
56.5
 21
-303.5
  0
LINE
  8
0
 10
56.5
 20
-303.5
 11
53.5
 21
-303.5
  0
LINE
  8
0
 10
53.5
 20
-303.5
 11
53.5
 21
-293.5
  0
LINE
  8
0
 10
53.5
 20
-293.5
 11
43.5
 21
-293.5
  0
LINE
  8
0
 10
43.5
 20
-293.5
 11
43.5
 21
-290.5
  0
LINE
  8
0
 10
43.5
 20
-290.5
 11
38.5
 21
-290.5
  0
LINE
  8
0
 10
38.5
 20
-290.5
 11
38.5
 21
-293.5
  0
LINE
  8
0
 10
38.5
 20
-293.5
 11
2.5
 21
-293.5
  0
LINE
  8
0
 10
2.5
 20
-293.5
 11
2.5
 21
-290.5
  0
LINE
  8
0
 10
2.5
 20
-290.5
 11
-2.5
 21
-290.5
  0
LINE
  8
0
 10
-2.5
 20
-290.5
 11
-2.5
 21
-293.5
  0
LINE
  8
0
 10
-2.5
 20
-293.5
 11
-38.5
 21
-293.5
  0
LINE
  8
0
 10
-38.5
 20
-293.5
 11
-38.5
 21
-290.5
  0
LINE
  8
0
 10
-38.5
 20
-290.5
 11
-43.5
 21
-290.5
  0
LINE
  8
0
 10
-43.5
 20
-290.5
 11
-43.5
 21
-293.5
  0
LINE
  8
0
 10
-43.5
 20
-293.5
 11
-53.5
 21
-293.5
  0
LINE
  8
0
 10
-53.5
 20
-293.5
 11
-53.5
 21
-303.5
  0
LINE
  8
0
 10
-53.5
 20
-303.5
 11
-56.5
 21
-303.5
  0
LINE
  8
0
 10
-56.5
 20
-303.5
 11
-56.5
 21
-309.5
  0
LINE
  8
0
 10
-56.5
 20
-309.5
 11
-53.5
 21
-309.5
  0
LINE
  8
0
 10
-53.5
 20
-309.5
 11
-53.5
 21
-319.5
  0
LINE
  8
0
 10
-53.5
 20
-319.5
 11
-43.5
 21
-319.5
  0
LINE
  8
0
 10
-43.5
 20
-319.5
 11
-43.5
 21
-322.5
  0
LINE
  8
0
 10
-43.5
 20
-322.5
 11
-38.5
 21
-322.5
  0
LINE
  8
0
 10
-38.5
 20
-322.5
 11
-38.5
 21
-319.5
  0
LINE
  8
0
 10
-17.5107
 20
-308.122
 11
-18.2363
 21
-307.896
  0
LINE
  8
0
 10
-18.2363
 20
-307.896
 11
-18.8926
 21
-307.54
  0
LINE
  8
0
 10
-18.8926
 20
-307.54
 11
-19.4648
 21
-307.068
  0
LINE
  8
0
 10
-19.4648
 20
-307.068
 11
-19.9365
 21
-306.496
  0
LINE
  8
0
 10
-19.9365
 20
-306.496
 11
-20.293
 21
-305.84
  0
LINE
  8
0
 10
-20.293
 20
-305.84
 11
-20.5186
 21
-305.114
  0
LINE
  8
0
 10
-20.5186
 20
-305.114
 11
-20.5967
 21
-304.336
  0
LINE
  8
0
 10
-20.5967
 20
-304.336
 11
-20.5186
 21
-303.557
  0
LINE
  8
0
 10
-20.5186
 20
-303.557
 11
-20.293
 21
-302.831
  0
LINE
  8
0
 10
-20.293
 20
-302.831
 11
-19.9365
 21
-302.175
  0
LINE
  8
0
 10
-19.9365
 20
-302.175
 11
-19.4648
 21
-301.603
  0
LINE
  8
0
 10
-19.4648
 20
-301.603
 11
-18.8926
 21
-301.131
  0
LINE
  8
0
 10
-18.8926
 20
-301.131
 11
-18.2363
 21
-300.774
  0
LINE
  8
0
 10
-18.2363
 20
-300.774
 11
-17.5107
 21
-300.55
  0
LINE
  8
0
 10
-17.5107
 20
-300.55
 11
-16.7324
 21
-300.471
  0
LINE
  8
0
 10
-16.7324
 20
-300.471
 11
-15.9531
 21
-300.55
  0
LINE
  8
0
 10
-15.9531
 20
-300.55
 11
-15.2275
 21
-300.774
  0
LINE
  8
0
 10
-15.2275
 20
-300.774
 11
-14.5713
 21
-301.131
  0
LINE
  8
0
 10
-14.5713
 20
-301.131
 11
-13.999
 21
-301.603
  0
LINE
  8
0
 10
-13.999
 20
-301.603
 11
-13.5273
 21
-302.175
  0
LINE
  8
0
 10
-13.5273
 20
-302.175
 11
-13.1709
 21
-302.831
  0
LINE
  8
0
 10
-13.1709
 20
-302.831
 11
-12.9463
 21
-303.557
  0
LINE
  8
0
 10
-12.9463
 20
-303.557
 11
-12.8672
 21
-304.336
  0
LINE
  8
0
 10
-12.8672
 20
-304.336
 11
-12.9463
 21
-305.114
  0
LINE
  8
0
 10
-12.9463
 20
-305.114
 11
-13.1709
 21
-305.84
  0
LINE
  8
0
 10
-13.1709
 20
-305.84
 11
-13.5273
 21
-306.496
  0
LINE
  8
0
 10
-13.5273
 20
-306.496
 11
-13.999
 21
-307.068
  0
LINE
  8
0
 10
-13.999
 20
-307.068
 11
-14.5713
 21
-307.54
  0
LINE
  8
0
 10
-14.5713
 20
-307.54
 11
-15.2275
 21
-307.896
  0
LINE
  8
0
 10
-15.2275
 20
-307.896
 11
-15.9531
 21
-308.122
  0
LINE
  8
0
 10
-15.9531
 20
-308.122
 11
-16.7324
 21
-308.2
  0
LINE
  8
0
 10
-16.7324
 20
-308.2
 11
-17.5107
 21
-308.122
  0
LINE
  8
0
 10
22.249
 20
-311.783
 11
21.6123
 21
-311.585
  0
LINE
  8
0
 10
21.6123
 20
-311.585
 11
21.0352
 21
-311.271
  0
LINE
  8
0
 10
21.0352
 20
-311.271
 11
20.5322
 21
-310.857
  0
LINE
  8
0
 10
20.5322
 20
-310.857
 11
20.1182
 21
-310.354
  0
LINE
  8
0
 10
20.1182
 20
-310.354
 11
19.8047
 21
-309.778
  0
LINE
  8
0
 10
19.8047
 20
-309.778
 11
19.6074
 21
-309.141
  0
LINE
  8
0
 10
19.6074
 20
-309.141
 11
19.5381
 21
-308.456
  0
LINE
  8
0
 10
19.5381
 20
-308.456
 11
19.6074
 21
-307.771
  0
LINE
  8
0
 10
19.6074
 20
-307.771
 11
19.8047
 21
-307.135
  0
LINE
  8
0
 10
19.8047
 20
-307.135
 11
20.1182
 21
-306.558
  0
LINE
  8
0
 10
20.1182
 20
-306.558
 11
20.5322
 21
-306.055
  0
LINE
  8
0
 10
20.5322
 20
-306.055
 11
21.0352
 21
-305.641
  0
LINE
  8
0
 10
21.0352
 20
-305.641
 11
21.6123
 21
-305.327
  0
LINE
  8
0
 10
21.6123
 20
-305.327
 11
22.249
 21
-305.13
  0
LINE
  8
0
 10
22.249
 20
-305.13
 11
22.9336
 21
-305.061
  0
LINE
  8
0
 10
22.9336
 20
-305.061
 11
23.6182
 21
-305.13
  0
LINE
  8
0
 10
23.6182
 20
-305.13
 11
24.2559
 21
-305.327
  0
LINE
  8
0
 10
24.2559
 20
-305.327
 11
24.832
 21
-305.641
  0
LINE
  8
0
 10
24.832
 20
-305.641
 11
25.335
 21
-306.055
  0
LINE
  8
0
 10
25.335
 20
-306.055
 11
25.749
 21
-306.558
  0
LINE
  8
0
 10
25.749
 20
-306.558
 11
26.0625
 21
-307.135
  0
LINE
  8
0
 10
26.0625
 20
-307.135
 11
26.2607
 21
-307.771
  0
LINE
  8
0
 10
26.2607
 20
-307.771
 11
26.3291
 21
-308.456
  0
LINE
  8
0
 10
26.3291
 20
-308.456
 11
26.2607
 21
-309.141
  0
LINE
  8
0
 10
26.2607
 20
-309.141
 11
26.0625
 21
-309.778
  0
LINE
  8
0
 10
26.0625
 20
-309.778
 11
25.749
 21
-310.354
  0
LINE
  8
0
 10
25.749
 20
-310.354
 11
25.335
 21
-310.857
  0
LINE
  8
0
 10
25.335
 20
-310.857
 11
24.832
 21
-311.271
  0
LINE
  8
0
 10
24.832
 20
-311.271
 11
24.2559
 21
-311.585
  0
LINE
  8
0
 10
24.2559
 20
-311.585
 11
23.6182
 21
-311.783
  0
LINE
  8
0
 10
23.6182
 20
-311.783
 11
22.9336
 21
-311.852
  0
LINE
  8
0
 10
22.9336
 20
-311.852
 11
22.249
 21
-311.783
  0
ENDSEC
  0
SECTION
  2
OBJECTS
  0
DICTIONARY
  0
ENDSEC
  0
EOF
