  0
SECTION
  2
HEADER
  9
$ACADVER
  1
AC1014
  9
$HANDSEED
  5
FFFF
  9
$MEASUREMENT
 70
     1
  0
ENDSEC
  0
SECTION
  2
TABLES
  0
TABLE
  2
VPORT
  5
8
330
0
100
AcDbSymbolTable
 70
     4
  0
VPORT
  5
2E
330
8
100
AcDbSymbolTableRecord
100
AcDbViewportTableRecord
  2
*ACTIVE
 70
     0
 10
0.0
 20
0.0
 11
1.0
 21
1.0
 12
210.0
 22
148.5
 13
0.0
 23
0.0
 14
10.0
 24
10.0
 15
10.0
 25
10.0
 16
0.0
 26
0.0
 36
1.0
 17
0.0
 27
0.0
 37
0.0
 40
341.0
 41
1.24
 42
50.0
 43
0.0
 44
0.0
 50
0.0
 51
0.0
 71
     0
 72
   100
 73
     1
 74
     3
 75
     0
 76
     0
 77
     0
 78
     0
  0
ENDTAB
  0
TABLE
  2
LTYPE
  5
5
330
0
100
AcDbSymbolTable
 70
     1
  0
LTYPE
  5
14
330
5
100
AcDbSymbolTableRecord
100
AcDbLinetypeTableRecord
  2
BYBLOCK
 70
     0
  3

 72
    65
 73
     0
 40
0.0
  0
LTYPE
  5
15
330
5
100
AcDbSymbolTableRecord
100
AcDbLinetypeTableRecord
  2
BYLAYER
 70
     0
  3

 72
    65
 73
     0
 40
0.0
  0
LTYPE
  5
16
330
5
100
AcDbSymbolTableRecord
100
AcDbLinetypeTableRecord
  2
CONTINUOUS
 70
     0
  3
Solid line
 72
    65
 73
     0
 40
0.0
  0
ENDTAB
  0
TABLE
  2
LAYER
  5
2
100
AcDbSymbolTable
 70
1
  0
LAYER
  5
50
100
AcDbSymbolTableRecord
100
AcDbLayerTableRecord
  2
0
 70
0
  6
CONTINUOUS
  0
ENDTAB
  0
TABLE
  2
STYLE
  5
3
330
0
100
AcDbSymbolTable
 70
     1
  0
STYLE
  5
11
330
3
100
AcDbSymbolTableRecord
100
AcDbTextStyleTableRecord
  2
STANDARD
 70
     0
 40
0.0
 41
1.0
 50
0.0
 71
     0
 42
2.5
  3
txt
  4

  0
ENDTAB
  0
TABLE
  2
VIEW
  5
6
330
0
100
AcDbSymbolTable
 70
     0
  0
ENDTAB
  0
TABLE
  2
UCS
  5
7
330
0
100
AcDbSymbolTable
 70
     0
  0
ENDTAB
  0
TABLE
  2
APPID
  5
9
330
0
100
AcDbSymbolTable
 70
     2
  0
APPID
  5
12
330
9
100
AcDbSymbolTableRecord
100
AcDbRegAppTableRecord
  2
ACAD
 70
     0
  0
ENDTAB
  0
TABLE
  2
DIMSTYLE
  5
A
330
0
100
AcDbSymbolTable
 70
     1
  0
DIMSTYLE
105
27
330
A
100
AcDbSymbolTableRecord
100
AcDbDimStyleTableRecord
  2
ISO-25
 70
     0
  3

  4

  5

  6

  7

 40
1.0
 41
2.5
 42
0.625
 43
3.75
 44
1.25
 45
0.0
 46
0.0
 47
0.0
 48
0.0
140
2.5
141
2.5
142
0.0
143
0.03937007874016
144
1.0
145
0.0
146
1.0
147
0.625
 71
     0
 72
     0
 73
     0
 74
     0
 75
     0
 76
     0
 77
     1
 78
     8
170
     0
171
     3
172
     1
173
     0
174
     0
175
     0
176
     0
177
     0
178
     0
270
     2
271
     2
272
     2
273
     2
274
     3
340
11
275
     0
280
     0
281
     0
282
     0
283
     0
284
     8
285
     0
286
     0
287
     3
288
     0
  0
ENDTAB
  0
TABLE
  2
BLOCK_RECORD
  5
1
330
0
100
AcDbSymbolTable
 70
     1
  0
BLOCK_RECORD
  5
1F
330
1
100
AcDbSymbolTableRecord
100
AcDbBlockTableRecord
  2
*MODEL_SPACE
  0
BLOCK_RECORD
  5
1B
330
1
100
AcDbSymbolTableRecord
100
AcDbBlockTableRecord
  2
*PAPER_SPACE
  0
ENDTAB
  0
ENDSEC
  0
SECTION
  2
BLOCKS
  0
BLOCK
  5
20
330
1F
100
AcDbEntity
  8
0
100
AcDbBlockBegin
  2
*MODEL_SPACE
 70
     0
 10
0.0
 20
0.0
 30
0.0
  3
*MODEL_SPACE
  1

  0
ENDBLK
  5
21
330
1F
100
AcDbEntity
  8
0
100
AcDbBlockEnd
  0
BLOCK
  5
1C
330
1B
100
AcDbEntity
 67
     1
  8
0
100
AcDbBlockBegin
  2
*PAPER_SPACE
  1

  0
ENDBLK
  5
1D
330
1B
100
AcDbEntity
 67
     1
  8
0
100
AcDbBlockEnd
  0
ENDSEC
  0
SECTION
  2
ENTITIES
  0
LWPOLYLINE
  5
100
100
AcDbEntity
  8
0
 62
7
100
AcDbPolyline
 90
45
 70
0
 10
115.451226
 20
276.392534
 30
0.0
 10
115.451226
 20
280.392535
 30
0.0
 10
118.451228
 20
280.392535
 30
0.0
 10
118.451228
 20
292.392533
 30
0.0
 10
103.451227
 20
292.392533
 30
0.0
 10
103.451227
 20
289.392533
 30
0.0
 10
99.451227
 20
289.392533
 30
0.0
 10
99.451227
 20
292.392533
 30
0.0
 10
63.951227
 20
292.392533
 30
0.0
 10
63.951227
 20
289.392533
 30
0.0
 10
59.951246
 20
289.392533
 30
0.0
 10
59.951246
 20
292.392533
 30
0.0
 10
24.451227
 20
292.392533
 30
0.0
 10
24.451227
 20
289.392533
 30
0.0
 10
20.451227
 20
289.392533
 30
0.0
 10
20.451227
 20
292.392533
 30
0.0
 10
5.451226
 20
292.392533
 30
0.0
 10
5.451226
 20
280.392535
 30
0.0
 10
8.451228
 20
280.392535
 30
0.0
 10
8.451228
 20
276.392534
 30
0.0
 10
5.451226
 20
276.392534
 30
0.0
 10
5.451226
 20
247.392532
 30
0.0
 10
8.451228
 20
247.392532
 30
0.0
 10
8.451228
 20
243.392535
 30
0.0
 10
5.451226
 20
243.392535
 30
0.0
 10
5.451226
 20
231.392533
 30
0.0
 10
20.451227
 20
231.392533
 30
0.0
 10
20.451227
 20
234.392533
 30
0.0
 10
24.451227
 20
234.392533
 30
0.0
 10
24.451227
 20
231.392533
 30
0.0
 10
59.951227
 20
231.392533
 30
0.0
 10
59.951227
 20
234.392533
 30
0.0
 10
63.951207
 20
234.392533
 30
0.0
 10
63.951207
 20
231.392533
 30
0.0
 10
99.451227
 20
231.392533
 30
0.0
 10
99.451227
 20
234.392533
 30
0.0
 10
103.451227
 20
234.392533
 30
0.0
 10
103.451227
 20
231.392533
 30
0.0
 10
118.451228
 20
231.392533
 30
0.0
 10
118.451228
 20
243.392535
 30
0.0
 10
115.451226
 20
243.392535
 30
0.0
 10
115.451226
 20
247.392532
 30
0.0
 10
118.451228
 20
247.392532
 30
0.0
 10
118.451228
 20
276.392534
 30
0.0
 10
115.451226
 20
276.392534
 30
0.0
  0
LWPOLYLINE
  5
101
100
AcDbEntity
  8
0
 62
7
100
AcDbPolyline
 90
65
 70
0
 10
58.002987
 20
244.046833
 30
0.0
 10
57.936578
 20
243.611333
 30
0.0
 10
57.829158
 20
243.191333
 30
0.0
 10
57.681697
 20
242.789033
 30
0.0
 10
57.497127
 20
242.405234
 30
0.0
 10
57.277397
 20
242.043933
 30
0.0
 10
57.024467
 20
241.706034
 30
0.0
 10
56.741268
 20
241.394534
 30
0.0
 10
56.430716
 20
241.112233
 30
0.0
 10
56.092826
 20
240.859333
 30
0.0
 10
55.731497
 20
240.639635
 30
0.0
 10
55.347708
 20
240.455033
 30
0.0
 10
54.945367
 20
240.307532
 30
0.0
 10
54.525448
 20
240.200133
 30
0.0
 10
54.089897
 20
240.133734
 30
0.0
 10
53.641658
 20
240.110338
 30
0.0
 10
53.193416
 20
240.133729
 30
0.0
 10
52.757868
 20
240.200133
 30
0.0
 10
52.337946
 20
240.307532
 30
0.0
 10
51.934628
 20
240.455033
 30
0.0
 10
51.551828
 20
240.639635
 30
0.0
 10
51.189528
 20
240.859333
 30
0.0
 10
50.852628
 20
241.112233
 30
0.0
 10
50.541026
 20
241.394534
 30
0.0
 10
50.257828
 20
241.706034
 30
0.0
 10
50.005927
 20
242.043933
 30
0.0
 10
49.786226
 20
242.405234
 30
0.0
 10
49.601627
 20
242.789033
 30
0.0
 10
49.454126
 20
243.191333
 30
0.0
 10
49.345728
 20
243.611333
 30
0.0
 10
49.279326
 20
244.046833
 30
0.0
 10
49.256918
 20
244.495033
 30
0.0
 10
49.279335
 20
244.943334
 30
0.0
 10
49.345728
 20
245.378834
 30
0.0
 10
49.454126
 20
245.798733
 30
0.0
 10
49.601627
 20
246.202133
 30
0.0
 10
49.786226
 20
246.584934
 30
0.0
 10
50.005927
 20
246.946235
 30
0.0
 10
50.257828
 20
247.284134
 30
0.0
 10
50.541026
 20
247.595633
 30
0.0
 10
50.852628
 20
247.878832
 30
0.0
 10
51.189528
 20
248.130834
 30
0.0
 10
51.551828
 20
248.350533
 30
0.0
 10
51.934628
 20
248.535134
 30
0.0
 10
52.337946
 20
248.682635
 30
0.0
 10
52.757868
 20
248.791034
 30
0.0
 10
53.193416
 20
248.857435
 30
0.0
 10
53.641658
 20
248.879843
 30
0.0
 10
54.089897
 20
248.857426
 30
0.0
 10
54.525448
 20
248.791034
 30
0.0
 10
54.945367
 20
248.682533
 30
0.0
 10
55.347708
 20
248.535134
 30
0.0
 10
55.731497
 20
248.350533
 30
0.0
 10
56.092826
 20
248.130834
 30
0.0
 10
56.430716
 20
247.878832
 30
0.0
 10
56.741268
 20
247.595633
 30
0.0
 10
57.024467
 20
247.284134
 30
0.0
 10
57.277397
 20
246.946235
 30
0.0
 10
57.497127
 20
246.584934
 30
0.0
 10
57.681697
 20
246.202133
 30
0.0
 10
57.829158
 20
245.798733
 30
0.0
 10
57.936578
 20
245.378834
 30
0.0
 10
58.002987
 20
244.943334
 30
0.0
 10
58.025452
 20
244.495033
 30
0.0
 10
58.002982
 20
244.046833
 30
0.0
  0
LWPOLYLINE
  5
102
100
AcDbEntity
  8
0
 62
7
100
AcDbPolyline
 90
65
 70
0
 10
58.002996
 20
278.655234
 30
0.0
 10
57.936598
 20
278.220634
 30
0.0
 10
57.829167
 20
277.799734
 30
0.0
 10
57.681706
 20
277.397434
 30
0.0
 10
57.497138
 20
277.013635
 30
0.0
 10
57.277417
 20
276.652334
 30
0.0
 10
57.024486
 20
276.315434
 30
0.0
 10
56.741276
 20
276.003835
 30
0.0
 10
56.430736
 20
275.720633
 30
0.0
 10
56.092848
 20
275.468733
 30
0.0
 10
55.731516
 20
275.248932
 30
0.0
 10
55.347728
 20
275.064432
 30
0.0
 10
54.945386
 20
274.916935
 30
0.0
 10
54.525457
 20
274.808533
 30
0.0
 10
54.089917
 20
274.742135
 30
0.0
 10
53.641666
 20
274.719642
 30
0.0
 10
53.193427
 20
274.742126
 30
0.0
 10
52.757887
 20
274.808533
 30
0.0
 10
52.337958
 20
274.916935
 30
0.0
 10
51.934628
 20
275.064432
 30
0.0
 10
51.551828
 20
275.248932
 30
0.0
 10
51.189528
 20
275.468733
 30
0.0
 10
50.852628
 20
275.720633
 30
0.0
 10
50.541128
 20
276.003835
 30
0.0
 10
50.257926
 20
276.315434
 30
0.0
 10
50.005927
 20
276.652334
 30
0.0
 10
49.786226
 20
277.013635
 30
0.0
 10
49.601627
 20
277.397434
 30
0.0
 10
49.454126
 20
277.799734
 30
0.0
 10
49.345728
 20
278.220634
 30
0.0
 10
49.279326
 20
278.655234
 30
0.0
 10
49.256918
 20
279.104433
 30
0.0
 10
49.279335
 20
279.552734
 30
0.0
 10
49.345728
 20
279.987235
 30
0.0
 10
49.454126
 20
280.408133
 30
0.0
 10
49.601627
 20
280.810534
 30
0.0
 10
49.786226
 20
281.194334
 30
0.0
 10
50.005927
 20
281.555634
 30
0.0
 10
50.257926
 20
281.892534
 30
0.0
 10
50.541128
 20
282.204034
 30
0.0
 10
50.852628
 20
282.487233
 30
0.0
 10
51.189528
 20
282.740234
 30
0.0
 10
51.551828
 20
282.958934
 30
0.0
 10
51.934628
 20
283.143535
 30
0.0
 10
52.337958
 20
283.290934
 30
0.0
 10
52.757887
 20
283.399333
 30
0.0
 10
53.193427
 20
283.465734
 30
0.0
 10
53.641666
 20
283.488227
 30
0.0
 10
54.089917
 20
283.465740
 30
0.0
 10
54.525457
 20
283.399333
 30
0.0
 10
54.945386
 20
283.290934
 30
0.0
 10
55.347728
 20
283.143535
 30
0.0
 10
55.731516
 20
282.958934
 30
0.0
 10
56.092848
 20
282.740234
 30
0.0
 10
56.430736
 20
282.487233
 30
0.0
 10
56.741276
 20
282.204034
 30
0.0
 10
57.024486
 20
281.892534
 30
0.0
 10
57.277417
 20
281.555634
 30
0.0
 10
57.497138
 20
281.194334
 30
0.0
 10
57.681706
 20
280.810534
 30
0.0
 10
57.829167
 20
280.408133
 30
0.0
 10
57.936598
 20
279.987235
 30
0.0
 10
58.002996
 20
279.552734
 30
0.0
 10
58.025461
 20
279.104433
 30
0.0
 10
58.002993
 20
278.655234
 30
0.0
  0
LWPOLYLINE
  5
103
100
AcDbEntity
  8
0
 62
7
100
AcDbPolyline
 90
65
 70
0
 10
58.669977
 20
261.514619
 30
0.0
 10
58.619197
 20
261.176728
 30
0.0
 10
58.535208
 20
260.851532
 30
0.0
 10
58.420956
 20
260.539033
 30
0.0
 10
58.277398
 20
260.242152
 30
0.0
 10
58.107477
 20
259.961883
 30
0.0
 10
57.912168
 20
259.700164
 30
0.0
 10
57.692436
 20
259.458955
 30
0.0
 10
57.451226
 20
259.239225
 30
0.0
 10
57.189507
 20
259.043913
 30
0.0
 10
56.909238
 20
258.873993
 30
0.0
 10
56.612357
 20
258.730443
 30
0.0
 10
56.299858
 20
258.616183
 30
0.0
 10
55.974668
 20
258.533173
 30
0.0
 10
55.636777
 20
258.481413
 30
0.0
 10
55.290098
 20
258.463831
 30
0.0
 10
54.942437
 20
258.481416
 30
0.0
 10
54.604546
 20
258.533173
 30
0.0
 10
54.279347
 20
258.616183
 30
0.0
 10
53.966846
 20
258.730443
 30
0.0
 10
53.669976
 20
258.873993
 30
0.0
 10
53.389707
 20
259.043913
 30
0.0
 10
53.127988
 20
259.239225
 30
0.0
 10
52.886778
 20
259.458955
 30
0.0
 10
52.668028
 20
259.700164
 30
0.0
 10
52.471737
 20
259.961883
 30
0.0
 10
52.301816
 20
260.242152
 30
0.0
 10
52.159238
 20
260.539033
 30
0.0
 10
52.044977
 20
260.851532
 30
0.0
 10
51.960996
 20
261.176728
 30
0.0
 10
51.909228
 20
261.514619
 30
0.0
 10
51.891618
 20
261.861298
 30
0.0
 10
51.909237
 20
262.208939
 30
0.0
 10
51.960996
 20
262.546830
 30
0.0
 10
52.044977
 20
262.872026
 30
0.0
 10
52.159238
 20
263.184522
 30
0.0
 10
52.301816
 20
263.481403
 30
0.0
 10
52.471737
 20
263.761672
 30
0.0
 10
52.668028
 20
264.023394
 30
0.0
 10
52.886778
 20
264.264604
 30
0.0
 10
53.127988
 20
264.483354
 30
0.0
 10
53.389707
 20
264.679642
 30
0.0
 10
53.669976
 20
264.849563
 30
0.0
 10
53.966846
 20
264.992144
 30
0.0
 10
54.279347
 20
265.106405
 30
0.0
 10
54.604546
 20
265.190383
 30
0.0
 10
54.942437
 20
265.242142
 30
0.0
 10
55.290098
 20
265.259725
 30
0.0
 10
55.636777
 20
265.242142
 30
0.0
 10
55.974668
 20
265.190383
 30
0.0
 10
56.299858
 20
265.106405
 30
0.0
 10
56.612357
 20
264.992144
 30
0.0
 10
56.909238
 20
264.849563
 30
0.0
 10
57.189507
 20
264.679642
 30
0.0
 10
57.451226
 20
264.483354
 30
0.0
 10
57.692436
 20
264.264604
 30
0.0
 10
57.912168
 20
264.023394
 30
0.0
 10
58.107497
 20
263.761672
 30
0.0
 10
58.277398
 20
263.481403
 30
0.0
 10
58.420956
 20
263.184522
 30
0.0
 10
58.535208
 20
262.872026
 30
0.0
 10
58.619197
 20
262.546830
 30
0.0
 10
58.669977
 20
262.208939
 30
0.0
 10
58.687560
 20
261.861298
 30
0.0
 10
58.669975
 20
261.514619
 30
0.0
  0
LWPOLYLINE
  5
104
100
AcDbEntity
  8
0
 62
7
100
AcDbPolyline
 90
65
 70
0
 10
75.326228
 20
261.514605
 30
0.0
 10
75.274426
 20
261.177691
 30
0.0
 10
75.191427
 20
260.852495
 30
0.0
 10
75.077226
 20
260.540975
 30
0.0
 10
74.934627
 20
260.244094
 30
0.0
 10
74.764727
 20
259.964804
 30
0.0
 10
74.569426
 20
259.704053
 30
0.0
 10
74.350628
 20
259.462844
 30
0.0
 10
74.109427
 20
259.244093
 30
0.0
 10
73.848727
 20
259.048784
 30
0.0
 10
73.569428
 20
258.878864
 30
0.0
 10
73.272528
 20
258.736282
 30
0.0
 10
72.961028
 20
258.622025
 30
0.0
 10
72.635826
 20
258.539015
 30
0.0
 10
72.299826
 20
258.487264
 30
0.0
 10
71.953226
 20
258.469681
 30
0.0
 10
71.606497
 20
258.487266
 30
0.0
 10
71.269588
 20
258.539015
 30
0.0
 10
70.944386
 20
258.622025
 30
0.0
 10
70.632867
 20
258.736282
 30
0.0
 10
70.336968
 20
258.878864
 30
0.0
 10
70.056696
 20
259.048784
 30
0.0
 10
69.795956
 20
259.244093
 30
0.0
 10
69.554747
 20
259.462844
 30
0.0
 10
69.335996
 20
259.704053
 30
0.0
 10
69.140676
 20
259.964804
 30
0.0
 10
68.971738
 20
260.244094
 30
0.0
 10
68.828177
 20
260.540975
 30
0.0
 10
68.714898
 20
260.852495
 30
0.0
 10
68.630918
 20
261.177691
 30
0.0
 10
68.579158
 20
261.514605
 30
0.0
 10
68.561576
 20
261.861284
 30
0.0
 10
68.579161
 20
262.207949
 30
0.0
 10
68.630918
 20
262.543886
 30
0.0
 10
68.714898
 20
262.869080
 30
0.0
 10
68.828177
 20
263.180605
 30
0.0
 10
68.971738
 20
263.477483
 30
0.0
 10
69.140676
 20
263.756773
 30
0.0
 10
69.335996
 20
264.017512
 30
0.0
 10
69.554747
 20
264.258733
 30
0.0
 10
69.795956
 20
264.477484
 30
0.0
 10
70.056696
 20
264.672793
 30
0.0
 10
70.336968
 20
264.842713
 30
0.0
 10
70.632867
 20
264.985295
 30
0.0
 10
70.944386
 20
265.099552
 30
0.0
 10
71.269588
 20
265.182554
 30
0.0
 10
71.606497
 20
265.234314
 30
0.0
 10
71.953226
 20
265.251896
 30
0.0
 10
72.299826
 20
265.234311
 30
0.0
 10
72.635826
 20
265.182554
 30
0.0
 10
72.961028
 20
265.099552
 30
0.0
 10
73.272528
 20
264.985295
 30
0.0
 10
73.569428
 20
264.842713
 30
0.0
 10
73.848727
 20
264.672793
 30
0.0
 10
74.109427
 20
264.477484
 30
0.0
 10
74.350628
 20
264.258733
 30
0.0
 10
74.569426
 20
264.017512
 30
0.0
 10
74.764727
 20
263.756773
 30
0.0
 10
74.934627
 20
263.477483
 30
0.0
 10
75.077226
 20
263.180605
 30
0.0
 10
75.191427
 20
262.869080
 30
0.0
 10
75.274426
 20
262.543886
 30
0.0
 10
75.326228
 20
262.207949
 30
0.0
 10
75.343838
 20
261.861284
 30
0.0
 10
75.326216
 20
261.514605
 30
0.0
  0
LWPOLYLINE
  5
105
100
AcDbEntity
  8
0
 62
7
100
AcDbPolyline
 90
65
 70
0
 10
103.798928
 20
282.481433
 30
0.0
 10
103.748128
 20
282.145434
 30
0.0
 10
103.664127
 20
281.820235
 30
0.0
 10
103.549827
 20
281.508735
 30
0.0
 10
103.407328
 20
281.211834
 30
0.0
 10
103.237328
 20
280.932533
 30
0.0
 10
103.042028
 20
280.671833
 30
0.0
 10
102.823328
 20
280.430635
 30
0.0
 10
102.583027
 20
280.211833
 30
0.0
 10
102.321328
 20
280.016536
 30
0.0
 10
102.042027
 20
279.846635
 30
0.0
 10
101.745126
 20
279.704034
 30
0.0
 10
101.433626
 20
279.589835
 30
0.0
 10
101.109426
 20
279.506735
 30
0.0
 10
100.772526
 20
279.455035
 30
0.0
 10
100.425828
 20
279.437424
 30
0.0
 10
100.079126
 20
279.455046
 30
0.0
 10
99.742226
 20
279.506735
 30
0.0
 10
99.417027
 20
279.589835
 30
0.0
 10
99.105527
 20
279.704034
 30
0.0
 10
98.809628
 20
279.846635
 30
0.0
 10
98.530327
 20
280.016536
 30
0.0
 10
98.268628
 20
280.211833
 30
0.0
 10
98.028327
 20
280.430635
 30
0.0
 10
97.809628
 20
280.671833
 30
0.0
 10
97.614327
 20
280.932533
 30
0.0
 10
97.444426
 20
281.211834
 30
0.0
 10
97.301828
 20
281.508735
 30
0.0
 10
97.187528
 20
281.820235
 30
0.0
 10
97.103527
 20
282.145434
 30
0.0
 10
97.052826
 20
282.481433
 30
0.0
 10
97.035215
 20
282.828033
 30
0.0
 10
97.052837
 20
283.174735
 30
0.0
 10
97.103527
 20
283.511635
 30
0.0
 10
97.187528
 20
283.836834
 30
0.0
 10
97.301828
 20
284.148334
 30
0.0
 10
97.444426
 20
284.444235
 30
0.0
 10
97.614327
 20
284.724533
 30
0.0
 10
97.809628
 20
284.985334
 30
0.0
 10
98.028327
 20
285.226536
 30
0.0
 10
98.268628
 20
285.445235
 30
0.0
 10
98.530327
 20
285.640533
 30
0.0
 10
98.809628
 20
285.809533
 30
0.0
 10
99.105527
 20
285.953035
 30
0.0
 10
99.417027
 20
286.066333
 30
0.0
 10
99.742226
 20
286.150334
 30
0.0
 10
100.079126
 20
286.202135
 30
0.0
 10
100.425828
 20
286.219633
 30
0.0
 10
100.772526
 20
286.202135
 30
0.0
 10
101.109426
 20
286.150334
 30
0.0
 10
101.433626
 20
286.066333
 30
0.0
 10
101.745126
 20
285.953035
 30
0.0
 10
102.042027
 20
285.809533
 30
0.0
 10
102.321328
 20
285.640533
 30
0.0
 10
102.583027
 20
285.445235
 30
0.0
 10
102.823328
 20
285.226536
 30
0.0
 10
103.042028
 20
284.985334
 30
0.0
 10
103.237328
 20
284.724533
 30
0.0
 10
103.407328
 20
284.444235
 30
0.0
 10
103.549827
 20
284.148334
 30
0.0
 10
103.664127
 20
283.836834
 30
0.0
 10
103.748128
 20
283.511635
 30
0.0
 10
103.798928
 20
283.174735
 30
0.0
 10
103.816426
 20
282.828033
 30
0.0
 10
103.798931
 20
282.481433
 30
0.0
  0
LWPOLYLINE
  5
106
100
AcDbEntity
  8
0
 62
7
100
AcDbPolyline
 90
65
 70
0
 10
103.798928
 20
240.518533
 30
0.0
 10
103.748128
 20
240.181633
 30
0.0
 10
103.664127
 20
239.857334
 30
0.0
 10
103.549827
 20
239.545834
 30
0.0
 10
103.407328
 20
239.248934
 30
0.0
 10
103.237328
 20
238.969633
 30
0.0
 10
103.042028
 20
238.708933
 30
0.0
 10
102.823328
 20
238.467734
 30
0.0
 10
102.583027
 20
238.248933
 30
0.0
 10
102.321328
 20
238.053632
 30
0.0
 10
102.042027
 20
237.883735
 30
0.0
 10
101.745126
 20
237.741133
 30
0.0
 10
101.433626
 20
237.626935
 30
0.0
 10
101.109426
 20
237.543933
 30
0.0
 10
100.772526
 20
237.492134
 30
0.0
 10
100.425828
 20
237.474524
 30
0.0
 10
100.079126
 20
237.492146
 30
0.0
 10
99.742226
 20
237.543933
 30
0.0
 10
99.417027
 20
237.626935
 30
0.0
 10
99.105527
 20
237.741133
 30
0.0
 10
98.809628
 20
237.883735
 30
0.0
 10
98.530327
 20
238.053632
 30
0.0
 10
98.268628
 20
238.248933
 30
0.0
 10
98.028327
 20
238.467734
 30
0.0
 10
97.809628
 20
238.708933
 30
0.0
 10
97.614327
 20
238.969633
 30
0.0
 10
97.444426
 20
239.248934
 30
0.0
 10
97.301828
 20
239.545834
 30
0.0
 10
97.187528
 20
239.857334
 30
0.0
 10
97.103527
 20
240.181633
 30
0.0
 10
97.052826
 20
240.518533
 30
0.0
 10
97.035215
 20
240.865235
 30
0.0
 10
97.052837
 20
241.211835
 30
0.0
 10
97.103527
 20
241.548735
 30
0.0
 10
97.187528
 20
241.873934
 30
0.0
 10
97.301828
 20
242.185532
 30
0.0
 10
97.444426
 20
242.481434
 30
0.0
 10
97.614327
 20
242.760732
 30
0.0
 10
97.809628
 20
243.022434
 30
0.0
 10
98.028327
 20
243.262633
 30
0.0
 10
98.268628
 20
243.481435
 30
0.0
 10
98.530327
 20
243.676732
 30
0.0
 10
98.809628
 20
243.846633
 30
0.0
 10
99.105527
 20
243.989234
 30
0.0
 10
99.417027
 20
244.103433
 30
0.0
 10
99.742226
 20
244.187433
 30
0.0
 10
100.079126
 20
244.238233
 30
0.0
 10
100.425828
 20
244.255844
 30
0.0
 10
100.772526
 20
244.238222
 30
0.0
 10
101.109426
 20
244.187433
 30
0.0
 10
101.433626
 20
244.103433
 30
0.0
 10
101.745126
 20
243.989234
 30
0.0
 10
102.042027
 20
243.846633
 30
0.0
 10
102.321328
 20
243.676732
 30
0.0
 10
102.583027
 20
243.481435
 30
0.0
 10
102.823328
 20
243.262633
 30
0.0
 10
103.042028
 20
243.022434
 30
0.0
 10
103.237328
 20
242.760732
 30
0.0
 10
103.407328
 20
242.481434
 30
0.0
 10
103.549827
 20
242.185532
 30
0.0
 10
103.664127
 20
241.873934
 30
0.0
 10
103.748128
 20
241.548735
 30
0.0
 10
103.798928
 20
241.211835
 30
0.0
 10
103.816426
 20
240.865235
 30
0.0
 10
103.798931
 20
240.518533
 30
0.0
  0
LWPOLYLINE
  5
107
100
AcDbEntity
  8
0
 62
7
100
AcDbPolyline
 90
65
 70
0
 10
112.099628
 20
261.514605
 30
0.0
 10
112.048927
 20
261.177691
 30
0.0
 10
111.964926
 20
260.852495
 30
0.0
 10
111.850626
 20
260.540975
 30
0.0
 10
111.708028
 20
260.245073
 30
0.0
 10
111.538127
 20
259.964804
 30
0.0
 10
111.342827
 20
259.704053
 30
0.0
 10
111.124127
 20
259.462844
 30
0.0
 10
110.883826
 20
259.244093
 30
0.0
 10
110.622127
 20
259.048784
 30
0.0
 10
110.342826
 20
258.878864
 30
0.0
 10
110.046927
 20
258.736282
 30
0.0
 10
109.735427
 20
258.622025
 30
0.0
 10
109.410228
 20
258.539015
 30
0.0
 10
109.073328
 20
258.487264
 30
0.0
 10
108.726627
 20
258.469681
 30
0.0
 10
108.379928
 20
258.487266
 30
0.0
 10
108.043028
 20
258.539015
 30
0.0
 10
107.718828
 20
258.622025
 30
0.0
 10
107.407328
 20
258.736282
 30
0.0
 10
107.110427
 20
258.878864
 30
0.0
 10
106.831126
 20
259.048784
 30
0.0
 10
106.569427
 20
259.244093
 30
0.0
 10
106.329126
 20
259.462844
 30
0.0
 10
106.110427
 20
259.704053
 30
0.0
 10
105.915126
 20
259.964804
 30
0.0
 10
105.745127
 20
260.245073
 30
0.0
 10
105.602627
 20
260.540975
 30
0.0
 10
105.488327
 20
260.852495
 30
0.0
 10
105.404326
 20
261.177691
 30
0.0
 10
105.353526
 20
261.514605
 30
0.0
 10
105.336029
 20
261.861284
 30
0.0
 10
105.353524
 20
262.207949
 30
0.0
 10
105.404326
 20
262.543886
 30
0.0
 10
105.488327
 20
262.869080
 30
0.0
 10
105.602627
 20
263.180605
 30
0.0
 10
105.745127
 20
263.477483
 30
0.0
 10
105.915126
 20
263.756773
 30
0.0
 10
106.110427
 20
264.017512
 30
0.0
 10
106.329126
 20
264.258733
 30
0.0
 10
106.569427
 20
264.477484
 30
0.0
 10
106.831126
 20
264.672793
 30
0.0
 10
107.110427
 20
264.842713
 30
0.0
 10
107.407328
 20
264.985295
 30
0.0
 10
107.718828
 20
265.099552
 30
0.0
 10
108.043028
 20
265.182554
 30
0.0
 10
108.379928
 20
265.234314
 30
0.0
 10
108.726627
 20
265.251896
 30
0.0
 10
109.073328
 20
265.234311
 30
0.0
 10
109.410228
 20
265.182554
 30
0.0
 10
109.735427
 20
265.099552
 30
0.0
 10
110.046927
 20
264.985295
 30
0.0
 10
110.342826
 20
264.842713
 30
0.0
 10
110.622127
 20
264.672793
 30
0.0
 10
110.883826
 20
264.477484
 30
0.0
 10
111.124127
 20
264.258733
 30
0.0
 10
111.342827
 20
264.017512
 30
0.0
 10
111.538127
 20
263.756773
 30
0.0
 10
111.708028
 20
263.477483
 30
0.0
 10
111.850626
 20
263.180605
 30
0.0
 10
111.964926
 20
262.869080
 30
0.0
 10
112.048927
 20
262.543886
 30
0.0
 10
112.099628
 20
262.207949
 30
0.0
 10
112.117239
 20
261.861284
 30
0.0
 10
112.099617
 20
261.514605
 30
0.0
  0
LWPOLYLINE
  5
108
100
AcDbEntity
  8
0
 62
7
100
AcDbPolyline
 90
65
 70
0
 10
113.140726
 20
279.741135
 30
0.0
 10
113.115326
 20
279.574135
 30
0.0
 10
113.073326
 20
279.414033
 30
0.0
 10
113.016627
 20
279.258735
 30
0.0
 10
112.946326
 20
279.112233
 30
0.0
 10
112.862328
 20
278.973535
 30
0.0
 10
112.765726
 20
278.844633
 30
0.0
 10
112.656328
 20
278.724533
 30
0.0
 10
112.537126
 20
278.616135
 30
0.0
 10
112.408227
 20
278.519434
 30
0.0
 10
112.269627
 20
278.435535
 30
0.0
 10
112.122127
 20
278.365135
 30
0.0
 10
111.967827
 20
278.308535
 30
0.0
 10
111.806727
 20
278.266535
 30
0.0
 10
111.640726
 20
278.241135
 30
0.0
 10
111.468828
 20
278.232329
 30
0.0
 10
111.296926
 20
278.241140
 30
0.0
 10
111.129927
 20
278.266535
 30
0.0
 10
110.968826
 20
278.308535
 30
0.0
 10
110.814526
 20
278.365135
 30
0.0
 10
110.667026
 20
278.435535
 30
0.0
 10
110.528328
 20
278.519434
 30
0.0
 10
110.399428
 20
278.616135
 30
0.0
 10
110.280328
 20
278.724533
 30
0.0
 10
110.171926
 20
278.844633
 30
0.0
 10
110.075228
 20
278.973535
 30
0.0
 10
109.990327
 20
279.112233
 30
0.0
 10
109.920026
 20
279.258735
 30
0.0
 10
109.863327
 20
279.414033
 30
0.0
 10
109.822326
 20
279.574135
 30
0.0
 10
109.796926
 20
279.741135
 30
0.0
 10
109.788121
 20
279.913033
 30
0.0
 10
109.796932
 20
280.084935
 30
0.0
 10
109.822326
 20
280.251934
 30
0.0
 10
109.863327
 20
280.413035
 30
0.0
 10
109.920026
 20
280.567335
 30
0.0
 10
109.990327
 20
280.714835
 30
0.0
 10
110.075228
 20
280.852435
 30
0.0
 10
110.171926
 20
280.982334
 30
0.0
 10
110.280328
 20
281.101533
 30
0.0
 10
110.399428
 20
281.209935
 30
0.0
 10
110.528328
 20
281.306534
 30
0.0
 10
110.667026
 20
281.390534
 30
0.0
 10
110.814526
 20
281.461835
 30
0.0
 10
110.968826
 20
281.518533
 30
0.0
 10
111.129927
 20
281.559535
 30
0.0
 10
111.296926
 20
281.584935
 30
0.0
 10
111.468828
 20
281.593740
 30
0.0
 10
111.640726
 20
281.584929
 30
0.0
 10
111.806727
 20
281.559535
 30
0.0
 10
111.967827
 20
281.518533
 30
0.0
 10
112.122127
 20
281.461835
 30
0.0
 10
112.269627
 20
281.390534
 30
0.0
 10
112.408227
 20
281.306534
 30
0.0
 10
112.537126
 20
281.209935
 30
0.0
 10
112.656328
 20
281.101533
 30
0.0
 10
112.765726
 20
280.982334
 30
0.0
 10
112.862328
 20
280.852435
 30
0.0
 10
112.946326
 20
280.714835
 30
0.0
 10
113.016627
 20
280.567335
 30
0.0
 10
113.073326
 20
280.413035
 30
0.0
 10
113.115326
 20
280.251934
 30
0.0
 10
113.140726
 20
280.084935
 30
0.0
 10
113.148515
 20
279.913033
 30
0.0
 10
113.140737
 20
279.741135
 30
0.0
  0
LWPOLYLINE
  5
109
100
AcDbEntity
  8
0
 62
7
100
AcDbPolyline
 90
65
 70
0
 10
113.140726
 20
243.875933
 30
0.0
 10
113.115326
 20
243.708934
 30
0.0
 10
113.073326
 20
243.547833
 30
0.0
 10
113.016627
 20
243.393534
 30
0.0
 10
112.946326
 20
243.247035
 30
0.0
 10
112.862328
 20
243.108334
 30
0.0
 10
112.765726
 20
242.978433
 30
0.0
 10
112.656328
 20
242.859335
 30
0.0
 10
112.537126
 20
242.750933
 30
0.0
 10
112.408227
 20
242.654233
 30
0.0
 10
112.269627
 20
242.570232
 30
0.0
 10
112.122127
 20
242.498934
 30
0.0
 10
111.967827
 20
242.443334
 30
0.0
 10
111.806727
 20
242.401333
 30
0.0
 10
111.640726
 20
242.375933
 30
0.0
 10
111.468828
 20
242.367128
 30
0.0
 10
111.296926
 20
242.375939
 30
0.0
 10
111.129927
 20
242.401333
 30
0.0
 10
110.968826
 20
242.443334
 30
0.0
 10
110.814526
 20
242.498934
 30
0.0
 10
110.667026
 20
242.570232
 30
0.0
 10
110.528328
 20
242.654233
 30
0.0
 10
110.399428
 20
242.750933
 30
0.0
 10
110.280328
 20
242.859335
 30
0.0
 10
110.171926
 20
242.978433
 30
0.0
 10
110.075228
 20
243.108334
 30
0.0
 10
109.990327
 20
243.247035
 30
0.0
 10
109.920026
 20
243.393534
 30
0.0
 10
109.863327
 20
243.547833
 30
0.0
 10
109.822326
 20
243.708934
 30
0.0
 10
109.796926
 20
243.875933
 30
0.0
 10
109.788121
 20
244.047835
 30
0.0
 10
109.796932
 20
244.219635
 30
0.0
 10
109.822326
 20
244.386634
 30
0.0
 10
109.863327
 20
244.547834
 30
0.0
 10
109.920026
 20
244.702133
 30
0.0
 10
109.990327
 20
244.848635
 30
0.0
 10
110.075228
 20
244.987234
 30
0.0
 10
110.171926
 20
245.117133
 30
0.0
 10
110.280328
 20
245.236335
 30
0.0
 10
110.399428
 20
245.344635
 30
0.0
 10
110.528328
 20
245.441332
 30
0.0
 10
110.667026
 20
245.525333
 30
0.0
 10
110.814526
 20
245.596634
 30
0.0
 10
110.968826
 20
245.653233
 30
0.0
 10
111.129927
 20
245.694333
 30
0.0
 10
111.296926
 20
245.719649
 30
0.0
 10
111.468828
 20
245.728440
 30
0.0
 10
111.640726
 20
245.719629
 30
0.0
 10
111.806727
 20
245.694319
 30
0.0
 10
111.967827
 20
245.653233
 30
0.0
 10
112.122127
 20
245.596634
 30
0.0
 10
112.269627
 20
245.525333
 30
0.0
 10
112.408227
 20
245.441332
 30
0.0
 10
112.537126
 20
245.344635
 30
0.0
 10
112.656328
 20
245.236335
 30
0.0
 10
112.765726
 20
245.117133
 30
0.0
 10
112.862328
 20
244.987234
 30
0.0
 10
112.946326
 20
244.848635
 30
0.0
 10
113.016627
 20
244.702133
 30
0.0
 10
113.073326
 20
244.547834
 30
0.0
 10
113.115326
 20
244.386634
 30
0.0
 10
113.140726
 20
244.219635
 30
0.0
 10
113.148515
 20
244.047835
 30
0.0
 10
113.140737
 20
243.875933
 30
0.0
  0
LWPOLYLINE
  5
10a
100
AcDbEntity
  8
0
 62
7
100
AcDbPolyline
 90
45
 70
0
 10
115.451229
 20
178.320360
 30
0.0
 10
115.451229
 20
182.320358
 30
0.0
 10
118.451223
 20
182.320358
 30
0.0
 10
118.451223
 20
211.320359
 30
0.0
 10
115.451229
 20
211.320359
 30
0.0
 10
115.451229
 20
215.320359
 30
0.0
 10
118.451223
 20
215.320359
 30
0.0
 10
118.451223
 20
227.320358
 30
0.0
 10
103.451224
 20
227.320358
 30
0.0
 10
103.451224
 20
224.320358
 30
0.0
 10
99.451232
 20
224.320358
 30
0.0
 10
99.451232
 20
227.320358
 30
0.0
 10
63.951233
 20
227.320358
 30
0.0
 10
63.951233
 20
224.320358
 30
0.0
 10
59.951232
 20
224.320358
 30
0.0
 10
59.951232
 20
227.320358
 30
0.0
 10
24.451229
 20
227.320358
 30
0.0
 10
24.451229
 20
224.320358
 30
0.0
 10
20.451228
 20
224.320358
 30
0.0
 10
20.451228
 20
227.320358
 30
0.0
 10
5.451227
 20
227.320358
 30
0.0
 10
5.451227
 20
215.320359
 30
0.0
 10
8.451227
 20
215.320359
 30
0.0
 10
8.451227
 20
211.320359
 30
0.0
 10
5.451227
 20
211.320359
 30
0.0
 10
5.451227
 20
182.320358
 30
0.0
 10
8.451227
 20
182.320358
 30
0.0
 10
8.451227
 20
178.320360
 30
0.0
 10
5.451227
 20
178.320360
 30
0.0
 10
5.451227
 20
166.320358
 30
0.0
 10
20.451228
 20
166.320358
 30
0.0
 10
20.451228
 20
169.320358
 30
0.0
 10
24.451229
 20
169.320358
 30
0.0
 10
24.451229
 20
166.320358
 30
0.0
 10
59.951232
 20
166.320358
 30
0.0
 10
59.951232
 20
169.320358
 30
0.0
 10
63.951233
 20
169.320358
 30
0.0
 10
63.951233
 20
166.320358
 30
0.0
 10
99.451232
 20
166.320358
 30
0.0
 10
99.451232
 20
169.320358
 30
0.0
 10
103.451224
 20
169.320358
 30
0.0
 10
103.451224
 20
166.320358
 30
0.0
 10
118.451223
 20
166.320358
 30
0.0
 10
118.451223
 20
178.320360
 30
0.0
 10
115.451229
 20
178.320360
 30
0.0
  0
LWPOLYLINE
  5
10b
100
AcDbEntity
  8
0
 62
7
100
AcDbPolyline
 90
29
 70
0
 10
124.236520
 20
211.155439
 30
0.0
 10
124.236520
 20
182.155435
 30
0.0
 10
121.236526
 20
182.155435
 30
0.0
 10
121.236526
 20
178.155435
 30
0.0
 10
124.236520
 20
178.155435
 30
0.0
 10
124.236520
 20
166.155436
 30
0.0
 10
134.236528
 20
166.155436
 30
0.0
 10
134.236528
 20
169.155436
 30
0.0
 10
140.236516
 20
169.155436
 30
0.0
 10
140.236516
 20
166.155436
 30
0.0
 10
150.236524
 20
166.155436
 30
0.0
 10
150.236524
 20
178.155435
 30
0.0
 10
153.236518
 20
178.155435
 30
0.0
 10
153.236518
 20
182.155435
 30
0.0
 10
150.236524
 20
182.155435
 30
0.0
 10
150.236524
 20
211.155439
 30
0.0
 10
153.236518
 20
211.155439
 30
0.0
 10
153.236518
 20
215.155437
 30
0.0
 10
150.236524
 20
215.155437
 30
0.0
 10
150.236524
 20
227.155438
 30
0.0
 10
140.236516
 20
227.155438
 30
0.0
 10
140.236516
 20
224.155439
 30
0.0
 10
134.236528
 20
224.155439
 30
0.0
 10
134.236528
 20
227.155438
 30
0.0
 10
124.236520
 20
227.155438
 30
0.0
 10
124.236520
 20
215.155437
 30
0.0
 10
121.236526
 20
215.155437
 30
0.0
 10
121.236526
 20
211.155439
 30
0.0
 10
124.236520
 20
211.155439
 30
0.0
  0
LWPOLYLINE
  5
10c
100
AcDbEntity
  8
0
 62
7
100
AcDbPolyline
 90
29
 70
0
 10
124.632822
 20
276.026831
 30
0.0
 10
124.632822
 20
247.026826
 30
0.0
 10
121.632799
 20
247.026826
 30
0.0
 10
121.632799
 20
243.026826
 30
0.0
 10
124.632822
 20
243.026826
 30
0.0
 10
124.632822
 20
231.026827
 30
0.0
 10
134.632802
 20
231.026827
 30
0.0
 10
134.632802
 20
234.026827
 30
0.0
 10
140.632818
 20
234.026827
 30
0.0
 10
140.632818
 20
231.026827
 30
0.0
 10
150.632803
 20
231.026827
 30
0.0
 10
150.632803
 20
243.026826
 30
0.0
 10
153.632826
 20
243.026826
 30
0.0
 10
153.632826
 20
247.026826
 30
0.0
 10
150.632803
 20
247.026826
 30
0.0
 10
150.632803
 20
276.026831
 30
0.0
 10
153.632826
 20
276.026831
 30
0.0
 10
153.632826
 20
280.026828
 30
0.0
 10
150.632803
 20
280.026828
 30
0.0
 10
150.632803
 20
292.026830
 30
0.0
 10
140.632818
 20
292.026830
 30
0.0
 10
140.632818
 20
289.026830
 30
0.0
 10
134.632802
 20
289.026830
 30
0.0
 10
134.632802
 20
292.026830
 30
0.0
 10
124.632822
 20
292.026830
 30
0.0
 10
124.632822
 20
280.026828
 30
0.0
 10
121.632799
 20
280.026828
 30
0.0
 10
121.632799
 20
276.026831
 30
0.0
 10
124.632822
 20
276.026831
 30
0.0
  0
LWPOLYLINE
  5
10d
100
AcDbEntity
  8
0
 62
7
100
AcDbPolyline
 90
5
 70
0
 10
145.356823
 20
266.192845
 30
0.0
 10
149.141818
 20
267.381317
 30
0.0
 10
149.141818
 20
255.660617
 30
0.0
 10
145.356823
 20
256.532686
 30
0.0
 10
145.356823
 20
266.192845
 30
0.0
  0
LWPOLYLINE
  5
10e
100
AcDbEntity
  8
0
 62
7
100
AcDbPolyline
 90
37
 70
0
 10
99.451230
 20
125.601613
 30
0.0
 10
63.951227
 20
125.601613
 30
0.0
 10
63.951227
 20
128.601607
 30
0.0
 10
59.951227
 20
128.601607
 30
0.0
 10
59.951227
 20
125.601613
 30
0.0
 10
24.451227
 20
125.601613
 30
0.0
 10
24.451227
 20
128.601607
 30
0.0
 10
20.451227
 20
128.601607
 30
0.0
 10
20.451227
 20
125.601613
 30
0.0
 10
8.451225
 20
125.601613
 30
0.0
 10
8.451225
 20
115.601605
 30
0.0
 10
5.451226
 20
115.601605
 30
0.0
 10
5.451226
 20
109.601617
 30
0.0
 10
8.451225
 20
109.601617
 30
0.0
 10
8.451225
 20
99.601609
 30
0.0
 10
20.451227
 20
99.601609
 30
0.0
 10
20.451227
 20
96.601615
 30
0.0
 10
24.451227
 20
96.601615
 30
0.0
 10
24.451227
 20
99.601609
 30
0.0
 10
59.951227
 20
99.601609
 30
0.0
 10
59.951227
 20
96.601615
 30
0.0
 10
63.951227
 20
96.601615
 30
0.0
 10
63.951227
 20
99.601609
 30
0.0
 10
99.451230
 20
99.601609
 30
0.0
 10
99.451230
 20
96.601615
 30
0.0
 10
103.451227
 20
96.601615
 30
0.0
 10
103.451227
 20
99.601609
 30
0.0
 10
115.451229
 20
99.601609
 30
0.0
 10
115.451229
 20
109.601617
 30
0.0
 10
118.451228
 20
109.601617
 30
0.0
 10
118.451228
 20
115.601605
 30
0.0
 10
115.451229
 20
115.601605
 30
0.0
 10
115.451229
 20
125.601613
 30
0.0
 10
103.451227
 20
125.601613
 30
0.0
 10
103.451227
 20
128.601607
 30
0.0
 10
99.451230
 20
128.601607
 30
0.0
 10
99.451230
 20
125.601613
 30
0.0
  0
LWPOLYLINE
  5
10f
100
AcDbEntity
  8
0
 62
7
100
AcDbPolyline
 90
33
 70
0
 10
79.117228
 20
119.865616
 30
0.0
 10
79.814529
 20
119.649603
 30
0.0
 10
80.444429
 20
119.306618
 30
0.0
 10
80.994229
 20
118.853624
 30
0.0
 10
81.448330
 20
118.303601
 30
0.0
 10
81.790130
 20
117.672608
 30
0.0
 10
82.006930
 20
116.975604
 30
0.0
 10
82.082128
 20
116.227602
 30
0.0
 10
82.006930
 20
115.479600
 30
0.0
 10
81.790130
 20
114.782624
 30
0.0
 10
81.448330
 20
114.151604
 30
0.0
 10
80.994229
 20
113.601609
 30
0.0
 10
80.444429
 20
113.148614
 30
0.0
 10
79.814529
 20
112.805601
 30
0.0
 10
79.117228
 20
112.589617
 30
0.0
 10
78.369230
 20
112.514602
 30
0.0
 10
77.620130
 20
112.589617
 30
0.0
 10
76.922928
 20
112.805601
 30
0.0
 10
76.293028
 20
113.148614
 30
0.0
 10
75.743228
 20
113.601609
 30
0.0
 10
75.290129
 20
114.151604
 30
0.0
 10
74.947330
 20
114.782624
 30
0.0
 10
74.730530
 20
115.479600
 30
0.0
 10
74.655329
 20
116.227602
 30
0.0
 10
74.730530
 20
116.975604
 30
0.0
 10
74.947330
 20
117.672608
 30
0.0
 10
75.290129
 20
118.303601
 30
0.0
 10
75.743228
 20
118.853624
 30
0.0
 10
76.293028
 20
119.306618
 30
0.0
 10
76.922928
 20
119.649603
 30
0.0
 10
77.620130
 20
119.865616
 30
0.0
 10
78.369230
 20
119.940602
 30
0.0
 10
79.117228
 20
119.865616
 30
0.0
  0
LWPOLYLINE
  5
110
100
AcDbEntity
  8
0
 62
7
100
AcDbPolyline
 90
37
 70
0
 10
99.451230
 20
159.675989
 30
0.0
 10
63.951227
 20
159.675989
 30
0.0
 10
63.951227
 20
162.675983
 30
0.0
 10
59.951227
 20
162.675983
 30
0.0
 10
59.951227
 20
159.675989
 30
0.0
 10
24.451227
 20
159.675989
 30
0.0
 10
24.451227
 20
162.675983
 30
0.0
 10
20.451227
 20
162.675983
 30
0.0
 10
20.451227
 20
159.675989
 30
0.0
 10
8.451225
 20
159.675989
 30
0.0
 10
8.451225
 20
149.675980
 30
0.0
 10
5.451226
 20
149.675980
 30
0.0
 10
5.451226
 20
143.675964
 30
0.0
 10
8.451225
 20
143.675964
 30
0.0
 10
8.451225
 20
133.675984
 30
0.0
 10
20.451227
 20
133.675984
 30
0.0
 10
20.451227
 20
130.675990
 30
0.0
 10
24.451227
 20
130.675990
 30
0.0
 10
24.451227
 20
133.675984
 30
0.0
 10
59.951227
 20
133.675984
 30
0.0
 10
59.951227
 20
130.675990
 30
0.0
 10
63.951227
 20
130.675990
 30
0.0
 10
63.951227
 20
133.675984
 30
0.0
 10
99.451230
 20
133.675984
 30
0.0
 10
99.451230
 20
130.675990
 30
0.0
 10
103.451227
 20
130.675990
 30
0.0
 10
103.451227
 20
133.675984
 30
0.0
 10
115.451229
 20
133.675984
 30
0.0
 10
115.451229
 20
143.675964
 30
0.0
 10
118.451228
 20
143.675964
 30
0.0
 10
118.451228
 20
149.675980
 30
0.0
 10
115.451229
 20
149.675980
 30
0.0
 10
115.451229
 20
159.675989
 30
0.0
 10
103.451227
 20
159.675989
 30
0.0
 10
103.451227
 20
162.675983
 30
0.0
 10
99.451230
 20
162.675983
 30
0.0
 10
99.451230
 20
159.675989
 30
0.0
  0
LWPOLYLINE
  5
111
100
AcDbEntity
  8
0
 62
7
100
AcDbPolyline
 90
33
 70
0
 10
79.117228
 20
154.146973
 30
0.0
 10
79.814529
 20
153.930988
 30
0.0
 10
80.444429
 20
153.587975
 30
0.0
 10
80.994229
 20
153.134981
 30
0.0
 10
81.448330
 20
152.584986
 30
0.0
 10
81.790130
 20
151.953965
 30
0.0
 10
82.006930
 20
151.257977
 30
0.0
 10
82.082128
 20
150.508987
 30
0.0
 10
82.006930
 20
149.760986
 30
0.0
 10
81.790130
 20
149.063981
 30
0.0
 10
81.448330
 20
148.432989
 30
0.0
 10
80.994229
 20
147.883982
 30
0.0
 10
80.444429
 20
147.429971
 30
0.0
 10
79.814529
 20
147.087974
 30
0.0
 10
79.117228
 20
146.870974
 30
0.0
 10
78.369230
 20
146.795987
 30
0.0
 10
77.620130
 20
146.870974
 30
0.0
 10
76.922928
 20
147.087974
 30
0.0
 10
76.293028
 20
147.429971
 30
0.0
 10
75.743228
 20
147.883982
 30
0.0
 10
75.290129
 20
148.432989
 30
0.0
 10
74.947330
 20
149.063981
 30
0.0
 10
74.730530
 20
149.760986
 30
0.0
 10
74.655329
 20
150.508987
 30
0.0
 10
74.730530
 20
151.257977
 30
0.0
 10
74.947330
 20
151.953965
 30
0.0
 10
75.290129
 20
152.584986
 30
0.0
 10
75.743228
 20
153.134981
 30
0.0
 10
76.293028
 20
153.587975
 30
0.0
 10
76.922928
 20
153.930988
 30
0.0
 10
77.620130
 20
154.146973
 30
0.0
 10
78.369230
 20
154.222975
 30
0.0
 10
79.117228
 20
154.146973
 30
0.0
  0
ENDSEC
  0
SECTION
  2
OBJECTS
  0
DICTIONARY
  5
C
330
0
100
AcDbDictionary
  3
ACAD_GROUP
350
D
  3
ACAD_MLINESTYLE
350
17
  0
DICTIONARY
  5
D
330
C
100
AcDbDictionary
  0
DICTIONARY
  5
1A
330
C
100
AcDbDictionary
  0
DICTIONARY
  5
17
330
C
100
AcDbDictionary
  3
STANDARD
350
18
  0
DICTIONARY
  5
19
330
C
100
AcDbDictionary
  0
ENDSEC
  0
EOF
