  0
SECTION
  2
HEADER
  9
$ACADVER
  1
AC1014
  9
$HANDSEED
  5
FFFF
  9
$MEASUREMENT
 70
     1
  0
ENDSEC
  0
SECTION
  2
TABLES
  0
TABLE
  2
VPORT
  5
8
330
0
100
AcDbSymbolTable
 70
     4
  0
VPORT
  5
2E
330
8
100
AcDbSymbolTableRecord
100
AcDbViewportTableRecord
  2
*ACTIVE
 70
     0
 10
0.0
 20
0.0
 11
1.0
 21
1.0
 12
210.0
 22
148.5
 13
0.0
 23
0.0
 14
10.0
 24
10.0
 15
10.0
 25
10.0
 16
0.0
 26
0.0
 36
1.0
 17
0.0
 27
0.0
 37
0.0
 40
341.0
 41
1.24
 42
50.0
 43
0.0
 44
0.0
 50
0.0
 51
0.0
 71
     0
 72
   100
 73
     1
 74
     3
 75
     0
 76
     0
 77
     0
 78
     0
  0
ENDTAB
  0
TABLE
  2
LTYPE
  5
5
330
0
100
AcDbSymbolTable
 70
     1
  0
LTYPE
  5
14
330
5
100
AcDbSymbolTableRecord
100
AcDbLinetypeTableRecord
  2
BYBLOCK
 70
     0
  3

 72
    65
 73
     0
 40
0.0
  0
LTYPE
  5
15
330
5
100
AcDbSymbolTableRecord
100
AcDbLinetypeTableRecord
  2
BYLAYER
 70
     0
  3

 72
    65
 73
     0
 40
0.0
  0
LTYPE
  5
16
330
5
100
AcDbSymbolTableRecord
100
AcDbLinetypeTableRecord
  2
CONTINUOUS
 70
     0
  3
Solid line
 72
    65
 73
     0
 40
0.0
  0
ENDTAB
  0
TABLE
  2
LAYER
  5
2
100
AcDbSymbolTable
 70
3
  0
LAYER
  5
50
100
AcDbSymbolTableRecord
100
AcDbLayerTableRecord
  2
0
 70
0
  6
CONTINUOUS
  0
LAYER
  5
51
100
AcDbSymbolTableRecord
100
AcDbLayerTableRecord
  2
pcb
 70
0
  6
CONTINUOUS
  0
LAYER
  5
52
100
AcDbSymbolTableRecord
100
AcDbLayerTableRecord
  2
outer
 70
0
  6
CONTINUOUS
  0
ENDTAB
  0
TABLE
  2
STYLE
  5
3
330
0
100
AcDbSymbolTable
 70
     1
  0
STYLE
  5
11
330
3
100
AcDbSymbolTableRecord
100
AcDbTextStyleTableRecord
  2
STANDARD
 70
     0
 40
0.0
 41
1.0
 50
0.0
 71
     0
 42
2.5
  3
txt
  4

  0
ENDTAB
  0
TABLE
  2
VIEW
  5
6
330
0
100
AcDbSymbolTable
 70
     0
  0
ENDTAB
  0
TABLE
  2
UCS
  5
7
330
0
100
AcDbSymbolTable
 70
     0
  0
ENDTAB
  0
TABLE
  2
APPID
  5
9
330
0
100
AcDbSymbolTable
 70
     2
  0
APPID
  5
12
330
9
100
AcDbSymbolTableRecord
100
AcDbRegAppTableRecord
  2
ACAD
 70
     0
  0
ENDTAB
  0
TABLE
  2
DIMSTYLE
  5
A
330
0
100
AcDbSymbolTable
 70
     1
  0
DIMSTYLE
105
27
330
A
100
AcDbSymbolTableRecord
100
AcDbDimStyleTableRecord
  2
ISO-25
 70
     0
  3

  4

  5

  6

  7

 40
1.0
 41
2.5
 42
0.625
 43
3.75
 44
1.25
 45
0.0
 46
0.0
 47
0.0
 48
0.0
140
2.5
141
2.5
142
0.0
143
0.03937007874016
144
1.0
145
0.0
146
1.0
147
0.625
 71
     0
 72
     0
 73
     0
 74
     0
 75
     0
 76
     0
 77
     1
 78
     8
170
     0
171
     3
172
     1
173
     0
174
     0
175
     0
176
     0
177
     0
178
     0
270
     2
271
     2
272
     2
273
     2
274
     3
340
11
275
     0
280
     0
281
     0
282
     0
283
     0
284
     8
285
     0
286
     0
287
     3
288
     0
  0
ENDTAB
  0
TABLE
  2
BLOCK_RECORD
  5
1
330
0
100
AcDbSymbolTable
 70
     1
  0
BLOCK_RECORD
  5
1F
330
1
100
AcDbSymbolTableRecord
100
AcDbBlockTableRecord
  2
*MODEL_SPACE
  0
BLOCK_RECORD
  5
1B
330
1
100
AcDbSymbolTableRecord
100
AcDbBlockTableRecord
  2
*PAPER_SPACE
  0
ENDTAB
  0
ENDSEC
  0
SECTION
  2
BLOCKS
  0
BLOCK
  5
20
330
1F
100
AcDbEntity
  8
0
100
AcDbBlockBegin
  2
*MODEL_SPACE
 70
     0
 10
0.0
 20
0.0
 30
0.0
  3
*MODEL_SPACE
  1

  0
ENDBLK
  5
21
330
1F
100
AcDbEntity
  8
0
100
AcDbBlockEnd
  0
BLOCK
  5
1C
330
1B
100
AcDbEntity
 67
     1
  8
0
100
AcDbBlockBegin
  2
*PAPER_SPACE
  1

  0
ENDBLK
  5
1D
330
1B
100
AcDbEntity
 67
     1
  8
0
100
AcDbBlockEnd
  0
ENDSEC
  0
SECTION
  2
ENTITIES
  0
LWPOLYLINE
  5
100
100
AcDbEntity
  8
0
 62
7
100
AcDbPolyline
 90
79
 70
1
 10
31.186461
 20
63.501554
 30
0.0
 10
31.167609
 20
63.127852
 30
0.0
 10
31.112226
 20
62.764942
 30
0.0
 10
31.022160
 20
62.414665
 30
0.0
 10
30.899250
 20
62.078860
 30
0.0
 10
30.745340
 20
61.759359
 30
0.0
 10
30.562262
 20
61.457999
 30
0.0
 10
30.351854
 20
61.176627
 30
0.0
 10
30.115953
 20
60.917073
 30
0.0
 10
29.856393
 20
60.681171
 30
0.0
 10
29.575018
 20
60.470761
 30
0.0
 10
29.273661
 20
60.287680
 30
0.0
 10
28.954163
 20
60.133770
 30
0.0
 10
28.618355
 20
60.010863
 30
0.0
 10
28.268072
 20
59.920800
 30
0.0
 10
27.905168
 20
59.865414
 30
0.0
 10
27.531460
 20
59.846561
 30
0.0
 10
27.157757
 20
59.865414
 30
0.0
 10
26.794847
 20
59.920800
 30
0.0
 10
26.444573
 20
60.010865
 30
0.0
 10
26.108766
 20
60.133770
 30
0.0
 10
25.789265
 20
60.287683
 30
0.0
 10
25.487909
 20
60.470763
 30
0.0
 10
25.206534
 20
60.681171
 30
0.0
 10
24.946976
 20
60.917073
 30
0.0
 10
24.711074
 20
61.176627
 30
0.0
 10
24.500667
 20
61.458002
 30
0.0
 10
24.317589
 20
61.759359
 30
0.0
 10
24.163675
 20
62.078860
 30
0.0
 10
24.040771
 20
62.414668
 30
0.0
 10
23.950703
 20
62.764942
 30
0.0
 10
23.895318
 20
63.127852
 30
0.0
 10
23.876448
 20
63.501554
 30
0.0
 10
23.895318
 20
63.875261
 30
0.0
 10
23.950703
 20
64.238170
 30
0.0
 10
24.040769
 20
64.588451
 30
0.0
 10
24.163675
 20
64.924253
 30
0.0
 10
24.317586
 20
65.243754
 30
0.0
 10
24.500665
 20
65.545111
 30
0.0
 10
24.711074
 20
65.826486
 30
0.0
 10
24.946975
 20
66.086040
 30
0.0
 10
25.206531
 20
66.321947
 30
0.0
 10
25.487907
 20
66.532352
 30
0.0
 10
25.789265
 20
66.715432
 30
0.0
 10
26.108766
 20
66.869342
 30
0.0
 10
26.444571
 20
66.992250
 30
0.0
 10
26.794847
 20
67.082319
 30
0.0
 10
27.157757
 20
67.137702
 30
0.0
 10
27.531460
 20
67.156554
 30
0.0
 10
27.905168
 20
67.137702
 30
0.0
 10
28.268072
 20
67.082319
 30
0.0
 10
28.618355
 20
66.992253
 30
0.0
 10
28.954163
 20
66.869345
 30
0.0
 10
29.273661
 20
66.715432
 30
0.0
 10
29.575018
 20
66.532352
 30
0.0
 10
29.856393
 20
66.321947
 30
0.0
 10
30.115953
 20
66.086040
 30
0.0
 10
30.351854
 20
65.826486
 30
0.0
 10
30.562262
 20
65.545111
 30
0.0
 10
30.745340
 20
65.243754
 30
0.0
 10
30.899255
 20
64.924253
 30
0.0
 10
31.022160
 20
64.588451
 30
0.0
 10
31.112226
 20
64.238170
 30
0.0
 10
31.167609
 20
63.875261
 30
0.0
 10
31.186461
 20
63.501554
 30
0.0
 10
31.186461
 20
63.501554
 30
0.0
 10
31.186461
 20
63.501554
 30
0.0
 10
31.186461
 20
63.501554
 30
0.0
 10
31.186461
 20
63.501554
 30
0.0
 10
31.186461
 20
63.501554
 30
0.0
 10
31.186461
 20
63.501554
 30
0.0
 10
31.186461
 20
63.501554
 30
0.0
 10
31.186461
 20
63.501554
 30
0.0
 10
31.186461
 20
63.501554
 30
0.0
 10
31.186461
 20
63.501554
 30
0.0
 10
31.186461
 20
63.501554
 30
0.0
 10
31.186461
 20
63.501554
 30
0.0
 10
31.186461
 20
63.501554
 30
0.0
 10
31.186461
 20
63.501554
 30
0.0
  0
LWPOLYLINE
  5
101
100
AcDbEntity
  8
0
 62
7
100
AcDbPolyline
 90
79
 70
1
 10
48.910333
 20
45.825821
 30
0.0
 10
48.887699
 20
45.377527
 30
0.0
 10
48.821255
 20
44.942180
 30
0.0
 10
48.713212
 20
44.521996
 30
0.0
 10
48.565774
 20
44.119166
 30
0.0
 10
48.381144
 20
43.735894
 30
0.0
 10
48.161524
 20
43.374390
 30
0.0
 10
47.909122
 20
43.036855
 30
0.0
 10
47.626135
 20
42.725488
 30
0.0
 10
47.314773
 20
42.442510
 30
0.0
 10
46.977238
 20
42.190104
 30
0.0
 10
46.615734
 20
41.970484
 30
0.0
 10
46.232462
 20
41.785849
 30
0.0
 10
45.829632
 20
41.638416
 30
0.0
 10
45.409443
 20
41.530370
 30
0.0
 10
44.974101
 20
41.463932
 30
0.0
 10
44.525808
 20
41.441298
 30
0.0
 10
44.077515
 20
41.463932
 30
0.0
 10
43.642173
 20
41.530370
 30
0.0
 10
43.221986
 20
41.638416
 30
0.0
 10
42.819153
 20
41.785849
 30
0.0
 10
42.435884
 20
41.970487
 30
0.0
 10
42.074380
 20
42.190104
 30
0.0
 10
41.736845
 20
42.442510
 30
0.0
 10
41.425484
 20
42.725497
 30
0.0
 10
41.142497
 20
43.036858
 30
0.0
 10
40.890094
 20
43.374393
 30
0.0
 10
40.670474
 20
43.735894
 30
0.0
 10
40.485842
 20
44.119166
 30
0.0
 10
40.338406
 20
44.521999
 30
0.0
 10
40.230363
 20
44.942180
 30
0.0
 10
40.163925
 20
45.377527
 30
0.0
 10
40.141291
 20
45.825821
 30
0.0
 10
40.163925
 20
46.274108
 30
0.0
 10
40.230363
 20
46.709456
 30
0.0
 10
40.338403
 20
47.129642
 30
0.0
 10
40.485842
 20
47.532469
 30
0.0
 10
40.670472
 20
47.915741
 30
0.0
 10
40.890091
 20
48.277245
 30
0.0
 10
41.142497
 20
48.614780
 30
0.0
 10
41.425481
 20
48.926147
 30
0.0
 10
41.736843
 20
49.209134
 30
0.0
 10
42.074378
 20
49.461537
 30
0.0
 10
42.435884
 20
49.681151
 30
0.0
 10
42.819153
 20
49.865787
 30
0.0
 10
43.221983
 20
50.013225
 30
0.0
 10
43.642173
 20
50.121268
 30
0.0
 10
44.077515
 20
50.187706
 30
0.0
 10
44.525808
 20
50.210340
 30
0.0
 10
44.974101
 20
50.187706
 30
0.0
 10
45.409443
 20
50.121268
 30
0.0
 10
45.829632
 20
50.013225
 30
0.0
 10
46.232462
 20
49.865789
 30
0.0
 10
46.615734
 20
49.681151
 30
0.0
 10
46.977238
 20
49.461537
 30
0.0
 10
47.314773
 20
49.209134
 30
0.0
 10
47.626135
 20
48.926147
 30
0.0
 10
47.909122
 20
48.614780
 30
0.0
 10
48.161524
 20
48.277245
 30
0.0
 10
48.381144
 20
47.915741
 30
0.0
 10
48.565776
 20
47.532469
 30
0.0
 10
48.713215
 20
47.129642
 30
0.0
 10
48.821255
 20
46.709456
 30
0.0
 10
48.887699
 20
46.274108
 30
0.0
 10
48.910333
 20
45.825821
 30
0.0
 10
48.910333
 20
45.825821
 30
0.0
 10
48.910333
 20
45.825821
 30
0.0
 10
48.910333
 20
45.825821
 30
0.0
 10
48.910333
 20
45.825821
 30
0.0
 10
48.910333
 20
45.825821
 30
0.0
 10
48.910333
 20
45.825821
 30
0.0
 10
48.910333
 20
45.825821
 30
0.0
 10
48.910333
 20
45.825821
 30
0.0
 10
48.910333
 20
45.825821
 30
0.0
 10
48.910333
 20
45.825821
 30
0.0
 10
48.910333
 20
45.825821
 30
0.0
 10
48.910333
 20
45.825821
 30
0.0
 10
48.910333
 20
45.825821
 30
0.0
 10
48.910333
 20
45.825821
 30
0.0
  0
LWPOLYLINE
  5
102
100
AcDbEntity
  8
0
 62
7
100
AcDbPolyline
 90
79
 70
1
 10
14.473333
 20
45.825821
 30
0.0
 10
14.450699
 20
45.377527
 30
0.0
 10
14.384258
 20
44.942180
 30
0.0
 10
14.276215
 20
44.521996
 30
0.0
 10
14.128776
 20
44.119166
 30
0.0
 10
13.944147
 20
43.735894
 30
0.0
 10
13.724527
 20
43.374390
 30
0.0
 10
13.472124
 20
43.036855
 30
0.0
 10
13.189137
 20
42.725488
 30
0.0
 10
12.877776
 20
42.442510
 30
0.0
 10
12.540241
 20
42.190104
 30
0.0
 10
12.178737
 20
41.970484
 30
0.0
 10
11.795465
 20
41.785849
 30
0.0
 10
11.392635
 20
41.638416
 30
0.0
 10
10.972445
 20
41.530370
 30
0.0
 10
10.537104
 20
41.463932
 30
0.0
 10
10.088810
 20
41.441298
 30
0.0
 10
9.640517
 20
41.463932
 30
0.0
 10
9.205176
 20
41.530370
 30
0.0
 10
8.784989
 20
41.638416
 30
0.0
 10
8.382156
 20
41.785849
 30
0.0
 10
7.998887
 20
41.970487
 30
0.0
 10
7.637383
 20
42.190104
 30
0.0
 10
7.299848
 20
42.442510
 30
0.0
 10
6.988486
 20
42.725497
 30
0.0
 10
6.705499
 20
43.036858
 30
0.0
 10
6.453097
 20
43.374393
 30
0.0
 10
6.233477
 20
43.735894
 30
0.0
 10
6.048845
 20
44.119166
 30
0.0
 10
5.901409
 20
44.521999
 30
0.0
 10
5.793366
 20
44.942180
 30
0.0
 10
5.726925
 20
45.377527
 30
0.0
 10
5.704291
 20
45.825821
 30
0.0
 10
5.726925
 20
46.274108
 30
0.0
 10
5.793366
 20
46.709456
 30
0.0
 10
5.901406
 20
47.129642
 30
0.0
 10
6.048845
 20
47.532469
 30
0.0
 10
6.233474
 20
47.915741
 30
0.0
 10
6.453094
 20
48.277245
 30
0.0
 10
6.705499
 20
48.614780
 30
0.0
 10
6.988484
 20
48.926147
 30
0.0
 10
7.299845
 20
49.209134
 30
0.0
 10
7.637380
 20
49.461537
 30
0.0
 10
7.998887
 20
49.681151
 30
0.0
 10
8.382156
 20
49.865787
 30
0.0
 10
8.784986
 20
50.013225
 30
0.0
 10
9.205176
 20
50.121268
 30
0.0
 10
9.640517
 20
50.187706
 30
0.0
 10
10.088810
 20
50.210340
 30
0.0
 10
10.537104
 20
50.187706
 30
0.0
 10
10.972445
 20
50.121268
 30
0.0
 10
11.392635
 20
50.013225
 30
0.0
 10
11.795465
 20
49.865789
 30
0.0
 10
12.178737
 20
49.681151
 30
0.0
 10
12.540241
 20
49.461537
 30
0.0
 10
12.877776
 20
49.209134
 30
0.0
 10
13.189137
 20
48.926147
 30
0.0
 10
13.472124
 20
48.614780
 30
0.0
 10
13.724527
 20
48.277245
 30
0.0
 10
13.944147
 20
47.915741
 30
0.0
 10
14.128779
 20
47.532469
 30
0.0
 10
14.276218
 20
47.129642
 30
0.0
 10
14.384258
 20
46.709456
 30
0.0
 10
14.450699
 20
46.274108
 30
0.0
 10
14.473333
 20
45.825821
 30
0.0
 10
14.473333
 20
45.825821
 30
0.0
 10
14.473333
 20
45.825821
 30
0.0
 10
14.473333
 20
45.825821
 30
0.0
 10
14.473333
 20
45.825821
 30
0.0
 10
14.473333
 20
45.825821
 30
0.0
 10
14.473333
 20
45.825821
 30
0.0
 10
14.473333
 20
45.825821
 30
0.0
 10
14.473333
 20
45.825821
 30
0.0
 10
14.473333
 20
45.825821
 30
0.0
 10
14.473333
 20
45.825821
 30
0.0
 10
14.473333
 20
45.825821
 30
0.0
 10
14.473333
 20
45.825821
 30
0.0
 10
14.473333
 20
45.825821
 30
0.0
 10
14.473333
 20
45.825821
 30
0.0
  0
LWPOLYLINE
  5
103
100
AcDbEntity
  8
0
 62
7
100
AcDbPolyline
 90
79
 70
1
 10
30.928894
 20
47.438275
 30
0.0
 10
30.911340
 20
47.090853
 30
0.0
 10
30.859846
 20
46.753471
 30
0.0
 10
30.776113
 20
46.427829
 30
0.0
 10
30.661850
 20
46.115632
 30
0.0
 10
30.518766
 20
45.818601
 30
0.0
 10
30.348561
 20
45.538439
 30
0.0
 10
30.152950
 20
45.276850
 30
0.0
 10
29.933638
 20
45.035548
 30
0.0
 10
29.692335
 20
44.816238
 30
0.0
 10
29.430746
 20
44.620627
 30
0.0
 10
29.150584
 20
44.450425
 30
0.0
 10
28.853553
 20
44.307335
 30
0.0
 10
28.541365
 20
44.193075
 30
0.0
 10
28.215725
 20
44.109342
 30
0.0
 10
27.878334
 20
44.057851
 30
0.0
 10
27.530912
 20
44.040297
 30
0.0
 10
27.183493
 20
44.057851
 30
0.0
 10
26.846104
 20
44.109342
 30
0.0
 10
26.520463
 20
44.193075
 30
0.0
 10
26.208271
 20
44.307341
 30
0.0
 10
25.911240
 20
44.450425
 30
0.0
 10
25.631078
 20
44.620627
 30
0.0
 10
25.369493
 20
44.816238
 30
0.0
 10
25.128188
 20
45.035550
 30
0.0
 10
24.908877
 20
45.276853
 30
0.0
 10
24.713266
 20
45.538439
 30
0.0
 10
24.543062
 20
45.818601
 30
0.0
 10
24.399977
 20
46.115632
 30
0.0
 10
24.285712
 20
46.427829
 30
0.0
 10
24.201982
 20
46.753471
 30
0.0
 10
24.150490
 20
47.090853
 30
0.0
 10
24.132936
 20
47.438275
 30
0.0
 10
24.150490
 20
47.785699
 30
0.0
 10
24.201982
 20
48.123087
 30
0.0
 10
24.285712
 20
48.448726
 30
0.0
 10
24.399975
 20
48.760918
 30
0.0
 10
24.543062
 20
49.057951
 30
0.0
 10
24.713266
 20
49.338113
 30
0.0
 10
24.908877
 20
49.599702
 30
0.0
 10
25.128186
 20
49.841002
 30
0.0
 10
25.369488
 20
50.060317
 30
0.0
 10
25.631078
 20
50.255928
 30
0.0
 10
25.911240
 20
50.426127
 30
0.0
 10
26.208271
 20
50.569220
 30
0.0
 10
26.520463
 20
50.683477
 30
0.0
 10
26.846104
 20
50.767213
 30
0.0
 10
27.183493
 20
50.818701
 30
0.0
 10
27.530912
 20
50.836256
 30
0.0
 10
27.878336
 20
50.818701
 30
0.0
 10
28.215725
 20
50.767213
 30
0.0
 10
28.541365
 20
50.683477
 30
0.0
 10
28.853553
 20
50.569220
 30
0.0
 10
29.150584
 20
50.426127
 30
0.0
 10
29.430749
 20
50.255928
 30
0.0
 10
29.692335
 20
50.060317
 30
0.0
 10
29.933638
 20
49.841002
 30
0.0
 10
30.152950
 20
49.599702
 30
0.0
 10
30.348561
 20
49.338116
 30
0.0
 10
30.518766
 20
49.057951
 30
0.0
 10
30.661850
 20
48.760918
 30
0.0
 10
30.776113
 20
48.448726
 30
0.0
 10
30.859846
 20
48.123087
 30
0.0
 10
30.911340
 20
47.785699
 30
0.0
 10
30.928894
 20
47.438275
 30
0.0
 10
30.928894
 20
47.438275
 30
0.0
 10
30.928894
 20
47.438275
 30
0.0
 10
30.928894
 20
47.438275
 30
0.0
 10
30.928894
 20
47.438275
 30
0.0
 10
30.928894
 20
47.438275
 30
0.0
 10
30.928894
 20
47.438275
 30
0.0
 10
30.928894
 20
47.438275
 30
0.0
 10
30.928894
 20
47.438275
 30
0.0
 10
30.928894
 20
47.438275
 30
0.0
 10
30.928894
 20
47.438275
 30
0.0
 10
30.928894
 20
47.438275
 30
0.0
 10
30.928894
 20
47.438275
 30
0.0
 10
30.928894
 20
47.438275
 30
0.0
 10
30.928894
 20
47.438275
 30
0.0
  0
LWPOLYLINE
  5
104
100
AcDbEntity
  8
0
 62
7
100
AcDbPolyline
 90
79
 70
1
 10
47.025190
 20
103.017207
 30
0.0
 10
47.016526
 20
102.845385
 30
0.0
 10
46.991069
 20
102.678524
 30
0.0
 10
46.949659
 20
102.517471
 30
0.0
 10
46.893147
 20
102.363075
 30
0.0
 10
46.822385
 20
102.216173
 30
0.0
 10
46.738204
 20
102.077613
 30
0.0
 10
46.641464
 20
101.948242
 30
0.0
 10
46.533000
 20
101.828905
 30
0.0
 10
46.413660
 20
101.720438
 30
0.0
 10
46.284286
 20
101.623695
 30
0.0
 10
46.145729
 20
101.539517
 30
0.0
 10
45.998827
 20
101.468753
 30
0.0
 10
45.844429
 20
101.412240
 30
0.0
 10
45.683376
 20
101.370833
 30
0.0
 10
45.516517
 20
101.345376
 30
0.0
 10
45.344692
 20
101.336712
 30
0.0
 10
45.172870
 20
101.345376
 30
0.0
 10
45.006009
 20
101.370833
 30
0.0
 10
44.844958
 20
101.412243
 30
0.0
 10
44.690563
 20
101.468753
 30
0.0
 10
44.543658
 20
101.539520
 30
0.0
 10
44.405101
 20
101.623695
 30
0.0
 10
44.275727
 20
101.720438
 30
0.0
 10
44.156387
 20
101.828905
 30
0.0
 10
44.047923
 20
101.948242
 30
0.0
 10
43.951183
 20
102.077613
 30
0.0
 10
43.867005
 20
102.216173
 30
0.0
 10
43.796238
 20
102.363075
 30
0.0
 10
43.739728
 20
102.517473
 30
0.0
 10
43.698318
 20
102.678524
 30
0.0
 10
43.672861
 20
102.845385
 30
0.0
 10
43.664197
 20
103.017207
 30
0.0
 10
43.672861
 20
103.189030
 30
0.0
 10
43.698318
 20
103.355891
 30
0.0
 10
43.739728
 20
103.516941
 30
0.0
 10
43.796238
 20
103.671342
 30
0.0
 10
43.867005
 20
103.818241
 30
0.0
 10
43.951180
 20
103.956801
 30
0.0
 10
44.047923
 20
104.086175
 30
0.0
 10
44.156387
 20
104.205512
 30
0.0
 10
44.275727
 20
104.313979
 30
0.0
 10
44.405098
 20
104.410719
 30
0.0
 10
44.543658
 20
104.494897
 30
0.0
 10
44.690563
 20
104.565662
 30
0.0
 10
44.844958
 20
104.622177
 30
0.0
 10
45.006009
 20
104.663584
 30
0.0
 10
45.172870
 20
104.689041
 30
0.0
 10
45.344692
 20
104.697705
 30
0.0
 10
45.516517
 20
104.689041
 30
0.0
 10
45.683376
 20
104.663584
 30
0.0
 10
45.844429
 20
104.622177
 30
0.0
 10
45.998827
 20
104.565662
 30
0.0
 10
46.145729
 20
104.494897
 30
0.0
 10
46.284286
 20
104.410719
 30
0.0
 10
46.413660
 20
104.313979
 30
0.0
 10
46.533000
 20
104.205512
 30
0.0
 10
46.641464
 20
104.086175
 30
0.0
 10
46.738204
 20
103.956801
 30
0.0
 10
46.822385
 20
103.818241
 30
0.0
 10
46.893150
 20
103.671342
 30
0.0
 10
46.949659
 20
103.516941
 30
0.0
 10
46.991069
 20
103.355891
 30
0.0
 10
47.016526
 20
103.189030
 30
0.0
 10
47.025190
 20
103.017207
 30
0.0
 10
47.025190
 20
103.017207
 30
0.0
 10
47.025190
 20
103.017207
 30
0.0
 10
47.025190
 20
103.017207
 30
0.0
 10
47.025190
 20
103.017207
 30
0.0
 10
47.025190
 20
103.017207
 30
0.0
 10
47.025190
 20
103.017207
 30
0.0
 10
47.025190
 20
103.017207
 30
0.0
 10
47.025190
 20
103.017207
 30
0.0
 10
47.025190
 20
103.017207
 30
0.0
 10
47.025190
 20
103.017207
 30
0.0
 10
47.025190
 20
103.017207
 30
0.0
 10
47.025190
 20
103.017207
 30
0.0
 10
47.025190
 20
103.017207
 30
0.0
 10
47.025190
 20
103.017207
 30
0.0
  0
LWPOLYLINE
  5
105
100
AcDbEntity
  8
0
 62
7
100
AcDbPolyline
 90
79
 70
1
 10
11.159715
 20
103.017207
 30
0.0
 10
11.151050
 20
102.845385
 30
0.0
 10
11.125594
 20
102.678524
 30
0.0
 10
11.084184
 20
102.517471
 30
0.0
 10
11.027672
 20
102.363075
 30
0.0
 10
10.956907
 20
102.216173
 30
0.0
 10
10.872729
 20
102.077613
 30
0.0
 10
10.775989
 20
101.948242
 30
0.0
 10
10.667525
 20
101.828905
 30
0.0
 10
10.548185
 20
101.720438
 30
0.0
 10
10.418811
 20
101.623695
 30
0.0
 10
10.280254
 20
101.539517
 30
0.0
 10
10.133352
 20
101.468753
 30
0.0
 10
9.978954
 20
101.412240
 30
0.0
 10
9.817901
 20
101.370833
 30
0.0
 10
9.651043
 20
101.345376
 30
0.0
 10
9.479217
 20
101.336712
 30
0.0
 10
9.307395
 20
101.345376
 30
0.0
 10
9.140534
 20
101.370833
 30
0.0
 10
8.979483
 20
101.412243
 30
0.0
 10
8.825085
 20
101.468753
 30
0.0
 10
8.678183
 20
101.539520
 30
0.0
 10
8.539626
 20
101.623695
 30
0.0
 10
8.410253
 20
101.720438
 30
0.0
 10
8.290912
 20
101.828905
 30
0.0
 10
8.182448
 20
101.948242
 30
0.0
 10
8.085708
 20
102.077613
 30
0.0
 10
8.001530
 20
102.216173
 30
0.0
 10
7.930763
 20
102.363075
 30
0.0
 10
7.874253
 20
102.517473
 30
0.0
 10
7.832843
 20
102.678524
 30
0.0
 10
7.807387
 20
102.845385
 30
0.0
 10
7.798722
 20
103.017207
 30
0.0
 10
7.807387
 20
103.189030
 30
0.0
 10
7.832843
 20
103.355891
 30
0.0
 10
7.874253
 20
103.516941
 30
0.0
 10
7.930763
 20
103.671342
 30
0.0
 10
8.001530
 20
103.818241
 30
0.0
 10
8.085705
 20
103.956801
 30
0.0
 10
8.182448
 20
104.086175
 30
0.0
 10
8.290912
 20
104.205512
 30
0.0
 10
8.410253
 20
104.313979
 30
0.0
 10
8.539623
 20
104.410719
 30
0.0
 10
8.678183
 20
104.494897
 30
0.0
 10
8.825085
 20
104.565662
 30
0.0
 10
8.979483
 20
104.622177
 30
0.0
 10
9.140534
 20
104.663584
 30
0.0
 10
9.307395
 20
104.689041
 30
0.0
 10
9.479217
 20
104.697705
 30
0.0
 10
9.651043
 20
104.689041
 30
0.0
 10
9.817901
 20
104.663584
 30
0.0
 10
9.978954
 20
104.622177
 30
0.0
 10
10.133352
 20
104.565662
 30
0.0
 10
10.280254
 20
104.494897
 30
0.0
 10
10.418811
 20
104.410719
 30
0.0
 10
10.548185
 20
104.313979
 30
0.0
 10
10.667525
 20
104.205512
 30
0.0
 10
10.775989
 20
104.086175
 30
0.0
 10
10.872729
 20
103.956801
 30
0.0
 10
10.956907
 20
103.818241
 30
0.0
 10
11.027675
 20
103.671342
 30
0.0
 10
11.084184
 20
103.516941
 30
0.0
 10
11.125594
 20
103.355891
 30
0.0
 10
11.151050
 20
103.189030
 30
0.0
 10
11.159715
 20
103.017207
 30
0.0
 10
11.159715
 20
103.017207
 30
0.0
 10
11.159715
 20
103.017207
 30
0.0
 10
11.159715
 20
103.017207
 30
0.0
 10
11.159715
 20
103.017207
 30
0.0
 10
11.159715
 20
103.017207
 30
0.0
 10
11.159715
 20
103.017207
 30
0.0
 10
11.159715
 20
103.017207
 30
0.0
 10
11.159715
 20
103.017207
 30
0.0
 10
11.159715
 20
103.017207
 30
0.0
 10
11.159715
 20
103.017207
 30
0.0
 10
11.159715
 20
103.017207
 30
0.0
 10
11.159715
 20
103.017207
 30
0.0
 10
11.159715
 20
103.017207
 30
0.0
 10
11.159715
 20
103.017207
 30
0.0
  0
LWPOLYLINE
  5
106
100
AcDbEntity
  8
0
 62
7
100
AcDbPolyline
 90
79
 70
1
 10
52.157737
 20
91.974542
 30
0.0
 10
52.139026
 20
91.603318
 30
0.0
 10
52.084004
 20
91.242818
 30
0.0
 10
51.994539
 20
90.894867
 30
0.0
 10
51.872444
 20
90.561288
 30
0.0
 10
51.719553
 20
90.243910
 30
0.0
 10
51.537695
 20
89.944548
 30
0.0
 10
51.328681
 20
89.665044
 30
0.0
 10
51.094346
 20
89.407211
 30
0.0
 10
50.836508
 20
89.172874
 30
0.0
 10
50.556998
 20
88.963860
 30
0.0
 10
50.257645
 20
88.781996
 30
0.0
 10
49.940264
 20
88.629108
 30
0.0
 10
49.606685
 20
88.507015
 30
0.0
 10
49.258731
 20
88.417548
 30
0.0
 10
48.898234
 20
88.362532
 30
0.0
 10
48.527005
 20
88.343792
 30
0.0
 10
48.155784
 20
88.362532
 30
0.0
 10
47.795282
 20
88.417548
 30
0.0
 10
47.447333
 20
88.507018
 30
0.0
 10
47.113752
 20
88.629108
 30
0.0
 10
46.796373
 20
88.781999
 30
0.0
 10
46.497014
 20
88.963865
 30
0.0
 10
46.217513
 20
89.172874
 30
0.0
 10
45.959674
 20
89.407211
 30
0.0
 10
45.725340
 20
89.665044
 30
0.0
 10
45.516329
 20
89.944551
 30
0.0
 10
45.334462
 20
90.243910
 30
0.0
 10
45.181571
 20
90.561288
 30
0.0
 10
45.059484
 20
90.894869
 30
0.0
 10
44.970011
 20
91.242818
 30
0.0
 10
44.914995
 20
91.603318
 30
0.0
 10
44.896284
 20
91.974542
 30
0.0
 10
44.914995
 20
92.345768
 30
0.0
 10
44.970011
 20
92.706270
 30
0.0
 10
45.059481
 20
93.054225
 30
0.0
 10
45.181571
 20
93.387800
 30
0.0
 10
45.334459
 20
93.705179
 30
0.0
 10
45.516326
 20
94.004535
 30
0.0
 10
45.725340
 20
94.284045
 30
0.0
 10
45.959674
 20
94.541878
 30
0.0
 10
46.217510
 20
94.776218
 30
0.0
 10
46.497014
 20
94.985229
 30
0.0
 10
46.796373
 20
95.167090
 30
0.0
 10
47.113752
 20
95.319981
 30
0.0
 10
47.447330
 20
95.442073
 30
0.0
 10
47.795282
 20
95.531541
 30
0.0
 10
48.155784
 20
95.586563
 30
0.0
 10
48.527005
 20
95.605274
 30
0.0
 10
48.898234
 20
95.586563
 30
0.0
 10
49.258731
 20
95.531541
 30
0.0
 10
49.606685
 20
95.442076
 30
0.0
 10
49.940264
 20
95.319984
 30
0.0
 10
50.257645
 20
95.167090
 30
0.0
 10
50.556998
 20
94.985229
 30
0.0
 10
50.836508
 20
94.776218
 30
0.0
 10
51.094346
 20
94.541878
 30
0.0
 10
51.328681
 20
94.284045
 30
0.0
 10
51.537695
 20
94.004535
 30
0.0
 10
51.719553
 20
93.705179
 30
0.0
 10
51.872450
 20
93.387800
 30
0.0
 10
51.994539
 20
93.054225
 30
0.0
 10
52.084004
 20
92.706270
 30
0.0
 10
52.139026
 20
92.345768
 30
0.0
 10
52.157737
 20
91.974542
 30
0.0
 10
52.157737
 20
91.974542
 30
0.0
 10
52.157737
 20
91.974542
 30
0.0
 10
52.157737
 20
91.974542
 30
0.0
 10
52.157737
 20
91.974542
 30
0.0
 10
52.157737
 20
91.974542
 30
0.0
 10
52.157737
 20
91.974542
 30
0.0
 10
52.157737
 20
91.974542
 30
0.0
 10
52.157737
 20
91.974542
 30
0.0
 10
52.157737
 20
91.974542
 30
0.0
 10
52.157737
 20
91.974542
 30
0.0
 10
52.157737
 20
91.974542
 30
0.0
 10
52.157737
 20
91.974542
 30
0.0
 10
52.157737
 20
91.974542
 30
0.0
 10
52.157737
 20
91.974542
 30
0.0
  0
LWPOLYLINE
  5
107
100
AcDbEntity
  8
0
 62
7
100
AcDbPolyline
 90
79
 70
1
 10
31.176587
 20
100.275417
 30
0.0
 10
31.157762
 20
99.902725
 30
0.0
 10
31.102529
 20
99.540801
 30
0.0
 10
31.012706
 20
99.191469
 30
0.0
 10
30.890128
 20
98.856567
 30
0.0
 10
30.736633
 20
98.537933
 30
0.0
 10
30.554052
 20
98.237388
 30
0.0
 10
30.344212
 20
97.956775
 30
0.0
 10
30.108951
 20
97.697921
 30
0.0
 10
29.850091
 20
97.462655
 30
0.0
 10
29.569475
 20
97.252814
 30
0.0
 10
29.268934
 20
97.070233
 30
0.0
 10
28.950299
 20
96.916735
 30
0.0
 10
28.615397
 20
96.794163
 30
0.0
 10
28.266071
 20
96.704340
 30
0.0
 10
27.904148
 20
96.649107
 30
0.0
 10
27.531449
 20
96.630311
 30
0.0
 10
27.158757
 20
96.649107
 30
0.0
 10
26.796828
 20
96.704340
 30
0.0
 10
26.447499
 20
96.794163
 30
0.0
 10
26.112598
 20
96.916735
 30
0.0
 10
25.793961
 20
97.070233
 30
0.0
 10
25.493419
 20
97.252820
 30
0.0
 10
25.212808
 20
97.462655
 30
0.0
 10
24.953949
 20
97.697921
 30
0.0
 10
24.718685
 20
97.956775
 30
0.0
 10
24.508847
 20
98.237391
 30
0.0
 10
24.326264
 20
98.537933
 30
0.0
 10
24.172766
 20
98.856567
 30
0.0
 10
24.050193
 20
99.191475
 30
0.0
 10
23.960369
 20
99.540801
 30
0.0
 10
23.905133
 20
99.902725
 30
0.0
 10
23.886323
 20
100.275417
 30
0.0
 10
23.905133
 20
100.648119
 30
0.0
 10
23.960369
 20
101.010044
 30
0.0
 10
24.050190
 20
101.359379
 30
0.0
 10
24.172766
 20
101.694275
 30
0.0
 10
24.326260
 20
102.012909
 30
0.0
 10
24.508844
 20
102.313453
 30
0.0
 10
24.718685
 20
102.594070
 30
0.0
 10
24.953949
 20
102.852924
 30
0.0
 10
25.212804
 20
103.088190
 30
0.0
 10
25.493419
 20
103.298028
 30
0.0
 10
25.793961
 20
103.480612
 30
0.0
 10
26.112598
 20
103.634110
 30
0.0
 10
26.447496
 20
103.756681
 30
0.0
 10
26.796828
 20
103.846510
 30
0.0
 10
27.158757
 20
103.901744
 30
0.0
 10
27.531449
 20
103.920540
 30
0.0
 10
27.904148
 20
103.901744
 30
0.0
 10
28.266071
 20
103.846510
 30
0.0
 10
28.615397
 20
103.756687
 30
0.0
 10
28.950299
 20
103.634115
 30
0.0
 10
29.268934
 20
103.480612
 30
0.0
 10
29.569475
 20
103.298028
 30
0.0
 10
29.850091
 20
103.088190
 30
0.0
 10
30.108951
 20
102.852924
 30
0.0
 10
30.344212
 20
102.594070
 30
0.0
 10
30.554052
 20
102.313453
 30
0.0
 10
30.736633
 20
102.012909
 30
0.0
 10
30.890131
 20
101.694275
 30
0.0
 10
31.012706
 20
101.359379
 30
0.0
 10
31.102529
 20
101.010044
 30
0.0
 10
31.157762
 20
100.648119
 30
0.0
 10
31.176587
 20
100.275417
 30
0.0
 10
31.176587
 20
100.275417
 30
0.0
 10
31.176587
 20
100.275417
 30
0.0
 10
31.176587
 20
100.275417
 30
0.0
 10
31.176587
 20
100.275417
 30
0.0
 10
31.176587
 20
100.275417
 30
0.0
 10
31.176587
 20
100.275417
 30
0.0
 10
31.176587
 20
100.275417
 30
0.0
 10
31.176587
 20
100.275417
 30
0.0
 10
31.176587
 20
100.275417
 30
0.0
 10
31.176587
 20
100.275417
 30
0.0
 10
31.176587
 20
100.275417
 30
0.0
 10
31.176587
 20
100.275417
 30
0.0
 10
31.176587
 20
100.275417
 30
0.0
 10
31.176587
 20
100.275417
 30
0.0
  0
LWPOLYLINE
  5
108
100
AcDbEntity
  8
0
 62
7
100
AcDbPolyline
 90
79
 70
1
 10
10.218484
 20
91.974542
 30
0.0
 10
10.199623
 20
91.600868
 30
0.0
 10
10.144242
 20
91.237984
 30
0.0
 10
10.054184
 20
90.887732
 30
0.0
 10
9.931283
 20
90.551950
 30
0.0
 10
9.777383
 20
90.232474
 30
0.0
 10
9.594320
 20
89.931137
 30
0.0
 10
9.383926
 20
89.649784
 30
0.0
 10
9.148042
 20
89.390247
 30
0.0
 10
8.888501
 20
89.154363
 30
0.0
 10
8.607146
 20
88.943969
 30
0.0
 10
8.305812
 20
88.760902
 30
0.0
 10
7.986336
 20
88.607004
 30
0.0
 10
7.650553
 20
88.484105
 30
0.0
 10
7.300307
 20
88.394047
 30
0.0
 10
6.937429
 20
88.338664
 30
0.0
 10
6.563748
 20
88.319812
 30
0.0
 10
6.190073
 20
88.338664
 30
0.0
 10
5.827189
 20
88.394047
 30
0.0
 10
5.476941
 20
88.484107
 30
0.0
 10
5.141155
 20
88.607004
 30
0.0
 10
4.821679
 20
88.760905
 30
0.0
 10
4.520345
 20
88.943972
 30
0.0
 10
4.238992
 20
89.154363
 30
0.0
 10
3.979452
 20
89.390247
 30
0.0
 10
3.743569
 20
89.649784
 30
0.0
 10
3.533176
 20
89.931140
 30
0.0
 10
3.350111
 20
90.232474
 30
0.0
 10
3.196208
 20
90.551950
 30
0.0
 10
3.073313
 20
90.887735
 30
0.0
 10
2.983253
 20
91.237984
 30
0.0
 10
2.927871
 20
91.600868
 30
0.0
 10
2.909010
 20
91.974542
 30
0.0
 10
2.927871
 20
92.348221
 30
0.0
 10
2.983253
 20
92.711105
 30
0.0
 10
3.073310
 20
93.061360
 30
0.0
 10
3.196208
 20
93.397139
 30
0.0
 10
3.350108
 20
93.716615
 30
0.0
 10
3.533174
 20
94.017949
 30
0.0
 10
3.743569
 20
94.299305
 30
0.0
 10
3.979452
 20
94.558842
 30
0.0
 10
4.238990
 20
94.794729
 30
0.0
 10
4.520345
 20
95.005120
 30
0.0
 10
4.821679
 20
95.188186
 30
0.0
 10
5.141155
 20
95.342085
 30
0.0
 10
5.476938
 20
95.464984
 30
0.0
 10
5.827189
 20
95.555044
 30
0.0
 10
6.190073
 20
95.610427
 30
0.0
 10
6.563748
 20
95.629280
 30
0.0
 10
6.937429
 20
95.610427
 30
0.0
 10
7.300307
 20
95.555044
 30
0.0
 10
7.650553
 20
95.464987
 30
0.0
 10
7.986336
 20
95.342088
 30
0.0
 10
8.305812
 20
95.188186
 30
0.0
 10
8.607146
 20
95.005120
 30
0.0
 10
8.888501
 20
94.794729
 30
0.0
 10
9.148042
 20
94.558842
 30
0.0
 10
9.383926
 20
94.299305
 30
0.0
 10
9.594320
 20
94.017949
 30
0.0
 10
9.777383
 20
93.716615
 30
0.0
 10
9.931288
 20
93.397139
 30
0.0
 10
10.054184
 20
93.061360
 30
0.0
 10
10.144242
 20
92.711105
 30
0.0
 10
10.199623
 20
92.348221
 30
0.0
 10
10.218484
 20
91.974542
 30
0.0
 10
10.218484
 20
91.974542
 30
0.0
 10
10.218484
 20
91.974542
 30
0.0
 10
10.218484
 20
91.974542
 30
0.0
 10
10.218484
 20
91.974542
 30
0.0
 10
10.218484
 20
91.974542
 30
0.0
 10
10.218484
 20
91.974542
 30
0.0
 10
10.218484
 20
91.974542
 30
0.0
 10
10.218484
 20
91.974542
 30
0.0
 10
10.218484
 20
91.974542
 30
0.0
 10
10.218484
 20
91.974542
 30
0.0
 10
10.218484
 20
91.974542
 30
0.0
 10
10.218484
 20
91.974542
 30
0.0
 10
10.218484
 20
91.974542
 30
0.0
 10
10.218484
 20
91.974542
 30
0.0
  0
LWPOLYLINE
  5
109
100
AcDbEntity
  8
outer
 62
7
100
AcDbPolyline
 90
17
 70
1
 10
0.141111
 20
107.032211
 30
0.0
 10
55.032196
 20
107.032211
 30
0.0
 10
55.032196
 20
0.141122
 30
0.0
 10
0.141111
 20
0.141122
 30
0.0
 10
0.141111
 20
107.032211
 30
0.0
 10
0.141111
 20
107.032211
 30
0.0
 10
0.141111
 20
107.032211
 30
0.0
 10
0.141111
 20
107.032211
 30
0.0
 10
0.141111
 20
107.032211
 30
0.0
 10
0.141111
 20
107.032211
 30
0.0
 10
0.141111
 20
107.032211
 30
0.0
 10
0.141111
 20
107.032211
 30
0.0
 10
0.141111
 20
107.032211
 30
0.0
 10
0.141111
 20
107.032211
 30
0.0
 10
0.141111
 20
107.032211
 30
0.0
 10
0.141111
 20
107.032211
 30
0.0
 10
0.141111
 20
107.032211
 30
0.0
  0
LWPOLYLINE
  5
10a
100
AcDbEntity
  8
outer
 62
7
100
AcDbPolyline
 90
79
 70
1
 10
34.094510
 20
35.269142
 30
0.0
 10
34.060624
 20
34.598139
 30
0.0
 10
33.961177
 20
33.946519
 30
0.0
 10
33.799464
 20
33.317581
 30
0.0
 10
33.578774
 20
32.714624
 30
0.0
 10
33.302422
 20
32.140943
 30
0.0
 10
32.973698
 20
31.599841
 30
0.0
 10
32.595896
 20
31.094621
 30
0.0
 10
32.172326
 20
30.628576
 30
0.0
 10
31.706281
 20
30.205008
 30
0.0
 10
31.201055
 20
29.827206
 30
0.0
 10
30.659956
 20
29.498479
 30
0.0
 10
30.086277
 20
29.222116
 30
0.0
 10
29.483323
 20
29.001432
 30
0.0
 10
28.854386
 20
28.839713
 30
0.0
 10
28.202766
 20
28.740272
 30
0.0
 10
27.531764
 20
28.706383
 30
0.0
 10
26.860763
 20
28.740272
 30
0.0
 10
26.209143
 20
28.839713
 30
0.0
 10
25.580204
 20
29.001432
 30
0.0
 10
24.977248
 20
29.222116
 30
0.0
 10
24.403572
 20
29.498479
 30
0.0
 10
23.862472
 20
29.827206
 30
0.0
 10
23.357250
 20
30.205008
 30
0.0
 10
22.891204
 20
30.628576
 30
0.0
 10
22.467633
 20
31.094621
 30
0.0
 10
22.089832
 20
31.599841
 30
0.0
 10
21.761108
 20
32.140946
 30
0.0
 10
21.484753
 20
32.714624
 30
0.0
 10
21.264067
 20
33.317581
 30
0.0
 10
21.102351
 20
33.946519
 30
0.0
 10
21.002902
 20
34.598139
 30
0.0
 10
20.969020
 20
35.269142
 30
0.0
 10
21.002902
 20
35.940142
 30
0.0
 10
21.102351
 20
36.591762
 30
0.0
 10
21.264067
 20
37.220700
 30
0.0
 10
21.484753
 20
37.823656
 30
0.0
 10
21.761107
 20
38.397335
 30
0.0
 10
22.089832
 20
38.938431
 30
0.0
 10
22.467631
 20
39.443657
 30
0.0
 10
22.891201
 20
39.909702
 30
0.0
 10
23.357250
 20
40.333275
 30
0.0
 10
23.862472
 20
40.711075
 30
0.0
 10
24.403569
 20
41.039799
 30
0.0
 10
24.977248
 20
41.316156
 30
0.0
 10
25.580204
 20
41.536840
 30
0.0
 10
26.209143
 20
41.698556
 30
0.0
 10
26.860763
 20
41.798006
 30
0.0
 10
27.531764
 20
41.831887
 30
0.0
 10
28.202766
 20
41.798006
 30
0.0
 10
28.854386
 20
41.698556
 30
0.0
 10
29.483323
 20
41.536840
 30
0.0
 10
30.086280
 20
41.316156
 30
0.0
 10
30.659956
 20
41.039802
 30
0.0
 10
31.201061
 20
40.711075
 30
0.0
 10
31.706281
 20
40.333275
 30
0.0
 10
32.172326
 20
39.909702
 30
0.0
 10
32.595899
 20
39.443657
 30
0.0
 10
32.973698
 20
38.938437
 30
0.0
 10
33.302422
 20
38.397335
 30
0.0
 10
33.578774
 20
37.823659
 30
0.0
 10
33.799464
 20
37.220700
 30
0.0
 10
33.961177
 20
36.591762
 30
0.0
 10
34.060624
 20
35.940142
 30
0.0
 10
34.094510
 20
35.269142
 30
0.0
 10
34.094510
 20
35.269142
 30
0.0
 10
34.094510
 20
35.269142
 30
0.0
 10
34.094510
 20
35.269142
 30
0.0
 10
34.094510
 20
35.269142
 30
0.0
 10
34.094510
 20
35.269142
 30
0.0
 10
34.094510
 20
35.269142
 30
0.0
 10
34.094510
 20
35.269142
 30
0.0
 10
34.094510
 20
35.269142
 30
0.0
 10
34.094510
 20
35.269142
 30
0.0
 10
34.094510
 20
35.269142
 30
0.0
 10
34.094510
 20
35.269142
 30
0.0
 10
34.094510
 20
35.269142
 30
0.0
 10
34.094510
 20
35.269142
 30
0.0
 10
34.094510
 20
35.269142
 30
0.0
  0
ENDSEC
  0
SECTION
  2
OBJECTS
  0
DICTIONARY
  5
C
330
0
100
AcDbDictionary
  3
ACAD_GROUP
350
D
  3
ACAD_MLINESTYLE
350
17
  0
DICTIONARY
  5
D
330
C
100
AcDbDictionary
  0
DICTIONARY
  5
1A
330
C
100
AcDbDictionary
  0
DICTIONARY
  5
17
330
C
100
AcDbDictionary
  3
STANDARD
350
18
  0
DICTIONARY
  5
19
330
C
100
AcDbDictionary
  0
ENDSEC
  0
EOF
